<?xml version="1.0" encoding="UTF-8" standalone="no"?>
<!DOCTYPE svg PUBLIC "-//W3C//DTD SVG 1.1//EN"
 "http://www.w3.org/Graphics/SVG/1.1/DTD/svg11.dtd">
<!-- Generated by graphviz version 2.43.0 (0)
 -->
<!-- Title: m_assign_variables::s_assign_patch_xxxxx_primitive_variables::s_assign_patch_xxxxx_primitive_variables Pages: 1 -->
<svg width="700pt" height="229pt"
 viewBox="0.00 0.00 700.00 229.00" xmlns="http://www.w3.org/2000/svg" xmlns:xlink="http://www.w3.org/1999/xlink">
<g id="graph0" class="graph" transform="scale(1 1) rotate(0) translate(4 225)">
<title>m_assign_variables::s_assign_patch_xxxxx_primitive_variables::s_assign_patch_xxxxx_primitive_variables</title>
<!-- Node1 -->
<g id="node1" class="node">
<title>Node1</title>
<g id="a_node1"><a xlink:title=" ">
<polygon fill="#999999" stroke="#666666" points="176,-150 0,-150 0,-87 176,-87 176,-150"/>
<text text-anchor="start" x="8" y="-138" font-family="Helvetica,sans-Serif" font-size="10.00">m_assign_variables</text>
<text text-anchor="start" x="8" y="-127" font-family="Helvetica,sans-Serif" font-size="10.00">::s_assign_patch_xxxxx</text>
<text text-anchor="start" x="8" y="-116" font-family="Helvetica,sans-Serif" font-size="10.00">_primitive_variables::</text>
<text text-anchor="start" x="8" y="-105" font-family="Helvetica,sans-Serif" font-size="10.00">s_assign_patch_xxxxx_primitive</text>
<text text-anchor="middle" x="88" y="-94" font-family="Helvetica,sans-Serif" font-size="10.00">_variables</text>
</a>
</g>
</g>
<!-- Node2 -->
<g id="node2" class="node">
<title>Node2</title>
<g id="a_node2"><a xlink:href="namespacem__assign__variables.html#aa06360954af8af6e857e009116101f20" target="_top" xlink:title="This subroutine assigns the mixture primitive variables of the patch designated by the patch_id,...">
<polygon fill="white" stroke="#666666" points="511,-221 371,-221 371,-180 511,-180 511,-221"/>
<text text-anchor="start" x="379" y="-209" font-family="Helvetica,sans-Serif" font-size="10.00">m_assign_variables</text>
<text text-anchor="start" x="379" y="-198" font-family="Helvetica,sans-Serif" font-size="10.00">::s_assign_patch_mixture</text>
<text text-anchor="middle" x="441" y="-187" font-family="Helvetica,sans-Serif" font-size="10.00">_primitive_variables</text>
</a>
</g>
</g>
<!-- Node1&#45;&gt;Node2 -->
<g id="edge1" class="edge">
<title>Node1&#45;&gt;Node2</title>
<path fill="none" stroke="#63b8ff" d="M168.36,-150.02C182.73,-155.02 197.7,-159.76 212,-163.5 260.77,-176.25 316.62,-185.41 360.84,-191.42"/>
<polygon fill="#63b8ff" stroke="#63b8ff" points="360.58,-194.91 370.95,-192.76 361.5,-187.97 360.58,-194.91"/>
</g>
<!-- Node3 -->
<g id="node3" class="node">
<title>Node3</title>
<g id="a_node3"><a xlink:href="namespacem__assign__variables.html#acea8669db4dc8eb166849ab1f9683223" target="_top" xlink:title="This subroutine assigns the species primitive variables of the patch designated by the patch_id,...">
<polygon fill="white" stroke="#666666" points="510.5,-99 371.5,-99 371.5,-58 510.5,-58 510.5,-99"/>
<text text-anchor="start" x="379.5" y="-87" font-family="Helvetica,sans-Serif" font-size="10.00">m_assign_variables</text>
<text text-anchor="start" x="379.5" y="-76" font-family="Helvetica,sans-Serif" font-size="10.00">::s_assign_patch_species</text>
<text text-anchor="middle" x="441" y="-65" font-family="Helvetica,sans-Serif" font-size="10.00">_primitive_variables</text>
</a>
</g>
</g>
<!-- Node1&#45;&gt;Node3 -->
<g id="edge2" class="edge">
<title>Node1&#45;&gt;Node3</title>
<path fill="none" stroke="#63b8ff" d="M176.28,-95C188.21,-92.43 200.36,-90.16 212,-88.5 261.31,-81.47 317.17,-78.94 361.26,-78.17"/>
<polygon fill="#63b8ff" stroke="#63b8ff" points="361.39,-81.67 371.34,-78.03 361.29,-74.67 361.39,-81.67"/>
</g>
<!-- Node5 -->
<g id="node5" class="node">
<title>Node5</title>
<g id="a_node5"><a xlink:href="namespacem__assign__variables.html#ae01fbd01b77fe466d70676b831498e5f" target="_top" xlink:title="This subroutine assigns the species primitive variables. This follows s_assign_patch_species_primitiv...">
<polygon fill="white" stroke="#666666" points="521,-158 361,-158 361,-117 521,-117 521,-158"/>
<text text-anchor="start" x="369" y="-146" font-family="Helvetica,sans-Serif" font-size="10.00">m_assign_variables</text>
<text text-anchor="start" x="369" y="-135" font-family="Helvetica,sans-Serif" font-size="10.00">::s_assign_patch_species</text>
<text text-anchor="middle" x="441" y="-124" font-family="Helvetica,sans-Serif" font-size="10.00">_primitive_variables_bubbles</text>
</a>
</g>
</g>
<!-- Node1&#45;&gt;Node5 -->
<g id="edge4" class="edge">
<title>Node1&#45;&gt;Node5</title>
<path fill="none" stroke="#63b8ff" d="M176.21,-142.48C188.16,-144.97 200.32,-147.1 212,-148.5 257.62,-153.98 308.69,-152.24 350.92,-148.7"/>
<polygon fill="#63b8ff" stroke="#63b8ff" points="351.24,-152.18 360.89,-147.81 350.62,-145.21 351.24,-152.18"/>
</g>
<!-- Node6 -->
<g id="node6" class="node">
<title>Node6</title>
<g id="a_node6"><a xlink:href="namespacem__assign__variables.html#a0ac5909103b06b46099506b517f43c5f" target="_top" xlink:title=" ">
<polygon fill="white" stroke="#666666" points="325,-41 212,-41 212,0 325,0 325,-41"/>
<text text-anchor="start" x="220" y="-29" font-family="Helvetica,sans-Serif" font-size="10.00">m_assign_variables</text>
<text text-anchor="start" x="220" y="-18" font-family="Helvetica,sans-Serif" font-size="10.00">::s_finialize_assign</text>
<text text-anchor="middle" x="268.5" y="-7" font-family="Helvetica,sans-Serif" font-size="10.00">_variables_module</text>
</a>
</g>
</g>
<!-- Node1&#45;&gt;Node6 -->
<g id="edge6" class="edge">
<title>Node1&#45;&gt;Node6</title>
<path fill="none" stroke="#63b8ff" d="M146.46,-86.95C170.66,-73.66 198.45,-58.41 221.3,-45.87"/>
<polygon fill="#63b8ff" stroke="#63b8ff" points="223.03,-48.91 230.11,-41.03 219.66,-42.77 223.03,-48.91"/>
</g>
<!-- Node7 -->
<g id="node7" class="node">
<title>Node7</title>
<g id="a_node7"><a xlink:href="namespacem__assign__variables.html#ae31ee924c1ac66d05a215ec59656a9e0" target="_top" xlink:title=" ">
<polygon fill="white" stroke="#666666" points="325,-139 212,-139 212,-98 325,-98 325,-139"/>
<text text-anchor="start" x="220" y="-127" font-family="Helvetica,sans-Serif" font-size="10.00">m_assign_variables</text>
<text text-anchor="start" x="220" y="-116" font-family="Helvetica,sans-Serif" font-size="10.00">::s_initialize_assign</text>
<text text-anchor="middle" x="268.5" y="-105" font-family="Helvetica,sans-Serif" font-size="10.00">_variables_module</text>
</a>
</g>
</g>
<!-- Node1&#45;&gt;Node7 -->
<g id="edge7" class="edge">
<title>Node1&#45;&gt;Node7</title>
<path fill="none" stroke="#63b8ff" d="M176.16,-118.5C184.62,-118.5 193.11,-118.5 201.32,-118.5"/>
<polygon fill="#63b8ff" stroke="#63b8ff" points="201.54,-122 211.54,-118.5 201.54,-115 201.54,-122"/>
</g>
<!-- Node4 -->
<g id="node4" class="node">
<title>Node4</title>
<g id="a_node4"><a xlink:href="namespacem__variables__conversion.html#a95ca46151b4f53187280645d71755bfa" target="_top" xlink:title="This subroutine is designed for the volume fraction model and provided a set of either conservative o...">
<polygon fill="white" stroke="#666666" points="692,-128 557,-128 557,-87 692,-87 692,-128"/>
<text text-anchor="start" x="565" y="-116" font-family="Helvetica,sans-Serif" font-size="10.00">m_variables_conversion</text>
<text text-anchor="start" x="565" y="-105" font-family="Helvetica,sans-Serif" font-size="10.00">::s_convert_species_to</text>
<text text-anchor="middle" x="624.5" y="-94" font-family="Helvetica,sans-Serif" font-size="10.00">_mixture_variables</text>
</a>
</g>
</g>
<!-- Node3&#45;&gt;Node4 -->
<g id="edge3" class="edge">
<title>Node3&#45;&gt;Node4</title>
<path fill="none" stroke="#63b8ff" d="M510.62,-89.46C522.46,-91.36 534.84,-93.33 546.88,-95.26"/>
<polygon fill="#63b8ff" stroke="#63b8ff" points="546.46,-98.74 556.89,-96.86 547.57,-91.82 546.46,-98.74"/>
</g>
<!-- Node5&#45;&gt;Node4 -->
<g id="edge5" class="edge">
<title>Node5&#45;&gt;Node4</title>
<path fill="none" stroke="#63b8ff" d="M521.08,-124.43C529.66,-123.01 538.39,-121.57 546.94,-120.15"/>
<polygon fill="#63b8ff" stroke="#63b8ff" points="547.59,-123.6 556.88,-118.51 546.44,-116.69 547.59,-123.6"/>
</g>
<!-- Node7&#45;&gt;Node2 -->
<g id="edge8" class="edge">
<title>Node7&#45;&gt;Node2</title>
<path fill="none" stroke="#63b8ff" d="M306.04,-139.1C322.63,-148.19 342.61,-158.76 361,-167.5 366.95,-170.33 373.21,-173.17 379.5,-175.93"/>
<polygon fill="#63b8ff" stroke="#63b8ff" points="378.12,-179.15 388.69,-179.91 380.9,-172.72 378.12,-179.15"/>
</g>
<!-- Node7&#45;&gt;Node3 -->
<g id="edge9" class="edge">
<title>Node7&#45;&gt;Node3</title>
<path fill="none" stroke="#63b8ff" d="M325.33,-105.4C336.79,-102.71 349.05,-99.84 361.14,-97"/>
<polygon fill="#63b8ff" stroke="#63b8ff" points="362.3,-100.32 371.24,-94.63 360.7,-93.51 362.3,-100.32"/>
</g>
<!-- Node7&#45;&gt;Node5 -->
<g id="edge10" class="edge">
<title>Node7&#45;&gt;Node5</title>
<path fill="none" stroke="#63b8ff" d="M325.33,-124.72C333.5,-125.63 342.07,-126.59 350.71,-127.55"/>
<polygon fill="#63b8ff" stroke="#63b8ff" points="350.52,-131.05 360.84,-128.68 351.29,-124.09 350.52,-131.05"/>
</g>
</g>
</svg>
