<?xml version="1.0" encoding="UTF-8" standalone="no"?>
<!DOCTYPE svg PUBLIC "-//W3C//DTD SVG 1.1//EN"
 "http://www.w3.org/Graphics/SVG/1.1/DTD/svg11.dtd">
<!-- Generated by graphviz version 2.43.0 (0)
 -->
<!-- Title: m_assign_variables::s_assign_patch_xxxxx_primitive_variables::s_assign_patch_xxxxx_primitive_variables Pages: 1 -->
<svg width="700pt" height="231pt"
 viewBox="0.00 0.00 700.00 231.00" xmlns="http://www.w3.org/2000/svg" xmlns:xlink="http://www.w3.org/1999/xlink">
<g id="graph0" class="graph" transform="scale(1 1) rotate(0) translate(4 227)">
<title>m_assign_variables::s_assign_patch_xxxxx_primitive_variables::s_assign_patch_xxxxx_primitive_variables</title>
<!-- Node1 -->
<g id="Node000001" class="node">
<title>Node1</title>
<g id="a_Node000001"><a xlink:title=" ">
<polygon fill="#999999" stroke="#666666" points="176,-150 0,-150 0,-87 176,-87 176,-150"/>
<text text-anchor="start" x="8" y="-138" font-family="Helvetica,sans-Serif" font-size="10.00">m_assign_variables</text>
<text text-anchor="start" x="8" y="-127" font-family="Helvetica,sans-Serif" font-size="10.00">::s_assign_patch_xxxxx</text>
<text text-anchor="start" x="8" y="-116" font-family="Helvetica,sans-Serif" font-size="10.00">_primitive_variables::</text>
<text text-anchor="start" x="8" y="-105" font-family="Helvetica,sans-Serif" font-size="10.00">s_assign_patch_xxxxx_primitive</text>
<text text-anchor="middle" x="88" y="-94" font-family="Helvetica,sans-Serif" font-size="10.00">_variables</text>
</a>
</g>
</g>
<!-- Node2 -->
<g id="Node000002" class="node">
<title>Node2</title>
<g id="a_Node000002"><a xlink:href="namespacem__assign__variables.html#aa06360954af8af6e857e009116101f20" target="_top" xlink:title="This subroutine assigns the mixture primitive variables of the patch designated by the patch_id,...">
<polygon fill="white" stroke="#666666" points="511,-223 371,-223 371,-182 511,-182 511,-223"/>
<text text-anchor="start" x="379" y="-211" font-family="Helvetica,sans-Serif" font-size="10.00">m_assign_variables</text>
<text text-anchor="start" x="379" y="-200" font-family="Helvetica,sans-Serif" font-size="10.00">::s_assign_patch_mixture</text>
<text text-anchor="middle" x="441" y="-189" font-family="Helvetica,sans-Serif" font-size="10.00">_primitive_variables</text>
</a>
</g>
</g>
<!-- Node1&#45;&gt;Node2 -->
<g id="edge1_Node000001_Node000002" class="edge">
<title>Node1&#45;&gt;Node2</title>
<g id="a_edge1_Node000001_Node000002"><a xlink:title=" ">
<path fill="none" stroke="#63b8ff" d="M166.35,-150C181.33,-155.37 197.02,-160.49 212,-164.5 260.73,-177.54 316.58,-186.94 360.81,-193.12"/>
<polygon fill="#63b8ff" stroke="#63b8ff" points="360.54,-196.62 370.92,-194.51 361.49,-189.69 360.54,-196.62"/>
</a>
</g>
</g>
<!-- Node3 -->
<g id="Node000003" class="node">
<title>Node3</title>
<g id="a_Node000003"><a xlink:href="namespacem__assign__variables.html#acea8669db4dc8eb166849ab1f9683223" target="_top" xlink:title="This subroutine assigns the species primitive variables of the patch designated by the patch_id,...">
<polygon fill="white" stroke="#666666" points="510.5,-162 371.5,-162 371.5,-121 510.5,-121 510.5,-162"/>
<text text-anchor="start" x="379.5" y="-150" font-family="Helvetica,sans-Serif" font-size="10.00">m_assign_variables</text>
<text text-anchor="start" x="379.5" y="-139" font-family="Helvetica,sans-Serif" font-size="10.00">::s_assign_patch_species</text>
<text text-anchor="middle" x="441" y="-128" font-family="Helvetica,sans-Serif" font-size="10.00">_primitive_variables</text>
</a>
</g>
</g>
<!-- Node1&#45;&gt;Node3 -->
<g id="edge2_Node000001_Node000003" class="edge">
<title>Node1&#45;&gt;Node3</title>
<g id="a_edge2_Node000001_Node000003"><a xlink:title=" ">
<path fill="none" stroke="#63b8ff" d="M176.21,-142.48C188.16,-144.97 200.32,-147.1 212,-148.5 261.43,-154.44 317.29,-152.86 361.35,-149.71"/>
<polygon fill="#63b8ff" stroke="#63b8ff" points="361.71,-153.19 371.42,-148.95 361.19,-146.21 361.71,-153.19"/>
</a>
</g>
</g>
<!-- Node5 -->
<g id="Node000005" class="node">
<title>Node5</title>
<g id="a_Node000005"><a xlink:href="namespacem__assign__variables.html#ae01fbd01b77fe466d70676b831498e5f" target="_top" xlink:title="This subroutine assigns the species primitive variables. This follows s_assign_patch_species_primitiv...">
<polygon fill="white" stroke="#666666" points="521,-99 361,-99 361,-58 521,-58 521,-99"/>
<text text-anchor="start" x="369" y="-87" font-family="Helvetica,sans-Serif" font-size="10.00">m_assign_variables</text>
<text text-anchor="start" x="369" y="-76" font-family="Helvetica,sans-Serif" font-size="10.00">::s_assign_patch_species</text>
<text text-anchor="middle" x="441" y="-65" font-family="Helvetica,sans-Serif" font-size="10.00">_primitive_variables_bubbles</text>
</a>
</g>
</g>
<!-- Node1&#45;&gt;Node5 -->
<g id="edge4_Node000001_Node000005" class="edge">
<title>Node1&#45;&gt;Node5</title>
<g id="a_edge4_Node000001_Node000005"><a xlink:title=" ">
<path fill="none" stroke="#63b8ff" d="M176.28,-95C188.21,-92.43 200.36,-90.16 212,-88.5 257.39,-82.03 308.32,-79.37 350.52,-78.39"/>
<polygon fill="#63b8ff" stroke="#63b8ff" points="350.85,-81.89 360.77,-78.18 350.71,-74.89 350.85,-81.89"/>
</a>
</g>
</g>
<!-- Node6 -->
<g id="Node000006" class="node">
<title>Node6</title>
<g id="a_Node000006"><a xlink:href="namespacem__assign__variables.html#a0ac5909103b06b46099506b517f43c5f" target="_top" xlink:title=" ">
<polygon fill="white" stroke="#666666" points="325,-41 212,-41 212,0 325,0 325,-41"/>
<text text-anchor="start" x="220" y="-29" font-family="Helvetica,sans-Serif" font-size="10.00">m_assign_variables</text>
<text text-anchor="start" x="220" y="-18" font-family="Helvetica,sans-Serif" font-size="10.00">::s_finialize_assign</text>
<text text-anchor="middle" x="268.5" y="-7" font-family="Helvetica,sans-Serif" font-size="10.00">_variables_module</text>
</a>
</g>
</g>
<!-- Node1&#45;&gt;Node6 -->
<g id="edge5_Node000001_Node000006" class="edge">
<title>Node1&#45;&gt;Node6</title>
<g id="a_edge5_Node000001_Node000006"><a xlink:title=" ">
<path fill="none" stroke="#63b8ff" d="M146.46,-86.95C170.66,-73.66 198.45,-58.41 221.3,-45.87"/>
<polygon fill="#63b8ff" stroke="#63b8ff" points="223.03,-48.91 230.11,-41.03 219.66,-42.77 223.03,-48.91"/>
</a>
</g>
</g>
<!-- Node7 -->
<g id="Node000007" class="node">
<title>Node7</title>
<g id="a_Node000007"><a xlink:href="namespacem__assign__variables.html#ae31ee924c1ac66d05a215ec59656a9e0" target="_top" xlink:title=" ">
<polygon fill="white" stroke="#666666" points="325,-139 212,-139 212,-98 325,-98 325,-139"/>
<text text-anchor="start" x="220" y="-127" font-family="Helvetica,sans-Serif" font-size="10.00">m_assign_variables</text>
<text text-anchor="start" x="220" y="-116" font-family="Helvetica,sans-Serif" font-size="10.00">::s_initialize_assign</text>
<text text-anchor="middle" x="268.5" y="-105" font-family="Helvetica,sans-Serif" font-size="10.00">_variables_module</text>
</a>
</g>
</g>
<!-- Node1&#45;&gt;Node7 -->
<g id="edge6_Node000001_Node000007" class="edge">
<title>Node1&#45;&gt;Node7</title>
<g id="a_edge6_Node000001_Node000007"><a xlink:title=" ">
<path fill="none" stroke="#63b8ff" d="M176.16,-118.5C184.62,-118.5 193.11,-118.5 201.32,-118.5"/>
<polygon fill="#63b8ff" stroke="#63b8ff" points="201.54,-122 211.54,-118.5 201.54,-115 201.54,-122"/>
</a>
</g>
</g>
<!-- Node4 -->
<g id="Node000004" class="node">
<title>Node4</title>
<g id="a_Node000004"><a xlink:href="namespacem__variables__conversion.html#a95ca46151b4f53187280645d71755bfa" target="_top" xlink:title="This subroutine is designed for the volume fraction model and provided a set of either conservative o...">
<polygon fill="white" stroke="#666666" points="692,-162 557,-162 557,-121 692,-121 692,-162"/>
<text text-anchor="start" x="565" y="-150" font-family="Helvetica,sans-Serif" font-size="10.00">m_variables_conversion</text>
<text text-anchor="start" x="565" y="-139" font-family="Helvetica,sans-Serif" font-size="10.00">::s_convert_species_to</text>
<text text-anchor="middle" x="624.5" y="-128" font-family="Helvetica,sans-Serif" font-size="10.00">_mixture_variables</text>
</a>
</g>
</g>
<!-- Node3&#45;&gt;Node4 -->
<g id="edge3_Node000003_Node000004" class="edge">
<title>Node3&#45;&gt;Node4</title>
<g id="a_edge3_Node000003_Node000004"><a xlink:title=" ">
<path fill="none" stroke="#63b8ff" d="M510.62,-141.5C522.46,-141.5 534.84,-141.5 546.88,-141.5"/>
<polygon fill="#63b8ff" stroke="#63b8ff" points="546.89,-145 556.89,-141.5 546.89,-138 546.89,-145"/>
</a>
</g>
</g>
<!-- Node7&#45;&gt;Node2 -->
<g id="edge7_Node000007_Node000002" class="edge">
<title>Node7&#45;&gt;Node2</title>
<g id="a_edge7_Node000007_Node000002"><a xlink:title=" ">
<path fill="none" stroke="#63b8ff" d="M302.31,-139.12C319.46,-149.48 340.99,-161.85 361,-171.5 365.53,-173.68 370.25,-175.84 375.04,-177.93"/>
<polygon fill="#63b8ff" stroke="#63b8ff" points="373.72,-181.17 384.29,-181.87 376.46,-174.73 373.72,-181.17"/>
</a>
</g>
</g>
<!-- Node7&#45;&gt;Node3 -->
<g id="edge8_Node000007_Node000003" class="edge">
<title>Node7&#45;&gt;Node3</title>
<g id="a_edge8_Node000007_Node000003"><a xlink:title=" ">
<path fill="none" stroke="#63b8ff" d="M325.33,-126.03C336.79,-127.58 349.05,-129.23 361.14,-130.86"/>
<polygon fill="#63b8ff" stroke="#63b8ff" points="360.86,-134.36 371.24,-132.22 361.8,-127.42 360.86,-134.36"/>
</a>
</g>
</g>
<!-- Node7&#45;&gt;Node5 -->
<g id="edge9_Node000007_Node000005" class="edge">
<title>Node7&#45;&gt;Node5</title>
<g id="a_edge9_Node000007_Node000005"><a xlink:title=" ">
<path fill="none" stroke="#63b8ff" d="M325.33,-105.4C333.58,-103.47 342.26,-101.43 350.99,-99.38"/>
<polygon fill="#63b8ff" stroke="#63b8ff" points="351.91,-102.76 360.84,-97.07 350.31,-95.95 351.91,-102.76"/>
</a>
</g>
</g>
</g>
</svg>
