<?xml version="1.0" encoding="UTF-8" standalone="no"?>
<!DOCTYPE svg PUBLIC "-//W3C//DTD SVG 1.1//EN"
 "http://www.w3.org/Graphics/SVG/1.1/DTD/svg11.dtd">
<!-- Generated by graphviz version 2.43.0 (0)
 -->
<!-- Title: s_int_to_str Pages: 1 -->
<svg width="827pt" height="1465pt"
 viewBox="0.00 0.00 827.00 1464.75" xmlns="http://www.w3.org/2000/svg" xmlns:xlink="http://www.w3.org/1999/xlink">
<g id="graph0" class="graph" transform="scale(1 1) rotate(0) translate(4 1460.75)">
<title>s_int_to_str</title>
<!-- Node1 -->
<g id="Node000001" class="node">
<title>Node1</title>
<g id="a_Node000001"><a xlink:title=" ">
<polygon fill="#999999" stroke="#666666" points="819,-749.75 746,-749.75 746,-730.75 819,-730.75 819,-749.75"/>
<text text-anchor="middle" x="782.5" y="-737.75" font-family="Helvetica,sans-Serif" font-size="10.00">s_int_to_str</text>
</a>
</g>
</g>
<!-- Node2 -->
<g id="Node000002" class="node">
<title>Node2</title>
<g id="a_Node000002"><a xlink:href="m__helper_8fpp_8f90.html#ac1893d0dc10d4afa0f4b3f5c36b8fb8b" target="_top" xlink:title=" ">
<polygon fill="white" stroke="#666666" points="696.5,-1456.75 571.5,-1456.75 571.5,-1437.75 696.5,-1437.75 696.5,-1456.75"/>
<text text-anchor="middle" x="634" y="-1444.75" font-family="Helvetica,sans-Serif" font-size="10.00">__m_helper_fpp_f90__</text>
</a>
</g>
</g>
<!-- Node1&#45;&gt;Node2 -->
<g id="edge1_Node000001_Node000002" class="edge">
<title>Node1&#45;&gt;Node2</title>
<g id="a_edge1_Node000001_Node000002"><a xlink:title=" ">
<path fill="none" stroke="#63b8ff" d="M780.79,-760.02C776.77,-867.4 755.35,-1377.48 710,-1429.25 706.29,-1433.48 701.79,-1436.81 696.84,-1439.41"/>
<polygon fill="#63b8ff" stroke="#63b8ff" points="784.29,-760.05 781.16,-749.93 777.3,-759.8 784.29,-760.05"/>
</a>
</g>
</g>
<!-- Node3 -->
<g id="Node000003" class="node">
<title>Node3</title>
<g id="a_Node000003"><a xlink:href="namespacem__check__patches.html#a4d14e04de7d9344029130ab09571fdb9" target="_top" xlink:title="This subroutine verifies that the geometric parameters of the analytical patch have consistently been...">
<polygon fill="white" stroke="#666666" points="694.5,-1419.75 573.5,-1419.75 573.5,-1378.75 694.5,-1378.75 694.5,-1419.75"/>
<text text-anchor="start" x="581.5" y="-1407.75" font-family="Helvetica,sans-Serif" font-size="10.00">m_check_patches::s</text>
<text text-anchor="start" x="581.5" y="-1396.75" font-family="Helvetica,sans-Serif" font-size="10.00">_check_1d_analytical</text>
<text text-anchor="middle" x="634" y="-1385.75" font-family="Helvetica,sans-Serif" font-size="10.00">_patch_geometry</text>
</a>
</g>
</g>
<!-- Node1&#45;&gt;Node3 -->
<g id="edge2_Node000001_Node000003" class="edge">
<title>Node1&#45;&gt;Node3</title>
<g id="a_edge2_Node000001_Node000003"><a xlink:title=" ">
<path fill="none" stroke="#63b8ff" d="M781.76,-760.35C782.6,-855.98 781.88,-1264.44 710,-1364.25 705.89,-1369.96 700.6,-1374.77 694.74,-1378.81"/>
<polygon fill="#63b8ff" stroke="#63b8ff" points="785.25,-760.02 781.65,-750.06 778.25,-760.09 785.25,-760.02"/>
</a>
</g>
</g>
<!-- Node4 -->
<g id="Node000004" class="node">
<title>Node4</title>
<g id="a_Node000004"><a xlink:href="namespacem__check__patches.html#a1c50b481760b96ce4496118759dc67f5" target="_top" xlink:title=" ">
<polygon fill="white" stroke="#666666" points="522,-726.25 407,-726.25 407,-696.25 522,-696.25 522,-726.25"/>
<text text-anchor="start" x="415" y="-714.25" font-family="Helvetica,sans-Serif" font-size="10.00">m_check_patches::s</text>
<text text-anchor="middle" x="464.5" y="-703.25" font-family="Helvetica,sans-Serif" font-size="10.00">_check_patches</text>
</a>
</g>
</g>
<!-- Node1&#45;&gt;Node4 -->
<g id="edge41_Node000001_Node000004" class="edge">
<title>Node1&#45;&gt;Node4</title>
<g id="a_edge41_Node000001_Node000004"><a xlink:title=" ">
<path fill="none" stroke="#63b8ff" d="M780.65,-759.77C776.17,-857.7 753.9,-1292.34 710,-1331.25 659.44,-1376.06 609.17,-1375.35 558,-1331.25 463.09,-1249.45 464.08,-813.25 465.24,-726.32"/>
<polygon fill="#63b8ff" stroke="#63b8ff" points="784.14,-759.91 781.09,-749.77 777.15,-759.6 784.14,-759.91"/>
</a>
</g>
</g>
<!-- Node8 -->
<g id="Node000008" class="node">
<title>Node8</title>
<g id="a_Node000008"><a xlink:href="namespacem__check__patches.html#a41e469c1773e6b92e16b2e3b3558c0ed" target="_top" xlink:title="This subroutine verifies that the geometric parameters of the analytical patch have consistently been...">
<polygon fill="white" stroke="#666666" points="694.5,-1321.75 573.5,-1321.75 573.5,-1280.75 694.5,-1280.75 694.5,-1321.75"/>
<text text-anchor="start" x="581.5" y="-1309.75" font-family="Helvetica,sans-Serif" font-size="10.00">m_check_patches::s</text>
<text text-anchor="start" x="581.5" y="-1298.75" font-family="Helvetica,sans-Serif" font-size="10.00">_check_2d_analytical</text>
<text text-anchor="middle" x="634" y="-1287.75" font-family="Helvetica,sans-Serif" font-size="10.00">_patch_geometry</text>
</a>
</g>
</g>
<!-- Node1&#45;&gt;Node8 -->
<g id="edge7_Node000001_Node000008" class="edge">
<title>Node1&#45;&gt;Node8</title>
<g id="a_edge7_Node000001_Node000008"><a xlink:title=" ">
<path fill="none" stroke="#63b8ff" d="M781.45,-759.88C780.87,-846.09 774.47,-1190.48 710,-1272.25 705.76,-1277.62 700.4,-1282 694.5,-1285.56"/>
<polygon fill="#63b8ff" stroke="#63b8ff" points="784.95,-759.89 781.5,-749.87 777.95,-759.86 784.95,-759.89"/>
</a>
</g>
</g>
<!-- Node9 -->
<g id="Node000009" class="node">
<title>Node9</title>
<g id="a_Node000009"><a xlink:href="namespacem__check__patches.html#a5d383a1b6d22d83b4d85e0efaa0de52a" target="_top" xlink:title="This subroutine verifies that the geometric parameters of the Taylor Green vortex patch have been ent...">
<polygon fill="white" stroke="#666666" points="703,-1262.75 565,-1262.75 565,-1221.75 703,-1221.75 703,-1262.75"/>
<text text-anchor="start" x="573" y="-1250.75" font-family="Helvetica,sans-Serif" font-size="10.00">m_check_patches::s</text>
<text text-anchor="start" x="573" y="-1239.75" font-family="Helvetica,sans-Serif" font-size="10.00">_check_2d_taylorgreen</text>
<text text-anchor="middle" x="634" y="-1228.75" font-family="Helvetica,sans-Serif" font-size="10.00">_vortex_patch_geometry</text>
</a>
</g>
</g>
<!-- Node1&#45;&gt;Node9 -->
<g id="edge9_Node000001_Node000009" class="edge">
<title>Node1&#45;&gt;Node9</title>
<g id="a_edge9_Node000001_Node000009"><a xlink:title=" ">
<path fill="none" stroke="#63b8ff" d="M781.08,-760.2C779,-840.83 767.45,-1141.61 710,-1213.25 707.47,-1216.41 704.55,-1219.22 701.36,-1221.73"/>
<polygon fill="#63b8ff" stroke="#63b8ff" points="784.58,-760.04 781.32,-749.96 777.59,-759.87 784.58,-760.04"/>
</a>
</g>
</g>
<!-- Node10 -->
<g id="Node000010" class="node">
<title>Node10</title>
<g id="a_Node000010"><a xlink:href="namespacem__check__patches.html#a5643fb88910457783efdc7be07c2096c" target="_top" xlink:title="This subroutine verifies that the geometric parameters of the analytical patch have consistently been...">
<polygon fill="white" stroke="#666666" points="694.5,-1203.75 573.5,-1203.75 573.5,-1162.75 694.5,-1162.75 694.5,-1203.75"/>
<text text-anchor="start" x="581.5" y="-1191.75" font-family="Helvetica,sans-Serif" font-size="10.00">m_check_patches::s</text>
<text text-anchor="start" x="581.5" y="-1180.75" font-family="Helvetica,sans-Serif" font-size="10.00">_check_3d_analytical</text>
<text text-anchor="middle" x="634" y="-1169.75" font-family="Helvetica,sans-Serif" font-size="10.00">_patch_geometry</text>
</a>
</g>
</g>
<!-- Node1&#45;&gt;Node10 -->
<g id="edge11_Node000001_Node000010" class="edge">
<title>Node1&#45;&gt;Node10</title>
<g id="a_edge11_Node000001_Node000010"><a xlink:title=" ">
<path fill="none" stroke="#63b8ff" d="M780.61,-760.03C776.93,-833.9 760.57,-1092.53 710,-1154.25 705.75,-1159.43 700.46,-1163.69 694.67,-1167.19"/>
<polygon fill="#63b8ff" stroke="#63b8ff" points="784.12,-759.97 781.1,-749.82 777.13,-759.64 784.12,-759.97"/>
</a>
</g>
</g>
<!-- Node11 -->
<g id="Node000011" class="node">
<title>Node11</title>
<g id="a_Node000011"><a xlink:href="namespacem__check__patches.html#ac652a2c373fea30afb587a3a8f28e4c9" target="_top" xlink:title="This subroutine verifies that any rights granted to the given active patch, to overwrite the precedin...">
<polygon fill="white" stroke="#666666" points="693,-1144.75 575,-1144.75 575,-1103.75 693,-1103.75 693,-1144.75"/>
<text text-anchor="start" x="583" y="-1132.75" font-family="Helvetica,sans-Serif" font-size="10.00">m_check_patches::s</text>
<text text-anchor="start" x="583" y="-1121.75" font-family="Helvetica,sans-Serif" font-size="10.00">_check_active_patch</text>
<text text-anchor="middle" x="634" y="-1110.75" font-family="Helvetica,sans-Serif" font-size="10.00">_alteration_rights</text>
</a>
</g>
</g>
<!-- Node1&#45;&gt;Node11 -->
<g id="edge13_Node000001_Node000011" class="edge">
<title>Node1&#45;&gt;Node11</title>
<g id="a_edge13_Node000001_Node000011"><a xlink:title=" ">
<path fill="none" stroke="#63b8ff" d="M780.01,-759.73C774.58,-826.29 753.76,-1043.33 710,-1095.25 705.32,-1100.8 699.45,-1105.29 693.06,-1108.93"/>
<polygon fill="#63b8ff" stroke="#63b8ff" points="783.5,-760 780.8,-749.76 776.53,-759.45 783.5,-760"/>
</a>
</g>
</g>
<!-- Node12 -->
<g id="Node000012" class="node">
<title>Node12</title>
<g id="a_Node000012"><a xlink:href="namespacem__check__patches.html#a7286a74b75fa2f5e046638056a85665e" target="_top" xlink:title="This subroutine verifies that the primitive variables associated with the given active patch are phys...">
<polygon fill="white" stroke="#666666" points="693,-1085.75 575,-1085.75 575,-1044.75 693,-1044.75 693,-1085.75"/>
<text text-anchor="start" x="583" y="-1073.75" font-family="Helvetica,sans-Serif" font-size="10.00">m_check_patches::s</text>
<text text-anchor="start" x="583" y="-1062.75" font-family="Helvetica,sans-Serif" font-size="10.00">_check_active_patch</text>
<text text-anchor="middle" x="634" y="-1051.75" font-family="Helvetica,sans-Serif" font-size="10.00">_primitive_variables</text>
</a>
</g>
</g>
<!-- Node1&#45;&gt;Node12 -->
<g id="edge15_Node000001_Node000012" class="edge">
<title>Node1&#45;&gt;Node12</title>
<g id="a_edge15_Node000001_Node000012"><a xlink:title=" ">
<path fill="none" stroke="#63b8ff" d="M779.15,-759.87C771.69,-819.02 746.9,-994.13 710,-1036.25 705.31,-1041.6 699.51,-1045.98 693.23,-1049.54"/>
<polygon fill="#63b8ff" stroke="#63b8ff" points="782.62,-760.3 780.37,-749.94 775.67,-759.44 782.62,-760.3"/>
</a>
</g>
</g>
<!-- Node13 -->
<g id="Node000013" class="node">
<title>Node13</title>
<g id="a_Node000013"><a xlink:href="namespacem__check__patches.html#aad20d0b0a41ec17a6c03afc700efa25a" target="_top" xlink:title="This subroutine verifies that the geometric parameters of the circle patch have consistently been inp...">
<polygon fill="white" stroke="#666666" points="691.5,-1026.75 576.5,-1026.75 576.5,-985.75 691.5,-985.75 691.5,-1026.75"/>
<text text-anchor="start" x="584.5" y="-1014.75" font-family="Helvetica,sans-Serif" font-size="10.00">m_check_patches::s</text>
<text text-anchor="start" x="584.5" y="-1003.75" font-family="Helvetica,sans-Serif" font-size="10.00">_check_circle_patch</text>
<text text-anchor="middle" x="634" y="-992.75" font-family="Helvetica,sans-Serif" font-size="10.00">_geometry</text>
</a>
</g>
</g>
<!-- Node1&#45;&gt;Node13 -->
<g id="edge17_Node000001_Node000013" class="edge">
<title>Node1&#45;&gt;Node13</title>
<g id="a_edge17_Node000001_Node000013"><a xlink:title=" ">
<path fill="none" stroke="#63b8ff" d="M781.14,-759.9C779.26,-804.42 768.59,-914.03 710,-977.25 704.88,-982.78 698.58,-987.26 691.83,-990.9"/>
<polygon fill="#63b8ff" stroke="#63b8ff" points="784.64,-759.93 781.45,-749.82 777.64,-759.71 784.64,-759.93"/>
</a>
</g>
</g>
<!-- Node14 -->
<g id="Node000014" class="node">
<title>Node14</title>
<g id="a_Node000014"><a xlink:href="namespacem__check__patches.html#aea0d7e10470a4ecaa08df5ff79fe2485" target="_top" xlink:title="This subroutine verifies that the geometric parameters of the cuboid patch have consistently been inp...">
<polygon fill="white" stroke="#666666" points="694,-967.75 574,-967.75 574,-926.75 694,-926.75 694,-967.75"/>
<text text-anchor="start" x="582" y="-955.75" font-family="Helvetica,sans-Serif" font-size="10.00">m_check_patches::s</text>
<text text-anchor="start" x="582" y="-944.75" font-family="Helvetica,sans-Serif" font-size="10.00">_check_cuboid_patch</text>
<text text-anchor="middle" x="634" y="-933.75" font-family="Helvetica,sans-Serif" font-size="10.00">_geometry</text>
</a>
</g>
</g>
<!-- Node1&#45;&gt;Node14 -->
<g id="edge19_Node000001_Node000014" class="edge">
<title>Node1&#45;&gt;Node14</title>
<g id="a_edge19_Node000001_Node000014"><a xlink:title=" ">
<path fill="none" stroke="#63b8ff" d="M778.8,-760.04C772.84,-796.23 755.34,-873.49 710,-918.25 705.33,-922.86 699.85,-926.75 694.01,-930.04"/>
<polygon fill="#63b8ff" stroke="#63b8ff" points="782.31,-760.23 780.34,-749.82 775.38,-759.18 782.31,-760.23"/>
</a>
</g>
</g>
<!-- Node15 -->
<g id="Node000015" class="node">
<title>Node15</title>
<g id="a_Node000015"><a xlink:href="namespacem__check__patches.html#a66adadaa54ebba56992b9bb9ed7cb490" target="_top" xlink:title="This subroutine verifies that the geometric parameters of the cylinder patch have consistently been i...">
<polygon fill="white" stroke="#666666" points="697.5,-908.75 570.5,-908.75 570.5,-867.75 697.5,-867.75 697.5,-908.75"/>
<text text-anchor="start" x="578.5" y="-896.75" font-family="Helvetica,sans-Serif" font-size="10.00">m_check_patches::s</text>
<text text-anchor="start" x="578.5" y="-885.75" font-family="Helvetica,sans-Serif" font-size="10.00">_check_cylinder_patch</text>
<text text-anchor="middle" x="634" y="-874.75" font-family="Helvetica,sans-Serif" font-size="10.00">_geometry</text>
</a>
</g>
</g>
<!-- Node1&#45;&gt;Node15 -->
<g id="edge21_Node000001_Node000015" class="edge">
<title>Node1&#45;&gt;Node15</title>
<g id="a_edge21_Node000001_Node000015"><a xlink:title=" ">
<path fill="none" stroke="#63b8ff" d="M774.54,-759.56C764.25,-785.59 742.58,-831.84 710,-859.25 706.26,-862.39 702.14,-865.22 697.82,-867.76"/>
<polygon fill="#63b8ff" stroke="#63b8ff" points="777.88,-760.64 778.15,-750.05 771.33,-758.16 777.88,-760.64"/>
</a>
</g>
</g>
<!-- Node16 -->
<g id="Node000016" class="node">
<title>Node16</title>
<g id="a_Node000016"><a xlink:href="namespacem__check__patches.html#ac701bfedde9f28ce1c4aafba47c0b7c9" target="_top" xlink:title="This subroutine verifies that the geometric parameters of the ellipse patch have consistently been in...">
<polygon fill="white" stroke="#666666" points="694,-849.75 574,-849.75 574,-808.75 694,-808.75 694,-849.75"/>
<text text-anchor="start" x="582" y="-837.75" font-family="Helvetica,sans-Serif" font-size="10.00">m_check_patches::s</text>
<text text-anchor="start" x="582" y="-826.75" font-family="Helvetica,sans-Serif" font-size="10.00">_check_ellipse_patch</text>
<text text-anchor="middle" x="634" y="-815.75" font-family="Helvetica,sans-Serif" font-size="10.00">_geometry</text>
</a>
</g>
</g>
<!-- Node1&#45;&gt;Node16 -->
<g id="edge23_Node000001_Node000016" class="edge">
<title>Node1&#45;&gt;Node16</title>
<g id="a_edge23_Node000001_Node000016"><a xlink:title=" ">
<path fill="none" stroke="#63b8ff" d="M764.84,-756.99C751.08,-770.12 730.53,-788.12 710,-800.25 704.95,-803.23 699.54,-806.01 694.02,-808.59"/>
<polygon fill="#63b8ff" stroke="#63b8ff" points="767.39,-759.4 772.11,-749.91 762.51,-754.38 767.39,-759.4"/>
</a>
</g>
</g>
<!-- Node17 -->
<g id="Node000017" class="node">
<title>Node17</title>
<g id="a_Node000017"><a xlink:href="namespacem__check__patches.html#abd8a1330518492f664a786646fcba9f9" target="_top" xlink:title="This subroutine verifies that the geometric parameters of the ellipsoid patch have consistently been ...">
<polygon fill="white" stroke="#666666" points="698.5,-790.75 569.5,-790.75 569.5,-749.75 698.5,-749.75 698.5,-790.75"/>
<text text-anchor="start" x="577.5" y="-778.75" font-family="Helvetica,sans-Serif" font-size="10.00">m_check_patches::s</text>
<text text-anchor="start" x="577.5" y="-767.75" font-family="Helvetica,sans-Serif" font-size="10.00">_check_ellipsoid_patch</text>
<text text-anchor="middle" x="634" y="-756.75" font-family="Helvetica,sans-Serif" font-size="10.00">_geometry</text>
</a>
</g>
</g>
<!-- Node1&#45;&gt;Node17 -->
<g id="edge25_Node000001_Node000017" class="edge">
<title>Node1&#45;&gt;Node17</title>
<g id="a_edge25_Node000001_Node000017"><a xlink:title=" ">
<path fill="none" stroke="#63b8ff" d="M735.69,-749.63C723.98,-752.03 711.18,-754.65 698.75,-757.19"/>
<polygon fill="#63b8ff" stroke="#63b8ff" points="736.57,-753.02 745.66,-747.59 735.16,-746.16 736.57,-753.02"/>
</a>
</g>
</g>
<!-- Node18 -->
<g id="Node000018" class="node">
<title>Node18</title>
<g id="a_Node000018"><a xlink:href="namespacem__check__patches.html#a2690167f0b25ca2a4475875740a1a99c" target="_top" xlink:title="This subroutine verifies that the rights of the given inactive patch, to overwrite the preceding patc...">
<polygon fill="white" stroke="#666666" points="697.5,-731.75 570.5,-731.75 570.5,-690.75 697.5,-690.75 697.5,-731.75"/>
<text text-anchor="start" x="578.5" y="-719.75" font-family="Helvetica,sans-Serif" font-size="10.00">m_check_patches::s</text>
<text text-anchor="start" x="578.5" y="-708.75" font-family="Helvetica,sans-Serif" font-size="10.00">_check_inactive_patch</text>
<text text-anchor="middle" x="634" y="-697.75" font-family="Helvetica,sans-Serif" font-size="10.00">_alteration_rights</text>
</a>
</g>
</g>
<!-- Node1&#45;&gt;Node18 -->
<g id="edge27_Node000001_Node000018" class="edge">
<title>Node1&#45;&gt;Node18</title>
<g id="a_edge27_Node000001_Node000018"><a xlink:title=" ">
<path fill="none" stroke="#63b8ff" d="M735.81,-731.2C723.71,-728.81 710.43,-726.18 697.6,-723.64"/>
<polygon fill="#63b8ff" stroke="#63b8ff" points="735.17,-734.65 745.66,-733.15 736.53,-727.78 735.17,-734.65"/>
</a>
</g>
</g>
<!-- Node19 -->
<g id="Node000019" class="node">
<title>Node19</title>
<g id="a_Node000019"><a xlink:href="namespacem__check__patches.html#aa2e133b2f325b7a3597149ec08e7dccc" target="_top" xlink:title=" ">
<polygon fill="white" stroke="#666666" points="697.5,-672.75 570.5,-672.75 570.5,-631.75 697.5,-631.75 697.5,-672.75"/>
<text text-anchor="start" x="578.5" y="-660.75" font-family="Helvetica,sans-Serif" font-size="10.00">m_check_patches::s</text>
<text text-anchor="start" x="578.5" y="-649.75" font-family="Helvetica,sans-Serif" font-size="10.00">_check_inactive_patch</text>
<text text-anchor="middle" x="634" y="-638.75" font-family="Helvetica,sans-Serif" font-size="10.00">_geometry</text>
</a>
</g>
</g>
<!-- Node1&#45;&gt;Node19 -->
<g id="edge29_Node000001_Node000019" class="edge">
<title>Node1&#45;&gt;Node19</title>
<g id="a_edge29_Node000001_Node000019"><a xlink:title=" ">
<path fill="none" stroke="#63b8ff" d="M764.23,-723.73C750.4,-711.14 730.05,-694.02 710,-682.25 704.32,-678.91 698.19,-675.79 691.98,-672.91"/>
<polygon fill="#63b8ff" stroke="#63b8ff" points="761.86,-726.31 771.57,-730.54 766.62,-721.17 761.86,-726.31"/>
</a>
</g>
</g>
<!-- Node20 -->
<g id="Node000020" class="node">
<title>Node20</title>
<g id="a_Node000020"><a xlink:href="namespacem__check__patches.html#a67a788934dbcdcd139962e5b453bf622" target="_top" xlink:title="This subroutine verifies that the primitive variables associated with the given inactive patch remain...">
<polygon fill="white" stroke="#666666" points="697.5,-613.75 570.5,-613.75 570.5,-572.75 697.5,-572.75 697.5,-613.75"/>
<text text-anchor="start" x="578.5" y="-601.75" font-family="Helvetica,sans-Serif" font-size="10.00">m_check_patches::s</text>
<text text-anchor="start" x="578.5" y="-590.75" font-family="Helvetica,sans-Serif" font-size="10.00">_check_inactive_patch</text>
<text text-anchor="middle" x="634" y="-579.75" font-family="Helvetica,sans-Serif" font-size="10.00">_primitive_variables</text>
</a>
</g>
</g>
<!-- Node1&#45;&gt;Node20 -->
<g id="edge31_Node000001_Node000020" class="edge">
<title>Node1&#45;&gt;Node20</title>
<g id="a_edge31_Node000001_Node000020"><a xlink:title=" ">
<path fill="none" stroke="#63b8ff" d="M774.41,-721.32C763.96,-695.78 742.13,-650.38 710,-623.25 705.82,-619.72 701.18,-616.57 696.3,-613.76"/>
<polygon fill="#63b8ff" stroke="#63b8ff" points="771.16,-722.62 778.08,-730.64 777.68,-720.06 771.16,-722.62"/>
</a>
</g>
</g>
<!-- Node21 -->
<g id="Node000021" class="node">
<title>Node21</title>
<g id="a_Node000021"><a xlink:href="namespacem__checker.html#af3af1277501908ef5a97721ebf04061f" target="_top" xlink:title=" ">
<polygon fill="white" stroke="#666666" points="521.5,-353.25 407.5,-353.25 407.5,-323.25 521.5,-323.25 521.5,-353.25"/>
<text text-anchor="start" x="415.5" y="-341.25" font-family="Helvetica,sans-Serif" font-size="10.00">m_checker::s_check</text>
<text text-anchor="middle" x="464.5" y="-330.25" font-family="Helvetica,sans-Serif" font-size="10.00">_inputs</text>
</a>
</g>
</g>
<!-- Node1&#45;&gt;Node21 -->
<g id="edge33_Node000001_Node000021" class="edge">
<title>Node1&#45;&gt;Node21</title>
<g id="a_edge33_Node000001_Node000021"><a xlink:title=" ">
<path fill="none" stroke="#63b8ff" d="M781.05,-720.43C778.33,-610.6 762.55,-79.76 710,-32.25 659.89,13.06 612.24,8.02 558,-32.25 509.21,-68.47 476.2,-266.66 467.68,-323.19"/>
<polygon fill="#63b8ff" stroke="#63b8ff" points="777.55,-720.8 781.29,-730.72 784.55,-720.64 777.55,-720.8"/>
</a>
</g>
</g>
<!-- Node22 -->
<g id="Node000022" class="node">
<title>Node22</title>
<g id="a_Node000022"><a xlink:href="namespacem__check__patches.html#ad07ba3c6ec28f098d2301cb5c4fab3fa" target="_top" xlink:title="This subroutine verifies that the geometric parameters of the isentropic vortex patch have been enter...">
<polygon fill="white" stroke="#666666" points="704,-554.75 564,-554.75 564,-513.75 704,-513.75 704,-554.75"/>
<text text-anchor="start" x="572" y="-542.75" font-family="Helvetica,sans-Serif" font-size="10.00">m_check_patches::s</text>
<text text-anchor="start" x="572" y="-531.75" font-family="Helvetica,sans-Serif" font-size="10.00">_check_isentropic_vortex</text>
<text text-anchor="middle" x="634" y="-520.75" font-family="Helvetica,sans-Serif" font-size="10.00">_patch_geometry</text>
</a>
</g>
</g>
<!-- Node1&#45;&gt;Node22 -->
<g id="edge35_Node000001_Node000022" class="edge">
<title>Node1&#45;&gt;Node22</title>
<g id="a_edge35_Node000001_Node000022"><a xlink:title=" ">
<path fill="none" stroke="#63b8ff" d="M778.59,-720.22C772.37,-684.3 754.52,-608.53 710,-564.25 706.52,-560.79 702.59,-557.71 698.4,-554.98"/>
<polygon fill="#63b8ff" stroke="#63b8ff" points="775.18,-721.07 780.22,-730.39 782.1,-719.97 775.18,-721.07"/>
</a>
</g>
</g>
<!-- Node23 -->
<g id="Node000023" class="node">
<title>Node23</title>
<g id="a_Node000023"><a xlink:href="namespacem__check__patches.html#a5b142fb0ce186f97c22e5a10a36a3bb8" target="_top" xlink:title="This subroutine verifies that the geometric parameters of the line segment patch have consistently be...">
<polygon fill="white" stroke="#666666" points="695,-495.75 573,-495.75 573,-454.75 695,-454.75 695,-495.75"/>
<text text-anchor="start" x="581" y="-483.75" font-family="Helvetica,sans-Serif" font-size="10.00">m_check_patches::s</text>
<text text-anchor="start" x="581" y="-472.75" font-family="Helvetica,sans-Serif" font-size="10.00">_check_line_segment</text>
<text text-anchor="middle" x="634" y="-461.75" font-family="Helvetica,sans-Serif" font-size="10.00">_patch_geometry</text>
</a>
</g>
</g>
<!-- Node1&#45;&gt;Node23 -->
<g id="edge37_Node000001_Node000023" class="edge">
<title>Node1&#45;&gt;Node23</title>
<g id="a_edge37_Node000001_Node000023"><a xlink:title=" ">
<path fill="none" stroke="#63b8ff" d="M781,-720.2C778.84,-675.76 767.58,-567.95 710,-505.25 705.73,-500.6 700.65,-496.66 695.16,-493.32"/>
<polygon fill="#63b8ff" stroke="#63b8ff" points="777.51,-720.43 781.39,-730.29 784.5,-720.17 777.51,-720.43"/>
</a>
</g>
</g>
<!-- Node24 -->
<g id="Node000024" class="node">
<title>Node24</title>
<g id="a_Node000024"><a xlink:href="namespacem__check__patches.html#a7bae026c1e443c8247a8ad74a849063b" target="_top" xlink:title="This subroutine verifies that the geometric parameters of the line sweep patch have consistently been...">
<polygon fill="white" stroke="#666666" points="705.5,-436.75 562.5,-436.75 562.5,-395.75 705.5,-395.75 705.5,-436.75"/>
<text text-anchor="start" x="570.5" y="-424.75" font-family="Helvetica,sans-Serif" font-size="10.00">m_check_patches::s</text>
<text text-anchor="start" x="570.5" y="-413.75" font-family="Helvetica,sans-Serif" font-size="10.00">_check_line_sweep_patch</text>
<text text-anchor="middle" x="634" y="-402.75" font-family="Helvetica,sans-Serif" font-size="10.00">_geometry</text>
</a>
</g>
</g>
<!-- Node1&#45;&gt;Node24 -->
<g id="edge39_Node000001_Node000024" class="edge">
<title>Node1&#45;&gt;Node24</title>
<g id="a_edge39_Node000001_Node000024"><a xlink:title=" ">
<path fill="none" stroke="#63b8ff" d="M779.06,-720.41C771.43,-661.36 746.38,-488.2 710,-446.25 706.97,-442.75 703.47,-439.66 699.68,-436.92"/>
<polygon fill="#63b8ff" stroke="#63b8ff" points="775.62,-721.15 780.35,-730.63 782.57,-720.27 775.62,-721.15"/>
</a>
</g>
</g>
<!-- Node25 -->
<g id="Node000025" class="node">
<title>Node25</title>
<g id="a_Node000025"><a xlink:href="namespacem__check__patches.html#a9bb2f96dfcb0168c5a5e51cb7b5dc906" target="_top" xlink:title="This subroutine verifies that the geometric parameters of the plane sweep patch have consistently bee...">
<polygon fill="white" stroke="#666666" points="710,-377.75 558,-377.75 558,-336.75 710,-336.75 710,-377.75"/>
<text text-anchor="start" x="566" y="-365.75" font-family="Helvetica,sans-Serif" font-size="10.00">m_check_patches::s</text>
<text text-anchor="start" x="566" y="-354.75" font-family="Helvetica,sans-Serif" font-size="10.00">_check_plane_sweep_patch</text>
<text text-anchor="middle" x="634" y="-343.75" font-family="Helvetica,sans-Serif" font-size="10.00">_geometry</text>
</a>
</g>
</g>
<!-- Node1&#45;&gt;Node25 -->
<g id="edge42_Node000001_Node000025" class="edge">
<title>Node1&#45;&gt;Node25</title>
<g id="a_edge42_Node000001_Node000025"><a xlink:title=" ">
<path fill="none" stroke="#63b8ff" d="M779.94,-720.45C774.33,-653.83 753.16,-439 710,-387.25 707.04,-383.69 703.59,-380.56 699.84,-377.79"/>
<polygon fill="#63b8ff" stroke="#63b8ff" points="776.46,-720.79 780.76,-730.47 783.43,-720.22 776.46,-720.79"/>
</a>
</g>
</g>
<!-- Node26 -->
<g id="Node000026" class="node">
<title>Node26</title>
<g id="a_Node000026"><a xlink:href="namespacem__check__patches.html#ac34be0830489fb414bc93ecbb25c0383" target="_top" xlink:title="This subroutine verifies that the geometric parameters of the rectangle patch have consistently been ...">
<polygon fill="white" stroke="#666666" points="701,-318.75 567,-318.75 567,-277.75 701,-277.75 701,-318.75"/>
<text text-anchor="start" x="575" y="-306.75" font-family="Helvetica,sans-Serif" font-size="10.00">m_check_patches::s</text>
<text text-anchor="start" x="575" y="-295.75" font-family="Helvetica,sans-Serif" font-size="10.00">_check_rectangle_patch</text>
<text text-anchor="middle" x="634" y="-284.75" font-family="Helvetica,sans-Serif" font-size="10.00">_geometry</text>
</a>
</g>
</g>
<!-- Node1&#45;&gt;Node26 -->
<g id="edge44_Node000001_Node000026" class="edge">
<title>Node1&#45;&gt;Node26</title>
<g id="a_edge44_Node000001_Node000026"><a xlink:title=" ">
<path fill="none" stroke="#63b8ff" d="M780.58,-720.58C776.76,-647.13 760,-389.95 710,-328.25 707.17,-324.76 703.88,-321.68 700.29,-318.95"/>
<polygon fill="#63b8ff" stroke="#63b8ff" points="777.09,-720.92 781.08,-730.73 784.08,-720.57 777.09,-720.92"/>
</a>
</g>
</g>
<!-- Node27 -->
<g id="Node000027" class="node">
<title>Node27</title>
<g id="a_Node000027"><a xlink:href="namespacem__check__patches.html#ad2dd6dc473d7bb6d32cd5fd906c80da4" target="_top" xlink:title="This subroutine verifies that the geometric parameters of the sphere patch have consistently been inp...">
<polygon fill="white" stroke="#666666" points="694.5,-259.75 573.5,-259.75 573.5,-218.75 694.5,-218.75 694.5,-259.75"/>
<text text-anchor="start" x="581.5" y="-247.75" font-family="Helvetica,sans-Serif" font-size="10.00">m_check_patches::s</text>
<text text-anchor="start" x="581.5" y="-236.75" font-family="Helvetica,sans-Serif" font-size="10.00">_check_sphere_patch</text>
<text text-anchor="middle" x="634" y="-225.75" font-family="Helvetica,sans-Serif" font-size="10.00">_geometry</text>
</a>
</g>
</g>
<!-- Node1&#45;&gt;Node27 -->
<g id="edge46_Node000001_Node000027" class="edge">
<title>Node1&#45;&gt;Node27</title>
<g id="a_edge46_Node000001_Node000027"><a xlink:title=" ">
<path fill="none" stroke="#63b8ff" d="M781.04,-720.4C778.83,-640.18 766.82,-340.9 710,-269.25 705.82,-263.97 700.57,-259.62 694.8,-256.03"/>
<polygon fill="#63b8ff" stroke="#63b8ff" points="777.55,-720.68 781.3,-730.59 784.55,-720.5 777.55,-720.68"/>
</a>
</g>
</g>
<!-- Node28 -->
<g id="Node000028" class="node">
<title>Node28</title>
<g id="a_Node000028"><a xlink:href="namespacem__check__patches.html#a7f4fc28d325755439d8764d595e09387" target="_top" xlink:title="This subroutine verifies that the geometric parameters of the spherical harmonic patch have consisten...">
<polygon fill="white" stroke="#666666" points="709.5,-200.75 558.5,-200.75 558.5,-159.75 709.5,-159.75 709.5,-200.75"/>
<text text-anchor="start" x="566.5" y="-188.75" font-family="Helvetica,sans-Serif" font-size="10.00">m_check_patches::s</text>
<text text-anchor="start" x="566.5" y="-177.75" font-family="Helvetica,sans-Serif" font-size="10.00">_check_spherical_harmonic</text>
<text text-anchor="middle" x="634" y="-166.75" font-family="Helvetica,sans-Serif" font-size="10.00">_patch_geometry</text>
</a>
</g>
</g>
<!-- Node1&#45;&gt;Node28 -->
<g id="edge48_Node000001_Node000028" class="edge">
<title>Node1&#45;&gt;Node28</title>
<g id="a_edge48_Node000001_Node000028"><a xlink:title=" ">
<path fill="none" stroke="#63b8ff" d="M781.42,-720.45C780.68,-634.19 773.72,-291.98 710,-210.25 707.24,-206.71 704,-203.59 700.44,-200.83"/>
<polygon fill="#63b8ff" stroke="#63b8ff" points="777.92,-720.69 781.48,-730.67 784.92,-720.64 777.92,-720.69"/>
</a>
</g>
</g>
<!-- Node29 -->
<g id="Node000029" class="node">
<title>Node29</title>
<g id="a_Node000029"><a xlink:href="namespacem__check__patches.html#ac4618b7bb46f92ac59717a31d673ab88" target="_top" xlink:title="This subroutine verifies that the smoothing parameters of the given patch, which supports the smoothi...">
<polygon fill="white" stroke="#666666" points="702.5,-141.75 565.5,-141.75 565.5,-100.75 702.5,-100.75 702.5,-141.75"/>
<text text-anchor="start" x="573.5" y="-129.75" font-family="Helvetica,sans-Serif" font-size="10.00">m_check_patches::s</text>
<text text-anchor="start" x="573.5" y="-118.75" font-family="Helvetica,sans-Serif" font-size="10.00">_check_supported_patch</text>
<text text-anchor="middle" x="634" y="-107.75" font-family="Helvetica,sans-Serif" font-size="10.00">_smoothing</text>
</a>
</g>
</g>
<!-- Node1&#45;&gt;Node29 -->
<g id="edge50_Node000001_Node000029" class="edge">
<title>Node1&#45;&gt;Node29</title>
<g id="a_edge50_Node000001_Node000029"><a xlink:title=" ">
<path fill="none" stroke="#63b8ff" d="M781.72,-720.32C782.34,-628.08 780.6,-243.06 710,-151.25 707.26,-147.69 704.04,-144.55 700.49,-141.79"/>
<polygon fill="#63b8ff" stroke="#63b8ff" points="778.22,-720.48 781.63,-730.51 785.22,-720.54 778.22,-720.48"/>
</a>
</g>
</g>
<!-- Node30 -->
<g id="Node000030" class="node">
<title>Node30</title>
<g id="a_Node000030"><a xlink:href="namespacem__check__patches.html#a7f27b499f2b90ad0f25443c1a1c5a0e5" target="_top" xlink:title="This subroutine verifies that the smoothing parameters of the given patch, which does not support the...">
<polygon fill="white" stroke="#666666" points="708.5,-82.75 559.5,-82.75 559.5,-41.75 708.5,-41.75 708.5,-82.75"/>
<text text-anchor="start" x="567.5" y="-70.75" font-family="Helvetica,sans-Serif" font-size="10.00">m_check_patches::s</text>
<text text-anchor="start" x="567.5" y="-59.75" font-family="Helvetica,sans-Serif" font-size="10.00">_check_unsupported_patch</text>
<text text-anchor="middle" x="634" y="-48.75" font-family="Helvetica,sans-Serif" font-size="10.00">_smoothing</text>
</a>
</g>
</g>
<!-- Node1&#45;&gt;Node30 -->
<g id="edge52_Node000001_Node000030" class="edge">
<title>Node1&#45;&gt;Node30</title>
<g id="a_edge52_Node000001_Node000030"><a xlink:title=" ">
<path fill="none" stroke="#63b8ff" d="M780.52,-720.47C775.25,-617.3 749.04,-143.59 710,-92.25 707.28,-88.68 704.07,-85.53 700.54,-82.75"/>
<polygon fill="#63b8ff" stroke="#63b8ff" points="777.02,-720.66 781.02,-730.47 784.02,-720.3 777.02,-720.66"/>
</a>
</g>
</g>
<!-- Node3&#45;&gt;Node4 -->
<g id="edge3_Node000003_Node000004" class="edge">
<title>Node3&#45;&gt;Node4</title>
<g id="a_edge3_Node000003_Node000004"><a xlink:title=" ">
<path fill="none" stroke="#63b8ff" d="M565.07,-1372.09C562.48,-1369.69 560.1,-1367.08 558,-1364.25 479.55,-1258.32 467.39,-814.7 465.74,-726.52"/>
<polygon fill="#63b8ff" stroke="#63b8ff" points="563.4,-1375.23 573.41,-1378.7 567.75,-1369.75 563.4,-1375.23"/>
</a>
</g>
</g>
<!-- Node5 -->
<g id="Node000005" class="node">
<title>Node5</title>
<g id="a_Node000005"><a xlink:href="namespacem__start__up.html#ab5f7e03f1da1999ee699cec4f26370e0" target="_top" xlink:title="Checking that the user inputs make sense, i.e. that the individual choices are compatible with the co...">
<polygon fill="white" stroke="#666666" points="371,-377.25 255,-377.25 255,-347.25 371,-347.25 371,-377.25"/>
<text text-anchor="start" x="263" y="-365.25" font-family="Helvetica,sans-Serif" font-size="10.00">m_start_up::s_check</text>
<text text-anchor="middle" x="313" y="-354.25" font-family="Helvetica,sans-Serif" font-size="10.00">_input_file</text>
</a>
</g>
</g>
<!-- Node4&#45;&gt;Node5 -->
<g id="edge4_Node000004_Node000005" class="edge">
<title>Node4&#45;&gt;Node5</title>
<g id="a_edge4_Node000004_Node000005"><a xlink:title=" ">
<path fill="none" stroke="#63b8ff" d="M452.83,-686.33C423.79,-618.54 343.96,-432.19 320.54,-377.52"/>
<polygon fill="#63b8ff" stroke="#63b8ff" points="449.73,-687.99 456.88,-695.8 456.16,-685.23 449.73,-687.99"/>
</a>
</g>
</g>
<!-- Node6 -->
<g id="Node000006" class="node">
<title>Node6</title>
<g id="a_Node000006"><a xlink:href="namespacem__start__up.html#ad4011175691e51e9eac9fe16dc2df28a" target="_top" xlink:title=" ">
<polygon fill="white" stroke="#666666" points="219,-377.25 89,-377.25 89,-347.25 219,-347.25 219,-377.25"/>
<text text-anchor="start" x="97" y="-365.25" font-family="Helvetica,sans-Serif" font-size="10.00">m_start_up::s_initialize</text>
<text text-anchor="middle" x="154" y="-354.25" font-family="Helvetica,sans-Serif" font-size="10.00">_mpi_domain</text>
</a>
</g>
</g>
<!-- Node5&#45;&gt;Node6 -->
<g id="edge5_Node000005_Node000006" class="edge">
<title>Node5&#45;&gt;Node6</title>
<g id="a_edge5_Node000005_Node000006"><a xlink:title=" ">
<path fill="none" stroke="#63b8ff" d="M244.7,-362.25C236.26,-362.25 227.65,-362.25 219.26,-362.25"/>
<polygon fill="#63b8ff" stroke="#63b8ff" points="244.88,-365.75 254.88,-362.25 244.88,-358.75 244.88,-365.75"/>
</a>
</g>
</g>
<!-- Node7 -->
<g id="Node000007" class="node">
<title>Node7</title>
<g id="a_Node000007"><a xlink:href="p__main_8f90.html#aeec10ee8e2940c953967da3e374e1579" target="_top" xlink:title="This program takes care of setting up the initial condition and grid data for the multicomponent flow...">
<polygon fill="white" stroke="#666666" points="53,-371.75 0,-371.75 0,-352.75 53,-352.75 53,-371.75"/>
<text text-anchor="middle" x="26.5" y="-359.75" font-family="Helvetica,sans-Serif" font-size="10.00">p_main</text>
</a>
</g>
</g>
<!-- Node6&#45;&gt;Node7 -->
<g id="edge6_Node000006_Node000007" class="edge">
<title>Node6&#45;&gt;Node7</title>
<g id="a_edge6_Node000006_Node000007"><a xlink:title=" ">
<path fill="none" stroke="#63b8ff" d="M78.74,-362.25C69.58,-362.25 60.76,-362.25 53.09,-362.25"/>
<polygon fill="#63b8ff" stroke="#63b8ff" points="78.78,-365.75 88.78,-362.25 78.78,-358.75 78.78,-365.75"/>
</a>
</g>
</g>
<!-- Node8&#45;&gt;Node4 -->
<g id="edge8_Node000008_Node000004" class="edge">
<title>Node8&#45;&gt;Node4</title>
<g id="a_edge8_Node000008_Node000004"><a xlink:title=" ">
<path fill="none" stroke="#63b8ff" d="M565.06,-1279.37C562.49,-1277.21 560.11,-1274.85 558,-1272.25 486.86,-1184.74 469.02,-806.5 466.01,-726.25"/>
<polygon fill="#63b8ff" stroke="#63b8ff" points="563.11,-1282.28 573.29,-1285.22 567.17,-1276.57 563.11,-1282.28"/>
</a>
</g>
</g>
<!-- Node9&#45;&gt;Node4 -->
<g id="edge10_Node000009_Node000004" class="edge">
<title>Node9&#45;&gt;Node4</title>
<g id="a_edge10_Node000009_Node000004"><a xlink:title=" ">
<path fill="none" stroke="#63b8ff" d="M559.24,-1214.68C558.82,-1214.21 558.4,-1213.73 558,-1213.25 493.96,-1135.97 470.83,-802.47 466.35,-726.63"/>
<polygon fill="#63b8ff" stroke="#63b8ff" points="557.04,-1217.42 566.76,-1221.63 561.79,-1212.28 557.04,-1217.42"/>
</a>
</g>
</g>
<!-- Node10&#45;&gt;Node4 -->
<g id="edge12_Node000010_Node000004" class="edge">
<title>Node10&#45;&gt;Node4</title>
<g id="a_edge12_Node000010_Node000004"><a xlink:title=" ">
<path fill="none" stroke="#63b8ff" d="M564.56,-1160.73C562.19,-1158.75 559.99,-1156.59 558,-1154.25 500.93,-1087.01 472.82,-797.01 466.76,-726.67"/>
<polygon fill="#63b8ff" stroke="#63b8ff" points="562.97,-1163.89 573.15,-1166.82 567.02,-1158.18 562.97,-1163.89"/>
</a>
</g>
</g>
<!-- Node11&#45;&gt;Node4 -->
<g id="edge14_Node000011_Node000004" class="edge">
<title>Node11&#45;&gt;Node4</title>
<g id="a_edge14_Node000011_Node000004"><a xlink:title=" ">
<path fill="none" stroke="#63b8ff" d="M566.32,-1102.98C563.3,-1100.66 560.49,-1098.09 558,-1095.25 507.75,-1037.85 474.97,-790.15 467.26,-726.31"/>
<polygon fill="#63b8ff" stroke="#63b8ff" points="564.49,-1105.97 574.77,-1108.55 568.34,-1100.12 564.49,-1105.97"/>
</a>
</g>
</g>
<!-- Node12&#45;&gt;Node4 -->
<g id="edge16_Node000012_Node000004" class="edge">
<title>Node12&#45;&gt;Node4</title>
<g id="a_edge16_Node000012_Node000004"><a xlink:title=" ">
<path fill="none" stroke="#63b8ff" d="M566.46,-1043.86C563.4,-1041.57 560.55,-1039.04 558,-1036.25 472.99,-943.07 465.53,-777.17 465.32,-726.42"/>
<polygon fill="#63b8ff" stroke="#63b8ff" points="564.68,-1046.87 574.97,-1049.36 568.48,-1040.99 564.68,-1046.87"/>
</a>
</g>
</g>
<!-- Node13&#45;&gt;Node4 -->
<g id="edge18_Node000013_Node000004" class="edge">
<title>Node13&#45;&gt;Node4</title>
<g id="a_edge18_Node000013_Node000004"><a xlink:title=" ">
<path fill="none" stroke="#63b8ff" d="M567.78,-985.48C564.25,-983.03 560.95,-980.3 558,-977.25 486.48,-903.24 470.04,-771.09 466.45,-726.46"/>
<polygon fill="#63b8ff" stroke="#63b8ff" points="566.02,-988.51 576.39,-990.7 569.65,-982.52 566.02,-988.51"/>
</a>
</g>
</g>
<!-- Node14&#45;&gt;Node4 -->
<g id="edge20_Node000014_Node000004" class="edge">
<title>Node14&#45;&gt;Node4</title>
<g id="a_edge20_Node000014_Node000004"><a xlink:title=" ">
<path fill="none" stroke="#63b8ff" d="M565,-924.05C562.53,-922.25 560.18,-920.32 558,-918.25 499.64,-862.81 475.49,-763.85 468.14,-726.28"/>
<polygon fill="#63b8ff" stroke="#63b8ff" points="563.48,-927.23 573.79,-929.65 567.24,-921.32 563.48,-927.23"/>
</a>
</g>
</g>
<!-- Node15&#45;&gt;Node4 -->
<g id="edge22_Node000015_Node000004" class="edge">
<title>Node15&#45;&gt;Node4</title>
<g id="a_edge22_Node000015_Node000004"><a xlink:title=" ">
<path fill="none" stroke="#63b8ff" d="M561.63,-862.08C560.39,-861.16 559.18,-860.22 558,-859.25 512.69,-821.8 482.93,-756.12 471.18,-726.5"/>
<polygon fill="#63b8ff" stroke="#63b8ff" points="559.95,-865.16 570.24,-867.68 563.78,-859.29 559.95,-865.16"/>
</a>
</g>
</g>
<!-- Node16&#45;&gt;Node4 -->
<g id="edge24_Node000016_Node000004" class="edge">
<title>Node16&#45;&gt;Node4</title>
<g id="a_edge24_Node000016_Node000004"><a xlink:title=" ">
<path fill="none" stroke="#63b8ff" d="M564.69,-804.24C562.4,-802.96 560.16,-801.63 558,-800.25 525.3,-779.4 494.32,-745.78 477.83,-726.38"/>
<polygon fill="#63b8ff" stroke="#63b8ff" points="563.27,-807.44 573.76,-808.94 566.49,-801.23 563.27,-807.44"/>
</a>
</g>
</g>
<!-- Node17&#45;&gt;Node4 -->
<g id="edge26_Node000017_Node000004" class="edge">
<title>Node17&#45;&gt;Node4</title>
<g id="a_edge26_Node000017_Node000004"><a xlink:title=" ">
<path fill="none" stroke="#63b8ff" d="M564.83,-746.24C545.69,-739.49 525.42,-732.35 508.22,-726.29"/>
<polygon fill="#63b8ff" stroke="#63b8ff" points="563.82,-749.59 574.42,-749.61 566.15,-742.99 563.82,-749.59"/>
</a>
</g>
</g>
<!-- Node18&#45;&gt;Node4 -->
<g id="edge28_Node000018_Node000004" class="edge">
<title>Node18&#45;&gt;Node4</title>
<g id="a_edge28_Node000018_Node000004"><a xlink:title=" ">
<path fill="none" stroke="#63b8ff" d="M560.05,-711.25C547.33,-711.25 534.27,-711.25 522.08,-711.25"/>
<polygon fill="#63b8ff" stroke="#63b8ff" points="560.15,-714.75 570.15,-711.25 560.15,-707.75 560.15,-714.75"/>
</a>
</g>
</g>
<!-- Node19&#45;&gt;Node4 -->
<g id="edge30_Node000019_Node000004" class="edge">
<title>Node19&#45;&gt;Node4</title>
<g id="a_edge30_Node000019_Node000004"><a xlink:title=" ">
<path fill="none" stroke="#63b8ff" d="M564.83,-676.26C545.69,-683 525.42,-690.14 508.22,-696.2"/>
<polygon fill="#63b8ff" stroke="#63b8ff" points="566.15,-679.51 574.42,-672.88 563.82,-672.9 566.15,-679.51"/>
</a>
</g>
</g>
<!-- Node20&#45;&gt;Node4 -->
<g id="edge32_Node000020_Node000004" class="edge">
<title>Node20&#45;&gt;Node4</title>
<g id="a_edge32_Node000020_Node000004"><a xlink:title=" ">
<path fill="none" stroke="#63b8ff" d="M566,-618.49C563.25,-620.01 560.57,-621.6 558,-623.25 525.73,-643.96 494.83,-676.86 478.19,-696.03"/>
<polygon fill="#63b8ff" stroke="#63b8ff" points="567.69,-621.55 574.96,-613.85 564.47,-615.34 567.69,-621.55"/>
</a>
</g>
</g>
<!-- Node21&#45;&gt;Node5 -->
<g id="edge34_Node000021_Node000005" class="edge">
<title>Node21&#45;&gt;Node5</title>
<g id="a_edge34_Node000021_Node000005"><a xlink:title=" ">
<path fill="none" stroke="#63b8ff" d="M397.35,-348.87C388.7,-350.26 379.89,-351.67 371.4,-353.03"/>
<polygon fill="#63b8ff" stroke="#63b8ff" points="398.09,-352.29 407.41,-347.25 396.98,-345.38 398.09,-352.29"/>
</a>
</g>
</g>
<!-- Node22&#45;&gt;Node4 -->
<g id="edge36_Node000022_Node000004" class="edge">
<title>Node22&#45;&gt;Node4</title>
<g id="a_edge36_Node000022_Node000004"><a xlink:title=" ">
<path fill="none" stroke="#63b8ff" d="M562.91,-560.46C561.22,-561.67 559.58,-562.93 558,-564.25 513.06,-601.7 483.11,-666.81 471.24,-696.15"/>
<polygon fill="#63b8ff" stroke="#63b8ff" points="565.2,-563.15 571.75,-554.82 561.44,-557.25 565.2,-563.15"/>
</a>
</g>
</g>
<!-- Node23&#45;&gt;Node4 -->
<g id="edge38_Node000023_Node000004" class="edge">
<title>Node23&#45;&gt;Node4</title>
<g id="a_edge38_Node000023_Node000004"><a xlink:title=" ">
<path fill="none" stroke="#63b8ff" d="M564.06,-500.08C561.93,-501.7 559.9,-503.42 558,-505.25 500.29,-560.61 475.82,-658.55 468.26,-696.06"/>
<polygon fill="#63b8ff" stroke="#63b8ff" points="566.31,-502.79 572.67,-494.32 562.42,-496.97 566.31,-502.79"/>
</a>
</g>
</g>
<!-- Node24&#45;&gt;Node4 -->
<g id="edge40_Node000024_Node000004" class="edge">
<title>Node24&#45;&gt;Node4</title>
<g id="a_edge40_Node000024_Node000004"><a xlink:title=" ">
<path fill="none" stroke="#63b8ff" d="M561.31,-443.04C560.17,-444.07 559.06,-445.14 558,-446.25 487.11,-520.38 470.26,-651.77 466.51,-696.14"/>
<polygon fill="#63b8ff" stroke="#63b8ff" points="563.63,-445.67 569.41,-436.79 559.35,-440.13 563.63,-445.67"/>
</a>
</g>
</g>
<!-- Node25&#45;&gt;Node4 -->
<g id="edge43_Node000025_Node000004" class="edge">
<title>Node25&#45;&gt;Node4</title>
<g id="a_edge43_Node000025_Node000004"><a xlink:title=" ">
<path fill="none" stroke="#63b8ff" d="M560.8,-384.36C559.83,-385.29 558.9,-386.25 558,-387.25 473.74,-480.62 465.77,-645.68 465.37,-696.16"/>
<polygon fill="#63b8ff" stroke="#63b8ff" points="563.29,-386.85 568.82,-377.82 558.86,-381.42 563.29,-386.85"/>
</a>
</g>
</g>
<!-- Node26&#45;&gt;Node4 -->
<g id="edge45_Node000026_Node000004" class="edge">
<title>Node26&#45;&gt;Node4</title>
<g id="a_edge45_Node000026_Node000004"><a xlink:title=" ">
<path fill="none" stroke="#63b8ff" d="M560.66,-325.39C559.74,-326.31 558.85,-327.26 558,-328.25 508.19,-385.78 475.09,-632.63 467.28,-696.24"/>
<polygon fill="#63b8ff" stroke="#63b8ff" points="562.94,-328.05 568.31,-318.92 558.42,-322.7 562.94,-328.05"/>
</a>
</g>
</g>
<!-- Node27&#45;&gt;Node4 -->
<g id="edge47_Node000027_Node000004" class="edge">
<title>Node27&#45;&gt;Node4</title>
<g id="a_edge47_Node000027_Node000004"><a xlink:title=" ">
<path fill="none" stroke="#63b8ff" d="M565.19,-262.15C562.58,-264.31 560.16,-266.67 558,-269.25 529.52,-303.18 479.23,-621.68 467.84,-695.86"/>
<polygon fill="#63b8ff" stroke="#63b8ff" points="567.36,-264.91 573.49,-256.27 563.31,-259.19 567.36,-264.91"/>
</a>
</g>
</g>
<!-- Node28&#45;&gt;Node4 -->
<g id="edge49_Node000028_Node000004" class="edge">
<title>Node28&#45;&gt;Node4</title>
<g id="a_edge49_Node000028_Node000004"><a xlink:title=" ">
<path fill="none" stroke="#63b8ff" d="M560.22,-207.72C559.45,-208.54 558.71,-209.38 558,-210.25 541.97,-229.81 480.73,-614.43 467.88,-696.09"/>
<polygon fill="#63b8ff" stroke="#63b8ff" points="562.63,-210.26 567.76,-200.99 557.97,-205.04 562.63,-210.26"/>
</a>
</g>
</g>
<!-- Node29&#45;&gt;Node4 -->
<g id="edge51_Node000029_Node000004" class="edge">
<title>Node29&#45;&gt;Node4</title>
<g id="a_edge51_Node000029_Node000004"><a xlink:title=" ">
<path fill="none" stroke="#63b8ff" d="M560.19,-148.7C559.43,-149.52 558.7,-150.37 558,-151.25 555.77,-154.02 482.41,-606.77 467.96,-696.06"/>
<polygon fill="#63b8ff" stroke="#63b8ff" points="562.61,-151.23 567.68,-141.92 557.92,-146.04 562.61,-151.23"/>
</a>
</g>
</g>
<!-- Node30&#45;&gt;Node4 -->
<g id="edge53_Node000030_Node000004" class="edge">
<title>Node30&#45;&gt;Node4</title>
<g id="a_edge53_Node000030_Node000004"><a xlink:title=" ">
<path fill="none" stroke="#63b8ff" d="M560.16,-89.67C559.41,-90.5 558.69,-91.36 558,-92.25 520.82,-140.01 530.84,-302.37 522,-362.25 502.91,-491.58 476.47,-647.3 468.13,-695.96"/>
<polygon fill="#63b8ff" stroke="#63b8ff" points="562.59,-92.18 567.55,-82.82 557.84,-87.05 562.59,-92.18"/>
</a>
</g>
</g>
</g>
</svg>
