<?xml version="1.0" encoding="UTF-8" standalone="no"?>
<!DOCTYPE svg PUBLIC "-//W3C//DTD SVG 1.1//EN"
 "http://www.w3.org/Graphics/SVG/1.1/DTD/svg11.dtd">
<!-- Generated by graphviz version 2.43.0 (0)
 -->
<!-- Title: f_cross Pages: 1 -->
<svg width="779pt" height="117pt"
 viewBox="0.00 0.00 779.00 117.00" xmlns="http://www.w3.org/2000/svg" xmlns:xlink="http://www.w3.org/1999/xlink">
<g id="graph0" class="graph" transform="scale(1 1) rotate(0) translate(4 113)">
<title>f_cross</title>
<!-- Node1 -->
<g id="Node000001" class="node">
<title>Node1</title>
<g id="a_Node000001"><a xlink:title="This procedure computes the cross product of two vectors.">
<polygon fill="#999999" stroke="#666666" points="771,-90 720,-90 720,-71 771,-71 771,-90"/>
<text text-anchor="middle" x="745.5" y="-78" font-family="Helvetica,sans-Serif" font-size="10.00">f_cross</text>
</a>
</g>
</g>
<!-- Node2 -->
<g id="Node000002" class="node">
<title>Node2</title>
<g id="a_Node000002"><a xlink:href="m__helper_8fpp_8f90.html#ac1893d0dc10d4afa0f4b3f5c36b8fb8b" target="_top" xlink:title=" ">
<polygon fill="white" stroke="#666666" points="684,-109 559,-109 559,-90 684,-90 684,-109"/>
<text text-anchor="middle" x="621.5" y="-97" font-family="Helvetica,sans-Serif" font-size="10.00">__m_helper_fpp_f90__</text>
</a>
</g>
</g>
<!-- Node1&#45;&gt;Node2 -->
<g id="edge1_Node000001_Node000002" class="edge">
<title>Node1&#45;&gt;Node2</title>
<g id="a_edge1_Node000001_Node000002"><a xlink:title=" ">
<path fill="none" stroke="#63b8ff" d="M709.91,-85.89C701.71,-87.16 692.72,-88.56 683.73,-89.96"/>
<polygon fill="#63b8ff" stroke="#63b8ff" points="710.47,-89.34 719.81,-84.34 709.39,-82.43 710.47,-89.34"/>
</a>
</g>
</g>
<!-- Node3 -->
<g id="Node000003" class="node">
<title>Node3</title>
<g id="a_Node000003"><a xlink:href="m__model_8fpp_8f90.html#aa8e784a7afcad5f9713116d8e0efe8dd" target="_top" xlink:title="This procedure checks if a ray intersects a triangle.">
<polygon fill="white" stroke="#666666" points="679.5,-72 563.5,-72 563.5,-53 679.5,-53 679.5,-72"/>
<text text-anchor="middle" x="621.5" y="-60" font-family="Helvetica,sans-Serif" font-size="10.00">f_intersects_triangle</text>
</a>
</g>
</g>
<!-- Node1&#45;&gt;Node3 -->
<g id="edge2_Node000001_Node000003" class="edge">
<title>Node1&#45;&gt;Node3</title>
<g id="a_edge2_Node000001_Node000003"><a xlink:title=" ">
<path fill="none" stroke="#63b8ff" d="M709.71,-75.37C700.33,-73.98 689.93,-72.45 679.67,-70.93"/>
<polygon fill="#63b8ff" stroke="#63b8ff" points="709.41,-78.86 719.81,-76.86 710.43,-71.94 709.41,-78.86"/>
</a>
</g>
</g>
<!-- Node4 -->
<g id="Node000004" class="node">
<title>Node4</title>
<g id="a_Node000004"><a xlink:href="m__model_8fpp_8f90.html#aeec237153c6c81ad91c7b0155c283c11" target="_top" xlink:title="This procedure, recursively, finds whether a point is inside an octree.">
<polygon fill="white" stroke="#666666" points="523,-72 419,-72 419,-53 523,-53 523,-72"/>
<text text-anchor="middle" x="471" y="-60" font-family="Helvetica,sans-Serif" font-size="10.00">f_model_is_inside</text>
</a>
</g>
</g>
<!-- Node3&#45;&gt;Node4 -->
<g id="edge3_Node000003_Node000004" class="edge">
<title>Node3&#45;&gt;Node4</title>
<g id="a_edge3_Node000003_Node000004"><a xlink:title=" ">
<path fill="none" stroke="#63b8ff" d="M552.87,-62.5C542.98,-62.5 532.94,-62.5 523.44,-62.5"/>
<polygon fill="#63b8ff" stroke="#63b8ff" points="553.09,-66 563.09,-62.5 553.09,-59 553.09,-66"/>
</a>
</g>
</g>
<!-- Node5 -->
<g id="Node000005" class="node">
<title>Node5</title>
<g id="a_Node000005"><a xlink:href="m__model_8fpp_8f90.html#aec55944fb8c1ba7a734931f79a5a7686" target="_top" xlink:title=" ">
<polygon fill="white" stroke="#666666" points="383,-91 258,-91 258,-72 383,-72 383,-91"/>
<text text-anchor="middle" x="320.5" y="-79" font-family="Helvetica,sans-Serif" font-size="10.00">__m_model_fpp_f90__</text>
</a>
</g>
</g>
<!-- Node4&#45;&gt;Node5 -->
<g id="edge4_Node000004_Node000005" class="edge">
<title>Node4&#45;&gt;Node5</title>
<g id="a_edge4_Node000004_Node000005"><a xlink:title=" ">
<path fill="none" stroke="#63b8ff" d="M408.75,-70.34C400.32,-71.42 391.65,-72.52 383.21,-73.6"/>
<polygon fill="#63b8ff" stroke="#63b8ff" points="409.42,-73.78 418.89,-69.04 408.53,-66.84 409.42,-73.78"/>
</a>
</g>
</g>
<!-- Node6 -->
<g id="Node000006" class="node">
<title>Node6</title>
<g id="a_Node000006"><a xlink:href="m__patches_8fpp_8f90.html#ac7f748ab1e64c62eff219301807ba04e" target="_top" xlink:title="The STL patch is a 2/3D geometry that is imported from an STL file.">
<polygon fill="white" stroke="#666666" points="349.5,-54 291.5,-54 291.5,-35 349.5,-35 349.5,-54"/>
<text text-anchor="middle" x="320.5" y="-42" font-family="Helvetica,sans-Serif" font-size="10.00">s_model</text>
</a>
</g>
</g>
<!-- Node4&#45;&gt;Node6 -->
<g id="edge5_Node000004_Node000006" class="edge">
<title>Node4&#45;&gt;Node6</title>
<g id="a_edge5_Node000004_Node000006"><a xlink:title=" ">
<path fill="none" stroke="#63b8ff" d="M408.96,-55.1C388.43,-52.61 366.5,-49.95 349.74,-47.92"/>
<polygon fill="#63b8ff" stroke="#63b8ff" points="408.55,-58.58 418.89,-56.31 409.39,-51.63 408.55,-58.58"/>
</a>
</g>
</g>
<!-- Node7 -->
<g id="Node000007" class="node">
<title>Node7</title>
<g id="a_Node000007"><a xlink:href="m__patches_8fpp_8f90.html#a4a44c39189d79ff9c01b6372bf3dd856" target="_top" xlink:title=" ">
<polygon fill="white" stroke="#666666" points="222,-78 89,-78 89,-59 222,-59 222,-78"/>
<text text-anchor="middle" x="155.5" y="-66" font-family="Helvetica,sans-Serif" font-size="10.00">__m_patches_fpp_f90__</text>
</a>
</g>
</g>
<!-- Node6&#45;&gt;Node7 -->
<g id="edge6_Node000006_Node000007" class="edge">
<title>Node6&#45;&gt;Node7</title>
<g id="a_edge6_Node000006_Node000007"><a xlink:title=" ">
<path fill="none" stroke="#63b8ff" d="M281.44,-50.1C263.56,-52.74 241.72,-55.95 221.34,-58.95"/>
<polygon fill="#63b8ff" stroke="#63b8ff" points="282.1,-53.55 291.48,-48.63 281.08,-46.62 282.1,-53.55"/>
</a>
</g>
</g>
<!-- Node8 -->
<g id="Node000008" class="node">
<title>Node8</title>
<g id="a_Node000008"><a xlink:href="namespacem__initial__condition.html#aa74a70029e3ec0fd3225b369e7c5443e" target="_top" xlink:title="This subroutine peruses the patches and depending on the type of geometry associated with a particula...">
<polygon fill="white" stroke="#666666" points="210.5,-41 100.5,-41 100.5,0 210.5,0 210.5,-41"/>
<text text-anchor="start" x="108.5" y="-29" font-family="Helvetica,sans-Serif" font-size="10.00">m_initial_condition</text>
<text text-anchor="start" x="108.5" y="-18" font-family="Helvetica,sans-Serif" font-size="10.00">::s_generate_initial</text>
<text text-anchor="middle" x="155.5" y="-7" font-family="Helvetica,sans-Serif" font-size="10.00">_condition</text>
</a>
</g>
</g>
<!-- Node6&#45;&gt;Node8 -->
<g id="edge7_Node000006_Node000008" class="edge">
<title>Node6&#45;&gt;Node8</title>
<g id="a_edge7_Node000006_Node000008"><a xlink:title=" ">
<path fill="none" stroke="#63b8ff" d="M281.34,-38.88C260.34,-35.79 233.93,-31.9 210.81,-28.5"/>
<polygon fill="#63b8ff" stroke="#63b8ff" points="281.08,-42.38 291.48,-40.37 282.1,-35.45 281.08,-42.38"/>
</a>
</g>
</g>
<!-- Node9 -->
<g id="Node000009" class="node">
<title>Node9</title>
<g id="a_Node000009"><a xlink:href="p__main_8f90.html#aeec10ee8e2940c953967da3e374e1579" target="_top" xlink:title="This program takes care of setting up the initial condition and grid data for the multicomponent flow...">
<polygon fill="white" stroke="#666666" points="53,-30 0,-30 0,-11 53,-11 53,-30"/>
<text text-anchor="middle" x="26.5" y="-18" font-family="Helvetica,sans-Serif" font-size="10.00">p_main</text>
</a>
</g>
</g>
<!-- Node8&#45;&gt;Node9 -->
<g id="edge8_Node000008_Node000009" class="edge">
<title>Node8&#45;&gt;Node9</title>
<g id="a_edge8_Node000008_Node000009"><a xlink:title=" ">
<path fill="none" stroke="#63b8ff" d="M90.26,-20.5C77.14,-20.5 64.05,-20.5 53.26,-20.5"/>
<polygon fill="#63b8ff" stroke="#63b8ff" points="90.27,-24 100.27,-20.5 90.27,-17 90.27,-24"/>
</a>
</g>
</g>
</g>
</svg>
