<?xml version="1.0" encoding="UTF-8" standalone="no"?>
<!DOCTYPE svg PUBLIC "-//W3C//DTD SVG 1.1//EN"
 "http://www.w3.org/Graphics/SVG/1.1/DTD/svg11.dtd">
<!-- Generated by graphviz version 2.43.0 (0)
 -->
<!-- Title: s_int_to_str Pages: 1 -->
<svg width="661pt" height="1428pt"
 viewBox="0.00 0.00 661.00 1427.70" xmlns="http://www.w3.org/2000/svg" xmlns:xlink="http://www.w3.org/1999/xlink">
<g id="graph0" class="graph" transform="scale(1 1) rotate(0) translate(4 1423.7)">
<title>s_int_to_str</title>
<!-- Node1 -->
<g id="Node000001" class="node">
<title>Node1</title>
<g id="a_Node000001"><a xlink:title=" ">
<polygon fill="#999999" stroke="#666666" points="653,-720.7 580,-720.7 580,-701.7 653,-701.7 653,-720.7"/>
<text text-anchor="middle" x="616.5" y="-708.7" font-family="Helvetica,sans-Serif" font-size="10.00">s_int_to_str</text>
</a>
</g>
</g>
<!-- Node2 -->
<g id="Node000002" class="node">
<title>Node2</title>
<g id="a_Node000002"><a xlink:href="namespacem__check__patches.html#a4d14e04de7d9344029130ab09571fdb9" target="_top" xlink:title="This subroutine verifies that the geometric parameters of the analytical patch have consistently been...">
<polygon fill="white" stroke="#666666" points="528.5,-1419.7 407.5,-1419.7 407.5,-1378.7 528.5,-1378.7 528.5,-1419.7"/>
<text text-anchor="start" x="415.5" y="-1407.7" font-family="Helvetica,sans-Serif" font-size="10.00">m_check_patches::s</text>
<text text-anchor="start" x="415.5" y="-1396.7" font-family="Helvetica,sans-Serif" font-size="10.00">_check_1d_analytical</text>
<text text-anchor="middle" x="468" y="-1385.7" font-family="Helvetica,sans-Serif" font-size="10.00">_patch_geometry</text>
</a>
</g>
</g>
<!-- Node1&#45;&gt;Node2 -->
<g id="edge1_Node000001_Node000002" class="edge">
<title>Node1&#45;&gt;Node2</title>
<g id="a_edge1_Node000001_Node000002"><a xlink:title=" ">
<path fill="none" stroke="#63b8ff" d="M615.87,-731C617.3,-828.71 619.22,-1259.19 544,-1364.2 539.9,-1369.93 534.62,-1374.74 528.77,-1378.79"/>
<polygon fill="#63b8ff" stroke="#63b8ff" points="619.37,-730.94 615.7,-721 612.37,-731.05 619.37,-730.94"/>
</a>
</g>
</g>
<!-- Node3 -->
<g id="Node000003" class="node">
<title>Node3</title>
<g id="a_Node000003"><a xlink:href="namespacem__check__patches.html#a1c50b481760b96ce4496118759dc67f5" target="_top" xlink:title=" ">
<polygon fill="white" stroke="#666666" points="356,-726.2 241,-726.2 241,-696.2 356,-696.2 356,-726.2"/>
<text text-anchor="start" x="249" y="-714.2" font-family="Helvetica,sans-Serif" font-size="10.00">m_check_patches::s</text>
<text text-anchor="middle" x="298.5" y="-703.2" font-family="Helvetica,sans-Serif" font-size="10.00">_check_patches</text>
</a>
</g>
</g>
<!-- Node1&#45;&gt;Node3 -->
<g id="edge39_Node000001_Node000003" class="edge">
<title>Node1&#45;&gt;Node3</title>
<g id="a_edge39_Node000001_Node000003"><a xlink:title=" ">
<path fill="none" stroke="#63b8ff" d="M614.76,-730.72C610.75,-831.54 590.05,-1290.16 544,-1331.2 493.57,-1376.15 443.17,-1375.31 392,-1331.2 297.09,-1249.41 298.08,-813.2 299.24,-726.28"/>
<polygon fill="#63b8ff" stroke="#63b8ff" points="618.26,-730.84 615.15,-720.71 611.26,-730.56 618.26,-730.84"/>
</a>
</g>
</g>
<!-- Node6 -->
<g id="Node000006" class="node">
<title>Node6</title>
<g id="a_Node000006"><a xlink:href="namespacem__check__patches.html#a41e469c1773e6b92e16b2e3b3558c0ed" target="_top" xlink:title="This subroutine verifies that the geometric parameters of the analytical patch have consistently been...">
<polygon fill="white" stroke="#666666" points="528.5,-1321.7 407.5,-1321.7 407.5,-1280.7 528.5,-1280.7 528.5,-1321.7"/>
<text text-anchor="start" x="415.5" y="-1309.7" font-family="Helvetica,sans-Serif" font-size="10.00">m_check_patches::s</text>
<text text-anchor="start" x="415.5" y="-1298.7" font-family="Helvetica,sans-Serif" font-size="10.00">_check_2d_analytical</text>
<text text-anchor="middle" x="468" y="-1287.7" font-family="Helvetica,sans-Serif" font-size="10.00">_patch_geometry</text>
</a>
</g>
</g>
<!-- Node1&#45;&gt;Node6 -->
<g id="edge5_Node000001_Node000006" class="edge">
<title>Node1&#45;&gt;Node6</title>
<g id="a_edge5_Node000001_Node000006"><a xlink:title=" ">
<path fill="none" stroke="#63b8ff" d="M615.61,-731.04C615.7,-820.48 611.85,-1185.56 544,-1272.2 539.78,-1277.59 534.43,-1281.98 528.54,-1285.55"/>
<polygon fill="#63b8ff" stroke="#63b8ff" points="619.11,-730.91 615.58,-720.92 612.11,-730.93 619.11,-730.91"/>
</a>
</g>
</g>
<!-- Node7 -->
<g id="Node000007" class="node">
<title>Node7</title>
<g id="a_Node000007"><a xlink:href="namespacem__check__patches.html#a5d383a1b6d22d83b4d85e0efaa0de52a" target="_top" xlink:title="This subroutine verifies that the geometric parameters of the Taylor Green vortex patch have been ent...">
<polygon fill="white" stroke="#666666" points="537,-1262.7 399,-1262.7 399,-1221.7 537,-1221.7 537,-1262.7"/>
<text text-anchor="start" x="407" y="-1250.7" font-family="Helvetica,sans-Serif" font-size="10.00">m_check_patches::s</text>
<text text-anchor="start" x="407" y="-1239.7" font-family="Helvetica,sans-Serif" font-size="10.00">_check_2d_taylorgreen</text>
<text text-anchor="middle" x="468" y="-1228.7" font-family="Helvetica,sans-Serif" font-size="10.00">_vortex_patch_geometry</text>
</a>
</g>
</g>
<!-- Node1&#45;&gt;Node7 -->
<g id="edge7_Node000001_Node000007" class="edge">
<title>Node1&#45;&gt;Node7</title>
<g id="a_edge7_Node000001_Node000007"><a xlink:title=" ">
<path fill="none" stroke="#63b8ff" d="M615.27,-731.31C613.93,-815.21 604.82,-1136.69 544,-1213.2 541.57,-1216.26 538.77,-1219 535.72,-1221.45"/>
<polygon fill="#63b8ff" stroke="#63b8ff" points="618.77,-731.14 615.41,-721.09 611.77,-731.04 618.77,-731.14"/>
</a>
</g>
</g>
<!-- Node8 -->
<g id="Node000008" class="node">
<title>Node8</title>
<g id="a_Node000008"><a xlink:href="namespacem__check__patches.html#a5643fb88910457783efdc7be07c2096c" target="_top" xlink:title="This subroutine verifies that the geometric parameters of the analytical patch have consistently been...">
<polygon fill="white" stroke="#666666" points="528.5,-1203.7 407.5,-1203.7 407.5,-1162.7 528.5,-1162.7 528.5,-1203.7"/>
<text text-anchor="start" x="415.5" y="-1191.7" font-family="Helvetica,sans-Serif" font-size="10.00">m_check_patches::s</text>
<text text-anchor="start" x="415.5" y="-1180.7" font-family="Helvetica,sans-Serif" font-size="10.00">_check_3d_analytical</text>
<text text-anchor="middle" x="468" y="-1169.7" font-family="Helvetica,sans-Serif" font-size="10.00">_patch_geometry</text>
</a>
</g>
</g>
<!-- Node1&#45;&gt;Node8 -->
<g id="edge9_Node000001_Node000008" class="edge">
<title>Node1&#45;&gt;Node8</title>
<g id="a_edge9_Node000001_Node000008"><a xlink:title=" ">
<path fill="none" stroke="#63b8ff" d="M614.85,-731.37C611.94,-809.02 597.88,-1087.7 544,-1154.2 539.78,-1159.41 534.51,-1163.68 528.72,-1167.19"/>
<polygon fill="#63b8ff" stroke="#63b8ff" points="618.35,-731.17 615.21,-721.05 611.36,-730.92 618.35,-731.17"/>
</a>
</g>
</g>
<!-- Node9 -->
<g id="Node000009" class="node">
<title>Node9</title>
<g id="a_Node000009"><a xlink:href="namespacem__check__patches.html#ac652a2c373fea30afb587a3a8f28e4c9" target="_top" xlink:title="This subroutine verifies that any rights granted to the given active patch, to overwrite the precedin...">
<polygon fill="white" stroke="#666666" points="527,-1144.7 409,-1144.7 409,-1103.7 527,-1103.7 527,-1144.7"/>
<text text-anchor="start" x="417" y="-1132.7" font-family="Helvetica,sans-Serif" font-size="10.00">m_check_patches::s</text>
<text text-anchor="start" x="417" y="-1121.7" font-family="Helvetica,sans-Serif" font-size="10.00">_check_active_patch</text>
<text text-anchor="middle" x="468" y="-1110.7" font-family="Helvetica,sans-Serif" font-size="10.00">_alteration_rights</text>
</a>
</g>
</g>
<!-- Node1&#45;&gt;Node9 -->
<g id="edge11_Node000001_Node000009" class="edge">
<title>Node1&#45;&gt;Node9</title>
<g id="a_edge11_Node000001_Node000009"><a xlink:title=" ">
<path fill="none" stroke="#63b8ff" d="M614.33,-730.9C609.76,-801.18 591.09,-1038.49 544,-1095.2 539.36,-1100.79 533.51,-1105.3 527.14,-1108.95"/>
<polygon fill="#63b8ff" stroke="#63b8ff" points="617.83,-730.97 614.96,-720.77 610.84,-730.53 617.83,-730.97"/>
</a>
</g>
</g>
<!-- Node10 -->
<g id="Node000010" class="node">
<title>Node10</title>
<g id="a_Node000010"><a xlink:href="namespacem__check__patches.html#a7286a74b75fa2f5e046638056a85665e" target="_top" xlink:title="This subroutine verifies that the primitive variables associated with the given active patch are phys...">
<polygon fill="white" stroke="#666666" points="527,-1085.7 409,-1085.7 409,-1044.7 527,-1044.7 527,-1085.7"/>
<text text-anchor="start" x="417" y="-1073.7" font-family="Helvetica,sans-Serif" font-size="10.00">m_check_patches::s</text>
<text text-anchor="start" x="417" y="-1062.7" font-family="Helvetica,sans-Serif" font-size="10.00">_check_active_patch</text>
<text text-anchor="middle" x="468" y="-1051.7" font-family="Helvetica,sans-Serif" font-size="10.00">_primitive_variables</text>
</a>
</g>
</g>
<!-- Node1&#45;&gt;Node10 -->
<g id="edge13_Node000001_Node000010" class="edge">
<title>Node1&#45;&gt;Node10</title>
<g id="a_edge13_Node000001_Node000010"><a xlink:title=" ">
<path fill="none" stroke="#63b8ff" d="M613.58,-731.06C607.11,-794.25 584.2,-989.36 544,-1036.2 539.36,-1041.61 533.6,-1046.01 527.34,-1049.59"/>
<polygon fill="#63b8ff" stroke="#63b8ff" points="617.09,-731.15 614.6,-720.86 610.12,-730.46 617.09,-731.15"/>
</a>
</g>
</g>
<!-- Node11 -->
<g id="Node000011" class="node">
<title>Node11</title>
<g id="a_Node000011"><a xlink:href="namespacem__check__patches.html#aad20d0b0a41ec17a6c03afc700efa25a" target="_top" xlink:title="This subroutine verifies that the geometric parameters of the circle patch have consistently been inp...">
<polygon fill="white" stroke="#666666" points="525.5,-1026.7 410.5,-1026.7 410.5,-985.7 525.5,-985.7 525.5,-1026.7"/>
<text text-anchor="start" x="418.5" y="-1014.7" font-family="Helvetica,sans-Serif" font-size="10.00">m_check_patches::s</text>
<text text-anchor="start" x="418.5" y="-1003.7" font-family="Helvetica,sans-Serif" font-size="10.00">_check_circle_patch</text>
<text text-anchor="middle" x="468" y="-992.7" font-family="Helvetica,sans-Serif" font-size="10.00">_geometry</text>
</a>
</g>
</g>
<!-- Node1&#45;&gt;Node11 -->
<g id="edge15_Node000001_Node000011" class="edge">
<title>Node1&#45;&gt;Node11</title>
<g id="a_edge15_Node000001_Node000011"><a xlink:title=" ">
<path fill="none" stroke="#63b8ff" d="M615.92,-730.92C615.88,-779.22 609.11,-904.77 544,-977.2 538.87,-982.91 532.48,-987.51 525.61,-991.21"/>
<polygon fill="#63b8ff" stroke="#63b8ff" points="619.42,-730.83 615.83,-720.86 612.42,-730.9 619.42,-730.83"/>
</a>
</g>
</g>
<!-- Node12 -->
<g id="Node000012" class="node">
<title>Node12</title>
<g id="a_Node000012"><a xlink:href="namespacem__check__patches.html#aea0d7e10470a4ecaa08df5ff79fe2485" target="_top" xlink:title="This subroutine verifies that the geometric parameters of the cuboid patch have consistently been inp...">
<polygon fill="white" stroke="#666666" points="528,-967.7 408,-967.7 408,-926.7 528,-926.7 528,-967.7"/>
<text text-anchor="start" x="416" y="-955.7" font-family="Helvetica,sans-Serif" font-size="10.00">m_check_patches::s</text>
<text text-anchor="start" x="416" y="-944.7" font-family="Helvetica,sans-Serif" font-size="10.00">_check_cuboid_patch</text>
<text text-anchor="middle" x="468" y="-933.7" font-family="Helvetica,sans-Serif" font-size="10.00">_geometry</text>
</a>
</g>
</g>
<!-- Node1&#45;&gt;Node12 -->
<g id="edge17_Node000001_Node000012" class="edge">
<title>Node1&#45;&gt;Node12</title>
<g id="a_edge17_Node000001_Node000012"><a xlink:title=" ">
<path fill="none" stroke="#63b8ff" d="M614.09,-731.08C610.17,-771.62 595.75,-864.53 544,-918.2 539.45,-922.93 534.04,-926.89 528.24,-930.22"/>
<polygon fill="#63b8ff" stroke="#63b8ff" points="617.59,-731.16 614.95,-720.9 610.62,-730.57 617.59,-731.16"/>
</a>
</g>
</g>
<!-- Node13 -->
<g id="Node000013" class="node">
<title>Node13</title>
<g id="a_Node000013"><a xlink:href="namespacem__check__patches.html#a66adadaa54ebba56992b9bb9ed7cb490" target="_top" xlink:title="This subroutine verifies that the geometric parameters of the cylinder patch have consistently been i...">
<polygon fill="white" stroke="#666666" points="531.5,-908.7 404.5,-908.7 404.5,-867.7 531.5,-867.7 531.5,-908.7"/>
<text text-anchor="start" x="412.5" y="-896.7" font-family="Helvetica,sans-Serif" font-size="10.00">m_check_patches::s</text>
<text text-anchor="start" x="412.5" y="-885.7" font-family="Helvetica,sans-Serif" font-size="10.00">_check_cylinder_patch</text>
<text text-anchor="middle" x="468" y="-874.7" font-family="Helvetica,sans-Serif" font-size="10.00">_geometry</text>
</a>
</g>
</g>
<!-- Node1&#45;&gt;Node13 -->
<g id="edge19_Node000001_Node000013" class="edge">
<title>Node1&#45;&gt;Node13</title>
<g id="a_edge19_Node000001_Node000013"><a xlink:title=" ">
<path fill="none" stroke="#63b8ff" d="M610.92,-731.11C602.73,-762.49 582.68,-823.54 544,-859.2 540.31,-862.61 536.17,-865.63 531.78,-868.31"/>
<polygon fill="#63b8ff" stroke="#63b8ff" points="614.42,-731.54 613.42,-720.99 607.62,-729.87 614.42,-731.54"/>
</a>
</g>
</g>
<!-- Node14 -->
<g id="Node000014" class="node">
<title>Node14</title>
<g id="a_Node000014"><a xlink:href="namespacem__check__patches.html#ac701bfedde9f28ce1c4aafba47c0b7c9" target="_top" xlink:title="This subroutine verifies that the geometric parameters of the ellipse patch have consistently been in...">
<polygon fill="white" stroke="#666666" points="528,-849.7 408,-849.7 408,-808.7 528,-808.7 528,-849.7"/>
<text text-anchor="start" x="416" y="-837.7" font-family="Helvetica,sans-Serif" font-size="10.00">m_check_patches::s</text>
<text text-anchor="start" x="416" y="-826.7" font-family="Helvetica,sans-Serif" font-size="10.00">_check_ellipse_patch</text>
<text text-anchor="middle" x="468" y="-815.7" font-family="Helvetica,sans-Serif" font-size="10.00">_geometry</text>
</a>
</g>
</g>
<!-- Node1&#45;&gt;Node14 -->
<g id="edge21_Node000001_Node000014" class="edge">
<title>Node1&#45;&gt;Node14</title>
<g id="a_edge21_Node000001_Node000014"><a xlink:title=" ">
<path fill="none" stroke="#63b8ff" d="M604.83,-729.63C592.47,-749.51 570.4,-780.9 544,-800.2 539.15,-803.75 533.82,-806.92 528.3,-809.74"/>
<polygon fill="#63b8ff" stroke="#63b8ff" points="607.92,-731.27 610.09,-720.9 601.93,-727.66 607.92,-731.27"/>
</a>
</g>
</g>
<!-- Node15 -->
<g id="Node000015" class="node">
<title>Node15</title>
<g id="a_Node000015"><a xlink:href="namespacem__check__patches.html#abd8a1330518492f664a786646fcba9f9" target="_top" xlink:title="This subroutine verifies that the geometric parameters of the ellipsoid patch have consistently been ...">
<polygon fill="white" stroke="#666666" points="532.5,-790.7 403.5,-790.7 403.5,-749.7 532.5,-749.7 532.5,-790.7"/>
<text text-anchor="start" x="411.5" y="-778.7" font-family="Helvetica,sans-Serif" font-size="10.00">m_check_patches::s</text>
<text text-anchor="start" x="411.5" y="-767.7" font-family="Helvetica,sans-Serif" font-size="10.00">_check_ellipsoid_patch</text>
<text text-anchor="middle" x="468" y="-756.7" font-family="Helvetica,sans-Serif" font-size="10.00">_geometry</text>
</a>
</g>
</g>
<!-- Node1&#45;&gt;Node15 -->
<g id="edge23_Node000001_Node000015" class="edge">
<title>Node1&#45;&gt;Node15</title>
<g id="a_edge23_Node000001_Node000015"><a xlink:title=" ">
<path fill="none" stroke="#63b8ff" d="M583.6,-724.82C571.26,-730.02 557,-735.96 544,-741.2 537.14,-743.97 529.9,-746.83 522.74,-749.64"/>
<polygon fill="#63b8ff" stroke="#63b8ff" points="585.18,-727.95 593.03,-720.83 582.45,-721.5 585.18,-727.95"/>
</a>
</g>
</g>
<!-- Node16 -->
<g id="Node000016" class="node">
<title>Node16</title>
<g id="a_Node000016"><a xlink:href="namespacem__check__patches.html#a2690167f0b25ca2a4475875740a1a99c" target="_top" xlink:title="This subroutine verifies that the rights of the given inactive patch, to overwrite the preceding patc...">
<polygon fill="white" stroke="#666666" points="531.5,-731.7 404.5,-731.7 404.5,-690.7 531.5,-690.7 531.5,-731.7"/>
<text text-anchor="start" x="412.5" y="-719.7" font-family="Helvetica,sans-Serif" font-size="10.00">m_check_patches::s</text>
<text text-anchor="start" x="412.5" y="-708.7" font-family="Helvetica,sans-Serif" font-size="10.00">_check_inactive_patch</text>
<text text-anchor="middle" x="468" y="-697.7" font-family="Helvetica,sans-Serif" font-size="10.00">_alteration_rights</text>
</a>
</g>
</g>
<!-- Node1&#45;&gt;Node16 -->
<g id="edge25_Node000001_Node000016" class="edge">
<title>Node1&#45;&gt;Node16</title>
<g id="a_edge25_Node000001_Node000016"><a xlink:title=" ">
<path fill="none" stroke="#63b8ff" d="M569.45,-711.2C557.44,-711.2 544.3,-711.2 531.6,-711.2"/>
<polygon fill="#63b8ff" stroke="#63b8ff" points="569.66,-714.7 579.66,-711.2 569.66,-707.7 569.66,-714.7"/>
</a>
</g>
</g>
<!-- Node17 -->
<g id="Node000017" class="node">
<title>Node17</title>
<g id="a_Node000017"><a xlink:href="namespacem__check__patches.html#aa2e133b2f325b7a3597149ec08e7dccc" target="_top" xlink:title=" ">
<polygon fill="white" stroke="#666666" points="531.5,-672.7 404.5,-672.7 404.5,-631.7 531.5,-631.7 531.5,-672.7"/>
<text text-anchor="start" x="412.5" y="-660.7" font-family="Helvetica,sans-Serif" font-size="10.00">m_check_patches::s</text>
<text text-anchor="start" x="412.5" y="-649.7" font-family="Helvetica,sans-Serif" font-size="10.00">_check_inactive_patch</text>
<text text-anchor="middle" x="468" y="-638.7" font-family="Helvetica,sans-Serif" font-size="10.00">_geometry</text>
</a>
</g>
</g>
<!-- Node1&#45;&gt;Node17 -->
<g id="edge27_Node000001_Node000017" class="edge">
<title>Node1&#45;&gt;Node17</title>
<g id="a_edge27_Node000001_Node000017"><a xlink:title=" ">
<path fill="none" stroke="#63b8ff" d="M582.69,-697.86C570.54,-692.93 556.65,-687.3 544,-682.2 536.46,-679.17 528.48,-675.96 520.66,-672.83"/>
<polygon fill="#63b8ff" stroke="#63b8ff" points="581.42,-701.12 592,-701.64 584.06,-694.64 581.42,-701.12"/>
</a>
</g>
</g>
<!-- Node18 -->
<g id="Node000018" class="node">
<title>Node18</title>
<g id="a_Node000018"><a xlink:href="namespacem__check__patches.html#a67a788934dbcdcd139962e5b453bf622" target="_top" xlink:title="This subroutine verifies that the primitive variables associated with the given inactive patch remain...">
<polygon fill="white" stroke="#666666" points="531.5,-613.7 404.5,-613.7 404.5,-572.7 531.5,-572.7 531.5,-613.7"/>
<text text-anchor="start" x="412.5" y="-601.7" font-family="Helvetica,sans-Serif" font-size="10.00">m_check_patches::s</text>
<text text-anchor="start" x="412.5" y="-590.7" font-family="Helvetica,sans-Serif" font-size="10.00">_check_inactive_patch</text>
<text text-anchor="middle" x="468" y="-579.7" font-family="Helvetica,sans-Serif" font-size="10.00">_primitive_variables</text>
</a>
</g>
</g>
<!-- Node1&#45;&gt;Node18 -->
<g id="edge29_Node000001_Node000018" class="edge">
<title>Node1&#45;&gt;Node18</title>
<g id="a_edge29_Node000001_Node000018"><a xlink:title=" ">
<path fill="none" stroke="#63b8ff" d="M604.74,-693.05C592.3,-673.45 570.16,-642.46 544,-623.2 539.26,-619.71 534.05,-616.56 528.66,-613.73"/>
<polygon fill="#63b8ff" stroke="#63b8ff" points="601.81,-694.98 610.04,-701.66 607.77,-691.31 601.81,-694.98"/>
</a>
</g>
</g>
<!-- Node19 -->
<g id="Node000019" class="node">
<title>Node19</title>
<g id="a_Node000019"><a xlink:href="namespacem__checker.html#af3af1277501908ef5a97721ebf04061f" target="_top" xlink:title=" ">
<polygon fill="white" stroke="#666666" points="355.5,-353.2 241.5,-353.2 241.5,-323.2 355.5,-323.2 355.5,-353.2"/>
<text text-anchor="start" x="249.5" y="-341.2" font-family="Helvetica,sans-Serif" font-size="10.00">m_checker::s_check</text>
<text text-anchor="middle" x="298.5" y="-330.2" font-family="Helvetica,sans-Serif" font-size="10.00">_inputs</text>
</a>
</g>
</g>
<!-- Node1&#45;&gt;Node19 -->
<g id="edge31_Node000001_Node000019" class="edge">
<title>Node1&#45;&gt;Node19</title>
<g id="a_edge31_Node000001_Node000019"><a xlink:title=" ">
<path fill="none" stroke="#63b8ff" d="M614.96,-691.53C611.84,-584.71 594.41,-77.59 544,-32.2 493.79,12.99 446.24,8.06 392,-32.2 343.21,-68.43 310.2,-266.61 301.68,-323.15"/>
<polygon fill="#63b8ff" stroke="#63b8ff" points="611.46,-691.67 615.25,-701.57 618.46,-691.47 611.46,-691.67"/>
</a>
</g>
</g>
<!-- Node20 -->
<g id="Node000020" class="node">
<title>Node20</title>
<g id="a_Node000020"><a xlink:href="namespacem__check__patches.html#ad07ba3c6ec28f098d2301cb5c4fab3fa" target="_top" xlink:title="This subroutine verifies that the geometric parameters of the isentropic vortex patch have been enter...">
<polygon fill="white" stroke="#666666" points="538,-554.7 398,-554.7 398,-513.7 538,-513.7 538,-554.7"/>
<text text-anchor="start" x="406" y="-542.7" font-family="Helvetica,sans-Serif" font-size="10.00">m_check_patches::s</text>
<text text-anchor="start" x="406" y="-531.7" font-family="Helvetica,sans-Serif" font-size="10.00">_check_isentropic_vortex</text>
<text text-anchor="middle" x="468" y="-520.7" font-family="Helvetica,sans-Serif" font-size="10.00">_patch_geometry</text>
</a>
</g>
</g>
<!-- Node1&#45;&gt;Node20 -->
<g id="edge33_Node000001_Node000020" class="edge">
<title>Node1&#45;&gt;Node20</title>
<g id="a_edge33_Node000001_Node000020"><a xlink:title=" ">
<path fill="none" stroke="#63b8ff" d="M610.84,-691.48C602.52,-660.39 582.31,-599.84 544,-564.2 540.2,-560.67 535.93,-557.53 531.41,-554.75"/>
<polygon fill="#63b8ff" stroke="#63b8ff" points="607.53,-692.67 613.37,-701.51 614.31,-690.95 607.53,-692.67"/>
</a>
</g>
</g>
<!-- Node21 -->
<g id="Node000021" class="node">
<title>Node21</title>
<g id="a_Node000021"><a xlink:href="namespacem__check__patches.html#a5b142fb0ce186f97c22e5a10a36a3bb8" target="_top" xlink:title="This subroutine verifies that the geometric parameters of the line segment patch have consistently be...">
<polygon fill="white" stroke="#666666" points="529,-495.7 407,-495.7 407,-454.7 529,-454.7 529,-495.7"/>
<text text-anchor="start" x="415" y="-483.7" font-family="Helvetica,sans-Serif" font-size="10.00">m_check_patches::s</text>
<text text-anchor="start" x="415" y="-472.7" font-family="Helvetica,sans-Serif" font-size="10.00">_check_line_segment</text>
<text text-anchor="middle" x="468" y="-461.7" font-family="Helvetica,sans-Serif" font-size="10.00">_patch_geometry</text>
</a>
</g>
</g>
<!-- Node1&#45;&gt;Node21 -->
<g id="edge35_Node000001_Node000021" class="edge">
<title>Node1&#45;&gt;Node21</title>
<g id="a_edge35_Node000001_Node000021"><a xlink:title=" ">
<path fill="none" stroke="#63b8ff" d="M614.01,-691.47C609.94,-651.21 595.26,-558.9 544,-505.2 539.74,-500.74 534.73,-496.93 529.35,-493.67"/>
<polygon fill="#63b8ff" stroke="#63b8ff" points="610.53,-691.93 614.91,-701.58 617.51,-691.3 610.53,-691.93"/>
</a>
</g>
</g>
<!-- Node22 -->
<g id="Node000022" class="node">
<title>Node22</title>
<g id="a_Node000022"><a xlink:href="namespacem__check__patches.html#a7bae026c1e443c8247a8ad74a849063b" target="_top" xlink:title="This subroutine verifies that the geometric parameters of the line sweep patch have consistently been...">
<polygon fill="white" stroke="#666666" points="539.5,-436.7 396.5,-436.7 396.5,-395.7 539.5,-395.7 539.5,-436.7"/>
<text text-anchor="start" x="404.5" y="-424.7" font-family="Helvetica,sans-Serif" font-size="10.00">m_check_patches::s</text>
<text text-anchor="start" x="404.5" y="-413.7" font-family="Helvetica,sans-Serif" font-size="10.00">_check_line_sweep_patch</text>
<text text-anchor="middle" x="468" y="-402.7" font-family="Helvetica,sans-Serif" font-size="10.00">_geometry</text>
</a>
</g>
</g>
<!-- Node1&#45;&gt;Node22 -->
<g id="edge37_Node000001_Node000022" class="edge">
<title>Node1&#45;&gt;Node22</title>
<g id="a_edge37_Node000001_Node000022"><a xlink:title=" ">
<path fill="none" stroke="#63b8ff" d="M615.84,-691.3C615.59,-643.06 608.36,-518.57 544,-446.2 540.83,-442.64 537.18,-439.5 533.23,-436.72"/>
<polygon fill="#63b8ff" stroke="#63b8ff" points="612.34,-691.59 615.79,-701.6 619.34,-691.62 612.34,-691.59"/>
</a>
</g>
</g>
<!-- Node23 -->
<g id="Node000023" class="node">
<title>Node23</title>
<g id="a_Node000023"><a xlink:href="namespacem__check__patches.html#a9bb2f96dfcb0168c5a5e51cb7b5dc906" target="_top" xlink:title="This subroutine verifies that the geometric parameters of the plane sweep patch have consistently bee...">
<polygon fill="white" stroke="#666666" points="544,-377.7 392,-377.7 392,-336.7 544,-336.7 544,-377.7"/>
<text text-anchor="start" x="400" y="-365.7" font-family="Helvetica,sans-Serif" font-size="10.00">m_check_patches::s</text>
<text text-anchor="start" x="400" y="-354.7" font-family="Helvetica,sans-Serif" font-size="10.00">_check_plane_sweep_patch</text>
<text text-anchor="middle" x="468" y="-343.7" font-family="Helvetica,sans-Serif" font-size="10.00">_geometry</text>
</a>
</g>
</g>
<!-- Node1&#45;&gt;Node23 -->
<g id="edge40_Node000001_Node000023" class="edge">
<title>Node1&#45;&gt;Node23</title>
<g id="a_edge40_Node000001_Node000023"><a xlink:title=" ">
<path fill="none" stroke="#63b8ff" d="M613.55,-691.43C606.99,-628.48 583.83,-434.13 544,-387.2 541.01,-383.68 537.54,-380.56 533.77,-377.81"/>
<polygon fill="#63b8ff" stroke="#63b8ff" points="610.09,-692 614.58,-701.59 617.05,-691.29 610.09,-692"/>
</a>
</g>
</g>
<!-- Node24 -->
<g id="Node000024" class="node">
<title>Node24</title>
<g id="a_Node000024"><a xlink:href="namespacem__check__patches.html#ac34be0830489fb414bc93ecbb25c0383" target="_top" xlink:title="This subroutine verifies that the geometric parameters of the rectangle patch have consistently been ...">
<polygon fill="white" stroke="#666666" points="535,-318.7 401,-318.7 401,-277.7 535,-277.7 535,-318.7"/>
<text text-anchor="start" x="409" y="-306.7" font-family="Helvetica,sans-Serif" font-size="10.00">m_check_patches::s</text>
<text text-anchor="start" x="409" y="-295.7" font-family="Helvetica,sans-Serif" font-size="10.00">_check_rectangle_patch</text>
<text text-anchor="middle" x="468" y="-284.7" font-family="Helvetica,sans-Serif" font-size="10.00">_geometry</text>
</a>
</g>
</g>
<!-- Node1&#45;&gt;Node24 -->
<g id="edge42_Node000001_Node000024" class="edge">
<title>Node1&#45;&gt;Node24</title>
<g id="a_edge42_Node000001_Node000024"><a xlink:title=" ">
<path fill="none" stroke="#63b8ff" d="M614.3,-691.58C609.63,-621.55 590.66,-385.03 544,-328.2 541.15,-324.74 537.84,-321.67 534.24,-318.95"/>
<polygon fill="#63b8ff" stroke="#63b8ff" points="610.81,-691.92 614.94,-701.67 617.8,-691.47 610.81,-691.92"/>
</a>
</g>
</g>
<!-- Node25 -->
<g id="Node000025" class="node">
<title>Node25</title>
<g id="a_Node000025"><a xlink:href="namespacem__check__patches.html#ad2dd6dc473d7bb6d32cd5fd906c80da4" target="_top" xlink:title="This subroutine verifies that the geometric parameters of the sphere patch have consistently been inp...">
<polygon fill="white" stroke="#666666" points="528.5,-259.7 407.5,-259.7 407.5,-218.7 528.5,-218.7 528.5,-259.7"/>
<text text-anchor="start" x="415.5" y="-247.7" font-family="Helvetica,sans-Serif" font-size="10.00">m_check_patches::s</text>
<text text-anchor="start" x="415.5" y="-236.7" font-family="Helvetica,sans-Serif" font-size="10.00">_check_sphere_patch</text>
<text text-anchor="middle" x="468" y="-225.7" font-family="Helvetica,sans-Serif" font-size="10.00">_geometry</text>
</a>
</g>
</g>
<!-- Node1&#45;&gt;Node25 -->
<g id="edge44_Node000001_Node000025" class="edge">
<title>Node1&#45;&gt;Node25</title>
<g id="a_edge44_Node000001_Node000025"><a xlink:title=" ">
<path fill="none" stroke="#63b8ff" d="M614.82,-691.11C611.8,-613.7 597.39,-335.86 544,-269.2 539.79,-263.95 534.52,-259.61 528.74,-256.03"/>
<polygon fill="#63b8ff" stroke="#63b8ff" points="611.33,-691.52 615.19,-701.39 618.32,-691.27 611.33,-691.52"/>
</a>
</g>
</g>
<!-- Node26 -->
<g id="Node000026" class="node">
<title>Node26</title>
<g id="a_Node000026"><a xlink:href="namespacem__check__patches.html#a7f4fc28d325755439d8764d595e09387" target="_top" xlink:title="This subroutine verifies that the geometric parameters of the spherical harmonic patch have consisten...">
<polygon fill="white" stroke="#666666" points="543.5,-200.7 392.5,-200.7 392.5,-159.7 543.5,-159.7 543.5,-200.7"/>
<text text-anchor="start" x="400.5" y="-188.7" font-family="Helvetica,sans-Serif" font-size="10.00">m_check_patches::s</text>
<text text-anchor="start" x="400.5" y="-177.7" font-family="Helvetica,sans-Serif" font-size="10.00">_check_spherical_harmonic</text>
<text text-anchor="middle" x="468" y="-166.7" font-family="Helvetica,sans-Serif" font-size="10.00">_patch_geometry</text>
</a>
</g>
</g>
<!-- Node1&#45;&gt;Node26 -->
<g id="edge46_Node000001_Node000026" class="edge">
<title>Node1&#45;&gt;Node26</title>
<g id="a_edge46_Node000001_Node000026"><a xlink:title=" ">
<path fill="none" stroke="#63b8ff" d="M615.24,-691.16C613.78,-607.49 604.27,-286.91 544,-210.2 541.23,-206.68 537.98,-203.56 534.41,-200.81"/>
<polygon fill="#63b8ff" stroke="#63b8ff" points="611.74,-691.4 615.4,-701.34 618.74,-691.29 611.74,-691.4"/>
</a>
</g>
</g>
<!-- Node27 -->
<g id="Node000027" class="node">
<title>Node27</title>
<g id="a_Node000027"><a xlink:href="namespacem__check__patches.html#ac4618b7bb46f92ac59717a31d673ab88" target="_top" xlink:title="This subroutine verifies that the smoothing parameters of the given patch, which supports the smoothi...">
<polygon fill="white" stroke="#666666" points="536.5,-141.7 399.5,-141.7 399.5,-100.7 536.5,-100.7 536.5,-141.7"/>
<text text-anchor="start" x="407.5" y="-129.7" font-family="Helvetica,sans-Serif" font-size="10.00">m_check_patches::s</text>
<text text-anchor="start" x="407.5" y="-118.7" font-family="Helvetica,sans-Serif" font-size="10.00">_check_supported_patch</text>
<text text-anchor="middle" x="468" y="-107.7" font-family="Helvetica,sans-Serif" font-size="10.00">_smoothing</text>
</a>
</g>
</g>
<!-- Node1&#45;&gt;Node27 -->
<g id="edge48_Node000001_Node000027" class="edge">
<title>Node1&#45;&gt;Node27</title>
<g id="a_edge48_Node000001_Node000027"><a xlink:title=" ">
<path fill="none" stroke="#63b8ff" d="M615.58,-691.42C615.55,-602.22 611.24,-238.08 544,-151.2 541.25,-147.66 538.02,-144.53 534.47,-141.76"/>
<polygon fill="#63b8ff" stroke="#63b8ff" points="612.08,-691.51 615.56,-701.52 619.08,-691.52 612.08,-691.51"/>
</a>
</g>
</g>
<!-- Node28 -->
<g id="Node000028" class="node">
<title>Node28</title>
<g id="a_Node000028"><a xlink:href="namespacem__check__patches.html#a7f27b499f2b90ad0f25443c1a1c5a0e5" target="_top" xlink:title="This subroutine verifies that the smoothing parameters of the given patch, which does not support the...">
<polygon fill="white" stroke="#666666" points="542.5,-82.7 393.5,-82.7 393.5,-41.7 542.5,-41.7 542.5,-82.7"/>
<text text-anchor="start" x="401.5" y="-70.7" font-family="Helvetica,sans-Serif" font-size="10.00">m_check_patches::s</text>
<text text-anchor="start" x="401.5" y="-59.7" font-family="Helvetica,sans-Serif" font-size="10.00">_check_unsupported_patch</text>
<text text-anchor="middle" x="468" y="-48.7" font-family="Helvetica,sans-Serif" font-size="10.00">_smoothing</text>
</a>
</g>
</g>
<!-- Node1&#45;&gt;Node28 -->
<g id="edge50_Node000001_Node000028" class="edge">
<title>Node1&#45;&gt;Node28</title>
<g id="a_edge50_Node000001_Node000028"><a xlink:title=" ">
<path fill="none" stroke="#63b8ff" d="M615.85,-691.18C617.13,-595.91 618.1,-189.15 544,-92.2 541.27,-88.64 538.06,-85.5 534.52,-82.73"/>
<polygon fill="#63b8ff" stroke="#63b8ff" points="612.35,-691.38 615.69,-701.43 619.35,-691.48 612.35,-691.38"/>
</a>
</g>
</g>
<!-- Node2&#45;&gt;Node3 -->
<g id="edge2_Node000002_Node000003" class="edge">
<title>Node2&#45;&gt;Node3</title>
<g id="a_edge2_Node000002_Node000003"><a xlink:title=" ">
<path fill="none" stroke="#63b8ff" d="M399.07,-1372.05C396.48,-1369.64 394.1,-1367.03 392,-1364.2 313.55,-1258.27 301.39,-814.65 299.74,-726.48"/>
<polygon fill="#63b8ff" stroke="#63b8ff" points="397.4,-1375.19 407.41,-1378.66 401.75,-1369.7 397.4,-1375.19"/>
</a>
</g>
</g>
<!-- Node4 -->
<g id="Node000004" class="node">
<title>Node4</title>
<g id="a_Node000004"><a xlink:href="namespacem__start__up.html#ab5f7e03f1da1999ee699cec4f26370e0" target="_top" xlink:title="Checking that the user inputs make sense, i.e. that the individual choices are compatible with the co...">
<polygon fill="white" stroke="#666666" points="205,-377.2 89,-377.2 89,-347.2 205,-347.2 205,-377.2"/>
<text text-anchor="start" x="97" y="-365.2" font-family="Helvetica,sans-Serif" font-size="10.00">m_start_up::s_check</text>
<text text-anchor="middle" x="147" y="-354.2" font-family="Helvetica,sans-Serif" font-size="10.00">_input_file</text>
</a>
</g>
</g>
<!-- Node3&#45;&gt;Node4 -->
<g id="edge3_Node000003_Node000004" class="edge">
<title>Node3&#45;&gt;Node4</title>
<g id="a_edge3_Node000003_Node000004"><a xlink:title=" ">
<path fill="none" stroke="#63b8ff" d="M286.83,-686.29C257.79,-618.5 177.96,-432.15 154.54,-377.47"/>
<polygon fill="#63b8ff" stroke="#63b8ff" points="283.73,-687.94 290.88,-695.76 290.16,-685.19 283.73,-687.94"/>
</a>
</g>
</g>
<!-- Node5 -->
<g id="Node000005" class="node">
<title>Node5</title>
<g id="a_Node000005"><a xlink:href="p__main_8f90.html#aeec10ee8e2940c953967da3e374e1579" target="_top" xlink:title="This program takes care of setting up the initial condition and grid data for the multicomponent flow...">
<polygon fill="white" stroke="#666666" points="53,-371.7 0,-371.7 0,-352.7 53,-352.7 53,-371.7"/>
<text text-anchor="middle" x="26.5" y="-359.7" font-family="Helvetica,sans-Serif" font-size="10.00">p_main</text>
</a>
</g>
</g>
<!-- Node4&#45;&gt;Node5 -->
<g id="edge4_Node000004_Node000005" class="edge">
<title>Node4&#45;&gt;Node5</title>
<g id="a_edge4_Node000004_Node000005"><a xlink:title=" ">
<path fill="none" stroke="#63b8ff" d="M78.56,-362.2C69.51,-362.2 60.73,-362.2 53.07,-362.2"/>
<polygon fill="#63b8ff" stroke="#63b8ff" points="78.83,-365.7 88.83,-362.2 78.83,-358.7 78.83,-365.7"/>
</a>
</g>
</g>
<!-- Node6&#45;&gt;Node3 -->
<g id="edge6_Node000006_Node000003" class="edge">
<title>Node6&#45;&gt;Node3</title>
<g id="a_edge6_Node000006_Node000003"><a xlink:title=" ">
<path fill="none" stroke="#63b8ff" d="M399.06,-1279.33C396.49,-1277.17 394.11,-1274.8 392,-1272.2 320.86,-1184.7 303.02,-806.46 300.01,-726.21"/>
<polygon fill="#63b8ff" stroke="#63b8ff" points="397.11,-1282.24 407.29,-1285.18 401.17,-1276.53 397.11,-1282.24"/>
</a>
</g>
</g>
<!-- Node7&#45;&gt;Node3 -->
<g id="edge8_Node000007_Node000003" class="edge">
<title>Node7&#45;&gt;Node3</title>
<g id="a_edge8_Node000007_Node000003"><a xlink:title=" ">
<path fill="none" stroke="#63b8ff" d="M393.24,-1214.64C392.82,-1214.17 392.4,-1213.69 392,-1213.2 327.96,-1135.93 304.83,-802.42 300.35,-726.59"/>
<polygon fill="#63b8ff" stroke="#63b8ff" points="391.04,-1217.38 400.76,-1221.59 395.79,-1212.23 391.04,-1217.38"/>
</a>
</g>
</g>
<!-- Node8&#45;&gt;Node3 -->
<g id="edge10_Node000008_Node000003" class="edge">
<title>Node8&#45;&gt;Node3</title>
<g id="a_edge10_Node000008_Node000003"><a xlink:title=" ">
<path fill="none" stroke="#63b8ff" d="M398.56,-1160.69C396.19,-1158.71 393.99,-1156.55 392,-1154.2 334.93,-1086.97 306.82,-796.97 300.76,-726.62"/>
<polygon fill="#63b8ff" stroke="#63b8ff" points="396.97,-1163.85 407.15,-1166.78 401.02,-1158.14 396.97,-1163.85"/>
</a>
</g>
</g>
<!-- Node9&#45;&gt;Node3 -->
<g id="edge12_Node000009_Node000003" class="edge">
<title>Node9&#45;&gt;Node3</title>
<g id="a_edge12_Node000009_Node000003"><a xlink:title=" ">
<path fill="none" stroke="#63b8ff" d="M400.32,-1102.94C397.3,-1100.62 394.49,-1098.05 392,-1095.2 341.75,-1037.81 308.97,-790.11 301.26,-726.26"/>
<polygon fill="#63b8ff" stroke="#63b8ff" points="398.49,-1105.92 408.77,-1108.5 402.34,-1100.08 398.49,-1105.92"/>
</a>
</g>
</g>
<!-- Node10&#45;&gt;Node3 -->
<g id="edge14_Node000010_Node000003" class="edge">
<title>Node10&#45;&gt;Node3</title>
<g id="a_edge14_Node000010_Node000003"><a xlink:title=" ">
<path fill="none" stroke="#63b8ff" d="M400.46,-1043.81C397.4,-1041.53 394.55,-1039 392,-1036.2 306.99,-943.03 299.53,-777.12 299.32,-726.37"/>
<polygon fill="#63b8ff" stroke="#63b8ff" points="398.68,-1046.83 408.97,-1049.32 402.48,-1040.95 398.68,-1046.83"/>
</a>
</g>
</g>
<!-- Node11&#45;&gt;Node3 -->
<g id="edge16_Node000011_Node000003" class="edge">
<title>Node11&#45;&gt;Node3</title>
<g id="a_edge16_Node000011_Node000003"><a xlink:title=" ">
<path fill="none" stroke="#63b8ff" d="M401.78,-985.44C398.25,-982.99 394.95,-980.25 392,-977.2 320.48,-903.19 304.04,-771.05 300.45,-726.41"/>
<polygon fill="#63b8ff" stroke="#63b8ff" points="400.02,-988.46 410.39,-990.66 403.65,-982.48 400.02,-988.46"/>
</a>
</g>
</g>
<!-- Node12&#45;&gt;Node3 -->
<g id="edge18_Node000012_Node000003" class="edge">
<title>Node12&#45;&gt;Node3</title>
<g id="a_edge18_Node000012_Node000003"><a xlink:title=" ">
<path fill="none" stroke="#63b8ff" d="M399,-924C396.53,-922.21 394.18,-920.28 392,-918.2 333.64,-862.76 309.49,-763.81 302.14,-726.23"/>
<polygon fill="#63b8ff" stroke="#63b8ff" points="397.48,-927.19 407.79,-929.61 401.24,-921.28 397.48,-927.19"/>
</a>
</g>
</g>
<!-- Node13&#45;&gt;Node3 -->
<g id="edge20_Node000013_Node000003" class="edge">
<title>Node13&#45;&gt;Node3</title>
<g id="a_edge20_Node000013_Node000003"><a xlink:title=" ">
<path fill="none" stroke="#63b8ff" d="M395.63,-862.03C394.39,-861.12 393.18,-860.18 392,-859.2 346.69,-821.76 316.93,-756.07 305.18,-726.45"/>
<polygon fill="#63b8ff" stroke="#63b8ff" points="393.95,-865.11 404.24,-867.64 397.78,-859.25 393.95,-865.11"/>
</a>
</g>
</g>
<!-- Node14&#45;&gt;Node3 -->
<g id="edge22_Node000014_Node000003" class="edge">
<title>Node14&#45;&gt;Node3</title>
<g id="a_edge22_Node000014_Node000003"><a xlink:title=" ">
<path fill="none" stroke="#63b8ff" d="M398.69,-804.2C396.4,-802.91 394.16,-801.58 392,-800.2 359.3,-779.36 328.32,-745.74 311.83,-726.33"/>
<polygon fill="#63b8ff" stroke="#63b8ff" points="397.27,-807.4 407.76,-808.9 400.49,-801.19 397.27,-807.4"/>
</a>
</g>
</g>
<!-- Node15&#45;&gt;Node3 -->
<g id="edge24_Node000015_Node000003" class="edge">
<title>Node15&#45;&gt;Node3</title>
<g id="a_edge24_Node000015_Node000003"><a xlink:title=" ">
<path fill="none" stroke="#63b8ff" d="M398.83,-746.19C379.69,-739.45 359.42,-732.31 342.22,-726.25"/>
<polygon fill="#63b8ff" stroke="#63b8ff" points="397.82,-749.55 408.42,-749.57 400.15,-742.95 397.82,-749.55"/>
</a>
</g>
</g>
<!-- Node16&#45;&gt;Node3 -->
<g id="edge26_Node000016_Node000003" class="edge">
<title>Node16&#45;&gt;Node3</title>
<g id="a_edge26_Node000016_Node000003"><a xlink:title=" ">
<path fill="none" stroke="#63b8ff" d="M394.05,-711.2C381.33,-711.2 368.27,-711.2 356.08,-711.2"/>
<polygon fill="#63b8ff" stroke="#63b8ff" points="394.15,-714.7 404.15,-711.2 394.15,-707.7 394.15,-714.7"/>
</a>
</g>
</g>
<!-- Node17&#45;&gt;Node3 -->
<g id="edge28_Node000017_Node000003" class="edge">
<title>Node17&#45;&gt;Node3</title>
<g id="a_edge28_Node000017_Node000003"><a xlink:title=" ">
<path fill="none" stroke="#63b8ff" d="M398.83,-676.22C379.69,-682.96 359.42,-690.1 342.22,-696.16"/>
<polygon fill="#63b8ff" stroke="#63b8ff" points="400.15,-679.46 408.42,-672.84 397.82,-672.86 400.15,-679.46"/>
</a>
</g>
</g>
<!-- Node18&#45;&gt;Node3 -->
<g id="edge30_Node000018_Node000003" class="edge">
<title>Node18&#45;&gt;Node3</title>
<g id="a_edge30_Node000018_Node000003"><a xlink:title=" ">
<path fill="none" stroke="#63b8ff" d="M400,-618.44C397.25,-619.97 394.57,-621.55 392,-623.2 359.73,-643.91 328.83,-676.82 312.19,-695.98"/>
<polygon fill="#63b8ff" stroke="#63b8ff" points="401.69,-621.51 408.96,-613.8 398.47,-615.29 401.69,-621.51"/>
</a>
</g>
</g>
<!-- Node19&#45;&gt;Node4 -->
<g id="edge32_Node000019_Node000004" class="edge">
<title>Node19&#45;&gt;Node4</title>
<g id="a_edge32_Node000019_Node000004"><a xlink:title=" ">
<path fill="none" stroke="#63b8ff" d="M231.35,-348.82C222.7,-350.21 213.89,-351.63 205.4,-352.99"/>
<polygon fill="#63b8ff" stroke="#63b8ff" points="232.09,-352.25 241.41,-347.21 230.98,-345.34 232.09,-352.25"/>
</a>
</g>
</g>
<!-- Node20&#45;&gt;Node3 -->
<g id="edge34_Node000020_Node000003" class="edge">
<title>Node20&#45;&gt;Node3</title>
<g id="a_edge34_Node000020_Node000003"><a xlink:title=" ">
<path fill="none" stroke="#63b8ff" d="M396.91,-560.42C395.22,-561.63 393.58,-562.89 392,-564.2 347.06,-601.66 317.11,-666.76 305.24,-696.1"/>
<polygon fill="#63b8ff" stroke="#63b8ff" points="399.2,-563.11 405.75,-554.78 395.44,-557.21 399.2,-563.11"/>
</a>
</g>
</g>
<!-- Node21&#45;&gt;Node3 -->
<g id="edge36_Node000021_Node000003" class="edge">
<title>Node21&#45;&gt;Node3</title>
<g id="a_edge36_Node000021_Node000003"><a xlink:title=" ">
<path fill="none" stroke="#63b8ff" d="M398.06,-500.04C395.93,-501.66 393.9,-503.38 392,-505.2 334.29,-560.57 309.82,-658.51 302.26,-696.01"/>
<polygon fill="#63b8ff" stroke="#63b8ff" points="400.31,-502.75 406.67,-494.28 396.42,-496.93 400.31,-502.75"/>
</a>
</g>
</g>
<!-- Node22&#45;&gt;Node3 -->
<g id="edge38_Node000022_Node000003" class="edge">
<title>Node22&#45;&gt;Node3</title>
<g id="a_edge38_Node000022_Node000003"><a xlink:title=" ">
<path fill="none" stroke="#63b8ff" d="M395.31,-443C394.17,-444.03 393.06,-445.1 392,-446.2 321.11,-520.34 304.26,-651.73 300.51,-696.09"/>
<polygon fill="#63b8ff" stroke="#63b8ff" points="397.63,-445.63 403.41,-436.74 393.35,-440.09 397.63,-445.63"/>
</a>
</g>
</g>
<!-- Node23&#45;&gt;Node3 -->
<g id="edge41_Node000023_Node000003" class="edge">
<title>Node23&#45;&gt;Node3</title>
<g id="a_edge41_Node000023_Node000003"><a xlink:title=" ">
<path fill="none" stroke="#63b8ff" d="M394.8,-384.31C393.83,-385.25 392.9,-386.21 392,-387.2 307.74,-480.57 299.77,-645.64 299.37,-696.12"/>
<polygon fill="#63b8ff" stroke="#63b8ff" points="397.29,-386.8 402.82,-377.77 392.86,-381.38 397.29,-386.8"/>
</a>
</g>
</g>
<!-- Node24&#45;&gt;Node3 -->
<g id="edge43_Node000024_Node000003" class="edge">
<title>Node24&#45;&gt;Node3</title>
<g id="a_edge43_Node000024_Node000003"><a xlink:title=" ">
<path fill="none" stroke="#63b8ff" d="M394.66,-325.35C393.74,-326.27 392.85,-327.22 392,-328.2 342.19,-385.74 309.09,-632.58 301.28,-696.2"/>
<polygon fill="#63b8ff" stroke="#63b8ff" points="396.94,-328 402.31,-318.87 392.42,-322.66 396.94,-328"/>
</a>
</g>
</g>
<!-- Node25&#45;&gt;Node3 -->
<g id="edge45_Node000025_Node000003" class="edge">
<title>Node25&#45;&gt;Node3</title>
<g id="a_edge45_Node000025_Node000003"><a xlink:title=" ">
<path fill="none" stroke="#63b8ff" d="M399.19,-262.11C396.58,-264.27 394.16,-266.63 392,-269.2 363.52,-303.13 313.23,-621.63 301.84,-695.82"/>
<polygon fill="#63b8ff" stroke="#63b8ff" points="401.36,-264.86 407.49,-256.22 397.31,-259.15 401.36,-264.86"/>
</a>
</g>
</g>
<!-- Node26&#45;&gt;Node3 -->
<g id="edge47_Node000026_Node000003" class="edge">
<title>Node26&#45;&gt;Node3</title>
<g id="a_edge47_Node000026_Node000003"><a xlink:title=" ">
<path fill="none" stroke="#63b8ff" d="M394.22,-207.68C393.45,-208.49 392.71,-209.34 392,-210.2 375.97,-229.77 314.73,-614.39 301.88,-696.05"/>
<polygon fill="#63b8ff" stroke="#63b8ff" points="396.63,-210.21 401.76,-200.94 391.97,-204.99 396.63,-210.21"/>
</a>
</g>
</g>
<!-- Node27&#45;&gt;Node3 -->
<g id="edge49_Node000027_Node000003" class="edge">
<title>Node27&#45;&gt;Node3</title>
<g id="a_edge49_Node000027_Node000003"><a xlink:title=" ">
<path fill="none" stroke="#63b8ff" d="M394.19,-148.66C393.43,-149.48 392.7,-150.33 392,-151.2 389.77,-153.97 316.41,-606.73 301.96,-696.02"/>
<polygon fill="#63b8ff" stroke="#63b8ff" points="396.61,-151.19 401.68,-141.88 391.92,-146 396.61,-151.19"/>
</a>
</g>
</g>
<!-- Node28&#45;&gt;Node3 -->
<g id="edge51_Node000028_Node000003" class="edge">
<title>Node28&#45;&gt;Node3</title>
<g id="a_edge51_Node000028_Node000003"><a xlink:title=" ">
<path fill="none" stroke="#63b8ff" d="M394.16,-89.63C393.41,-90.46 392.69,-91.32 392,-92.2 354.82,-139.97 364.84,-302.32 356,-362.2 336.91,-491.54 310.47,-647.26 302.13,-695.92"/>
<polygon fill="#63b8ff" stroke="#63b8ff" points="396.59,-92.14 401.55,-82.78 391.84,-87 396.59,-92.14"/>
</a>
</g>
</g>
</g>
</svg>
