<?xml version="1.0" encoding="UTF-8" standalone="no"?>
<!DOCTYPE svg PUBLIC "-//W3C//DTD SVG 1.1//EN"
 "http://www.w3.org/Graphics/SVG/1.1/DTD/svg11.dtd">
<!-- Generated by graphviz version 2.43.0 (0)
 -->
<!-- Title: s_swap Pages: 1 -->
<svg width="1016pt" height="104pt"
 viewBox="0.00 0.00 1016.00 104.00" xmlns="http://www.w3.org/2000/svg" xmlns:xlink="http://www.w3.org/1999/xlink">
<g id="graph0" class="graph" transform="scale(1 1) rotate(0) translate(4 100)">
<title>s_swap</title>
<!-- Node1 -->
<g id="Node000001" class="node">
<title>Node1</title>
<g id="a_Node000001"><a xlink:title="This procedure swaps two real numbers.">
<polygon fill="#999999" stroke="#666666" points="1008,-54 955,-54 955,-35 1008,-35 1008,-54"/>
<text text-anchor="middle" x="981.5" y="-42" font-family="Helvetica,sans-Serif" font-size="10.00">s_swap</text>
</a>
</g>
</g>
<!-- Node2 -->
<g id="Node000002" class="node">
<title>Node2</title>
<g id="a_Node000002"><a xlink:href="m__octree_8fpp_8f90.html#a2624e7caa267269669c96133c1fc6a51" target="_top" xlink:title="This procedure checks if a ray intersects a bounding box.">
<polygon fill="white" stroke="#666666" points="919,-54 795,-54 795,-35 919,-35 919,-54"/>
<text text-anchor="middle" x="857" y="-42" font-family="Helvetica,sans-Serif" font-size="10.00">f_ray_intersects_bbox</text>
</a>
</g>
</g>
<!-- Node1&#45;&gt;Node2 -->
<g id="edge1_Node000001_Node000002" class="edge">
<title>Node1&#45;&gt;Node2</title>
<g id="a_edge1_Node000001_Node000002"><a xlink:title=" ">
<path fill="none" stroke="#63b8ff" d="M944.74,-44.5C936.71,-44.5 927.97,-44.5 919.23,-44.5"/>
<polygon fill="#63b8ff" stroke="#63b8ff" points="944.82,-48 954.82,-44.5 944.82,-41 944.82,-48"/>
</a>
</g>
</g>
<!-- Node3 -->
<g id="Node000003" class="node">
<title>Node3</title>
<g id="a_Node000003"><a xlink:href="m__octree_8fpp_8f90.html#af8fa93568348fe58b9ab23f9ff1f7a8d" target="_top" xlink:title="This procedure, recursively, counts the number of triangles intersected by a ray in an octree.">
<polygon fill="white" stroke="#666666" points="742,-78 630,-78 630,-59 742,-59 742,-78"/>
<text text-anchor="middle" x="686" y="-66" font-family="Helvetica,sans-Serif" font-size="10.00">f_octree_count_hits</text>
</a>
</g>
</g>
<!-- Node2&#45;&gt;Node3 -->
<g id="edge2_Node000002_Node000003" class="edge">
<title>Node2&#45;&gt;Node3</title>
<g id="a_edge2_Node000002_Node000003"><a xlink:title=" ">
<path fill="none" stroke="#63b8ff" d="M784.71,-54.62C770.44,-56.65 755.65,-58.75 742.03,-60.69"/>
<polygon fill="#63b8ff" stroke="#63b8ff" points="785.58,-58.04 794.99,-53.16 784.59,-51.11 785.58,-58.04"/>
</a>
</g>
</g>
<!-- Node9 -->
<g id="Node000009" class="node">
<title>Node9</title>
<g id="a_Node000009"><a xlink:href="m__octree_8fpp_8f90.html#a53f1baf0e463d2c7cbcbd7282e690bc0" target="_top" xlink:title=" ">
<polygon fill="white" stroke="#666666" points="759,-36 613,-36 613,-17 759,-17 759,-36"/>
<text text-anchor="middle" x="686" y="-24" font-family="Helvetica,sans-Serif" font-size="10.00">f_triangle_intersects_bbox</text>
</a>
</g>
</g>
<!-- Node2&#45;&gt;Node9 -->
<g id="edge9_Node000002_Node000009" class="edge">
<title>Node2&#45;&gt;Node9</title>
<g id="a_edge9_Node000002_Node000009"><a xlink:title=" ">
<path fill="none" stroke="#63b8ff" d="M784.76,-36.91C776.29,-36.01 767.63,-35.09 759.15,-34.18"/>
<polygon fill="#63b8ff" stroke="#63b8ff" points="784.67,-40.42 794.99,-38 785.41,-33.46 784.67,-40.42"/>
</a>
</g>
</g>
<!-- Node3&#45;&gt;Node3 -->
<g id="edge3_Node000003_Node000003" class="edge">
<title>Node3&#45;&gt;Node3</title>
<g id="a_edge3_Node000003_Node000003"><a xlink:title=" ">
<path fill="none" stroke="#63b8ff" d="M714,-86.82C712.83,-92.01 703.5,-96 686,-96 659.34,-96 651.63,-86.73 662.88,-78.08"/>
<polygon fill="#63b8ff" stroke="#63b8ff" points="717.05,-85.11 709.12,-78.08 710.94,-88.52 717.05,-85.11"/>
</a>
</g>
</g>
<!-- Node4 -->
<g id="Node000004" class="node">
<title>Node4</title>
<g id="a_Node000004"><a xlink:href="m__octree_8fpp_8f90.html#aec91df60cfaaa2be6847cd240ea993d4" target="_top" xlink:title="This procedure, recursively, finds whether a point is inside an octree.">
<polygon fill="white" stroke="#666666" points="456,-78 352,-78 352,-59 456,-59 456,-78"/>
<text text-anchor="middle" x="404" y="-66" font-family="Helvetica,sans-Serif" font-size="10.00">f_octree_is_inside</text>
</a>
</g>
</g>
<!-- Node3&#45;&gt;Node4 -->
<g id="edge4_Node000003_Node000004" class="edge">
<title>Node3&#45;&gt;Node4</title>
<g id="a_edge4_Node000003_Node000004"><a xlink:title=" ">
<path fill="none" stroke="#63b8ff" d="M619.66,-68.5C569.91,-68.5 502.37,-68.5 456.43,-68.5"/>
<polygon fill="#63b8ff" stroke="#63b8ff" points="619.68,-72 629.68,-68.5 619.68,-65 619.68,-72"/>
</a>
</g>
</g>
<!-- Node5 -->
<g id="Node000005" class="node">
<title>Node5</title>
<g id="a_Node000005"><a xlink:href="m__patches_8fpp_8f90.html#ac7f748ab1e64c62eff219301807ba04e" target="_top" xlink:title="The STL patch is a 2/3D geometry that is imported from an STL file.">
<polygon fill="white" stroke="#666666" points="316,-54 258,-54 258,-35 316,-35 316,-54"/>
<text text-anchor="middle" x="287" y="-42" font-family="Helvetica,sans-Serif" font-size="10.00">s_model</text>
</a>
</g>
</g>
<!-- Node4&#45;&gt;Node5 -->
<g id="edge5_Node000004_Node000005" class="edge">
<title>Node4&#45;&gt;Node5</title>
<g id="a_edge5_Node000004_Node000005"><a xlink:title=" ">
<path fill="none" stroke="#63b8ff" d="M347.33,-56.88C336.48,-54.62 325.55,-52.34 316.08,-50.36"/>
<polygon fill="#63b8ff" stroke="#63b8ff" points="346.71,-60.33 357.22,-58.95 348.14,-53.48 346.71,-60.33"/>
</a>
</g>
</g>
<!-- Node6 -->
<g id="Node000006" class="node">
<title>Node6</title>
<g id="a_Node000006"><a xlink:href="m__patches_8fpp_8f90.html#a4a44c39189d79ff9c01b6372bf3dd856" target="_top" xlink:title=" ">
<polygon fill="white" stroke="#666666" points="222,-78 89,-78 89,-59 222,-59 222,-78"/>
<text text-anchor="middle" x="155.5" y="-66" font-family="Helvetica,sans-Serif" font-size="10.00">__m_patches_fpp_f90__</text>
</a>
</g>
</g>
<!-- Node5&#45;&gt;Node6 -->
<g id="edge6_Node000005_Node000006" class="edge">
<title>Node5&#45;&gt;Node6</title>
<g id="a_edge6_Node000005_Node000006"><a xlink:title=" ">
<path fill="none" stroke="#63b8ff" d="M247.8,-51.58C235.26,-53.9 221.12,-56.52 207.78,-59"/>
<polygon fill="#63b8ff" stroke="#63b8ff" points="248.71,-54.97 257.9,-49.71 247.43,-48.09 248.71,-54.97"/>
</a>
</g>
</g>
<!-- Node7 -->
<g id="Node000007" class="node">
<title>Node7</title>
<g id="a_Node000007"><a xlink:href="namespacem__initial__condition.html#aa74a70029e3ec0fd3225b369e7c5443e" target="_top" xlink:title="This subroutine peruses the patches and depending on the type of geometry associated with a particula...">
<polygon fill="white" stroke="#666666" points="210.5,-41 100.5,-41 100.5,0 210.5,0 210.5,-41"/>
<text text-anchor="start" x="108.5" y="-29" font-family="Helvetica,sans-Serif" font-size="10.00">m_initial_condition</text>
<text text-anchor="start" x="108.5" y="-18" font-family="Helvetica,sans-Serif" font-size="10.00">::s_generate_initial</text>
<text text-anchor="middle" x="155.5" y="-7" font-family="Helvetica,sans-Serif" font-size="10.00">_condition</text>
</a>
</g>
</g>
<!-- Node5&#45;&gt;Node7 -->
<g id="edge7_Node000005_Node000007" class="edge">
<title>Node5&#45;&gt;Node7</title>
<g id="a_edge7_Node000005_Node000007"><a xlink:title=" ">
<path fill="none" stroke="#63b8ff" d="M248.03,-37.46C236.33,-35.3 223.22,-32.86 210.65,-30.54"/>
<polygon fill="#63b8ff" stroke="#63b8ff" points="247.43,-40.91 257.9,-39.29 248.71,-34.03 247.43,-40.91"/>
</a>
</g>
</g>
<!-- Node8 -->
<g id="Node000008" class="node">
<title>Node8</title>
<g id="a_Node000008"><a xlink:href="p__main_8f90.html#aeec10ee8e2940c953967da3e374e1579" target="_top" xlink:title="This program takes care of setting up the initial condition and grid data for the multicomponent flow...">
<polygon fill="white" stroke="#666666" points="53,-30 0,-30 0,-11 53,-11 53,-30"/>
<text text-anchor="middle" x="26.5" y="-18" font-family="Helvetica,sans-Serif" font-size="10.00">p_main</text>
</a>
</g>
</g>
<!-- Node7&#45;&gt;Node8 -->
<g id="edge8_Node000007_Node000008" class="edge">
<title>Node7&#45;&gt;Node8</title>
<g id="a_edge8_Node000007_Node000008"><a xlink:title=" ">
<path fill="none" stroke="#63b8ff" d="M90.26,-20.5C77.14,-20.5 64.05,-20.5 53.26,-20.5"/>
<polygon fill="#63b8ff" stroke="#63b8ff" points="90.27,-24 100.27,-20.5 90.27,-17 90.27,-24"/>
</a>
</g>
</g>
<!-- Node10 -->
<g id="Node000010" class="node">
<title>Node10</title>
<g id="a_Node000010"><a xlink:href="m__octree_8fpp_8f90.html#a99b10f3dd836630734ae099443aae716" target="_top" xlink:title="This procedure builds, recursively, an octree from a set of triangles.">
<polygon fill="white" stroke="#666666" points="577,-27 492,-27 492,-8 577,-8 577,-27"/>
<text text-anchor="middle" x="534.5" y="-15" font-family="Helvetica,sans-Serif" font-size="10.00">s_octree_impl</text>
</a>
</g>
</g>
<!-- Node9&#45;&gt;Node10 -->
<g id="edge10_Node000009_Node000010" class="edge">
<title>Node9&#45;&gt;Node10</title>
<g id="a_edge10_Node000009_Node000010"><a xlink:title=" ">
<path fill="none" stroke="#63b8ff" d="M602.84,-21.55C593.98,-21.02 585.25,-20.5 577.18,-20.01"/>
<polygon fill="#63b8ff" stroke="#63b8ff" points="602.69,-25.05 612.88,-22.16 603.11,-18.06 602.69,-25.05"/>
</a>
</g>
</g>
<!-- Node10&#45;&gt;Node10 -->
<g id="edge13_Node000010_Node000010" class="edge">
<title>Node10&#45;&gt;Node10</title>
<g id="a_edge13_Node000010_Node000010"><a xlink:title=" ">
<path fill="none" stroke="#63b8ff" d="M558.68,-36.19C557.36,-41.2 549.3,-45 534.5,-45 511.39,-45 504.72,-35.73 514.46,-27.08"/>
<polygon fill="#63b8ff" stroke="#63b8ff" points="561.86,-34.73 554.54,-27.08 555.49,-37.63 561.86,-34.73"/>
</a>
</g>
</g>
<!-- Node11 -->
<g id="Node000011" class="node">
<title>Node11</title>
<g id="a_Node000011"><a xlink:href="m__octree_8fpp_8f90.html#a514b1883b7eb6555909ba441983ff214" target="_top" xlink:title="This procedure creates an octree from a mesh.">
<polygon fill="white" stroke="#666666" points="450,-36 358,-36 358,-17 450,-17 450,-36"/>
<text text-anchor="middle" x="404" y="-24" font-family="Helvetica,sans-Serif" font-size="10.00">f_octree_create</text>
</a>
</g>
</g>
<!-- Node10&#45;&gt;Node11 -->
<g id="edge11_Node000010_Node000011" class="edge">
<title>Node10&#45;&gt;Node11</title>
<g id="a_edge11_Node000010_Node000011"><a xlink:title=" ">
<path fill="none" stroke="#63b8ff" d="M481.54,-21.14C471.11,-21.87 460.23,-22.63 450.06,-23.34"/>
<polygon fill="#63b8ff" stroke="#63b8ff" points="482.05,-24.61 491.78,-20.42 481.56,-17.63 482.05,-24.61"/>
</a>
</g>
</g>
<!-- Node11&#45;&gt;Node5 -->
<g id="edge12_Node000011_Node000005" class="edge">
<title>Node11&#45;&gt;Node5</title>
<g id="a_edge12_Node000011_Node000005"><a xlink:title=" ">
<path fill="none" stroke="#63b8ff" d="M347.84,-35.13C336.83,-36.86 325.7,-38.6 316.08,-40.11"/>
<polygon fill="#63b8ff" stroke="#63b8ff" points="348.54,-38.57 357.88,-33.56 347.46,-31.65 348.54,-38.57"/>
</a>
</g>
</g>
</g>
</svg>
