<?xml version="1.0" encoding="UTF-8" standalone="no"?>
<!DOCTYPE svg PUBLIC "-//W3C//DTD SVG 1.1//EN"
 "http://www.w3.org/Graphics/SVG/1.1/DTD/svg11.dtd">
<!-- Generated by graphviz version 2.43.0 (0)
 -->
<!-- Title: f_model_read Pages: 1 -->
<svg width="592pt" height="179pt"
 viewBox="0.00 0.00 592.00 179.00" xmlns="http://www.w3.org/2000/svg" xmlns:xlink="http://www.w3.org/1999/xlink">
<g id="graph0" class="graph" transform="scale(1 1) rotate(0) translate(4 175)">
<title>f_model_read</title>
<!-- Node1 -->
<g id="Node000001" class="node">
<title>Node1</title>
<g id="a_Node000001"><a xlink:title="This procedure reads a mesh from a file.">
<polygon fill="#999999" stroke="#666666" points="83,-57 0,-57 0,-38 83,-38 83,-57"/>
<text text-anchor="middle" x="41.5" y="-45" font-family="Helvetica,sans-Serif" font-size="10.00">f_model_read</text>
</a>
</g>
</g>
<!-- Node2 -->
<g id="Node000002" class="node">
<title>Node2</title>
<g id="a_Node000002"><a xlink:href="m__mpi__common_8fpp_8f90.html#ad9e1329e498b65ad4256658675d6f797" target="_top" xlink:title="The subroutine terminates the MPI execution environment.">
<polygon fill="white" stroke="#666666" points="456.5,-95 379.5,-95 379.5,-76 456.5,-76 456.5,-95"/>
<text text-anchor="middle" x="418" y="-83" font-family="Helvetica,sans-Serif" font-size="10.00">s_mpi_abort</text>
</a>
</g>
</g>
<!-- Node1&#45;&gt;Node2 -->
<g id="edge1_Node000001_Node000002" class="edge">
<title>Node1&#45;&gt;Node2</title>
<g id="a_edge1_Node000001_Node000002"><a xlink:title=" ">
<path fill="none" stroke="#63b8ff" d="M83.06,-48.89C137.74,-51.1 238.04,-56.38 323,-67.5 338.13,-69.48 354.49,-72.36 369.27,-75.23"/>
<polygon fill="#63b8ff" stroke="#63b8ff" points="368.71,-78.69 379.2,-77.21 370.08,-71.82 368.71,-78.69"/>
</a>
</g>
</g>
<!-- Node3 -->
<g id="Node000003" class="node">
<title>Node3</title>
<g id="a_Node000003"><a xlink:href="m__model_8fpp_8f90.html#a0dd1f9451362655b63a76e288a3f92db" target="_top" xlink:title="This procedure reads an OBJ file.">
<polygon fill="white" stroke="#666666" points="306.5,-19 237.5,-19 237.5,0 306.5,0 306.5,-19"/>
<text text-anchor="middle" x="272" y="-7" font-family="Helvetica,sans-Serif" font-size="10.00">s_read_obj</text>
</a>
</g>
</g>
<!-- Node1&#45;&gt;Node3 -->
<g id="edge2_Node000001_Node000003" class="edge">
<title>Node1&#45;&gt;Node3</title>
<g id="a_edge2_Node000001_Node000003"><a xlink:title=" ">
<path fill="none" stroke="#63b8ff" d="M83.36,-39.83C94.88,-37.72 107.42,-35.47 119,-33.5 155.4,-27.3 196.8,-20.8 227.19,-16.13"/>
<polygon fill="#63b8ff" stroke="#63b8ff" points="228.1,-19.53 237.45,-14.56 227.04,-12.61 228.1,-19.53"/>
</a>
</g>
</g>
<!-- Node5 -->
<g id="Node000005" class="node">
<title>Node5</title>
<g id="a_Node000005"><a xlink:href="m__model_8fpp_8f90.html#a05ca98cfdb3880758fd6cb1538a9acd7" target="_top" xlink:title="This procedure reads an STL file.">
<polygon fill="white" stroke="#666666" points="185,-114 119,-114 119,-95 185,-95 185,-114"/>
<text text-anchor="middle" x="152" y="-102" font-family="Helvetica,sans-Serif" font-size="10.00">s_read_stl</text>
</a>
</g>
</g>
<!-- Node1&#45;&gt;Node5 -->
<g id="edge5_Node000001_Node000005" class="edge">
<title>Node1&#45;&gt;Node5</title>
<g id="a_edge5_Node000001_Node000005"><a xlink:title=" ">
<path fill="none" stroke="#63b8ff" d="M60.91,-57.17C78.16,-66.23 104.16,-79.89 123.8,-90.21"/>
<polygon fill="#63b8ff" stroke="#63b8ff" points="122.39,-93.42 132.87,-94.97 125.64,-87.22 122.39,-93.42"/>
</a>
</g>
</g>
<!-- Node3&#45;&gt;Node2 -->
<g id="edge4_Node000003_Node000002" class="edge">
<title>Node3&#45;&gt;Node2</title>
<g id="a_edge4_Node000003_Node000002"><a xlink:title=" ">
<path fill="none" stroke="#63b8ff" d="M293.57,-19.04C302.65,-23.34 313.42,-28.55 323,-33.5 346.39,-45.57 372.57,-60.14 391.34,-70.78"/>
<polygon fill="#63b8ff" stroke="#63b8ff" points="389.76,-73.91 400.18,-75.81 393.22,-67.82 389.76,-73.91"/>
</a>
</g>
</g>
<!-- Node4 -->
<g id="Node000004" class="node">
<title>Node4</title>
<g id="a_Node000004"><a xlink:href="m__model_8fpp_8f90.html#accb621c002a9aa99ef7acf0aa84c2b50" target="_top" xlink:title=" ">
<polygon fill="white" stroke="#666666" points="584,-133 513,-133 513,-114 584,-114 584,-133"/>
<text text-anchor="middle" x="548.5" y="-121" font-family="Helvetica,sans-Serif" font-size="10.00">f_read_line</text>
</a>
</g>
</g>
<!-- Node3&#45;&gt;Node4 -->
<g id="edge3_Node000003_Node000004" class="edge">
<title>Node3&#45;&gt;Node4</title>
<g id="a_edge3_Node000003_Node000004"><a xlink:title=" ">
<path fill="none" stroke="#63b8ff" d="M306.64,-14.86C348.36,-22.44 420.82,-38.67 477,-67.5 497.04,-77.78 516.85,-94.23 530.35,-106.65"/>
<polygon fill="#63b8ff" stroke="#63b8ff" points="528.21,-109.44 537.88,-113.77 533.02,-104.35 528.21,-109.44"/>
</a>
</g>
</g>
<!-- Node5&#45;&gt;Node2 -->
<g id="edge6_Node000005_Node000002" class="edge">
<title>Node5&#45;&gt;Node2</title>
<g id="a_edge6_Node000005_Node000002"><a xlink:title=" ">
<path fill="none" stroke="#63b8ff" d="M185.05,-106.4C219.3,-107.98 275.13,-109.29 323,-104.5 338.21,-102.98 354.6,-100.1 369.37,-97.04"/>
<polygon fill="#63b8ff" stroke="#63b8ff" points="370.26,-100.43 379.3,-94.91 368.79,-93.59 370.26,-100.43"/>
</a>
</g>
</g>
<!-- Node6 -->
<g id="Node000006" class="node">
<title>Node6</title>
<g id="a_Node000006"><a xlink:href="m__model_8fpp_8f90.html#a3583055a84e8cb3f9134c4229a1f57c6" target="_top" xlink:title="This procedure reads an ASCII STL file.">
<polygon fill="white" stroke="#666666" points="319,-171 225,-171 225,-152 319,-152 319,-171"/>
<text text-anchor="middle" x="272" y="-159" font-family="Helvetica,sans-Serif" font-size="10.00">s_read_stl_ascii</text>
</a>
</g>
</g>
<!-- Node5&#45;&gt;Node6 -->
<g id="edge7_Node000005_Node000006" class="edge">
<title>Node5&#45;&gt;Node6</title>
<g id="a_edge7_Node000005_Node000006"><a xlink:title=" ">
<path fill="none" stroke="#63b8ff" d="M172.63,-114.05C186.21,-120.65 204.69,-129.63 221,-137.5 227.8,-140.78 235.12,-144.3 242.01,-147.61"/>
<polygon fill="#63b8ff" stroke="#63b8ff" points="240.51,-150.77 251.04,-151.94 243.54,-144.46 240.51,-150.77"/>
</a>
</g>
</g>
<!-- Node8 -->
<g id="Node000008" class="node">
<title>Node8</title>
<g id="a_Node000008"><a xlink:href="m__model_8fpp_8f90.html#aec15eac4bb59ae7bdddfbfddf007d469" target="_top" xlink:title="This procedure reads a binary STL file.">
<polygon fill="white" stroke="#666666" points="323,-95 221,-95 221,-76 323,-76 323,-95"/>
<text text-anchor="middle" x="272" y="-83" font-family="Helvetica,sans-Serif" font-size="10.00">s_read_stl_binary</text>
</a>
</g>
</g>
<!-- Node5&#45;&gt;Node8 -->
<g id="edge12_Node000005_Node000008" class="edge">
<title>Node5&#45;&gt;Node8</title>
<g id="a_edge12_Node000005_Node000008"><a xlink:title=" ">
<path fill="none" stroke="#63b8ff" d="M185.24,-99.31C193.18,-98.03 201.93,-96.62 210.72,-95.21"/>
<polygon fill="#63b8ff" stroke="#63b8ff" points="211.3,-98.66 220.62,-93.61 210.19,-91.75 211.3,-98.66"/>
</a>
</g>
</g>
<!-- Node6&#45;&gt;Node2 -->
<g id="edge9_Node000006_Node000002" class="edge">
<title>Node6&#45;&gt;Node2</title>
<g id="a_edge9_Node000006_Node000002"><a xlink:title=" ">
<path fill="none" stroke="#63b8ff" d="M295.44,-151.97C304.26,-147.91 314.32,-142.87 323,-137.5 340.23,-126.83 341.48,-119.69 359,-109.5 365.61,-105.66 372.95,-102.12 380.12,-99.01"/>
<polygon fill="#63b8ff" stroke="#63b8ff" points="381.81,-102.1 389.72,-95.04 379.14,-95.63 381.81,-102.1"/>
</a>
</g>
</g>
<!-- Node6&#45;&gt;Node4 -->
<g id="edge8_Node000006_Node000004" class="edge">
<title>Node6&#45;&gt;Node4</title>
<g id="a_edge8_Node000006_Node000004"><a xlink:title=" ">
<path fill="none" stroke="#63b8ff" d="M314.4,-151.96C328.5,-148.94 344.38,-145.8 359,-143.5 407.88,-135.81 464.37,-130.25 502.67,-126.98"/>
<polygon fill="#63b8ff" stroke="#63b8ff" points="503.29,-130.44 512.97,-126.11 502.71,-123.46 503.29,-130.44"/>
</a>
</g>
</g>
<!-- Node7 -->
<g id="Node000007" class="node">
<title>Node7</title>
<g id="a_Node000007"><a xlink:href="m__model_8fpp_8f90.html#a0cc3e8189f9ed02b8f1bf84ba77e07c0" target="_top" xlink:title=" ">
<polygon fill="white" stroke="#666666" points="477,-171 359,-171 359,-152 477,-152 477,-171"/>
<text text-anchor="middle" x="418" y="-159" font-family="Helvetica,sans-Serif" font-size="10.00">s_skip_ignored_lines</text>
</a>
</g>
</g>
<!-- Node6&#45;&gt;Node7 -->
<g id="edge10_Node000006_Node000007" class="edge">
<title>Node6&#45;&gt;Node7</title>
<g id="a_edge10_Node000006_Node000007"><a xlink:title=" ">
<path fill="none" stroke="#63b8ff" d="M319.36,-161.5C328.69,-161.5 338.69,-161.5 348.6,-161.5"/>
<polygon fill="#63b8ff" stroke="#63b8ff" points="348.86,-165 358.86,-161.5 348.86,-158 348.86,-165"/>
</a>
</g>
</g>
<!-- Node7&#45;&gt;Node4 -->
<g id="edge11_Node000007_Node000004" class="edge">
<title>Node7&#45;&gt;Node4</title>
<g id="a_edge11_Node000007_Node000004"><a xlink:title=" ">
<path fill="none" stroke="#63b8ff" d="M451.43,-151.91C467.71,-147.1 487.64,-141.2 505.12,-136.03"/>
<polygon fill="#63b8ff" stroke="#63b8ff" points="506.49,-139.28 515.08,-133.09 504.5,-132.57 506.49,-139.28"/>
</a>
</g>
</g>
<!-- Node8&#45;&gt;Node2 -->
<g id="edge13_Node000008_Node000002" class="edge">
<title>Node8&#45;&gt;Node2</title>
<g id="a_edge13_Node000008_Node000002"><a xlink:title=" ">
<path fill="none" stroke="#63b8ff" d="M323.36,-85.5C338.11,-85.5 354.2,-85.5 368.81,-85.5"/>
<polygon fill="#63b8ff" stroke="#63b8ff" points="369.15,-89 379.15,-85.5 369.15,-82 369.15,-89"/>
</a>
</g>
</g>
</g>
</svg>
