<?xml version="1.0" encoding="UTF-8" standalone="no"?>
<!DOCTYPE svg PUBLIC "-//W3C//DTD SVG 1.1//EN"
 "http://www.w3.org/Graphics/SVG/1.1/DTD/svg11.dtd">
<!-- Generated by graphviz version 2.43.0 (0)
 -->
<!-- Title: s_initialize_mpi_data Pages: 1 -->
<svg width="735pt" height="124pt"
 viewBox="0.00 0.00 735.00 124.00" xmlns="http://www.w3.org/2000/svg" xmlns:xlink="http://www.w3.org/1999/xlink">
<g id="graph0" class="graph" transform="scale(1 1) rotate(0) translate(4 120)">
<title>s_initialize_mpi_data</title>
<!-- Node1 -->
<g id="Node000001" class="node">
<title>Node1</title>
<g id="a_Node000001"><a xlink:title=" ">
<polygon fill="#999999" stroke="#666666" points="727,-88.5 607,-88.5 607,-69.5 727,-69.5 727,-88.5"/>
<text text-anchor="middle" x="667" y="-76.5" font-family="Helvetica,sans-Serif" font-size="10.00">s_initialize_mpi_data</text>
</a>
</g>
</g>
<!-- Node2 -->
<g id="Node000002" class="node">
<title>Node2</title>
<g id="a_Node000002"><a xlink:href="namespacem__start__up.html#a25daee88d75c57908efa6e3e0516fb28" target="_top" xlink:title="The goal of this subroutine is to read in any preexisting initial condition data files so that they m...">
<polygon fill="white" stroke="#666666" points="392,-116 267,-116 267,-86 392,-86 392,-116"/>
<text text-anchor="start" x="275" y="-104" font-family="Helvetica,sans-Serif" font-size="10.00">m_start_up::s_read</text>
<text text-anchor="middle" x="329.5" y="-93" font-family="Helvetica,sans-Serif" font-size="10.00">_parallel_ic_data_files</text>
</a>
</g>
</g>
<!-- Node1&#45;&gt;Node2 -->
<g id="edge1_Node000001_Node000002" class="edge">
<title>Node1&#45;&gt;Node2</title>
<g id="a_edge1_Node000001_Node000002"><a xlink:title=" ">
<path fill="none" stroke="#63b8ff" d="M596.62,-83.55C536.42,-87.5 450.08,-93.16 392.24,-96.95"/>
<polygon fill="#63b8ff" stroke="#63b8ff" points="597.04,-87.03 606.79,-82.88 596.58,-80.04 597.04,-87.03"/>
</a>
</g>
</g>
<!-- Node5 -->
<g id="Node000005" class="node">
<title>Node5</title>
<g id="a_Node000005"><a xlink:href="namespacem__data__output.html#a12a171700eb3f8a63d17c01a0033cf39" target="_top" xlink:title="Writes grid and initial condition data files in parallel to the &quot;0&quot; time&#45;step directory in the local ...">
<polygon fill="white" stroke="#666666" points="571,-73 440,-73 440,-43 571,-43 571,-73"/>
<text text-anchor="start" x="448" y="-61" font-family="Helvetica,sans-Serif" font-size="10.00">m_data_output::s_write</text>
<text text-anchor="middle" x="505.5" y="-50" font-family="Helvetica,sans-Serif" font-size="10.00">_parallel_data_files</text>
</a>
</g>
</g>
<!-- Node1&#45;&gt;Node5 -->
<g id="edge4_Node000001_Node000005" class="edge">
<title>Node1&#45;&gt;Node5</title>
<g id="a_edge4_Node000001_Node000005"><a xlink:title=" ">
<path fill="none" stroke="#63b8ff" d="M596.42,-69.84C587.98,-68.73 579.39,-67.6 571.03,-66.5"/>
<polygon fill="#63b8ff" stroke="#63b8ff" points="596.24,-73.34 606.61,-71.18 597.15,-66.4 596.24,-73.34"/>
</a>
</g>
</g>
<!-- Node3 -->
<g id="Node000003" class="node">
<title>Node3</title>
<g id="a_Node000003"><a xlink:href="namespacem__start__up.html#a3745654d013067a8c4fd89f50598674c" target="_top" xlink:title=" ">
<polygon fill="white" stroke="#666666" points="219,-73 89,-73 89,-43 219,-43 219,-73"/>
<text text-anchor="start" x="97" y="-61" font-family="Helvetica,sans-Serif" font-size="10.00">m_start_up::s_initialize</text>
<text text-anchor="middle" x="154" y="-50" font-family="Helvetica,sans-Serif" font-size="10.00">_modules</text>
</a>
</g>
</g>
<!-- Node2&#45;&gt;Node3 -->
<g id="edge2_Node000002_Node000003" class="edge">
<title>Node2&#45;&gt;Node3</title>
<g id="a_edge2_Node000002_Node000003"><a xlink:title=" ">
<path fill="none" stroke="#63b8ff" d="M257.77,-83.47C243.8,-80.01 229.25,-76.4 215.65,-73.03"/>
<polygon fill="#63b8ff" stroke="#63b8ff" points="257.27,-86.95 267.82,-85.96 258.95,-80.16 257.27,-86.95"/>
</a>
</g>
</g>
<!-- Node4 -->
<g id="Node000004" class="node">
<title>Node4</title>
<g id="a_Node000004"><a xlink:href="p__main_8f90.html#aeec10ee8e2940c953967da3e374e1579" target="_top" xlink:title="This program takes care of setting up the initial condition and grid data for the multicomponent flow...">
<polygon fill="white" stroke="#666666" points="53,-67.5 0,-67.5 0,-48.5 53,-48.5 53,-67.5"/>
<text text-anchor="middle" x="26.5" y="-55.5" font-family="Helvetica,sans-Serif" font-size="10.00">p_main</text>
</a>
</g>
</g>
<!-- Node3&#45;&gt;Node4 -->
<g id="edge3_Node000003_Node000004" class="edge">
<title>Node3&#45;&gt;Node4</title>
<g id="a_edge3_Node000003_Node000004"><a xlink:title=" ">
<path fill="none" stroke="#63b8ff" d="M78.74,-58C69.58,-58 60.76,-58 53.09,-58"/>
<polygon fill="#63b8ff" stroke="#63b8ff" points="78.78,-61.5 88.78,-58 78.78,-54.5 78.78,-61.5"/>
</a>
</g>
</g>
<!-- Node5&#45;&gt;Node3 -->
<g id="edge7_Node000005_Node000003" class="edge">
<title>Node5&#45;&gt;Node3</title>
<g id="a_edge7_Node000005_Node000003"><a xlink:title=" ">
<path fill="none" stroke="#63b8ff" d="M429.78,-58C367.13,-58 278.61,-58 219.13,-58"/>
<polygon fill="#63b8ff" stroke="#63b8ff" points="429.99,-61.5 439.99,-58 429.99,-54.5 429.99,-61.5"/>
</a>
</g>
</g>
<!-- Node6 -->
<g id="Node000006" class="node">
<title>Node6</title>
<g id="a_Node000006"><a xlink:href="namespacem__data__output.html#ab65b312ef83adb104cafafada9c998b6" target="_top" xlink:title="Computation of parameters, allocation procedures, and/or any other tasks needed to properly setup the...">
<polygon fill="white" stroke="#666666" points="404,-30 255,-30 255,0 404,0 404,-30"/>
<text text-anchor="start" x="263" y="-18" font-family="Helvetica,sans-Serif" font-size="10.00">m_data_output::s_initialize</text>
<text text-anchor="middle" x="329.5" y="-7" font-family="Helvetica,sans-Serif" font-size="10.00">_data_output_module</text>
</a>
</g>
</g>
<!-- Node5&#45;&gt;Node6 -->
<g id="edge5_Node000005_Node000006" class="edge">
<title>Node5&#45;&gt;Node6</title>
<g id="a_edge5_Node000005_Node000006"><a xlink:title=" ">
<path fill="none" stroke="#63b8ff" d="M433.56,-40.47C419.55,-37.01 404.96,-33.4 391.32,-30.03"/>
<polygon fill="#63b8ff" stroke="#63b8ff" points="433.1,-43.96 443.64,-42.96 434.77,-37.16 433.1,-43.96"/>
</a>
</g>
</g>
<!-- Node6&#45;&gt;Node3 -->
<g id="edge6_Node000006_Node000003" class="edge">
<title>Node6&#45;&gt;Node3</title>
<g id="a_edge6_Node000006_Node000003"><a xlink:title=" ">
<path fill="none" stroke="#63b8ff" d="M257.77,-32.53C243.8,-35.99 229.25,-39.6 215.65,-42.97"/>
<polygon fill="#63b8ff" stroke="#63b8ff" points="258.95,-35.84 267.82,-30.04 257.27,-29.05 258.95,-35.84"/>
</a>
</g>
</g>
</g>
</svg>
