<?xml version="1.0" encoding="UTF-8" standalone="no"?>
<!DOCTYPE svg PUBLIC "-//W3C//DTD SVG 1.1//EN"
 "http://www.w3.org/Graphics/SVG/1.1/DTD/svg11.dtd">
<!-- Generated by graphviz version 2.43.0 (0)
 -->
<!-- Title: s_mpi_reduce_min Pages: 1 -->
<!--zoomable 167 -->

<svg id="main" version="1.1" xmlns="http://www.w3.org/2000/svg" xmlns:xlink="http://www.w3.org/1999/xlink" xml:space="preserve" onload="init(evt)">
<style type="text/css"><![CDATA[
.node, .edge {opacity: 0.7;}
.node.selected, .edge.selected {opacity: 1;}
.edge:hover path { stroke: red; }
.edge:hover polygon { stroke: red; fill: red; }
]]></style>

<defs>
  <circle id="rim" cx="0" cy="0" r="7"/>
  <circle id="rim2" cx="0" cy="0" r="3.5"/>
  <g id="zoomPlus">
    <use xlink:href="#rim" fill="#404040"><set attributeName="fill" to="#808080" begin="zoomplus.mouseover" end="zoomplus.mouseout"/></use>
    <path d="M-4,0h8M0,-4v8" fill="none" stroke="white" stroke-width="1.5" pointer-events="none"/>
  </g>
  <g id="zoomMin">
    <use xlink:href="#rim" fill="#404040"><set attributeName="fill" to="#808080" begin="zoomminus.mouseover" end="zoomminus.mouseout"/></use>
    <path d="M-4,0h8" fill="none" stroke="white" stroke-width="1.5" pointer-events="none"/>
  </g>
  <g id="arrowUp" transform="translate(30 24)">
    <use xlink:href="#rim"/>
    <path pointer-events="none" fill="none" stroke="white" stroke-width="1.5" d="M0,-3.0v7 M-2.5,-0.5L0,-3.0L2.5,-0.5"/>
  </g>
  <g id="arrowRight" transform="rotate(90) translate(36 -43)">
    <use xlink:href="#rim"/>
    <path pointer-events="none" fill="none" stroke="white" stroke-width="1.5" d="M0,-3.0v7 M-2.5,-0.5L0,-3.0L2.5,-0.5"/>
  </g>
  <g id="arrowDown" transform="rotate(180) translate(-30 -48)">
    <use xlink:href="#rim"/>
    <path pointer-events="none" fill="none" stroke="white" stroke-width="1.5" d="M0,-3.0v7 M-2.5,-0.5L0,-3.0L2.5,-0.5"/>
  </g>
  <g id="arrowLeft" transform="rotate(270) translate(-36 17)">
    <use xlink:href="#rim"/>
    <path pointer-events="none" fill="none" stroke="white" stroke-width="1.5" d="M0,-3.0v7 M-2.5,-0.5L0,-3.0L2.5,-0.5"/>
  </g>
  <g id="resetDef">
    <use xlink:href="#rim2" fill="#404040"><set attributeName="fill" to="#808080" begin="reset.mouseover" end="reset.mouseout"/></use>
  </g>
</defs>
<script type="application/ecmascript">
var viewWidth = 703;
var viewHeight = 167;
var sectionId = 'dynsection-6';
</script>
<script type="application/ecmascript" xlink:href="svg.min.js"/>
<svg id="graph" class="graph">
<g id="viewport">
<title>s_mpi_reduce_min</title>
<!-- Node1 -->
<g id="Node000001" class="node">
<title>Node1</title>
<g id="a_Node000001"><a xlink:title="The following subroutine takes the inputted variable and determines its minimum value on the entire c...">
<polygon fill="#999999" stroke="#666666" points="695,-67.5 587,-67.5 587,-48.5 695,-48.5 695,-67.5"/>
<text text-anchor="middle" x="641" y="-55.5" font-family="Helvetica,sans-Serif" font-size="10.00">s_mpi_reduce_min</text>
</a>
</g>
</g>
<!-- Node2 -->
<g id="Node000002" class="node">
<title>Node2</title>
<g id="a_Node000002"><a xlink:href="namespacem__grid.html#a8b6cf6f41e6f75092930f43a4309c3a9" target="_top" xlink:title="The following subroutine generates either a uniform or non&#45;uniform rectilinear grid in serial,...">
<polygon fill="white" stroke="#666666" points="543.5,-116 433.5,-116 433.5,-86 543.5,-86 543.5,-116"/>
<text text-anchor="start" x="441.5" y="-104" font-family="Helvetica,sans-Serif" font-size="10.00">m_grid::s_generate</text>
<text text-anchor="middle" x="488.5" y="-93" font-family="Helvetica,sans-Serif" font-size="10.00">_serial_grid</text>
</a>
</g>
</g>
<!-- Node1&#45;&gt;Node2 -->
<g id="edge1_Node000001_Node000002" class="edge">
<title>Node1&#45;&gt;Node2</title>
<g id="a_edge1_Node000001_Node000002"><a xlink:title=" ">
<path fill="none" stroke="#63b8ff" d="M596.88,-70.32C579.78,-75.21 559.95,-80.87 542.02,-85.99"/>
<polygon fill="#63b8ff" stroke="#63b8ff" points="597.95,-73.66 606.6,-67.54 596.02,-66.93 597.95,-73.66"/>
</a>
</g>
</g>
<!-- Node6 -->
<g id="Node000006" class="node">
<title>Node6</title>
<g id="a_Node000006"><a xlink:href="namespacem__start__up.html#ac1c3187de246cbfb9c6b3751e90b9426" target="_top" xlink:title="Cell&#45;boundary data are checked for consistency by looking at the (non&#45;)uniform cell&#45;width distributio...">
<polygon fill="white" stroke="#666666" points="390,-73 255,-73 255,-43 390,-43 390,-73"/>
<text text-anchor="start" x="263" y="-61" font-family="Helvetica,sans-Serif" font-size="10.00">m_start_up::s_read</text>
<text text-anchor="middle" x="322.5" y="-50" font-family="Helvetica,sans-Serif" font-size="10.00">_parallel_grid_data_files</text>
</a>
</g>
</g>
<!-- Node1&#45;&gt;Node6 -->
<g id="edge6_Node000001_Node000006" class="edge">
<title>Node1&#45;&gt;Node6</title>
<g id="a_edge6_Node000001_Node000006"><a xlink:title=" ">
<path fill="none" stroke="#63b8ff" d="M576.53,-58C522.52,-58 445.2,-58 390.27,-58"/>
<polygon fill="#63b8ff" stroke="#63b8ff" points="576.67,-61.5 586.67,-58 576.67,-54.5 576.67,-61.5"/>
</a>
</g>
</g>
<!-- Node7 -->
<g id="Node000007" class="node">
<title>Node7</title>
<g id="a_Node000007"><a xlink:href="namespacem__start__up.html#a396fa8a3563d4b04bb838a09c273bf61" target="_top" xlink:title="The goal of this subroutine is to read in any preexisting grid data as well as based on the imported ...">
<polygon fill="white" stroke="#666666" points="551,-30 426,-30 426,0 551,0 551,-30"/>
<text text-anchor="start" x="434" y="-18" font-family="Helvetica,sans-Serif" font-size="10.00">m_start_up::s_read</text>
<text text-anchor="middle" x="488.5" y="-7" font-family="Helvetica,sans-Serif" font-size="10.00">_serial_grid_data_files</text>
</a>
</g>
</g>
<!-- Node1&#45;&gt;Node7 -->
<g id="edge8_Node000001_Node000007" class="edge">
<title>Node1&#45;&gt;Node7</title>
<g id="a_edge8_Node000001_Node000007"><a xlink:title=" ">
<path fill="none" stroke="#63b8ff" d="M596.88,-45.68C579.78,-40.79 559.95,-35.13 542.02,-30.01"/>
<polygon fill="#63b8ff" stroke="#63b8ff" points="596.02,-49.07 606.6,-48.46 597.95,-42.34 596.02,-49.07"/>
</a>
</g>
</g>
<!-- Node3 -->
<g id="Node000003" class="node">
<title>Node3</title>
<g id="a_Node000003"><a xlink:href="namespacem__grid.html#a08c7d18352873ceab95c10629c1ce317" target="_top" xlink:title="Computation of parameters, allocation procedures, and/or any other tasks needed to properly setup the...">
<polygon fill="white" stroke="#666666" points="377,-159 268,-159 268,-129 377,-129 377,-159"/>
<text text-anchor="start" x="276" y="-147" font-family="Helvetica,sans-Serif" font-size="10.00">m_grid::s_initialize</text>
<text text-anchor="middle" x="322.5" y="-136" font-family="Helvetica,sans-Serif" font-size="10.00">_grid_module</text>
</a>
</g>
</g>
<!-- Node2&#45;&gt;Node3 -->
<g id="edge2_Node000002_Node000003" class="edge">
<title>Node2&#45;&gt;Node3</title>
<g id="a_edge2_Node000002_Node000003"><a xlink:title=" ">
<path fill="none" stroke="#63b8ff" d="M423.41,-117.8C408.07,-121.83 391.85,-126.08 377.04,-129.96"/>
<polygon fill="#63b8ff" stroke="#63b8ff" points="424.56,-121.12 433.35,-115.2 422.79,-114.35 424.56,-121.12"/>
</a>
</g>
</g>
<!-- Node4 -->
<g id="Node000004" class="node">
<title>Node4</title>
<g id="a_Node000004"><a xlink:href="namespacem__start__up.html#a3745654d013067a8c4fd89f50598674c" target="_top" xlink:title=" ">
<polygon fill="white" stroke="#666666" points="219,-94 89,-94 89,-64 219,-64 219,-94"/>
<text text-anchor="start" x="97" y="-82" font-family="Helvetica,sans-Serif" font-size="10.00">m_start_up::s_initialize</text>
<text text-anchor="middle" x="154" y="-71" font-family="Helvetica,sans-Serif" font-size="10.00">_modules</text>
</a>
</g>
</g>
<!-- Node2&#45;&gt;Node4 -->
<g id="edge5_Node000002_Node000004" class="edge">
<title>Node2&#45;&gt;Node4</title>
<g id="a_edge5_Node000002_Node000004"><a xlink:title=" ">
<path fill="none" stroke="#63b8ff" d="M423.06,-96.74C364.25,-92.84 277.8,-87.13 219.1,-83.24"/>
<polygon fill="#63b8ff" stroke="#63b8ff" points="423.13,-100.25 433.34,-97.42 423.59,-93.26 423.13,-100.25"/>
</a>
</g>
</g>
<!-- Node3&#45;&gt;Node4 -->
<g id="edge3_Node000003_Node000004" class="edge">
<title>Node3&#45;&gt;Node4</title>
<g id="a_edge3_Node000003_Node000004"><a xlink:title=" ">
<path fill="none" stroke="#63b8ff" d="M273.46,-125.25C248.14,-115.36 217.48,-103.39 193.7,-94.11"/>
<polygon fill="#63b8ff" stroke="#63b8ff" points="272.29,-128.55 282.88,-128.92 274.84,-122.03 272.29,-128.55"/>
</a>
</g>
</g>
<!-- Node5 -->
<g id="Node000005" class="node">
<title>Node5</title>
<g id="a_Node000005"><a xlink:href="p__main_8f90.html#aeec10ee8e2940c953967da3e374e1579" target="_top" xlink:title="This program takes care of setting up the initial condition and grid data for the multicomponent flow...">
<polygon fill="white" stroke="#666666" points="53,-88.5 0,-88.5 0,-69.5 53,-69.5 53,-88.5"/>
<text text-anchor="middle" x="26.5" y="-76.5" font-family="Helvetica,sans-Serif" font-size="10.00">p_main</text>
</a>
</g>
</g>
<!-- Node4&#45;&gt;Node5 -->
<g id="edge4_Node000004_Node000005" class="edge">
<title>Node4&#45;&gt;Node5</title>
<g id="a_edge4_Node000004_Node000005"><a xlink:title=" ">
<path fill="none" stroke="#63b8ff" d="M78.74,-79C69.58,-79 60.76,-79 53.09,-79"/>
<polygon fill="#63b8ff" stroke="#63b8ff" points="78.78,-82.5 88.78,-79 78.78,-75.5 78.78,-82.5"/>
</a>
</g>
</g>
<!-- Node6&#45;&gt;Node4 -->
<g id="edge7_Node000006_Node000004" class="edge">
<title>Node6&#45;&gt;Node4</title>
<g id="a_edge7_Node000006_Node000004"><a xlink:title=" ">
<path fill="none" stroke="#63b8ff" d="M244.73,-67.68C236.15,-68.77 227.47,-69.86 219.07,-70.92"/>
<polygon fill="#63b8ff" stroke="#63b8ff" points="245.25,-71.14 254.74,-66.42 244.38,-64.2 245.25,-71.14"/>
</a>
</g>
</g>
<!-- Node7&#45;&gt;Node4 -->
<g id="edge9_Node000007_Node000004" class="edge">
<title>Node7&#45;&gt;Node4</title>
<g id="a_edge9_Node000007_Node000004"><a xlink:title=" ">
<path fill="none" stroke="#63b8ff" d="M415.58,-14.6C369.1,-15.86 307.69,-20.42 255,-34 229.01,-40.7 201.31,-53.67 181.67,-63.97"/>
<polygon fill="#63b8ff" stroke="#63b8ff" points="415.94,-18.09 425.85,-14.36 415.78,-11.09 415.94,-18.09"/>
</a>
</g>
</g>
</g>
</svg>

<g id="navigator" transform="translate(0 0)" fill="#404254">
  <rect fill="#f2f5e9" fill-opacity="0.5" stroke="#606060" stroke-width=".5" x="0" y="0" width="60" height="60"/>
  <use id="zoomplus" xlink:href="#zoomPlus" x="17" y="9" onmousedown="handleZoom(evt,'in')"/>
  <use id="zoomminus" xlink:href="#zoomMin" x="42" y="9" onmousedown="handleZoom(evt,'out')"/>
  <use id="reset" xlink:href="#resetDef" x="30" y="36" onmousedown="handleReset()"/>
   <use id="arrowup" xlink:href="#arrowUp" x="0" y="0" onmousedown="handlePan(0,-1)"/>
  <use id="arrowright" xlink:href="#arrowRight" x="0" y="0" onmousedown="handlePan(1,0)"/>
  <use id="arrowdown" xlink:href="#arrowDown" x="0" y="0" onmousedown="handlePan(0,1)"/>
  <use id="arrowleft" xlink:href="#arrowLeft" x="0" y="0" onmousedown="handlePan(-1,0)"/>
</g>
<svg viewBox="0 0 15 15" width="100%" height="30px" preserveAspectRatio="xMaxYMin meet">
 <g id="arrow_out" transform="scale(0.3 0.3)">
  <a xlink:href="m__mpi__common_8fpp_8f90_a69c6a0b8d191bf31b9831c7f39206fe4_icgraph_org.svg" target="_base">
   <rect id="button" ry="5" rx="5" y="6" x="6" height="38" width="38"
        fill="#f2f5e9" fill-opacity="0.5" stroke="#606060" stroke-width="1.0"/>
   <path id="arrow"
     d="M 11.500037,31.436501 C 11.940474,20.09759 22.043105,11.32322 32.158766,21.979434 L 37.068811,17.246167 C 37.068811,17.246167 37.088388,32 37.088388,32 L 22.160133,31.978069 C 22.160133,31.978069 26.997745,27.140456 26.997745,27.140456 C 18.528582,18.264221 13.291696,25.230495 11.500037,31.436501 z"
     style="fill:#404040;"/>
  </a>
 </g>
</svg>

<style type='text/css'>
<![CDATA[
[data-mouse-over-selected='false'] { opacity: 0.7; }
[data-mouse-over-selected='true']  { opacity: 1.0; }
]]>
</style>
<script type="application/ecmascript"><![CDATA[
document.addEventListener('DOMContentLoaded', (event) => {
  highlightEdges();
  highlightAdjacentNodes();
});
]]></script>
</svg>
