<?xml version="1.0" encoding="UTF-8" standalone="no"?>
<!DOCTYPE svg PUBLIC "-//W3C//DTD SVG 1.1//EN"
 "http://www.w3.org/Graphics/SVG/1.1/DTD/svg11.dtd">
<!-- Generated by graphviz version 2.43.0 (0)
 -->
<!-- Title: f_read_line Pages: 1 -->
<svg width="1154pt" height="103pt"
 viewBox="0.00 0.00 1154.00 103.00" xmlns="http://www.w3.org/2000/svg" xmlns:xlink="http://www.w3.org/1999/xlink">
<g id="graph0" class="graph" transform="scale(1 1) rotate(0) translate(4 99)">
<title>f_read_line</title>
<!-- Node1 -->
<g id="Node000001" class="node">
<title>Node1</title>
<g id="a_Node000001"><a xlink:title=" ">
<polygon fill="#999999" stroke="#666666" points="1146,-57 1075,-57 1075,-38 1146,-38 1146,-57"/>
<text text-anchor="middle" x="1110.5" y="-45" font-family="Helvetica,sans-Serif" font-size="10.00">f_read_line</text>
</a>
</g>
</g>
<!-- Node2 -->
<g id="Node000002" class="node">
<title>Node2</title>
<g id="a_Node000002"><a xlink:href="m__model_8fpp_8f90.html#a0dd1f9451362655b63a76e288a3f92db" target="_top" xlink:title="This procedure reads an OBJ file.">
<polygon fill="white" stroke="#666666" points="872.5,-95 803.5,-95 803.5,-76 872.5,-76 872.5,-95"/>
<text text-anchor="middle" x="838" y="-83" font-family="Helvetica,sans-Serif" font-size="10.00">s_read_obj</text>
</a>
</g>
</g>
<!-- Node1&#45;&gt;Node2 -->
<g id="edge1_Node000001_Node000002" class="edge">
<title>Node1&#45;&gt;Node2</title>
<g id="a_edge1_Node000001_Node000002"><a xlink:title=" ">
<path fill="none" stroke="#63b8ff" d="M1064.94,-56.88C1056.36,-58.54 1047.41,-60.16 1039,-61.5 980.8,-70.76 912.57,-78.22 872.73,-82.25"/>
<polygon fill="#63b8ff" stroke="#63b8ff" points="1065.68,-60.31 1074.81,-54.94 1064.32,-53.44 1065.68,-60.31"/>
</a>
</g>
</g>
<!-- Node10 -->
<g id="Node000010" class="node">
<title>Node10</title>
<g id="a_Node000010"><a xlink:href="m__model_8fpp_8f90.html#a3583055a84e8cb3f9134c4229a1f57c6" target="_top" xlink:title="This procedure reads an ASCII STL file.">
<polygon fill="white" stroke="#666666" points="885,-57 791,-57 791,-38 885,-38 885,-57"/>
<text text-anchor="middle" x="838" y="-45" font-family="Helvetica,sans-Serif" font-size="10.00">s_read_stl_ascii</text>
</a>
</g>
</g>
<!-- Node1&#45;&gt;Node10 -->
<g id="edge9_Node000001_Node000010" class="edge">
<title>Node1&#45;&gt;Node10</title>
<g id="a_edge9_Node000001_Node000010"><a xlink:title=" ">
<path fill="none" stroke="#63b8ff" d="M1064.85,-47.5C1015.17,-47.5 935.32,-47.5 885.08,-47.5"/>
<polygon fill="#63b8ff" stroke="#63b8ff" points="1064.97,-51 1074.97,-47.5 1064.97,-44 1064.97,-51"/>
</a>
</g>
</g>
<!-- Node12 -->
<g id="Node000012" class="node">
<title>Node12</title>
<g id="a_Node000012"><a xlink:href="m__model_8fpp_8f90.html#a0cc3e8189f9ed02b8f1bf84ba77e07c0" target="_top" xlink:title=" ">
<polygon fill="white" stroke="#666666" points="1039,-19 921,-19 921,0 1039,0 1039,-19"/>
<text text-anchor="middle" x="980" y="-7" font-family="Helvetica,sans-Serif" font-size="10.00">s_skip_ignored_lines</text>
</a>
</g>
</g>
<!-- Node1&#45;&gt;Node12 -->
<g id="edge12_Node000001_Node000012" class="edge">
<title>Node1&#45;&gt;Node12</title>
<g id="a_edge12_Node000001_Node000012"><a xlink:title=" ">
<path fill="none" stroke="#63b8ff" d="M1067.11,-34.96C1049.63,-29.8 1029.7,-23.9 1013.42,-19.09"/>
<polygon fill="#63b8ff" stroke="#63b8ff" points="1066.49,-38.43 1077.07,-37.91 1068.48,-31.72 1066.49,-38.43"/>
</a>
</g>
</g>
<!-- Node3 -->
<g id="Node000003" class="node">
<title>Node3</title>
<g id="a_Node000003"><a xlink:href="m__model_8fpp_8f90.html#a1b9b22c1f17d46b41f2d227e1636f3a5" target="_top" xlink:title="This procedure reads a mesh from a file.">
<polygon fill="white" stroke="#666666" points="653,-76 570,-76 570,-57 653,-57 653,-76"/>
<text text-anchor="middle" x="611.5" y="-64" font-family="Helvetica,sans-Serif" font-size="10.00">f_model_read</text>
</a>
</g>
</g>
<!-- Node2&#45;&gt;Node3 -->
<g id="edge2_Node000002_Node000003" class="edge">
<title>Node2&#45;&gt;Node3</title>
<g id="a_edge2_Node000002_Node000003"><a xlink:title=" ">
<path fill="none" stroke="#63b8ff" d="M793.26,-81.8C752.68,-78.36 692.77,-73.29 653.2,-69.94"/>
<polygon fill="#63b8ff" stroke="#63b8ff" points="793.13,-85.3 803.39,-82.66 793.72,-78.32 793.13,-85.3"/>
</a>
</g>
</g>
<!-- Node4 -->
<g id="Node000004" class="node">
<title>Node4</title>
<g id="a_Node000004"><a xlink:href="m__model_8fpp_8f90.html#aec55944fb8c1ba7a734931f79a5a7686" target="_top" xlink:title=" ">
<polygon fill="white" stroke="#666666" points="534,-95 409,-95 409,-76 534,-76 534,-95"/>
<text text-anchor="middle" x="471.5" y="-83" font-family="Helvetica,sans-Serif" font-size="10.00">__m_model_fpp_f90__</text>
</a>
</g>
</g>
<!-- Node3&#45;&gt;Node4 -->
<g id="edge3_Node000003_Node000004" class="edge">
<title>Node3&#45;&gt;Node4</title>
<g id="a_edge3_Node000003_Node000004"><a xlink:title=" ">
<path fill="none" stroke="#63b8ff" d="M559.85,-73.47C551.48,-74.63 542.71,-75.83 534.1,-77.02"/>
<polygon fill="#63b8ff" stroke="#63b8ff" points="560.41,-76.93 569.84,-72.1 559.46,-69.99 560.41,-76.93"/>
</a>
</g>
</g>
<!-- Node5 -->
<g id="Node000005" class="node">
<title>Node5</title>
<g id="a_Node000005"><a xlink:href="m__patches_8fpp_8f90.html#ac7f748ab1e64c62eff219301807ba04e" target="_top" xlink:title="The STL patch is a 2/3D geometry that is imported from an STL file.">
<polygon fill="white" stroke="#666666" points="500.5,-58 442.5,-58 442.5,-39 500.5,-39 500.5,-58"/>
<text text-anchor="middle" x="471.5" y="-46" font-family="Helvetica,sans-Serif" font-size="10.00">s_model</text>
</a>
</g>
</g>
<!-- Node3&#45;&gt;Node5 -->
<g id="edge4_Node000003_Node000005" class="edge">
<title>Node3&#45;&gt;Node5</title>
<g id="a_edge4_Node000003_Node000005"><a xlink:title=" ">
<path fill="none" stroke="#63b8ff" d="M559.65,-59.87C539.71,-57.27 517.6,-54.38 500.63,-52.17"/>
<polygon fill="#63b8ff" stroke="#63b8ff" points="559.47,-63.37 569.84,-61.2 560.38,-56.43 559.47,-63.37"/>
</a>
</g>
</g>
<!-- Node6 -->
<g id="Node000006" class="node">
<title>Node6</title>
<g id="a_Node000006"><a xlink:href="m__patches_8fpp_8f90.html#a4a44c39189d79ff9c01b6372bf3dd856" target="_top" xlink:title=" ">
<polygon fill="white" stroke="#666666" points="373,-82 240,-82 240,-63 373,-63 373,-82"/>
<text text-anchor="middle" x="306.5" y="-70" font-family="Helvetica,sans-Serif" font-size="10.00">__m_patches_fpp_f90__</text>
</a>
</g>
</g>
<!-- Node5&#45;&gt;Node6 -->
<g id="edge5_Node000005_Node000006" class="edge">
<title>Node5&#45;&gt;Node6</title>
<g id="a_edge5_Node000005_Node000006"><a xlink:title=" ">
<path fill="none" stroke="#63b8ff" d="M432.44,-54.1C414.56,-56.74 392.72,-59.95 372.34,-62.95"/>
<polygon fill="#63b8ff" stroke="#63b8ff" points="433.1,-57.55 442.48,-52.63 432.08,-50.62 433.1,-57.55"/>
</a>
</g>
</g>
<!-- Node7 -->
<g id="Node000007" class="node">
<title>Node7</title>
<g id="a_Node000007"><a xlink:href="namespacem__initial__condition.html#aa74a70029e3ec0fd3225b369e7c5443e" target="_top" xlink:title="This subroutine peruses the patches and depending on the type of geometry associated with a particula...">
<polygon fill="white" stroke="#666666" points="361.5,-45 251.5,-45 251.5,-4 361.5,-4 361.5,-45"/>
<text text-anchor="start" x="259.5" y="-33" font-family="Helvetica,sans-Serif" font-size="10.00">m_initial_condition</text>
<text text-anchor="start" x="259.5" y="-22" font-family="Helvetica,sans-Serif" font-size="10.00">::s_generate_initial</text>
<text text-anchor="middle" x="306.5" y="-11" font-family="Helvetica,sans-Serif" font-size="10.00">_condition</text>
</a>
</g>
</g>
<!-- Node5&#45;&gt;Node7 -->
<g id="edge6_Node000005_Node000007" class="edge">
<title>Node5&#45;&gt;Node7</title>
<g id="a_edge6_Node000005_Node000007"><a xlink:title=" ">
<path fill="none" stroke="#63b8ff" d="M432.34,-42.88C411.34,-39.79 384.93,-35.9 361.81,-32.5"/>
<polygon fill="#63b8ff" stroke="#63b8ff" points="432.08,-46.38 442.48,-44.37 433.1,-39.45 432.08,-46.38"/>
</a>
</g>
</g>
<!-- Node8 -->
<g id="Node000008" class="node">
<title>Node8</title>
<g id="a_Node000008"><a xlink:href="namespacem__start__up.html#abdd3c5dcf76d06086edf11b2df325492" target="_top" xlink:title=" ">
<polygon fill="white" stroke="#666666" points="204,-39.5 89,-39.5 89,-9.5 204,-9.5 204,-39.5"/>
<text text-anchor="start" x="97" y="-27.5" font-family="Helvetica,sans-Serif" font-size="10.00">m_start_up::s_apply</text>
<text text-anchor="middle" x="146.5" y="-16.5" font-family="Helvetica,sans-Serif" font-size="10.00">_initial_condition</text>
</a>
</g>
</g>
<!-- Node7&#45;&gt;Node8 -->
<g id="edge7_Node000007_Node000008" class="edge">
<title>Node7&#45;&gt;Node8</title>
<g id="a_edge7_Node000007_Node000008"><a xlink:title=" ">
<path fill="none" stroke="#63b8ff" d="M241,-24.5C228.78,-24.5 216.08,-24.5 204.13,-24.5"/>
<polygon fill="#63b8ff" stroke="#63b8ff" points="241.13,-28 251.13,-24.5 241.13,-21 241.13,-28"/>
</a>
</g>
</g>
<!-- Node9 -->
<g id="Node000009" class="node">
<title>Node9</title>
<g id="a_Node000009"><a xlink:href="p__main_8f90.html#aeec10ee8e2940c953967da3e374e1579" target="_top" xlink:title="This program takes care of setting up the initial condition and grid data for the multicomponent flow...">
<polygon fill="white" stroke="#666666" points="53,-34 0,-34 0,-15 53,-15 53,-34"/>
<text text-anchor="middle" x="26.5" y="-22" font-family="Helvetica,sans-Serif" font-size="10.00">p_main</text>
</a>
</g>
</g>
<!-- Node8&#45;&gt;Node9 -->
<g id="edge8_Node000008_Node000009" class="edge">
<title>Node8&#45;&gt;Node9</title>
<g id="a_edge8_Node000008_Node000009"><a xlink:title=" ">
<path fill="none" stroke="#63b8ff" d="M78.65,-24.5C69.6,-24.5 60.81,-24.5 53.13,-24.5"/>
<polygon fill="#63b8ff" stroke="#63b8ff" points="78.92,-28 88.92,-24.5 78.92,-21 78.92,-28"/>
</a>
</g>
</g>
<!-- Node11 -->
<g id="Node000011" class="node">
<title>Node11</title>
<g id="a_Node000011"><a xlink:href="m__model_8fpp_8f90.html#a05ca98cfdb3880758fd6cb1538a9acd7" target="_top" xlink:title="This procedure reads an STL file.">
<polygon fill="white" stroke="#666666" points="755,-57 689,-57 689,-38 755,-38 755,-57"/>
<text text-anchor="middle" x="722" y="-45" font-family="Helvetica,sans-Serif" font-size="10.00">s_read_stl</text>
</a>
</g>
</g>
<!-- Node10&#45;&gt;Node11 -->
<g id="edge10_Node000010_Node000011" class="edge">
<title>Node10&#45;&gt;Node11</title>
<g id="a_edge10_Node000010_Node000011"><a xlink:title=" ">
<path fill="none" stroke="#63b8ff" d="M780.74,-47.5C771.97,-47.5 763.19,-47.5 755.21,-47.5"/>
<polygon fill="#63b8ff" stroke="#63b8ff" points="780.96,-51 790.96,-47.5 780.96,-44 780.96,-51"/>
</a>
</g>
</g>
<!-- Node11&#45;&gt;Node3 -->
<g id="edge11_Node000011_Node000003" class="edge">
<title>Node11&#45;&gt;Node3</title>
<g id="a_edge11_Node000011_Node000003"><a xlink:title=" ">
<path fill="none" stroke="#63b8ff" d="M678.78,-54.89C670.41,-56.36 661.63,-57.9 653.31,-59.35"/>
<polygon fill="#63b8ff" stroke="#63b8ff" points="679.49,-58.32 688.74,-53.15 678.29,-51.43 679.49,-58.32"/>
</a>
</g>
</g>
<!-- Node12&#45;&gt;Node10 -->
<g id="edge13_Node000012_Node000010" class="edge">
<title>Node12&#45;&gt;Node10</title>
<g id="a_edge13_Node000012_Node000010"><a xlink:title=" ">
<path fill="none" stroke="#63b8ff" d="M933.88,-21.75C914.59,-26.98 892.39,-33.01 874.32,-37.91"/>
<polygon fill="#63b8ff" stroke="#63b8ff" points="934.94,-25.09 943.67,-19.09 933.1,-18.33 934.94,-25.09"/>
</a>
</g>
</g>
</g>
</svg>
