<?xml version="1.0" encoding="UTF-8" standalone="no"?>
<!DOCTYPE svg PUBLIC "-//W3C//DTD SVG 1.1//EN"
 "http://www.w3.org/Graphics/SVG/1.1/DTD/svg11.dtd">
<!-- Generated by graphviz version 2.43.0 (0)
 -->
<!-- Title: s_mpi_reduce_min Pages: 1 -->
<svg width="542pt" height="172pt"
 viewBox="0.00 0.00 542.00 172.09" xmlns="http://www.w3.org/2000/svg" xmlns:xlink="http://www.w3.org/1999/xlink">
<g id="graph0" class="graph" transform="scale(1 1) rotate(0) translate(4 168.09)">
<title>s_mpi_reduce_min</title>
<!-- Node1 -->
<g id="Node000001" class="node">
<title>Node1</title>
<g id="a_Node000001"><a xlink:title="The following subroutine takes the inputted variable and determines its minimum value on the entire c...">
<polygon fill="#999999" stroke="#666666" points="534,-88.99 426,-88.99 426,-69.99 534,-69.99 534,-88.99"/>
<text text-anchor="middle" x="480" y="-76.99" font-family="Helvetica,sans-Serif" font-size="10.00">s_mpi_reduce_min</text>
</a>
</g>
</g>
<!-- Node2 -->
<g id="Node000002" class="node">
<title>Node2</title>
<g id="a_Node000002"><a xlink:href="namespacem__grid.html#a8b6cf6f41e6f75092930f43a4309c3a9" target="_top" xlink:title="The following subroutine generates either a uniform or non&#45;uniform rectilinear grid in serial,...">
<polygon fill="white" stroke="#666666" points="377.5,-142.49 267.5,-142.49 267.5,-112.49 377.5,-112.49 377.5,-142.49"/>
<text text-anchor="start" x="275.5" y="-130.49" font-family="Helvetica,sans-Serif" font-size="10.00">m_grid::s_generate</text>
<text text-anchor="middle" x="322.5" y="-119.49" font-family="Helvetica,sans-Serif" font-size="10.00">_serial_grid</text>
</a>
</g>
</g>
<!-- Node1&#45;&gt;Node2 -->
<g id="edge1_Node000001_Node000002" class="edge">
<title>Node1&#45;&gt;Node2</title>
<g id="a_edge1_Node000001_Node000002"><a xlink:title=" ">
<path fill="none" stroke="#63b8ff" d="M438.09,-92.12C417.92,-98.35 393.44,-105.9 372.3,-112.43"/>
<polygon fill="#63b8ff" stroke="#63b8ff" points="439.38,-95.38 447.91,-89.09 437.32,-88.69 439.38,-95.38"/>
</a>
</g>
</g>
<!-- Node5 -->
<g id="Node000005" class="node">
<title>Node5</title>
<g id="a_Node000005"><a xlink:href="namespacem__start__up.html#ac1c3187de246cbfb9c6b3751e90b9426" target="_top" xlink:title="Cell&#45;boundary data are checked for consistency by looking at the (non&#45;)uniform cell&#45;width distributio...">
<polygon fill="white" stroke="#666666" points="390,-94.49 255,-94.49 255,-64.49 390,-64.49 390,-94.49"/>
<text text-anchor="start" x="263" y="-82.49" font-family="Helvetica,sans-Serif" font-size="10.00">m_start_up::s_read</text>
<text text-anchor="middle" x="322.5" y="-71.49" font-family="Helvetica,sans-Serif" font-size="10.00">_parallel_grid_data_files</text>
</a>
</g>
</g>
<!-- Node1&#45;&gt;Node5 -->
<g id="edge5_Node000001_Node000005" class="edge">
<title>Node1&#45;&gt;Node5</title>
<g id="a_edge5_Node000001_Node000005"><a xlink:title=" ">
<path fill="none" stroke="#63b8ff" d="M415.75,-79.49C407.3,-79.49 398.6,-79.49 390.09,-79.49"/>
<polygon fill="#63b8ff" stroke="#63b8ff" points="415.92,-82.99 425.92,-79.49 415.92,-75.99 415.92,-82.99"/>
</a>
</g>
</g>
<!-- Node7 -->
<g id="Node000007" class="node">
<title>Node7</title>
<g id="a_Node000007"><a xlink:href="namespacem__start__up.html#a396fa8a3563d4b04bb838a09c273bf61" target="_top" xlink:title="The goal of this subroutine is to read in any preexisting grid data as well as based on the imported ...">
<polygon fill="white" stroke="#666666" points="385,-46.49 260,-46.49 260,-16.49 385,-16.49 385,-46.49"/>
<text text-anchor="start" x="268" y="-34.49" font-family="Helvetica,sans-Serif" font-size="10.00">m_start_up::s_read</text>
<text text-anchor="middle" x="322.5" y="-23.49" font-family="Helvetica,sans-Serif" font-size="10.00">_serial_grid_data_files</text>
</a>
</g>
</g>
<!-- Node1&#45;&gt;Node7 -->
<g id="edge9_Node000001_Node000007" class="edge">
<title>Node1&#45;&gt;Node7</title>
<g id="a_edge9_Node000001_Node000007"><a xlink:title=" ">
<path fill="none" stroke="#63b8ff" d="M438.09,-66.86C417.92,-60.64 393.44,-53.08 372.3,-46.55"/>
<polygon fill="#63b8ff" stroke="#63b8ff" points="437.32,-70.29 447.91,-69.89 439.38,-63.6 437.32,-70.29"/>
</a>
</g>
</g>
<!-- Node3 -->
<g id="Node000003" class="node">
<title>Node3</title>
<g id="a_Node000003"><a xlink:href="p__main_8f90.html#aeec10ee8e2940c953967da3e374e1579" target="_top" xlink:title="This program takes care of setting up the initial condition and grid data for the multicomponent flow...">
<polygon fill="white" stroke="#666666" points="53,-91.99 0,-91.99 0,-72.99 53,-72.99 53,-91.99"/>
<text text-anchor="middle" x="26.5" y="-79.99" font-family="Helvetica,sans-Serif" font-size="10.00">p_main</text>
</a>
</g>
</g>
<!-- Node2&#45;&gt;Node3 -->
<g id="edge2_Node000002_Node000003" class="edge">
<title>Node2&#45;&gt;Node3</title>
<g id="a_edge2_Node000002_Node000003"><a xlink:title=" ">
<path fill="none" stroke="#63b8ff" d="M272.54,-145.6C223.9,-160.57 148.21,-175.51 89,-149.49 62.11,-137.67 41.83,-107.66 32.75,-92.13"/>
<polygon fill="#63b8ff" stroke="#63b8ff" points="273.73,-148.89 282.2,-142.52 271.61,-142.23 273.73,-148.89"/>
</a>
</g>
</g>
<!-- Node4 -->
<g id="Node000004" class="node">
<title>Node4</title>
<g id="a_Node000004"><a xlink:href="namespacem__grid.html#a08c7d18352873ceab95c10629c1ce317" target="_top" xlink:title="Computation of parameters, allocation procedures, and/or any other tasks needed to properly setup the...">
<polygon fill="white" stroke="#666666" points="208.5,-140.49 99.5,-140.49 99.5,-110.49 208.5,-110.49 208.5,-140.49"/>
<text text-anchor="start" x="107.5" y="-128.49" font-family="Helvetica,sans-Serif" font-size="10.00">m_grid::s_initialize</text>
<text text-anchor="middle" x="154" y="-117.49" font-family="Helvetica,sans-Serif" font-size="10.00">_grid_module</text>
</a>
</g>
</g>
<!-- Node2&#45;&gt;Node4 -->
<g id="edge3_Node000002_Node000004" class="edge">
<title>Node2&#45;&gt;Node4</title>
<g id="a_edge3_Node000002_Node000004"><a xlink:title=" ">
<path fill="none" stroke="#63b8ff" d="M257.06,-126.72C241.01,-126.52 223.97,-126.32 208.5,-126.13"/>
<polygon fill="#63b8ff" stroke="#63b8ff" points="257.4,-130.22 267.44,-126.84 257.49,-123.22 257.4,-130.22"/>
</a>
</g>
</g>
<!-- Node4&#45;&gt;Node3 -->
<g id="edge4_Node000004_Node000003" class="edge">
<title>Node4&#45;&gt;Node3</title>
<g id="a_edge4_Node000004_Node000003"><a xlink:title=" ">
<path fill="none" stroke="#63b8ff" d="M99.3,-107.09C83.34,-101.62 66.57,-95.88 53.26,-91.32"/>
<polygon fill="#63b8ff" stroke="#63b8ff" points="98.51,-110.52 109.11,-110.45 100.78,-103.9 98.51,-110.52"/>
</a>
</g>
</g>
<!-- Node5&#45;&gt;Node3 -->
<g id="edge6_Node000005_Node000003" class="edge">
<title>Node5&#45;&gt;Node3</title>
<g id="a_edge6_Node000005_Node000003"><a xlink:title=" ">
<path fill="none" stroke="#63b8ff" d="M244.45,-80.28C181.24,-80.92 95.52,-81.8 53.25,-82.23"/>
<polygon fill="#63b8ff" stroke="#63b8ff" points="244.82,-83.77 254.79,-80.17 244.75,-76.77 244.82,-83.77"/>
</a>
</g>
</g>
<!-- Node6 -->
<g id="Node000006" class="node">
<title>Node6</title>
<g id="a_Node000006"><a xlink:href="namespacem__start__up.html#a37202711d89d04cd18f08170ba608aa1" target="_top" xlink:title=" ">
<polygon fill="white" stroke="#666666" points="219,-54.49 89,-54.49 89,-24.49 219,-24.49 219,-54.49"/>
<text text-anchor="start" x="97" y="-42.49" font-family="Helvetica,sans-Serif" font-size="10.00">m_start_up::s_initialize</text>
<text text-anchor="middle" x="154" y="-31.49" font-family="Helvetica,sans-Serif" font-size="10.00">_start_up_module</text>
</a>
</g>
</g>
<!-- Node5&#45;&gt;Node6 -->
<g id="edge7_Node000005_Node000006" class="edge">
<title>Node5&#45;&gt;Node6</title>
<g id="a_edge7_Node000005_Node000006"><a xlink:title=" ">
<path fill="none" stroke="#63b8ff" d="M249.06,-62.09C238.56,-59.57 227.83,-56.99 217.55,-54.52"/>
<polygon fill="#63b8ff" stroke="#63b8ff" points="248.49,-65.55 259.03,-64.48 250.12,-58.74 248.49,-65.55"/>
</a>
</g>
</g>
<!-- Node6&#45;&gt;Node3 -->
<g id="edge8_Node000006_Node000003" class="edge">
<title>Node6&#45;&gt;Node3</title>
<g id="a_edge8_Node000006_Node000003"><a xlink:title=" ">
<path fill="none" stroke="#63b8ff" d="M99.3,-57.89C83.34,-63.36 66.57,-69.1 53.26,-73.67"/>
<polygon fill="#63b8ff" stroke="#63b8ff" points="100.78,-61.08 109.11,-54.53 98.51,-54.46 100.78,-61.08"/>
</a>
</g>
</g>
<!-- Node7&#45;&gt;Node3 -->
<g id="edge10_Node000007_Node000003" class="edge">
<title>Node7&#45;&gt;Node3</title>
<g id="a_edge10_Node000007_Node000003"><a xlink:title=" ">
<path fill="none" stroke="#63b8ff" d="M266.81,-13.81C218.06,-1.22 145.83,9.49 89,-15.49 62.11,-27.31 41.83,-57.32 32.75,-72.85"/>
<polygon fill="#63b8ff" stroke="#63b8ff" points="265.97,-17.21 276.54,-16.43 267.79,-10.45 265.97,-17.21"/>
</a>
</g>
</g>
<!-- Node7&#45;&gt;Node6 -->
<g id="edge11_Node000007_Node000006" class="edge">
<title>Node7&#45;&gt;Node6</title>
<g id="a_edge11_Node000007_Node000006"><a xlink:title=" ">
<path fill="none" stroke="#63b8ff" d="M249.84,-34.93C239.61,-35.43 229.14,-35.93 219.06,-36.41"/>
<polygon fill="#63b8ff" stroke="#63b8ff" points="250.15,-38.42 259.97,-34.45 249.82,-31.43 250.15,-38.42"/>
</a>
</g>
</g>
</g>
</svg>
