<?xml version="1.0" encoding="UTF-8" standalone="no"?>
<!DOCTYPE svg PUBLIC "-//W3C//DTD SVG 1.1//EN"
 "http://www.w3.org/Graphics/SVG/1.1/DTD/svg11.dtd">
<!-- Generated by graphviz version 2.43.0 (0)
 -->
<!-- Title: s_octree_impl Pages: 1 -->
<svg width="524pt" height="45pt"
 viewBox="0.00 0.00 524.00 45.00" xmlns="http://www.w3.org/2000/svg" xmlns:xlink="http://www.w3.org/1999/xlink">
<g id="graph0" class="graph" transform="scale(1 1) rotate(0) translate(4 41)">
<title>s_octree_impl</title>
<!-- Node1 -->
<g id="Node000001" class="node">
<title>Node1</title>
<g id="a_Node000001"><a xlink:title="This procedure builds, recursively, an octree from a set of triangles.">
<polygon fill="#999999" stroke="#666666" points="85,-19 0,-19 0,0 85,0 85,-19"/>
<text text-anchor="middle" x="42.5" y="-7" font-family="Helvetica,sans-Serif" font-size="10.00">s_octree_impl</text>
</a>
</g>
</g>
<!-- Node1&#45;&gt;Node1 -->
<g id="edge4_Node000001_Node000001" class="edge">
<title>Node1&#45;&gt;Node1</title>
<g id="a_edge4_Node000001_Node000001"><a xlink:title=" ">
<path fill="none" stroke="#63b8ff" d="M19.38,-19.08C8.13,-27.73 15.84,-37 42.5,-37 60,-37 69.33,-33.01 70.5,-27.82"/>
<polygon fill="#63b8ff" stroke="#63b8ff" points="73.55,-26.11 65.62,-19.08 67.44,-29.52 73.55,-26.11"/>
</a>
</g>
</g>
<!-- Node2 -->
<g id="Node000002" class="node">
<title>Node2</title>
<g id="a_Node000002"><a xlink:href="m__octree_8fpp_8f90.html#a53f1baf0e463d2c7cbcbd7282e690bc0" target="_top" xlink:title=" ">
<polygon fill="white" stroke="#666666" points="267,-19 121,-19 121,0 267,0 267,-19"/>
<text text-anchor="middle" x="194" y="-7" font-family="Helvetica,sans-Serif" font-size="10.00">f_triangle_intersects_bbox</text>
</a>
</g>
</g>
<!-- Node1&#45;&gt;Node2 -->
<g id="edge1_Node000001_Node000002" class="edge">
<title>Node1&#45;&gt;Node2</title>
<g id="a_edge1_Node000001_Node000002"><a xlink:title=" ">
<path fill="none" stroke="#63b8ff" d="M85.14,-9.5C93.24,-9.5 101.99,-9.5 110.88,-9.5"/>
<polygon fill="#63b8ff" stroke="#63b8ff" points="110.94,-13 120.94,-9.5 110.94,-6 110.94,-13"/>
</a>
</g>
</g>
<!-- Node3 -->
<g id="Node000003" class="node">
<title>Node3</title>
<g id="a_Node000003"><a xlink:href="m__octree_8fpp_8f90.html#a2624e7caa267269669c96133c1fc6a51" target="_top" xlink:title="This procedure checks if a ray intersects a bounding box.">
<polygon fill="white" stroke="#666666" points="427,-19 303,-19 303,0 427,0 427,-19"/>
<text text-anchor="middle" x="365" y="-7" font-family="Helvetica,sans-Serif" font-size="10.00">f_ray_intersects_bbox</text>
</a>
</g>
</g>
<!-- Node2&#45;&gt;Node3 -->
<g id="edge2_Node000002_Node000003" class="edge">
<title>Node2&#45;&gt;Node3</title>
<g id="a_edge2_Node000002_Node000003"><a xlink:title=" ">
<path fill="none" stroke="#63b8ff" d="M267.16,-9.5C275.64,-9.5 284.3,-9.5 292.77,-9.5"/>
<polygon fill="#63b8ff" stroke="#63b8ff" points="292.98,-13 302.98,-9.5 292.98,-6 292.98,-13"/>
</a>
</g>
</g>
<!-- Node4 -->
<g id="Node000004" class="node">
<title>Node4</title>
<g id="a_Node000004"><a xlink:href="m__helper_8fpp_8f90.html#af89217ee50179a901a5c9f8fd450cf59" target="_top" xlink:title="This procedure swaps two real numbers.">
<polygon fill="white" stroke="#666666" points="516,-19 463,-19 463,0 516,0 516,-19"/>
<text text-anchor="middle" x="489.5" y="-7" font-family="Helvetica,sans-Serif" font-size="10.00">s_swap</text>
</a>
</g>
</g>
<!-- Node3&#45;&gt;Node4 -->
<g id="edge3_Node000003_Node000004" class="edge">
<title>Node3&#45;&gt;Node4</title>
<g id="a_edge3_Node000003_Node000004"><a xlink:title=" ">
<path fill="none" stroke="#63b8ff" d="M427.25,-9.5C435.98,-9.5 444.72,-9.5 452.74,-9.5"/>
<polygon fill="#63b8ff" stroke="#63b8ff" points="452.82,-13 462.82,-9.5 452.82,-6 452.82,-13"/>
</a>
</g>
</g>
</g>
</svg>
