<?xml version="1.0" encoding="UTF-8" standalone="no"?>
<!DOCTYPE svg PUBLIC "-//W3C//DTD SVG 1.1//EN"
 "http://www.w3.org/Graphics/SVG/1.1/DTD/svg11.dtd">
<!-- Generated by graphviz version 2.43.0 (0)
 -->
<!-- Title: f_octree_create Pages: 1 -->
<svg width="653pt" height="82pt"
 viewBox="0.00 0.00 653.00 82.00" xmlns="http://www.w3.org/2000/svg" xmlns:xlink="http://www.w3.org/1999/xlink">
<g id="graph0" class="graph" transform="scale(1 1) rotate(0) translate(4 78)">
<title>f_octree_create</title>
<!-- Node1 -->
<g id="Node000001" class="node">
<title>Node1</title>
<g id="a_Node000001"><a xlink:title="This procedure creates an octree from a mesh.">
<polygon fill="#999999" stroke="#666666" points="92,-46 0,-46 0,-27 92,-27 92,-46"/>
<text text-anchor="middle" x="46" y="-34" font-family="Helvetica,sans-Serif" font-size="10.00">f_octree_create</text>
</a>
</g>
</g>
<!-- Node2 -->
<g id="Node000002" class="node">
<title>Node2</title>
<g id="a_Node000002"><a xlink:href="m__helper_8fpp_8f90.html#a88808ee0f14fe4e145a538646dc9ba73" target="_top" xlink:title="This procedure creates a bounding box for a model.">
<polygon fill="white" stroke="#666666" points="214,-74 128,-74 128,-55 214,-55 214,-74"/>
<text text-anchor="middle" x="171" y="-62" font-family="Helvetica,sans-Serif" font-size="10.00">f_create_bbox</text>
</a>
</g>
</g>
<!-- Node1&#45;&gt;Node2 -->
<g id="edge1_Node000001_Node000002" class="edge">
<title>Node1&#45;&gt;Node2</title>
<g id="a_edge1_Node000001_Node000002"><a xlink:title=" ">
<path fill="none" stroke="#63b8ff" d="M88.99,-46.06C98.39,-48.2 108.47,-50.49 118.21,-52.71"/>
<polygon fill="#63b8ff" stroke="#63b8ff" points="117.68,-56.18 128.2,-54.99 119.23,-49.35 117.68,-56.18"/>
</a>
</g>
</g>
<!-- Node3 -->
<g id="Node000003" class="node">
<title>Node3</title>
<g id="a_Node000003"><a xlink:href="m__octree_8fpp_8f90.html#a99b10f3dd836630734ae099443aae716" target="_top" xlink:title="This procedure builds, recursively, an octree from a set of triangles.">
<polygon fill="white" stroke="#666666" points="213.5,-19 128.5,-19 128.5,0 213.5,0 213.5,-19"/>
<text text-anchor="middle" x="171" y="-7" font-family="Helvetica,sans-Serif" font-size="10.00">s_octree_impl</text>
</a>
</g>
</g>
<!-- Node1&#45;&gt;Node3 -->
<g id="edge2_Node000001_Node000003" class="edge">
<title>Node1&#45;&gt;Node3</title>
<g id="a_edge2_Node000001_Node000003"><a xlink:title=" ">
<path fill="none" stroke="#63b8ff" d="M90.37,-26.98C99.41,-25 109.02,-22.89 118.33,-20.84"/>
<polygon fill="#63b8ff" stroke="#63b8ff" points="119.25,-24.22 128.27,-18.66 117.75,-17.39 119.25,-24.22"/>
</a>
</g>
</g>
<!-- Node3&#45;&gt;Node3 -->
<g id="edge6_Node000003_Node000003" class="edge">
<title>Node3&#45;&gt;Node3</title>
<g id="a_edge6_Node000003_Node000003"><a xlink:title=" ">
<path fill="none" stroke="#63b8ff" d="M151.89,-19.08C142.59,-27.73 148.96,-37 171,-37 184.77,-37 192.43,-33.38 193.96,-28.55"/>
<polygon fill="#63b8ff" stroke="#63b8ff" points="197.12,-27.03 190.11,-19.08 190.64,-29.66 197.12,-27.03"/>
</a>
</g>
</g>
<!-- Node4 -->
<g id="Node000004" class="node">
<title>Node4</title>
<g id="a_Node000004"><a xlink:href="m__octree_8fpp_8f90.html#a53f1baf0e463d2c7cbcbd7282e690bc0" target="_top" xlink:title=" ">
<polygon fill="white" stroke="#666666" points="396,-19 250,-19 250,0 396,0 396,-19"/>
<text text-anchor="middle" x="323" y="-7" font-family="Helvetica,sans-Serif" font-size="10.00">f_triangle_intersects_bbox</text>
</a>
</g>
</g>
<!-- Node3&#45;&gt;Node4 -->
<g id="edge3_Node000003_Node000004" class="edge">
<title>Node3&#45;&gt;Node4</title>
<g id="a_edge3_Node000003_Node000004"><a xlink:title=" ">
<path fill="none" stroke="#63b8ff" d="M213.78,-9.5C221.97,-9.5 230.82,-9.5 239.81,-9.5"/>
<polygon fill="#63b8ff" stroke="#63b8ff" points="239.99,-13 249.99,-9.5 239.99,-6 239.99,-13"/>
</a>
</g>
</g>
<!-- Node5 -->
<g id="Node000005" class="node">
<title>Node5</title>
<g id="a_Node000005"><a xlink:href="m__octree_8fpp_8f90.html#a2624e7caa267269669c96133c1fc6a51" target="_top" xlink:title="This procedure checks if a ray intersects a bounding box.">
<polygon fill="white" stroke="#666666" points="556,-19 432,-19 432,0 556,0 556,-19"/>
<text text-anchor="middle" x="494" y="-7" font-family="Helvetica,sans-Serif" font-size="10.00">f_ray_intersects_bbox</text>
</a>
</g>
</g>
<!-- Node4&#45;&gt;Node5 -->
<g id="edge4_Node000004_Node000005" class="edge">
<title>Node4&#45;&gt;Node5</title>
<g id="a_edge4_Node000004_Node000005"><a xlink:title=" ">
<path fill="none" stroke="#63b8ff" d="M396.16,-9.5C404.64,-9.5 413.3,-9.5 421.77,-9.5"/>
<polygon fill="#63b8ff" stroke="#63b8ff" points="421.98,-13 431.98,-9.5 421.98,-6 421.98,-13"/>
</a>
</g>
</g>
<!-- Node6 -->
<g id="Node000006" class="node">
<title>Node6</title>
<g id="a_Node000006"><a xlink:href="m__helper_8fpp_8f90.html#af89217ee50179a901a5c9f8fd450cf59" target="_top" xlink:title="This procedure swaps two real numbers.">
<polygon fill="white" stroke="#666666" points="645,-19 592,-19 592,0 645,0 645,-19"/>
<text text-anchor="middle" x="618.5" y="-7" font-family="Helvetica,sans-Serif" font-size="10.00">s_swap</text>
</a>
</g>
</g>
<!-- Node5&#45;&gt;Node6 -->
<g id="edge5_Node000005_Node000006" class="edge">
<title>Node5&#45;&gt;Node6</title>
<g id="a_edge5_Node000005_Node000006"><a xlink:title=" ">
<path fill="none" stroke="#63b8ff" d="M556.25,-9.5C564.98,-9.5 573.72,-9.5 581.74,-9.5"/>
<polygon fill="#63b8ff" stroke="#63b8ff" points="581.82,-13 591.82,-9.5 581.82,-6 581.82,-13"/>
</a>
</g>
</g>
</g>
</svg>
