<?xml version="1.0" encoding="UTF-8" standalone="no"?>
<!DOCTYPE svg PUBLIC "-//W3C//DTD SVG 1.1//EN"
 "http://www.w3.org/Graphics/SVG/1.1/DTD/svg11.dtd">
<!-- Generated by graphviz version 2.43.0 (0)
 -->
<!-- Title: s_3d_analytical Pages: 1 -->
<svg width="255pt" height="113pt"
 viewBox="0.00 0.00 255.00 112.50" xmlns="http://www.w3.org/2000/svg" xmlns:xlink="http://www.w3.org/1999/xlink">
<g id="graph0" class="graph" transform="scale(1 1) rotate(0) translate(4 108.5)">
<title>s_3d_analytical</title>
<!-- Node1 -->
<g id="Node000001" class="node">
<title>Node1</title>
<g id="a_Node000001"><a xlink:title="This patch assigns the primitive variables as analytical functions such that the code can be verified...">
<polygon fill="#999999" stroke="#666666" points="92,-56 0,-56 0,-37 92,-37 92,-56"/>
<text text-anchor="middle" x="46" y="-44" font-family="Helvetica,sans-Serif" font-size="10.00">s_3d_analytical</text>
</a>
</g>
</g>
<!-- Node2 -->
<g id="Node000002" class="node">
<title>Node2</title>
<g id="a_Node000002"><a xlink:href="m__patches_8fpp_8f90.html#a899dca857a7e7f2d7d8dbd4bbd92a5ed" target="_top" xlink:title=" ">
<polygon fill="white" stroke="#666666" points="247,-104.5 128,-104.5 128,-74.5 247,-74.5 247,-104.5"/>
<text text-anchor="start" x="136" y="-92.5" font-family="Helvetica,sans-Serif" font-size="10.00">s_convert_cylindrical</text>
<text text-anchor="middle" x="187.5" y="-81.5" font-family="Helvetica,sans-Serif" font-size="10.00">_to_cartesian_coord</text>
</a>
</g>
</g>
<!-- Node1&#45;&gt;Node2 -->
<g id="edge1_Node000001_Node000002" class="edge">
<title>Node1&#45;&gt;Node2</title>
<g id="a_edge1_Node000001_Node000002"><a xlink:title=" ">
<path fill="none" stroke="#63b8ff" d="M77.96,-56.04C92.65,-60.57 110.72,-66.14 127.86,-71.43"/>
<polygon fill="#63b8ff" stroke="#63b8ff" points="127.23,-74.89 137.82,-74.49 129.29,-68.2 127.23,-74.89"/>
</a>
</g>
</g>
<!-- Node3 -->
<g id="Node000003" class="node">
<title>Node3</title>
<g id="a_Node000003"><a xlink:href="m__helper_8fpp_8f90.html#a8a0505b2bd4f3d8cb2bf3ce16cfe01e3" target="_top" xlink:title=" ">
<polygon fill="white" stroke="#666666" points="224,-56 151,-56 151,-37 224,-37 224,-56"/>
<text text-anchor="middle" x="187.5" y="-44" font-family="Helvetica,sans-Serif" font-size="10.00">s_int_to_str</text>
</a>
</g>
</g>
<!-- Node1&#45;&gt;Node3 -->
<g id="edge2_Node000001_Node000003" class="edge">
<title>Node1&#45;&gt;Node3</title>
<g id="a_edge2_Node000001_Node000003"><a xlink:title=" ">
<path fill="none" stroke="#63b8ff" d="M92.29,-46.5C107.68,-46.5 124.88,-46.5 140.33,-46.5"/>
<polygon fill="#63b8ff" stroke="#63b8ff" points="140.7,-50 150.7,-46.5 140.7,-43 140.7,-50"/>
</a>
</g>
</g>
<!-- Node4 -->
<g id="Node000004" class="node">
<title>Node4</title>
<g id="a_Node000004"><a xlink:href="m__mpi__common_8fpp_8f90.html#ad9e1329e498b65ad4256658675d6f797" target="_top" xlink:title="The subroutine terminates the MPI execution environment.">
<polygon fill="white" stroke="#666666" points="226,-19 149,-19 149,0 226,0 226,-19"/>
<text text-anchor="middle" x="187.5" y="-7" font-family="Helvetica,sans-Serif" font-size="10.00">s_mpi_abort</text>
</a>
</g>
</g>
<!-- Node1&#45;&gt;Node4 -->
<g id="edge3_Node000001_Node000004" class="edge">
<title>Node1&#45;&gt;Node4</title>
<g id="a_edge3_Node000001_Node000004"><a xlink:title=" ">
<path fill="none" stroke="#63b8ff" d="M82.92,-36.97C100.44,-32.33 121.72,-26.68 140.42,-21.72"/>
<polygon fill="#63b8ff" stroke="#63b8ff" points="141.44,-25.07 150.21,-19.12 139.65,-18.31 141.44,-25.07"/>
</a>
</g>
</g>
</g>
</svg>
