<?xml version="1.0" encoding="UTF-8" standalone="no"?>
<!DOCTYPE svg PUBLIC "-//W3C//DTD SVG 1.1//EN"
 "http://www.w3.org/Graphics/SVG/1.1/DTD/svg11.dtd">
<!-- Generated by graphviz version 2.43.0 (0)
 -->
<!-- Title: s_spherical_harmonic Pages: 1 -->
<svg width="285pt" height="86pt"
 viewBox="0.00 0.00 285.00 86.00" xmlns="http://www.w3.org/2000/svg" xmlns:xlink="http://www.w3.org/1999/xlink">
<g id="graph0" class="graph" transform="scale(1 1) rotate(0) translate(4 82)">
<title>s_spherical_harmonic</title>
<!-- Node1 -->
<g id="Node000001" class="node">
<title>Node1</title>
<g id="a_Node000001"><a xlink:title="This patch generates the shape of the spherical harmonics as a perturbation to a perfect sphere.">
<polygon fill="#999999" stroke="#666666" points="122,-48.5 0,-48.5 0,-29.5 122,-29.5 122,-48.5"/>
<text text-anchor="middle" x="61" y="-36.5" font-family="Helvetica,sans-Serif" font-size="10.00">s_spherical_harmonic</text>
</a>
</g>
</g>
<!-- Node2 -->
<g id="Node000002" class="node">
<title>Node2</title>
<g id="a_Node000002"><a xlink:href="m__patches_8fpp_8f90.html#a899dca857a7e7f2d7d8dbd4bbd92a5ed" target="_top" xlink:title=" ">
<polygon fill="white" stroke="#666666" points="277,-78 158,-78 158,-48 277,-48 277,-78"/>
<text text-anchor="start" x="166" y="-66" font-family="Helvetica,sans-Serif" font-size="10.00">s_convert_cylindrical</text>
<text text-anchor="middle" x="217.5" y="-55" font-family="Helvetica,sans-Serif" font-size="10.00">_to_cartesian_coord</text>
</a>
</g>
</g>
<!-- Node1&#45;&gt;Node2 -->
<g id="edge1_Node000001_Node000002" class="edge">
<title>Node1&#45;&gt;Node2</title>
<g id="a_edge1_Node000001_Node000002"><a xlink:title=" ">
<path fill="none" stroke="#63b8ff" d="M122.18,-48.35C130.58,-49.65 139.27,-51 147.81,-52.33"/>
<polygon fill="#63b8ff" stroke="#63b8ff" points="147.34,-55.8 157.76,-53.87 148.41,-48.88 147.34,-55.8"/>
</a>
</g>
</g>
<!-- Node3 -->
<g id="Node000003" class="node">
<title>Node3</title>
<g id="a_Node000003"><a xlink:href="m__patches_8fpp_8f90.html#a07620469b61321f2795f545a9e98cd30" target="_top" xlink:title=" ">
<polygon fill="white" stroke="#666666" points="277,-30 158,-30 158,0 277,0 277,-30"/>
<text text-anchor="start" x="166" y="-18" font-family="Helvetica,sans-Serif" font-size="10.00">s_convert_cylindrical</text>
<text text-anchor="middle" x="217.5" y="-7" font-family="Helvetica,sans-Serif" font-size="10.00">_to_spherical_coord</text>
</a>
</g>
</g>
<!-- Node1&#45;&gt;Node3 -->
<g id="edge2_Node000001_Node000003" class="edge">
<title>Node1&#45;&gt;Node3</title>
<g id="a_edge2_Node000001_Node000003"><a xlink:title=" ">
<path fill="none" stroke="#63b8ff" d="M122.18,-29.65C130.58,-28.35 139.27,-27 147.81,-25.67"/>
<polygon fill="#63b8ff" stroke="#63b8ff" points="148.41,-29.12 157.76,-24.13 147.34,-22.2 148.41,-29.12"/>
</a>
</g>
</g>
</g>
</svg>
