<?xml version="1.0" encoding="UTF-8" standalone="no"?>
<!DOCTYPE svg PUBLIC "-//W3C//DTD SVG 1.1//EN"
 "http://www.w3.org/Graphics/SVG/1.1/DTD/svg11.dtd">
<!-- Generated by graphviz version 2.43.0 (0)
 -->
<!-- Title: s_cylinder Pages: 1 -->
<svg width="332pt" height="86pt"
 viewBox="0.00 0.00 332.00 86.00" xmlns="http://www.w3.org/2000/svg" xmlns:xlink="http://www.w3.org/1999/xlink">
<g id="graph0" class="graph" transform="scale(1 1) rotate(0) translate(4 82)">
<title>s_cylinder</title>
<!-- Node1 -->
<g id="Node000001" class="node">
<title>Node1</title>
<g id="a_Node000001"><a xlink:title="The cylindrical patch is a 3D geometry that may be used, for example, in setting up a cylindrical sol...">
<polygon fill="#999999" stroke="#666666" points="324,-54 258,-54 258,-35 324,-35 324,-54"/>
<text text-anchor="middle" x="291" y="-42" font-family="Helvetica,sans-Serif" font-size="10.00">s_cylinder</text>
</a>
</g>
</g>
<!-- Node2 -->
<g id="Node000002" class="node">
<title>Node2</title>
<g id="a_Node000002"><a xlink:href="m__patches_8fpp_8f90.html#a4a44c39189d79ff9c01b6372bf3dd856" target="_top" xlink:title=" ">
<polygon fill="white" stroke="#666666" points="222,-78 89,-78 89,-59 222,-59 222,-78"/>
<text text-anchor="middle" x="155.5" y="-66" font-family="Helvetica,sans-Serif" font-size="10.00">__m_patches_fpp_f90__</text>
</a>
</g>
</g>
<!-- Node1&#45;&gt;Node2 -->
<g id="edge1_Node000001_Node000002" class="edge">
<title>Node1&#45;&gt;Node2</title>
<g id="a_edge1_Node000001_Node000002"><a xlink:title=" ">
<path fill="none" stroke="#63b8ff" d="M247.78,-52.09C235.58,-54.28 222.11,-56.71 209.35,-59"/>
<polygon fill="#63b8ff" stroke="#63b8ff" points="248.46,-55.52 257.68,-50.31 247.22,-48.63 248.46,-55.52"/>
</a>
</g>
</g>
<!-- Node3 -->
<g id="Node000003" class="node">
<title>Node3</title>
<g id="a_Node000003"><a xlink:href="namespacem__initial__condition.html#aa74a70029e3ec0fd3225b369e7c5443e" target="_top" xlink:title="This subroutine peruses the patches and depending on the type of geometry associated with a particula...">
<polygon fill="white" stroke="#666666" points="210.5,-41 100.5,-41 100.5,0 210.5,0 210.5,-41"/>
<text text-anchor="start" x="108.5" y="-29" font-family="Helvetica,sans-Serif" font-size="10.00">m_initial_condition</text>
<text text-anchor="start" x="108.5" y="-18" font-family="Helvetica,sans-Serif" font-size="10.00">::s_generate_initial</text>
<text text-anchor="middle" x="155.5" y="-7" font-family="Helvetica,sans-Serif" font-size="10.00">_condition</text>
</a>
</g>
</g>
<!-- Node1&#45;&gt;Node3 -->
<g id="edge2_Node000001_Node000003" class="edge">
<title>Node1&#45;&gt;Node3</title>
<g id="a_edge2_Node000001_Node000003"><a xlink:title=" ">
<path fill="none" stroke="#63b8ff" d="M247.69,-36.89C235.93,-34.78 222.99,-32.45 210.65,-30.24"/>
<polygon fill="#63b8ff" stroke="#63b8ff" points="247.22,-40.37 257.68,-38.69 248.46,-33.48 247.22,-40.37"/>
</a>
</g>
</g>
<!-- Node4 -->
<g id="Node000004" class="node">
<title>Node4</title>
<g id="a_Node000004"><a xlink:href="p__main_8f90.html#aeec10ee8e2940c953967da3e374e1579" target="_top" xlink:title="This program takes care of setting up the initial condition and grid data for the multicomponent flow...">
<polygon fill="white" stroke="#666666" points="53,-30 0,-30 0,-11 53,-11 53,-30"/>
<text text-anchor="middle" x="26.5" y="-18" font-family="Helvetica,sans-Serif" font-size="10.00">p_main</text>
</a>
</g>
</g>
<!-- Node3&#45;&gt;Node4 -->
<g id="edge3_Node000003_Node000004" class="edge">
<title>Node3&#45;&gt;Node4</title>
<g id="a_edge3_Node000003_Node000004"><a xlink:title=" ">
<path fill="none" stroke="#63b8ff" d="M90.26,-20.5C77.14,-20.5 64.05,-20.5 53.26,-20.5"/>
<polygon fill="#63b8ff" stroke="#63b8ff" points="90.27,-24 100.27,-20.5 90.27,-17 90.27,-24"/>
</a>
</g>
</g>
</g>
</svg>
