<?xml version="1.0" encoding="UTF-8" standalone="no"?>
<!DOCTYPE svg PUBLIC "-//W3C//DTD SVG 1.1//EN"
 "http://www.w3.org/Graphics/SVG/1.1/DTD/svg11.dtd">
<!-- Generated by graphviz version 2.43.0 (0)
 -->
<!-- Title: s_model Pages: 1 -->
<svg width="826pt" height="441pt"
 viewBox="0.00 0.00 826.00 441.00" xmlns="http://www.w3.org/2000/svg" xmlns:xlink="http://www.w3.org/1999/xlink">
<g id="graph0" class="graph" transform="scale(1 1) rotate(0) translate(4 437)">
<title>s_model</title>
<!-- Node1 -->
<g id="Node000001" class="node">
<title>Node1</title>
<g id="a_Node000001"><a xlink:title="The STL patch is a 2/3D geometry that is imported from an STL file.">
<polygon fill="#999999" stroke="#666666" points="58,-241 0,-241 0,-222 58,-222 58,-241"/>
<text text-anchor="middle" x="29" y="-229" font-family="Helvetica,sans-Serif" font-size="10.00">s_model</text>
</a>
</g>
</g>
<!-- Node2 -->
<g id="Node000002" class="node">
<title>Node2</title>
<g id="a_Node000002"><a xlink:href="m__patches_8fpp_8f90.html#ab573d8ed768a86ac50b907f44bac14c0" target="_top" xlink:title=" ">
<polygon fill="white" stroke="#666666" points="215,-428 94,-428 94,-409 215,-409 215,-428"/>
<text text-anchor="middle" x="154.5" y="-416" font-family="Helvetica,sans-Serif" font-size="10.00">f_convert_cyl_to_cart</text>
</a>
</g>
</g>
<!-- Node1&#45;&gt;Node2 -->
<g id="edge1_Node000001_Node000002" class="edge">
<title>Node1&#45;&gt;Node2</title>
<g id="a_edge1_Node000001_Node000002"><a xlink:title=" ">
<path fill="none" stroke="#63b8ff" d="M31.1,-241C34.79,-268.52 49.07,-349.15 94,-394.5 97.87,-398.41 102.46,-401.7 107.35,-404.47"/>
<polygon fill="#63b8ff" stroke="#63b8ff" points="105.87,-407.64 116.38,-408.91 108.95,-401.36 105.87,-407.64"/>
</a>
</g>
</g>
<!-- Node3 -->
<g id="Node000003" class="node">
<title>Node3</title>
<g id="a_Node000003"><a xlink:href="m__helper_8fpp_8f90.html#a88808ee0f14fe4e145a538646dc9ba73" target="_top" xlink:title="This procedure creates a bounding box for a model.">
<polygon fill="white" stroke="#666666" points="353,-416 267,-416 267,-397 353,-397 353,-416"/>
<text text-anchor="middle" x="310" y="-404" font-family="Helvetica,sans-Serif" font-size="10.00">f_create_bbox</text>
</a>
</g>
</g>
<!-- Node1&#45;&gt;Node3 -->
<g id="edge2_Node000001_Node000003" class="edge">
<title>Node1&#45;&gt;Node3</title>
<g id="a_edge2_Node000001_Node000003"><a xlink:title=" ">
<path fill="none" stroke="#63b8ff" d="M31.76,-241.16C36.73,-265.54 53.25,-329.89 94,-361.5 118.96,-380.87 201.67,-394.01 256.93,-400.88"/>
<polygon fill="#63b8ff" stroke="#63b8ff" points="256.55,-404.36 266.9,-402.09 257.4,-397.41 256.55,-404.36"/>
</a>
</g>
</g>
<!-- Node4 -->
<g id="Node000004" class="node">
<title>Node4</title>
<g id="a_Node000004"><a xlink:href="m__helper_8fpp_8f90.html#aafb2d0e9e3e66d3f3714f0ad3349bc8f" target="_top" xlink:title="This procedure creates a transformation matrix.">
<polygon fill="white" stroke="#666666" points="209.5,-268.5 99.5,-268.5 99.5,-238.5 209.5,-238.5 209.5,-268.5"/>
<text text-anchor="start" x="107.5" y="-256.5" font-family="Helvetica,sans-Serif" font-size="10.00">f_create_transform</text>
<text text-anchor="middle" x="154.5" y="-245.5" font-family="Helvetica,sans-Serif" font-size="10.00">_matrix</text>
</a>
</g>
</g>
<!-- Node1&#45;&gt;Node4 -->
<g id="edge3_Node000001_Node000004" class="edge">
<title>Node1&#45;&gt;Node4</title>
<g id="a_edge3_Node000001_Node000004"><a xlink:title=" ">
<path fill="none" stroke="#63b8ff" d="M58.02,-236.49C67.4,-238.16 78.26,-240.1 89.24,-242.05"/>
<polygon fill="#63b8ff" stroke="#63b8ff" points="88.84,-245.54 99.3,-243.85 90.07,-238.65 88.84,-245.54"/>
</a>
</g>
</g>
<!-- Node5 -->
<g id="Node000005" class="node">
<title>Node5</title>
<g id="a_Node000005"><a xlink:href="m__model_8fpp_8f90.html#a1b9b22c1f17d46b41f2d227e1636f3a5" target="_top" xlink:title="This procedure reads a mesh from a file.">
<polygon fill="white" stroke="#666666" points="196,-220 113,-220 113,-201 196,-201 196,-220"/>
<text text-anchor="middle" x="154.5" y="-208" font-family="Helvetica,sans-Serif" font-size="10.00">f_model_read</text>
</a>
</g>
</g>
<!-- Node1&#45;&gt;Node5 -->
<g id="edge4_Node000001_Node000005" class="edge">
<title>Node1&#45;&gt;Node5</title>
<g id="a_edge4_Node000001_Node000005"><a xlink:title=" ">
<path fill="none" stroke="#63b8ff" d="M58.02,-226.73C71.33,-224.47 87.66,-221.7 103.02,-219.08"/>
<polygon fill="#63b8ff" stroke="#63b8ff" points="103.67,-222.52 112.94,-217.4 102.49,-215.62 103.67,-222.52"/>
</a>
</g>
</g>
<!-- Node13 -->
<g id="Node000013" class="node">
<title>Node13</title>
<g id="a_Node000013"><a xlink:href="m__octree_8fpp_8f90.html#a514b1883b7eb6555909ba441983ff214" target="_top" xlink:title="This procedure creates an octree from a mesh.">
<polygon fill="white" stroke="#666666" points="200.5,-352 108.5,-352 108.5,-333 200.5,-333 200.5,-352"/>
<text text-anchor="middle" x="154.5" y="-340" font-family="Helvetica,sans-Serif" font-size="10.00">f_octree_create</text>
</a>
</g>
</g>
<!-- Node1&#45;&gt;Node13 -->
<g id="edge18_Node000001_Node000013" class="edge">
<title>Node1&#45;&gt;Node13</title>
<g id="a_edge18_Node000001_Node000013"><a xlink:title=" ">
<path fill="none" stroke="#63b8ff" d="M35.14,-241.04C44.7,-258.04 66.76,-293.79 94,-315.5 100.5,-320.68 108.14,-325.1 115.75,-328.78"/>
<polygon fill="#63b8ff" stroke="#63b8ff" points="114.38,-332 124.94,-332.9 117.24,-325.61 114.38,-332"/>
</a>
</g>
</g>
<!-- Node18 -->
<g id="Node000018" class="node">
<title>Node18</title>
<g id="a_Node000018"><a xlink:href="m__octree_8fpp_8f90.html#a4af99bba59c39aed6f2eb2ba5c80cb35" target="_top" xlink:title="This procedure, recursively, finds whether a point is inside an octree.">
<polygon fill="white" stroke="#666666" points="206.5,-306 102.5,-306 102.5,-287 206.5,-287 206.5,-306"/>
<text text-anchor="middle" x="154.5" y="-294" font-family="Helvetica,sans-Serif" font-size="10.00">f_octree_is_inside</text>
</a>
</g>
</g>
<!-- Node1&#45;&gt;Node18 -->
<g id="edge25_Node000001_Node000018" class="edge">
<title>Node1&#45;&gt;Node18</title>
<g id="a_edge25_Node000001_Node000018"><a xlink:title=" ">
<path fill="none" stroke="#63b8ff" d="M41.09,-241.14C53.33,-251.37 73.95,-267.41 94,-277.5 98.31,-279.67 102.93,-281.66 107.61,-283.47"/>
<polygon fill="#63b8ff" stroke="#63b8ff" points="106.63,-286.84 117.22,-286.92 108.99,-280.25 106.63,-286.84"/>
</a>
</g>
</g>
<!-- Node22 -->
<g id="Node000022" class="node">
<title>Node22</title>
<g id="a_Node000022"><a xlink:href="m__model_8fpp_8f90.html#a4e5b0d533feecd52aec31ccffa94d0c5" target="_top" xlink:title="This procedure frees the memory allocated for an STL mesh.">
<polygon fill="white" stroke="#666666" points="196,-144 113,-144 113,-125 196,-125 196,-144"/>
<text text-anchor="middle" x="154.5" y="-132" font-family="Helvetica,sans-Serif" font-size="10.00">s_model_free</text>
</a>
</g>
</g>
<!-- Node1&#45;&gt;Node22 -->
<g id="edge31_Node000001_Node000022" class="edge">
<title>Node1&#45;&gt;Node22</title>
<g id="a_edge31_Node000001_Node000022"><a xlink:title=" ">
<path fill="none" stroke="#63b8ff" d="M36.34,-221.68C46.71,-206.31 68.71,-176.45 94,-158.5 99.68,-154.47 106.13,-150.98 112.63,-148"/>
<polygon fill="#63b8ff" stroke="#63b8ff" points="114.27,-151.11 122.13,-144.01 111.55,-144.66 114.27,-151.11"/>
</a>
</g>
</g>
<!-- Node23 -->
<g id="Node000023" class="node">
<title>Node23</title>
<g id="a_Node000023"><a xlink:href="m__model_8fpp_8f90.html#a6ab58ad9fd412fd5c45fee60db584a41" target="_top" xlink:title="This procedure writes a binary STL file.">
<polygon fill="white" stroke="#666666" points="354,-150 266,-150 266,-131 354,-131 354,-150"/>
<text text-anchor="middle" x="310" y="-138" font-family="Helvetica,sans-Serif" font-size="10.00">s_model_write</text>
</a>
</g>
</g>
<!-- Node1&#45;&gt;Node23 -->
<g id="edge32_Node000001_Node000023" class="edge">
<title>Node1&#45;&gt;Node23</title>
<g id="a_edge32_Node000001_Node000023"><a xlink:title=" ">
<path fill="none" stroke="#63b8ff" d="M43.08,-221.85C55.58,-213.04 75.24,-200.26 94,-192.5 147,-170.57 211.35,-156.53 255.75,-148.64"/>
<polygon fill="#63b8ff" stroke="#63b8ff" points="256.5,-152.06 265.75,-146.9 255.3,-145.16 256.5,-152.06"/>
</a>
</g>
</g>
<!-- Node26 -->
<g id="Node000026" class="node">
<title>Node26</title>
<g id="a_Node000026"><a xlink:href="m__octree_8fpp_8f90.html#aef61410b6740284758fcc4e70841d261" target="_top" xlink:title="This procedure frees the memory associated with an octree.">
<polygon fill="white" stroke="#666666" points="196,-89 113,-89 113,-70 196,-70 196,-89"/>
<text text-anchor="middle" x="154.5" y="-77" font-family="Helvetica,sans-Serif" font-size="10.00">s_octree_free</text>
</a>
</g>
</g>
<!-- Node1&#45;&gt;Node26 -->
<g id="edge38_Node000001_Node000026" class="edge">
<title>Node1&#45;&gt;Node26</title>
<g id="a_edge38_Node000001_Node000026"><a xlink:title=" ">
<path fill="none" stroke="#63b8ff" d="M33.44,-221.83C41.36,-200.65 62.64,-149.42 94,-116.5 102.5,-107.58 113.59,-99.92 123.89,-93.93"/>
<polygon fill="#63b8ff" stroke="#63b8ff" points="125.59,-96.99 132.66,-89.1 122.21,-90.86 125.59,-96.99"/>
</a>
</g>
</g>
<!-- Node27 -->
<g id="Node000027" class="node">
<title>Node27</title>
<g id="a_Node000027"><a xlink:href="m__helper_8fpp_8f90.html#a77ee798a317ff1eb8d3c50a7407010ba" target="_top" xlink:title="This procedure transforms a model by a matrix, one triangle at a time.">
<polygon fill="white" stroke="#666666" points="210,-47 99,-47 99,-28 210,-28 210,-47"/>
<text text-anchor="middle" x="154.5" y="-35" font-family="Helvetica,sans-Serif" font-size="10.00">s_transform_model</text>
</a>
</g>
</g>
<!-- Node1&#45;&gt;Node27 -->
<g id="edge40_Node000001_Node000027" class="edge">
<title>Node1&#45;&gt;Node27</title>
<g id="a_edge40_Node000001_Node000027"><a xlink:title=" ">
<path fill="none" stroke="#63b8ff" d="M30.88,-221.91C33.99,-193.38 46.96,-108.05 94,-60.5 97.42,-57.04 101.42,-54.09 105.7,-51.58"/>
<polygon fill="#63b8ff" stroke="#63b8ff" points="107.42,-54.63 114.78,-47.01 104.27,-48.38 107.42,-54.63"/>
</a>
</g>
</g>
<!-- Node6 -->
<g id="Node000006" class="node">
<title>Node6</title>
<g id="a_Node000006"><a xlink:href="m__mpi__common_8fpp_8f90.html#ad9e1329e498b65ad4256658675d6f797" target="_top" xlink:title="The subroutine terminates the MPI execution environment.">
<polygon fill="white" stroke="#666666" points="687.5,-188 610.5,-188 610.5,-169 687.5,-169 687.5,-188"/>
<text text-anchor="middle" x="649" y="-176" font-family="Helvetica,sans-Serif" font-size="10.00">s_mpi_abort</text>
</a>
</g>
</g>
<!-- Node5&#45;&gt;Node6 -->
<g id="edge5_Node000005_Node000006" class="edge">
<title>Node5&#45;&gt;Node6</title>
<g id="a_edge5_Node000005_Node000006"><a xlink:title=" ">
<path fill="none" stroke="#63b8ff" d="M196.22,-207.85C286.61,-201.98 503.62,-187.88 600.22,-181.6"/>
<polygon fill="#63b8ff" stroke="#63b8ff" points="600.54,-185.09 610.29,-180.95 600.09,-178.11 600.54,-185.09"/>
</a>
</g>
</g>
<!-- Node7 -->
<g id="Node000007" class="node">
<title>Node7</title>
<g id="a_Node000007"><a xlink:href="m__model_8fpp_8f90.html#a0dd1f9451362655b63a76e288a3f92db" target="_top" xlink:title="This procedure reads an OBJ file.">
<polygon fill="white" stroke="#666666" points="512.5,-56 443.5,-56 443.5,-37 512.5,-37 512.5,-56"/>
<text text-anchor="middle" x="478" y="-44" font-family="Helvetica,sans-Serif" font-size="10.00">s_read_obj</text>
</a>
</g>
</g>
<!-- Node5&#45;&gt;Node7 -->
<g id="edge6_Node000005_Node000007" class="edge">
<title>Node5&#45;&gt;Node7</title>
<g id="a_edge6_Node000005_Node000007"><a xlink:title=" ">
<path fill="none" stroke="#63b8ff" d="M165.48,-200.86C187.94,-179.23 241.25,-128.27 251,-122.5 309.58,-87.83 386.14,-66.34 433.43,-55.41"/>
<polygon fill="#63b8ff" stroke="#63b8ff" points="434.36,-58.78 443.34,-53.17 432.82,-51.96 434.36,-58.78"/>
</a>
</g>
</g>
<!-- Node9 -->
<g id="Node000009" class="node">
<title>Node9</title>
<g id="a_Node000009"><a xlink:href="m__model_8fpp_8f90.html#a05ca98cfdb3880758fd6cb1538a9acd7" target="_top" xlink:title="This procedure reads an STL file.">
<polygon fill="white" stroke="#666666" points="343,-257 277,-257 277,-238 343,-238 343,-257"/>
<text text-anchor="middle" x="310" y="-245" font-family="Helvetica,sans-Serif" font-size="10.00">s_read_stl</text>
</a>
</g>
</g>
<!-- Node5&#45;&gt;Node9 -->
<g id="edge9_Node000005_Node000009" class="edge">
<title>Node5&#45;&gt;Node9</title>
<g id="a_edge9_Node000005_Node000009"><a xlink:title=" ">
<path fill="none" stroke="#63b8ff" d="M195.03,-220.03C217.06,-225.34 244.49,-231.95 266.92,-237.36"/>
<polygon fill="#63b8ff" stroke="#63b8ff" points="266.29,-240.81 276.84,-239.75 267.93,-234 266.29,-240.81"/>
</a>
</g>
</g>
<!-- Node7&#45;&gt;Node6 -->
<g id="edge8_Node000007_Node000006" class="edge">
<title>Node7&#45;&gt;Node6</title>
<g id="a_edge8_Node000007_Node000006"><a xlink:title=" ">
<path fill="none" stroke="#63b8ff" d="M512.52,-53.78C525.24,-57.51 539.43,-62.91 551,-70.5 588.03,-94.78 619.91,-136.6 636.28,-160.45"/>
<polygon fill="#63b8ff" stroke="#63b8ff" points="633.48,-162.55 641.95,-168.91 639.29,-158.66 633.48,-162.55"/>
</a>
</g>
</g>
<!-- Node8 -->
<g id="Node000008" class="node">
<title>Node8</title>
<g id="a_Node000008"><a xlink:href="m__model_8fpp_8f90.html#accb621c002a9aa99ef7acf0aa84c2b50" target="_top" xlink:title=" ">
<polygon fill="white" stroke="#666666" points="818,-282 747,-282 747,-263 818,-263 818,-282"/>
<text text-anchor="middle" x="782.5" y="-270" font-family="Helvetica,sans-Serif" font-size="10.00">f_read_line</text>
</a>
</g>
</g>
<!-- Node7&#45;&gt;Node8 -->
<g id="edge7_Node000007_Node000008" class="edge">
<title>Node7&#45;&gt;Node8</title>
<g id="a_edge7_Node000007_Node000008"><a xlink:title=" ">
<path fill="none" stroke="#63b8ff" d="M511.52,-56.13C559.65,-71.67 650.63,-106.16 711,-160.5 740.74,-187.26 762.64,-229.44 773.6,-253.67"/>
<polygon fill="#63b8ff" stroke="#63b8ff" points="770.41,-255.11 777.63,-262.86 776.82,-252.3 770.41,-255.11"/>
</a>
</g>
</g>
<!-- Node9&#45;&gt;Node6 -->
<g id="edge10_Node000009_Node000006" class="edge">
<title>Node9&#45;&gt;Node6</title>
<g id="a_edge10_Node000009_Node000006"><a xlink:title=" ">
<path fill="none" stroke="#63b8ff" d="M343.19,-244.52C389.58,-239.81 477.72,-229.31 551,-211.5 572.39,-206.3 595.77,-198.42 614.21,-191.66"/>
<polygon fill="#63b8ff" stroke="#63b8ff" points="615.49,-194.92 623.64,-188.15 613.05,-188.36 615.49,-194.92"/>
</a>
</g>
</g>
<!-- Node10 -->
<g id="Node000010" class="node">
<title>Node10</title>
<g id="a_Node000010"><a xlink:href="m__model_8fpp_8f90.html#a3583055a84e8cb3f9134c4229a1f57c6" target="_top" xlink:title="This procedure reads an ASCII STL file.">
<polygon fill="white" stroke="#666666" points="525,-320 431,-320 431,-301 525,-301 525,-320"/>
<text text-anchor="middle" x="478" y="-308" font-family="Helvetica,sans-Serif" font-size="10.00">s_read_stl_ascii</text>
</a>
</g>
</g>
<!-- Node9&#45;&gt;Node10 -->
<g id="edge11_Node000009_Node000010" class="edge">
<title>Node9&#45;&gt;Node10</title>
<g id="a_edge11_Node000009_Node000010"><a xlink:title=" ">
<path fill="none" stroke="#63b8ff" d="M328.22,-257.04C346.73,-267 377.25,-282.51 405,-292.5 410.81,-294.59 416.96,-296.53 423.13,-298.3"/>
<polygon fill="#63b8ff" stroke="#63b8ff" points="422.22,-301.68 432.79,-300.94 424.07,-294.93 422.22,-301.68"/>
</a>
</g>
</g>
<!-- Node12 -->
<g id="Node000012" class="node">
<title>Node12</title>
<g id="a_Node000012"><a xlink:href="m__model_8fpp_8f90.html#aec15eac4bb59ae7bdddfbfddf007d469" target="_top" xlink:title="This procedure reads a binary STL file.">
<polygon fill="white" stroke="#666666" points="529,-283 427,-283 427,-264 529,-264 529,-283"/>
<text text-anchor="middle" x="478" y="-271" font-family="Helvetica,sans-Serif" font-size="10.00">s_read_stl_binary</text>
</a>
</g>
</g>
<!-- Node9&#45;&gt;Node12 -->
<g id="edge16_Node000009_Node000012" class="edge">
<title>Node9&#45;&gt;Node12</title>
<g id="a_edge16_Node000009_Node000012"><a xlink:title=" ">
<path fill="none" stroke="#63b8ff" d="M343.01,-252.51C363.87,-255.78 391.76,-260.15 416.69,-264.05"/>
<polygon fill="#63b8ff" stroke="#63b8ff" points="416.38,-267.55 426.8,-265.64 417.46,-260.63 416.38,-267.55"/>
</a>
</g>
</g>
<!-- Node10&#45;&gt;Node6 -->
<g id="edge13_Node000010_Node000006" class="edge">
<title>Node10&#45;&gt;Node6</title>
<g id="a_edge13_Node000010_Node000006"><a xlink:title=" ">
<path fill="none" stroke="#63b8ff" d="M525.28,-303.44C534.23,-300.86 543.23,-297.32 551,-292.5 571.52,-279.77 613.38,-225.42 634.77,-196.61"/>
<polygon fill="#63b8ff" stroke="#63b8ff" points="637.83,-198.36 640.95,-188.23 632.2,-194.2 637.83,-198.36"/>
</a>
</g>
</g>
<!-- Node10&#45;&gt;Node8 -->
<g id="edge12_Node000010_Node000008" class="edge">
<title>Node10&#45;&gt;Node8</title>
<g id="a_edge12_Node000010_Node000008"><a xlink:title=" ">
<path fill="none" stroke="#63b8ff" d="M525.15,-302.15C544.25,-298.87 566.65,-295.24 587,-292.5 638.26,-285.6 697.41,-279.83 736.9,-276.29"/>
<polygon fill="#63b8ff" stroke="#63b8ff" points="737.34,-279.76 746.99,-275.39 736.72,-272.79 737.34,-279.76"/>
</a>
</g>
</g>
<!-- Node11 -->
<g id="Node000011" class="node">
<title>Node11</title>
<g id="a_Node000011"><a xlink:href="m__model_8fpp_8f90.html#a0cc3e8189f9ed02b8f1bf84ba77e07c0" target="_top" xlink:title=" ">
<polygon fill="white" stroke="#666666" points="708,-320 590,-320 590,-301 708,-301 708,-320"/>
<text text-anchor="middle" x="649" y="-308" font-family="Helvetica,sans-Serif" font-size="10.00">s_skip_ignored_lines</text>
</a>
</g>
</g>
<!-- Node10&#45;&gt;Node11 -->
<g id="edge14_Node000010_Node000011" class="edge">
<title>Node10&#45;&gt;Node11</title>
<g id="a_edge14_Node000010_Node000011"><a xlink:title=" ">
<path fill="none" stroke="#63b8ff" d="M525.18,-310.5C542,-310.5 561.39,-310.5 579.73,-310.5"/>
<polygon fill="#63b8ff" stroke="#63b8ff" points="579.78,-314 589.78,-310.5 579.78,-307 579.78,-314"/>
</a>
</g>
</g>
<!-- Node11&#45;&gt;Node8 -->
<g id="edge15_Node000011_Node000008" class="edge">
<title>Node11&#45;&gt;Node8</title>
<g id="a_edge15_Node000011_Node000008"><a xlink:title=" ">
<path fill="none" stroke="#63b8ff" d="M683.18,-300.91C700,-296.05 720.63,-290.09 738.63,-284.89"/>
<polygon fill="#63b8ff" stroke="#63b8ff" points="739.69,-288.22 748.33,-282.09 737.75,-281.5 739.69,-288.22"/>
</a>
</g>
</g>
<!-- Node12&#45;&gt;Node6 -->
<g id="edge17_Node000012_Node000006" class="edge">
<title>Node12&#45;&gt;Node6</title>
<g id="a_edge17_Node000012_Node000006"><a xlink:title=" ">
<path fill="none" stroke="#63b8ff" d="M515.05,-263.9C526.83,-260.13 539.76,-255.31 551,-249.5 580.59,-234.22 610.97,-210.4 629.67,-194.63"/>
<polygon fill="#63b8ff" stroke="#63b8ff" points="632.08,-197.17 637.39,-188.01 627.52,-191.86 632.08,-197.17"/>
</a>
</g>
</g>
<!-- Node13&#45;&gt;Node3 -->
<g id="edge19_Node000013_Node000003" class="edge">
<title>Node13&#45;&gt;Node3</title>
<g id="a_edge19_Node000013_Node000003"><a xlink:title=" ">
<path fill="none" stroke="#63b8ff" d="M181.98,-352.1C192.44,-356.17 204.45,-361.2 215,-366.5 231.75,-374.92 233.91,-380.77 251,-388.5 255.05,-390.33 259.35,-392.05 263.69,-393.64"/>
<polygon fill="#63b8ff" stroke="#63b8ff" points="262.61,-396.97 273.21,-396.92 264.89,-390.35 262.61,-396.97"/>
</a>
</g>
</g>
<!-- Node14 -->
<g id="Node000014" class="node">
<title>Node14</title>
<g id="a_Node000014"><a xlink:href="m__octree_8fpp_8f90.html#a99b10f3dd836630734ae099443aae716" target="_top" xlink:title="This procedure builds, recursively, an octree from a set of triangles.">
<polygon fill="white" stroke="#666666" points="352.5,-361 267.5,-361 267.5,-342 352.5,-342 352.5,-361"/>
<text text-anchor="middle" x="310" y="-349" font-family="Helvetica,sans-Serif" font-size="10.00">s_octree_impl</text>
</a>
</g>
</g>
<!-- Node13&#45;&gt;Node14 -->
<g id="edge20_Node000013_Node000014" class="edge">
<title>Node13&#45;&gt;Node14</title>
<g id="a_edge20_Node000013_Node000014"><a xlink:title=" ">
<path fill="none" stroke="#63b8ff" d="M200.72,-345.15C218.4,-346.19 238.78,-347.38 257.05,-348.45"/>
<polygon fill="#63b8ff" stroke="#63b8ff" points="257.06,-351.96 267.25,-349.05 257.47,-344.97 257.06,-351.96"/>
</a>
</g>
</g>
<!-- Node14&#45;&gt;Node14 -->
<g id="edge24_Node000014_Node000014" class="edge">
<title>Node14&#45;&gt;Node14</title>
<g id="a_edge24_Node000014_Node000014"><a xlink:title=" ">
<path fill="none" stroke="#63b8ff" d="M286.26,-361.08C274.72,-369.73 282.63,-379 310,-379 327.96,-379 337.54,-375.01 338.75,-369.82"/>
<polygon fill="#63b8ff" stroke="#63b8ff" points="341.75,-368.02 333.74,-361.08 335.67,-371.5 341.75,-368.02"/>
</a>
</g>
</g>
<!-- Node15 -->
<g id="Node000015" class="node">
<title>Node15</title>
<g id="a_Node000015"><a xlink:href="m__octree_8fpp_8f90.html#a53f1baf0e463d2c7cbcbd7282e690bc0" target="_top" xlink:title=" ">
<polygon fill="white" stroke="#666666" points="551,-433 405,-433 405,-414 551,-414 551,-433"/>
<text text-anchor="middle" x="478" y="-421" font-family="Helvetica,sans-Serif" font-size="10.00">f_triangle_intersects_bbox</text>
</a>
</g>
</g>
<!-- Node14&#45;&gt;Node15 -->
<g id="edge21_Node000014_Node000015" class="edge">
<title>Node14&#45;&gt;Node15</title>
<g id="a_edge21_Node000014_Node000015"><a xlink:title=" ">
<path fill="none" stroke="#63b8ff" d="M327.96,-361.14C346.5,-371.45 377.29,-387.88 405,-399.5 414.66,-403.55 425.26,-407.4 435.29,-410.78"/>
<polygon fill="#63b8ff" stroke="#63b8ff" points="434.48,-414.2 445.08,-414 436.67,-407.55 434.48,-414.2"/>
</a>
</g>
</g>
<!-- Node16 -->
<g id="Node000016" class="node">
<title>Node16</title>
<g id="a_Node000016"><a xlink:href="m__octree_8fpp_8f90.html#a2624e7caa267269669c96133c1fc6a51" target="_top" xlink:title="This procedure checks if a ray intersects a bounding box.">
<polygon fill="white" stroke="#666666" points="711,-414 587,-414 587,-395 711,-395 711,-414"/>
<text text-anchor="middle" x="649" y="-402" font-family="Helvetica,sans-Serif" font-size="10.00">f_ray_intersects_bbox</text>
</a>
</g>
</g>
<!-- Node15&#45;&gt;Node16 -->
<g id="edge22_Node000015_Node000016" class="edge">
<title>Node15&#45;&gt;Node16</title>
<g id="a_edge22_Node000015_Node000016"><a xlink:title=" ">
<path fill="none" stroke="#63b8ff" d="M551.16,-415.39C559.74,-414.42 568.49,-413.44 577.05,-412.48"/>
<polygon fill="#63b8ff" stroke="#63b8ff" points="577.44,-415.96 586.98,-411.36 576.66,-409 577.44,-415.96"/>
</a>
</g>
</g>
<!-- Node17 -->
<g id="Node000017" class="node">
<title>Node17</title>
<g id="a_Node000017"><a xlink:href="m__helper_8fpp_8f90.html#af89217ee50179a901a5c9f8fd450cf59" target="_top" xlink:title="This procedure swaps two real numbers.">
<polygon fill="white" stroke="#666666" points="809,-414 756,-414 756,-395 809,-395 809,-414"/>
<text text-anchor="middle" x="782.5" y="-402" font-family="Helvetica,sans-Serif" font-size="10.00">s_swap</text>
</a>
</g>
</g>
<!-- Node16&#45;&gt;Node17 -->
<g id="edge23_Node000016_Node000017" class="edge">
<title>Node16&#45;&gt;Node17</title>
<g id="a_edge23_Node000016_Node000017"><a xlink:title=" ">
<path fill="none" stroke="#63b8ff" d="M711.13,-404.5C723,-404.5 735.08,-404.5 745.79,-404.5"/>
<polygon fill="#63b8ff" stroke="#63b8ff" points="746,-408 756,-404.5 746,-401 746,-408"/>
</a>
</g>
</g>
<!-- Node19 -->
<g id="Node000019" class="node">
<title>Node19</title>
<g id="a_Node000019"><a xlink:href="m__octree_8fpp_8f90.html#af8fa93568348fe58b9ab23f9ff1f7a8d" target="_top" xlink:title="This procedure, recursively, counts the number of triangles intersected by a ray in an octree.">
<polygon fill="white" stroke="#666666" points="366,-306 254,-306 254,-287 366,-287 366,-306"/>
<text text-anchor="middle" x="310" y="-294" font-family="Helvetica,sans-Serif" font-size="10.00">f_octree_count_hits</text>
</a>
</g>
</g>
<!-- Node18&#45;&gt;Node19 -->
<g id="edge26_Node000018_Node000019" class="edge">
<title>Node18&#45;&gt;Node19</title>
<g id="a_edge26_Node000018_Node000019"><a xlink:title=" ">
<path fill="none" stroke="#63b8ff" d="M206.61,-296.5C218.47,-296.5 231.25,-296.5 243.62,-296.5"/>
<polygon fill="#63b8ff" stroke="#63b8ff" points="243.89,-300 253.89,-296.5 243.89,-293 243.89,-300"/>
</a>
</g>
</g>
<!-- Node19&#45;&gt;Node16 -->
<g id="edge30_Node000019_Node000016" class="edge">
<title>Node19&#45;&gt;Node16</title>
<g id="a_edge30_Node000019_Node000016"><a xlink:title=" ">
<path fill="none" stroke="#63b8ff" d="M327.76,-306.13C339.64,-313.2 355.74,-323.32 369,-333.5 386.21,-346.72 385.44,-357.09 405,-366.5 458.9,-392.44 526.59,-401.37 576.82,-404.14"/>
<polygon fill="#63b8ff" stroke="#63b8ff" points="576.79,-407.64 586.95,-404.63 577.13,-400.65 576.79,-407.64"/>
</a>
</g>
</g>
<!-- Node19&#45;&gt;Node19 -->
<g id="edge29_Node000019_Node000019" class="edge">
<title>Node19&#45;&gt;Node19</title>
<g id="a_edge29_Node000019_Node000019"><a xlink:title=" ">
<path fill="none" stroke="#63b8ff" d="M286.26,-306.08C274.72,-314.73 282.63,-324 310,-324 327.96,-324 337.54,-320.01 338.75,-314.82"/>
<polygon fill="#63b8ff" stroke="#63b8ff" points="341.75,-313.02 333.74,-306.08 335.67,-316.5 341.75,-313.02"/>
</a>
</g>
</g>
<!-- Node20 -->
<g id="Node000020" class="node">
<title>Node20</title>
<g id="a_Node000020"><a xlink:href="m__octree_8fpp_8f90.html#a6e0ee6fb5b8a3451c19946c713c922d2" target="_top" xlink:title="This procedure checks if a ray intersects a triangle.">
<polygon fill="white" stroke="#666666" points="536,-357 420,-357 420,-338 536,-338 536,-357"/>
<text text-anchor="middle" x="478" y="-345" font-family="Helvetica,sans-Serif" font-size="10.00">f_intersects_triangle</text>
</a>
</g>
</g>
<!-- Node19&#45;&gt;Node20 -->
<g id="edge27_Node000019_Node000020" class="edge">
<title>Node19&#45;&gt;Node20</title>
<g id="a_edge27_Node000019_Node000020"><a xlink:title=" ">
<path fill="none" stroke="#63b8ff" d="M336.32,-306.11C355.13,-313.06 381.47,-322.45 405,-329.5 411.87,-331.56 419.16,-333.58 426.36,-335.47"/>
<polygon fill="#63b8ff" stroke="#63b8ff" points="425.52,-338.87 436.08,-337.97 427.26,-332.09 425.52,-338.87"/>
</a>
</g>
</g>
<!-- Node21 -->
<g id="Node000021" class="node">
<title>Node21</title>
<g id="a_Node000021"><a xlink:href="m__helper_8fpp_8f90.html#a453300ff424896c95d5d4169b202f8e2" target="_top" xlink:title="This procedure computes the cross product of two vectors.">
<polygon fill="white" stroke="#666666" points="670,-357 628,-357 628,-338 670,-338 670,-357"/>
<text text-anchor="middle" x="649" y="-345" font-family="Helvetica,sans-Serif" font-size="10.00">cross</text>
</a>
</g>
</g>
<!-- Node20&#45;&gt;Node21 -->
<g id="edge28_Node000020_Node000021" class="edge">
<title>Node20&#45;&gt;Node21</title>
<g id="a_edge28_Node000020_Node000021"><a xlink:title=" ">
<path fill="none" stroke="#63b8ff" d="M536.22,-347.5C563.5,-347.5 595.03,-347.5 617.63,-347.5"/>
<polygon fill="#63b8ff" stroke="#63b8ff" points="617.65,-351 627.65,-347.5 617.65,-344 617.65,-351"/>
</a>
</g>
</g>
<!-- Node23&#45;&gt;Node6 -->
<g id="edge33_Node000023_Node000006" class="edge">
<title>Node23&#45;&gt;Node6</title>
<g id="a_edge33_Node000023_Node000006"><a xlink:title=" ">
<path fill="none" stroke="#63b8ff" d="M329.84,-130.92C348.41,-122.06 377.85,-109.52 405,-104.5 468.81,-92.7 489.53,-83.73 551,-104.5 584.06,-115.67 614.75,-143.12 632.42,-161.26"/>
<polygon fill="#63b8ff" stroke="#63b8ff" points="630.17,-163.98 639.58,-168.85 635.26,-159.18 630.17,-163.98"/>
</a>
</g>
</g>
<!-- Node24 -->
<g id="Node000024" class="node">
<title>Node24</title>
<g id="a_Node000024"><a xlink:href="m__model_8fpp_8f90.html#a453ecd79bc67d64acfc07a75f638fed9" target="_top" xlink:title="This procedure writes an OBJ file.">
<polygon fill="white" stroke="#666666" points="514,-169 442,-169 442,-150 514,-150 514,-169"/>
<text text-anchor="middle" x="478" y="-157" font-family="Helvetica,sans-Serif" font-size="10.00">s_write_obj</text>
</a>
</g>
</g>
<!-- Node23&#45;&gt;Node24 -->
<g id="edge34_Node000023_Node000024" class="edge">
<title>Node23&#45;&gt;Node24</title>
<g id="a_edge34_Node000023_Node000024"><a xlink:title=" ">
<path fill="none" stroke="#63b8ff" d="M354.18,-145.44C378.05,-148.17 407.68,-151.57 431.86,-154.33"/>
<polygon fill="#63b8ff" stroke="#63b8ff" points="431.52,-157.82 441.86,-155.48 432.32,-150.86 431.52,-157.82"/>
</a>
</g>
</g>
<!-- Node25 -->
<g id="Node000025" class="node">
<title>Node25</title>
<g id="a_Node000025"><a xlink:href="m__model_8fpp_8f90.html#a7a9ea3dd9dd2c0b561dae5c10208e128" target="_top" xlink:title="This procedure writes a binary STL file.">
<polygon fill="white" stroke="#666666" points="512.5,-132 443.5,-132 443.5,-113 512.5,-113 512.5,-132"/>
<text text-anchor="middle" x="478" y="-120" font-family="Helvetica,sans-Serif" font-size="10.00">s_write_stl</text>
</a>
</g>
</g>
<!-- Node23&#45;&gt;Node25 -->
<g id="edge36_Node000023_Node000025" class="edge">
<title>Node23&#45;&gt;Node25</title>
<g id="a_edge36_Node000023_Node000025"><a xlink:title=" ">
<path fill="none" stroke="#63b8ff" d="M354.18,-135.82C378.56,-133.17 408.94,-129.88 433.39,-127.23"/>
<polygon fill="#63b8ff" stroke="#63b8ff" points="433.9,-130.69 443.47,-126.14 433.15,-123.73 433.9,-130.69"/>
</a>
</g>
</g>
<!-- Node24&#45;&gt;Node6 -->
<g id="edge35_Node000024_Node000006" class="edge">
<title>Node24&#45;&gt;Node6</title>
<g id="a_edge35_Node000024_Node000006"><a xlink:title=" ">
<path fill="none" stroke="#63b8ff" d="M514.02,-163.44C538.96,-166.24 572.8,-170.05 600.22,-173.13"/>
<polygon fill="#63b8ff" stroke="#63b8ff" points="600.06,-176.63 610.39,-174.27 600.84,-169.68 600.06,-176.63"/>
</a>
</g>
</g>
<!-- Node25&#45;&gt;Node6 -->
<g id="edge37_Node000025_Node000006" class="edge">
<title>Node25&#45;&gt;Node6</title>
<g id="a_edge37_Node000025_Node000006"><a xlink:title=" ">
<path fill="none" stroke="#63b8ff" d="M512.55,-130.56C524.74,-133.7 538.57,-137.5 551,-141.5 572.82,-148.52 596.89,-157.69 615.6,-165.15"/>
<polygon fill="#63b8ff" stroke="#63b8ff" points="614.53,-168.49 625.12,-168.98 617.15,-162 614.53,-168.49"/>
</a>
</g>
</g>
<!-- Node26&#45;&gt;Node26 -->
<g id="edge39_Node000026_Node000026" class="edge">
<title>Node26&#45;&gt;Node26</title>
<g id="a_edge39_Node000026_Node000026"><a xlink:title=" ">
<path fill="none" stroke="#63b8ff" d="M135.39,-89.08C126.09,-97.73 132.46,-107 154.5,-107 168.27,-107 175.93,-103.38 177.46,-98.55"/>
<polygon fill="#63b8ff" stroke="#63b8ff" points="180.62,-97.03 173.61,-89.08 174.14,-99.66 180.62,-97.03"/>
</a>
</g>
</g>
<!-- Node28 -->
<g id="Node000028" class="node">
<title>Node28</title>
<g id="a_Node000028"><a xlink:href="m__helper_8fpp_8f90.html#a0e3c0b7ec7d8eee1b8b802c364cf0081" target="_top" xlink:title="This procedure transforms a triangle by a matrix, one vertex at a time.">
<polygon fill="white" stroke="#666666" points="369,-37 251,-37 251,-18 369,-18 369,-37"/>
<text text-anchor="middle" x="310" y="-25" font-family="Helvetica,sans-Serif" font-size="10.00">s_transform_triangle</text>
</a>
</g>
</g>
<!-- Node27&#45;&gt;Node28 -->
<g id="edge41_Node000027_Node000028" class="edge">
<title>Node27&#45;&gt;Node28</title>
<g id="a_edge41_Node000027_Node000028"><a xlink:title=" ">
<path fill="none" stroke="#63b8ff" d="M210.05,-33.95C220,-33.3 230.5,-32.61 240.79,-31.94"/>
<polygon fill="#63b8ff" stroke="#63b8ff" points="241.23,-35.42 250.99,-31.28 240.78,-28.44 241.23,-35.42"/>
</a>
</g>
</g>
<!-- Node29 -->
<g id="Node000029" class="node">
<title>Node29</title>
<g id="a_Node000029"><a xlink:href="m__helper_8fpp_8f90.html#ae401e6ec49c4c7340e19c04a0abe836a" target="_top" xlink:title="This procedure transforms a vector by a matrix.">
<polygon fill="white" stroke="#666666" points="527,-19 429,-19 429,0 527,0 527,-19"/>
<text text-anchor="middle" x="478" y="-7" font-family="Helvetica,sans-Serif" font-size="10.00">s_transform_vec</text>
</a>
</g>
</g>
<!-- Node28&#45;&gt;Node29 -->
<g id="edge42_Node000028_Node000029" class="edge">
<title>Node28&#45;&gt;Node29</title>
<g id="a_edge42_Node000028_Node000029"><a xlink:title=" ">
<path fill="none" stroke="#63b8ff" d="M369.06,-21.2C385.09,-19.47 402.49,-17.58 418.54,-15.84"/>
<polygon fill="#63b8ff" stroke="#63b8ff" points="419.3,-19.28 428.86,-14.72 418.54,-12.32 419.3,-19.28"/>
</a>
</g>
</g>
</g>
</svg>
