<?xml version="1.0" encoding="UTF-8" standalone="no"?>
<!DOCTYPE svg PUBLIC "-//W3C//DTD SVG 1.1//EN"
 "http://www.w3.org/Graphics/SVG/1.1/DTD/svg11.dtd">
<!-- Generated by graphviz version 2.43.0 (0)
 -->
<!-- Title: s_spiral Pages: 1 -->
<svg width="127pt" height="45pt"
 viewBox="0.00 0.00 127.00 45.00" xmlns="http://www.w3.org/2000/svg" xmlns:xlink="http://www.w3.org/1999/xlink">
<g id="graph0" class="graph" transform="scale(1 1) rotate(0) translate(4 41)">
<title>s_spiral</title>
<!-- Node1 -->
<g id="Node000001" class="node">
<title>Node1</title>
<g id="a_Node000001"><a xlink:title="The spiral patch is a 2D geometry that may be used, The geometry of the patch is well&#45;defined when it...">
<polygon fill="#999999" stroke="#666666" points="54,-19 0,-19 0,0 54,0 54,-19"/>
<text text-anchor="middle" x="27" y="-7" font-family="Helvetica,sans-Serif" font-size="10.00">s_spiral</text>
</a>
</g>
</g>
<!-- Node2 -->
<g id="Node000002" class="node">
<title>Node2</title>
<g id="a_Node000002"><a xlink:href="m__patches_8fpp_8f90.html#ad6b8b34904846ffb6346ae50f08d5410" target="_top" xlink:title="Archimedes spiral function.">
<polygon fill="white" stroke="#666666" points="119,-19 90,-19 90,0 119,0 119,-19"/>
<text text-anchor="middle" x="104.5" y="-7" font-family="Helvetica,sans-Serif" font-size="10.00">f_r</text>
</a>
</g>
</g>
<!-- Node1&#45;&gt;Node2 -->
<g id="edge1_Node000001_Node000002" class="edge">
<title>Node1&#45;&gt;Node2</title>
<g id="a_edge1_Node000001_Node000002"><a xlink:title=" ">
<path fill="none" stroke="#63b8ff" d="M54.41,-9.5C62.59,-9.5 71.56,-9.5 79.57,-9.5"/>
<polygon fill="#63b8ff" stroke="#63b8ff" points="79.73,-13 89.73,-9.5 79.73,-6 79.73,-13"/>
</a>
</g>
</g>
<!-- Node2&#45;&gt;Node2 -->
<g id="edge2_Node000002_Node000002" class="edge">
<title>Node2&#45;&gt;Node2</title>
<g id="a_edge2_Node000002_Node000002"><a xlink:title=" ">
<path fill="none" stroke="#63b8ff" d="M92.79,-19.08C87.09,-27.73 90.99,-37 104.5,-37 112.73,-37 117.4,-33.56 118.5,-28.91"/>
<polygon fill="#63b8ff" stroke="#63b8ff" points="121.88,-28.03 116.21,-19.08 115.07,-29.62 121.88,-28.03"/>
</a>
</g>
</g>
</g>
</svg>
