<?xml version="1.0" encoding="UTF-8" standalone="no"?>
<!DOCTYPE svg PUBLIC "-//W3C//DTD SVG 1.1//EN"
 "http://www.w3.org/Graphics/SVG/1.1/DTD/svg11.dtd">
<!-- Generated by graphviz version 2.43.0 (0)
 -->
<!-- Title: __m_patches_fpp_f90__ Pages: 1 -->
<svg width="1024pt" height="767pt"
 viewBox="0.00 0.00 1024.00 767.00" xmlns="http://www.w3.org/2000/svg" xmlns:xlink="http://www.w3.org/1999/xlink">
<g id="graph0" class="graph" transform="scale(1 1) rotate(0) translate(4 763)">
<title>__m_patches_fpp_f90__</title>
<!-- Node1 -->
<g id="Node000001" class="node">
<title>Node1</title>
<g id="a_Node000001"><a xlink:title=" ">
<polygon fill="#999999" stroke="#666666" points="133,-389 0,-389 0,-370 133,-370 133,-389"/>
<text text-anchor="middle" x="66.5" y="-377" font-family="Helvetica,sans-Serif" font-size="10.00">__m_patches_fpp_f90__</text>
</a>
</g>
</g>
<!-- Node2 -->
<g id="Node000002" class="node">
<title>Node2</title>
<g id="a_Node000002"><a xlink:href="m__patches_8fpp_8f90.html#a877a50bac5c65d068153395c5e6b6ecb" target="_top" xlink:title="This patch assigns the primitive variables as analytical functions such that the code can be verified...">
<polygon fill="white" stroke="#666666" points="283.5,-759 191.5,-759 191.5,-740 283.5,-740 283.5,-759"/>
<text text-anchor="middle" x="237.5" y="-747" font-family="Helvetica,sans-Serif" font-size="10.00">s_1d_analytical</text>
</a>
</g>
</g>
<!-- Node1&#45;&gt;Node2 -->
<g id="edge1_Node000001_Node000002" class="edge">
<title>Node1&#45;&gt;Node2</title>
<g id="a_edge1_Node000001_Node000002"><a xlink:title=" ">
<path fill="none" stroke="#63b8ff" d="M67.12,-389.02C65.84,-434.46 66.57,-631.11 169,-731.5 172.75,-735.17 177.16,-738.12 181.9,-740.48"/>
<polygon fill="#63b8ff" stroke="#63b8ff" points="180.75,-743.79 191.33,-744.33 183.4,-737.31 180.75,-743.79"/>
</a>
</g>
</g>
<!-- Node3 -->
<g id="Node000003" class="node">
<title>Node3</title>
<g id="a_Node000003"><a xlink:href="m__patches_8fpp_8f90.html#acb9c479af598749a01bc7f2249d77bda" target="_top" xlink:title=" ">
<polygon fill="white" stroke="#666666" points="292,-722 183,-722 183,-703 292,-703 292,-722"/>
<text text-anchor="middle" x="237.5" y="-710" font-family="Helvetica,sans-Serif" font-size="10.00">s_1d_bubble_pulse</text>
</a>
</g>
</g>
<!-- Node1&#45;&gt;Node3 -->
<g id="edge2_Node000001_Node000003" class="edge">
<title>Node1&#45;&gt;Node3</title>
<g id="a_edge2_Node000001_Node000003"><a xlink:title=" ">
<path fill="none" stroke="#63b8ff" d="M67.49,-389.16C68,-431.94 75.91,-606.05 169,-694.5 170.52,-695.94 172.14,-697.27 173.84,-698.49"/>
<polygon fill="#63b8ff" stroke="#63b8ff" points="172.52,-701.78 182.92,-703.79 176.04,-695.73 172.52,-701.78"/>
</a>
</g>
</g>
<!-- Node4 -->
<g id="Node000004" class="node">
<title>Node4</title>
<g id="a_Node000004"><a xlink:href="m__patches_8fpp_8f90.html#a3ab7435e1f733d4dfe54af0de782c4c4" target="_top" xlink:title="This patch assigns the primitive variables as analytical functions such that the code can be verified...">
<polygon fill="white" stroke="#666666" points="283.5,-685 191.5,-685 191.5,-666 283.5,-666 283.5,-685"/>
<text text-anchor="middle" x="237.5" y="-673" font-family="Helvetica,sans-Serif" font-size="10.00">s_2d_analytical</text>
</a>
</g>
</g>
<!-- Node1&#45;&gt;Node4 -->
<g id="edge3_Node000001_Node000004" class="edge">
<title>Node1&#45;&gt;Node4</title>
<g id="a_edge3_Node000001_Node000004"><a xlink:title=" ">
<path fill="none" stroke="#63b8ff" d="M67.96,-389.1C70.38,-428.68 85.01,-580.71 169,-657.5 172.82,-660.99 177.24,-663.82 181.95,-666.11"/>
<polygon fill="#63b8ff" stroke="#63b8ff" points="180.72,-669.38 191.3,-669.87 183.34,-662.89 180.72,-669.38"/>
</a>
</g>
</g>
<!-- Node5 -->
<g id="Node000005" class="node">
<title>Node5</title>
<g id="a_Node000005"><a xlink:href="m__patches_8fpp_8f90.html#a39133fcc7537fe20473e486cdf34d268" target="_top" xlink:title="The Taylor Green vortex is 2D decaying vortex that may be used, for example, to verify the effects of...">
<polygon fill="white" stroke="#666666" points="306,-648 169,-648 169,-629 306,-629 306,-648"/>
<text text-anchor="middle" x="237.5" y="-636" font-family="Helvetica,sans-Serif" font-size="10.00">s_2d_taylorgreen_vortex</text>
</a>
</g>
</g>
<!-- Node1&#45;&gt;Node5 -->
<g id="edge4_Node000001_Node000005" class="edge">
<title>Node1&#45;&gt;Node5</title>
<g id="a_edge4_Node000001_Node000005"><a xlink:title=" ">
<path fill="none" stroke="#63b8ff" d="M68.55,-389.06C73.04,-425.26 94.02,-555.21 169,-620.5 170.35,-621.68 171.77,-622.78 173.25,-623.81"/>
<polygon fill="#63b8ff" stroke="#63b8ff" points="171.83,-627.03 182.24,-628.97 175.31,-620.95 171.83,-627.03"/>
</a>
</g>
</g>
<!-- Node6 -->
<g id="Node000006" class="node">
<title>Node6</title>
<g id="a_Node000006"><a xlink:href="m__patches_8fpp_8f90.html#aa1a00f3943c48f78749d1fe467c43255" target="_top" xlink:title="This patch assigns the primitive variables as analytical functions such that the code can be verified...">
<polygon fill="white" stroke="#666666" points="283.5,-611 191.5,-611 191.5,-592 283.5,-592 283.5,-611"/>
<text text-anchor="middle" x="237.5" y="-599" font-family="Helvetica,sans-Serif" font-size="10.00">s_3d_analytical</text>
</a>
</g>
</g>
<!-- Node1&#45;&gt;Node6 -->
<g id="edge5_Node000001_Node000006" class="edge">
<title>Node1&#45;&gt;Node6</title>
<g id="a_edge5_Node000001_Node000006"><a xlink:title=" ">
<path fill="none" stroke="#63b8ff" d="M69.41,-389.38C76.31,-422.38 103.13,-529.7 169,-583.5 172.85,-586.64 177.19,-589.24 181.78,-591.39"/>
<polygon fill="#63b8ff" stroke="#63b8ff" points="180.86,-594.79 191.44,-595.19 183.42,-588.27 180.86,-594.79"/>
</a>
</g>
</g>
<!-- Node8 -->
<g id="Node000008" class="node">
<title>Node8</title>
<g id="a_Node000008"><a xlink:href="m__patches_8fpp_8f90.html#a9da67ac4b2021fadcbe3aeeb198b7205" target="_top" xlink:title=" ">
<polygon fill="white" stroke="#666666" points="278,-352 197,-352 197,-333 278,-333 278,-352"/>
<text text-anchor="middle" x="237.5" y="-340" font-family="Helvetica,sans-Serif" font-size="10.00">s_3dvarcircle</text>
</a>
</g>
</g>
<!-- Node1&#45;&gt;Node8 -->
<g id="edge7_Node000001_Node000008" class="edge">
<title>Node1&#45;&gt;Node8</title>
<g id="a_edge7_Node000001_Node000008"><a xlink:title=" ">
<path fill="none" stroke="#63b8ff" d="M111.02,-369.97C134.21,-364.89 162.84,-358.63 186.89,-353.36"/>
<polygon fill="#63b8ff" stroke="#63b8ff" points="187.87,-356.73 196.89,-351.17 186.37,-349.89 187.87,-356.73"/>
</a>
</g>
</g>
<!-- Node9 -->
<g id="Node000009" class="node">
<title>Node9</title>
<g id="a_Node000009"><a xlink:href="m__patches_8fpp_8f90.html#ac4e75e900495cd7223c6eba250aa20e5" target="_top" xlink:title="The circular patch is a 2D geometry that may be used, for example, in creating a bubble or a droplet....">
<polygon fill="white" stroke="#666666" points="264,-315 211,-315 211,-296 264,-296 264,-315"/>
<text text-anchor="middle" x="237.5" y="-303" font-family="Helvetica,sans-Serif" font-size="10.00">s_circle</text>
</a>
</g>
</g>
<!-- Node1&#45;&gt;Node9 -->
<g id="edge8_Node000001_Node000009" class="edge">
<title>Node1&#45;&gt;Node9</title>
<g id="a_edge8_Node000001_Node000009"><a xlink:title=" ">
<path fill="none" stroke="#63b8ff" d="M82.8,-369.81C102.22,-357.83 137.06,-337.46 169,-324.5 179.17,-320.37 190.55,-316.79 201.03,-313.89"/>
<polygon fill="#63b8ff" stroke="#63b8ff" points="201.96,-317.27 210.73,-311.32 200.17,-310.5 201.96,-317.27"/>
</a>
</g>
</g>
<!-- Node10 -->
<g id="Node000010" class="node">
<title>Node10</title>
<g id="a_Node000010"><a xlink:href="m__patches_8fpp_8f90.html#a73cca0d7e1eeb6f53662aac5a4d6be2c" target="_top" xlink:title="The cuboidal patch is a 3D geometry that may be used, for example, in creating a solid boundary,...">
<polygon fill="white" stroke="#666666" points="267,-574 208,-574 208,-555 267,-555 267,-574"/>
<text text-anchor="middle" x="237.5" y="-562" font-family="Helvetica,sans-Serif" font-size="10.00">s_cuboid</text>
</a>
</g>
</g>
<!-- Node1&#45;&gt;Node10 -->
<g id="edge9_Node000001_Node000010" class="edge">
<title>Node1&#45;&gt;Node10</title>
<g id="a_edge9_Node000001_Node000010"><a xlink:title=" ">
<path fill="none" stroke="#63b8ff" d="M70.49,-389.19C79.9,-417.97 111.69,-503.6 169,-546.5 177.37,-552.77 187.77,-556.86 197.87,-559.52"/>
<polygon fill="#63b8ff" stroke="#63b8ff" points="197.26,-562.97 207.79,-561.74 198.79,-556.14 197.26,-562.97"/>
</a>
</g>
</g>
<!-- Node11 -->
<g id="Node000011" class="node">
<title>Node11</title>
<g id="a_Node000011"><a xlink:href="m__patches_8fpp_8f90.html#a3344bff4ec4757e3491a9ad26d275b5f" target="_top" xlink:title="The cylindrical patch is a 3D geometry that may be used, for example, in setting up a cylindrical sol...">
<polygon fill="white" stroke="#666666" points="270.5,-537 204.5,-537 204.5,-518 270.5,-518 270.5,-537"/>
<text text-anchor="middle" x="237.5" y="-525" font-family="Helvetica,sans-Serif" font-size="10.00">s_cylinder</text>
</a>
</g>
</g>
<!-- Node1&#45;&gt;Node11 -->
<g id="edge11_Node000001_Node000011" class="edge">
<title>Node1&#45;&gt;Node11</title>
<g id="a_edge11_Node000001_Node000011"><a xlink:title=" ">
<path fill="none" stroke="#63b8ff" d="M72.15,-389.07C84.4,-413.24 120.04,-477.12 169,-509.5 176.64,-514.55 185.66,-518.19 194.56,-520.81"/>
<polygon fill="#63b8ff" stroke="#63b8ff" points="193.94,-524.27 204.5,-523.36 195.68,-517.48 193.94,-524.27"/>
</a>
</g>
</g>
<!-- Node12 -->
<g id="Node000012" class="node">
<title>Node12</title>
<g id="a_Node000012"><a xlink:href="m__patches_8fpp_8f90.html#aa6d7431c71ad4e9e0ffc9dc20b75d649" target="_top" xlink:title="The elliptical patch is a 2D geometry. The geometry of the patch is well&#45;defined when its centroid an...">
<polygon fill="white" stroke="#666666" points="267,-278 208,-278 208,-259 267,-259 267,-278"/>
<text text-anchor="middle" x="237.5" y="-266" font-family="Helvetica,sans-Serif" font-size="10.00">s_ellipse</text>
</a>
</g>
</g>
<!-- Node1&#45;&gt;Node12 -->
<g id="edge13_Node000001_Node000012" class="edge">
<title>Node1&#45;&gt;Node12</title>
<g id="a_edge13_Node000001_Node000012"><a xlink:title=" ">
<path fill="none" stroke="#63b8ff" d="M75.37,-369.86C91.16,-351.15 128.63,-309.84 169,-287.5 177.85,-282.6 188.08,-278.88 197.84,-276.09"/>
<polygon fill="#63b8ff" stroke="#63b8ff" points="198.98,-279.41 207.78,-273.51 197.22,-272.63 198.98,-279.41"/>
</a>
</g>
</g>
<!-- Node13 -->
<g id="Node000013" class="node">
<title>Node13</title>
<g id="a_Node000013"><a xlink:href="m__patches_8fpp_8f90.html#a229b5d7429dddd9a321dd1c8850f818f" target="_top" xlink:title="The ellipsoidal patch is a 3D geometry. The geometry of the patch is well&#45;defined when its centroid a...">
<polygon fill="white" stroke="#666666" points="271.5,-500 203.5,-500 203.5,-481 271.5,-481 271.5,-500"/>
<text text-anchor="middle" x="237.5" y="-488" font-family="Helvetica,sans-Serif" font-size="10.00">s_ellipsoid</text>
</a>
</g>
</g>
<!-- Node1&#45;&gt;Node13 -->
<g id="edge14_Node000001_Node000013" class="edge">
<title>Node1&#45;&gt;Node13</title>
<g id="a_edge14_Node000001_Node000013"><a xlink:title=" ">
<path fill="none" stroke="#63b8ff" d="M75.08,-389.01C90.63,-407.87 128.13,-450.11 169,-472.5 176.57,-476.65 185.14,-479.88 193.58,-482.38"/>
<polygon fill="#63b8ff" stroke="#63b8ff" points="192.79,-485.8 203.36,-485 194.6,-479.03 192.79,-485.8"/>
</a>
</g>
</g>
<!-- Node14 -->
<g id="Node000014" class="node">
<title>Node14</title>
<g id="a_Node000014"><a xlink:href="m__patches_8fpp_8f90.html#ab5330abbe995a8000fa4e026793e8b76" target="_top" xlink:title="The isentropic vortex is a 2D geometry that may be used, for example, to generate an isentropic flow ...">
<polygon fill="white" stroke="#666666" points="293.5,-241 181.5,-241 181.5,-222 293.5,-222 293.5,-241"/>
<text text-anchor="middle" x="237.5" y="-229" font-family="Helvetica,sans-Serif" font-size="10.00">s_isentropic_vortex</text>
</a>
</g>
</g>
<!-- Node1&#45;&gt;Node14 -->
<g id="edge16_Node000001_Node000014" class="edge">
<title>Node1&#45;&gt;Node14</title>
<g id="a_edge16_Node000001_Node000014"><a xlink:title=" ">
<path fill="none" stroke="#63b8ff" d="M72.38,-369.69C84.91,-345.54 120.67,-282.81 169,-250.5 172.06,-248.45 175.35,-246.62 178.76,-244.99"/>
<polygon fill="#63b8ff" stroke="#63b8ff" points="180.14,-248.2 188.01,-241.1 177.43,-241.75 180.14,-248.2"/>
</a>
</g>
</g>
<!-- Node15 -->
<g id="Node000015" class="node">
<title>Node15</title>
<g id="a_Node000015"><a xlink:href="m__patches_8fpp_8f90.html#a643440c3316ec8583c02dba30f9da8eb" target="_top" xlink:title="The line segment patch is a 1D geometry that may be used, for example, in creating a Riemann problem....">
<polygon fill="white" stroke="#666666" points="284,-204 191,-204 191,-185 284,-185 284,-204"/>
<text text-anchor="middle" x="237.5" y="-192" font-family="Helvetica,sans-Serif" font-size="10.00">s_line_segment</text>
</a>
</g>
</g>
<!-- Node1&#45;&gt;Node15 -->
<g id="edge17_Node000001_Node000015" class="edge">
<title>Node1&#45;&gt;Node15</title>
<g id="a_edge17_Node000001_Node000015"><a xlink:title=" ">
<path fill="none" stroke="#63b8ff" d="M70.54,-369.9C80.07,-341.4 112.18,-256.53 169,-213.5 172.8,-210.62 177.02,-208.18 181.44,-206.1"/>
<polygon fill="#63b8ff" stroke="#63b8ff" points="182.77,-209.34 190.73,-202.35 180.15,-202.85 182.77,-209.34"/>
</a>
</g>
</g>
<!-- Node16 -->
<g id="Node000016" class="node">
<title>Node16</title>
<g id="a_Node000016"><a xlink:href="m__patches_8fpp_8f90.html#ac7f748ab1e64c62eff219301807ba04e" target="_top" xlink:title="The STL patch is a 2/3D geometry that is imported from an STL file.">
<polygon fill="white" stroke="#666666" points="266.5,-167 208.5,-167 208.5,-148 266.5,-148 266.5,-167"/>
<text text-anchor="middle" x="237.5" y="-155" font-family="Helvetica,sans-Serif" font-size="10.00">s_model</text>
</a>
</g>
</g>
<!-- Node1&#45;&gt;Node16 -->
<g id="edge18_Node000001_Node000016" class="edge">
<title>Node1&#45;&gt;Node16</title>
<g id="a_edge18_Node000001_Node000016"><a xlink:title=" ">
<path fill="none" stroke="#63b8ff" d="M69.45,-369.7C76.49,-336.97 103.7,-230.48 169,-176.5 177.39,-169.56 188.16,-165.16 198.61,-162.35"/>
<polygon fill="#63b8ff" stroke="#63b8ff" points="199.47,-165.75 208.46,-160.13 197.93,-158.92 199.47,-165.75"/>
</a>
</g>
</g>
<!-- Node35 -->
<g id="Node000035" class="node">
<title>Node35</title>
<g id="a_Node000035"><a xlink:href="m__patches_8fpp_8f90.html#a13fd94596295470337ddd3aaaf997e50" target="_top" xlink:title="The rectangular patch is a 2D geometry that may be used, for example, in creating a solid boundary,...">
<polygon fill="white" stroke="#666666" points="274,-130 201,-130 201,-111 274,-111 274,-130"/>
<text text-anchor="middle" x="237.5" y="-118" font-family="Helvetica,sans-Serif" font-size="10.00">s_rectangle</text>
</a>
</g>
</g>
<!-- Node1&#45;&gt;Node35 -->
<g id="edge43_Node000001_Node000035" class="edge">
<title>Node1&#45;&gt;Node35</title>
<g id="a_edge43_Node000001_Node000035"><a xlink:title=" ">
<path fill="none" stroke="#63b8ff" d="M68.66,-369.52C73.43,-332.9 95.02,-204.72 169,-139.5 175.3,-133.95 183.1,-130.01 191.14,-127.22"/>
<polygon fill="#63b8ff" stroke="#63b8ff" points="192.36,-130.51 200.98,-124.35 190.4,-123.79 192.36,-130.51"/>
</a>
</g>
</g>
<!-- Node36 -->
<g id="Node000036" class="node">
<title>Node36</title>
<g id="a_Node000036"><a xlink:href="m__patches_8fpp_8f90.html#a81af271f4146fa38840e17e3a3f28bd3" target="_top" xlink:title="The spherical patch is a 3D geometry that may be used, for example, in creating a bubble or a droplet...">
<polygon fill="white" stroke="#666666" points="267.5,-463 207.5,-463 207.5,-444 267.5,-444 267.5,-463"/>
<text text-anchor="middle" x="237.5" y="-451" font-family="Helvetica,sans-Serif" font-size="10.00">s_sphere</text>
</a>
</g>
</g>
<!-- Node1&#45;&gt;Node36 -->
<g id="edge44_Node000001_Node000036" class="edge">
<title>Node1&#45;&gt;Node36</title>
<g id="a_edge44_Node000001_Node000036"><a xlink:title=" ">
<path fill="none" stroke="#63b8ff" d="M82.07,-389.03C101.3,-401.26 136.51,-422.43 169,-435.5 178.1,-439.16 188.19,-442.31 197.74,-444.89"/>
<polygon fill="#63b8ff" stroke="#63b8ff" points="196.87,-448.28 207.42,-447.39 198.61,-441.51 196.87,-448.28"/>
</a>
</g>
</g>
<!-- Node37 -->
<g id="Node000037" class="node">
<title>Node37</title>
<g id="a_Node000037"><a xlink:href="m__patches_8fpp_8f90.html#ac495040b73e45dc96e23a5a1ec55e569" target="_top" xlink:title="This patch generates the shape of the spherical harmonics as a perturbation to a perfect sphere.">
<polygon fill="white" stroke="#666666" points="298.5,-389 176.5,-389 176.5,-370 298.5,-370 298.5,-389"/>
<text text-anchor="middle" x="237.5" y="-377" font-family="Helvetica,sans-Serif" font-size="10.00">s_spherical_harmonic</text>
</a>
</g>
</g>
<!-- Node1&#45;&gt;Node37 -->
<g id="edge46_Node000001_Node000037" class="edge">
<title>Node1&#45;&gt;Node37</title>
<g id="a_edge46_Node000001_Node000037"><a xlink:title=" ">
<path fill="none" stroke="#63b8ff" d="M133.32,-379.5C144.07,-379.5 155.24,-379.5 166.09,-379.5"/>
<polygon fill="#63b8ff" stroke="#63b8ff" points="166.37,-383 176.37,-379.5 166.37,-376 166.37,-383"/>
</a>
</g>
</g>
<!-- Node39 -->
<g id="Node000039" class="node">
<title>Node39</title>
<g id="a_Node000039"><a xlink:href="m__patches_8fpp_8f90.html#adcb41d8b3a2c69d356c92a0af3f7853b" target="_top" xlink:title="The spiral patch is a 2D geometry that may be used, The geometry of the patch is well&#45;defined when it...">
<polygon fill="white" stroke="#666666" points="264.5,-93 210.5,-93 210.5,-74 264.5,-74 264.5,-93"/>
<text text-anchor="middle" x="237.5" y="-81" font-family="Helvetica,sans-Serif" font-size="10.00">s_spiral</text>
</a>
</g>
</g>
<!-- Node1&#45;&gt;Node39 -->
<g id="edge49_Node000001_Node000039" class="edge">
<title>Node1&#45;&gt;Node39</title>
<g id="a_edge49_Node000001_Node000039"><a xlink:title=" ">
<path fill="none" stroke="#63b8ff" d="M68,-369.96C70.58,-330.65 85.76,-179.58 169,-102.5 177.55,-94.58 189.14,-89.93 200.3,-87.21"/>
<polygon fill="#63b8ff" stroke="#63b8ff" points="201.21,-90.6 210.34,-85.21 199.84,-83.73 201.21,-90.6"/>
</a>
</g>
</g>
<!-- Node41 -->
<g id="Node000041" class="node">
<title>Node41</title>
<g id="a_Node000041"><a xlink:href="m__patches_8fpp_8f90.html#a21e85b84406e2dd37807038d70f5aea2" target="_top" xlink:title="The swept line patch is a 2D geometry that may be used, for example, in creating a solid boundary,...">
<polygon fill="white" stroke="#666666" points="278.5,-56 196.5,-56 196.5,-37 278.5,-37 278.5,-56"/>
<text text-anchor="middle" x="237.5" y="-44" font-family="Helvetica,sans-Serif" font-size="10.00">s_sweep_line</text>
</a>
</g>
</g>
<!-- Node1&#45;&gt;Node41 -->
<g id="edge52_Node000001_Node000041" class="edge">
<title>Node1&#45;&gt;Node41</title>
<g id="a_edge52_Node000001_Node000041"><a xlink:title=" ">
<path fill="none" stroke="#63b8ff" d="M67.49,-369.84C68,-327.06 75.91,-152.95 169,-64.5 174.02,-59.73 180.16,-56.19 186.67,-53.57"/>
<polygon fill="#63b8ff" stroke="#63b8ff" points="187.99,-56.82 196.39,-50.36 185.79,-50.18 187.99,-56.82"/>
</a>
</g>
</g>
<!-- Node42 -->
<g id="Node000042" class="node">
<title>Node42</title>
<g id="a_Node000042"><a xlink:href="m__patches_8fpp_8f90.html#abeee1a033809cdc97e1202f54daf6d01" target="_top" xlink:title="The swept plane patch is a 3D geometry that may be used, for example, in creating a solid boundary,...">
<polygon fill="white" stroke="#666666" points="283,-426 192,-426 192,-407 283,-407 283,-426"/>
<text text-anchor="middle" x="237.5" y="-414" font-family="Helvetica,sans-Serif" font-size="10.00">s_sweep_plane</text>
</a>
</g>
</g>
<!-- Node1&#45;&gt;Node42 -->
<g id="edge53_Node000001_Node000042" class="edge">
<title>Node1&#45;&gt;Node42</title>
<g id="a_edge53_Node000001_Node000042"><a xlink:title=" ">
<path fill="none" stroke="#63b8ff" d="M111.02,-389.03C132.92,-393.82 159.65,-399.68 182.81,-404.75"/>
<polygon fill="#63b8ff" stroke="#63b8ff" points="182.32,-408.22 192.83,-406.94 183.81,-401.38 182.32,-408.22"/>
</a>
</g>
</g>
<!-- Node43 -->
<g id="Node000043" class="node">
<title>Node43</title>
<g id="a_Node000043"><a xlink:href="m__patches_8fpp_8f90.html#aa6c7a1dbbeeb49707ffb4f50581d0026" target="_top" xlink:title="The varcircle patch is a 2D geometry that may be used . It generatres an annulus.">
<polygon fill="white" stroke="#666666" points="272,-19 203,-19 203,0 272,0 272,-19"/>
<text text-anchor="middle" x="237.5" y="-7" font-family="Helvetica,sans-Serif" font-size="10.00">s_varcircle</text>
</a>
</g>
</g>
<!-- Node1&#45;&gt;Node43 -->
<g id="edge55_Node000001_Node000043" class="edge">
<title>Node1&#45;&gt;Node43</title>
<g id="a_edge55_Node000001_Node000043"><a xlink:title=" ">
<path fill="none" stroke="#63b8ff" d="M67.12,-369.98C65.84,-324.54 66.57,-127.89 169,-27.5 175.55,-21.09 184.11,-16.89 192.93,-14.16"/>
<polygon fill="#63b8ff" stroke="#63b8ff" points="194.05,-17.49 202.9,-11.66 192.35,-10.7 194.05,-17.49"/>
</a>
</g>
</g>
<!-- Node7 -->
<g id="Node000007" class="node">
<title>Node7</title>
<g id="a_Node000007"><a xlink:href="m__patches_8fpp_8f90.html#a899dca857a7e7f2d7d8dbd4bbd92a5ed" target="_top" xlink:title=" ">
<polygon fill="white" stroke="#666666" points="462,-505.5 343,-505.5 343,-475.5 462,-475.5 462,-505.5"/>
<text text-anchor="start" x="351" y="-493.5" font-family="Helvetica,sans-Serif" font-size="10.00">s_convert_cylindrical</text>
<text text-anchor="middle" x="402.5" y="-482.5" font-family="Helvetica,sans-Serif" font-size="10.00">_to_cartesian_coord</text>
</a>
</g>
</g>
<!-- Node6&#45;&gt;Node7 -->
<g id="edge6_Node000006_Node000007" class="edge">
<title>Node6&#45;&gt;Node7</title>
<g id="a_edge6_Node000006_Node000007"><a xlink:title=" ">
<path fill="none" stroke="#63b8ff" d="M283.71,-592.89C291.42,-590.47 299.14,-587.39 306,-583.5 337.45,-565.65 366.08,-534.94 383.63,-513.72"/>
<polygon fill="#63b8ff" stroke="#63b8ff" points="386.44,-515.8 390.01,-505.83 381,-511.4 386.44,-515.8"/>
</a>
</g>
</g>
<!-- Node10&#45;&gt;Node7 -->
<g id="edge10_Node000010_Node000007" class="edge">
<title>Node10&#45;&gt;Node7</title>
<g id="a_edge10_Node000010_Node000007"><a xlink:title=" ">
<path fill="none" stroke="#63b8ff" d="M267.31,-558.63C279.49,-555.69 293.69,-551.64 306,-546.5 328.86,-536.96 352.92,-522.82 371.16,-511.14"/>
<polygon fill="#63b8ff" stroke="#63b8ff" points="373.15,-514.03 379.62,-505.64 369.33,-508.16 373.15,-514.03"/>
</a>
</g>
</g>
<!-- Node11&#45;&gt;Node7 -->
<g id="edge12_Node000011_Node000007" class="edge">
<title>Node11&#45;&gt;Node7</title>
<g id="a_edge12_Node000011_Node000007"><a xlink:title=" ">
<path fill="none" stroke="#63b8ff" d="M270.7,-520.19C288.57,-516.14 311.49,-510.93 333.14,-506.02"/>
<polygon fill="#63b8ff" stroke="#63b8ff" points="334,-509.41 342.97,-503.79 332.45,-502.59 334,-509.41"/>
</a>
</g>
</g>
<!-- Node13&#45;&gt;Node7 -->
<g id="edge15_Node000013_Node000007" class="edge">
<title>Node13&#45;&gt;Node7</title>
<g id="a_edge15_Node000013_Node000007"><a xlink:title=" ">
<path fill="none" stroke="#63b8ff" d="M271.88,-490.5C289.41,-490.5 311.56,-490.5 332.58,-490.5"/>
<polygon fill="#63b8ff" stroke="#63b8ff" points="332.78,-494 342.78,-490.5 332.78,-487 332.78,-494"/>
</a>
</g>
</g>
<!-- Node17 -->
<g id="Node000017" class="node">
<title>Node17</title>
<g id="a_Node000017"><a xlink:href="m__patches_8fpp_8f90.html#ab573d8ed768a86ac50b907f44bac14c0" target="_top" xlink:title=" ">
<polygon fill="white" stroke="#666666" points="463,-74 342,-74 342,-55 463,-55 463,-74"/>
<text text-anchor="middle" x="402.5" y="-62" font-family="Helvetica,sans-Serif" font-size="10.00">f_convert_cyl_to_cart</text>
</a>
</g>
</g>
<!-- Node16&#45;&gt;Node17 -->
<g id="edge19_Node000016_Node000017" class="edge">
<title>Node16&#45;&gt;Node17</title>
<g id="a_edge19_Node000016_Node000017"><a xlink:title=" ">
<path fill="none" stroke="#63b8ff" d="M266.81,-154.72C279.74,-152.31 294.67,-147.83 306,-139.5 330.14,-121.75 318.16,-100.65 342,-82.5 343.81,-81.12 345.73,-79.84 347.73,-78.67"/>
<polygon fill="#63b8ff" stroke="#63b8ff" points="349.49,-81.7 356.87,-74.1 346.36,-75.44 349.49,-81.7"/>
</a>
</g>
</g>
<!-- Node18 -->
<g id="Node000018" class="node">
<title>Node18</title>
<g id="a_Node000018"><a xlink:href="m__helper_8fpp_8f90.html#a88808ee0f14fe4e145a538646dc9ba73" target="_top" xlink:title="This procedure creates a bounding box for a model.">
<polygon fill="white" stroke="#666666" points="445.5,-308 359.5,-308 359.5,-289 445.5,-289 445.5,-308"/>
<text text-anchor="middle" x="402.5" y="-296" font-family="Helvetica,sans-Serif" font-size="10.00">f_create_bbox</text>
</a>
</g>
</g>
<!-- Node16&#45;&gt;Node18 -->
<g id="edge20_Node000016_Node000018" class="edge">
<title>Node16&#45;&gt;Node18</title>
<g id="a_edge20_Node000016_Node000018"><a xlink:title=" ">
<path fill="none" stroke="#63b8ff" d="M266.73,-159.48C280.12,-161.77 295.44,-166.58 306,-176.5 341.33,-209.71 307.25,-245.68 342,-279.5 344.52,-281.96 347.37,-284.1 350.4,-285.96"/>
<polygon fill="#63b8ff" stroke="#63b8ff" points="348.88,-289.11 359.38,-290.51 352.05,-282.87 348.88,-289.11"/>
</a>
</g>
</g>
<!-- Node19 -->
<g id="Node000019" class="node">
<title>Node19</title>
<g id="a_Node000019"><a xlink:href="m__helper_8fpp_8f90.html#aafb2d0e9e3e66d3f3714f0ad3349bc8f" target="_top" xlink:title="This procedure creates a transformation matrix.">
<polygon fill="white" stroke="#666666" points="457.5,-270.5 347.5,-270.5 347.5,-240.5 457.5,-240.5 457.5,-270.5"/>
<text text-anchor="start" x="355.5" y="-258.5" font-family="Helvetica,sans-Serif" font-size="10.00">f_create_transform</text>
<text text-anchor="middle" x="402.5" y="-247.5" font-family="Helvetica,sans-Serif" font-size="10.00">_matrix</text>
</a>
</g>
</g>
<!-- Node16&#45;&gt;Node19 -->
<g id="edge21_Node000016_Node000019" class="edge">
<title>Node16&#45;&gt;Node19</title>
<g id="a_edge21_Node000016_Node000019"><a xlink:title=" ">
<path fill="none" stroke="#63b8ff" d="M266.77,-160.84C279.69,-163.46 294.61,-168.15 306,-176.5 329.56,-193.78 319.42,-212.96 342,-231.5 343.55,-232.77 345.18,-233.98 346.86,-235.14"/>
<polygon fill="#63b8ff" stroke="#63b8ff" points="345.3,-238.28 355.68,-240.43 348.91,-232.28 345.3,-238.28"/>
</a>
</g>
</g>
<!-- Node20 -->
<g id="Node000020" class="node">
<title>Node20</title>
<g id="a_Node000020"><a xlink:href="m__model_8fpp_8f90.html#aeec237153c6c81ad91c7b0155c283c11" target="_top" xlink:title="This procedure, recursively, finds whether a point is inside an octree.">
<polygon fill="white" stroke="#666666" points="454.5,-222 350.5,-222 350.5,-203 454.5,-203 454.5,-222"/>
<text text-anchor="middle" x="402.5" y="-210" font-family="Helvetica,sans-Serif" font-size="10.00">f_model_is_inside</text>
</a>
</g>
</g>
<!-- Node16&#45;&gt;Node20 -->
<g id="edge22_Node000016_Node000020" class="edge">
<title>Node16&#45;&gt;Node20</title>
<g id="a_edge22_Node000016_Node000020"><a xlink:title=" ">
<path fill="none" stroke="#63b8ff" d="M266.8,-164.19C279.03,-167.41 293.4,-171.63 306,-176.5 322.68,-182.95 325.38,-187.89 342,-194.5 346.71,-196.37 351.68,-198.16 356.68,-199.84"/>
<polygon fill="#63b8ff" stroke="#63b8ff" points="355.64,-203.18 366.24,-202.91 357.79,-196.52 355.64,-203.18"/>
</a>
</g>
</g>
<!-- Node23 -->
<g id="Node000023" class="node">
<title>Node23</title>
<g id="a_Node000023"><a xlink:href="m__model_8fpp_8f90.html#a1b9b22c1f17d46b41f2d227e1636f3a5" target="_top" xlink:title="This procedure reads a mesh from a file.">
<polygon fill="white" stroke="#666666" points="444,-185 361,-185 361,-166 444,-166 444,-185"/>
<text text-anchor="middle" x="402.5" y="-173" font-family="Helvetica,sans-Serif" font-size="10.00">f_model_read</text>
</a>
</g>
</g>
<!-- Node16&#45;&gt;Node23 -->
<g id="edge25_Node000016_Node000023" class="edge">
<title>Node16&#45;&gt;Node23</title>
<g id="a_edge25_Node000016_Node000023"><a xlink:title=" ">
<path fill="none" stroke="#63b8ff" d="M266.52,-160.59C289.63,-163.15 323,-166.83 350.78,-169.9"/>
<polygon fill="#63b8ff" stroke="#63b8ff" points="350.4,-173.38 360.73,-171 351.17,-166.42 350.4,-173.38"/>
</a>
</g>
</g>
<!-- Node31 -->
<g id="Node000031" class="node">
<title>Node31</title>
<g id="a_Node000031"><a xlink:href="m__model_8fpp_8f90.html#a4e5b0d533feecd52aec31ccffa94d0c5" target="_top" xlink:title="This procedure frees the memory allocated for an STL mesh.">
<polygon fill="white" stroke="#666666" points="444,-148 361,-148 361,-129 444,-129 444,-148"/>
<text text-anchor="middle" x="402.5" y="-136" font-family="Helvetica,sans-Serif" font-size="10.00">s_model_free</text>
</a>
</g>
</g>
<!-- Node16&#45;&gt;Node31 -->
<g id="edge39_Node000016_Node000031" class="edge">
<title>Node16&#45;&gt;Node31</title>
<g id="a_edge39_Node000016_Node000031"><a xlink:title=" ">
<path fill="none" stroke="#63b8ff" d="M266.52,-154.23C289.63,-151.54 323,-147.65 350.78,-144.41"/>
<polygon fill="#63b8ff" stroke="#63b8ff" points="351.2,-147.89 360.73,-143.25 350.39,-140.93 351.2,-147.89"/>
</a>
</g>
</g>
<!-- Node32 -->
<g id="Node000032" class="node">
<title>Node32</title>
<g id="a_Node000032"><a xlink:href="m__helper_8fpp_8f90.html#a77ee798a317ff1eb8d3c50a7407010ba" target="_top" xlink:title="This procedure transforms a model by a matrix, one triangle at a time.">
<polygon fill="white" stroke="#666666" points="458,-111 347,-111 347,-92 458,-92 458,-111"/>
<text text-anchor="middle" x="402.5" y="-99" font-family="Helvetica,sans-Serif" font-size="10.00">s_transform_model</text>
</a>
</g>
</g>
<!-- Node16&#45;&gt;Node32 -->
<g id="edge40_Node000016_Node000032" class="edge">
<title>Node16&#45;&gt;Node32</title>
<g id="a_edge40_Node000016_Node000032"><a xlink:title=" ">
<path fill="none" stroke="#63b8ff" d="M266.54,-151.52C278.85,-148.52 293.35,-144.45 306,-139.5 322.85,-132.91 325.32,-127.5 342,-120.5 347.19,-118.32 352.71,-116.25 358.23,-114.32"/>
<polygon fill="#63b8ff" stroke="#63b8ff" points="359.7,-117.52 368.08,-111.03 357.48,-110.88 359.7,-117.52"/>
</a>
</g>
</g>
<!-- Node21 -->
<g id="Node000021" class="node">
<title>Node21</title>
<g id="a_Node000021"><a xlink:href="m__model_8fpp_8f90.html#aa8e784a7afcad5f9713116d8e0efe8dd" target="_top" xlink:title="This procedure checks if a ray intersects a triangle.">
<polygon fill="white" stroke="#666666" points="616,-261 500,-261 500,-242 616,-242 616,-261"/>
<text text-anchor="middle" x="558" y="-249" font-family="Helvetica,sans-Serif" font-size="10.00">f_intersects_triangle</text>
</a>
</g>
</g>
<!-- Node20&#45;&gt;Node21 -->
<g id="edge23_Node000020_Node000021" class="edge">
<title>Node20&#45;&gt;Node21</title>
<g id="a_edge23_Node000020_Node000021"><a xlink:title=" ">
<path fill="none" stroke="#63b8ff" d="M441.05,-222.04C461.75,-227.3 487.66,-233.88 509.73,-239.49"/>
<polygon fill="#63b8ff" stroke="#63b8ff" points="509.02,-242.92 519.57,-241.99 510.74,-236.14 509.02,-242.92"/>
</a>
</g>
</g>
<!-- Node22 -->
<g id="Node000022" class="node">
<title>Node22</title>
<g id="a_Node000022"><a xlink:href="m__helper_8fpp_8f90.html#a3685fb84c52ce964157ac58fc0068249" target="_top" xlink:title="This procedure computes the cross product of two vectors.">
<polygon fill="white" stroke="#666666" points="729.5,-261 678.5,-261 678.5,-242 729.5,-242 729.5,-261"/>
<text text-anchor="middle" x="704" y="-249" font-family="Helvetica,sans-Serif" font-size="10.00">f_cross</text>
</a>
</g>
</g>
<!-- Node21&#45;&gt;Node22 -->
<g id="edge24_Node000021_Node000022" class="edge">
<title>Node21&#45;&gt;Node22</title>
<g id="a_edge24_Node000021_Node000022"><a xlink:title=" ">
<path fill="none" stroke="#63b8ff" d="M616.33,-251.5C633.79,-251.5 652.45,-251.5 667.97,-251.5"/>
<polygon fill="#63b8ff" stroke="#63b8ff" points="668.16,-255 678.16,-251.5 668.16,-248 668.16,-255"/>
</a>
</g>
</g>
<!-- Node24 -->
<g id="Node000024" class="node">
<title>Node24</title>
<g id="a_Node000024"><a xlink:href="m__mpi__common_8fpp_8f90.html#ad9e1329e498b65ad4256658675d6f797" target="_top" xlink:title="The subroutine terminates the MPI execution environment.">
<polygon fill="white" stroke="#666666" points="888.5,-147 811.5,-147 811.5,-128 888.5,-128 888.5,-147"/>
<text text-anchor="middle" x="850" y="-135" font-family="Helvetica,sans-Serif" font-size="10.00">s_mpi_abort</text>
</a>
</g>
</g>
<!-- Node23&#45;&gt;Node24 -->
<g id="edge26_Node000023_Node000024" class="edge">
<title>Node23&#45;&gt;Node24</title>
<g id="a_edge26_Node000023_Node000024"><a xlink:title=" ">
<path fill="none" stroke="#63b8ff" d="M444,-175.22C509.59,-174.34 643,-170.77 755,-156.5 770.16,-154.57 786.54,-151.58 801.31,-148.54"/>
<polygon fill="#63b8ff" stroke="#63b8ff" points="802.19,-151.93 811.25,-146.44 800.74,-145.08 802.19,-151.93"/>
</a>
</g>
</g>
<!-- Node25 -->
<g id="Node000025" class="node">
<title>Node25</title>
<g id="a_Node000025"><a xlink:href="m__model_8fpp_8f90.html#a0dd1f9451362655b63a76e288a3f92db" target="_top" xlink:title="This procedure reads an OBJ file.">
<polygon fill="white" stroke="#666666" points="738.5,-223 669.5,-223 669.5,-204 738.5,-204 738.5,-223"/>
<text text-anchor="middle" x="704" y="-211" font-family="Helvetica,sans-Serif" font-size="10.00">s_read_obj</text>
</a>
</g>
</g>
<!-- Node23&#45;&gt;Node25 -->
<g id="edge27_Node000023_Node000025" class="edge">
<title>Node23&#45;&gt;Node25</title>
<g id="a_edge27_Node000023_Node000025"><a xlink:title=" ">
<path fill="none" stroke="#63b8ff" d="M444.36,-181.75C461.26,-184.27 481.06,-187.13 499,-189.5 554.24,-196.8 618.05,-204.13 659.39,-208.73"/>
<polygon fill="#63b8ff" stroke="#63b8ff" points="659.07,-212.22 669.39,-209.84 659.84,-205.26 659.07,-212.22"/>
</a>
</g>
</g>
<!-- Node27 -->
<g id="Node000027" class="node">
<title>Node27</title>
<g id="a_Node000027"><a xlink:href="m__model_8fpp_8f90.html#a05ca98cfdb3880758fd6cb1538a9acd7" target="_top" xlink:title="This procedure reads an STL file.">
<polygon fill="white" stroke="#666666" points="591,-128 525,-128 525,-109 591,-109 591,-128"/>
<text text-anchor="middle" x="558" y="-116" font-family="Helvetica,sans-Serif" font-size="10.00">s_read_stl</text>
</a>
</g>
</g>
<!-- Node23&#45;&gt;Node27 -->
<g id="edge30_Node000023_Node000027" class="edge">
<title>Node23&#45;&gt;Node27</title>
<g id="a_edge30_Node000023_Node000027"><a xlink:title=" ">
<path fill="none" stroke="#63b8ff" d="M437.05,-165.99C445.57,-163.4 454.67,-160.48 463,-157.5 484.43,-149.83 508.1,-140 526.33,-132.13"/>
<polygon fill="#63b8ff" stroke="#63b8ff" points="527.81,-135.3 535.58,-128.1 525.02,-128.89 527.81,-135.3"/>
</a>
</g>
</g>
<!-- Node25&#45;&gt;Node24 -->
<g id="edge29_Node000025_Node000024" class="edge">
<title>Node25&#45;&gt;Node24</title>
<g id="a_edge29_Node000025_Node000024"><a xlink:title=" ">
<path fill="none" stroke="#63b8ff" d="M725.57,-203.96C734.65,-199.66 745.42,-194.45 755,-189.5 778.39,-177.43 804.57,-162.86 823.34,-152.22"/>
<polygon fill="#63b8ff" stroke="#63b8ff" points="825.22,-155.18 832.18,-147.19 821.76,-149.09 825.22,-155.18"/>
</a>
</g>
</g>
<!-- Node26 -->
<g id="Node000026" class="node">
<title>Node26</title>
<g id="a_Node000026"><a xlink:href="m__model_8fpp_8f90.html#accb621c002a9aa99ef7acf0aa84c2b50" target="_top" xlink:title=" ">
<polygon fill="white" stroke="#666666" points="1016,-109 945,-109 945,-90 1016,-90 1016,-109"/>
<text text-anchor="middle" x="980.5" y="-97" font-family="Helvetica,sans-Serif" font-size="10.00">f_read_line</text>
</a>
</g>
</g>
<!-- Node25&#45;&gt;Node26 -->
<g id="edge28_Node000025_Node000026" class="edge">
<title>Node25&#45;&gt;Node26</title>
<g id="a_edge28_Node000025_Node000026"><a xlink:title=" ">
<path fill="none" stroke="#63b8ff" d="M738.69,-208.42C780.44,-201.17 852.95,-185.41 909,-156.5 929.39,-145.98 949.41,-128.97 962.88,-116.26"/>
<polygon fill="#63b8ff" stroke="#63b8ff" points="965.62,-118.48 970.36,-109 960.75,-113.45 965.62,-118.48"/>
</a>
</g>
</g>
<!-- Node27&#45;&gt;Node24 -->
<g id="edge31_Node000027_Node000024" class="edge">
<title>Node27&#45;&gt;Node24</title>
<g id="a_edge31_Node000027_Node000024"><a xlink:title=" ">
<path fill="none" stroke="#63b8ff" d="M591,-116.86C629.88,-115.29 697.42,-113.89 755,-119.5 770.18,-120.98 786.57,-123.71 801.34,-126.61"/>
<polygon fill="#63b8ff" stroke="#63b8ff" points="800.77,-130.07 811.27,-128.63 802.17,-123.21 800.77,-130.07"/>
</a>
</g>
</g>
<!-- Node28 -->
<g id="Node000028" class="node">
<title>Node28</title>
<g id="a_Node000028"><a xlink:href="m__model_8fpp_8f90.html#a3583055a84e8cb3f9134c4229a1f57c6" target="_top" xlink:title="This procedure reads an ASCII STL file.">
<polygon fill="white" stroke="#666666" points="751,-71 657,-71 657,-52 751,-52 751,-71"/>
<text text-anchor="middle" x="704" y="-59" font-family="Helvetica,sans-Serif" font-size="10.00">s_read_stl_ascii</text>
</a>
</g>
</g>
<!-- Node27&#45;&gt;Node28 -->
<g id="edge32_Node000027_Node000028" class="edge">
<title>Node27&#45;&gt;Node28</title>
<g id="a_edge32_Node000027_Node000028"><a xlink:title=" ">
<path fill="none" stroke="#63b8ff" d="M583.1,-108.96C606.67,-99.63 642.78,-85.34 669.21,-74.88"/>
<polygon fill="#63b8ff" stroke="#63b8ff" points="670.81,-78.01 678.82,-71.07 668.23,-71.5 670.81,-78.01"/>
</a>
</g>
</g>
<!-- Node30 -->
<g id="Node000030" class="node">
<title>Node30</title>
<g id="a_Node000030"><a xlink:href="m__model_8fpp_8f90.html#aec15eac4bb59ae7bdddfbfddf007d469" target="_top" xlink:title="This procedure reads a binary STL file.">
<polygon fill="white" stroke="#666666" points="755,-147 653,-147 653,-128 755,-128 755,-147"/>
<text text-anchor="middle" x="704" y="-135" font-family="Helvetica,sans-Serif" font-size="10.00">s_read_stl_binary</text>
</a>
</g>
</g>
<!-- Node27&#45;&gt;Node30 -->
<g id="edge37_Node000027_Node000030" class="edge">
<title>Node27&#45;&gt;Node30</title>
<g id="a_edge37_Node000027_Node000030"><a xlink:title=" ">
<path fill="none" stroke="#63b8ff" d="M591.32,-122.76C606.5,-124.77 625.1,-127.22 642.74,-129.55"/>
<polygon fill="#63b8ff" stroke="#63b8ff" points="642.61,-133.06 652.98,-130.9 643.52,-126.12 642.61,-133.06"/>
</a>
</g>
</g>
<!-- Node28&#45;&gt;Node24 -->
<g id="edge34_Node000028_Node000024" class="edge">
<title>Node28&#45;&gt;Node24</title>
<g id="a_edge34_Node000028_Node000024"><a xlink:title=" ">
<path fill="none" stroke="#63b8ff" d="M728.43,-71.02C737.09,-74.97 746.79,-79.94 755,-85.5 772.98,-97.66 772.26,-107.54 791,-118.5 794.6,-120.61 798.47,-122.51 802.43,-124.24"/>
<polygon fill="#63b8ff" stroke="#63b8ff" points="801.19,-127.51 811.78,-127.92 803.76,-121 801.19,-127.51"/>
</a>
</g>
</g>
<!-- Node28&#45;&gt;Node26 -->
<g id="edge33_Node000028_Node000026" class="edge">
<title>Node28&#45;&gt;Node26</title>
<g id="a_edge33_Node000028_Node000026"><a xlink:title=" ">
<path fill="none" stroke="#63b8ff" d="M751.08,-63.55C792.62,-65.92 855.26,-70.83 909,-80.5 918.72,-82.25 929.06,-84.69 938.73,-87.25"/>
<polygon fill="#63b8ff" stroke="#63b8ff" points="937.95,-90.67 948.52,-89.93 939.8,-83.91 937.95,-90.67"/>
</a>
</g>
</g>
<!-- Node29 -->
<g id="Node000029" class="node">
<title>Node29</title>
<g id="a_Node000029"><a xlink:href="m__model_8fpp_8f90.html#a0cc3e8189f9ed02b8f1bf84ba77e07c0" target="_top" xlink:title=" ">
<polygon fill="white" stroke="#666666" points="909,-109 791,-109 791,-90 909,-90 909,-109"/>
<text text-anchor="middle" x="850" y="-97" font-family="Helvetica,sans-Serif" font-size="10.00">s_skip_ignored_lines</text>
</a>
</g>
</g>
<!-- Node28&#45;&gt;Node29 -->
<g id="edge35_Node000028_Node000029" class="edge">
<title>Node28&#45;&gt;Node29</title>
<g id="a_edge35_Node000028_Node000029"><a xlink:title=" ">
<path fill="none" stroke="#63b8ff" d="M741.34,-71.09C760.08,-76.04 783.14,-82.12 803.11,-87.39"/>
<polygon fill="#63b8ff" stroke="#63b8ff" points="802.36,-90.81 812.92,-89.98 804.15,-84.04 802.36,-90.81"/>
</a>
</g>
</g>
<!-- Node29&#45;&gt;Node26 -->
<g id="edge36_Node000029_Node000026" class="edge">
<title>Node29&#45;&gt;Node26</title>
<g id="a_edge36_Node000029_Node000026"><a xlink:title=" ">
<path fill="none" stroke="#63b8ff" d="M909.23,-99.5C917.83,-99.5 926.56,-99.5 934.82,-99.5"/>
<polygon fill="#63b8ff" stroke="#63b8ff" points="934.98,-103 944.98,-99.5 934.98,-96 934.98,-103"/>
</a>
</g>
</g>
<!-- Node30&#45;&gt;Node24 -->
<g id="edge38_Node000030_Node000024" class="edge">
<title>Node30&#45;&gt;Node24</title>
<g id="a_edge38_Node000030_Node000024"><a xlink:title=" ">
<path fill="none" stroke="#63b8ff" d="M755.36,-137.5C770.11,-137.5 786.2,-137.5 800.81,-137.5"/>
<polygon fill="#63b8ff" stroke="#63b8ff" points="801.15,-141 811.15,-137.5 801.15,-134 801.15,-141"/>
</a>
</g>
</g>
<!-- Node33 -->
<g id="Node000033" class="node">
<title>Node33</title>
<g id="a_Node000033"><a xlink:href="m__helper_8fpp_8f90.html#a0e3c0b7ec7d8eee1b8b802c364cf0081" target="_top" xlink:title="This procedure transforms a triangle by a matrix, one vertex at a time.">
<polygon fill="white" stroke="#666666" points="617,-53 499,-53 499,-34 617,-34 617,-53"/>
<text text-anchor="middle" x="558" y="-41" font-family="Helvetica,sans-Serif" font-size="10.00">s_transform_triangle</text>
</a>
</g>
</g>
<!-- Node32&#45;&gt;Node33 -->
<g id="edge41_Node000032_Node000033" class="edge">
<title>Node32&#45;&gt;Node33</title>
<g id="a_edge41_Node000032_Node000033"><a xlink:title=" ">
<path fill="none" stroke="#63b8ff" d="M435.17,-91.93C444.21,-89.05 454.04,-85.78 463,-82.5 484.38,-74.67 508.04,-64.84 526.29,-57.01"/>
<polygon fill="#63b8ff" stroke="#63b8ff" points="527.76,-60.19 535.55,-53.01 524.98,-53.76 527.76,-60.19"/>
</a>
</g>
</g>
<!-- Node34 -->
<g id="Node000034" class="node">
<title>Node34</title>
<g id="a_Node000034"><a xlink:href="m__helper_8fpp_8f90.html#ae401e6ec49c4c7340e19c04a0abe836a" target="_top" xlink:title="This procedure transforms a vector by a matrix.">
<polygon fill="white" stroke="#666666" points="753,-34 655,-34 655,-15 753,-15 753,-34"/>
<text text-anchor="middle" x="704" y="-22" font-family="Helvetica,sans-Serif" font-size="10.00">s_transform_vec</text>
</a>
</g>
</g>
<!-- Node33&#45;&gt;Node34 -->
<g id="edge42_Node000033_Node000034" class="edge">
<title>Node33&#45;&gt;Node34</title>
<g id="a_edge42_Node000033_Node000034"><a xlink:title=" ">
<path fill="none" stroke="#63b8ff" d="M617.16,-35.83C626.23,-34.63 635.61,-33.39 644.69,-32.19"/>
<polygon fill="#63b8ff" stroke="#63b8ff" points="645.32,-35.64 654.77,-30.86 644.4,-28.7 645.32,-35.64"/>
</a>
</g>
</g>
<!-- Node36&#45;&gt;Node7 -->
<g id="edge45_Node000036_Node000007" class="edge">
<title>Node36&#45;&gt;Node7</title>
<g id="a_edge45_Node000036_Node000007"><a xlink:title=" ">
<path fill="none" stroke="#63b8ff" d="M267.64,-460.11C285.83,-464.24 310.05,-469.74 332.88,-474.92"/>
<polygon fill="#63b8ff" stroke="#63b8ff" points="332.38,-478.4 342.91,-477.2 333.93,-471.57 332.38,-478.4"/>
</a>
</g>
</g>
<!-- Node37&#45;&gt;Node7 -->
<g id="edge47_Node000037_Node000007" class="edge">
<title>Node37&#45;&gt;Node7</title>
<g id="a_edge47_Node000037_Node000007"><a xlink:title=" ">
<path fill="none" stroke="#63b8ff" d="M284.4,-389.11C291.88,-391.6 299.35,-394.69 306,-398.5 337.21,-416.39 365.9,-446.72 383.52,-467.63"/>
<polygon fill="#63b8ff" stroke="#63b8ff" points="380.87,-469.92 389.93,-475.41 386.27,-465.47 380.87,-469.92"/>
</a>
</g>
</g>
<!-- Node38 -->
<g id="Node000038" class="node">
<title>Node38</title>
<g id="a_Node000038"><a xlink:href="m__patches_8fpp_8f90.html#a07620469b61321f2795f545a9e98cd30" target="_top" xlink:title=" ">
<polygon fill="white" stroke="#666666" points="462,-394.5 343,-394.5 343,-364.5 462,-364.5 462,-394.5"/>
<text text-anchor="start" x="351" y="-382.5" font-family="Helvetica,sans-Serif" font-size="10.00">s_convert_cylindrical</text>
<text text-anchor="middle" x="402.5" y="-371.5" font-family="Helvetica,sans-Serif" font-size="10.00">_to_spherical_coord</text>
</a>
</g>
</g>
<!-- Node37&#45;&gt;Node38 -->
<g id="edge48_Node000037_Node000038" class="edge">
<title>Node37&#45;&gt;Node38</title>
<g id="a_edge48_Node000037_Node000038"><a xlink:title=" ">
<path fill="none" stroke="#63b8ff" d="M298.73,-379.5C309.77,-379.5 321.37,-379.5 332.64,-379.5"/>
<polygon fill="#63b8ff" stroke="#63b8ff" points="332.87,-383 342.87,-379.5 332.87,-376 332.87,-383"/>
</a>
</g>
</g>
<!-- Node40 -->
<g id="Node000040" class="node">
<title>Node40</title>
<g id="a_Node000040"><a xlink:href="m__patches_8fpp_8f90.html#ad6b8b34904846ffb6346ae50f08d5410" target="_top" xlink:title="Archimedes spiral function.">
<polygon fill="white" stroke="#666666" points="417,-19 388,-19 388,0 417,0 417,-19"/>
<text text-anchor="middle" x="402.5" y="-7" font-family="Helvetica,sans-Serif" font-size="10.00">f_r</text>
</a>
</g>
</g>
<!-- Node39&#45;&gt;Node40 -->
<g id="edge50_Node000039_Node000040" class="edge">
<title>Node39&#45;&gt;Node40</title>
<g id="a_edge50_Node000039_Node000040"><a xlink:title=" ">
<path fill="none" stroke="#63b8ff" d="M264.65,-77.75C277.38,-74.55 292.76,-70.07 306,-64.5 320.48,-58.41 355.67,-37.5 379.05,-23.29"/>
<polygon fill="#63b8ff" stroke="#63b8ff" points="380.95,-26.24 387.66,-18.04 377.3,-20.26 380.95,-26.24"/>
</a>
</g>
</g>
<!-- Node40&#45;&gt;Node40 -->
<g id="edge51_Node000040_Node000040" class="edge">
<title>Node40&#45;&gt;Node40</title>
<g id="a_edge51_Node000040_Node000040"><a xlink:title=" ">
<path fill="none" stroke="#63b8ff" d="M387.9,-14.1C364.85,-23.71 369.71,-37 402.5,-37 429.91,-37 437.8,-27.71 426.19,-19.05"/>
<polygon fill="#63b8ff" stroke="#63b8ff" points="427.56,-15.81 417.1,-14.1 424.21,-21.95 427.56,-15.81"/>
</a>
</g>
</g>
<!-- Node42&#45;&gt;Node7 -->
<g id="edge54_Node000042_Node000007" class="edge">
<title>Node42&#45;&gt;Node7</title>
<g id="a_edge54_Node000042_Node000007"><a xlink:title=" ">
<path fill="none" stroke="#63b8ff" d="M278.68,-426.04C287.81,-428.69 297.36,-431.86 306,-435.5 328.43,-444.94 352.14,-458.58 370.33,-469.91"/>
<polygon fill="#63b8ff" stroke="#63b8ff" points="368.46,-472.87 378.79,-475.26 372.21,-466.95 368.46,-472.87"/>
</a>
</g>
</g>
</g>
</svg>
