<?xml version="1.0" encoding="UTF-8" standalone="no"?>
<!DOCTYPE svg PUBLIC "-//W3C//DTD SVG 1.1//EN"
 "http://www.w3.org/Graphics/SVG/1.1/DTD/svg11.dtd">
<!-- Generated by graphviz version 2.43.0 (0)
 -->
<!-- Title: s_model Pages: 1 -->
<!--zoomable 442 -->

<svg id="main" version="1.1" xmlns="http://www.w3.org/2000/svg" xmlns:xlink="http://www.w3.org/1999/xlink" xml:space="preserve" onload="init(evt)">
<style type="text/css"><![CDATA[
.node, .edge {opacity: 0.7;}
.node.selected, .edge.selected {opacity: 1;}
.edge:hover path { stroke: red; }
.edge:hover polygon { stroke: red; fill: red; }
]]></style>

<defs>
  <circle id="rim" cx="0" cy="0" r="7"/>
  <circle id="rim2" cx="0" cy="0" r="3.5"/>
  <g id="zoomPlus">
    <use xlink:href="#rim" fill="#404040"><set attributeName="fill" to="#808080" begin="zoomplus.mouseover" end="zoomplus.mouseout"/></use>
    <path d="M-4,0h8M0,-4v8" fill="none" stroke="white" stroke-width="1.5" pointer-events="none"/>
  </g>
  <g id="zoomMin">
    <use xlink:href="#rim" fill="#404040"><set attributeName="fill" to="#808080" begin="zoomminus.mouseover" end="zoomminus.mouseout"/></use>
    <path d="M-4,0h8" fill="none" stroke="white" stroke-width="1.5" pointer-events="none"/>
  </g>
  <g id="arrowUp" transform="translate(30 24)">
    <use xlink:href="#rim"/>
    <path pointer-events="none" fill="none" stroke="white" stroke-width="1.5" d="M0,-3.0v7 M-2.5,-0.5L0,-3.0L2.5,-0.5"/>
  </g>
  <g id="arrowRight" transform="rotate(90) translate(36 -43)">
    <use xlink:href="#rim"/>
    <path pointer-events="none" fill="none" stroke="white" stroke-width="1.5" d="M0,-3.0v7 M-2.5,-0.5L0,-3.0L2.5,-0.5"/>
  </g>
  <g id="arrowDown" transform="rotate(180) translate(-30 -48)">
    <use xlink:href="#rim"/>
    <path pointer-events="none" fill="none" stroke="white" stroke-width="1.5" d="M0,-3.0v7 M-2.5,-0.5L0,-3.0L2.5,-0.5"/>
  </g>
  <g id="arrowLeft" transform="rotate(270) translate(-36 17)">
    <use xlink:href="#rim"/>
    <path pointer-events="none" fill="none" stroke="white" stroke-width="1.5" d="M0,-3.0v7 M-2.5,-0.5L0,-3.0L2.5,-0.5"/>
  </g>
  <g id="resetDef">
    <use xlink:href="#rim2" fill="#404040"><set attributeName="fill" to="#808080" begin="reset.mouseover" end="reset.mouseout"/></use>
  </g>
</defs>
<script type="application/ecmascript">
var viewWidth = 816;
var viewHeight = 442;
var sectionId = 'dynsection-22';
</script>
<script type="application/ecmascript" xlink:href="svg.min.js"/>
<svg id="graph" class="graph">
<g id="viewport">
<title>s_model</title>
<!-- Node1 -->
<g id="Node000001" class="node">
<title>Node1</title>
<g id="a_Node000001"><a xlink:title="The STL patch is a 2/3D geometry that is imported from an STL file.">
<polygon fill="#999999" stroke="#666666" points="58,-214 0,-214 0,-195 58,-195 58,-214"/>
<text text-anchor="middle" x="29" y="-202" font-family="Helvetica,sans-Serif" font-size="10.00">s_model</text>
</a>
</g>
</g>
<!-- Node2 -->
<g id="Node000002" class="node">
<title>Node2</title>
<g id="a_Node000002"><a xlink:href="m__helper_8fpp_8f90.html#a88808ee0f14fe4e145a538646dc9ba73" target="_top" xlink:title="This procedure creates a bounding box for a model.">
<polygon fill="white" stroke="#666666" points="343,-434 257,-434 257,-415 343,-415 343,-434"/>
<text text-anchor="middle" x="300" y="-422" font-family="Helvetica,sans-Serif" font-size="10.00">f_create_bbox</text>
</a>
</g>
</g>
<!-- Node1&#45;&gt;Node2 -->
<g id="edge1_Node000001_Node000002" class="edge">
<title>Node1&#45;&gt;Node2</title>
<g id="a_edge1_Node000001_Node000002"><a xlink:title=" ">
<path fill="none" stroke="#63b8ff" d="M30.17,-214.38C31.26,-245.44 39.13,-341.82 94,-388.5 136.13,-424.34 201.17,-430.19 246.67,-429.1"/>
<polygon fill="#63b8ff" stroke="#63b8ff" points="247.05,-432.59 256.92,-428.73 246.8,-425.6 247.05,-432.59"/>
</a>
</g>
</g>
<!-- Node3 -->
<g id="Node000003" class="node">
<title>Node3</title>
<g id="a_Node000003"><a xlink:href="m__helper_8fpp_8f90.html#aafb2d0e9e3e66d3f3714f0ad3349bc8f" target="_top" xlink:title="This procedure creates a transformation matrix.">
<polygon fill="white" stroke="#666666" points="204.5,-262.5 94.5,-262.5 94.5,-232.5 204.5,-232.5 204.5,-262.5"/>
<text text-anchor="start" x="102.5" y="-250.5" font-family="Helvetica,sans-Serif" font-size="10.00">f_create_transform</text>
<text text-anchor="middle" x="149.5" y="-239.5" font-family="Helvetica,sans-Serif" font-size="10.00">_matrix</text>
</a>
</g>
</g>
<!-- Node1&#45;&gt;Node3 -->
<g id="edge2_Node000001_Node000003" class="edge">
<title>Node1&#45;&gt;Node3</title>
<g id="a_edge2_Node000001_Node000003"><a xlink:title=" ">
<path fill="none" stroke="#63b8ff" d="M56.3,-214.04C68.38,-218.43 83.13,-223.78 97.27,-228.91"/>
<polygon fill="#63b8ff" stroke="#63b8ff" points="96.32,-232.29 106.91,-232.41 98.71,-225.71 96.32,-232.29"/>
</a>
</g>
</g>
<!-- Node4 -->
<g id="Node000004" class="node">
<title>Node4</title>
<g id="a_Node000004"><a xlink:href="m__model_8fpp_8f90.html#a1b9b22c1f17d46b41f2d227e1636f3a5" target="_top" xlink:title="This procedure reads a mesh from a file.">
<polygon fill="white" stroke="#666666" points="191,-214 108,-214 108,-195 191,-195 191,-214"/>
<text text-anchor="middle" x="149.5" y="-202" font-family="Helvetica,sans-Serif" font-size="10.00">f_model_read</text>
</a>
</g>
</g>
<!-- Node1&#45;&gt;Node4 -->
<g id="edge3_Node000001_Node000004" class="edge">
<title>Node1&#45;&gt;Node4</title>
<g id="a_edge3_Node000001_Node000004"><a xlink:title=" ">
<path fill="none" stroke="#63b8ff" d="M58.08,-204.5C69.86,-204.5 83.94,-204.5 97.44,-204.5"/>
<polygon fill="#63b8ff" stroke="#63b8ff" points="97.6,-208 107.6,-204.5 97.6,-201 97.6,-208"/>
</a>
</g>
</g>
<!-- Node12 -->
<g id="Node000012" class="node">
<title>Node12</title>
<g id="a_Node000012"><a xlink:href="m__octree_8fpp_8f90.html#a514b1883b7eb6555909ba441983ff214" target="_top" xlink:title="This procedure creates an octree from a mesh.">
<polygon fill="white" stroke="#666666" points="195.5,-379 103.5,-379 103.5,-360 195.5,-360 195.5,-379"/>
<text text-anchor="middle" x="149.5" y="-367" font-family="Helvetica,sans-Serif" font-size="10.00">f_octree_create</text>
</a>
</g>
</g>
<!-- Node1&#45;&gt;Node12 -->
<g id="edge17_Node000001_Node000012" class="edge">
<title>Node1&#45;&gt;Node12</title>
<g id="a_edge17_Node000001_Node000012"><a xlink:title=" ">
<path fill="none" stroke="#63b8ff" d="M33.78,-214.07C42.37,-235.11 64.91,-286.38 94,-322.5 103.4,-334.17 115.95,-345.22 126.64,-353.67"/>
<polygon fill="#63b8ff" stroke="#63b8ff" points="124.65,-356.56 134.72,-359.85 128.91,-351 124.65,-356.56"/>
</a>
</g>
</g>
<!-- Node17 -->
<g id="Node000017" class="node">
<title>Node17</title>
<g id="a_Node000017"><a xlink:href="m__octree_8fpp_8f90.html#a4af99bba59c39aed6f2eb2ba5c80cb35" target="_top" xlink:title="This procedure, recursively, finds whether a point is inside an octree.">
<polygon fill="white" stroke="#666666" points="201.5,-313 97.5,-313 97.5,-294 201.5,-294 201.5,-313"/>
<text text-anchor="middle" x="149.5" y="-301" font-family="Helvetica,sans-Serif" font-size="10.00">f_octree_is_inside</text>
</a>
</g>
</g>
<!-- Node1&#45;&gt;Node17 -->
<g id="edge24_Node000001_Node000017" class="edge">
<title>Node1&#45;&gt;Node17</title>
<g id="a_edge24_Node000001_Node000017"><a xlink:title=" ">
<path fill="none" stroke="#63b8ff" d="M37.95,-214.42C49.38,-228.28 71.55,-253.73 94,-271.5 102.11,-277.92 111.63,-283.95 120.44,-289.01"/>
<polygon fill="#63b8ff" stroke="#63b8ff" points="118.81,-292.11 129.25,-293.9 122.21,-285.99 118.81,-292.11"/>
</a>
</g>
</g>
<!-- Node21 -->
<g id="Node000021" class="node">
<title>Node21</title>
<g id="a_Node000021"><a xlink:href="m__model_8fpp_8f90.html#a4e5b0d533feecd52aec31ccffa94d0c5" target="_top" xlink:title="This procedure frees the memory allocated for an STL mesh.">
<polygon fill="white" stroke="#666666" points="191,-138 108,-138 108,-119 191,-119 191,-138"/>
<text text-anchor="middle" x="149.5" y="-126" font-family="Helvetica,sans-Serif" font-size="10.00">s_model_free</text>
</a>
</g>
</g>
<!-- Node1&#45;&gt;Node21 -->
<g id="edge30_Node000001_Node000021" class="edge">
<title>Node1&#45;&gt;Node21</title>
<g id="a_edge30_Node000001_Node000021"><a xlink:title=" ">
<path fill="none" stroke="#63b8ff" d="M40.21,-194.74C52.33,-183.52 73.48,-165.04 94,-152.5 100.1,-148.77 106.89,-145.3 113.55,-142.23"/>
<polygon fill="#63b8ff" stroke="#63b8ff" points="115.36,-145.25 123.1,-138.02 112.54,-138.85 115.36,-145.25"/>
</a>
</g>
</g>
<!-- Node22 -->
<g id="Node000022" class="node">
<title>Node22</title>
<g id="a_Node000022"><a xlink:href="m__model_8fpp_8f90.html#a6ab58ad9fd412fd5c45fee60db584a41" target="_top" xlink:title="This procedure writes a binary STL file.">
<polygon fill="white" stroke="#666666" points="344,-150 256,-150 256,-131 344,-131 344,-150"/>
<text text-anchor="middle" x="300" y="-138" font-family="Helvetica,sans-Serif" font-size="10.00">s_model_write</text>
</a>
</g>
</g>
<!-- Node1&#45;&gt;Node22 -->
<g id="edge31_Node000001_Node000022" class="edge">
<title>Node1&#45;&gt;Node22</title>
<g id="a_edge31_Node000001_Node000022"><a xlink:title=" ">
<path fill="none" stroke="#63b8ff" d="M58.27,-196.2C69.37,-193.03 82.25,-189.47 94,-186.5 145.29,-173.54 204.27,-160.5 245.76,-151.63"/>
<polygon fill="#63b8ff" stroke="#63b8ff" points="246.6,-155.03 255.65,-149.52 245.14,-148.18 246.6,-155.03"/>
</a>
</g>
</g>
<!-- Node25 -->
<g id="Node000025" class="node">
<title>Node25</title>
<g id="a_Node000025"><a xlink:href="m__octree_8fpp_8f90.html#aef61410b6740284758fcc4e70841d261" target="_top" xlink:title="This procedure frees the memory associated with an octree.">
<polygon fill="white" stroke="#666666" points="191,-83 108,-83 108,-64 191,-64 191,-83"/>
<text text-anchor="middle" x="149.5" y="-71" font-family="Helvetica,sans-Serif" font-size="10.00">s_octree_free</text>
</a>
</g>
</g>
<!-- Node1&#45;&gt;Node25 -->
<g id="edge37_Node000001_Node000025" class="edge">
<title>Node1&#45;&gt;Node25</title>
<g id="a_edge37_Node000001_Node000025"><a xlink:title=" ">
<path fill="none" stroke="#63b8ff" d="M34.97,-194.83C44.59,-176.77 67.18,-137.29 94,-110.5 102.34,-102.17 112.8,-94.55 122.32,-88.42"/>
<polygon fill="#63b8ff" stroke="#63b8ff" points="124.39,-91.26 131.06,-83.02 120.71,-85.3 124.39,-91.26"/>
</a>
</g>
</g>
<!-- Node26 -->
<g id="Node000026" class="node">
<title>Node26</title>
<g id="a_Node000026"><a xlink:href="m__helper_8fpp_8f90.html#a77ee798a317ff1eb8d3c50a7407010ba" target="_top" xlink:title="This procedure transforms a model by a matrix, one triangle at a time.">
<polygon fill="white" stroke="#666666" points="205,-41 94,-41 94,-22 205,-22 205,-41"/>
<text text-anchor="middle" x="149.5" y="-29" font-family="Helvetica,sans-Serif" font-size="10.00">s_transform_model</text>
</a>
</g>
</g>
<!-- Node1&#45;&gt;Node26 -->
<g id="edge39_Node000001_Node000026" class="edge">
<title>Node1&#45;&gt;Node26</title>
<g id="a_edge39_Node000001_Node000026"><a xlink:title=" ">
<path fill="none" stroke="#63b8ff" d="M31.57,-194.66C36.26,-168.41 52.48,-95.86 94,-54.5 97.41,-51.1 101.4,-48.17 105.65,-45.66"/>
<polygon fill="#63b8ff" stroke="#63b8ff" points="107.31,-48.75 114.61,-41.07 104.11,-42.52 107.31,-48.75"/>
</a>
</g>
</g>
<!-- Node5 -->
<g id="Node000005" class="node">
<title>Node5</title>
<g id="a_Node000005"><a xlink:href="m__mpi__common_8fpp_8f90.html#ad9e1329e498b65ad4256658675d6f797" target="_top" xlink:title="The subroutine terminates the MPI execution environment.">
<polygon fill="white" stroke="#666666" points="677.5,-188 600.5,-188 600.5,-169 677.5,-169 677.5,-188"/>
<text text-anchor="middle" x="639" y="-176" font-family="Helvetica,sans-Serif" font-size="10.00">s_mpi_abort</text>
</a>
</g>
</g>
<!-- Node4&#45;&gt;Node5 -->
<g id="edge4_Node000004_Node000005" class="edge">
<title>Node4&#45;&gt;Node5</title>
<g id="a_edge4_Node000004_Node000005"><a xlink:title=" ">
<path fill="none" stroke="#63b8ff" d="M191.23,-202.33C280.78,-197.55 494.43,-186.16 590.17,-181.05"/>
<polygon fill="#63b8ff" stroke="#63b8ff" points="590.63,-184.53 600.43,-180.5 590.25,-177.54 590.63,-184.53"/>
</a>
</g>
</g>
<!-- Node6 -->
<g id="Node000006" class="node">
<title>Node6</title>
<g id="a_Node000006"><a xlink:href="m__model_8fpp_8f90.html#a0dd1f9451362655b63a76e288a3f92db" target="_top" xlink:title="This procedure reads an OBJ file.">
<polygon fill="white" stroke="#666666" points="502.5,-56 433.5,-56 433.5,-37 502.5,-37 502.5,-56"/>
<text text-anchor="middle" x="468" y="-44" font-family="Helvetica,sans-Serif" font-size="10.00">s_read_obj</text>
</a>
</g>
</g>
<!-- Node4&#45;&gt;Node6 -->
<g id="edge5_Node000004_Node000006" class="edge">
<title>Node4&#45;&gt;Node6</title>
<g id="a_edge5_Node000004_Node000006"><a xlink:title=" ">
<path fill="none" stroke="#63b8ff" d="M158.75,-194.75C173.58,-177.8 206.43,-142.77 241,-122.5 299.72,-88.07 376.25,-66.52 423.48,-55.5"/>
<polygon fill="#63b8ff" stroke="#63b8ff" points="424.41,-58.88 433.39,-53.24 422.86,-52.05 424.41,-58.88"/>
</a>
</g>
</g>
<!-- Node8 -->
<g id="Node000008" class="node">
<title>Node8</title>
<g id="a_Node000008"><a xlink:href="m__model_8fpp_8f90.html#a05ca98cfdb3880758fd6cb1538a9acd7" target="_top" xlink:title="This procedure reads an STL file.">
<polygon fill="white" stroke="#666666" points="333,-272 267,-272 267,-253 333,-253 333,-272"/>
<text text-anchor="middle" x="300" y="-260" font-family="Helvetica,sans-Serif" font-size="10.00">s_read_stl</text>
</a>
</g>
</g>
<!-- Node4&#45;&gt;Node8 -->
<g id="edge8_Node000004_Node000008" class="edge">
<title>Node4&#45;&gt;Node8</title>
<g id="a_edge8_Node000004_Node000008"><a xlink:title=" ">
<path fill="none" stroke="#63b8ff" d="M178.9,-214.05C187.34,-216.98 196.57,-220.29 205,-223.5 226.13,-231.56 249.63,-241.31 267.85,-249.04"/>
<polygon fill="#63b8ff" stroke="#63b8ff" points="266.54,-252.29 277.11,-253 269.29,-245.85 266.54,-252.29"/>
</a>
</g>
</g>
<!-- Node6&#45;&gt;Node5 -->
<g id="edge7_Node000006_Node000005" class="edge">
<title>Node6&#45;&gt;Node5</title>
<g id="a_edge7_Node000006_Node000005"><a xlink:title=" ">
<path fill="none" stroke="#63b8ff" d="M502.52,-53.78C515.24,-57.51 529.43,-62.91 541,-70.5 578.03,-94.78 609.91,-136.6 626.28,-160.45"/>
<polygon fill="#63b8ff" stroke="#63b8ff" points="623.48,-162.55 631.95,-168.91 629.29,-158.66 623.48,-162.55"/>
</a>
</g>
</g>
<!-- Node7 -->
<g id="Node000007" class="node">
<title>Node7</title>
<g id="a_Node000007"><a xlink:href="m__model_8fpp_8f90.html#accb621c002a9aa99ef7acf0aa84c2b50" target="_top" xlink:title=" ">
<polygon fill="white" stroke="#666666" points="808,-282 737,-282 737,-263 808,-263 808,-282"/>
<text text-anchor="middle" x="772.5" y="-270" font-family="Helvetica,sans-Serif" font-size="10.00">f_read_line</text>
</a>
</g>
</g>
<!-- Node6&#45;&gt;Node7 -->
<g id="edge6_Node000006_Node000007" class="edge">
<title>Node6&#45;&gt;Node7</title>
<g id="a_edge6_Node000006_Node000007"><a xlink:title=" ">
<path fill="none" stroke="#63b8ff" d="M501.52,-56.13C549.65,-71.67 640.63,-106.16 701,-160.5 730.74,-187.26 752.64,-229.44 763.6,-253.67"/>
<polygon fill="#63b8ff" stroke="#63b8ff" points="760.41,-255.11 767.63,-262.86 766.82,-252.3 760.41,-255.11"/>
</a>
</g>
</g>
<!-- Node8&#45;&gt;Node5 -->
<g id="edge9_Node000008_Node000005" class="edge">
<title>Node8&#45;&gt;Node5</title>
<g id="a_edge9_Node000008_Node000005"><a xlink:title=" ">
<path fill="none" stroke="#63b8ff" d="M333.12,-256.93C379.44,-248.61 467.49,-231.74 541,-211.5 561.93,-205.74 584.96,-197.97 603.32,-191.41"/>
<polygon fill="#63b8ff" stroke="#63b8ff" points="604.51,-194.71 612.73,-188.02 602.13,-188.12 604.51,-194.71"/>
</a>
</g>
</g>
<!-- Node9 -->
<g id="Node000009" class="node">
<title>Node9</title>
<g id="a_Node000009"><a xlink:href="m__model_8fpp_8f90.html#a3583055a84e8cb3f9134c4229a1f57c6" target="_top" xlink:title="This procedure reads an ASCII STL file.">
<polygon fill="white" stroke="#666666" points="515,-320 421,-320 421,-301 515,-301 515,-320"/>
<text text-anchor="middle" x="468" y="-308" font-family="Helvetica,sans-Serif" font-size="10.00">s_read_stl_ascii</text>
</a>
</g>
</g>
<!-- Node8&#45;&gt;Node9 -->
<g id="edge10_Node000008_Node000009" class="edge">
<title>Node8&#45;&gt;Node9</title>
<g id="a_edge10_Node000008_Node000009"><a xlink:title=" ">
<path fill="none" stroke="#63b8ff" d="M329.24,-272.03C347.83,-278.18 372.76,-286.18 395,-292.5 402.07,-294.51 409.57,-296.52 416.95,-298.43"/>
<polygon fill="#63b8ff" stroke="#63b8ff" points="416.34,-301.88 426.89,-300.96 418.06,-295.1 416.34,-301.88"/>
</a>
</g>
</g>
<!-- Node11 -->
<g id="Node000011" class="node">
<title>Node11</title>
<g id="a_Node000011"><a xlink:href="m__model_8fpp_8f90.html#aec15eac4bb59ae7bdddfbfddf007d469" target="_top" xlink:title="This procedure reads a binary STL file.">
<polygon fill="white" stroke="#666666" points="519,-283 417,-283 417,-264 519,-264 519,-283"/>
<text text-anchor="middle" x="468" y="-271" font-family="Helvetica,sans-Serif" font-size="10.00">s_read_stl_binary</text>
</a>
</g>
</g>
<!-- Node8&#45;&gt;Node11 -->
<g id="edge15_Node000008_Node000011" class="edge">
<title>Node8&#45;&gt;Node11</title>
<g id="a_edge15_Node000008_Node000011"><a xlink:title=" ">
<path fill="none" stroke="#63b8ff" d="M333.01,-264.62C353.87,-266 381.76,-267.85 406.69,-269.5"/>
<polygon fill="#63b8ff" stroke="#63b8ff" points="406.59,-273 416.8,-270.17 407.05,-266.02 406.59,-273"/>
</a>
</g>
</g>
<!-- Node9&#45;&gt;Node5 -->
<g id="edge12_Node000009_Node000005" class="edge">
<title>Node9&#45;&gt;Node5</title>
<g id="a_edge12_Node000009_Node000005"><a xlink:title=" ">
<path fill="none" stroke="#63b8ff" d="M515.28,-303.44C524.23,-300.86 533.23,-297.32 541,-292.5 561.52,-279.77 603.38,-225.42 624.77,-196.61"/>
<polygon fill="#63b8ff" stroke="#63b8ff" points="627.83,-198.36 630.95,-188.23 622.2,-194.2 627.83,-198.36"/>
</a>
</g>
</g>
<!-- Node9&#45;&gt;Node7 -->
<g id="edge11_Node000009_Node000007" class="edge">
<title>Node9&#45;&gt;Node7</title>
<g id="a_edge11_Node000009_Node000007"><a xlink:title=" ">
<path fill="none" stroke="#63b8ff" d="M515.15,-302.15C534.25,-298.87 556.65,-295.24 577,-292.5 628.26,-285.6 687.41,-279.83 726.9,-276.29"/>
<polygon fill="#63b8ff" stroke="#63b8ff" points="727.34,-279.76 736.99,-275.39 726.72,-272.79 727.34,-279.76"/>
</a>
</g>
</g>
<!-- Node10 -->
<g id="Node000010" class="node">
<title>Node10</title>
<g id="a_Node000010"><a xlink:href="m__model_8fpp_8f90.html#a0cc3e8189f9ed02b8f1bf84ba77e07c0" target="_top" xlink:title=" ">
<polygon fill="white" stroke="#666666" points="698,-320 580,-320 580,-301 698,-301 698,-320"/>
<text text-anchor="middle" x="639" y="-308" font-family="Helvetica,sans-Serif" font-size="10.00">s_skip_ignored_lines</text>
</a>
</g>
</g>
<!-- Node9&#45;&gt;Node10 -->
<g id="edge13_Node000009_Node000010" class="edge">
<title>Node9&#45;&gt;Node10</title>
<g id="a_edge13_Node000009_Node000010"><a xlink:title=" ">
<path fill="none" stroke="#63b8ff" d="M515.18,-310.5C532,-310.5 551.39,-310.5 569.73,-310.5"/>
<polygon fill="#63b8ff" stroke="#63b8ff" points="569.78,-314 579.78,-310.5 569.78,-307 569.78,-314"/>
</a>
</g>
</g>
<!-- Node10&#45;&gt;Node7 -->
<g id="edge14_Node000010_Node000007" class="edge">
<title>Node10&#45;&gt;Node7</title>
<g id="a_edge14_Node000010_Node000007"><a xlink:title=" ">
<path fill="none" stroke="#63b8ff" d="M673.18,-300.91C690,-296.05 710.63,-290.09 728.63,-284.89"/>
<polygon fill="#63b8ff" stroke="#63b8ff" points="729.69,-288.22 738.33,-282.09 727.75,-281.5 729.69,-288.22"/>
</a>
</g>
</g>
<!-- Node11&#45;&gt;Node5 -->
<g id="edge16_Node000011_Node000005" class="edge">
<title>Node11&#45;&gt;Node5</title>
<g id="a_edge16_Node000011_Node000005"><a xlink:title=" ">
<path fill="none" stroke="#63b8ff" d="M505.05,-263.9C516.83,-260.13 529.76,-255.31 541,-249.5 570.59,-234.22 600.97,-210.4 619.67,-194.63"/>
<polygon fill="#63b8ff" stroke="#63b8ff" points="622.08,-197.17 627.39,-188.01 617.52,-191.86 622.08,-197.17"/>
</a>
</g>
</g>
<!-- Node12&#45;&gt;Node2 -->
<g id="edge18_Node000012_Node000002" class="edge">
<title>Node12&#45;&gt;Node2</title>
<g id="a_edge18_Node000012_Node000002"><a xlink:title=" ">
<path fill="none" stroke="#63b8ff" d="M172.24,-379.01C190.44,-386.83 217.19,-397.96 241,-406.5 246.15,-408.35 251.59,-410.18 257,-411.94"/>
<polygon fill="#63b8ff" stroke="#63b8ff" points="256.03,-415.31 266.62,-415 258.15,-408.63 256.03,-415.31"/>
</a>
</g>
</g>
<!-- Node13 -->
<g id="Node000013" class="node">
<title>Node13</title>
<g id="a_Node000013"><a xlink:href="m__octree_8fpp_8f90.html#a99b10f3dd836630734ae099443aae716" target="_top" xlink:title="This procedure builds, recursively, an octree from a set of triangles.">
<polygon fill="white" stroke="#666666" points="342.5,-379 257.5,-379 257.5,-360 342.5,-360 342.5,-379"/>
<text text-anchor="middle" x="300" y="-367" font-family="Helvetica,sans-Serif" font-size="10.00">s_octree_impl</text>
</a>
</g>
</g>
<!-- Node12&#45;&gt;Node13 -->
<g id="edge19_Node000012_Node000013" class="edge">
<title>Node12&#45;&gt;Node13</title>
<g id="a_edge19_Node000012_Node000013"><a xlink:title=" ">
<path fill="none" stroke="#63b8ff" d="M195.86,-369.5C212.11,-369.5 230.54,-369.5 247.28,-369.5"/>
<polygon fill="#63b8ff" stroke="#63b8ff" points="247.46,-373 257.46,-369.5 247.46,-366 247.46,-373"/>
</a>
</g>
</g>
<!-- Node13&#45;&gt;Node13 -->
<g id="edge23_Node000013_Node000013" class="edge">
<title>Node13&#45;&gt;Node13</title>
<g id="a_edge23_Node000013_Node000013"><a xlink:title=" ">
<path fill="none" stroke="#63b8ff" d="M276.88,-379.08C265.63,-387.73 273.34,-397 300,-397 317.5,-397 326.83,-393.01 328,-387.82"/>
<polygon fill="#63b8ff" stroke="#63b8ff" points="331.05,-386.11 323.12,-379.08 324.94,-389.52 331.05,-386.11"/>
</a>
</g>
</g>
<!-- Node14 -->
<g id="Node000014" class="node">
<title>Node14</title>
<g id="a_Node000014"><a xlink:href="m__octree_8fpp_8f90.html#a53f1baf0e463d2c7cbcbd7282e690bc0" target="_top" xlink:title=" ">
<polygon fill="white" stroke="#666666" points="541,-433 395,-433 395,-414 541,-414 541,-433"/>
<text text-anchor="middle" x="468" y="-421" font-family="Helvetica,sans-Serif" font-size="10.00">f_triangle_intersects_bbox</text>
</a>
</g>
</g>
<!-- Node13&#45;&gt;Node14 -->
<g id="edge20_Node000013_Node000014" class="edge">
<title>Node13&#45;&gt;Node14</title>
<g id="a_edge20_Node000013_Node000014"><a xlink:title=" ">
<path fill="none" stroke="#63b8ff" d="M330.3,-379.03C357.47,-387.87 398.11,-401.09 428.02,-410.82"/>
<polygon fill="#63b8ff" stroke="#63b8ff" points="427.13,-414.21 437.72,-413.97 429.29,-407.55 427.13,-414.21"/>
</a>
</g>
</g>
<!-- Node15 -->
<g id="Node000015" class="node">
<title>Node15</title>
<g id="a_Node000015"><a xlink:href="m__octree_8fpp_8f90.html#a2624e7caa267269669c96133c1fc6a51" target="_top" xlink:title="This procedure checks if a ray intersects a bounding box.">
<polygon fill="white" stroke="#666666" points="701,-414 577,-414 577,-395 701,-395 701,-414"/>
<text text-anchor="middle" x="639" y="-402" font-family="Helvetica,sans-Serif" font-size="10.00">f_ray_intersects_bbox</text>
</a>
</g>
</g>
<!-- Node14&#45;&gt;Node15 -->
<g id="edge21_Node000014_Node000015" class="edge">
<title>Node14&#45;&gt;Node15</title>
<g id="a_edge21_Node000014_Node000015"><a xlink:title=" ">
<path fill="none" stroke="#63b8ff" d="M541.16,-415.39C549.74,-414.42 558.49,-413.44 567.05,-412.48"/>
<polygon fill="#63b8ff" stroke="#63b8ff" points="567.44,-415.96 576.98,-411.36 566.66,-409 567.44,-415.96"/>
</a>
</g>
</g>
<!-- Node16 -->
<g id="Node000016" class="node">
<title>Node16</title>
<g id="a_Node000016"><a xlink:href="m__helper_8fpp_8f90.html#af89217ee50179a901a5c9f8fd450cf59" target="_top" xlink:title="This procedure swaps two real numbers.">
<polygon fill="white" stroke="#666666" points="799,-414 746,-414 746,-395 799,-395 799,-414"/>
<text text-anchor="middle" x="772.5" y="-402" font-family="Helvetica,sans-Serif" font-size="10.00">s_swap</text>
</a>
</g>
</g>
<!-- Node15&#45;&gt;Node16 -->
<g id="edge22_Node000015_Node000016" class="edge">
<title>Node15&#45;&gt;Node16</title>
<g id="a_edge22_Node000015_Node000016"><a xlink:title=" ">
<path fill="none" stroke="#63b8ff" d="M701.13,-404.5C713,-404.5 725.08,-404.5 735.79,-404.5"/>
<polygon fill="#63b8ff" stroke="#63b8ff" points="736,-408 746,-404.5 736,-401 736,-408"/>
</a>
</g>
</g>
<!-- Node18 -->
<g id="Node000018" class="node">
<title>Node18</title>
<g id="a_Node000018"><a xlink:href="m__octree_8fpp_8f90.html#af8fa93568348fe58b9ab23f9ff1f7a8d" target="_top" xlink:title="This procedure, recursively, counts the number of triangles intersected by a ray in an octree.">
<polygon fill="white" stroke="#666666" points="356,-324 244,-324 244,-305 356,-305 356,-324"/>
<text text-anchor="middle" x="300" y="-312" font-family="Helvetica,sans-Serif" font-size="10.00">f_octree_count_hits</text>
</a>
</g>
</g>
<!-- Node17&#45;&gt;Node18 -->
<g id="edge25_Node000017_Node000018" class="edge">
<title>Node17&#45;&gt;Node18</title>
<g id="a_edge25_Node000017_Node000018"><a xlink:title=" ">
<path fill="none" stroke="#63b8ff" d="M201.61,-307.29C211.97,-308.05 223,-308.87 233.77,-309.67"/>
<polygon fill="#63b8ff" stroke="#63b8ff" points="233.76,-313.18 244,-310.43 234.28,-306.2 233.76,-313.18"/>
</a>
</g>
</g>
<!-- Node18&#45;&gt;Node15 -->
<g id="edge29_Node000018_Node000015" class="edge">
<title>Node18&#45;&gt;Node15</title>
<g id="a_edge29_Node000018_Node000015"><a xlink:title=" ">
<path fill="none" stroke="#63b8ff" d="M314.61,-324.05C332.28,-335.97 364.48,-356.04 395,-366.5 450.91,-385.66 517.39,-395.21 566.67,-399.94"/>
<polygon fill="#63b8ff" stroke="#63b8ff" points="566.64,-403.45 576.92,-400.88 567.28,-396.48 566.64,-403.45"/>
</a>
</g>
</g>
<!-- Node18&#45;&gt;Node18 -->
<g id="edge28_Node000018_Node000018" class="edge">
<title>Node18&#45;&gt;Node18</title>
<g id="a_edge28_Node000018_Node000018"><a xlink:title=" ">
<path fill="none" stroke="#63b8ff" d="M276.88,-324.08C265.63,-332.73 273.34,-342 300,-342 317.5,-342 326.83,-338.01 328,-332.82"/>
<polygon fill="#63b8ff" stroke="#63b8ff" points="331.05,-331.11 323.12,-324.08 324.94,-334.52 331.05,-331.11"/>
</a>
</g>
</g>
<!-- Node19 -->
<g id="Node000019" class="node">
<title>Node19</title>
<g id="a_Node000019"><a xlink:href="m__octree_8fpp_8f90.html#a6e0ee6fb5b8a3451c19946c713c922d2" target="_top" xlink:title="This procedure checks if a ray intersects a triangle.">
<polygon fill="white" stroke="#666666" points="526,-357 410,-357 410,-338 526,-338 526,-357"/>
<text text-anchor="middle" x="468" y="-345" font-family="Helvetica,sans-Serif" font-size="10.00">f_intersects_triangle</text>
</a>
</g>
</g>
<!-- Node18&#45;&gt;Node19 -->
<g id="edge26_Node000018_Node000019" class="edge">
<title>Node18&#45;&gt;Node19</title>
<g id="a_edge26_Node000018_Node000019"><a xlink:title=" ">
<path fill="none" stroke="#63b8ff" d="M349.01,-324.04C367.77,-327.77 389.44,-332.08 409.05,-335.98"/>
<polygon fill="#63b8ff" stroke="#63b8ff" points="408.6,-339.46 419.09,-337.98 409.97,-332.59 408.6,-339.46"/>
</a>
</g>
</g>
<!-- Node20 -->
<g id="Node000020" class="node">
<title>Node20</title>
<g id="a_Node000020"><a xlink:href="m__helper_8fpp_8f90.html#a453300ff424896c95d5d4169b202f8e2" target="_top" xlink:title="This procedure computes the cross product of two vectors.">
<polygon fill="white" stroke="#666666" points="660,-357 618,-357 618,-338 660,-338 660,-357"/>
<text text-anchor="middle" x="639" y="-345" font-family="Helvetica,sans-Serif" font-size="10.00">cross</text>
</a>
</g>
</g>
<!-- Node19&#45;&gt;Node20 -->
<g id="edge27_Node000019_Node000020" class="edge">
<title>Node19&#45;&gt;Node20</title>
<g id="a_edge27_Node000019_Node000020"><a xlink:title=" ">
<path fill="none" stroke="#63b8ff" d="M526.22,-347.5C553.5,-347.5 585.03,-347.5 607.63,-347.5"/>
<polygon fill="#63b8ff" stroke="#63b8ff" points="607.65,-351 617.65,-347.5 607.65,-344 607.65,-351"/>
</a>
</g>
</g>
<!-- Node22&#45;&gt;Node5 -->
<g id="edge32_Node000022_Node000005" class="edge">
<title>Node22&#45;&gt;Node5</title>
<g id="a_edge32_Node000022_Node000005"><a xlink:title=" ">
<path fill="none" stroke="#63b8ff" d="M319.84,-130.92C338.41,-122.06 367.85,-109.52 395,-104.5 458.81,-92.7 479.53,-83.73 541,-104.5 574.06,-115.67 604.75,-143.12 622.42,-161.26"/>
<polygon fill="#63b8ff" stroke="#63b8ff" points="620.17,-163.98 629.58,-168.85 625.26,-159.18 620.17,-163.98"/>
</a>
</g>
</g>
<!-- Node23 -->
<g id="Node000023" class="node">
<title>Node23</title>
<g id="a_Node000023"><a xlink:href="m__model_8fpp_8f90.html#a453ecd79bc67d64acfc07a75f638fed9" target="_top" xlink:title="This procedure writes an OBJ file.">
<polygon fill="white" stroke="#666666" points="504,-169 432,-169 432,-150 504,-150 504,-169"/>
<text text-anchor="middle" x="468" y="-157" font-family="Helvetica,sans-Serif" font-size="10.00">s_write_obj</text>
</a>
</g>
</g>
<!-- Node22&#45;&gt;Node23 -->
<g id="edge33_Node000022_Node000023" class="edge">
<title>Node22&#45;&gt;Node23</title>
<g id="a_edge33_Node000022_Node000023"><a xlink:title=" ">
<path fill="none" stroke="#63b8ff" d="M344.18,-145.44C368.05,-148.17 397.68,-151.57 421.86,-154.33"/>
<polygon fill="#63b8ff" stroke="#63b8ff" points="421.52,-157.82 431.86,-155.48 422.32,-150.86 421.52,-157.82"/>
</a>
</g>
</g>
<!-- Node24 -->
<g id="Node000024" class="node">
<title>Node24</title>
<g id="a_Node000024"><a xlink:href="m__model_8fpp_8f90.html#a7a9ea3dd9dd2c0b561dae5c10208e128" target="_top" xlink:title="This procedure writes a binary STL file.">
<polygon fill="white" stroke="#666666" points="502.5,-132 433.5,-132 433.5,-113 502.5,-113 502.5,-132"/>
<text text-anchor="middle" x="468" y="-120" font-family="Helvetica,sans-Serif" font-size="10.00">s_write_stl</text>
</a>
</g>
</g>
<!-- Node22&#45;&gt;Node24 -->
<g id="edge35_Node000022_Node000024" class="edge">
<title>Node22&#45;&gt;Node24</title>
<g id="a_edge35_Node000022_Node000024"><a xlink:title=" ">
<path fill="none" stroke="#63b8ff" d="M344.18,-135.82C368.56,-133.17 398.94,-129.88 423.39,-127.23"/>
<polygon fill="#63b8ff" stroke="#63b8ff" points="423.9,-130.69 433.47,-126.14 423.15,-123.73 423.9,-130.69"/>
</a>
</g>
</g>
<!-- Node23&#45;&gt;Node5 -->
<g id="edge34_Node000023_Node000005" class="edge">
<title>Node23&#45;&gt;Node5</title>
<g id="a_edge34_Node000023_Node000005"><a xlink:title=" ">
<path fill="none" stroke="#63b8ff" d="M504.02,-163.44C528.96,-166.24 562.8,-170.05 590.22,-173.13"/>
<polygon fill="#63b8ff" stroke="#63b8ff" points="590.06,-176.63 600.39,-174.27 590.84,-169.68 590.06,-176.63"/>
</a>
</g>
</g>
<!-- Node24&#45;&gt;Node5 -->
<g id="edge36_Node000024_Node000005" class="edge">
<title>Node24&#45;&gt;Node5</title>
<g id="a_edge36_Node000024_Node000005"><a xlink:title=" ">
<path fill="none" stroke="#63b8ff" d="M502.55,-130.56C514.74,-133.7 528.57,-137.5 541,-141.5 562.82,-148.52 586.89,-157.69 605.6,-165.15"/>
<polygon fill="#63b8ff" stroke="#63b8ff" points="604.53,-168.49 615.12,-168.98 607.15,-162 604.53,-168.49"/>
</a>
</g>
</g>
<!-- Node25&#45;&gt;Node25 -->
<g id="edge38_Node000025_Node000025" class="edge">
<title>Node25&#45;&gt;Node25</title>
<g id="a_edge38_Node000025_Node000025"><a xlink:title=" ">
<path fill="none" stroke="#63b8ff" d="M131,-83.08C122.01,-91.73 128.17,-101 149.5,-101 162.83,-101 170.24,-97.38 171.72,-92.55"/>
<polygon fill="#63b8ff" stroke="#63b8ff" points="174.91,-91.11 168,-83.08 168.4,-93.67 174.91,-91.11"/>
</a>
</g>
</g>
<!-- Node27 -->
<g id="Node000027" class="node">
<title>Node27</title>
<g id="a_Node000027"><a xlink:href="m__helper_8fpp_8f90.html#a0e3c0b7ec7d8eee1b8b802c364cf0081" target="_top" xlink:title="This procedure transforms a triangle by a matrix, one vertex at a time.">
<polygon fill="white" stroke="#666666" points="359,-31 241,-31 241,-12 359,-12 359,-31"/>
<text text-anchor="middle" x="300" y="-19" font-family="Helvetica,sans-Serif" font-size="10.00">s_transform_triangle</text>
</a>
</g>
</g>
<!-- Node26&#45;&gt;Node27 -->
<g id="edge40_Node000026_Node000027" class="edge">
<title>Node26&#45;&gt;Node27</title>
<g id="a_edge40_Node000026_Node000027"><a xlink:title=" ">
<path fill="none" stroke="#63b8ff" d="M205.37,-27.8C213.6,-27.25 222.16,-26.67 230.62,-26.1"/>
<polygon fill="#63b8ff" stroke="#63b8ff" points="231.12,-29.58 240.86,-25.41 230.65,-22.59 231.12,-29.58"/>
</a>
</g>
</g>
<!-- Node28 -->
<g id="Node000028" class="node">
<title>Node28</title>
<g id="a_Node000028"><a xlink:href="m__helper_8fpp_8f90.html#ae401e6ec49c4c7340e19c04a0abe836a" target="_top" xlink:title="This procedure transforms a vector by a matrix.">
<polygon fill="white" stroke="#666666" points="517,-19 419,-19 419,0 517,0 517,-19"/>
<text text-anchor="middle" x="468" y="-7" font-family="Helvetica,sans-Serif" font-size="10.00">s_transform_vec</text>
</a>
</g>
</g>
<!-- Node27&#45;&gt;Node28 -->
<g id="edge41_Node000027_Node000028" class="edge">
<title>Node27&#45;&gt;Node28</title>
<g id="a_edge41_Node000027_Node000028"><a xlink:title=" ">
<path fill="none" stroke="#63b8ff" d="M359.06,-17.3C375.09,-16.14 392.49,-14.89 408.54,-13.73"/>
<polygon fill="#63b8ff" stroke="#63b8ff" points="409.14,-17.19 418.86,-12.98 408.64,-10.21 409.14,-17.19"/>
</a>
</g>
</g>
</g>
</svg>

<g id="navigator" transform="translate(0 0)" fill="#404254">
  <rect fill="#f2f5e9" fill-opacity="0.5" stroke="#606060" stroke-width=".5" x="0" y="0" width="60" height="60"/>
  <use id="zoomplus" xlink:href="#zoomPlus" x="17" y="9" onmousedown="handleZoom(evt,'in')"/>
  <use id="zoomminus" xlink:href="#zoomMin" x="42" y="9" onmousedown="handleZoom(evt,'out')"/>
  <use id="reset" xlink:href="#resetDef" x="30" y="36" onmousedown="handleReset()"/>
   <use id="arrowup" xlink:href="#arrowUp" x="0" y="0" onmousedown="handlePan(0,-1)"/>
  <use id="arrowright" xlink:href="#arrowRight" x="0" y="0" onmousedown="handlePan(1,0)"/>
  <use id="arrowdown" xlink:href="#arrowDown" x="0" y="0" onmousedown="handlePan(0,1)"/>
  <use id="arrowleft" xlink:href="#arrowLeft" x="0" y="0" onmousedown="handlePan(-1,0)"/>
</g>
<svg viewBox="0 0 15 15" width="100%" height="30px" preserveAspectRatio="xMaxYMin meet">
 <g id="arrow_out" transform="scale(0.3 0.3)">
  <a xlink:href="m__patches_8fpp_8f90_ac7f748ab1e64c62eff219301807ba04e_cgraph_org.svg" target="_base">
   <rect id="button" ry="5" rx="5" y="6" x="6" height="38" width="38"
        fill="#f2f5e9" fill-opacity="0.5" stroke="#606060" stroke-width="1.0"/>
   <path id="arrow"
     d="M 11.500037,31.436501 C 11.940474,20.09759 22.043105,11.32322 32.158766,21.979434 L 37.068811,17.246167 C 37.068811,17.246167 37.088388,32 37.088388,32 L 22.160133,31.978069 C 22.160133,31.978069 26.997745,27.140456 26.997745,27.140456 C 18.528582,18.264221 13.291696,25.230495 11.500037,31.436501 z"
     style="fill:#404040;"/>
  </a>
 </g>
</svg>

<style type='text/css'>
<![CDATA[
[data-mouse-over-selected='false'] { opacity: 0.7; }
[data-mouse-over-selected='true']  { opacity: 1.0; }
]]>
</style>
<script type="application/ecmascript"><![CDATA[
document.addEventListener('DOMContentLoaded', (event) => {
  highlightEdges();
  highlightAdjacentNodes();
});
]]></script>
</svg>
