<?xml version="1.0" encoding="UTF-8" standalone="no"?>
<!DOCTYPE svg PUBLIC "-//W3C//DTD SVG 1.1//EN"
 "http://www.w3.org/Graphics/SVG/1.1/DTD/svg11.dtd">
<!-- Generated by graphviz version 2.43.0 (0)
 -->
<!-- Title: s_convert_cylindrical_to_cartesian_coord Pages: 1 -->
<svg width="694pt" height="249pt"
 viewBox="0.00 0.00 694.00 249.00" xmlns="http://www.w3.org/2000/svg" xmlns:xlink="http://www.w3.org/1999/xlink">
<g id="graph0" class="graph" transform="scale(1 1) rotate(0) translate(4 245)">
<title>s_convert_cylindrical_to_cartesian_coord</title>
<!-- Node1 -->
<g id="Node000001" class="node">
<title>Node1</title>
<g id="a_Node000001"><a xlink:title=" ">
<polygon fill="#999999" stroke="#666666" points="686,-135.5 567,-135.5 567,-105.5 686,-105.5 686,-135.5"/>
<text text-anchor="start" x="575" y="-123.5" font-family="Helvetica,sans-Serif" font-size="10.00">s_convert_cylindrical</text>
<text text-anchor="middle" x="626.5" y="-112.5" font-family="Helvetica,sans-Serif" font-size="10.00">_to_cartesian_coord</text>
</a>
</g>
</g>
<!-- Node2 -->
<g id="Node000002" class="node">
<title>Node2</title>
<g id="a_Node000002"><a xlink:href="m__patches_8fpp_8f90.html#aa1a00f3943c48f78749d1fe467c43255" target="_top" xlink:title="This patch assigns the primitive variables as analytical functions such that the code can be verified...">
<polygon fill="white" stroke="#666666" points="516,-19 424,-19 424,0 516,0 516,-19"/>
<text text-anchor="middle" x="470" y="-7" font-family="Helvetica,sans-Serif" font-size="10.00">s_3d_analytical</text>
</a>
</g>
</g>
<!-- Node1&#45;&gt;Node2 -->
<g id="edge1_Node000001_Node000002" class="edge">
<title>Node1&#45;&gt;Node2</title>
<g id="a_edge1_Node000001_Node000002"><a xlink:title=" ">
<path fill="none" stroke="#63b8ff" d="M607.74,-97.49C590.33,-76.42 561.95,-45.82 531,-27.5 525.29,-24.12 518.9,-21.33 512.47,-19.04"/>
<polygon fill="#63b8ff" stroke="#63b8ff" points="605.06,-99.75 614.07,-105.33 610.51,-95.35 605.06,-99.75"/>
</a>
</g>
</g>
<!-- Node7 -->
<g id="Node000007" class="node">
<title>Node7</title>
<g id="a_Node000007"><a xlink:href="m__patches_8fpp_8f90.html#a73cca0d7e1eeb6f53662aac5a4d6be2c" target="_top" xlink:title="The cuboidal patch is a 3D geometry that may be used, for example, in creating a solid boundary,...">
<polygon fill="white" stroke="#666666" points="499.5,-241 440.5,-241 440.5,-222 499.5,-222 499.5,-241"/>
<text text-anchor="middle" x="470" y="-229" font-family="Helvetica,sans-Serif" font-size="10.00">s_cuboid</text>
</a>
</g>
</g>
<!-- Node1&#45;&gt;Node7 -->
<g id="edge6_Node000001_Node000007" class="edge">
<title>Node1&#45;&gt;Node7</title>
<g id="a_edge6_Node000001_Node000007"><a xlink:title=" ">
<path fill="none" stroke="#63b8ff" d="M607.74,-143.51C590.33,-164.58 561.95,-195.18 531,-213.5 521.45,-219.15 509.99,-223.16 499.65,-225.93"/>
<polygon fill="#63b8ff" stroke="#63b8ff" points="610.51,-145.65 614.07,-135.67 605.06,-141.25 610.51,-145.65"/>
</a>
</g>
</g>
<!-- Node8 -->
<g id="Node000008" class="node">
<title>Node8</title>
<g id="a_Node000008"><a xlink:href="m__patches_8fpp_8f90.html#a3344bff4ec4757e3491a9ad26d275b5f" target="_top" xlink:title="The cylindrical patch is a 3D geometry that may be used, for example, in setting up a cylindrical sol...">
<polygon fill="white" stroke="#666666" points="503,-204 437,-204 437,-185 503,-185 503,-204"/>
<text text-anchor="middle" x="470" y="-192" font-family="Helvetica,sans-Serif" font-size="10.00">s_cylinder</text>
</a>
</g>
</g>
<!-- Node1&#45;&gt;Node8 -->
<g id="edge9_Node000001_Node000008" class="edge">
<title>Node1&#45;&gt;Node8</title>
<g id="a_edge9_Node000001_Node000008"><a xlink:title=" ">
<path fill="none" stroke="#63b8ff" d="M594.54,-141.45C576.57,-152.94 553.16,-166.78 531,-176.5 522.24,-180.34 512.41,-183.67 503.28,-186.38"/>
<polygon fill="#63b8ff" stroke="#63b8ff" points="596.93,-144.07 603.41,-135.69 593.12,-138.2 596.93,-144.07"/>
</a>
</g>
</g>
<!-- Node9 -->
<g id="Node000009" class="node">
<title>Node9</title>
<g id="a_Node000009"><a xlink:href="m__patches_8fpp_8f90.html#a229b5d7429dddd9a321dd1c8850f818f" target="_top" xlink:title="The ellipsoidal patch is a 3D geometry. The geometry of the patch is well&#45;defined when its centroid a...">
<polygon fill="white" stroke="#666666" points="504,-167 436,-167 436,-148 504,-148 504,-167"/>
<text text-anchor="middle" x="470" y="-155" font-family="Helvetica,sans-Serif" font-size="10.00">s_ellipsoid</text>
</a>
</g>
</g>
<!-- Node1&#45;&gt;Node9 -->
<g id="edge12_Node000001_Node000009" class="edge">
<title>Node1&#45;&gt;Node9</title>
<g id="a_edge12_Node000001_Node000009"><a xlink:title=" ">
<path fill="none" stroke="#63b8ff" d="M556.87,-136.94C538.58,-141.32 519.63,-145.85 504.2,-149.55"/>
<polygon fill="#63b8ff" stroke="#63b8ff" points="557.74,-140.33 566.65,-134.59 556.11,-133.52 557.74,-140.33"/>
</a>
</g>
</g>
<!-- Node10 -->
<g id="Node000010" class="node">
<title>Node10</title>
<g id="a_Node000010"><a xlink:href="m__patches_8fpp_8f90.html#a81af271f4146fa38840e17e3a3f28bd3" target="_top" xlink:title="The spherical patch is a 3D geometry that may be used, for example, in creating a bubble or a droplet...">
<polygon fill="white" stroke="#666666" points="500,-130 440,-130 440,-111 500,-111 500,-130"/>
<text text-anchor="middle" x="470" y="-118" font-family="Helvetica,sans-Serif" font-size="10.00">s_sphere</text>
</a>
</g>
</g>
<!-- Node1&#45;&gt;Node10 -->
<g id="edge15_Node000001_Node000010" class="edge">
<title>Node1&#45;&gt;Node10</title>
<g id="a_edge15_Node000001_Node000010"><a xlink:title=" ">
<path fill="none" stroke="#63b8ff" d="M556.43,-120.5C536.7,-120.5 516.26,-120.5 500.31,-120.5"/>
<polygon fill="#63b8ff" stroke="#63b8ff" points="556.65,-124 566.65,-120.5 556.65,-117 556.65,-124"/>
</a>
</g>
</g>
<!-- Node11 -->
<g id="Node000011" class="node">
<title>Node11</title>
<g id="a_Node000011"><a xlink:href="m__patches_8fpp_8f90.html#ac495040b73e45dc96e23a5a1ec55e569" target="_top" xlink:title="This patch generates the shape of the spherical harmonics as a perturbation to a perfect sphere.">
<polygon fill="white" stroke="#666666" points="531,-93 409,-93 409,-74 531,-74 531,-93"/>
<text text-anchor="middle" x="470" y="-81" font-family="Helvetica,sans-Serif" font-size="10.00">s_spherical_harmonic</text>
</a>
</g>
</g>
<!-- Node1&#45;&gt;Node11 -->
<g id="edge18_Node000001_Node000011" class="edge">
<title>Node1&#45;&gt;Node11</title>
<g id="a_edge18_Node000001_Node000011"><a xlink:title=" ">
<path fill="none" stroke="#63b8ff" d="M556.51,-103.98C540.94,-100.25 524.91,-96.41 511.01,-93.08"/>
<polygon fill="#63b8ff" stroke="#63b8ff" points="556.11,-107.48 566.65,-106.41 557.74,-100.67 556.11,-107.48"/>
</a>
</g>
</g>
<!-- Node12 -->
<g id="Node000012" class="node">
<title>Node12</title>
<g id="a_Node000012"><a xlink:href="m__patches_8fpp_8f90.html#abeee1a033809cdc97e1202f54daf6d01" target="_top" xlink:title="The swept plane patch is a 3D geometry that may be used, for example, in creating a solid boundary,...">
<polygon fill="white" stroke="#666666" points="515.5,-56 424.5,-56 424.5,-37 515.5,-37 515.5,-56"/>
<text text-anchor="middle" x="470" y="-44" font-family="Helvetica,sans-Serif" font-size="10.00">s_sweep_plane</text>
</a>
</g>
</g>
<!-- Node1&#45;&gt;Node12 -->
<g id="edge21_Node000001_Node000012" class="edge">
<title>Node1&#45;&gt;Node12</title>
<g id="a_edge21_Node000001_Node000012"><a xlink:title=" ">
<path fill="none" stroke="#63b8ff" d="M594.07,-99.86C576.12,-88.67 552.88,-75.19 531,-65.5 523.01,-61.96 514.15,-58.78 505.75,-56.07"/>
<polygon fill="#63b8ff" stroke="#63b8ff" points="592.63,-103.08 602.95,-105.47 596.37,-97.16 592.63,-103.08"/>
</a>
</g>
</g>
<!-- Node3 -->
<g id="Node000003" class="node">
<title>Node3</title>
<g id="a_Node000003"><a xlink:href="m__patches_8fpp_8f90.html#a4a44c39189d79ff9c01b6372bf3dd856" target="_top" xlink:title=" ">
<polygon fill="white" stroke="#666666" points="373,-154 240,-154 240,-135 373,-135 373,-154"/>
<text text-anchor="middle" x="306.5" y="-142" font-family="Helvetica,sans-Serif" font-size="10.00">__m_patches_fpp_f90__</text>
</a>
</g>
</g>
<!-- Node2&#45;&gt;Node3 -->
<g id="edge2_Node000002_Node000003" class="edge">
<title>Node2&#45;&gt;Node3</title>
<g id="a_edge2_Node000002_Node000003"><a xlink:title=" ">
<path fill="none" stroke="#63b8ff" d="M415.06,-22.71C412.9,-24.14 410.87,-25.74 409,-27.5 374.96,-59.64 407.41,-94.75 373,-126.5 369.27,-129.94 364.95,-132.73 360.34,-134.99"/>
<polygon fill="#63b8ff" stroke="#63b8ff" points="416.76,-25.77 423.86,-17.9 413.4,-19.62 416.76,-25.77"/>
</a>
</g>
</g>
<!-- Node4 -->
<g id="Node000004" class="node">
<title>Node4</title>
<g id="a_Node000004"><a xlink:href="namespacem__initial__condition.html#aa74a70029e3ec0fd3225b369e7c5443e" target="_top" xlink:title="This subroutine peruses the patches and depending on the type of geometry associated with a particula...">
<polygon fill="white" stroke="#666666" points="361.5,-117 251.5,-117 251.5,-76 361.5,-76 361.5,-117"/>
<text text-anchor="start" x="259.5" y="-105" font-family="Helvetica,sans-Serif" font-size="10.00">m_initial_condition</text>
<text text-anchor="start" x="259.5" y="-94" font-family="Helvetica,sans-Serif" font-size="10.00">::s_generate_initial</text>
<text text-anchor="middle" x="306.5" y="-83" font-family="Helvetica,sans-Serif" font-size="10.00">_condition</text>
</a>
</g>
</g>
<!-- Node2&#45;&gt;Node4 -->
<g id="edge3_Node000002_Node000004" class="edge">
<title>Node2&#45;&gt;Node4</title>
<g id="a_edge3_Node000002_Node000004"><a xlink:title=" ">
<path fill="none" stroke="#63b8ff" d="M421.13,-22.4C416.96,-23.96 412.87,-25.66 409,-27.5 381.49,-40.6 353.04,-60.59 333.29,-75.69"/>
<polygon fill="#63b8ff" stroke="#63b8ff" points="422.59,-25.6 430.89,-19.02 420.3,-18.98 422.59,-25.6"/>
</a>
</g>
</g>
<!-- Node5 -->
<g id="Node000005" class="node">
<title>Node5</title>
<g id="a_Node000005"><a xlink:href="namespacem__start__up.html#abdd3c5dcf76d06086edf11b2df325492" target="_top" xlink:title=" ">
<polygon fill="white" stroke="#666666" points="204,-111.5 89,-111.5 89,-81.5 204,-81.5 204,-111.5"/>
<text text-anchor="start" x="97" y="-99.5" font-family="Helvetica,sans-Serif" font-size="10.00">m_start_up::s_apply</text>
<text text-anchor="middle" x="146.5" y="-88.5" font-family="Helvetica,sans-Serif" font-size="10.00">_initial_condition</text>
</a>
</g>
</g>
<!-- Node4&#45;&gt;Node5 -->
<g id="edge4_Node000004_Node000005" class="edge">
<title>Node4&#45;&gt;Node5</title>
<g id="a_edge4_Node000004_Node000005"><a xlink:title=" ">
<path fill="none" stroke="#63b8ff" d="M241,-96.5C228.78,-96.5 216.08,-96.5 204.13,-96.5"/>
<polygon fill="#63b8ff" stroke="#63b8ff" points="241.13,-100 251.13,-96.5 241.13,-93 241.13,-100"/>
</a>
</g>
</g>
<!-- Node6 -->
<g id="Node000006" class="node">
<title>Node6</title>
<g id="a_Node000006"><a xlink:href="p__main_8f90.html#aeec10ee8e2940c953967da3e374e1579" target="_top" xlink:title="This program takes care of setting up the initial condition and grid data for the multicomponent flow...">
<polygon fill="white" stroke="#666666" points="53,-106 0,-106 0,-87 53,-87 53,-106"/>
<text text-anchor="middle" x="26.5" y="-94" font-family="Helvetica,sans-Serif" font-size="10.00">p_main</text>
</a>
</g>
</g>
<!-- Node5&#45;&gt;Node6 -->
<g id="edge5_Node000005_Node000006" class="edge">
<title>Node5&#45;&gt;Node6</title>
<g id="a_edge5_Node000005_Node000006"><a xlink:title=" ">
<path fill="none" stroke="#63b8ff" d="M78.65,-96.5C69.6,-96.5 60.81,-96.5 53.13,-96.5"/>
<polygon fill="#63b8ff" stroke="#63b8ff" points="78.92,-100 88.92,-96.5 78.92,-93 78.92,-100"/>
</a>
</g>
</g>
<!-- Node7&#45;&gt;Node3 -->
<g id="edge7_Node000007_Node000003" class="edge">
<title>Node7&#45;&gt;Node3</title>
<g id="a_edge7_Node000007_Node000003"><a xlink:title=" ">
<path fill="none" stroke="#63b8ff" d="M430.49,-221.85C423.2,-219.5 415.75,-216.71 409,-213.5 373.79,-196.74 337.05,-168.68 318.96,-154.04"/>
<polygon fill="#63b8ff" stroke="#63b8ff" points="429.67,-225.26 440.25,-224.8 431.69,-218.56 429.67,-225.26"/>
</a>
</g>
</g>
<!-- Node7&#45;&gt;Node4 -->
<g id="edge8_Node000007_Node000004" class="edge">
<title>Node7&#45;&gt;Node4</title>
<g id="a_edge8_Node000007_Node000004"><a xlink:title=" ">
<path fill="none" stroke="#63b8ff" d="M430.58,-225.46C422.75,-222.8 415.07,-218.99 409,-213.5 377.96,-185.44 402.03,-156.63 373,-126.5 369.62,-122.99 365.74,-119.85 361.61,-117.05"/>
<polygon fill="#63b8ff" stroke="#63b8ff" points="429.88,-228.9 440.46,-228.24 431.78,-222.16 429.88,-228.9"/>
</a>
</g>
</g>
<!-- Node8&#45;&gt;Node3 -->
<g id="edge10_Node000008_Node000003" class="edge">
<title>Node8&#45;&gt;Node3</title>
<g id="a_edge10_Node000008_Node000003"><a xlink:title=" ">
<path fill="none" stroke="#63b8ff" d="M426.93,-181.96C420.91,-180.14 414.79,-178.28 409,-176.5 384.98,-169.11 357.84,-160.54 337.67,-154.13"/>
<polygon fill="#63b8ff" stroke="#63b8ff" points="426.32,-185.43 436.9,-184.96 428.33,-178.73 426.32,-185.43"/>
</a>
</g>
</g>
<!-- Node8&#45;&gt;Node4 -->
<g id="edge11_Node000008_Node000004" class="edge">
<title>Node8&#45;&gt;Node4</title>
<g id="a_edge11_Node000008_Node000004"><a xlink:title=" ">
<path fill="none" stroke="#63b8ff" d="M426.81,-185.71C420.51,-183.32 414.35,-180.31 409,-176.5 386.7,-160.61 394.15,-143.89 373,-126.5 368.85,-123.08 364.24,-119.97 359.45,-117.15"/>
<polygon fill="#63b8ff" stroke="#63b8ff" points="426.12,-189.16 436.71,-188.95 428.3,-182.51 426.12,-189.16"/>
</a>
</g>
</g>
<!-- Node9&#45;&gt;Node3 -->
<g id="edge13_Node000009_Node000003" class="edge">
<title>Node9&#45;&gt;Node3</title>
<g id="a_edge13_Node000009_Node000003"><a xlink:title=" ">
<path fill="none" stroke="#63b8ff" d="M425.73,-154.02C409.6,-152.72 390.9,-151.21 373.21,-149.79"/>
<polygon fill="#63b8ff" stroke="#63b8ff" points="425.68,-157.52 435.93,-154.84 426.24,-150.55 425.68,-157.52"/>
</a>
</g>
</g>
<!-- Node9&#45;&gt;Node4 -->
<g id="edge14_Node000009_Node000004" class="edge">
<title>Node9&#45;&gt;Node4</title>
<g id="a_edge14_Node000009_Node000004"><a xlink:title=" ">
<path fill="none" stroke="#63b8ff" d="M426.14,-145.27C420.35,-143.43 414.51,-141.49 409,-139.5 390.46,-132.81 370.4,-124.55 353.06,-117.05"/>
<polygon fill="#63b8ff" stroke="#63b8ff" points="425.19,-148.64 435.78,-148.24 427.25,-141.95 425.19,-148.64"/>
</a>
</g>
</g>
<!-- Node10&#45;&gt;Node3 -->
<g id="edge16_Node000010_Node000003" class="edge">
<title>Node10&#45;&gt;Node3</title>
<g id="a_edge16_Node000010_Node000003"><a xlink:title=" ">
<path fill="none" stroke="#63b8ff" d="M429.42,-126.38C412.04,-128.96 391.18,-132.06 371.67,-134.96"/>
<polygon fill="#63b8ff" stroke="#63b8ff" points="430.38,-129.78 439.75,-124.85 429.35,-122.85 430.38,-129.78"/>
</a>
</g>
</g>
<!-- Node10&#45;&gt;Node4 -->
<g id="edge17_Node000010_Node000004" class="edge">
<title>Node10&#45;&gt;Node4</title>
<g id="a_edge17_Node000010_Node000004"><a xlink:title=" ">
<path fill="none" stroke="#63b8ff" d="M429.84,-114.68C409.37,-111.64 384,-107.87 361.67,-104.55"/>
<polygon fill="#63b8ff" stroke="#63b8ff" points="429.35,-118.15 439.75,-116.15 430.38,-111.22 429.35,-118.15"/>
</a>
</g>
</g>
<!-- Node11&#45;&gt;Node3 -->
<g id="edge19_Node000011_Node000003" class="edge">
<title>Node11&#45;&gt;Node3</title>
<g id="a_edge19_Node000011_Node000003"><a xlink:title=" ">
<path fill="none" stroke="#63b8ff" d="M423.56,-96.38C418.57,-98.24 413.62,-100.28 409,-102.5 391.66,-110.82 390.49,-118.52 373,-126.5 365.81,-129.78 357.9,-132.58 350.13,-134.92"/>
<polygon fill="#63b8ff" stroke="#63b8ff" points="424.85,-99.64 433.14,-93.04 422.55,-93.03 424.85,-99.64"/>
</a>
</g>
</g>
<!-- Node11&#45;&gt;Node4 -->
<g id="edge20_Node000011_Node000004" class="edge">
<title>Node11&#45;&gt;Node4</title>
<g id="a_edge20_Node000011_Node000004"><a xlink:title=" ">
<path fill="none" stroke="#63b8ff" d="M398.55,-89.17C386.15,-90.17 373.42,-91.19 361.56,-92.15"/>
<polygon fill="#63b8ff" stroke="#63b8ff" points="399.18,-92.63 408.86,-88.34 398.61,-85.65 399.18,-92.63"/>
</a>
</g>
</g>
<!-- Node12&#45;&gt;Node3 -->
<g id="edge22_Node000012_Node000003" class="edge">
<title>Node12&#45;&gt;Node3</title>
<g id="a_edge22_Node000012_Node000003"><a xlink:title=" ">
<path fill="none" stroke="#63b8ff" d="M416.32,-60.55C413.75,-62.04 411.28,-63.68 409,-65.5 384.37,-85.1 398.01,-107.38 373,-126.5 368.5,-129.94 363.39,-132.72 358.05,-134.97"/>
<polygon fill="#63b8ff" stroke="#63b8ff" points="418.01,-63.62 425.43,-56.06 414.92,-57.34 418.01,-63.62"/>
</a>
</g>
</g>
<!-- Node12&#45;&gt;Node4 -->
<g id="edge23_Node000012_Node000004" class="edge">
<title>Node12&#45;&gt;Node4</title>
<g id="a_edge23_Node000012_Node000004"><a xlink:title=" ">
<path fill="none" stroke="#63b8ff" d="M428.42,-59.06C408.21,-65.32 383.49,-72.97 361.69,-79.72"/>
<polygon fill="#63b8ff" stroke="#63b8ff" points="429.73,-62.32 438.24,-56.02 427.66,-55.64 429.73,-62.32"/>
</a>
</g>
</g>
</g>
</svg>
