<?xml version="1.0" encoding="UTF-8" standalone="no"?>
<!DOCTYPE svg PUBLIC "-//W3C//DTD SVG 1.1//EN"
 "http://www.w3.org/Graphics/SVG/1.1/DTD/svg11.dtd">
<!-- Generated by graphviz version 2.43.0 (0)
 -->
<!-- Title: s_model Pages: 1 -->
<!--zoomable 300 -->

<svg id="main" version="1.1" xmlns="http://www.w3.org/2000/svg" xmlns:xlink="http://www.w3.org/1999/xlink" xml:space="preserve" onload="init(evt)">
<style type="text/css"><![CDATA[
.node, .edge {opacity: 0.7;}
.node.selected, .edge.selected {opacity: 1;}
.edge:hover path { stroke: red; }
.edge:hover polygon { stroke: red; fill: red; }
]]></style>

<defs>
  <circle id="rim" cx="0" cy="0" r="7"/>
  <circle id="rim2" cx="0" cy="0" r="3.5"/>
  <g id="zoomPlus">
    <use xlink:href="#rim" fill="#404040"><set attributeName="fill" to="#808080" begin="zoomplus.mouseover" end="zoomplus.mouseout"/></use>
    <path d="M-4,0h8M0,-4v8" fill="none" stroke="white" stroke-width="1.5" pointer-events="none"/>
  </g>
  <g id="zoomMin">
    <use xlink:href="#rim" fill="#404040"><set attributeName="fill" to="#808080" begin="zoomminus.mouseover" end="zoomminus.mouseout"/></use>
    <path d="M-4,0h8" fill="none" stroke="white" stroke-width="1.5" pointer-events="none"/>
  </g>
  <g id="arrowUp" transform="translate(30 24)">
    <use xlink:href="#rim"/>
    <path pointer-events="none" fill="none" stroke="white" stroke-width="1.5" d="M0,-3.0v7 M-2.5,-0.5L0,-3.0L2.5,-0.5"/>
  </g>
  <g id="arrowRight" transform="rotate(90) translate(36 -43)">
    <use xlink:href="#rim"/>
    <path pointer-events="none" fill="none" stroke="white" stroke-width="1.5" d="M0,-3.0v7 M-2.5,-0.5L0,-3.0L2.5,-0.5"/>
  </g>
  <g id="arrowDown" transform="rotate(180) translate(-30 -48)">
    <use xlink:href="#rim"/>
    <path pointer-events="none" fill="none" stroke="white" stroke-width="1.5" d="M0,-3.0v7 M-2.5,-0.5L0,-3.0L2.5,-0.5"/>
  </g>
  <g id="arrowLeft" transform="rotate(270) translate(-36 17)">
    <use xlink:href="#rim"/>
    <path pointer-events="none" fill="none" stroke="white" stroke-width="1.5" d="M0,-3.0v7 M-2.5,-0.5L0,-3.0L2.5,-0.5"/>
  </g>
  <g id="resetDef">
    <use xlink:href="#rim2" fill="#404040"><set attributeName="fill" to="#808080" begin="reset.mouseover" end="reset.mouseout"/></use>
  </g>
</defs>
<script type="application/ecmascript">
var viewWidth = 776;
var viewHeight = 300;
var sectionId = 'dynsection-25';
</script>
<script type="application/ecmascript" xlink:href="svg.min.js"/>
<svg id="graph" class="graph">
<g id="viewport">
<title>s_model</title>
<!-- Node1 -->
<g id="Node000001" class="node">
<title>Node1</title>
<g id="a_Node000001"><a xlink:title="The STL patch is a 2/3D geometry that is imported from an STL file.">
<polygon fill="#999999" stroke="#666666" points="58,-169 0,-169 0,-150 58,-150 58,-169"/>
<text text-anchor="middle" x="29" y="-157" font-family="Helvetica,sans-Serif" font-size="10.00">s_model</text>
</a>
</g>
</g>
<!-- Node2 -->
<g id="Node000002" class="node">
<title>Node2</title>
<g id="a_Node000002"><a xlink:href="m__patches_8fpp_8f90.html#ab573d8ed768a86ac50b907f44bac14c0" target="_top" xlink:title=" ">
<polygon fill="white" stroke="#666666" points="215,-292 94,-292 94,-273 215,-273 215,-292"/>
<text text-anchor="middle" x="154.5" y="-280" font-family="Helvetica,sans-Serif" font-size="10.00">f_convert_cyl_to_cart</text>
</a>
</g>
</g>
<!-- Node1&#45;&gt;Node2 -->
<g id="edge1_Node000001_Node000002" class="edge">
<title>Node1&#45;&gt;Node2</title>
<g id="a_edge1_Node000001_Node000002"><a xlink:title=" ">
<path fill="none" stroke="#63b8ff" d="M33.22,-169.24C40.57,-189.97 60.57,-238.63 94,-264.5 95.8,-265.9 97.71,-267.18 99.7,-268.37"/>
<polygon fill="#63b8ff" stroke="#63b8ff" points="98.32,-271.59 108.82,-272.97 101.47,-265.34 98.32,-271.59"/>
</a>
</g>
</g>
<!-- Node3 -->
<g id="Node000003" class="node">
<title>Node3</title>
<g id="a_Node000003"><a xlink:href="m__helper_8fpp_8f90.html#a88808ee0f14fe4e145a538646dc9ba73" target="_top" xlink:title="This procedure creates a bounding box for a model.">
<polygon fill="white" stroke="#666666" points="197.5,-255 111.5,-255 111.5,-236 197.5,-236 197.5,-255"/>
<text text-anchor="middle" x="154.5" y="-243" font-family="Helvetica,sans-Serif" font-size="10.00">f_create_bbox</text>
</a>
</g>
</g>
<!-- Node1&#45;&gt;Node3 -->
<g id="edge2_Node000001_Node000003" class="edge">
<title>Node1&#45;&gt;Node3</title>
<g id="a_edge2_Node000001_Node000003"><a xlink:title=" ">
<path fill="none" stroke="#63b8ff" d="M36.73,-169.17C47.3,-183.66 69.18,-210.98 94,-226.5 97.32,-228.57 100.88,-230.44 104.56,-232.12"/>
<polygon fill="#63b8ff" stroke="#63b8ff" points="103.27,-235.37 113.85,-235.91 105.91,-228.89 103.27,-235.37"/>
</a>
</g>
</g>
<!-- Node4 -->
<g id="Node000004" class="node">
<title>Node4</title>
<g id="a_Node000004"><a xlink:href="m__helper_8fpp_8f90.html#aafb2d0e9e3e66d3f3714f0ad3349bc8f" target="_top" xlink:title="This procedure creates a transformation matrix.">
<polygon fill="white" stroke="#666666" points="209.5,-217.5 99.5,-217.5 99.5,-187.5 209.5,-187.5 209.5,-217.5"/>
<text text-anchor="start" x="107.5" y="-205.5" font-family="Helvetica,sans-Serif" font-size="10.00">f_create_transform</text>
<text text-anchor="middle" x="154.5" y="-194.5" font-family="Helvetica,sans-Serif" font-size="10.00">_matrix</text>
</a>
</g>
</g>
<!-- Node1&#45;&gt;Node4 -->
<g id="edge3_Node000001_Node000004" class="edge">
<title>Node1&#45;&gt;Node4</title>
<g id="a_edge3_Node000001_Node000004"><a xlink:title=" ">
<path fill="none" stroke="#63b8ff" d="M57.41,-169.04C70.12,-173.47 85.67,-178.88 100.53,-184.06"/>
<polygon fill="#63b8ff" stroke="#63b8ff" points="99.56,-187.43 110.16,-187.41 101.87,-180.82 99.56,-187.43"/>
</a>
</g>
</g>
<!-- Node5 -->
<g id="Node000005" class="node">
<title>Node5</title>
<g id="a_Node000005"><a xlink:href="m__model_8fpp_8f90.html#aeec237153c6c81ad91c7b0155c283c11" target="_top" xlink:title="This procedure, recursively, finds whether a point is inside an octree.">
<polygon fill="white" stroke="#666666" points="206.5,-169 102.5,-169 102.5,-150 206.5,-150 206.5,-169"/>
<text text-anchor="middle" x="154.5" y="-157" font-family="Helvetica,sans-Serif" font-size="10.00">f_model_is_inside</text>
</a>
</g>
</g>
<!-- Node1&#45;&gt;Node5 -->
<g id="edge4_Node000001_Node000005" class="edge">
<title>Node1&#45;&gt;Node5</title>
<g id="a_edge4_Node000001_Node000005"><a xlink:title=" ">
<path fill="none" stroke="#63b8ff" d="M58.02,-159.5C68.25,-159.5 80.27,-159.5 92.25,-159.5"/>
<polygon fill="#63b8ff" stroke="#63b8ff" points="92.28,-163 102.28,-159.5 92.28,-156 92.28,-163"/>
</a>
</g>
</g>
<!-- Node8 -->
<g id="Node000008" class="node">
<title>Node8</title>
<g id="a_Node000008"><a xlink:href="m__model_8fpp_8f90.html#a1b9b22c1f17d46b41f2d227e1636f3a5" target="_top" xlink:title="This procedure reads a mesh from a file.">
<polygon fill="white" stroke="#666666" points="196,-132 113,-132 113,-113 196,-113 196,-132"/>
<text text-anchor="middle" x="154.5" y="-120" font-family="Helvetica,sans-Serif" font-size="10.00">f_model_read</text>
</a>
</g>
</g>
<!-- Node1&#45;&gt;Node8 -->
<g id="edge7_Node000001_Node000008" class="edge">
<title>Node1&#45;&gt;Node8</title>
<g id="a_edge7_Node000001_Node000008"><a xlink:title=" ">
<path fill="none" stroke="#63b8ff" d="M58.02,-151.1C73.85,-146.36 93.94,-140.35 111.6,-135.05"/>
<polygon fill="#63b8ff" stroke="#63b8ff" points="113.09,-138.26 121.67,-132.04 111.08,-131.55 113.09,-138.26"/>
</a>
</g>
</g>
<!-- Node16 -->
<g id="Node000016" class="node">
<title>Node16</title>
<g id="a_Node000016"><a xlink:href="m__model_8fpp_8f90.html#a4e5b0d533feecd52aec31ccffa94d0c5" target="_top" xlink:title="This procedure frees the memory allocated for an STL mesh.">
<polygon fill="white" stroke="#666666" points="196,-95 113,-95 113,-76 196,-76 196,-95"/>
<text text-anchor="middle" x="154.5" y="-83" font-family="Helvetica,sans-Serif" font-size="10.00">s_model_free</text>
</a>
</g>
</g>
<!-- Node1&#45;&gt;Node16 -->
<g id="edge21_Node000001_Node000016" class="edge">
<title>Node1&#45;&gt;Node16</title>
<g id="a_edge21_Node000001_Node000016"><a xlink:title=" ">
<path fill="none" stroke="#63b8ff" d="M38.58,-149.78C50.04,-137.35 71.53,-115.96 94,-103.5 97.21,-101.72 100.62,-100.1 104.11,-98.62"/>
<polygon fill="#63b8ff" stroke="#63b8ff" points="105.4,-101.87 113.49,-95.04 102.9,-95.33 105.4,-101.87"/>
</a>
</g>
</g>
<!-- Node17 -->
<g id="Node000017" class="node">
<title>Node17</title>
<g id="a_Node000017"><a xlink:href="m__helper_8fpp_8f90.html#a77ee798a317ff1eb8d3c50a7407010ba" target="_top" xlink:title="This procedure transforms a model by a matrix, one triangle at a time.">
<polygon fill="white" stroke="#666666" points="210,-57 99,-57 99,-38 210,-38 210,-57"/>
<text text-anchor="middle" x="154.5" y="-45" font-family="Helvetica,sans-Serif" font-size="10.00">s_transform_model</text>
</a>
</g>
</g>
<!-- Node1&#45;&gt;Node17 -->
<g id="edge22_Node000001_Node000017" class="edge">
<title>Node1&#45;&gt;Node17</title>
<g id="a_edge22_Node000001_Node000017"><a xlink:title=" ">
<path fill="none" stroke="#63b8ff" d="M34.07,-149.77C42.46,-130.89 63.47,-89.16 94,-66.5 96.61,-64.56 99.43,-62.82 102.37,-61.24"/>
<polygon fill="#63b8ff" stroke="#63b8ff" points="103.85,-64.41 111.46,-57.04 100.91,-58.06 103.85,-64.41"/>
</a>
</g>
</g>
<!-- Node6 -->
<g id="Node000006" class="node">
<title>Node6</title>
<g id="a_Node000006"><a xlink:href="m__model_8fpp_8f90.html#aa8e784a7afcad5f9713116d8e0efe8dd" target="_top" xlink:title="This procedure checks if a ray intersects a triangle.">
<polygon fill="white" stroke="#666666" points="368,-235 252,-235 252,-216 368,-216 368,-235"/>
<text text-anchor="middle" x="310" y="-223" font-family="Helvetica,sans-Serif" font-size="10.00">f_intersects_triangle</text>
</a>
</g>
</g>
<!-- Node5&#45;&gt;Node6 -->
<g id="edge5_Node000005_Node000006" class="edge">
<title>Node5&#45;&gt;Node6</title>
<g id="a_edge5_Node000005_Node000006"><a xlink:title=" ">
<path fill="none" stroke="#63b8ff" d="M188.56,-169.06C197.26,-171.84 206.56,-175.07 215,-178.5 238.46,-188.04 264.11,-201.06 282.69,-210.97"/>
<polygon fill="#63b8ff" stroke="#63b8ff" points="281.24,-214.17 291.7,-215.84 284.57,-208.01 281.24,-214.17"/>
</a>
</g>
</g>
<!-- Node7 -->
<g id="Node000007" class="node">
<title>Node7</title>
<g id="a_Node000007"><a xlink:href="m__helper_8fpp_8f90.html#a3685fb84c52ce964157ac58fc0068249" target="_top" xlink:title="This procedure computes the cross product of two vectors.">
<polygon fill="white" stroke="#666666" points="481.5,-244 430.5,-244 430.5,-225 481.5,-225 481.5,-244"/>
<text text-anchor="middle" x="456" y="-232" font-family="Helvetica,sans-Serif" font-size="10.00">f_cross</text>
</a>
</g>
</g>
<!-- Node6&#45;&gt;Node7 -->
<g id="edge6_Node000006_Node000007" class="edge">
<title>Node6&#45;&gt;Node7</title>
<g id="a_edge6_Node000006_Node000007"><a xlink:title=" ">
<path fill="none" stroke="#63b8ff" d="M368.33,-229.08C385.79,-230.17 404.45,-231.34 419.97,-232.31"/>
<polygon fill="#63b8ff" stroke="#63b8ff" points="419.96,-235.82 430.16,-232.95 420.39,-228.83 419.96,-235.82"/>
</a>
</g>
</g>
<!-- Node9 -->
<g id="Node000009" class="node">
<title>Node9</title>
<g id="a_Node000009"><a xlink:href="m__mpi__common_8fpp_8f90.html#ad9e1329e498b65ad4256658675d6f797" target="_top" xlink:title="The subroutine terminates the MPI execution environment.">
<polygon fill="white" stroke="#666666" points="640.5,-132 563.5,-132 563.5,-113 640.5,-113 640.5,-132"/>
<text text-anchor="middle" x="602" y="-120" font-family="Helvetica,sans-Serif" font-size="10.00">s_mpi_abort</text>
</a>
</g>
</g>
<!-- Node8&#45;&gt;Node9 -->
<g id="edge8_Node000008_Node000009" class="edge">
<title>Node8&#45;&gt;Node9</title>
<g id="a_edge8_Node000008_Node000009"><a xlink:title=" ">
<path fill="none" stroke="#63b8ff" d="M194.27,-112.99C211.52,-109.22 232.16,-105.36 251,-103.5 358.64,-92.9 485.53,-106.18 553.05,-115.29"/>
<polygon fill="#63b8ff" stroke="#63b8ff" points="552.98,-118.81 563.37,-116.71 553.94,-111.88 552.98,-118.81"/>
</a>
</g>
</g>
<!-- Node10 -->
<g id="Node000010" class="node">
<title>Node10</title>
<g id="a_Node000010"><a xlink:href="m__model_8fpp_8f90.html#a0dd1f9451362655b63a76e288a3f92db" target="_top" xlink:title="This procedure reads an OBJ file.">
<polygon fill="white" stroke="#666666" points="490.5,-207 421.5,-207 421.5,-188 490.5,-188 490.5,-207"/>
<text text-anchor="middle" x="456" y="-195" font-family="Helvetica,sans-Serif" font-size="10.00">s_read_obj</text>
</a>
</g>
</g>
<!-- Node8&#45;&gt;Node10 -->
<g id="edge9_Node000008_Node000010" class="edge">
<title>Node8&#45;&gt;Node10</title>
<g id="a_edge9_Node000008_Node000010"><a xlink:title=" ">
<path fill="none" stroke="#63b8ff" d="M193.74,-132.07C249.49,-146.04 352.82,-171.91 411.44,-186.59"/>
<polygon fill="#63b8ff" stroke="#63b8ff" points="410.59,-189.99 421.15,-189.02 412.29,-183.2 410.59,-189.99"/>
</a>
</g>
</g>
<!-- Node12 -->
<g id="Node000012" class="node">
<title>Node12</title>
<g id="a_Node000012"><a xlink:href="m__model_8fpp_8f90.html#a05ca98cfdb3880758fd6cb1538a9acd7" target="_top" xlink:title="This procedure reads an STL file.">
<polygon fill="white" stroke="#666666" points="343,-132 277,-132 277,-113 343,-113 343,-132"/>
<text text-anchor="middle" x="310" y="-120" font-family="Helvetica,sans-Serif" font-size="10.00">s_read_stl</text>
</a>
</g>
</g>
<!-- Node8&#45;&gt;Node12 -->
<g id="edge12_Node000008_Node000012" class="edge">
<title>Node8&#45;&gt;Node12</title>
<g id="a_edge12_Node000008_Node000012"><a xlink:title=" ">
<path fill="none" stroke="#63b8ff" d="M196.23,-122.5C218.01,-122.5 244.79,-122.5 266.78,-122.5"/>
<polygon fill="#63b8ff" stroke="#63b8ff" points="266.84,-126 276.84,-122.5 266.84,-119 266.84,-126"/>
</a>
</g>
</g>
<!-- Node10&#45;&gt;Node9 -->
<g id="edge11_Node000010_Node000009" class="edge">
<title>Node10&#45;&gt;Node9</title>
<g id="a_edge11_Node000010_Node000009"><a xlink:title=" ">
<path fill="none" stroke="#63b8ff" d="M486.48,-187.99C493.33,-185.48 500.51,-182.6 507,-179.5 532.61,-167.28 560.18,-150.03 578.79,-137.71"/>
<polygon fill="#63b8ff" stroke="#63b8ff" points="580.8,-140.58 587.16,-132.1 576.9,-134.76 580.8,-140.58"/>
</a>
</g>
</g>
<!-- Node11 -->
<g id="Node000011" class="node">
<title>Node11</title>
<g id="a_Node000011"><a xlink:href="m__model_8fpp_8f90.html#accb621c002a9aa99ef7acf0aa84c2b50" target="_top" xlink:title=" ">
<polygon fill="white" stroke="#666666" points="768,-94 697,-94 697,-75 768,-75 768,-94"/>
<text text-anchor="middle" x="732.5" y="-82" font-family="Helvetica,sans-Serif" font-size="10.00">f_read_line</text>
</a>
</g>
</g>
<!-- Node10&#45;&gt;Node11 -->
<g id="edge10_Node000010_Node000011" class="edge">
<title>Node10&#45;&gt;Node11</title>
<g id="a_edge10_Node000010_Node000011"><a xlink:title=" ">
<path fill="none" stroke="#63b8ff" d="M490.69,-192.62C532.45,-185.61 604.96,-170.25 661,-141.5 681.41,-131.03 701.43,-114.01 714.89,-101.28"/>
<polygon fill="#63b8ff" stroke="#63b8ff" points="717.64,-103.5 722.37,-94.02 712.76,-98.48 717.64,-103.5"/>
</a>
</g>
</g>
<!-- Node12&#45;&gt;Node9 -->
<g id="edge13_Node000012_Node000009" class="edge">
<title>Node12&#45;&gt;Node9</title>
<g id="a_edge13_Node000012_Node000009"><a xlink:title=" ">
<path fill="none" stroke="#63b8ff" d="M343.14,-122.5C394.06,-122.5 493.57,-122.5 552.97,-122.5"/>
<polygon fill="#63b8ff" stroke="#63b8ff" points="553.22,-126 563.22,-122.5 553.22,-119 553.22,-126"/>
</a>
</g>
</g>
<!-- Node13 -->
<g id="Node000013" class="node">
<title>Node13</title>
<g id="a_Node000013"><a xlink:href="m__model_8fpp_8f90.html#a3583055a84e8cb3f9134c4229a1f57c6" target="_top" xlink:title="This procedure reads an ASCII STL file.">
<polygon fill="white" stroke="#666666" points="503,-56 409,-56 409,-37 503,-37 503,-56"/>
<text text-anchor="middle" x="456" y="-44" font-family="Helvetica,sans-Serif" font-size="10.00">s_read_stl_ascii</text>
</a>
</g>
</g>
<!-- Node12&#45;&gt;Node13 -->
<g id="edge14_Node000012_Node000013" class="edge">
<title>Node12&#45;&gt;Node13</title>
<g id="a_edge14_Node000012_Node000013"><a xlink:title=" ">
<path fill="none" stroke="#63b8ff" d="M329.24,-112.87C354.12,-99.74 398.92,-76.1 427.78,-60.86"/>
<polygon fill="#63b8ff" stroke="#63b8ff" points="429.7,-63.81 436.91,-56.05 426.43,-57.62 429.7,-63.81"/>
</a>
</g>
</g>
<!-- Node15 -->
<g id="Node000015" class="node">
<title>Node15</title>
<g id="a_Node000015"><a xlink:href="m__model_8fpp_8f90.html#aec15eac4bb59ae7bdddfbfddf007d469" target="_top" xlink:title="This procedure reads a binary STL file.">
<polygon fill="white" stroke="#666666" points="507,-170 405,-170 405,-151 507,-151 507,-170"/>
<text text-anchor="middle" x="456" y="-158" font-family="Helvetica,sans-Serif" font-size="10.00">s_read_stl_binary</text>
</a>
</g>
</g>
<!-- Node12&#45;&gt;Node15 -->
<g id="edge19_Node000012_Node000015" class="edge">
<title>Node12&#45;&gt;Node15</title>
<g id="a_edge19_Node000012_Node000015"><a xlink:title=" ">
<path fill="none" stroke="#63b8ff" d="M343.32,-131.03C362.72,-136.15 387.7,-142.74 409.13,-148.39"/>
<polygon fill="#63b8ff" stroke="#63b8ff" points="408.44,-151.83 419,-151 410.22,-145.06 408.44,-151.83"/>
</a>
</g>
</g>
<!-- Node13&#45;&gt;Node9 -->
<g id="edge16_Node000013_Node000009" class="edge">
<title>Node13&#45;&gt;Node9</title>
<g id="a_edge16_Node000013_Node000009"><a xlink:title=" ">
<path fill="none" stroke="#63b8ff" d="M480.38,-56.08C489.04,-60.05 498.74,-65.01 507,-70.5 524.82,-82.36 524.52,-91.69 543,-102.5 547.2,-104.96 551.75,-107.18 556.4,-109.16"/>
<polygon fill="#63b8ff" stroke="#63b8ff" points="555.38,-112.52 565.97,-112.91 557.93,-106.01 555.38,-112.52"/>
</a>
</g>
</g>
<!-- Node13&#45;&gt;Node11 -->
<g id="edge15_Node000013_Node000011" class="edge">
<title>Node13&#45;&gt;Node11</title>
<g id="a_edge15_Node000013_Node000011"><a xlink:title=" ">
<path fill="none" stroke="#63b8ff" d="M503.08,-48.55C544.62,-50.92 607.26,-55.83 661,-65.5 670.72,-67.25 681.06,-69.69 690.73,-72.25"/>
<polygon fill="#63b8ff" stroke="#63b8ff" points="689.95,-75.67 700.52,-74.93 691.8,-68.91 689.95,-75.67"/>
</a>
</g>
</g>
<!-- Node14 -->
<g id="Node000014" class="node">
<title>Node14</title>
<g id="a_Node000014"><a xlink:href="m__model_8fpp_8f90.html#a0cc3e8189f9ed02b8f1bf84ba77e07c0" target="_top" xlink:title=" ">
<polygon fill="white" stroke="#666666" points="661,-94 543,-94 543,-75 661,-75 661,-94"/>
<text text-anchor="middle" x="602" y="-82" font-family="Helvetica,sans-Serif" font-size="10.00">s_skip_ignored_lines</text>
</a>
</g>
</g>
<!-- Node13&#45;&gt;Node14 -->
<g id="edge17_Node000013_Node000014" class="edge">
<title>Node13&#45;&gt;Node14</title>
<g id="a_edge17_Node000013_Node000014"><a xlink:title=" ">
<path fill="none" stroke="#63b8ff" d="M493.34,-56.09C512.08,-61.04 535.14,-67.12 555.11,-72.39"/>
<polygon fill="#63b8ff" stroke="#63b8ff" points="554.36,-75.81 564.92,-74.98 556.15,-69.04 554.36,-75.81"/>
</a>
</g>
</g>
<!-- Node14&#45;&gt;Node11 -->
<g id="edge18_Node000014_Node000011" class="edge">
<title>Node14&#45;&gt;Node11</title>
<g id="a_edge18_Node000014_Node000011"><a xlink:title=" ">
<path fill="none" stroke="#63b8ff" d="M661.23,-84.5C669.83,-84.5 678.56,-84.5 686.82,-84.5"/>
<polygon fill="#63b8ff" stroke="#63b8ff" points="686.98,-88 696.98,-84.5 686.98,-81 686.98,-88"/>
</a>
</g>
</g>
<!-- Node15&#45;&gt;Node9 -->
<g id="edge20_Node000015_Node000009" class="edge">
<title>Node15&#45;&gt;Node9</title>
<g id="a_edge20_Node000015_Node000009"><a xlink:title=" ">
<path fill="none" stroke="#63b8ff" d="M493.34,-150.91C512.08,-145.96 535.14,-139.88 555.11,-134.61"/>
<polygon fill="#63b8ff" stroke="#63b8ff" points="556.15,-137.96 564.92,-132.02 554.36,-131.19 556.15,-137.96"/>
</a>
</g>
</g>
<!-- Node18 -->
<g id="Node000018" class="node">
<title>Node18</title>
<g id="a_Node000018"><a xlink:href="m__helper_8fpp_8f90.html#a0e3c0b7ec7d8eee1b8b802c364cf0081" target="_top" xlink:title="This procedure transforms a triangle by a matrix, one vertex at a time.">
<polygon fill="white" stroke="#666666" points="369,-38 251,-38 251,-19 369,-19 369,-38"/>
<text text-anchor="middle" x="310" y="-26" font-family="Helvetica,sans-Serif" font-size="10.00">s_transform_triangle</text>
</a>
</g>
</g>
<!-- Node17&#45;&gt;Node18 -->
<g id="edge23_Node000017_Node000018" class="edge">
<title>Node17&#45;&gt;Node18</title>
<g id="a_edge23_Node000017_Node000018"><a xlink:title=" ">
<path fill="none" stroke="#63b8ff" d="M210.05,-40.75C220,-39.52 230.5,-38.22 240.79,-36.94"/>
<polygon fill="#63b8ff" stroke="#63b8ff" points="241.49,-40.38 250.99,-35.68 240.63,-33.44 241.49,-40.38"/>
</a>
</g>
</g>
<!-- Node19 -->
<g id="Node000019" class="node">
<title>Node19</title>
<g id="a_Node000019"><a xlink:href="m__helper_8fpp_8f90.html#ae401e6ec49c4c7340e19c04a0abe836a" target="_top" xlink:title="This procedure transforms a vector by a matrix.">
<polygon fill="white" stroke="#666666" points="505,-19 407,-19 407,0 505,0 505,-19"/>
<text text-anchor="middle" x="456" y="-7" font-family="Helvetica,sans-Serif" font-size="10.00">s_transform_vec</text>
</a>
</g>
</g>
<!-- Node18&#45;&gt;Node19 -->
<g id="edge24_Node000018_Node000019" class="edge">
<title>Node18&#45;&gt;Node19</title>
<g id="a_edge24_Node000018_Node000019"><a xlink:title=" ">
<path fill="none" stroke="#63b8ff" d="M369.16,-20.83C378.23,-19.63 387.61,-18.39 396.69,-17.19"/>
<polygon fill="#63b8ff" stroke="#63b8ff" points="397.32,-20.64 406.77,-15.86 396.4,-13.7 397.32,-20.64"/>
</a>
</g>
</g>
</g>
</svg>

<g id="navigator" transform="translate(0 0)" fill="#404254">
  <rect fill="#f2f5e9" fill-opacity="0.5" stroke="#606060" stroke-width=".5" x="0" y="0" width="60" height="60"/>
  <use id="zoomplus" xlink:href="#zoomPlus" x="17" y="9" onmousedown="handleZoom(evt,'in')"/>
  <use id="zoomminus" xlink:href="#zoomMin" x="42" y="9" onmousedown="handleZoom(evt,'out')"/>
  <use id="reset" xlink:href="#resetDef" x="30" y="36" onmousedown="handleReset()"/>
   <use id="arrowup" xlink:href="#arrowUp" x="0" y="0" onmousedown="handlePan(0,-1)"/>
  <use id="arrowright" xlink:href="#arrowRight" x="0" y="0" onmousedown="handlePan(1,0)"/>
  <use id="arrowdown" xlink:href="#arrowDown" x="0" y="0" onmousedown="handlePan(0,1)"/>
  <use id="arrowleft" xlink:href="#arrowLeft" x="0" y="0" onmousedown="handlePan(-1,0)"/>
</g>
<svg viewBox="0 0 15 15" width="100%" height="30px" preserveAspectRatio="xMaxYMin meet">
 <g id="arrow_out" transform="scale(0.3 0.3)">
  <a xlink:href="m__patches_8fpp_8f90_ac7f748ab1e64c62eff219301807ba04e_cgraph_org.svg" target="_base">
   <rect id="button" ry="5" rx="5" y="6" x="6" height="38" width="38"
        fill="#f2f5e9" fill-opacity="0.5" stroke="#606060" stroke-width="1.0"/>
   <path id="arrow"
     d="M 11.500037,31.436501 C 11.940474,20.09759 22.043105,11.32322 32.158766,21.979434 L 37.068811,17.246167 C 37.068811,17.246167 37.088388,32 37.088388,32 L 22.160133,31.978069 C 22.160133,31.978069 26.997745,27.140456 26.997745,27.140456 C 18.528582,18.264221 13.291696,25.230495 11.500037,31.436501 z"
     style="fill:#404040;"/>
  </a>
 </g>
</svg>

<style type='text/css'>
<![CDATA[
[data-mouse-over-selected='false'] { opacity: 0.7; }
[data-mouse-over-selected='true']  { opacity: 1.0; }
]]>
</style>
<script type="application/ecmascript"><![CDATA[
document.addEventListener('DOMContentLoaded', (event) => {
  highlightEdges();
  highlightAdjacentNodes();
});
]]></script>
</svg>
