<?xml version="1.0" encoding="UTF-8" standalone="no"?>
<!DOCTYPE svg PUBLIC "-//W3C//DTD SVG 1.1//EN"
 "http://www.w3.org/Graphics/SVG/1.1/DTD/svg11.dtd">
<!-- Generated by graphviz version 2.43.0 (0)
 -->
<!-- Title: s_compute_pressure Pages: 1 -->
<svg width="733pt" height="161pt"
 viewBox="0.00 0.00 733.00 160.82" xmlns="http://www.w3.org/2000/svg" xmlns:xlink="http://www.w3.org/1999/xlink">
<g id="graph0" class="graph" transform="scale(1 1) rotate(0) translate(4 156.82)">
<title>s_compute_pressure</title>
<!-- Node1 -->
<g id="Node000001" class="node">
<title>Node1</title>
<g id="a_Node000001"><a xlink:title="This procedure conditionally calculates the appropriate pressure.">
<polygon fill="#999999" stroke="#666666" points="725,-96.32 608,-96.32 608,-77.32 725,-77.32 725,-96.32"/>
<text text-anchor="middle" x="666.5" y="-84.32" font-family="Helvetica,sans-Serif" font-size="10.00">s_compute_pressure</text>
</a>
</g>
</g>
<!-- Node2 -->
<g id="Node000002" class="node">
<title>Node2</title>
<g id="a_Node000002"><a xlink:href="m__variables__conversion_8fpp_8f90.html#a347ac5f0eb3158bfb1edcad667b6025c" target="_top" xlink:title=" ">
<polygon fill="white" stroke="#666666" points="402.5,-152.82 256.5,-152.82 256.5,-122.82 402.5,-122.82 402.5,-152.82"/>
<text text-anchor="start" x="264.5" y="-140.82" font-family="Helvetica,sans-Serif" font-size="10.00">__m_variables_conversion</text>
<text text-anchor="middle" x="329.5" y="-129.82" font-family="Helvetica,sans-Serif" font-size="10.00">_fpp_f90__</text>
</a>
</g>
</g>
<!-- Node1&#45;&gt;Node2 -->
<g id="edge1_Node000001_Node000002" class="edge">
<title>Node1&#45;&gt;Node2</title>
<g id="a_edge1_Node000001_Node000002"><a xlink:title=" ">
<path fill="none" stroke="#63b8ff" d="M622.82,-99.11C606.97,-103.32 588.77,-107.74 572,-110.82 515.56,-121.16 450.93,-128.14 402.74,-132.4"/>
<polygon fill="#63b8ff" stroke="#63b8ff" points="624.13,-102.39 632.86,-96.39 622.3,-95.63 624.13,-102.39"/>
</a>
</g>
</g>
<!-- Node3 -->
<g id="Node000003" class="node">
<title>Node3</title>
<g id="a_Node000003"><a xlink:href="m__variables__conversion_8fpp_8f90.html#a24725c6eb206c9a62e2ec70bf368836d" target="_top" xlink:title="The following procedure handles the conversion between the conservative variables and the primitive v...">
<polygon fill="white" stroke="#666666" points="572,-101.82 440,-101.82 440,-71.82 572,-71.82 572,-101.82"/>
<text text-anchor="start" x="448" y="-89.82" font-family="Helvetica,sans-Serif" font-size="10.00">s_convert_conservative</text>
<text text-anchor="middle" x="506" y="-78.82" font-family="Helvetica,sans-Serif" font-size="10.00">_to_primitive_variables</text>
</a>
</g>
</g>
<!-- Node1&#45;&gt;Node3 -->
<g id="edge2_Node000001_Node000003" class="edge">
<title>Node1&#45;&gt;Node3</title>
<g id="a_edge2_Node000001_Node000003"><a xlink:title=" ">
<path fill="none" stroke="#63b8ff" d="M597.63,-86.82C589.18,-86.82 580.55,-86.82 572.14,-86.82"/>
<polygon fill="#63b8ff" stroke="#63b8ff" points="597.83,-90.32 607.83,-86.82 597.83,-83.32 597.83,-90.32"/>
</a>
</g>
</g>
<!-- Node7 -->
<g id="Node000007" class="node">
<title>Node7</title>
<g id="a_Node000007"><a xlink:href="namespacem__data__output.html#abaf86e34cd05a2227a23bcef0671a391" target="_top" xlink:title="Writes grid and initial condition data files to the &quot;0&quot; time&#45;step directory in the local processor ra...">
<polygon fill="white" stroke="#666666" points="571.5,-44.82 440.5,-44.82 440.5,-14.82 571.5,-14.82 571.5,-44.82"/>
<text text-anchor="start" x="448.5" y="-32.82" font-family="Helvetica,sans-Serif" font-size="10.00">m_data_output::s_write</text>
<text text-anchor="middle" x="506" y="-21.82" font-family="Helvetica,sans-Serif" font-size="10.00">_serial_data_files</text>
</a>
</g>
</g>
<!-- Node1&#45;&gt;Node7 -->
<g id="edge7_Node000001_Node000007" class="edge">
<title>Node1&#45;&gt;Node7</title>
<g id="a_edge7_Node000001_Node000007"><a xlink:title=" ">
<path fill="none" stroke="#63b8ff" d="M629.53,-73.88C605.55,-65.26 573.95,-53.89 548.84,-44.86"/>
<polygon fill="#63b8ff" stroke="#63b8ff" points="628.38,-77.19 638.97,-77.28 630.75,-70.6 628.38,-77.19"/>
</a>
</g>
</g>
<!-- Node3&#45;&gt;Node2 -->
<g id="edge3_Node000003_Node000002" class="edge">
<title>Node3&#45;&gt;Node2</title>
<g id="a_edge3_Node000003_Node000002"><a xlink:title=" ">
<path fill="none" stroke="#63b8ff" d="M443.84,-104.69C423.59,-110.61 401.28,-117.13 381.85,-122.81"/>
<polygon fill="#63b8ff" stroke="#63b8ff" points="444.97,-108.01 453.59,-101.84 443.01,-101.29 444.97,-108.01"/>
</a>
</g>
</g>
<!-- Node4 -->
<g id="Node000004" class="node">
<title>Node4</title>
<g id="a_Node000004"><a xlink:href="namespacem__initial__condition.html#aa74a70029e3ec0fd3225b369e7c5443e" target="_top" xlink:title="This subroutine peruses the patches and depending on the type of geometry associated with a particula...">
<polygon fill="white" stroke="#666666" points="384.5,-104.32 274.5,-104.32 274.5,-63.32 384.5,-63.32 384.5,-104.32"/>
<text text-anchor="start" x="282.5" y="-92.32" font-family="Helvetica,sans-Serif" font-size="10.00">m_initial_condition</text>
<text text-anchor="start" x="282.5" y="-81.32" font-family="Helvetica,sans-Serif" font-size="10.00">::s_generate_initial</text>
<text text-anchor="middle" x="329.5" y="-70.32" font-family="Helvetica,sans-Serif" font-size="10.00">_condition</text>
</a>
</g>
</g>
<!-- Node3&#45;&gt;Node4 -->
<g id="edge4_Node000003_Node000004" class="edge">
<title>Node3&#45;&gt;Node4</title>
<g id="a_edge4_Node000003_Node000004"><a xlink:title=" ">
<path fill="none" stroke="#63b8ff" d="M429.24,-85.51C414.23,-85.26 398.77,-84.99 384.66,-84.75"/>
<polygon fill="#63b8ff" stroke="#63b8ff" points="429.47,-89.02 439.53,-85.69 429.59,-82.02 429.47,-89.02"/>
</a>
</g>
</g>
<!-- Node5 -->
<g id="Node000005" class="node">
<title>Node5</title>
<g id="a_Node000005"><a xlink:href="namespacem__start__up.html#abdd3c5dcf76d06086edf11b2df325492" target="_top" xlink:title=" ">
<polygon fill="white" stroke="#666666" points="211.5,-95.82 96.5,-95.82 96.5,-65.82 211.5,-65.82 211.5,-95.82"/>
<text text-anchor="start" x="104.5" y="-83.82" font-family="Helvetica,sans-Serif" font-size="10.00">m_start_up::s_apply</text>
<text text-anchor="middle" x="154" y="-72.82" font-family="Helvetica,sans-Serif" font-size="10.00">_initial_condition</text>
</a>
</g>
</g>
<!-- Node4&#45;&gt;Node5 -->
<g id="edge5_Node000004_Node000005" class="edge">
<title>Node4&#45;&gt;Node5</title>
<g id="a_edge5_Node000004_Node000005"><a xlink:title=" ">
<path fill="none" stroke="#63b8ff" d="M263.62,-82.7C246.54,-82.4 228.24,-82.08 211.62,-81.8"/>
<polygon fill="#63b8ff" stroke="#63b8ff" points="264.02,-86.2 274.08,-82.88 264.14,-79.2 264.02,-86.2"/>
</a>
</g>
</g>
<!-- Node6 -->
<g id="Node000006" class="node">
<title>Node6</title>
<g id="a_Node000006"><a xlink:href="p__main_8f90.html#aeec10ee8e2940c953967da3e374e1579" target="_top" xlink:title="This program takes care of setting up the initial condition and grid data for the multicomponent flow...">
<polygon fill="white" stroke="#666666" points="53,-63.32 0,-63.32 0,-44.32 53,-44.32 53,-63.32"/>
<text text-anchor="middle" x="26.5" y="-51.32" font-family="Helvetica,sans-Serif" font-size="10.00">p_main</text>
</a>
</g>
</g>
<!-- Node5&#45;&gt;Node6 -->
<g id="edge6_Node000005_Node000006" class="edge">
<title>Node5&#45;&gt;Node6</title>
<g id="a_edge6_Node000005_Node000006"><a xlink:title=" ">
<path fill="none" stroke="#63b8ff" d="M86.55,-66.52C74.73,-63.98 63.08,-61.47 53.29,-59.37"/>
<polygon fill="#63b8ff" stroke="#63b8ff" points="85.98,-69.98 96.49,-68.66 87.45,-63.14 85.98,-69.98"/>
</a>
</g>
</g>
<!-- Node8 -->
<g id="Node000008" class="node">
<title>Node8</title>
<g id="a_Node000008"><a xlink:href="namespacem__data__output.html#ab65b312ef83adb104cafafada9c998b6" target="_top" xlink:title="Computation of parameters, allocation procedures, and/or any other tasks needed to properly setup the...">
<polygon fill="white" stroke="#666666" points="404,-44.82 255,-44.82 255,-14.82 404,-14.82 404,-44.82"/>
<text text-anchor="start" x="263" y="-32.82" font-family="Helvetica,sans-Serif" font-size="10.00">m_data_output::s_initialize</text>
<text text-anchor="middle" x="329.5" y="-21.82" font-family="Helvetica,sans-Serif" font-size="10.00">_data_output_module</text>
</a>
</g>
</g>
<!-- Node7&#45;&gt;Node8 -->
<g id="edge8_Node000007_Node000008" class="edge">
<title>Node7&#45;&gt;Node8</title>
<g id="a_edge8_Node000007_Node000008"><a xlink:title=" ">
<path fill="none" stroke="#63b8ff" d="M430.01,-29.82C421.41,-29.82 412.64,-29.82 404.05,-29.82"/>
<polygon fill="#63b8ff" stroke="#63b8ff" points="430.02,-33.32 440.02,-29.82 430.02,-26.32 430.02,-33.32"/>
</a>
</g>
</g>
<!-- Node9 -->
<g id="Node000009" class="node">
<title>Node9</title>
<g id="a_Node000009"><a xlink:href="namespacem__start__up.html#a3745654d013067a8c4fd89f50598674c" target="_top" xlink:title=" ">
<polygon fill="white" stroke="#666666" points="219,-44.82 89,-44.82 89,-14.82 219,-14.82 219,-44.82"/>
<text text-anchor="start" x="97" y="-32.82" font-family="Helvetica,sans-Serif" font-size="10.00">m_start_up::s_initialize</text>
<text text-anchor="middle" x="154" y="-21.82" font-family="Helvetica,sans-Serif" font-size="10.00">_modules</text>
</a>
</g>
</g>
<!-- Node7&#45;&gt;Node9 -->
<g id="edge11_Node000007_Node000009" class="edge">
<title>Node7&#45;&gt;Node9</title>
<g id="a_edge11_Node000007_Node000009"><a xlink:title=" ">
<path fill="none" stroke="#63b8ff" d="M442.06,-12.48C429.55,-9.71 416.43,-7.27 404,-5.82 338.23,1.89 320.76,1.96 255,-5.82 239.4,-7.66 222.7,-11.08 207.52,-14.76"/>
<polygon fill="#63b8ff" stroke="#63b8ff" points="441.42,-15.92 451.95,-14.76 442.99,-9.1 441.42,-15.92"/>
</a>
</g>
</g>
<!-- Node8&#45;&gt;Node9 -->
<g id="edge9_Node000008_Node000009" class="edge">
<title>Node8&#45;&gt;Node9</title>
<g id="a_edge9_Node000008_Node000009"><a xlink:title=" ">
<path fill="none" stroke="#63b8ff" d="M244.81,-29.82C236.16,-29.82 227.47,-29.82 219.09,-29.82"/>
<polygon fill="#63b8ff" stroke="#63b8ff" points="244.92,-33.32 254.92,-29.82 244.92,-26.32 244.92,-33.32"/>
</a>
</g>
</g>
<!-- Node9&#45;&gt;Node6 -->
<g id="edge10_Node000009_Node000006" class="edge">
<title>Node9&#45;&gt;Node6</title>
<g id="a_edge10_Node000009_Node000006"><a xlink:title=" ">
<path fill="none" stroke="#63b8ff" d="M78.74,-44.02C69.58,-45.77 60.76,-47.46 53.09,-48.92"/>
<polygon fill="#63b8ff" stroke="#63b8ff" points="79.61,-47.41 88.78,-42.1 78.3,-40.54 79.61,-47.41"/>
</a>
</g>
</g>
</g>
</svg>
