<?xml version="1.0" encoding="UTF-8" standalone="no"?>
<!DOCTYPE svg PUBLIC "-//W3C//DTD SVG 1.1//EN"
 "http://www.w3.org/Graphics/SVG/1.1/DTD/svg11.dtd">
<!-- Generated by graphviz version 2.43.0 (0)
 -->
<!-- Title: s_convert_conservative_to_primitive_variables Pages: 1 -->
<svg width="352pt" height="161pt"
 viewBox="0.00 0.00 352.00 160.50" xmlns="http://www.w3.org/2000/svg" xmlns:xlink="http://www.w3.org/1999/xlink">
<g id="graph0" class="graph" transform="scale(1 1) rotate(0) translate(4 156.5)">
<title>s_convert_conservative_to_primitive_variables</title>
<!-- Node1 -->
<g id="Node000001" class="node">
<title>Node1</title>
<g id="a_Node000001"><a xlink:title="The following procedure handles the conversion between the conservative variables and the primitive v...">
<polygon fill="#999999" stroke="#666666" points="132,-99 0,-99 0,-69 132,-69 132,-99"/>
<text text-anchor="start" x="8" y="-87" font-family="Helvetica,sans-Serif" font-size="10.00">s_convert_conservative</text>
<text text-anchor="middle" x="66" y="-76" font-family="Helvetica,sans-Serif" font-size="10.00">_to_primitive_variables</text>
</a>
</g>
</g>
<!-- Node2 -->
<g id="Node000002" class="node">
<title>Node2</title>
<g id="a_Node000002"><a xlink:href="m__helper_8fpp_8f90.html#a772c75c8b24c414cfaed17e2f8acc772" target="_top" xlink:title=" ">
<polygon fill="white" stroke="#666666" points="317,-152.5 195,-152.5 195,-133.5 317,-133.5 317,-152.5"/>
<text text-anchor="middle" x="256" y="-140.5" font-family="Helvetica,sans-Serif" font-size="10.00">s_comp_n_from_cons</text>
</a>
</g>
</g>
<!-- Node1&#45;&gt;Node2 -->
<g id="edge1_Node000001_Node000002" class="edge">
<title>Node1&#45;&gt;Node2</title>
<g id="a_edge1_Node000001_Node000002"><a xlink:title=" ">
<path fill="none" stroke="#63b8ff" d="M99.66,-99.02C119.18,-107.55 144.64,-117.91 168,-125 175.47,-127.27 183.39,-129.34 191.29,-131.21"/>
<polygon fill="#63b8ff" stroke="#63b8ff" points="190.72,-134.67 201.24,-133.47 192.26,-127.85 190.72,-134.67"/>
</a>
</g>
</g>
<!-- Node3 -->
<g id="Node000003" class="node">
<title>Node3</title>
<g id="a_Node000003"><a xlink:href="m__variables__conversion_8fpp_8f90.html#ad31047dc31e7ee8fc14d8717c4d0c334" target="_top" xlink:title="This procedure conditionally calculates the appropriate pressure.">
<polygon fill="white" stroke="#666666" points="314.5,-115.5 197.5,-115.5 197.5,-96.5 314.5,-96.5 314.5,-115.5"/>
<text text-anchor="middle" x="256" y="-103.5" font-family="Helvetica,sans-Serif" font-size="10.00">s_compute_pressure</text>
</a>
</g>
</g>
<!-- Node1&#45;&gt;Node3 -->
<g id="edge2_Node000001_Node000003" class="edge">
<title>Node1&#45;&gt;Node3</title>
<g id="a_edge2_Node000001_Node000003"><a xlink:title=" ">
<path fill="none" stroke="#63b8ff" d="M132.23,-91.63C150.04,-93.72 169.38,-95.98 187.33,-98.08"/>
<polygon fill="#63b8ff" stroke="#63b8ff" points="187.08,-101.58 197.42,-99.26 187.89,-94.62 187.08,-101.58"/>
</a>
</g>
</g>
<!-- Node4 -->
<g id="Node000004" class="node">
<title>Node4</title>
<g id="a_Node000004"><a xlink:href="m__variables__conversion_8fpp_8f90.html#a429dacb6b48479f387786642eb79900d" target="_top" xlink:title=" ">
<polygon fill="white" stroke="#666666" points="322,-78 190,-78 190,-48 322,-48 322,-78"/>
<text text-anchor="start" x="198" y="-66" font-family="Helvetica,sans-Serif" font-size="10.00">s_convert_species_to</text>
<text text-anchor="middle" x="256" y="-55" font-family="Helvetica,sans-Serif" font-size="10.00">_mixture_variables_acc</text>
</a>
</g>
</g>
<!-- Node1&#45;&gt;Node4 -->
<g id="edge3_Node000001_Node000004" class="edge">
<title>Node1&#45;&gt;Node4</title>
<g id="a_edge3_Node000001_Node000004"><a xlink:title=" ">
<path fill="none" stroke="#63b8ff" d="M132.23,-76.71C147.54,-75 163.98,-73.17 179.69,-71.41"/>
<polygon fill="#63b8ff" stroke="#63b8ff" points="180.34,-74.86 189.89,-70.27 179.56,-67.9 180.34,-74.86"/>
</a>
</g>
</g>
<!-- Node5 -->
<g id="Node000005" class="node">
<title>Node5</title>
<g id="a_Node000005"><a xlink:href="m__variables__conversion_8fpp_8f90.html#ab5ef0fb6705f3250d70ca1d9d750952c" target="_top" xlink:title=" ">
<polygon fill="white" stroke="#666666" points="344,-30 168,-30 168,0 344,0 344,-30"/>
<text text-anchor="start" x="176" y="-18" font-family="Helvetica,sans-Serif" font-size="10.00">s_convert_species_to</text>
<text text-anchor="middle" x="256" y="-7" font-family="Helvetica,sans-Serif" font-size="10.00">_mixture_variables_bubbles_acc</text>
</a>
</g>
</g>
<!-- Node1&#45;&gt;Node5 -->
<g id="edge4_Node000001_Node000005" class="edge">
<title>Node1&#45;&gt;Node5</title>
<g id="a_edge4_Node000001_Node000005"><a xlink:title=" ">
<path fill="none" stroke="#63b8ff" d="M97.45,-68.99C117.25,-59.6 143.79,-47.68 168,-39 173.81,-36.92 179.89,-34.91 186.02,-33"/>
<polygon fill="#63b8ff" stroke="#63b8ff" points="187.1,-36.33 195.66,-30.08 185.07,-29.63 187.1,-36.33"/>
</a>
</g>
</g>
</g>
</svg>
