<?xml version="1.0" encoding="UTF-8" standalone="no"?>
<!DOCTYPE svg PUBLIC "-//W3C//DTD SVG 1.1//EN"
 "http://www.w3.org/Graphics/SVG/1.1/DTD/svg11.dtd">
<!-- Generated by graphviz version 2.43.0 (0)
 -->
<!-- Title: s_convert_species_to_mixture_variables_acc Pages: 1 -->
<svg width="579pt" height="108pt"
 viewBox="0.00 0.00 579.00 108.32" xmlns="http://www.w3.org/2000/svg" xmlns:xlink="http://www.w3.org/1999/xlink">
<g id="graph0" class="graph" transform="scale(1 1) rotate(0) translate(4 104.32)">
<title>s_convert_species_to_mixture_variables_acc</title>
<!-- Node1 -->
<g id="Node000001" class="node">
<title>Node1</title>
<g id="a_Node000001"><a xlink:title=" ">
<polygon fill="#999999" stroke="#666666" points="571,-86.5 439,-86.5 439,-56.5 571,-56.5 571,-86.5"/>
<text text-anchor="start" x="447" y="-74.5" font-family="Helvetica,sans-Serif" font-size="10.00">s_convert_species_to</text>
<text text-anchor="middle" x="505" y="-63.5" font-family="Helvetica,sans-Serif" font-size="10.00">_mixture_variables_acc</text>
</a>
</g>
</g>
<!-- Node2 -->
<g id="Node000002" class="node">
<title>Node2</title>
<g id="a_Node000002"><a xlink:href="m__variables__conversion_8fpp_8f90.html#a347ac5f0eb3158bfb1edcad667b6025c" target="_top" xlink:title=" ">
<polygon fill="white" stroke="#666666" points="235,-89.5 89,-89.5 89,-59.5 235,-59.5 235,-89.5"/>
<text text-anchor="start" x="97" y="-77.5" font-family="Helvetica,sans-Serif" font-size="10.00">__m_variables_conversion</text>
<text text-anchor="middle" x="162" y="-66.5" font-family="Helvetica,sans-Serif" font-size="10.00">_fpp_f90__</text>
</a>
</g>
</g>
<!-- Node1&#45;&gt;Node2 -->
<g id="edge1_Node000001_Node000002" class="edge">
<title>Node1&#45;&gt;Node2</title>
<g id="a_edge1_Node000001_Node000002"><a xlink:title=" ">
<path fill="none" stroke="#63b8ff" d="M441.06,-88.84C428.55,-91.61 415.43,-94.04 403,-95.5 344.73,-102.33 329.4,-101.12 271,-95.5 257.5,-94.2 243.18,-92.01 229.54,-89.51"/>
<polygon fill="#63b8ff" stroke="#63b8ff" points="441.99,-92.22 450.95,-86.56 440.42,-85.4 441.99,-92.22"/>
</a>
</g>
</g>
<!-- Node3 -->
<g id="Node000003" class="node">
<title>Node3</title>
<g id="a_Node000003"><a xlink:href="m__variables__conversion_8fpp_8f90.html#a24725c6eb206c9a62e2ec70bf368836d" target="_top" xlink:title="The following procedure handles the conversion between the conservative variables and the primitive v...">
<polygon fill="white" stroke="#666666" points="403,-38.5 271,-38.5 271,-8.5 403,-8.5 403,-38.5"/>
<text text-anchor="start" x="279" y="-26.5" font-family="Helvetica,sans-Serif" font-size="10.00">s_convert_conservative</text>
<text text-anchor="middle" x="337" y="-15.5" font-family="Helvetica,sans-Serif" font-size="10.00">_to_primitive_variables</text>
</a>
</g>
</g>
<!-- Node1&#45;&gt;Node3 -->
<g id="edge2_Node000001_Node000003" class="edge">
<title>Node1&#45;&gt;Node3</title>
<g id="a_edge2_Node000001_Node000003"><a xlink:title=" ">
<path fill="none" stroke="#63b8ff" d="M442,-53.57C424.84,-48.61 406.4,-43.28 389.88,-38.5"/>
<polygon fill="#63b8ff" stroke="#63b8ff" points="441.35,-57.03 451.93,-56.44 443.3,-50.3 441.35,-57.03"/>
</a>
</g>
</g>
<!-- Node6 -->
<g id="Node000006" class="node">
<title>Node6</title>
<g id="a_Node000006"><a xlink:href="m__variables__conversion_8fpp_8f90.html#a372d7e72401e01311cda4b4b0b8c3d29" target="_top" xlink:title="The following subroutine handles the conversion between the primitive variables and the Eulerian flux...">
<polygon fill="white" stroke="#666666" points="393.5,-86.5 280.5,-86.5 280.5,-56.5 393.5,-56.5 393.5,-86.5"/>
<text text-anchor="start" x="288.5" y="-74.5" font-family="Helvetica,sans-Serif" font-size="10.00">s_convert_primitive</text>
<text text-anchor="middle" x="337" y="-63.5" font-family="Helvetica,sans-Serif" font-size="10.00">_to_flux_variables</text>
</a>
</g>
</g>
<!-- Node1&#45;&gt;Node6 -->
<g id="edge6_Node000001_Node000006" class="edge">
<title>Node1&#45;&gt;Node6</title>
<g id="a_edge6_Node000001_Node000006"><a xlink:title=" ">
<path fill="none" stroke="#63b8ff" d="M428.58,-71.5C416.79,-71.5 404.78,-71.5 393.54,-71.5"/>
<polygon fill="#63b8ff" stroke="#63b8ff" points="428.87,-75 438.87,-71.5 428.87,-68 428.87,-75"/>
</a>
</g>
</g>
<!-- Node3&#45;&gt;Node2 -->
<g id="edge3_Node000003_Node000002" class="edge">
<title>Node3&#45;&gt;Node2</title>
<g id="a_edge3_Node000003_Node000002"><a xlink:title=" ">
<path fill="none" stroke="#63b8ff" d="M275.36,-41.38C255.29,-47.29 233.17,-53.81 213.9,-59.49"/>
<polygon fill="#63b8ff" stroke="#63b8ff" points="276.43,-44.71 285.03,-38.53 274.45,-38 276.43,-44.71"/>
</a>
</g>
</g>
<!-- Node4 -->
<g id="Node000004" class="node">
<title>Node4</title>
<g id="a_Node000004"><a xlink:href="namespacem__initial__condition.html#aa74a70029e3ec0fd3225b369e7c5443e" target="_top" xlink:title="This subroutine peruses the patches and depending on the type of geometry associated with a particula...">
<polygon fill="white" stroke="#666666" points="217,-41 107,-41 107,0 217,0 217,-41"/>
<text text-anchor="start" x="115" y="-29" font-family="Helvetica,sans-Serif" font-size="10.00">m_initial_condition</text>
<text text-anchor="start" x="115" y="-18" font-family="Helvetica,sans-Serif" font-size="10.00">::s_generate_initial</text>
<text text-anchor="middle" x="162" y="-7" font-family="Helvetica,sans-Serif" font-size="10.00">_condition</text>
</a>
</g>
</g>
<!-- Node3&#45;&gt;Node4 -->
<g id="edge4_Node000003_Node000004" class="edge">
<title>Node3&#45;&gt;Node4</title>
<g id="a_edge4_Node000003_Node000004"><a xlink:title=" ">
<path fill="none" stroke="#63b8ff" d="M260.58,-22.19C245.99,-21.94 230.97,-21.68 217.22,-21.44"/>
<polygon fill="#63b8ff" stroke="#63b8ff" points="260.54,-25.69 270.6,-22.37 260.66,-18.69 260.54,-25.69"/>
</a>
</g>
</g>
<!-- Node5 -->
<g id="Node000005" class="node">
<title>Node5</title>
<g id="a_Node000005"><a xlink:href="p__main_8f90.html#aeec10ee8e2940c953967da3e374e1579" target="_top" xlink:title="This program takes care of setting up the initial condition and grid data for the multicomponent flow...">
<polygon fill="white" stroke="#666666" points="53,-30 0,-30 0,-11 53,-11 53,-30"/>
<text text-anchor="middle" x="26.5" y="-18" font-family="Helvetica,sans-Serif" font-size="10.00">p_main</text>
</a>
</g>
</g>
<!-- Node4&#45;&gt;Node5 -->
<g id="edge5_Node000004_Node000005" class="edge">
<title>Node4&#45;&gt;Node5</title>
<g id="a_edge5_Node000004_Node000005"><a xlink:title=" ">
<path fill="none" stroke="#63b8ff" d="M96.65,-20.5C81.25,-20.5 65.69,-20.5 53.24,-20.5"/>
<polygon fill="#63b8ff" stroke="#63b8ff" points="96.7,-24 106.7,-20.5 96.7,-17 96.7,-24"/>
</a>
</g>
</g>
<!-- Node6&#45;&gt;Node2 -->
<g id="edge7_Node000006_Node000002" class="edge">
<title>Node6&#45;&gt;Node2</title>
<g id="a_edge7_Node000006_Node000002"><a xlink:title=" ">
<path fill="none" stroke="#63b8ff" d="M269.98,-72.64C258.55,-72.84 246.61,-73.05 235.02,-73.25"/>
<polygon fill="#63b8ff" stroke="#63b8ff" points="270.37,-76.14 280.31,-72.47 270.25,-69.14 270.37,-76.14"/>
</a>
</g>
</g>
</g>
</svg>
