<?xml version="1.0" encoding="UTF-8" standalone="no"?>
<!DOCTYPE svg PUBLIC "-//W3C//DTD SVG 1.1//EN"
 "http://www.w3.org/Graphics/SVG/1.1/DTD/svg11.dtd">
<!-- Generated by graphviz version 2.43.0 (0)
 -->
<!-- Title: m_mpi_proxy::s_mpi_abort Pages: 1 -->
<!--zoomable 1468 -->
<svg id="main" version="1.1" xmlns="http://www.w3.org/2000/svg" xmlns:xlink="http://www.w3.org/1999/xlink" xml:space="preserve" onload="init(evt)">
<style type="text/css"><![CDATA[
.edge:hover path { stroke: red; }
.edge:hover polygon { stroke: red; fill: red; }
]]></style>
<script type="text/javascript"><![CDATA[
var edges = document.getElementsByTagName('g');
if (edges && edges.length) {
  for (var i=0;i<edges.length;i++) {
    if (edges[i].id.substr(0,4)=='edge') {
      edges[i].setAttribute('class','edge');
    }
  }
}
]]></script>
        <defs>
                <circle id="rim" cx="0" cy="0" r="7"/>
                <circle id="rim2" cx="0" cy="0" r="3.5"/>
                <g id="zoomPlus">
                        <use xlink:href="#rim" fill="#404040">
                                <set attributeName="fill" to="#808080" begin="zoomplus.mouseover" end="zoomplus.mouseout"/>
                        </use>
                        <path d="M-4,0h8M0,-4v8" fill="none" stroke="white" stroke-width="1.5" pointer-events="none"/>
                </g>
                <g id="zoomMin">
                        <use xlink:href="#rim" fill="#404040">
                                <set attributeName="fill" to="#808080" begin="zoomminus.mouseover" end="zoomminus.mouseout"/>
                        </use>
                        <path d="M-4,0h8" fill="none" stroke="white" stroke-width="1.5" pointer-events="none"/>
                </g>
                <g id="dirArrow">
                        <path fill="none" stroke="white" stroke-width="1.5" d="M0,-3.0v7 M-2.5,-0.5L0,-3.0L2.5,-0.5"/>
                </g>
               <g id="resetDef">
                       <use xlink:href="#rim2" fill="#404040">
                               <set attributeName="fill" to="#808080" begin="reset.mouseover" end="reset.mouseout"/>
                       </use>
               </g>
        </defs>

<script type="text/javascript">
var viewWidth = 589;
var viewHeight = 1468;
var sectionId = 'dynsection-2';
</script>
<script xlink:href="svgpan.js"/>
<svg id="graph" class="graph">
<g id="viewport">
<title>m_mpi_proxy::s_mpi_abort</title>
<!-- Node1 -->
<g id="node1" class="node">
<title>Node1</title>
<g id="a_node1"><a xlink:title="The subroutine terminates the MPI execution environment.">
<polygon fill="#999999" stroke="#666666" points="581,-730.2 463,-730.2 463,-700.2 581,-700.2 581,-730.2"/>
<text text-anchor="start" x="471" y="-718.2" font-family="Helvetica,sans-Serif" font-size="10.00">m_mpi_proxy::s_mpi</text>
<text text-anchor="middle" x="522" y="-707.2" font-family="Helvetica,sans-Serif" font-size="10.00">_abort</text>
</a>
</g>
</g>
<!-- Node2 -->
<g id="node2" class="node">
<title>Node2</title>
<g id="a_node2"><a xlink:href="namespacem__start__up.html#a2c3f4c2fe04814a924bff26228516a39" target="_top" xlink:title="This subroutine verifies that the geometric parameters of the analytical patch have consistently been...">
<polygon fill="white" stroke="#666666" points="400.5,-487.7 281.5,-487.7 281.5,-446.7 400.5,-446.7 400.5,-487.7"/>
<text text-anchor="start" x="289.5" y="-475.7" font-family="Helvetica,sans-Serif" font-size="10.00">m_start_up::s_check</text>
<text text-anchor="start" x="289.5" y="-464.7" font-family="Helvetica,sans-Serif" font-size="10.00">_1d_analytical_patch</text>
<text text-anchor="middle" x="341" y="-453.7" font-family="Helvetica,sans-Serif" font-size="10.00">_geometry</text>
</a>
</g>
</g>
<!-- Node1&#45;&gt;Node2 -->
<g id="edge1" class="edge">
<title>Node1&#45;&gt;Node2</title>
<path fill="none" stroke="#63b8ff" d="M516.35,-690.3C506.96,-646.59 481.8,-555.65 427,-502.2 419.46,-494.85 410.16,-488.96 400.5,-484.27"/>
<polygon fill="#63b8ff" stroke="#63b8ff" points="512.92,-691.01 518.36,-700.1 519.78,-689.6 512.92,-691.01"/>
</g>
<!-- Node3 -->
<g id="node3" class="node">
<title>Node3</title>
<g id="a_node3"><a xlink:href="namespacem__start__up.html#ab5f7e03f1da1999ee699cec4f26370e0" target="_top" xlink:title="Checking that the user inputs make sense, i.e. that the individual choices are compatible with the co...">
<polygon fill="white" stroke="#666666" points="212,-850.2 96,-850.2 96,-820.2 212,-820.2 212,-850.2"/>
<text text-anchor="start" x="104" y="-838.2" font-family="Helvetica,sans-Serif" font-size="10.00">m_start_up::s_check</text>
<text text-anchor="middle" x="154" y="-827.2" font-family="Helvetica,sans-Serif" font-size="10.00">_input_file</text>
</a>
</g>
</g>
<!-- Node1&#45;&gt;Node3 -->
<g id="edge30" class="edge">
<title>Node1&#45;&gt;Node3</title>
<path fill="none" stroke="#63b8ff" d="M516.39,-690.04C507.38,-649.11 483.19,-569.25 427,-535.2 361.62,-495.59 317.01,-490.51 255,-535.2 159.24,-604.22 153.79,-768.91 154.5,-819.89"/>
<polygon fill="#63b8ff" stroke="#63b8ff" points="513,-690.94 518.45,-700.02 519.86,-689.52 513,-690.94"/>
</g>
<!-- Node5 -->
<g id="node5" class="node">
<title>Node5</title>
<g id="a_node5"><a xlink:href="namespacem__start__up.html#a0acb93e848d6dd38e617d4870a9b9261" target="_top" xlink:title="This subroutine verifies that the geometric parameters of the analytical patch have consistently been...">
<polygon fill="white" stroke="#666666" points="400.5,-428.7 281.5,-428.7 281.5,-387.7 400.5,-387.7 400.5,-428.7"/>
<text text-anchor="start" x="289.5" y="-416.7" font-family="Helvetica,sans-Serif" font-size="10.00">m_start_up::s_check</text>
<text text-anchor="start" x="289.5" y="-405.7" font-family="Helvetica,sans-Serif" font-size="10.00">_2d_analytical_patch</text>
<text text-anchor="middle" x="341" y="-394.7" font-family="Helvetica,sans-Serif" font-size="10.00">_geometry</text>
</a>
</g>
</g>
<!-- Node1&#45;&gt;Node5 -->
<g id="edge4" class="edge">
<title>Node1&#45;&gt;Node5</title>
<path fill="none" stroke="#63b8ff" d="M519.7,-690.13C515.57,-636.3 498.35,-508.75 427,-437.2 419.62,-429.81 410.29,-424.29 400.52,-420.19"/>
<polygon fill="#63b8ff" stroke="#63b8ff" points="516.21,-690.43 520.38,-700.17 523.2,-689.95 516.21,-690.43"/>
</g>
<!-- Node6 -->
<g id="node6" class="node">
<title>Node6</title>
<g id="a_node6"><a xlink:href="namespacem__start__up.html#a936948a39ac13e74203588cae06b325f" target="_top" xlink:title="This subroutine verifies that the geometric parameters of the analytical patch have consistently been...">
<polygon fill="white" stroke="#666666" points="400.5,-369.7 281.5,-369.7 281.5,-328.7 400.5,-328.7 400.5,-369.7"/>
<text text-anchor="start" x="289.5" y="-357.7" font-family="Helvetica,sans-Serif" font-size="10.00">m_start_up::s_check</text>
<text text-anchor="start" x="289.5" y="-346.7" font-family="Helvetica,sans-Serif" font-size="10.00">_3d_analytical_patch</text>
<text text-anchor="middle" x="341" y="-335.7" font-family="Helvetica,sans-Serif" font-size="10.00">_geometry</text>
</a>
</g>
</g>
<!-- Node1&#45;&gt;Node6 -->
<g id="edge6" class="edge">
<title>Node1&#45;&gt;Node6</title>
<path fill="none" stroke="#63b8ff" d="M521.47,-690.08C521.24,-628.42 512,-468.17 427,-378.2 419.83,-370.61 410.58,-365 400.85,-360.87"/>
<polygon fill="#63b8ff" stroke="#63b8ff" points="517.97,-690.06 521.43,-700.08 524.97,-690.09 517.97,-690.06"/>
</g>
<!-- Node7 -->
<g id="node7" class="node">
<title>Node7</title>
<g id="a_node7"><a xlink:href="namespacem__start__up.html#ada150cf67ef5f91529ac7eda46ad5492" target="_top" xlink:title="This subroutine verifies that any rights granted to the given active patch, to overwrite the precedin...">
<polygon fill="white" stroke="#666666" points="409.5,-310.7 272.5,-310.7 272.5,-269.7 409.5,-269.7 409.5,-310.7"/>
<text text-anchor="start" x="280.5" y="-298.7" font-family="Helvetica,sans-Serif" font-size="10.00">m_start_up::s_check</text>
<text text-anchor="start" x="280.5" y="-287.7" font-family="Helvetica,sans-Serif" font-size="10.00">_active_patch_alteration</text>
<text text-anchor="middle" x="341" y="-276.7" font-family="Helvetica,sans-Serif" font-size="10.00">_rights</text>
</a>
</g>
</g>
<!-- Node1&#45;&gt;Node7 -->
<g id="edge8" class="edge">
<title>Node1&#45;&gt;Node7</title>
<path fill="none" stroke="#63b8ff" d="M518.16,-689.65C508.94,-611.05 477.5,-374.78 427,-319.2 422.07,-313.78 416.09,-309.37 409.6,-305.78"/>
<polygon fill="#63b8ff" stroke="#63b8ff" points="514.74,-690.53 519.36,-700.07 521.69,-689.73 514.74,-690.53"/>
</g>
<!-- Node8 -->
<g id="node8" class="node">
<title>Node8</title>
<g id="a_node8"><a xlink:href="namespacem__start__up.html#a2650f87062992def80eb084ff2c0913b" target="_top" xlink:title="This subroutine verifies that the primitive variables associated with the given active patch are phys...">
<polygon fill="white" stroke="#666666" points="408,-1459.7 274,-1459.7 274,-1418.7 408,-1418.7 408,-1459.7"/>
<text text-anchor="start" x="282" y="-1447.7" font-family="Helvetica,sans-Serif" font-size="10.00">m_start_up::s_check</text>
<text text-anchor="start" x="282" y="-1436.7" font-family="Helvetica,sans-Serif" font-size="10.00">_active_patch_primitive</text>
<text text-anchor="middle" x="341" y="-1425.7" font-family="Helvetica,sans-Serif" font-size="10.00">_variables</text>
</a>
</g>
</g>
<!-- Node1&#45;&gt;Node8 -->
<g id="edge10" class="edge">
<title>Node1&#45;&gt;Node8</title>
<path fill="none" stroke="#63b8ff" d="M520.99,-740.38C520.44,-852.27 512.87,-1303.67 427,-1409.2 421.86,-1415.52 415.31,-1420.5 408.12,-1424.44"/>
<polygon fill="#63b8ff" stroke="#63b8ff" points="524.49,-740.36 521.02,-730.35 517.49,-740.34 524.49,-740.36"/>
</g>
<!-- Node9 -->
<g id="node9" class="node">
<title>Node9</title>
<g id="a_node9"><a xlink:href="namespacem__start__up.html#a2ab9d448e20b9f9b5db3adbb28e011fe" target="_top" xlink:title="This subroutine verifies that the geometric parameters of the circle patch have consistently been inp...">
<polygon fill="white" stroke="#666666" points="407.5,-1400.2 274.5,-1400.2 274.5,-1370.2 407.5,-1370.2 407.5,-1400.2"/>
<text text-anchor="start" x="282.5" y="-1388.2" font-family="Helvetica,sans-Serif" font-size="10.00">m_start_up::s_check</text>
<text text-anchor="middle" x="341" y="-1377.2" font-family="Helvetica,sans-Serif" font-size="10.00">_circle_patch_geometry</text>
</a>
</g>
</g>
<!-- Node1&#45;&gt;Node9 -->
<g id="edge12" class="edge">
<title>Node1&#45;&gt;Node9</title>
<path fill="none" stroke="#63b8ff" d="M520.87,-740.45C519.78,-847.95 510.19,-1266.37 427,-1361.2 421.74,-1367.2 415.11,-1371.75 407.89,-1375.19"/>
<polygon fill="#63b8ff" stroke="#63b8ff" points="524.37,-740.26 520.95,-730.23 517.37,-740.2 524.37,-740.26"/>
</g>
<!-- Node10 -->
<g id="node10" class="node">
<title>Node10</title>
<g id="a_node10"><a xlink:href="namespacem__start__up.html#ac9af27b20bc2249e7c015c76061b5515" target="_top" xlink:title="This subroutine verifies that the geometric parameters of the cuboid patch have consistently been inp...">
<polygon fill="white" stroke="#666666" points="410.5,-1352.2 271.5,-1352.2 271.5,-1322.2 410.5,-1322.2 410.5,-1352.2"/>
<text text-anchor="start" x="279.5" y="-1340.2" font-family="Helvetica,sans-Serif" font-size="10.00">m_start_up::s_check</text>
<text text-anchor="middle" x="341" y="-1329.2" font-family="Helvetica,sans-Serif" font-size="10.00">_cuboid_patch_geometry</text>
</a>
</g>
</g>
<!-- Node1&#45;&gt;Node10 -->
<g id="edge14" class="edge">
<title>Node1&#45;&gt;Node10</title>
<path fill="none" stroke="#63b8ff" d="M520.54,-740.54C518.15,-843.13 504.14,-1226.26 427,-1313.2 422.42,-1318.36 416.82,-1322.45 410.71,-1325.69"/>
<polygon fill="#63b8ff" stroke="#63b8ff" points="524.04,-740.55 520.75,-730.48 517.04,-740.4 524.04,-740.55"/>
</g>
<!-- Node11 -->
<g id="node11" class="node">
<title>Node11</title>
<g id="a_node11"><a xlink:href="namespacem__start__up.html#ad6c503541113565dcac0b49b11ff3afb" target="_top" xlink:title="This subroutine verifies that the geometric parameters of the cylinder patch have consistently been i...">
<polygon fill="white" stroke="#666666" points="414,-1304.2 268,-1304.2 268,-1274.2 414,-1274.2 414,-1304.2"/>
<text text-anchor="start" x="276" y="-1292.2" font-family="Helvetica,sans-Serif" font-size="10.00">m_start_up::s_check</text>
<text text-anchor="middle" x="341" y="-1281.2" font-family="Helvetica,sans-Serif" font-size="10.00">_cylinder_patch_geometry</text>
</a>
</g>
</g>
<!-- Node1&#45;&gt;Node11 -->
<g id="edge16" class="edge">
<title>Node1&#45;&gt;Node11</title>
<path fill="none" stroke="#63b8ff" d="M520.16,-740.36C516.42,-837.43 498.18,-1186.05 427,-1265.2 423.31,-1269.31 418.97,-1272.73 414.25,-1275.59"/>
<polygon fill="#63b8ff" stroke="#63b8ff" points="523.66,-740.41 520.53,-730.29 516.67,-740.16 523.66,-740.41"/>
</g>
<!-- Node12 -->
<g id="node12" class="node">
<title>Node12</title>
<g id="a_node12"><a xlink:href="namespacem__start__up.html#a51ddc16cb3379a50fbf2957e47dbb7d5" target="_top" xlink:title="This subroutine verifies that the geometric parameters of the ellipse patch have consistently been in...">
<polygon fill="white" stroke="#666666" points="410.5,-1256.2 271.5,-1256.2 271.5,-1226.2 410.5,-1226.2 410.5,-1256.2"/>
<text text-anchor="start" x="279.5" y="-1244.2" font-family="Helvetica,sans-Serif" font-size="10.00">m_start_up::s_check</text>
<text text-anchor="middle" x="341" y="-1233.2" font-family="Helvetica,sans-Serif" font-size="10.00">_ellipse_patch_geometry</text>
</a>
</g>
</g>
<!-- Node1&#45;&gt;Node12 -->
<g id="edge18" class="edge">
<title>Node1&#45;&gt;Node12</title>
<path fill="none" stroke="#63b8ff" d="M519.72,-740.22C514.55,-831.61 492.23,-1145.81 427,-1217.2 422.35,-1222.3 416.7,-1226.34 410.56,-1229.55"/>
<polygon fill="#63b8ff" stroke="#63b8ff" points="523.22,-740.39 520.27,-730.21 516.23,-740 523.22,-740.39"/>
</g>
<!-- Node13 -->
<g id="node13" class="node">
<title>Node13</title>
<g id="a_node13"><a xlink:href="namespacem__start__up.html#a9cb00dcfe248d67b64c361ac57b6a269" target="_top" xlink:title="This subroutine verifies that the geometric parameters of the ellipsoid patch have consistently been ...">
<polygon fill="white" stroke="#666666" points="415,-1208.2 267,-1208.2 267,-1178.2 415,-1178.2 415,-1208.2"/>
<text text-anchor="start" x="275" y="-1196.2" font-family="Helvetica,sans-Serif" font-size="10.00">m_start_up::s_check</text>
<text text-anchor="middle" x="341" y="-1185.2" font-family="Helvetica,sans-Serif" font-size="10.00">_ellipsoid_patch_geometry</text>
</a>
</g>
</g>
<!-- Node1&#45;&gt;Node13 -->
<g id="edge20" class="edge">
<title>Node1&#45;&gt;Node13</title>
<path fill="none" stroke="#63b8ff" d="M519.13,-740.87C512.33,-827.27 486.12,-1105.72 427,-1169.2 423.55,-1172.91 419.58,-1176.05 415.28,-1178.73"/>
<polygon fill="#63b8ff" stroke="#63b8ff" points="522.64,-740.89 519.91,-730.65 515.66,-740.35 522.64,-740.89"/>
</g>
<!-- Node14 -->
<g id="node14" class="node">
<title>Node14</title>
<g id="a_node14"><a xlink:href="namespacem__start__up.html#a1d2e9e9354b18d2aab09e673b04032ef" target="_top" xlink:title="Cell&#45;boundary data are checked for consistency by looking at the (non&#45;)uniform cell&#45;width distributio...">
<polygon fill="white" stroke="#666666" points="212,-266.2 96,-266.2 96,-236.2 212,-236.2 212,-266.2"/>
<text text-anchor="start" x="104" y="-254.2" font-family="Helvetica,sans-Serif" font-size="10.00">m_start_up::s_check</text>
<text text-anchor="middle" x="154" y="-243.2" font-family="Helvetica,sans-Serif" font-size="10.00">_grid_data_files</text>
</a>
</g>
</g>
<!-- Node1&#45;&gt;Node14 -->
<g id="edge22" class="edge">
<title>Node1&#45;&gt;Node14</title>
<path fill="none" stroke="#63b8ff" d="M519.73,-689.77C514.79,-602.33 493.7,-316.39 427,-260.2 365.39,-208.3 265.19,-221.54 205.14,-236.18"/>
<polygon fill="#63b8ff" stroke="#63b8ff" points="516.24,-690.07 520.28,-699.86 523.23,-689.69 516.24,-690.07"/>
</g>
<!-- Node15 -->
<g id="node15" class="node">
<title>Node15</title>
<g id="a_node15"><a xlink:href="namespacem__start__up.html#a3bf3a6bd18c4f5c2e4aefec6ad9664d8" target="_top" xlink:title="This subroutine verifies that the rights of the given inactive patch, to overwrite the preceding patc...">
<polygon fill="white" stroke="#666666" points="414,-1159.7 268,-1159.7 268,-1118.7 414,-1118.7 414,-1159.7"/>
<text text-anchor="start" x="276" y="-1147.7" font-family="Helvetica,sans-Serif" font-size="10.00">m_start_up::s_check</text>
<text text-anchor="start" x="276" y="-1136.7" font-family="Helvetica,sans-Serif" font-size="10.00">_inactive_patch_alteration</text>
<text text-anchor="middle" x="341" y="-1125.7" font-family="Helvetica,sans-Serif" font-size="10.00">_rights</text>
</a>
</g>
</g>
<!-- Node1&#45;&gt;Node15 -->
<g id="edge24" class="edge">
<title>Node1&#45;&gt;Node15</title>
<path fill="none" stroke="#63b8ff" d="M518.12,-740.6C508.77,-818.75 477,-1053.66 427,-1109.2 423.23,-1113.39 418.84,-1116.99 414.08,-1120.09"/>
<polygon fill="#63b8ff" stroke="#63b8ff" points="521.64,-740.59 519.33,-730.25 514.69,-739.78 521.64,-740.59"/>
</g>
<!-- Node16 -->
<g id="node16" class="node">
<title>Node16</title>
<g id="a_node16"><a xlink:href="namespacem__start__up.html#a1a6b2eb124c5710f9078ea787be5d650" target="_top" xlink:title="This subroutine verifies that the geometric parameters of the inactive patch remain unaltered by the ...">
<polygon fill="white" stroke="#666666" points="414,-1100.2 268,-1100.2 268,-1070.2 414,-1070.2 414,-1100.2"/>
<text text-anchor="start" x="276" y="-1088.2" font-family="Helvetica,sans-Serif" font-size="10.00">m_start_up::s_check</text>
<text text-anchor="middle" x="341" y="-1077.2" font-family="Helvetica,sans-Serif" font-size="10.00">_inactive_patch_geometry</text>
</a>
</g>
</g>
<!-- Node1&#45;&gt;Node16 -->
<g id="edge26" class="edge">
<title>Node1&#45;&gt;Node16</title>
<path fill="none" stroke="#63b8ff" d="M517.4,-740.48C506.69,-812.2 472.93,-1014.82 427,-1061.2 423.22,-1065.02 418.89,-1068.24 414.23,-1070.95"/>
<polygon fill="#63b8ff" stroke="#63b8ff" points="520.87,-740.91 518.86,-730.51 513.95,-739.89 520.87,-740.91"/>
</g>
<!-- Node17 -->
<g id="node17" class="node">
<title>Node17</title>
<g id="a_node17"><a xlink:href="namespacem__start__up.html#a3242a22615c7f69033b53d51df04ad02" target="_top" xlink:title="This subroutine verifies that the primitive variables associated with the given inactive patch remain...">
<polygon fill="white" stroke="#666666" points="412.5,-1051.7 269.5,-1051.7 269.5,-1010.7 412.5,-1010.7 412.5,-1051.7"/>
<text text-anchor="start" x="277.5" y="-1039.7" font-family="Helvetica,sans-Serif" font-size="10.00">m_start_up::s_check</text>
<text text-anchor="start" x="277.5" y="-1028.7" font-family="Helvetica,sans-Serif" font-size="10.00">_inactive_patch_primitive</text>
<text text-anchor="middle" x="341" y="-1017.7" font-family="Helvetica,sans-Serif" font-size="10.00">_variables</text>
</a>
</g>
</g>
<!-- Node1&#45;&gt;Node17 -->
<g id="edge28" class="edge">
<title>Node1&#45;&gt;Node17</title>
<path fill="none" stroke="#63b8ff" d="M519.99,-740.68C516.42,-795.99 500.25,-928.05 427,-1002.2 422.84,-1006.42 418.04,-1010.02 412.88,-1013.1"/>
<polygon fill="#63b8ff" stroke="#63b8ff" points="523.5,-740.56 520.56,-730.38 516.51,-740.17 523.5,-740.56"/>
</g>
<!-- Node18 -->
<g id="node18" class="node">
<title>Node18</title>
<g id="a_node18"><a xlink:href="namespacem__start__up.html#a3fe683c4126d72deba7f8daf1ad83b94" target="_top" xlink:title="This subroutine verifies that the geometric parameters of the isentropic vortex patch have been enter...">
<polygon fill="white" stroke="#666666" points="410.5,-992.7 271.5,-992.7 271.5,-951.7 410.5,-951.7 410.5,-992.7"/>
<text text-anchor="start" x="279.5" y="-980.7" font-family="Helvetica,sans-Serif" font-size="10.00">m_start_up::s_check</text>
<text text-anchor="start" x="279.5" y="-969.7" font-family="Helvetica,sans-Serif" font-size="10.00">_isentropic_vortex_patch</text>
<text text-anchor="middle" x="341" y="-958.7" font-family="Helvetica,sans-Serif" font-size="10.00">_geometry</text>
</a>
</g>
</g>
<!-- Node1&#45;&gt;Node18 -->
<g id="edge31" class="edge">
<title>Node1&#45;&gt;Node18</title>
<path fill="none" stroke="#63b8ff" d="M517.5,-740.54C509.74,-787.19 486.8,-887.02 427,-943.2 422.23,-947.69 416.73,-951.48 410.88,-954.69"/>
<polygon fill="#63b8ff" stroke="#63b8ff" points="521,-740.82 519.09,-730.39 514.08,-739.73 521,-740.82"/>
</g>
<!-- Node19 -->
<g id="node19" class="node">
<title>Node19</title>
<g id="a_node19"><a xlink:href="namespacem__start__up.html#a9a3e975da11ddbbabdf66a66ff9167d1" target="_top" xlink:title="This subroutine verifies that the geometric parameters of the line segment patch have consistently be...">
<polygon fill="white" stroke="#666666" points="401,-933.7 281,-933.7 281,-892.7 401,-892.7 401,-933.7"/>
<text text-anchor="start" x="289" y="-921.7" font-family="Helvetica,sans-Serif" font-size="10.00">m_start_up::s_check</text>
<text text-anchor="start" x="289" y="-910.7" font-family="Helvetica,sans-Serif" font-size="10.00">_line_segment_patch</text>
<text text-anchor="middle" x="341" y="-899.7" font-family="Helvetica,sans-Serif" font-size="10.00">_geometry</text>
</a>
</g>
</g>
<!-- Node1&#45;&gt;Node19 -->
<g id="edge33" class="edge">
<title>Node1&#45;&gt;Node19</title>
<path fill="none" stroke="#63b8ff" d="M513.27,-740.46C500.86,-776.98 473.07,-844.4 427,-883.2 419.46,-889.55 410.48,-894.6 401.23,-898.59"/>
<polygon fill="#63b8ff" stroke="#63b8ff" points="516.72,-741.19 516.51,-730.6 510.06,-739.01 516.72,-741.19"/>
</g>
<!-- Node20 -->
<g id="node20" class="node">
<title>Node20</title>
<g id="a_node20"><a xlink:href="namespacem__start__up.html#af838464749f53bf064afdba3c261ac83" target="_top" xlink:title="This subroutine verifies that the geometric parameters of the line sweep patch have consistently been...">
<polygon fill="white" stroke="#666666" points="421.5,-874.2 260.5,-874.2 260.5,-844.2 421.5,-844.2 421.5,-874.2"/>
<text text-anchor="start" x="268.5" y="-862.2" font-family="Helvetica,sans-Serif" font-size="10.00">m_start_up::s_check</text>
<text text-anchor="middle" x="341" y="-851.2" font-family="Helvetica,sans-Serif" font-size="10.00">_line_sweep_patch_geometry</text>
</a>
</g>
</g>
<!-- Node1&#45;&gt;Node20 -->
<g id="edge35" class="edge">
<title>Node1&#45;&gt;Node20</title>
<path fill="none" stroke="#63b8ff" d="M508.45,-739.13C492.93,-766.41 463.96,-810.42 427,-835.2 421.91,-838.62 416.33,-841.55 410.54,-844.07"/>
<polygon fill="#63b8ff" stroke="#63b8ff" points="511.59,-740.68 513.37,-730.24 505.47,-737.29 511.59,-740.68"/>
</g>
<!-- Node21 -->
<g id="node21" class="node">
<title>Node21</title>
<g id="a_node21"><a xlink:href="namespacem__start__up.html#aae294c405210613a2466358f3af3fd90" target="_top" xlink:title="This subroutine verifies that the geometric parameters of the plane sweep patch have consistently bee...">
<polygon fill="white" stroke="#666666" points="426,-826.2 256,-826.2 256,-796.2 426,-796.2 426,-826.2"/>
<text text-anchor="start" x="264" y="-814.2" font-family="Helvetica,sans-Serif" font-size="10.00">m_start_up::s_check</text>
<text text-anchor="middle" x="341" y="-803.2" font-family="Helvetica,sans-Serif" font-size="10.00">_plane_sweep_patch_geometry</text>
</a>
</g>
</g>
<!-- Node1&#45;&gt;Node21 -->
<g id="edge37" class="edge">
<title>Node1&#45;&gt;Node21</title>
<path fill="none" stroke="#63b8ff" d="M497.62,-737.18C479.56,-753.09 453.3,-774.03 427,-787.2 420.28,-790.57 413.02,-793.53 405.67,-796.11"/>
<polygon fill="#63b8ff" stroke="#63b8ff" points="500.21,-739.56 505.31,-730.27 495.53,-734.35 500.21,-739.56"/>
</g>
<!-- Node22 -->
<g id="node22" class="node">
<title>Node22</title>
<g id="a_node22"><a xlink:href="namespacem__start__up.html#a038565f6f0f4ed12a0a3738ab880f507" target="_top" xlink:title="This subroutine verifies that the geometric parameters of the rectangle patch have consistently been ...">
<polygon fill="white" stroke="#666666" points="417,-778.2 265,-778.2 265,-748.2 417,-748.2 417,-778.2"/>
<text text-anchor="start" x="273" y="-766.2" font-family="Helvetica,sans-Serif" font-size="10.00">m_start_up::s_check</text>
<text text-anchor="middle" x="341" y="-755.2" font-family="Helvetica,sans-Serif" font-size="10.00">_rectangle_patch_geometry</text>
</a>
</g>
</g>
<!-- Node1&#45;&gt;Node22 -->
<g id="edge39" class="edge">
<title>Node1&#45;&gt;Node22</title>
<path fill="none" stroke="#63b8ff" d="M455.18,-732.85C436.39,-737.89 416.09,-743.34 397.95,-748.2"/>
<polygon fill="#63b8ff" stroke="#63b8ff" points="456.1,-736.23 464.85,-730.26 454.29,-729.47 456.1,-736.23"/>
</g>
<!-- Node23 -->
<g id="node23" class="node">
<title>Node23</title>
<g id="a_node23"><a xlink:href="namespacem__start__up.html#a3bc334d434726c8cdba2f5d611ec4d42" target="_top" xlink:title="This subroutine verifies that the geometric parameters of the sphere patch have consistently been inp...">
<polygon fill="white" stroke="#666666" points="411,-730.2 271,-730.2 271,-700.2 411,-700.2 411,-730.2"/>
<text text-anchor="start" x="279" y="-718.2" font-family="Helvetica,sans-Serif" font-size="10.00">m_start_up::s_check</text>
<text text-anchor="middle" x="341" y="-707.2" font-family="Helvetica,sans-Serif" font-size="10.00">_sphere_patch_geometry</text>
</a>
</g>
</g>
<!-- Node1&#45;&gt;Node23 -->
<g id="edge41" class="edge">
<title>Node1&#45;&gt;Node23</title>
<path fill="none" stroke="#63b8ff" d="M452.63,-715.2C439.01,-715.2 424.69,-715.2 411.05,-715.2"/>
<polygon fill="#63b8ff" stroke="#63b8ff" points="452.88,-718.7 462.88,-715.2 452.88,-711.7 452.88,-718.7"/>
</g>
<!-- Node24 -->
<g id="node24" class="node">
<title>Node24</title>
<g id="a_node24"><a xlink:href="namespacem__start__up.html#a59bfdd1a0d03041d57f7f9e7e1a38a97" target="_top" xlink:title="This subroutine verifies that the geometric parameters of the spherical harmonic patch have consisten...">
<polygon fill="white" stroke="#666666" points="399.5,-681.7 282.5,-681.7 282.5,-640.7 399.5,-640.7 399.5,-681.7"/>
<text text-anchor="start" x="290.5" y="-669.7" font-family="Helvetica,sans-Serif" font-size="10.00">m_start_up::s_check</text>
<text text-anchor="start" x="290.5" y="-658.7" font-family="Helvetica,sans-Serif" font-size="10.00">_spherical_harmonic</text>
<text text-anchor="middle" x="341" y="-647.7" font-family="Helvetica,sans-Serif" font-size="10.00">_patch_geometry</text>
</a>
</g>
</g>
<!-- Node1&#45;&gt;Node24 -->
<g id="edge43" class="edge">
<title>Node1&#45;&gt;Node24</title>
<path fill="none" stroke="#63b8ff" d="M461.31,-697.2C441.5,-691.22 419.49,-684.58 399.82,-678.65"/>
<polygon fill="#63b8ff" stroke="#63b8ff" points="460.55,-700.62 471.14,-700.16 462.58,-693.92 460.55,-700.62"/>
</g>
<!-- Node25 -->
<g id="node25" class="node">
<title>Node25</title>
<g id="a_node25"><a xlink:href="namespacem__start__up.html#a06fc233527470088dcf63425fc758b8c" target="_top" xlink:title="This subroutine verifies that the smoothing parameters of the given patch, which supports the smoothi...">
<polygon fill="white" stroke="#666666" points="421,-622.2 261,-622.2 261,-592.2 421,-592.2 421,-622.2"/>
<text text-anchor="start" x="269" y="-610.2" font-family="Helvetica,sans-Serif" font-size="10.00">m_start_up::s_check</text>
<text text-anchor="middle" x="341" y="-599.2" font-family="Helvetica,sans-Serif" font-size="10.00">_supported_patch_smoothing</text>
</a>
</g>
</g>
<!-- Node1&#45;&gt;Node25 -->
<g id="edge45" class="edge">
<title>Node1&#45;&gt;Node25</title>
<path fill="none" stroke="#63b8ff" d="M500.88,-692.61C483.13,-673.95 455.68,-648.05 427,-632.2 420.13,-628.41 412.63,-625.14 405.01,-622.33"/>
<polygon fill="#63b8ff" stroke="#63b8ff" points="498.49,-695.18 507.87,-700.11 503.61,-690.4 498.49,-695.18"/>
</g>
<!-- Node26 -->
<g id="node26" class="node">
<title>Node26</title>
<g id="a_node26"><a xlink:href="namespacem__start__up.html#a9ec1a8955422d87dddd1ad55f99fb9b8" target="_top" xlink:title="This subroutine verifies that the smoothing parameters of the given patch, which does not support the...">
<polygon fill="white" stroke="#666666" points="427,-574.2 255,-574.2 255,-544.2 427,-544.2 427,-574.2"/>
<text text-anchor="start" x="263" y="-562.2" font-family="Helvetica,sans-Serif" font-size="10.00">m_start_up::s_check</text>
<text text-anchor="middle" x="341" y="-551.2" font-family="Helvetica,sans-Serif" font-size="10.00">_unsupported_patch_smoothing</text>
</a>
</g>
</g>
<!-- Node1&#45;&gt;Node26 -->
<g id="edge47" class="edge">
<title>Node1&#45;&gt;Node26</title>
<path fill="none" stroke="#63b8ff" d="M509.96,-690.69C495.26,-660.84 466.47,-611 427,-583.2 422.11,-579.76 416.74,-576.81 411.14,-574.28"/>
<polygon fill="#63b8ff" stroke="#63b8ff" points="506.93,-692.46 514.39,-699.98 513.24,-689.45 506.93,-692.46"/>
</g>
<!-- Node27 -->
<g id="node27" class="node">
<title>Node27</title>
<g id="a_node27"><a xlink:href="namespacem__start__up.html#ae0571e78c0179c22d3811df31c33c321" target="_top" xlink:title="Reads the configuration file pre_process.inp, in order to populate the parameters in module m_global_...">
<polygon fill="white" stroke="#666666" points="209,-218.2 99,-218.2 99,-188.2 209,-188.2 209,-218.2"/>
<text text-anchor="start" x="107" y="-206.2" font-family="Helvetica,sans-Serif" font-size="10.00">m_start_up::s_read</text>
<text text-anchor="middle" x="154" y="-195.2" font-family="Helvetica,sans-Serif" font-size="10.00">_input_file</text>
</a>
</g>
</g>
<!-- Node1&#45;&gt;Node27 -->
<g id="edge49" class="edge">
<title>Node1&#45;&gt;Node27</title>
<path fill="none" stroke="#63b8ff" d="M520.15,-690C516.49,-597.99 498.79,-282.32 427,-219.2 395.78,-191.76 279.23,-194.46 209.22,-198.84"/>
<polygon fill="#63b8ff" stroke="#63b8ff" points="516.66,-690.22 520.53,-700.08 523.65,-689.95 516.66,-690.22"/>
</g>
<!-- Node28 -->
<g id="node28" class="node">
<title>Node28</title>
<g id="a_node28"><a xlink:href="namespacem__start__up.html#aaaad3d18eef01d1d8387e34a8b7d33ac" target="_top" xlink:title="Cell&#45;boundary data are checked for consistency by looking at the (non&#45;)uniform cell&#45;width distributio...">
<polygon fill="white" stroke="#666666" points="408.5,-175.2 273.5,-175.2 273.5,-145.2 408.5,-145.2 408.5,-175.2"/>
<text text-anchor="start" x="281.5" y="-163.2" font-family="Helvetica,sans-Serif" font-size="10.00">m_start_up::s_read</text>
<text text-anchor="middle" x="341" y="-152.2" font-family="Helvetica,sans-Serif" font-size="10.00">_parallel_grid_data_files</text>
</a>
</g>
</g>
<!-- Node1&#45;&gt;Node28 -->
<g id="edge51" class="edge">
<title>Node1&#45;&gt;Node28</title>
<path fill="none" stroke="#63b8ff" d="M519.81,-690.03C514.89,-595.93 493.12,-266.22 427,-189.2 421.92,-183.29 415.58,-178.58 408.67,-174.83"/>
<polygon fill="#63b8ff" stroke="#63b8ff" points="516.32,-690.26 520.32,-700.07 523.31,-689.91 516.32,-690.26"/>
</g>
<!-- Node30 -->
<g id="node30" class="node">
<title>Node30</title>
<g id="a_node30"><a xlink:href="namespacem__start__up.html#a25daee88d75c57908efa6e3e0516fb28" target="_top" xlink:title="The goal of this subroutine is to read in any preexisting initial condition data files so that they m...">
<polygon fill="white" stroke="#666666" points="403.5,-127.2 278.5,-127.2 278.5,-97.2 403.5,-97.2 403.5,-127.2"/>
<text text-anchor="start" x="286.5" y="-115.2" font-family="Helvetica,sans-Serif" font-size="10.00">m_start_up::s_read</text>
<text text-anchor="middle" x="341" y="-104.2" font-family="Helvetica,sans-Serif" font-size="10.00">_parallel_ic_data_files</text>
</a>
</g>
</g>
<!-- Node1&#45;&gt;Node30 -->
<g id="edge55" class="edge">
<title>Node1&#45;&gt;Node30</title>
<path fill="none" stroke="#63b8ff" d="M520.4,-690.03C517.49,-589.75 501.81,-220.08 427,-136.2 420.67,-129.11 412.42,-124.04 403.56,-120.44"/>
<polygon fill="#63b8ff" stroke="#63b8ff" points="516.9,-690.24 520.67,-700.14 523.9,-690.05 516.9,-690.24"/>
</g>
<!-- Node31 -->
<g id="node31" class="node">
<title>Node31</title>
<g id="a_node31"><a xlink:href="namespacem__start__up.html#ac2be28e53607458a3860b03446ed6497" target="_top" xlink:title="The goal of this subroutine is to read in any preexisting grid data as well as based on the imported ...">
<polygon fill="white" stroke="#666666" points="403.5,-79.2 278.5,-79.2 278.5,-49.2 403.5,-49.2 403.5,-79.2"/>
<text text-anchor="start" x="286.5" y="-67.2" font-family="Helvetica,sans-Serif" font-size="10.00">m_start_up::s_read</text>
<text text-anchor="middle" x="341" y="-56.2" font-family="Helvetica,sans-Serif" font-size="10.00">_serial_grid_data_files</text>
</a>
</g>
</g>
<!-- Node1&#45;&gt;Node31 -->
<g id="edge58" class="edge">
<title>Node1&#45;&gt;Node31</title>
<path fill="none" stroke="#63b8ff" d="M520.74,-690.01C519.16,-584.57 507.82,-179.94 427,-88.2 420.72,-81.07 412.49,-75.98 403.63,-72.37"/>
<polygon fill="#63b8ff" stroke="#63b8ff" points="517.24,-690.1 520.88,-700.05 524.24,-690.01 517.24,-690.1"/>
</g>
<!-- Node32 -->
<g id="node32" class="node">
<title>Node32</title>
<g id="a_node32"><a xlink:href="namespacem__start__up.html#a88f1f355d8aeecb6cd47653ed285cfa2" target="_top" xlink:title="The goal of this subroutine is to read in any preexisting initial condition data files so that they m...">
<polygon fill="white" stroke="#666666" points="398.5,-31.2 283.5,-31.2 283.5,-1.2 398.5,-1.2 398.5,-31.2"/>
<text text-anchor="start" x="291.5" y="-19.2" font-family="Helvetica,sans-Serif" font-size="10.00">m_start_up::s_read</text>
<text text-anchor="middle" x="341" y="-8.2" font-family="Helvetica,sans-Serif" font-size="10.00">_serial_ic_data_files</text>
</a>
</g>
</g>
<!-- Node1&#45;&gt;Node32 -->
<g id="edge61" class="edge">
<title>Node1&#45;&gt;Node32</title>
<path fill="none" stroke="#63b8ff" d="M521.04,-689.9C520.7,-579.33 513.82,-139.79 427,-40.2 419.64,-31.77 409.57,-26.19 398.93,-22.53"/>
<polygon fill="#63b8ff" stroke="#63b8ff" points="517.54,-690.1 521.05,-700.1 524.54,-690.09 517.54,-690.1"/>
</g>
<!-- Node2&#45;&gt;Node3 -->
<g id="edge2" class="edge">
<title>Node2&#45;&gt;Node3</title>
<path fill="none" stroke="#63b8ff" d="M272.22,-488.22C265.85,-492.13 259.93,-496.76 255,-502.2 167.68,-598.62 156.51,-768.68 155.16,-820.08"/>
<polygon fill="#63b8ff" stroke="#63b8ff" points="274.08,-491.19 281.16,-483.31 270.71,-485.06 274.08,-491.19"/>
</g>
<!-- Node4 -->
<g id="node4" class="node">
<title>Node4</title>
<g id="a_node4"><a xlink:href="p__main_8f90.html#aeec10ee8e2940c953967da3e374e1579" target="_top" xlink:title="This program takes care of setting up the initial condition and grid data for the multicomponent flow...">
<polygon fill="white" stroke="#666666" points="53,-150.7 0,-150.7 0,-131.7 53,-131.7 53,-150.7"/>
<text text-anchor="middle" x="26.5" y="-138.7" font-family="Helvetica,sans-Serif" font-size="10.00">p_main</text>
</a>
</g>
</g>
<!-- Node3&#45;&gt;Node4 -->
<g id="edge3" class="edge">
<title>Node3&#45;&gt;Node4</title>
<path fill="none" stroke="#63b8ff" d="M148.46,-810.11C127.73,-695.47 42.48,-224.04 29.23,-150.79"/>
<polygon fill="#63b8ff" stroke="#63b8ff" points="145.04,-810.85 150.26,-820.06 151.93,-809.6 145.04,-810.85"/>
</g>
<!-- Node5&#45;&gt;Node3 -->
<g id="edge5" class="edge">
<title>Node5&#45;&gt;Node3</title>
<path fill="none" stroke="#63b8ff" d="M272.36,-423.91C265.91,-427.47 259.94,-431.84 255,-437.2 201.2,-495.65 165.25,-754.28 156.87,-819.98"/>
<polygon fill="#63b8ff" stroke="#63b8ff" points="273.94,-427.03 281.42,-419.53 270.9,-420.73 273.94,-427.03"/>
</g>
<!-- Node6&#45;&gt;Node3 -->
<g id="edge7" class="edge">
<title>Node6&#45;&gt;Node3</title>
<path fill="none" stroke="#63b8ff" d="M272.2,-364.76C265.77,-368.35 259.85,-372.77 255,-378.2 194.02,-446.52 162.88,-749.07 156.32,-820.2"/>
<polygon fill="#63b8ff" stroke="#63b8ff" points="273.77,-367.88 281.23,-360.35 270.71,-361.59 273.77,-367.88"/>
</g>
<!-- Node7&#45;&gt;Node3 -->
<g id="edge9" class="edge">
<title>Node7&#45;&gt;Node3</title>
<path fill="none" stroke="#63b8ff" d="M263.79,-311.05C260.59,-313.47 257.63,-316.18 255,-319.2 186.89,-397.38 160.9,-743.37 155.92,-820.1"/>
<polygon fill="#63b8ff" stroke="#63b8ff" points="265.71,-313.98 272.17,-305.58 261.88,-308.12 265.71,-313.98"/>
</g>
<!-- Node8&#45;&gt;Node3 -->
<g id="edge11" class="edge">
<title>Node8&#45;&gt;Node3</title>
<path fill="none" stroke="#63b8ff" d="M265.12,-1418.58C261.4,-1415.84 257.98,-1412.73 255,-1409.2 180.29,-1320.86 159.25,-932.09 155.62,-850.33"/>
<polygon fill="#63b8ff" stroke="#63b8ff" points="263.37,-1421.62 273.69,-1424.02 267.13,-1415.71 263.37,-1421.62"/>
</g>
<!-- Node9&#45;&gt;Node3 -->
<g id="edge13" class="edge">
<title>Node9&#45;&gt;Node3</title>
<path fill="none" stroke="#63b8ff" d="M265.52,-1370.06C261.67,-1367.53 258.11,-1364.6 255,-1361.2 183.57,-1283.24 160.12,-928.44 155.79,-850.41"/>
<polygon fill="#63b8ff" stroke="#63b8ff" points="263.92,-1373.17 274.36,-1374.97 267.32,-1367.06 263.92,-1373.17"/>
</g>
<!-- Node10&#45;&gt;Node3 -->
<g id="edge15" class="edge">
<title>Node10&#45;&gt;Node3</title>
<path fill="none" stroke="#63b8ff" d="M262.54,-1319.89C259.84,-1317.89 257.3,-1315.67 255,-1313.2 189.63,-1243.16 161.74,-924.26 156.1,-850.47"/>
<polygon fill="#63b8ff" stroke="#63b8ff" points="260.8,-1322.92 271.14,-1325.23 264.5,-1316.98 260.8,-1322.92"/>
</g>
<!-- Node11&#45;&gt;Node3 -->
<g id="edge17" class="edge">
<title>Node11&#45;&gt;Node3</title>
<path fill="none" stroke="#63b8ff" d="M259.4,-1269.32C257.86,-1268.03 256.39,-1266.66 255,-1265.2 195.6,-1202.96 163.48,-919.2 156.47,-850.31"/>
<polygon fill="#63b8ff" stroke="#63b8ff" points="257.43,-1272.21 267.62,-1275.11 261.46,-1266.49 257.43,-1272.21"/>
</g>
<!-- Node12&#45;&gt;Node3 -->
<g id="edge19" class="edge">
<title>Node12&#45;&gt;Node3</title>
<path fill="none" stroke="#63b8ff" d="M262.7,-1223.74C259.95,-1221.78 257.36,-1219.61 255,-1217.2 201.59,-1162.76 165.48,-914.39 156.95,-850.32"/>
<polygon fill="#63b8ff" stroke="#63b8ff" points="261.02,-1226.82 271.39,-1229 264.64,-1220.83 261.02,-1226.82"/>
</g>
<!-- Node13&#45;&gt;Node3 -->
<g id="edge21" class="edge">
<title>Node13&#45;&gt;Node3</title>
<path fill="none" stroke="#63b8ff" d="M258.41,-1172.29C257.23,-1171.31 256.09,-1170.28 255,-1169.2 161.83,-1077.48 154.69,-902.76 154.74,-850.4"/>
<polygon fill="#63b8ff" stroke="#63b8ff" points="256.5,-1175.23 266.68,-1178.14 260.54,-1169.51 256.5,-1175.23"/>
</g>
<!-- Node14&#45;&gt;Node4 -->
<g id="edge23" class="edge">
<title>Node14&#45;&gt;Node4</title>
<path fill="none" stroke="#63b8ff" d="M94.63,-231.13C92.68,-229.89 90.8,-228.58 89,-227.2 61.18,-205.86 40.64,-168.49 32,-150.89"/>
<polygon fill="#63b8ff" stroke="#63b8ff" points="93.09,-234.28 103.53,-236.12 96.52,-228.17 93.09,-234.28"/>
</g>
<!-- Node15&#45;&gt;Node3 -->
<g id="edge25" class="edge">
<title>Node15&#45;&gt;Node3</title>
<path fill="none" stroke="#63b8ff" d="M259.45,-1113.22C257.91,-1111.94 256.42,-1110.61 255,-1109.2 178.87,-1033.88 160.28,-895.99 156.11,-850.33"/>
<polygon fill="#63b8ff" stroke="#63b8ff" points="257.47,-1116.1 267.63,-1119.09 261.55,-1110.42 257.47,-1116.1"/>
</g>
<!-- Node16&#45;&gt;Node3 -->
<g id="edge27" class="edge">
<title>Node16&#45;&gt;Node3</title>
<path fill="none" stroke="#63b8ff" d="M259.21,-1064.56C257.76,-1063.5 256.35,-1062.38 255,-1061.2 187.92,-1003 163.94,-891.16 157.22,-850.48"/>
<polygon fill="#63b8ff" stroke="#63b8ff" points="257.65,-1067.71 267.98,-1070.07 261.38,-1061.79 257.65,-1067.71"/>
</g>
<!-- Node17&#45;&gt;Node3 -->
<g id="edge29" class="edge">
<title>Node17&#45;&gt;Node3</title>
<path fill="none" stroke="#63b8ff" d="M260.53,-1006.3C258.62,-1005 256.77,-1003.64 255,-1002.2 202.97,-960.13 171.6,-883.24 160.06,-850.56"/>
<polygon fill="#63b8ff" stroke="#63b8ff" points="258.87,-1009.39 269.24,-1011.58 262.5,-1003.41 258.87,-1009.39"/>
</g>
<!-- Node18&#45;&gt;Node3 -->
<g id="edge32" class="edge">
<title>Node18&#45;&gt;Node3</title>
<path fill="none" stroke="#63b8ff" d="M262.17,-947.5C259.71,-946.14 257.31,-944.71 255,-943.2 215.79,-917.72 181.54,-873.48 165.19,-850.32"/>
<polygon fill="#63b8ff" stroke="#63b8ff" points="260.81,-950.74 271.31,-952.16 263.99,-944.5 260.81,-950.74"/>
</g>
<!-- Node19&#45;&gt;Node3 -->
<g id="edge34" class="edge">
<title>Node19&#45;&gt;Node3</title>
<path fill="none" stroke="#63b8ff" d="M271.33,-889.69C265.78,-887.57 260.28,-885.39 255,-883.2 230.81,-873.16 204.1,-860.24 184.37,-850.34"/>
<polygon fill="#63b8ff" stroke="#63b8ff" points="270.11,-892.97 280.7,-893.2 272.56,-886.41 270.11,-892.97"/>
</g>
<!-- Node20&#45;&gt;Node3 -->
<g id="edge36" class="edge">
<title>Node20&#45;&gt;Node3</title>
<path fill="none" stroke="#63b8ff" d="M250.51,-847.59C237.45,-845.9 224.31,-844.19 212.13,-842.61"/>
<polygon fill="#63b8ff" stroke="#63b8ff" points="250.1,-851.07 260.47,-848.89 251,-844.13 250.1,-851.07"/>
</g>
<!-- Node21&#45;&gt;Node3 -->
<g id="edge38" class="edge">
<title>Node21&#45;&gt;Node3</title>
<path fill="none" stroke="#63b8ff" d="M245.81,-823.42C234.32,-824.91 222.88,-826.4 212.17,-827.79"/>
<polygon fill="#63b8ff" stroke="#63b8ff" points="246.42,-826.87 255.89,-822.12 245.52,-819.93 246.42,-826.87"/>
</g>
<!-- Node22&#45;&gt;Node3 -->
<g id="edge40" class="edge">
<title>Node22&#45;&gt;Node3</title>
<path fill="none" stroke="#63b8ff" d="M271.83,-781.32C266.09,-783.19 260.42,-785.15 255,-787.2 230.14,-796.6 203.02,-809.81 183.31,-820"/>
<polygon fill="#63b8ff" stroke="#63b8ff" points="273.01,-784.62 281.5,-778.28 270.91,-777.94 273.01,-784.62"/>
</g>
<!-- Node23&#45;&gt;Node3 -->
<g id="edge42" class="edge">
<title>Node23&#45;&gt;Node3</title>
<path fill="none" stroke="#63b8ff" d="M264.93,-734.12C261.51,-735.69 258.18,-737.38 255,-739.2 217.62,-760.61 183.62,-799.02 166.55,-820.18"/>
<polygon fill="#63b8ff" stroke="#63b8ff" points="266.29,-737.35 274.16,-730.25 263.58,-730.89 266.29,-737.35"/>
</g>
<!-- Node24&#45;&gt;Node3 -->
<g id="edge44" class="edge">
<title>Node24&#45;&gt;Node3</title>
<path fill="none" stroke="#63b8ff" d="M272.79,-680.33C266.49,-683.46 260.43,-687.06 255,-691.2 208.29,-726.83 175.17,-790.58 161.7,-819.81"/>
<polygon fill="#63b8ff" stroke="#63b8ff" points="274.5,-683.4 282.16,-676.08 271.61,-677.02 274.5,-683.4"/>
</g>
<!-- Node25&#45;&gt;Node3 -->
<g id="edge46" class="edge">
<title>Node25&#45;&gt;Node3</title>
<path fill="none" stroke="#63b8ff" d="M261.33,-627.47C259.13,-628.94 257.01,-630.51 255,-632.2 193.53,-683.93 166.45,-782.56 158.05,-820.14"/>
<polygon fill="#63b8ff" stroke="#63b8ff" points="263.32,-630.36 270.21,-622.31 259.81,-624.31 263.32,-630.36"/>
</g>
<!-- Node26&#45;&gt;Node3 -->
<g id="edge48" class="edge">
<title>Node26&#45;&gt;Node3</title>
<path fill="none" stroke="#63b8ff" d="M259.02,-579.87C257.64,-580.93 256.29,-582.04 255,-583.2 181.62,-649.42 161.34,-776.57 156.42,-820.13"/>
<polygon fill="#63b8ff" stroke="#63b8ff" points="260.96,-582.79 267.43,-574.39 257.14,-576.93 260.96,-582.79"/>
</g>
<!-- Node27&#45;&gt;Node4 -->
<g id="edge50" class="edge">
<title>Node27&#45;&gt;Node4</title>
<path fill="none" stroke="#63b8ff" d="M109.37,-183.91C102.52,-180.74 95.54,-177.44 89,-174.2 73.79,-166.69 56.82,-157.52 44.57,-150.76"/>
<polygon fill="#63b8ff" stroke="#63b8ff" points="108.04,-187.15 118.59,-188.12 110.95,-180.78 108.04,-187.15"/>
</g>
<!-- Node28&#45;&gt;Node4 -->
<g id="edge52" class="edge">
<title>Node28&#45;&gt;Node4</title>
<path fill="none" stroke="#63b8ff" d="M263.02,-155.52C194.5,-151.36 98.31,-145.51 53.01,-142.75"/>
<polygon fill="#63b8ff" stroke="#63b8ff" points="263.15,-159.04 273.34,-156.15 263.58,-152.05 263.15,-159.04"/>
</g>
<!-- Node29 -->
<g id="node29" class="node">
<title>Node29</title>
<g id="a_node29"><a xlink:href="namespacem__start__up.html#a37202711d89d04cd18f08170ba608aa1" target="_top" xlink:title=" ">
<polygon fill="white" stroke="#666666" points="219,-94.2 89,-94.2 89,-64.2 219,-64.2 219,-94.2"/>
<text text-anchor="start" x="97" y="-82.2" font-family="Helvetica,sans-Serif" font-size="10.00">m_start_up::s_initialize</text>
<text text-anchor="middle" x="154" y="-71.2" font-family="Helvetica,sans-Serif" font-size="10.00">_start_up_module</text>
</a>
</g>
</g>
<!-- Node28&#45;&gt;Node29 -->
<g id="edge53" class="edge">
<title>Node28&#45;&gt;Node29</title>
<path fill="none" stroke="#63b8ff" d="M269.73,-141.83C264.7,-140.07 259.74,-138.19 255,-136.2 227.17,-124.55 197.38,-106.81 177.62,-94.22"/>
<polygon fill="#63b8ff" stroke="#63b8ff" points="268.88,-145.23 279.47,-145.08 271.09,-138.59 268.88,-145.23"/>
</g>
<!-- Node29&#45;&gt;Node4 -->
<g id="edge54" class="edge">
<title>Node29&#45;&gt;Node4</title>
<path fill="none" stroke="#63b8ff" d="M109.37,-98.5C102.52,-101.67 95.54,-104.97 89,-108.2 73.79,-115.72 56.82,-124.88 44.57,-131.65"/>
<polygon fill="#63b8ff" stroke="#63b8ff" points="110.95,-101.63 118.59,-94.29 108.04,-95.26 110.95,-101.63"/>
</g>
<!-- Node30&#45;&gt;Node4 -->
<g id="edge56" class="edge">
<title>Node30&#45;&gt;Node4</title>
<path fill="none" stroke="#63b8ff" d="M267.93,-118.89C199.23,-125.27 99.56,-134.52 53.11,-138.83"/>
<polygon fill="#63b8ff" stroke="#63b8ff" points="268.63,-122.34 278.26,-117.93 267.98,-115.37 268.63,-122.34"/>
</g>
<!-- Node30&#45;&gt;Node29 -->
<g id="edge57" class="edge">
<title>Node30&#45;&gt;Node29</title>
<path fill="none" stroke="#63b8ff" d="M268.43,-99.44C252.21,-96.54 235.08,-93.49 219.18,-90.65"/>
<polygon fill="#63b8ff" stroke="#63b8ff" points="267.94,-102.9 278.4,-101.22 269.17,-96.01 267.94,-102.9"/>
</g>
<!-- Node31&#45;&gt;Node4 -->
<g id="edge59" class="edge">
<title>Node31&#45;&gt;Node4</title>
<path fill="none" stroke="#63b8ff" d="M281.7,-46.67C228.45,-34.11 149.11,-24.29 89,-55.2 57.17,-71.57 38.15,-112.9 30.89,-131.67"/>
<polygon fill="#63b8ff" stroke="#63b8ff" points="281.11,-50.13 291.65,-49.13 282.78,-43.34 281.11,-50.13"/>
</g>
<!-- Node31&#45;&gt;Node29 -->
<g id="edge60" class="edge">
<title>Node31&#45;&gt;Node29</title>
<path fill="none" stroke="#63b8ff" d="M267.97,-70.04C251.89,-71.35 234.93,-72.72 219.18,-74"/>
<polygon fill="#63b8ff" stroke="#63b8ff" points="268.71,-73.5 278.4,-69.2 268.15,-66.52 268.71,-73.5"/>
</g>
<!-- Node32&#45;&gt;Node4 -->
<g id="edge62" class="edge">
<title>Node32&#45;&gt;Node4</title>
<path fill="none" stroke="#63b8ff" d="M273.37,-3.68C219.51,2.78 143.89,3.23 89,-31.2 51.75,-54.58 35.08,-109.06 29.64,-131.39"/>
<polygon fill="#63b8ff" stroke="#63b8ff" points="273.13,-7.18 283.5,-5 274.03,-0.24 273.13,-7.18"/>
</g>
<!-- Node32&#45;&gt;Node29 -->
<g id="edge63" class="edge">
<title>Node32&#45;&gt;Node29</title>
<path fill="none" stroke="#63b8ff" d="M273.61,-34.28C267.3,-36.2 261.01,-38.19 255,-40.2 233.62,-47.37 210.11,-56.48 191.26,-64.09"/>
<polygon fill="#63b8ff" stroke="#63b8ff" points="274.94,-37.53 283.53,-31.32 272.94,-30.82 274.94,-37.53"/>
</g>
</g>
</svg>
        <g id="navigator" transform="translate(0 0)" fill="#404254">
                <rect fill="#f2f5e9" fill-opacity="0.5" stroke="#606060" stroke-width=".5" x="0" y="0" width="60" height="60"/>
                <use id="zoomplus" xlink:href="#zoomPlus" x="17" y="9" onmousedown="handleZoom(evt,'in')"/>
                <use id="zoomminus" xlink:href="#zoomMin" x="42" y="9" onmousedown="handleZoom(evt,'out')"/>
                <use id="reset" xlink:href="#resetDef" x="30" y="36" onmousedown="handleReset()"/>
                <g id="arrowUp" xlink:href="#dirArrow" transform="translate(30 24)" onmousedown="handlePan(0,-1)">
                  <use xlink:href="#rim" fill="#404040">
                        <set attributeName="fill" to="#808080" begin="arrowUp.mouseover" end="arrowUp.mouseout"/>
                  </use>
                  <path fill="none" stroke="white" stroke-width="1.5" d="M0,-3.0v7 M-2.5,-0.5L0,-3.0L2.5,-0.5"/>
                </g>
                <g id="arrowRight" xlink:href="#dirArrow" transform="rotate(90) translate(36 -43)" onmousedown="handlePan(1,0)">
                  <use xlink:href="#rim" fill="#404040">
                        <set attributeName="fill" to="#808080" begin="arrowRight.mouseover" end="arrowRight.mouseout"/>
                  </use>
                  <path fill="none" stroke="white" stroke-width="1.5" d="M0,-3.0v7 M-2.5,-0.5L0,-3.0L2.5,-0.5"/>
                </g>
                <g id="arrowDown" xlink:href="#dirArrow" transform="rotate(180) translate(-30 -48)" onmousedown="handlePan(0,1)">
                  <use xlink:href="#rim" fill="#404040">
                        <set attributeName="fill" to="#808080" begin="arrowDown.mouseover" end="arrowDown.mouseout"/>
                  </use>
                  <path fill="none" stroke="white" stroke-width="1.5" d="M0,-3.0v7 M-2.5,-0.5L0,-3.0L2.5,-0.5"/>
                </g>
                <g id="arrowLeft" xlink:href="#dirArrow" transform="rotate(270) translate(-36 17)" onmousedown="handlePan(-1,0)">
                  <use xlink:href="#rim" fill="#404040">
                        <set attributeName="fill" to="#808080" begin="arrowLeft.mouseover" end="arrowLeft.mouseout"/>
                  </use>
                  <path fill="none" stroke="white" stroke-width="1.5" d="M0,-3.0v7 M-2.5,-0.5L0,-3.0L2.5,-0.5"/>
                </g>
        </g>
        <svg viewBox="0 0 15 15" width="100%" height="30px" preserveAspectRatio="xMaxYMin meet">
         <g id="arrow_out" transform="scale(0.3 0.3)">
          <a xlink:href="namespacem__mpi__proxy_a04ac565bad2b22dc045a5eeb4f516e2e_icgraph_org.svg" target="_base">
           <rect id="button" ry="5" rx="5" y="6" x="6" height="38" width="38"
                fill="#f2f5e9" fill-opacity="0.5" stroke="#606060" stroke-width="1.0"/>
           <path id="arrow"
             d="M 11.500037,31.436501 C 11.940474,20.09759 22.043105,11.32322 32.158766,21.979434 L 37.068811,17.246167 C 37.068811,17.246167 37.088388,32 37.088388,32 L 22.160133,31.978069 C 22.160133,31.978069 26.997745,27.140456 26.997745,27.140456 C 18.528582,18.264221 13.291696,25.230495 11.500037,31.436501 z"
             style="fill:#404040;"/>
          </a>
         </g>
        </svg>
</svg>
