<?xml version="1.0" encoding="UTF-8" standalone="no"?>
<!DOCTYPE svg PUBLIC "-//W3C//DTD SVG 1.1//EN"
 "http://www.w3.org/Graphics/SVG/1.1/DTD/svg11.dtd">
<!-- Generated by graphviz version 2.43.0 (0)
 -->
<!-- Title: m_start_up::s_check_input_file Pages: 1 -->
<!--zoomable 1288 -->
<svg id="main" version="1.1" xmlns="http://www.w3.org/2000/svg" xmlns:xlink="http://www.w3.org/1999/xlink" xml:space="preserve" onload="init(evt)">
<style type="text/css"><![CDATA[
.edge:hover path { stroke: red; }
.edge:hover polygon { stroke: red; fill: red; }
]]></style>
<script type="text/javascript"><![CDATA[
var edges = document.getElementsByTagName('g');
if (edges && edges.length) {
  for (var i=0;i<edges.length;i++) {
    if (edges[i].id.substr(0,4)=='edge') {
      edges[i].setAttribute('class','edge');
    }
  }
}
]]></script>
        <defs>
                <circle id="rim" cx="0" cy="0" r="7"/>
                <circle id="rim2" cx="0" cy="0" r="3.5"/>
                <g id="zoomPlus">
                        <use xlink:href="#rim" fill="#404040">
                                <set attributeName="fill" to="#808080" begin="zoomplus.mouseover" end="zoomplus.mouseout"/>
                        </use>
                        <path d="M-4,0h8M0,-4v8" fill="none" stroke="white" stroke-width="1.5" pointer-events="none"/>
                </g>
                <g id="zoomMin">
                        <use xlink:href="#rim" fill="#404040">
                                <set attributeName="fill" to="#808080" begin="zoomminus.mouseover" end="zoomminus.mouseout"/>
                        </use>
                        <path d="M-4,0h8" fill="none" stroke="white" stroke-width="1.5" pointer-events="none"/>
                </g>
                <g id="dirArrow">
                        <path fill="none" stroke="white" stroke-width="1.5" d="M0,-3.0v7 M-2.5,-0.5L0,-3.0L2.5,-0.5"/>
                </g>
               <g id="resetDef">
                       <use xlink:href="#rim2" fill="#404040">
                               <set attributeName="fill" to="#808080" begin="reset.mouseover" end="reset.mouseout"/>
                       </use>
               </g>
        </defs>

<script type="text/javascript">
var viewWidth = 463;
var viewHeight = 1288;
var sectionId = 'dynsection-1';
</script>
<script xlink:href="svgpan.js"/>
<svg id="graph" class="graph">
<g id="viewport">
<title>m_start_up::s_check_input_file</title>
<!-- Node1 -->
<g id="node1" class="node">
<title>Node1</title>
<g id="a_node1"><a xlink:title="Checking that the user inputs make sense, i.e. that the individual choices are compatible with the co...">
<polygon fill="#999999" stroke="#666666" points="116,-654.5 0,-654.5 0,-624.5 116,-624.5 116,-654.5"/>
<text text-anchor="start" x="8" y="-642.5" font-family="Helvetica,sans-Serif" font-size="10.00">m_start_up::s_check</text>
<text text-anchor="middle" x="58" y="-631.5" font-family="Helvetica,sans-Serif" font-size="10.00">_input_file</text>
</a>
</g>
</g>
<!-- Node2 -->
<g id="node2" class="node">
<title>Node2</title>
<g id="a_node2"><a xlink:href="namespacem__check__patches.html#a1c50b481760b96ce4496118759dc67f5" target="_top" xlink:title=" ">
<polygon fill="white" stroke="#666666" points="267,-654.5 152,-654.5 152,-624.5 267,-624.5 267,-654.5"/>
<text text-anchor="start" x="160" y="-642.5" font-family="Helvetica,sans-Serif" font-size="10.00">m_check_patches::s</text>
<text text-anchor="middle" x="209.5" y="-631.5" font-family="Helvetica,sans-Serif" font-size="10.00">_check_patches</text>
</a>
</g>
</g>
<!-- Node1&#45;&gt;Node2 -->
<g id="edge1" class="edge">
<title>Node1&#45;&gt;Node2</title>
<path fill="none" stroke="#63b8ff" d="M116.37,-639.5C124.57,-639.5 133.06,-639.5 141.42,-639.5"/>
<polygon fill="#63b8ff" stroke="#63b8ff" points="141.53,-643 151.53,-639.5 141.53,-636 141.53,-643"/>
</g>
<!-- Node3 -->
<g id="node3" class="node">
<title>Node3</title>
<g id="a_node3"><a xlink:href="namespacem__check__patches.html#a4d14e04de7d9344029130ab09571fdb9" target="_top" xlink:title="This subroutine verifies that the geometric parameters of the analytical patch have consistently been...">
<polygon fill="white" stroke="#666666" points="439.5,-1280 318.5,-1280 318.5,-1239 439.5,-1239 439.5,-1280"/>
<text text-anchor="start" x="326.5" y="-1268" font-family="Helvetica,sans-Serif" font-size="10.00">m_check_patches::s</text>
<text text-anchor="start" x="326.5" y="-1257" font-family="Helvetica,sans-Serif" font-size="10.00">_check_1d_analytical</text>
<text text-anchor="middle" x="379" y="-1246" font-family="Helvetica,sans-Serif" font-size="10.00">_patch_geometry</text>
</a>
</g>
</g>
<!-- Node2&#45;&gt;Node3 -->
<g id="edge2" class="edge">
<title>Node2&#45;&gt;Node3</title>
<path fill="none" stroke="#63b8ff" d="M210.88,-654.75C213.24,-738.06 228.36,-1137.93 303,-1230.5 305.1,-1233.11 307.47,-1235.48 310.04,-1237.64"/>
<polygon fill="#63b8ff" stroke="#63b8ff" points="308.08,-1240.55 318.25,-1243.51 312.15,-1234.85 308.08,-1240.55"/>
</g>
<!-- Node4 -->
<g id="node4" class="node">
<title>Node4</title>
<g id="a_node4"><a xlink:href="namespacem__check__patches.html#a41e469c1773e6b92e16b2e3b3558c0ed" target="_top" xlink:title="This subroutine verifies that the geometric parameters of the analytical patch have consistently been...">
<polygon fill="white" stroke="#666666" points="439.5,-1221 318.5,-1221 318.5,-1180 439.5,-1180 439.5,-1221"/>
<text text-anchor="start" x="326.5" y="-1209" font-family="Helvetica,sans-Serif" font-size="10.00">m_check_patches::s</text>
<text text-anchor="start" x="326.5" y="-1198" font-family="Helvetica,sans-Serif" font-size="10.00">_check_2d_analytical</text>
<text text-anchor="middle" x="379" y="-1187" font-family="Helvetica,sans-Serif" font-size="10.00">_patch_geometry</text>
</a>
</g>
</g>
<!-- Node2&#45;&gt;Node4 -->
<g id="edge3" class="edge">
<title>Node2&#45;&gt;Node4</title>
<path fill="none" stroke="#63b8ff" d="M211.17,-654.75C214.89,-733 235.37,-1089.05 303,-1171.5 305.12,-1174.09 307.51,-1176.45 310.09,-1178.6"/>
<polygon fill="#63b8ff" stroke="#63b8ff" points="308.15,-1181.52 318.34,-1184.44 312.2,-1175.8 308.15,-1181.52"/>
</g>
<!-- Node5 -->
<g id="node5" class="node">
<title>Node5</title>
<g id="a_node5"><a xlink:href="namespacem__check__patches.html#a5643fb88910457783efdc7be07c2096c" target="_top" xlink:title="This subroutine verifies that the geometric parameters of the analytical patch have consistently been...">
<polygon fill="white" stroke="#666666" points="439.5,-1162 318.5,-1162 318.5,-1121 439.5,-1121 439.5,-1162"/>
<text text-anchor="start" x="326.5" y="-1150" font-family="Helvetica,sans-Serif" font-size="10.00">m_check_patches::s</text>
<text text-anchor="start" x="326.5" y="-1139" font-family="Helvetica,sans-Serif" font-size="10.00">_check_3d_analytical</text>
<text text-anchor="middle" x="379" y="-1128" font-family="Helvetica,sans-Serif" font-size="10.00">_patch_geometry</text>
</a>
</g>
</g>
<!-- Node2&#45;&gt;Node5 -->
<g id="edge4" class="edge">
<title>Node2&#45;&gt;Node5</title>
<path fill="none" stroke="#63b8ff" d="M211.55,-654.96C216.79,-728.26 242.41,-1040.19 303,-1112.5 305.15,-1115.07 307.56,-1117.41 310.16,-1119.54"/>
<polygon fill="#63b8ff" stroke="#63b8ff" points="308.25,-1122.48 318.45,-1125.35 312.26,-1116.75 308.25,-1122.48"/>
</g>
<!-- Node6 -->
<g id="node6" class="node">
<title>Node6</title>
<g id="a_node6"><a xlink:href="namespacem__check__patches.html#ac652a2c373fea30afb587a3a8f28e4c9" target="_top" xlink:title="This subroutine verifies that any rights granted to the given active patch, to overwrite the precedin...">
<polygon fill="white" stroke="#666666" points="438,-1103 320,-1103 320,-1062 438,-1062 438,-1103"/>
<text text-anchor="start" x="328" y="-1091" font-family="Helvetica,sans-Serif" font-size="10.00">m_check_patches::s</text>
<text text-anchor="start" x="328" y="-1080" font-family="Helvetica,sans-Serif" font-size="10.00">_check_active_patch</text>
<text text-anchor="middle" x="379" y="-1069" font-family="Helvetica,sans-Serif" font-size="10.00">_alteration_rights</text>
</a>
</g>
</g>
<!-- Node2&#45;&gt;Node6 -->
<g id="edge5" class="edge">
<title>Node2&#45;&gt;Node6</title>
<path fill="none" stroke="#63b8ff" d="M212,-654.81C218.86,-722.11 249.3,-991.13 303,-1053.5 305.47,-1056.37 308.25,-1058.95 311.26,-1061.28"/>
<polygon fill="#63b8ff" stroke="#63b8ff" points="309.41,-1064.26 319.68,-1066.87 313.29,-1058.42 309.41,-1064.26"/>
</g>
<!-- Node7 -->
<g id="node7" class="node">
<title>Node7</title>
<g id="a_node7"><a xlink:href="namespacem__check__patches.html#a7286a74b75fa2f5e046638056a85665e" target="_top" xlink:title="This subroutine verifies that the primitive variables associated with the given active patch are phys...">
<polygon fill="white" stroke="#666666" points="438,-1044 320,-1044 320,-1003 438,-1003 438,-1044"/>
<text text-anchor="start" x="328" y="-1032" font-family="Helvetica,sans-Serif" font-size="10.00">m_check_patches::s</text>
<text text-anchor="start" x="328" y="-1021" font-family="Helvetica,sans-Serif" font-size="10.00">_check_active_patch</text>
<text text-anchor="middle" x="379" y="-1010" font-family="Helvetica,sans-Serif" font-size="10.00">_primitive_variables</text>
</a>
</g>
</g>
<!-- Node2&#45;&gt;Node7 -->
<g id="edge6" class="edge">
<title>Node2&#45;&gt;Node7</title>
<path fill="none" stroke="#63b8ff" d="M209.88,-654.53C208.51,-708 211,-891.36 303,-994.5 305.52,-997.32 308.34,-999.87 311.38,-1002.18"/>
<polygon fill="#63b8ff" stroke="#63b8ff" points="309.57,-1005.18 319.86,-1007.72 313.4,-999.32 309.57,-1005.18"/>
</g>
<!-- Node8 -->
<g id="node8" class="node">
<title>Node8</title>
<g id="a_node8"><a xlink:href="namespacem__check__patches.html#aad20d0b0a41ec17a6c03afc700efa25a" target="_top" xlink:title="This subroutine verifies that the geometric parameters of the circle patch have consistently been inp...">
<polygon fill="white" stroke="#666666" points="436.5,-985 321.5,-985 321.5,-944 436.5,-944 436.5,-985"/>
<text text-anchor="start" x="329.5" y="-973" font-family="Helvetica,sans-Serif" font-size="10.00">m_check_patches::s</text>
<text text-anchor="start" x="329.5" y="-962" font-family="Helvetica,sans-Serif" font-size="10.00">_check_circle_patch</text>
<text text-anchor="middle" x="379" y="-951" font-family="Helvetica,sans-Serif" font-size="10.00">_geometry</text>
</a>
</g>
</g>
<!-- Node2&#45;&gt;Node8 -->
<g id="edge7" class="edge">
<title>Node2&#45;&gt;Node8</title>
<path fill="none" stroke="#63b8ff" d="M210.82,-654.66C212.64,-702.46 224.63,-851.78 303,-935.5 305.9,-938.6 309.16,-941.37 312.67,-943.84"/>
<polygon fill="#63b8ff" stroke="#63b8ff" points="310.87,-946.85 321.23,-949.11 314.54,-940.89 310.87,-946.85"/>
</g>
<!-- Node9 -->
<g id="node9" class="node">
<title>Node9</title>
<g id="a_node9"><a xlink:href="namespacem__check__patches.html#aea0d7e10470a4ecaa08df5ff79fe2485" target="_top" xlink:title="This subroutine verifies that the geometric parameters of the cuboid patch have consistently been inp...">
<polygon fill="white" stroke="#666666" points="439,-926 319,-926 319,-885 439,-885 439,-926"/>
<text text-anchor="start" x="327" y="-914" font-family="Helvetica,sans-Serif" font-size="10.00">m_check_patches::s</text>
<text text-anchor="start" x="327" y="-903" font-family="Helvetica,sans-Serif" font-size="10.00">_check_cuboid_patch</text>
<text text-anchor="middle" x="379" y="-892" font-family="Helvetica,sans-Serif" font-size="10.00">_geometry</text>
</a>
</g>
</g>
<!-- Node2&#45;&gt;Node9 -->
<g id="edge8" class="edge">
<title>Node2&#45;&gt;Node9</title>
<path fill="none" stroke="#63b8ff" d="M212.17,-654.53C217.54,-695.72 237.94,-811.64 303,-876.5 305.32,-878.82 307.85,-880.95 310.53,-882.92"/>
<polygon fill="#63b8ff" stroke="#63b8ff" points="308.64,-885.87 318.95,-888.34 312.43,-879.98 308.64,-885.87"/>
</g>
<!-- Node10 -->
<g id="node10" class="node">
<title>Node10</title>
<g id="a_node10"><a xlink:href="namespacem__check__patches.html#a66adadaa54ebba56992b9bb9ed7cb490" target="_top" xlink:title="This subroutine verifies that the geometric parameters of the cylinder patch have consistently been i...">
<polygon fill="white" stroke="#666666" points="442.5,-867 315.5,-867 315.5,-826 442.5,-826 442.5,-867"/>
<text text-anchor="start" x="323.5" y="-855" font-family="Helvetica,sans-Serif" font-size="10.00">m_check_patches::s</text>
<text text-anchor="start" x="323.5" y="-844" font-family="Helvetica,sans-Serif" font-size="10.00">_check_cylinder_patch</text>
<text text-anchor="middle" x="379" y="-833" font-family="Helvetica,sans-Serif" font-size="10.00">_geometry</text>
</a>
</g>
</g>
<!-- Node2&#45;&gt;Node10 -->
<g id="edge9" class="edge">
<title>Node2&#45;&gt;Node10</title>
<path fill="none" stroke="#63b8ff" d="M214.39,-654.66C223.84,-688.53 251.11,-771.04 303,-817.5 304.29,-818.65 305.62,-819.76 307.01,-820.83"/>
<polygon fill="#63b8ff" stroke="#63b8ff" points="305.09,-823.76 315.33,-826.49 309.03,-817.97 305.09,-823.76"/>
</g>
<!-- Node11 -->
<g id="node11" class="node">
<title>Node11</title>
<g id="a_node11"><a xlink:href="namespacem__check__patches.html#ac701bfedde9f28ce1c4aafba47c0b7c9" target="_top" xlink:title="This subroutine verifies that the geometric parameters of the ellipse patch have consistently been in...">
<polygon fill="white" stroke="#666666" points="439,-808 319,-808 319,-767 439,-767 439,-808"/>
<text text-anchor="start" x="327" y="-796" font-family="Helvetica,sans-Serif" font-size="10.00">m_check_patches::s</text>
<text text-anchor="start" x="327" y="-785" font-family="Helvetica,sans-Serif" font-size="10.00">_check_ellipse_patch</text>
<text text-anchor="middle" x="379" y="-774" font-family="Helvetica,sans-Serif" font-size="10.00">_geometry</text>
</a>
</g>
</g>
<!-- Node2&#45;&gt;Node11 -->
<g id="edge10" class="edge">
<title>Node2&#45;&gt;Node11</title>
<path fill="none" stroke="#63b8ff" d="M218.71,-654.81C232.81,-679.8 263.95,-729.45 303,-758.5 305.11,-760.07 307.31,-761.56 309.58,-762.98"/>
<polygon fill="#63b8ff" stroke="#63b8ff" points="308.22,-766.23 318.64,-768.12 311.67,-760.14 308.22,-766.23"/>
</g>
<!-- Node12 -->
<g id="node12" class="node">
<title>Node12</title>
<g id="a_node12"><a xlink:href="namespacem__check__patches.html#abd8a1330518492f664a786646fcba9f9" target="_top" xlink:title="This subroutine verifies that the geometric parameters of the ellipsoid patch have consistently been ...">
<polygon fill="white" stroke="#666666" points="443.5,-749 314.5,-749 314.5,-708 443.5,-708 443.5,-749"/>
<text text-anchor="start" x="322.5" y="-737" font-family="Helvetica,sans-Serif" font-size="10.00">m_check_patches::s</text>
<text text-anchor="start" x="322.5" y="-726" font-family="Helvetica,sans-Serif" font-size="10.00">_check_ellipsoid_patch</text>
<text text-anchor="middle" x="379" y="-715" font-family="Helvetica,sans-Serif" font-size="10.00">_geometry</text>
</a>
</g>
</g>
<!-- Node2&#45;&gt;Node12 -->
<g id="edge11" class="edge">
<title>Node2&#45;&gt;Node12</title>
<path fill="none" stroke="#63b8ff" d="M231.07,-654.61C249.34,-667.6 277.09,-686.27 303,-699.5 305.77,-700.91 308.63,-702.3 311.53,-703.66"/>
<polygon fill="#63b8ff" stroke="#63b8ff" points="310.38,-706.98 320.94,-707.87 313.24,-700.59 310.38,-706.98"/>
</g>
<!-- Node13 -->
<g id="node13" class="node">
<title>Node13</title>
<g id="a_node13"><a xlink:href="namespacem__check__patches.html#a2690167f0b25ca2a4475875740a1a99c" target="_top" xlink:title="This subroutine verifies that the rights of the given inactive patch, to overwrite the preceding patc...">
<polygon fill="white" stroke="#666666" points="442.5,-690 315.5,-690 315.5,-649 442.5,-649 442.5,-690"/>
<text text-anchor="start" x="323.5" y="-678" font-family="Helvetica,sans-Serif" font-size="10.00">m_check_patches::s</text>
<text text-anchor="start" x="323.5" y="-667" font-family="Helvetica,sans-Serif" font-size="10.00">_check_inactive_patch</text>
<text text-anchor="middle" x="379" y="-656" font-family="Helvetica,sans-Serif" font-size="10.00">_alteration_rights</text>
</a>
</g>
</g>
<!-- Node2&#45;&gt;Node13 -->
<g id="edge12" class="edge">
<title>Node2&#45;&gt;Node13</title>
<path fill="none" stroke="#63b8ff" d="M267.21,-649.66C279.41,-651.84 292.48,-654.18 305.2,-656.46"/>
<polygon fill="#63b8ff" stroke="#63b8ff" points="304.85,-659.95 315.31,-658.27 306.08,-653.06 304.85,-659.95"/>
</g>
<!-- Node14 -->
<g id="node14" class="node">
<title>Node14</title>
<g id="a_node14"><a xlink:href="namespacem__check__patches.html#aa2e133b2f325b7a3597149ec08e7dccc" target="_top" xlink:title=" ">
<polygon fill="white" stroke="#666666" points="442.5,-631 315.5,-631 315.5,-590 442.5,-590 442.5,-631"/>
<text text-anchor="start" x="323.5" y="-619" font-family="Helvetica,sans-Serif" font-size="10.00">m_check_patches::s</text>
<text text-anchor="start" x="323.5" y="-608" font-family="Helvetica,sans-Serif" font-size="10.00">_check_inactive_patch</text>
<text text-anchor="middle" x="379" y="-597" font-family="Helvetica,sans-Serif" font-size="10.00">_geometry</text>
</a>
</g>
</g>
<!-- Node2&#45;&gt;Node14 -->
<g id="edge13" class="edge">
<title>Node2&#45;&gt;Node14</title>
<path fill="none" stroke="#63b8ff" d="M267.21,-629.68C279.41,-627.57 292.48,-625.31 305.2,-623.1"/>
<polygon fill="#63b8ff" stroke="#63b8ff" points="306.05,-626.51 315.31,-621.35 304.86,-619.61 306.05,-626.51"/>
</g>
<!-- Node15 -->
<g id="node15" class="node">
<title>Node15</title>
<g id="a_node15"><a xlink:href="namespacem__check__patches.html#a67a788934dbcdcd139962e5b453bf622" target="_top" xlink:title="This subroutine verifies that the primitive variables associated with the given inactive patch remain...">
<polygon fill="white" stroke="#666666" points="442.5,-572 315.5,-572 315.5,-531 442.5,-531 442.5,-572"/>
<text text-anchor="start" x="323.5" y="-560" font-family="Helvetica,sans-Serif" font-size="10.00">m_check_patches::s</text>
<text text-anchor="start" x="323.5" y="-549" font-family="Helvetica,sans-Serif" font-size="10.00">_check_inactive_patch</text>
<text text-anchor="middle" x="379" y="-538" font-family="Helvetica,sans-Serif" font-size="10.00">_primitive_variables</text>
</a>
</g>
</g>
<!-- Node2&#45;&gt;Node15 -->
<g id="edge14" class="edge">
<title>Node2&#45;&gt;Node15</title>
<path fill="none" stroke="#63b8ff" d="M232.28,-624.28C250.62,-611.85 277.82,-594.3 303,-581.5 306.49,-579.73 310.1,-577.99 313.78,-576.29"/>
<polygon fill="#63b8ff" stroke="#63b8ff" points="315.3,-579.44 323.01,-572.17 312.45,-573.05 315.3,-579.44"/>
</g>
<!-- Node16 -->
<g id="node16" class="node">
<title>Node16</title>
<g id="a_node16"><a xlink:href="namespacem__check__patches.html#ad07ba3c6ec28f098d2301cb5c4fab3fa" target="_top" xlink:title="This subroutine verifies that the geometric parameters of the isentropic vortex patch have been enter...">
<polygon fill="white" stroke="#666666" points="449,-513 309,-513 309,-472 449,-472 449,-513"/>
<text text-anchor="start" x="317" y="-501" font-family="Helvetica,sans-Serif" font-size="10.00">m_check_patches::s</text>
<text text-anchor="start" x="317" y="-490" font-family="Helvetica,sans-Serif" font-size="10.00">_check_isentropic_vortex</text>
<text text-anchor="middle" x="379" y="-479" font-family="Helvetica,sans-Serif" font-size="10.00">_patch_geometry</text>
</a>
</g>
</g>
<!-- Node2&#45;&gt;Node16 -->
<g id="edge15" class="edge">
<title>Node2&#45;&gt;Node16</title>
<path fill="none" stroke="#63b8ff" d="M219.04,-624.1C233.4,-599.49 264.61,-551.15 303,-522.5 304.87,-521.1 306.82,-519.76 308.82,-518.47"/>
<polygon fill="#63b8ff" stroke="#63b8ff" points="311.04,-521.23 317.91,-513.16 307.51,-515.19 311.04,-521.23"/>
</g>
<!-- Node17 -->
<g id="node17" class="node">
<title>Node17</title>
<g id="a_node17"><a xlink:href="namespacem__check__patches.html#a5b142fb0ce186f97c22e5a10a36a3bb8" target="_top" xlink:title="This subroutine verifies that the geometric parameters of the line segment patch have consistently be...">
<polygon fill="white" stroke="#666666" points="440,-454 318,-454 318,-413 440,-413 440,-454"/>
<text text-anchor="start" x="326" y="-442" font-family="Helvetica,sans-Serif" font-size="10.00">m_check_patches::s</text>
<text text-anchor="start" x="326" y="-431" font-family="Helvetica,sans-Serif" font-size="10.00">_check_line_segment</text>
<text text-anchor="middle" x="379" y="-420" font-family="Helvetica,sans-Serif" font-size="10.00">_patch_geometry</text>
</a>
</g>
</g>
<!-- Node2&#45;&gt;Node17 -->
<g id="edge16" class="edge">
<title>Node2&#45;&gt;Node17</title>
<path fill="none" stroke="#63b8ff" d="M214.55,-624.3C224.25,-590.74 251.85,-509.61 303,-463.5 304.96,-461.73 307.04,-460.06 309.2,-458.49"/>
<polygon fill="#63b8ff" stroke="#63b8ff" points="311.43,-461.22 317.94,-452.86 307.64,-455.33 311.43,-461.22"/>
</g>
<!-- Node18 -->
<g id="node18" class="node">
<title>Node18</title>
<g id="a_node18"><a xlink:href="namespacem__check__patches.html#a7bae026c1e443c8247a8ad74a849063b" target="_top" xlink:title="This subroutine verifies that the geometric parameters of the line sweep patch have consistently been...">
<polygon fill="white" stroke="#666666" points="450.5,-395 307.5,-395 307.5,-354 450.5,-354 450.5,-395"/>
<text text-anchor="start" x="315.5" y="-383" font-family="Helvetica,sans-Serif" font-size="10.00">m_check_patches::s</text>
<text text-anchor="start" x="315.5" y="-372" font-family="Helvetica,sans-Serif" font-size="10.00">_check_line_sweep_patch</text>
<text text-anchor="middle" x="379" y="-361" font-family="Helvetica,sans-Serif" font-size="10.00">_geometry</text>
</a>
</g>
</g>
<!-- Node2&#45;&gt;Node18 -->
<g id="edge17" class="edge">
<title>Node2&#45;&gt;Node18</title>
<path fill="none" stroke="#63b8ff" d="M212.29,-624.34C217.92,-583.33 238.85,-469.01 303,-404.5 304.08,-403.41 305.21,-402.36 306.37,-401.35"/>
<polygon fill="#63b8ff" stroke="#63b8ff" points="308.67,-404 314.56,-395.19 304.47,-398.41 308.67,-404"/>
</g>
<!-- Node19 -->
<g id="node19" class="node">
<title>Node19</title>
<g id="a_node19"><a xlink:href="namespacem__check__patches.html#a9bb2f96dfcb0168c5a5e51cb7b5dc906" target="_top" xlink:title="This subroutine verifies that the geometric parameters of the plane sweep patch have consistently bee...">
<polygon fill="white" stroke="#666666" points="455,-336 303,-336 303,-295 455,-295 455,-336"/>
<text text-anchor="start" x="311" y="-324" font-family="Helvetica,sans-Serif" font-size="10.00">m_check_patches::s</text>
<text text-anchor="start" x="311" y="-313" font-family="Helvetica,sans-Serif" font-size="10.00">_check_plane_sweep_patch</text>
<text text-anchor="middle" x="379" y="-302" font-family="Helvetica,sans-Serif" font-size="10.00">_geometry</text>
</a>
</g>
</g>
<!-- Node2&#45;&gt;Node19 -->
<g id="edge18" class="edge">
<title>Node2&#45;&gt;Node19</title>
<path fill="none" stroke="#63b8ff" d="M210.89,-624.48C212.93,-577.11 225.52,-429.08 303,-345.5 303.91,-344.52 304.86,-343.56 305.84,-342.64"/>
<polygon fill="#63b8ff" stroke="#63b8ff" points="308.31,-345.15 313.93,-336.16 303.94,-339.68 308.31,-345.15"/>
</g>
<!-- Node20 -->
<g id="node20" class="node">
<title>Node20</title>
<g id="a_node20"><a xlink:href="namespacem__check__patches.html#ac34be0830489fb414bc93ecbb25c0383" target="_top" xlink:title="This subroutine verifies that the geometric parameters of the rectangle patch have consistently been ...">
<polygon fill="white" stroke="#666666" points="446,-277 312,-277 312,-236 446,-236 446,-277"/>
<text text-anchor="start" x="320" y="-265" font-family="Helvetica,sans-Serif" font-size="10.00">m_check_patches::s</text>
<text text-anchor="start" x="320" y="-254" font-family="Helvetica,sans-Serif" font-size="10.00">_check_rectangle_patch</text>
<text text-anchor="middle" x="379" y="-243" font-family="Helvetica,sans-Serif" font-size="10.00">_geometry</text>
</a>
</g>
</g>
<!-- Node2&#45;&gt;Node20 -->
<g id="edge19" class="edge">
<title>Node2&#45;&gt;Node20</title>
<path fill="none" stroke="#63b8ff" d="M209.94,-624.23C208.83,-570.7 212.22,-389.32 303,-286.5 303.86,-285.52 304.76,-284.58 305.69,-283.67"/>
<polygon fill="#63b8ff" stroke="#63b8ff" points="307.96,-286.33 313.39,-277.24 303.47,-280.96 307.96,-286.33"/>
</g>
<!-- Node21 -->
<g id="node21" class="node">
<title>Node21</title>
<g id="a_node21"><a xlink:href="namespacem__check__patches.html#ad2dd6dc473d7bb6d32cd5fd906c80da4" target="_top" xlink:title="This subroutine verifies that the geometric parameters of the sphere patch have consistently been inp...">
<polygon fill="white" stroke="#666666" points="439.5,-218 318.5,-218 318.5,-177 439.5,-177 439.5,-218"/>
<text text-anchor="start" x="326.5" y="-206" font-family="Helvetica,sans-Serif" font-size="10.00">m_check_patches::s</text>
<text text-anchor="start" x="326.5" y="-195" font-family="Helvetica,sans-Serif" font-size="10.00">_check_sphere_patch</text>
<text text-anchor="middle" x="379" y="-184" font-family="Helvetica,sans-Serif" font-size="10.00">_geometry</text>
</a>
</g>
</g>
<!-- Node2&#45;&gt;Node21 -->
<g id="edge20" class="edge">
<title>Node2&#45;&gt;Node21</title>
<path fill="none" stroke="#63b8ff" d="M212.03,-624.28C219.01,-557.37 249.88,-289.86 303,-227.5 305,-225.15 307.22,-222.98 309.59,-220.98"/>
<polygon fill="#63b8ff" stroke="#63b8ff" points="312.11,-223.48 318.2,-214.8 308.04,-217.79 312.11,-223.48"/>
</g>
<!-- Node22 -->
<g id="node22" class="node">
<title>Node22</title>
<g id="a_node22"><a xlink:href="namespacem__check__patches.html#a7f4fc28d325755439d8764d595e09387" target="_top" xlink:title="This subroutine verifies that the geometric parameters of the spherical harmonic patch have consisten...">
<polygon fill="white" stroke="#666666" points="454.5,-159 303.5,-159 303.5,-118 454.5,-118 454.5,-159"/>
<text text-anchor="start" x="311.5" y="-147" font-family="Helvetica,sans-Serif" font-size="10.00">m_check_patches::s</text>
<text text-anchor="start" x="311.5" y="-136" font-family="Helvetica,sans-Serif" font-size="10.00">_check_spherical_harmonic</text>
<text text-anchor="middle" x="379" y="-125" font-family="Helvetica,sans-Serif" font-size="10.00">_patch_geometry</text>
</a>
</g>
</g>
<!-- Node2&#45;&gt;Node22 -->
<g id="edge21" class="edge">
<title>Node2&#45;&gt;Node22</title>
<path fill="none" stroke="#63b8ff" d="M211.57,-624.12C216.94,-551.19 243.04,-240.84 303,-168.5 303.74,-167.61 304.51,-166.74 305.3,-165.91"/>
<polygon fill="#63b8ff" stroke="#63b8ff" points="307.94,-168.25 313.14,-159.02 303.32,-162.99 307.94,-168.25"/>
</g>
<!-- Node23 -->
<g id="node23" class="node">
<title>Node23</title>
<g id="a_node23"><a xlink:href="namespacem__check__patches.html#ac4618b7bb46f92ac59717a31d673ab88" target="_top" xlink:title="This subroutine verifies that the smoothing parameters of the given patch, which supports the smoothi...">
<polygon fill="white" stroke="#666666" points="447.5,-100 310.5,-100 310.5,-59 447.5,-59 447.5,-100"/>
<text text-anchor="start" x="318.5" y="-88" font-family="Helvetica,sans-Serif" font-size="10.00">m_check_patches::s</text>
<text text-anchor="start" x="318.5" y="-77" font-family="Helvetica,sans-Serif" font-size="10.00">_check_supported_patch</text>
<text text-anchor="middle" x="379" y="-66" font-family="Helvetica,sans-Serif" font-size="10.00">_smoothing</text>
</a>
</g>
</g>
<!-- Node2&#45;&gt;Node23 -->
<g id="edge22" class="edge">
<title>Node2&#45;&gt;Node23</title>
<path fill="none" stroke="#63b8ff" d="M211.2,-624.32C215.05,-546.43 236.06,-192.01 303,-109.5 303.71,-108.63 304.44,-107.78 305.21,-106.96"/>
<polygon fill="#63b8ff" stroke="#63b8ff" points="307.62,-109.5 312.72,-100.21 302.94,-104.29 307.62,-109.5"/>
</g>
<!-- Node24 -->
<g id="node24" class="node">
<title>Node24</title>
<g id="a_node24"><a xlink:href="namespacem__check__patches.html#a7f27b499f2b90ad0f25443c1a1c5a0e5" target="_top" xlink:title="This subroutine verifies that the smoothing parameters of the given patch, which does not support the...">
<polygon fill="white" stroke="#666666" points="453.5,-41 304.5,-41 304.5,0 453.5,0 453.5,-41"/>
<text text-anchor="start" x="312.5" y="-29" font-family="Helvetica,sans-Serif" font-size="10.00">m_check_patches::s</text>
<text text-anchor="start" x="312.5" y="-18" font-family="Helvetica,sans-Serif" font-size="10.00">_check_unsupported_patch</text>
<text text-anchor="middle" x="379" y="-7" font-family="Helvetica,sans-Serif" font-size="10.00">_smoothing</text>
</a>
</g>
</g>
<!-- Node2&#45;&gt;Node24 -->
<g id="edge23" class="edge">
<title>Node2&#45;&gt;Node24</title>
<path fill="none" stroke="#63b8ff" d="M210.9,-624.32C213.4,-541.36 229.12,-143.17 303,-50.5 303.7,-49.62 304.43,-48.77 305.18,-47.94"/>
<polygon fill="#63b8ff" stroke="#63b8ff" points="307.61,-50.47 312.65,-41.15 302.9,-45.29 307.61,-50.47"/>
</g>
</g>
</svg>
        <g id="navigator" transform="translate(0 0)" fill="#404254">
                <rect fill="#f2f5e9" fill-opacity="0.5" stroke="#606060" stroke-width=".5" x="0" y="0" width="60" height="60"/>
                <use id="zoomplus" xlink:href="#zoomPlus" x="17" y="9" onmousedown="handleZoom(evt,'in')"/>
                <use id="zoomminus" xlink:href="#zoomMin" x="42" y="9" onmousedown="handleZoom(evt,'out')"/>
                <use id="reset" xlink:href="#resetDef" x="30" y="36" onmousedown="handleReset()"/>
                <g id="arrowUp" xlink:href="#dirArrow" transform="translate(30 24)" onmousedown="handlePan(0,-1)">
                  <use xlink:href="#rim" fill="#404040">
                        <set attributeName="fill" to="#808080" begin="arrowUp.mouseover" end="arrowUp.mouseout"/>
                  </use>
                  <path fill="none" stroke="white" stroke-width="1.5" d="M0,-3.0v7 M-2.5,-0.5L0,-3.0L2.5,-0.5"/>
                </g>
                <g id="arrowRight" xlink:href="#dirArrow" transform="rotate(90) translate(36 -43)" onmousedown="handlePan(1,0)">
                  <use xlink:href="#rim" fill="#404040">
                        <set attributeName="fill" to="#808080" begin="arrowRight.mouseover" end="arrowRight.mouseout"/>
                  </use>
                  <path fill="none" stroke="white" stroke-width="1.5" d="M0,-3.0v7 M-2.5,-0.5L0,-3.0L2.5,-0.5"/>
                </g>
                <g id="arrowDown" xlink:href="#dirArrow" transform="rotate(180) translate(-30 -48)" onmousedown="handlePan(0,1)">
                  <use xlink:href="#rim" fill="#404040">
                        <set attributeName="fill" to="#808080" begin="arrowDown.mouseover" end="arrowDown.mouseout"/>
                  </use>
                  <path fill="none" stroke="white" stroke-width="1.5" d="M0,-3.0v7 M-2.5,-0.5L0,-3.0L2.5,-0.5"/>
                </g>
                <g id="arrowLeft" xlink:href="#dirArrow" transform="rotate(270) translate(-36 17)" onmousedown="handlePan(-1,0)">
                  <use xlink:href="#rim" fill="#404040">
                        <set attributeName="fill" to="#808080" begin="arrowLeft.mouseover" end="arrowLeft.mouseout"/>
                  </use>
                  <path fill="none" stroke="white" stroke-width="1.5" d="M0,-3.0v7 M-2.5,-0.5L0,-3.0L2.5,-0.5"/>
                </g>
        </g>
        <svg viewBox="0 0 15 15" width="100%" height="30px" preserveAspectRatio="xMaxYMin meet">
         <g id="arrow_out" transform="scale(0.3 0.3)">
          <a xlink:href="namespacem__start__up_ab5f7e03f1da1999ee699cec4f26370e0_cgraph_org.svg" target="_base">
           <rect id="button" ry="5" rx="5" y="6" x="6" height="38" width="38"
                fill="#f2f5e9" fill-opacity="0.5" stroke="#606060" stroke-width="1.0"/>
           <path id="arrow"
             d="M 11.500037,31.436501 C 11.940474,20.09759 22.043105,11.32322 32.158766,21.979434 L 37.068811,17.246167 C 37.068811,17.246167 37.088388,32 37.088388,32 L 22.160133,31.978069 C 22.160133,31.978069 26.997745,27.140456 26.997745,27.140456 C 18.528582,18.264221 13.291696,25.230495 11.500037,31.436501 z"
             style="fill:#404040;"/>
          </a>
         </g>
        </svg>
</svg>
