<?xml version="1.0" encoding="UTF-8" standalone="no"?>
<!DOCTYPE svg PUBLIC "-//W3C//DTD SVG 1.1//EN"
 "http://www.w3.org/Graphics/SVG/1.1/DTD/svg11.dtd">
<!-- Generated by graphviz version 2.43.0 (0)
 -->
<!-- Title: m_mpi_proxy::s_mpi_barrier Pages: 1 -->
<svg width="561pt" height="153pt"
 viewBox="0.00 0.00 561.00 153.28" xmlns="http://www.w3.org/2000/svg" xmlns:xlink="http://www.w3.org/1999/xlink">
<g id="graph0" class="graph" transform="scale(1 1) rotate(0) translate(4 149.28)">
<title>m_mpi_proxy::s_mpi_barrier</title>
<!-- Node1 -->
<g id="node1" class="node">
<title>Node1</title>
<g id="a_node1"><a xlink:title="Halts all processes until all have reached barrier.">
<polygon fill="#999999" stroke="#666666" points="553,-116 435,-116 435,-86 553,-86 553,-116"/>
<text text-anchor="start" x="443" y="-104" font-family="Helvetica,sans-Serif" font-size="10.00">m_mpi_proxy::s_mpi</text>
<text text-anchor="middle" x="494" y="-93" font-family="Helvetica,sans-Serif" font-size="10.00">_barrier</text>
</a>
</g>
</g>
<!-- Node2 -->
<g id="node2" class="node">
<title>Node2</title>
<g id="a_node2"><a xlink:href="p__main_8f90.html#aeec10ee8e2940c953967da3e374e1579" target="_top" xlink:title="This program takes care of setting up the initial condition and grid data for the multicomponent flow...">
<polygon fill="white" stroke="#666666" points="53,-88.5 0,-88.5 0,-69.5 53,-69.5 53,-88.5"/>
<text text-anchor="middle" x="26.5" y="-76.5" font-family="Helvetica,sans-Serif" font-size="10.00">p_main</text>
</a>
</g>
</g>
<!-- Node1&#45;&gt;Node2 -->
<g id="edge1" class="edge">
<title>Node1&#45;&gt;Node2</title>
<path fill="none" stroke="#63b8ff" d="M431.32,-118.58C350.45,-138.55 205.21,-163.65 89,-125 67.49,-117.85 47.43,-99.91 36.38,-88.66"/>
<polygon fill="#63b8ff" stroke="#63b8ff" points="432.5,-121.9 441.34,-116.06 430.79,-115.11 432.5,-121.9"/>
</g>
<!-- Node3 -->
<g id="node3" class="node">
<title>Node3</title>
<g id="a_node3"><a xlink:href="namespacem__data__output.html#ab65b312ef83adb104cafafada9c998b6" target="_top" xlink:title="Computation of parameters, allocation procedures, and/or any other tasks needed to properly setup the...">
<polygon fill="white" stroke="#666666" points="238,-116 89,-116 89,-86 238,-86 238,-116"/>
<text text-anchor="start" x="97" y="-104" font-family="Helvetica,sans-Serif" font-size="10.00">m_data_output::s_initialize</text>
<text text-anchor="middle" x="163.5" y="-93" font-family="Helvetica,sans-Serif" font-size="10.00">_data_output_module</text>
</a>
</g>
</g>
<!-- Node1&#45;&gt;Node3 -->
<g id="edge2" class="edge">
<title>Node1&#45;&gt;Node3</title>
<path fill="none" stroke="#63b8ff" d="M424.4,-101C369.92,-101 293.89,-101 238.14,-101"/>
<polygon fill="#63b8ff" stroke="#63b8ff" points="424.65,-104.5 434.65,-101 424.65,-97.5 424.65,-104.5"/>
</g>
<!-- Node4 -->
<g id="node4" class="node">
<title>Node4</title>
<g id="a_node4"><a xlink:href="namespacem__start__up.html#a25daee88d75c57908efa6e3e0516fb28" target="_top" xlink:title="The goal of this subroutine is to read in any preexisting initial condition data files so that they m...">
<polygon fill="white" stroke="#666666" points="399,-73 274,-73 274,-43 399,-43 399,-73"/>
<text text-anchor="start" x="282" y="-61" font-family="Helvetica,sans-Serif" font-size="10.00">m_start_up::s_read</text>
<text text-anchor="middle" x="336.5" y="-50" font-family="Helvetica,sans-Serif" font-size="10.00">_parallel_ic_data_files</text>
</a>
</g>
</g>
<!-- Node1&#45;&gt;Node4 -->
<g id="edge4" class="edge">
<title>Node1&#45;&gt;Node4</title>
<path fill="none" stroke="#63b8ff" d="M428.88,-83.27C416.58,-79.87 403.81,-76.34 391.86,-73.03"/>
<polygon fill="#63b8ff" stroke="#63b8ff" points="428.04,-86.67 438.61,-85.96 429.91,-79.92 428.04,-86.67"/>
</g>
<!-- Node3&#45;&gt;Node2 -->
<g id="edge3" class="edge">
<title>Node3&#45;&gt;Node2</title>
<path fill="none" stroke="#63b8ff" d="M78.58,-87.32C69.39,-85.83 60.64,-84.4 53.05,-83.16"/>
<polygon fill="#63b8ff" stroke="#63b8ff" points="78.25,-90.82 88.68,-88.97 79.37,-83.91 78.25,-90.82"/>
</g>
<!-- Node4&#45;&gt;Node2 -->
<g id="edge5" class="edge">
<title>Node4&#45;&gt;Node2</title>
<path fill="none" stroke="#63b8ff" d="M263.78,-62.89C196.39,-67.48 99.24,-74.11 53.36,-77.24"/>
<polygon fill="#63b8ff" stroke="#63b8ff" points="264.17,-66.37 273.91,-62.2 263.7,-59.39 264.17,-66.37"/>
</g>
<!-- Node5 -->
<g id="node5" class="node">
<title>Node5</title>
<g id="a_node5"><a xlink:href="namespacem__start__up.html#a37202711d89d04cd18f08170ba608aa1" target="_top" xlink:title=" ">
<polygon fill="white" stroke="#666666" points="228.5,-30 98.5,-30 98.5,0 228.5,0 228.5,-30"/>
<text text-anchor="start" x="106.5" y="-18" font-family="Helvetica,sans-Serif" font-size="10.00">m_start_up::s_initialize</text>
<text text-anchor="middle" x="163.5" y="-7" font-family="Helvetica,sans-Serif" font-size="10.00">_start_up_module</text>
</a>
</g>
</g>
<!-- Node4&#45;&gt;Node5 -->
<g id="edge6" class="edge">
<title>Node4&#45;&gt;Node5</title>
<path fill="none" stroke="#63b8ff" d="M265.79,-40.47C252.02,-37.01 237.68,-33.4 224.27,-30.03"/>
<polygon fill="#63b8ff" stroke="#63b8ff" points="265.14,-43.92 275.69,-42.96 266.85,-37.13 265.14,-43.92"/>
</g>
<!-- Node5&#45;&gt;Node2 -->
<g id="edge7" class="edge">
<title>Node5&#45;&gt;Node2</title>
<path fill="none" stroke="#63b8ff" d="M111.88,-33.88C104.14,-37.08 96.3,-40.5 89,-44 72.82,-51.75 55.09,-62.04 42.85,-69.46"/>
<polygon fill="#63b8ff" stroke="#63b8ff" points="113.28,-37.09 121.24,-30.09 110.65,-30.6 113.28,-37.09"/>
</g>
</g>
</svg>
