<?xml version="1.0" encoding="UTF-8" standalone="no"?>
<!DOCTYPE svg PUBLIC "-//W3C//DTD SVG 1.1//EN"
 "http://www.w3.org/Graphics/SVG/1.1/DTD/svg11.dtd">
<!-- Generated by graphviz version 2.43.0 (0)
 -->
<!-- Title: m_start_up::s_initialize_start_up_module Pages: 1 -->
<svg width="486pt" height="206pt"
 viewBox="0.00 0.00 486.00 206.00" xmlns="http://www.w3.org/2000/svg" xmlns:xlink="http://www.w3.org/1999/xlink">
<g id="graph0" class="graph" transform="scale(1 1) rotate(0) translate(4 202)">
<title>m_start_up::s_initialize_start_up_module</title>
<!-- Node1 -->
<g id="node1" class="node">
<title>Node1</title>
<g id="a_node1"><a xlink:title=" ">
<polygon fill="#999999" stroke="#666666" points="130,-102 0,-102 0,-72 130,-72 130,-102"/>
<text text-anchor="start" x="8" y="-90" font-family="Helvetica,sans-Serif" font-size="10.00">m_start_up::s_initialize</text>
<text text-anchor="middle" x="65" y="-79" font-family="Helvetica,sans-Serif" font-size="10.00">_start_up_module</text>
</a>
</g>
</g>
<!-- Node2 -->
<g id="node2" class="node">
<title>Node2</title>
<g id="a_node2"><a xlink:href="namespacem__start__up.html#aaaad3d18eef01d1d8387e34a8b7d33ac" target="_top" xlink:title="Cell&#45;boundary data are checked for consistency by looking at the (non&#45;)uniform cell&#45;width distributio...">
<polygon fill="white" stroke="#666666" points="301,-78 166,-78 166,-48 301,-48 301,-78"/>
<text text-anchor="start" x="174" y="-66" font-family="Helvetica,sans-Serif" font-size="10.00">m_start_up::s_read</text>
<text text-anchor="middle" x="233.5" y="-55" font-family="Helvetica,sans-Serif" font-size="10.00">_parallel_grid_data_files</text>
</a>
</g>
</g>
<!-- Node1&#45;&gt;Node2 -->
<g id="edge1" class="edge">
<title>Node1&#45;&gt;Node2</title>
<path fill="none" stroke="#63b8ff" d="M130.37,-77.72C138.73,-76.52 147.35,-75.27 155.87,-74.05"/>
<polygon fill="#63b8ff" stroke="#63b8ff" points="156.42,-77.5 165.82,-72.61 155.42,-70.57 156.42,-77.5"/>
</g>
<!-- Node5 -->
<g id="node5" class="node">
<title>Node5</title>
<g id="a_node5"><a xlink:href="namespacem__start__up.html#a25daee88d75c57908efa6e3e0516fb28" target="_top" xlink:title="The goal of this subroutine is to read in any preexisting initial condition data files so that they m...">
<polygon fill="white" stroke="#666666" points="296,-174 171,-174 171,-144 296,-144 296,-174"/>
<text text-anchor="start" x="179" y="-162" font-family="Helvetica,sans-Serif" font-size="10.00">m_start_up::s_read</text>
<text text-anchor="middle" x="233.5" y="-151" font-family="Helvetica,sans-Serif" font-size="10.00">_parallel_ic_data_files</text>
</a>
</g>
</g>
<!-- Node1&#45;&gt;Node5 -->
<g id="edge4" class="edge">
<title>Node1&#45;&gt;Node5</title>
<path fill="none" stroke="#63b8ff" d="M95.4,-102.08C115.13,-111.96 141.85,-124.87 166,-135 170.19,-136.76 174.56,-138.51 178.96,-140.21"/>
<polygon fill="#63b8ff" stroke="#63b8ff" points="178.02,-143.6 188.62,-143.87 180.51,-137.06 178.02,-143.6"/>
</g>
<!-- Node8 -->
<g id="node8" class="node">
<title>Node8</title>
<g id="a_node8"><a xlink:href="namespacem__start__up.html#ac2be28e53607458a3860b03446ed6497" target="_top" xlink:title="The goal of this subroutine is to read in any preexisting grid data as well as based on the imported ...">
<polygon fill="white" stroke="#666666" points="296,-30 171,-30 171,0 296,0 296,-30"/>
<text text-anchor="start" x="179" y="-18" font-family="Helvetica,sans-Serif" font-size="10.00">m_start_up::s_read</text>
<text text-anchor="middle" x="233.5" y="-7" font-family="Helvetica,sans-Serif" font-size="10.00">_serial_grid_data_files</text>
</a>
</g>
</g>
<!-- Node1&#45;&gt;Node8 -->
<g id="edge8" class="edge">
<title>Node1&#45;&gt;Node8</title>
<path fill="none" stroke="#63b8ff" d="M95.4,-71.92C115.13,-62.04 141.85,-49.13 166,-39 170.19,-37.24 174.56,-35.49 178.96,-33.79"/>
<polygon fill="#63b8ff" stroke="#63b8ff" points="180.51,-36.94 188.62,-30.13 178.02,-30.4 180.51,-36.94"/>
</g>
<!-- Node9 -->
<g id="node9" class="node">
<title>Node9</title>
<g id="a_node9"><a xlink:href="namespacem__start__up.html#a88f1f355d8aeecb6cd47653ed285cfa2" target="_top" xlink:title="The goal of this subroutine is to read in any preexisting initial condition data files so that they m...">
<polygon fill="white" stroke="#666666" points="291,-126 176,-126 176,-96 291,-96 291,-126"/>
<text text-anchor="start" x="184" y="-114" font-family="Helvetica,sans-Serif" font-size="10.00">m_start_up::s_read</text>
<text text-anchor="middle" x="233.5" y="-103" font-family="Helvetica,sans-Serif" font-size="10.00">_serial_ic_data_files</text>
</a>
</g>
</g>
<!-- Node1&#45;&gt;Node9 -->
<g id="edge11" class="edge">
<title>Node1&#45;&gt;Node9</title>
<path fill="none" stroke="#63b8ff" d="M130.37,-96.28C141.98,-97.95 154.1,-99.7 165.78,-101.38"/>
<polygon fill="#63b8ff" stroke="#63b8ff" points="165.5,-104.88 175.89,-102.84 166.5,-97.95 165.5,-104.88"/>
</g>
<!-- Node3 -->
<g id="node3" class="node">
<title>Node3</title>
<g id="a_node3"><a xlink:href="namespacem__mpi__proxy.html#a04ac565bad2b22dc045a5eeb4f516e2e" target="_top" xlink:title="The subroutine terminates the MPI execution environment.">
<polygon fill="white" stroke="#666666" points="466.5,-78 348.5,-78 348.5,-48 466.5,-48 466.5,-78"/>
<text text-anchor="start" x="356.5" y="-66" font-family="Helvetica,sans-Serif" font-size="10.00">m_mpi_proxy::s_mpi</text>
<text text-anchor="middle" x="407.5" y="-55" font-family="Helvetica,sans-Serif" font-size="10.00">_abort</text>
</a>
</g>
</g>
<!-- Node2&#45;&gt;Node3 -->
<g id="edge2" class="edge">
<title>Node2&#45;&gt;Node3</title>
<path fill="none" stroke="#63b8ff" d="M301.49,-63C313.58,-63 326.19,-63 338.31,-63"/>
<polygon fill="#63b8ff" stroke="#63b8ff" points="338.35,-66.5 348.35,-63 338.35,-59.5 338.35,-66.5"/>
</g>
<!-- Node4 -->
<g id="node4" class="node">
<title>Node4</title>
<g id="a_node4"><a xlink:href="namespacem__mpi__proxy.html#ad02d11c9b94b9354f7d8234937bb27a2" target="_top" xlink:title="The following subroutine takes the inputted variable and determines its minimum value on the entire c...">
<polygon fill="white" stroke="#666666" points="466.5,-30 348.5,-30 348.5,0 466.5,0 466.5,-30"/>
<text text-anchor="start" x="356.5" y="-18" font-family="Helvetica,sans-Serif" font-size="10.00">m_mpi_proxy::s_mpi</text>
<text text-anchor="middle" x="407.5" y="-7" font-family="Helvetica,sans-Serif" font-size="10.00">_reduce_min</text>
</a>
</g>
</g>
<!-- Node2&#45;&gt;Node4 -->
<g id="edge3" class="edge">
<title>Node2&#45;&gt;Node4</title>
<path fill="none" stroke="#63b8ff" d="M288.45,-47.94C305.74,-43.12 325.05,-37.73 342.96,-32.73"/>
<polygon fill="#63b8ff" stroke="#63b8ff" points="344.05,-36.06 352.74,-30 342.17,-29.32 344.05,-36.06"/>
</g>
<!-- Node5&#45;&gt;Node3 -->
<g id="edge6" class="edge">
<title>Node5&#45;&gt;Node3</title>
<path fill="none" stroke="#63b8ff" d="M280.93,-143.95C287.78,-141.24 294.66,-138.24 301,-135 305.02,-132.94 346.65,-104.34 376.39,-83.82"/>
<polygon fill="#63b8ff" stroke="#63b8ff" points="378.57,-86.57 384.81,-78.01 374.59,-80.81 378.57,-86.57"/>
</g>
<!-- Node6 -->
<g id="node6" class="node">
<title>Node6</title>
<g id="a_node6"><a xlink:href="namespacem__mpi__proxy.html#a2ff35ede51e90c483969e44c31303415" target="_top" xlink:title=" ">
<polygon fill="white" stroke="#666666" points="478,-198 337,-198 337,-168 478,-168 478,-198"/>
<text text-anchor="start" x="345" y="-186" font-family="Helvetica,sans-Serif" font-size="10.00">m_mpi_proxy::s_initialize</text>
<text text-anchor="middle" x="407.5" y="-175" font-family="Helvetica,sans-Serif" font-size="10.00">_mpi_data</text>
</a>
</g>
</g>
<!-- Node5&#45;&gt;Node6 -->
<g id="edge5" class="edge">
<title>Node5&#45;&gt;Node6</title>
<path fill="none" stroke="#63b8ff" d="M296.11,-167.6C306.01,-168.98 316.39,-170.43 326.65,-171.86"/>
<polygon fill="#63b8ff" stroke="#63b8ff" points="326.46,-175.36 336.84,-173.28 327.42,-168.43 326.46,-175.36"/>
</g>
<!-- Node7 -->
<g id="node7" class="node">
<title>Node7</title>
<g id="a_node7"><a xlink:href="namespacem__mpi__proxy.html#abfbc42cea69273bc9fa4a2d78f636eb1" target="_top" xlink:title="Halts all processes until all have reached barrier.">
<polygon fill="white" stroke="#666666" points="466.5,-150 348.5,-150 348.5,-120 466.5,-120 466.5,-150"/>
<text text-anchor="start" x="356.5" y="-138" font-family="Helvetica,sans-Serif" font-size="10.00">m_mpi_proxy::s_mpi</text>
<text text-anchor="middle" x="407.5" y="-127" font-family="Helvetica,sans-Serif" font-size="10.00">_barrier</text>
</a>
</g>
</g>
<!-- Node5&#45;&gt;Node7 -->
<g id="edge7" class="edge">
<title>Node5&#45;&gt;Node7</title>
<path fill="none" stroke="#63b8ff" d="M296.11,-150.4C309.84,-148.49 324.47,-146.45 338.44,-144.5"/>
<polygon fill="#63b8ff" stroke="#63b8ff" points="339.06,-147.94 348.48,-143.1 338.09,-141.01 339.06,-147.94"/>
</g>
<!-- Node8&#45;&gt;Node3 -->
<g id="edge9" class="edge">
<title>Node8&#45;&gt;Node3</title>
<path fill="none" stroke="#63b8ff" d="M288.45,-30.06C305.74,-34.88 325.05,-40.27 342.96,-45.27"/>
<polygon fill="#63b8ff" stroke="#63b8ff" points="342.17,-48.68 352.74,-48 344.05,-41.94 342.17,-48.68"/>
</g>
<!-- Node8&#45;&gt;Node4 -->
<g id="edge10" class="edge">
<title>Node8&#45;&gt;Node4</title>
<path fill="none" stroke="#63b8ff" d="M296.11,-15C309.84,-15 324.47,-15 338.44,-15"/>
<polygon fill="#63b8ff" stroke="#63b8ff" points="338.48,-18.5 348.48,-15 338.48,-11.5 338.48,-18.5"/>
</g>
<!-- Node9&#45;&gt;Node3 -->
<g id="edge12" class="edge">
<title>Node9&#45;&gt;Node3</title>
<path fill="none" stroke="#63b8ff" d="M288.45,-95.94C305.74,-91.12 325.05,-85.73 342.96,-80.73"/>
<polygon fill="#63b8ff" stroke="#63b8ff" points="344.05,-84.06 352.74,-78 342.17,-77.32 344.05,-84.06"/>
</g>
</g>
</svg>
