<?xml version="1.0" encoding="UTF-8" standalone="no"?>
<!DOCTYPE svg PUBLIC "-//W3C//DTD SVG 1.1//EN"
 "http://www.w3.org/Graphics/SVG/1.1/DTD/svg11.dtd">
<!-- Generated by graphviz version 2.43.0 (0)
 -->
<!-- Title: m_mpi_proxy::s_initialize_mpi_data Pages: 1 -->
<svg width="590pt" height="148pt"
 viewBox="0.00 0.00 590.00 148.37" xmlns="http://www.w3.org/2000/svg" xmlns:xlink="http://www.w3.org/1999/xlink">
<g id="graph0" class="graph" transform="scale(1 1) rotate(0) translate(4 144.37)">
<title>m_mpi_proxy::s_initialize_mpi_data</title>
<!-- Node1 -->
<g id="node1" class="node">
<title>Node1</title>
<g id="a_node1"><a xlink:title=" ">
<polygon fill="#bfbfbf" stroke="black" points="441,-65.5 441,-95.5 582,-95.5 582,-65.5 441,-65.5"/>
<text text-anchor="start" x="449" y="-83.5" font-family="Helvetica,sans-Serif" font-size="10.00">m_mpi_proxy::s_initialize</text>
<text text-anchor="middle" x="511.5" y="-72.5" font-family="Helvetica,sans-Serif" font-size="10.00">_mpi_data</text>
</a>
</g>
</g>
<!-- Node2 -->
<g id="node2" class="node">
<title>Node2</title>
<g id="a_node2"><a xlink:href="namespacem__start__up.html#a25daee88d75c57908efa6e3e0516fb28" target="_top" xlink:title="The goal of this subroutine is to read in any preexisting initial condition data files so that they m...">
<polygon fill="none" stroke="black" points="277,-90.5 277,-120.5 402,-120.5 402,-90.5 277,-90.5"/>
<text text-anchor="start" x="285" y="-108.5" font-family="Helvetica,sans-Serif" font-size="10.00">m_start_up::s_read</text>
<text text-anchor="middle" x="339.5" y="-97.5" font-family="Helvetica,sans-Serif" font-size="10.00">_parallel_ic_data_files</text>
</a>
</g>
</g>
<!-- Node1&#45;&gt;Node2 -->
<g id="edge1" class="edge">
<title>Node1&#45;&gt;Node2</title>
<path fill="none" stroke="midnightblue" d="M430.86,-92.21C421.21,-93.63 411.46,-95.06 402.13,-96.44"/>
<polygon fill="midnightblue" stroke="midnightblue" points="431.48,-95.66 440.86,-90.74 430.46,-88.73 431.48,-95.66"/>
</g>
<!-- Node5 -->
<g id="node5" class="node">
<title>Node5</title>
<g id="a_node5"><a xlink:href="namespacem__data__output.html#a12a171700eb3f8a63d17c01a0033cf39" target="_top" xlink:title="Writes grid and initial condition data files in parallel to the &quot;0&quot; time&#45;step directory in the local ...">
<polygon fill="none" stroke="black" points="274,-41.5 274,-71.5 405,-71.5 405,-41.5 274,-41.5"/>
<text text-anchor="start" x="282" y="-59.5" font-family="Helvetica,sans-Serif" font-size="10.00">m_data_output::s_write</text>
<text text-anchor="middle" x="339.5" y="-48.5" font-family="Helvetica,sans-Serif" font-size="10.00">_parallel_data_files</text>
</a>
</g>
</g>
<!-- Node1&#45;&gt;Node5 -->
<g id="edge5" class="edge">
<title>Node1&#45;&gt;Node5</title>
<path fill="none" stroke="midnightblue" d="M430.81,-69.25C422.19,-68.03 413.51,-66.81 405.1,-65.62"/>
<polygon fill="midnightblue" stroke="midnightblue" points="430.47,-72.74 440.86,-70.67 431.45,-65.81 430.47,-72.74"/>
</g>
<!-- Node3 -->
<g id="node3" class="node">
<title>Node3</title>
<g id="a_node3"><a xlink:href="p__main_8f90.html#aeec10ee8e2940c953967da3e374e1579" target="_top" xlink:title="This program takes care of setting up the initial condition and grid data for the multicomponent flow...">
<polygon fill="none" stroke="black" points="0,-72 0,-91 53,-91 53,-72 0,-72"/>
<text text-anchor="middle" x="26.5" y="-79" font-family="Helvetica,sans-Serif" font-size="10.00">p_main</text>
</a>
</g>
</g>
<!-- Node2&#45;&gt;Node3 -->
<g id="edge2" class="edge">
<title>Node2&#45;&gt;Node3</title>
<path fill="none" stroke="midnightblue" d="M283.08,-123.34C231.49,-137.02 153.12,-150.2 89,-128.5 67.36,-121.18 47.34,-102.85 36.33,-91.37"/>
<polygon fill="midnightblue" stroke="midnightblue" points="284.32,-126.63 293.03,-120.61 282.46,-119.88 284.32,-126.63"/>
</g>
<!-- Node4 -->
<g id="node4" class="node">
<title>Node4</title>
<g id="a_node4"><a xlink:href="namespacem__start__up.html#a37202711d89d04cd18f08170ba608aa1" target="_top" xlink:title=" ">
<polygon fill="none" stroke="black" points="98.5,-88.5 98.5,-118.5 228.5,-118.5 228.5,-88.5 98.5,-88.5"/>
<text text-anchor="start" x="106.5" y="-106.5" font-family="Helvetica,sans-Serif" font-size="10.00">m_start_up::s_initialize</text>
<text text-anchor="middle" x="163.5" y="-95.5" font-family="Helvetica,sans-Serif" font-size="10.00">_start_up_module</text>
</a>
</g>
</g>
<!-- Node2&#45;&gt;Node4 -->
<g id="edge3" class="edge">
<title>Node2&#45;&gt;Node4</title>
<path fill="none" stroke="midnightblue" d="M266.33,-104.67C253.88,-104.53 241.01,-104.38 228.78,-104.24"/>
<polygon fill="midnightblue" stroke="midnightblue" points="266.62,-108.17 276.66,-104.79 266.71,-101.17 266.62,-108.17"/>
</g>
<!-- Node4&#45;&gt;Node3 -->
<g id="edge4" class="edge">
<title>Node4&#45;&gt;Node3</title>
<path fill="none" stroke="midnightblue" d="M88.11,-91.38C75.62,-89.34 63.44,-87.36 53.32,-85.71"/>
<polygon fill="midnightblue" stroke="midnightblue" points="87.73,-94.86 98.16,-93.02 88.86,-87.95 87.73,-94.86"/>
</g>
<!-- Node5&#45;&gt;Node3 -->
<g id="edge6" class="edge">
<title>Node5&#45;&gt;Node3</title>
<path fill="none" stroke="midnightblue" d="M263.42,-62.54C195.27,-68.01 98.69,-75.78 53.15,-79.44"/>
<polygon fill="midnightblue" stroke="midnightblue" points="264,-66 273.68,-61.71 263.43,-59.02 264,-66"/>
</g>
<!-- Node6 -->
<g id="node6" class="node">
<title>Node6</title>
<g id="a_node6"><a xlink:href="namespacem__data__output.html#ab65b312ef83adb104cafafada9c998b6" target="_top" xlink:title="Computation of parameters, allocation procedures, and/or any other tasks needed to properly setup the...">
<polygon fill="none" stroke="black" points="89,-0.5 89,-30.5 238,-30.5 238,-0.5 89,-0.5"/>
<text text-anchor="start" x="97" y="-18.5" font-family="Helvetica,sans-Serif" font-size="10.00">m_data_output::s_initialize</text>
<text text-anchor="middle" x="163.5" y="-7.5" font-family="Helvetica,sans-Serif" font-size="10.00">_data_output_module</text>
</a>
</g>
</g>
<!-- Node5&#45;&gt;Node6 -->
<g id="edge7" class="edge">
<title>Node5&#45;&gt;Node6</title>
<path fill="none" stroke="midnightblue" d="M264.64,-39.1C252.55,-36.25 240.12,-33.32 228.3,-30.53"/>
<polygon fill="midnightblue" stroke="midnightblue" points="264.16,-42.58 274.7,-41.47 265.77,-35.77 264.16,-42.58"/>
</g>
<!-- Node6&#45;&gt;Node3 -->
<g id="edge8" class="edge">
<title>Node6&#45;&gt;Node3</title>
<path fill="none" stroke="midnightblue" d="M113.25,-34.47C105.07,-37.94 96.73,-41.69 89,-45.5 72.69,-53.55 54.83,-64.23 42.58,-71.86"/>
<polygon fill="midnightblue" stroke="midnightblue" points="114.86,-37.59 122.75,-30.52 112.18,-31.13 114.86,-37.59"/>
</g>
</g>
</svg>
