<?xml version="1.0" encoding="UTF-8" standalone="no"?>
<!DOCTYPE svg PUBLIC "-//W3C//DTD SVG 1.1//EN"
 "http://www.w3.org/Graphics/SVG/1.1/DTD/svg11.dtd">
<!-- Generated by graphviz version 2.43.0 (0)
 -->
<!-- Title: m_initial_condition::s_generate_initial_condition Pages: 1 -->
<!--zoomable 1117 -->
<svg id="main" version="1.1" xmlns="http://www.w3.org/2000/svg" xmlns:xlink="http://www.w3.org/1999/xlink" xml:space="preserve" onload="init(evt)">
<style type="text/css"><![CDATA[
.edge:hover path { stroke: red; }
.edge:hover polygon { stroke: red; fill: red; }
]]></style>
<script type="text/javascript"><![CDATA[
var edges = document.getElementsByTagName('g');
if (edges && edges.length) {
  for (var i=0;i<edges.length;i++) {
    if (edges[i].id.substr(0,4)=='edge') {
      edges[i].setAttribute('class','edge');
    }
  }
}
]]></script>
        <defs>
                <circle id="rim" cx="0" cy="0" r="7"/>
                <circle id="rim2" cx="0" cy="0" r="3.5"/>
                <g id="zoomPlus">
                        <use xlink:href="#rim" fill="#404040">
                                <set attributeName="fill" to="#808080" begin="zoomplus.mouseover" end="zoomplus.mouseout"/>
                        </use>
                        <path d="M-4,0h8M0,-4v8" fill="none" stroke="white" stroke-width="1.5" pointer-events="none"/>
                </g>
                <g id="zoomMin">
                        <use xlink:href="#rim" fill="#404040">
                                <set attributeName="fill" to="#808080" begin="zoomminus.mouseover" end="zoomminus.mouseout"/>
                        </use>
                        <path d="M-4,0h8" fill="none" stroke="white" stroke-width="1.5" pointer-events="none"/>
                </g>
                <g id="dirArrow">
                        <path fill="none" stroke="white" stroke-width="1.5" d="M0,-3.0v7 M-2.5,-0.5L0,-3.0L2.5,-0.5"/>
                </g>
               <g id="resetDef">
                       <use xlink:href="#rim2" fill="#404040">
                               <set attributeName="fill" to="#808080" begin="reset.mouseover" end="reset.mouseout"/>
                       </use>
               </g>
        </defs>

<script type="text/javascript">
var viewWidth = 475;
var viewHeight = 1117;
var sectionId = 'dynsection-24';
</script>
<script xlink:href="svgpan.js"/>
<svg id="graph" class="graph">
<g id="viewport">
<title>m_initial_condition::s_generate_initial_condition</title>
<!-- Node1 -->
<g id="node1" class="node">
<title>Node1</title>
<g id="a_node1"><a xlink:title="This subroutine peruses the patches and depending on the type of geometry associated with a particula...">
<polygon fill="#999999" stroke="#666666" points="110,-563.5 0,-563.5 0,-522.5 110,-522.5 110,-563.5"/>
<text text-anchor="start" x="8" y="-551.5" font-family="Helvetica,sans-Serif" font-size="10.00">m_initial_condition</text>
<text text-anchor="start" x="8" y="-540.5" font-family="Helvetica,sans-Serif" font-size="10.00">::s_generate_initial</text>
<text text-anchor="middle" x="55" y="-529.5" font-family="Helvetica,sans-Serif" font-size="10.00">_condition</text>
</a>
</g>
</g>
<!-- Node2 -->
<g id="node2" class="node">
<title>Node2</title>
<g id="a_node2"><a xlink:href="namespacem__initial__condition.html#a3b4fe978231e74b699695a35fb544236" target="_top" xlink:title="This patch assigns the primitive variables as analytical functions such that the code can be verified...">
<polygon fill="white" stroke="#666666" points="279.5,-1109 169.5,-1109 169.5,-1079 279.5,-1079 279.5,-1109"/>
<text text-anchor="start" x="177.5" y="-1097" font-family="Helvetica,sans-Serif" font-size="10.00">m_initial_condition</text>
<text text-anchor="middle" x="224.5" y="-1086" font-family="Helvetica,sans-Serif" font-size="10.00">::s_1d_analytical</text>
</a>
</g>
</g>
<!-- Node1&#45;&gt;Node2 -->
<g id="edge1" class="edge">
<title>Node1&#45;&gt;Node2</title>
<path fill="none" stroke="#63b8ff" d="M56.72,-563.72C60.2,-651.58 77.93,-992.36 146,-1070 149.99,-1074.55 154.81,-1078.24 160.09,-1081.25"/>
<polygon fill="#63b8ff" stroke="#63b8ff" points="158.79,-1084.5 169.32,-1085.67 161.82,-1078.19 158.79,-1084.5"/>
</g>
<!-- Node3 -->
<g id="node3" class="node">
<title>Node3</title>
<g id="a_node3"><a xlink:href="namespacem__initial__condition.html#a7685befab45f10089fc46907fa4cc049" target="_top" xlink:title=" ">
<polygon fill="white" stroke="#666666" points="282,-1061 167,-1061 167,-1031 282,-1031 282,-1061"/>
<text text-anchor="start" x="175" y="-1049" font-family="Helvetica,sans-Serif" font-size="10.00">m_initial_condition</text>
<text text-anchor="middle" x="224.5" y="-1038" font-family="Helvetica,sans-Serif" font-size="10.00">::s_1d_bubble_pulse</text>
</a>
</g>
</g>
<!-- Node1&#45;&gt;Node3 -->
<g id="edge2" class="edge">
<title>Node1&#45;&gt;Node3</title>
<path fill="none" stroke="#63b8ff" d="M57.11,-563.78C61.96,-646.63 83.85,-952.29 146,-1022 149.34,-1025.75 153.25,-1028.91 157.51,-1031.59"/>
<polygon fill="#63b8ff" stroke="#63b8ff" points="156.19,-1034.85 166.67,-1036.43 159.46,-1028.66 156.19,-1034.85"/>
</g>
<!-- Node4 -->
<g id="node4" class="node">
<title>Node4</title>
<g id="a_node4"><a xlink:href="namespacem__initial__condition.html#a50f5727753c025d26925640a19259102" target="_top" xlink:title="This patch assigns the primitive variables as analytical functions such that the code can be verified...">
<polygon fill="white" stroke="#666666" points="279.5,-1013 169.5,-1013 169.5,-983 279.5,-983 279.5,-1013"/>
<text text-anchor="start" x="177.5" y="-1001" font-family="Helvetica,sans-Serif" font-size="10.00">m_initial_condition</text>
<text text-anchor="middle" x="224.5" y="-990" font-family="Helvetica,sans-Serif" font-size="10.00">::s_2d_analytical</text>
</a>
</g>
</g>
<!-- Node1&#45;&gt;Node4 -->
<g id="edge3" class="edge">
<title>Node1&#45;&gt;Node4</title>
<path fill="none" stroke="#63b8ff" d="M57.57,-563.53C63.85,-640.69 89.67,-912.09 146,-974 150.01,-978.41 154.81,-982.01 160.02,-984.96"/>
<polygon fill="#63b8ff" stroke="#63b8ff" points="158.61,-988.16 169.14,-989.33 161.63,-981.85 158.61,-988.16"/>
</g>
<!-- Node5 -->
<g id="node5" class="node">
<title>Node5</title>
<g id="a_node5"><a xlink:href="namespacem__initial__condition.html#abb87c531b4d42302dd22863b95a7cdb2" target="_top" xlink:title="This patch assigns the primitive variables as analytical functions such that the code can be verified...">
<polygon fill="white" stroke="#666666" points="279.5,-222 169.5,-222 169.5,-192 279.5,-192 279.5,-222"/>
<text text-anchor="start" x="177.5" y="-210" font-family="Helvetica,sans-Serif" font-size="10.00">m_initial_condition</text>
<text text-anchor="middle" x="224.5" y="-199" font-family="Helvetica,sans-Serif" font-size="10.00">::s_3d_analytical</text>
</a>
</g>
</g>
<!-- Node1&#45;&gt;Node5 -->
<g id="edge4" class="edge">
<title>Node1&#45;&gt;Node5</title>
<path fill="none" stroke="#63b8ff" d="M55.65,-522.24C55.88,-466.89 64.29,-314.32 146,-231 150.01,-226.91 154.69,-223.52 159.74,-220.7"/>
<polygon fill="#63b8ff" stroke="#63b8ff" points="161.63,-223.68 169.16,-216.23 158.62,-217.36 161.63,-223.68"/>
</g>
<!-- Node7 -->
<g id="node7" class="node">
<title>Node7</title>
<g id="a_node7"><a xlink:href="namespacem__initial__condition.html#aea2bf07e8890b1a108f2f891609174c9" target="_top" xlink:title=" ">
<polygon fill="white" stroke="#666666" points="279.5,-917 169.5,-917 169.5,-887 279.5,-887 279.5,-917"/>
<text text-anchor="start" x="177.5" y="-905" font-family="Helvetica,sans-Serif" font-size="10.00">m_initial_condition</text>
<text text-anchor="middle" x="224.5" y="-894" font-family="Helvetica,sans-Serif" font-size="10.00">::s_3dvarcircle</text>
</a>
</g>
</g>
<!-- Node1&#45;&gt;Node7 -->
<g id="edge6" class="edge">
<title>Node1&#45;&gt;Node7</title>
<path fill="none" stroke="#63b8ff" d="M55.16,-563.56C53.96,-621.42 58.7,-787.33 146,-878 150.13,-882.29 155.01,-885.82 160.28,-888.72"/>
<polygon fill="#63b8ff" stroke="#63b8ff" points="158.91,-891.94 169.45,-893.03 161.89,-885.61 158.91,-891.94"/>
</g>
<!-- Node8 -->
<g id="node8" class="node">
<title>Node8</title>
<g id="a_node8"><a xlink:href="namespacem__initial__condition.html#a75d13cb7c7c4f88e8b532cf7e7dda498" target="_top" xlink:title="The circular patch is a 2D geometry that may be used, for example, in creating a bubble or a droplet....">
<polygon fill="white" stroke="#666666" points="279.5,-869 169.5,-869 169.5,-839 279.5,-839 279.5,-869"/>
<text text-anchor="start" x="177.5" y="-857" font-family="Helvetica,sans-Serif" font-size="10.00">m_initial_condition</text>
<text text-anchor="middle" x="224.5" y="-846" font-family="Helvetica,sans-Serif" font-size="10.00">::s_circle</text>
</a>
</g>
</g>
<!-- Node1&#45;&gt;Node8 -->
<g id="edge7" class="edge">
<title>Node1&#45;&gt;Node8</title>
<path fill="none" stroke="#63b8ff" d="M56.26,-563.64C58.07,-615.86 70.17,-754.44 146,-830 150.15,-834.14 155.01,-837.57 160.22,-840.41"/>
<polygon fill="#63b8ff" stroke="#63b8ff" points="158.74,-843.58 169.28,-844.65 161.71,-837.24 158.74,-843.58"/>
</g>
<!-- Node9 -->
<g id="node9" class="node">
<title>Node9</title>
<g id="a_node9"><a xlink:href="namespacem__variables__conversion.html#a589fffc2fe084855ea9e86935f1916b1" target="_top" xlink:title="Converts the conservative variables to the primitive ones.">
<polygon fill="white" stroke="#666666" points="293.5,-820.5 155.5,-820.5 155.5,-779.5 293.5,-779.5 293.5,-820.5"/>
<text text-anchor="start" x="163.5" y="-808.5" font-family="Helvetica,sans-Serif" font-size="10.00">m_variables_conversion</text>
<text text-anchor="start" x="163.5" y="-797.5" font-family="Helvetica,sans-Serif" font-size="10.00">::s_convert_conservative</text>
<text text-anchor="middle" x="224.5" y="-786.5" font-family="Helvetica,sans-Serif" font-size="10.00">_to_primitive_variables</text>
</a>
</g>
</g>
<!-- Node1&#45;&gt;Node9 -->
<g id="edge8" class="edge">
<title>Node1&#45;&gt;Node9</title>
<path fill="none" stroke="#63b8ff" d="M58.51,-563.71C64.92,-607.85 85.89,-711.95 146,-771 146.79,-771.78 147.61,-772.54 148.45,-773.28"/>
<polygon fill="#63b8ff" stroke="#63b8ff" points="146.42,-776.13 156.5,-779.4 150.66,-770.56 146.42,-776.13"/>
</g>
<!-- Node10 -->
<g id="node10" class="node">
<title>Node10</title>
<g id="a_node10"><a xlink:href="namespacem__variables__conversion.html#a63d50d6771031b79117f2aba60e0cca3" target="_top" xlink:title="Converts the primitive variables to the conservative ones. Used when initializing patches.">
<polygon fill="white" stroke="#666666" points="299.5,-761.5 149.5,-761.5 149.5,-720.5 299.5,-720.5 299.5,-761.5"/>
<text text-anchor="start" x="157.5" y="-749.5" font-family="Helvetica,sans-Serif" font-size="10.00">m_variables_conversion</text>
<text text-anchor="start" x="157.5" y="-738.5" font-family="Helvetica,sans-Serif" font-size="10.00">::s_convert_primitive</text>
<text text-anchor="middle" x="224.5" y="-727.5" font-family="Helvetica,sans-Serif" font-size="10.00">_to_conservative_variables</text>
</a>
</g>
</g>
<!-- Node1&#45;&gt;Node10 -->
<g id="edge9" class="edge">
<title>Node1&#45;&gt;Node10</title>
<path fill="none" stroke="#63b8ff" d="M61.81,-563.54C72.71,-598.5 99.4,-669.79 146,-711 147.5,-712.33 149.06,-713.6 150.68,-714.81"/>
<polygon fill="#63b8ff" stroke="#63b8ff" points="148.9,-717.83 159.17,-720.46 152.78,-712.01 148.9,-717.83"/>
</g>
<!-- Node11 -->
<g id="node11" class="node">
<title>Node11</title>
<g id="a_node11"><a xlink:href="namespacem__initial__condition.html#a2297a9b98d2478b3594083197bd9b8b5" target="_top" xlink:title="The cuboidal patch is a 3D geometry that may be used, for example, in creating a solid boundary,...">
<polygon fill="white" stroke="#666666" points="279.5,-965 169.5,-965 169.5,-935 279.5,-935 279.5,-965"/>
<text text-anchor="start" x="177.5" y="-953" font-family="Helvetica,sans-Serif" font-size="10.00">m_initial_condition</text>
<text text-anchor="middle" x="224.5" y="-942" font-family="Helvetica,sans-Serif" font-size="10.00">::s_cuboid</text>
</a>
</g>
</g>
<!-- Node1&#45;&gt;Node11 -->
<g id="edge10" class="edge">
<title>Node1&#45;&gt;Node11</title>
<path fill="none" stroke="#63b8ff" d="M58.16,-563.68C66.07,-635.39 95.57,-871.93 146,-926 150.06,-930.35 154.9,-933.93 160.14,-936.85"/>
<polygon fill="#63b8ff" stroke="#63b8ff" points="158.74,-940.07 169.28,-941.2 161.75,-933.74 158.74,-940.07"/>
</g>
<!-- Node12 -->
<g id="node12" class="node">
<title>Node12</title>
<g id="a_node12"><a xlink:href="namespacem__initial__condition.html#af834c631376de6906fb6b002df70ce49" target="_top" xlink:title="The cylindrical patch is a 3D geometry that may be used, for example, in setting up a cylindrical sol...">
<polygon fill="white" stroke="#666666" points="279.5,-702 169.5,-702 169.5,-672 279.5,-672 279.5,-702"/>
<text text-anchor="start" x="177.5" y="-690" font-family="Helvetica,sans-Serif" font-size="10.00">m_initial_condition</text>
<text text-anchor="middle" x="224.5" y="-679" font-family="Helvetica,sans-Serif" font-size="10.00">::s_cylinder</text>
</a>
</g>
</g>
<!-- Node1&#45;&gt;Node12 -->
<g id="edge12" class="edge">
<title>Node1&#45;&gt;Node12</title>
<path fill="none" stroke="#63b8ff" d="M66.14,-563.55C80.37,-590.31 108.75,-636.75 146,-663 150.28,-666.02 154.95,-668.66 159.81,-670.98"/>
<polygon fill="#63b8ff" stroke="#63b8ff" points="158.76,-674.34 169.33,-675.05 161.51,-667.9 158.76,-674.34"/>
</g>
<!-- Node13 -->
<g id="node13" class="node">
<title>Node13</title>
<g id="a_node13"><a xlink:href="namespacem__initial__condition.html#a5e999ad19f23f5f2b059b80e49c0a086" target="_top" xlink:title="The elliptical patch is a 2D geometry. The geometry of the patch is well&#45;defined when its centroid an...">
<polygon fill="white" stroke="#666666" points="279.5,-606 169.5,-606 169.5,-576 279.5,-576 279.5,-606"/>
<text text-anchor="start" x="177.5" y="-594" font-family="Helvetica,sans-Serif" font-size="10.00">m_initial_condition</text>
<text text-anchor="middle" x="224.5" y="-583" font-family="Helvetica,sans-Serif" font-size="10.00">::s_ellipse</text>
</a>
</g>
</g>
<!-- Node1&#45;&gt;Node13 -->
<g id="edge14" class="edge">
<title>Node1&#45;&gt;Node13</title>
<path fill="none" stroke="#63b8ff" d="M110.38,-558.58C126.67,-563.25 144.66,-568.41 161.41,-573.21"/>
<polygon fill="#63b8ff" stroke="#63b8ff" points="160.52,-576.59 171.1,-575.98 162.45,-569.86 160.52,-576.59"/>
</g>
<!-- Node14 -->
<g id="node14" class="node">
<title>Node14</title>
<g id="a_node14"><a xlink:href="namespacem__initial__condition.html#a524f37de8423b7943c22c5d105eda922" target="_top" xlink:title="The ellipsoidal patch is a 3D geometry. The geometry of the patch is well&#45;defined when its centroid a...">
<polygon fill="white" stroke="#666666" points="279.5,-654 169.5,-654 169.5,-624 279.5,-624 279.5,-654"/>
<text text-anchor="start" x="177.5" y="-642" font-family="Helvetica,sans-Serif" font-size="10.00">m_initial_condition</text>
<text text-anchor="middle" x="224.5" y="-631" font-family="Helvetica,sans-Serif" font-size="10.00">::s_ellipsoid</text>
</a>
</g>
</g>
<!-- Node1&#45;&gt;Node14 -->
<g id="edge15" class="edge">
<title>Node1&#45;&gt;Node14</title>
<path fill="none" stroke="#63b8ff" d="M76.92,-563.55C94.19,-579.53 120.01,-601.22 146,-615 150.47,-617.37 155.22,-619.55 160.07,-621.55"/>
<polygon fill="#63b8ff" stroke="#63b8ff" points="158.91,-624.85 169.5,-625.15 161.41,-618.31 158.91,-624.85"/>
</g>
<!-- Node15 -->
<g id="node15" class="node">
<title>Node15</title>
<g id="a_node15"><a xlink:href="namespacem__initial__condition.html#ab329077796ad7579df0a96543263150d" target="_top" xlink:title="The isentropic vortex is a 2D geometry that may be used, for example, to generate an isentropic flow ...">
<polygon fill="white" stroke="#666666" points="283.5,-510 165.5,-510 165.5,-480 283.5,-480 283.5,-510"/>
<text text-anchor="start" x="173.5" y="-498" font-family="Helvetica,sans-Serif" font-size="10.00">m_initial_condition</text>
<text text-anchor="middle" x="224.5" y="-487" font-family="Helvetica,sans-Serif" font-size="10.00">::s_isentropic_vortex</text>
</a>
</g>
</g>
<!-- Node1&#45;&gt;Node15 -->
<g id="edge17" class="edge">
<title>Node1&#45;&gt;Node15</title>
<path fill="none" stroke="#63b8ff" d="M110.38,-527.42C126.67,-522.75 144.66,-517.59 161.41,-512.79"/>
<polygon fill="#63b8ff" stroke="#63b8ff" points="162.45,-516.14 171.1,-510.02 160.52,-509.41 162.45,-516.14"/>
</g>
<!-- Node16 -->
<g id="node16" class="node">
<title>Node16</title>
<g id="a_node16"><a xlink:href="namespacem__initial__condition.html#a3be32c8ee8a7dffae734d063200471e8" target="_top" xlink:title="The line segment patch is a 1D geometry that may be used, for example, in creating a Riemann problem....">
<polygon fill="white" stroke="#666666" points="279.5,-462 169.5,-462 169.5,-432 279.5,-432 279.5,-462"/>
<text text-anchor="start" x="177.5" y="-450" font-family="Helvetica,sans-Serif" font-size="10.00">m_initial_condition</text>
<text text-anchor="middle" x="224.5" y="-439" font-family="Helvetica,sans-Serif" font-size="10.00">::s_line_segment</text>
</a>
</g>
</g>
<!-- Node1&#45;&gt;Node16 -->
<g id="edge18" class="edge">
<title>Node1&#45;&gt;Node16</title>
<path fill="none" stroke="#63b8ff" d="M76.92,-522.45C94.19,-506.47 120.01,-484.78 146,-471 150.47,-468.63 155.22,-466.45 160.07,-464.45"/>
<polygon fill="#63b8ff" stroke="#63b8ff" points="161.41,-467.69 169.5,-460.85 158.91,-461.15 161.41,-467.69"/>
</g>
<!-- Node17 -->
<g id="node17" class="node">
<title>Node17</title>
<g id="a_node17"><a xlink:href="namespacem__initial__condition.html#afef3f507e182798fcfd7aecc52878fc9" target="_top" xlink:title=" ">
<polygon fill="white" stroke="#666666" points="279.5,-414 169.5,-414 169.5,-384 279.5,-384 279.5,-414"/>
<text text-anchor="start" x="177.5" y="-402" font-family="Helvetica,sans-Serif" font-size="10.00">m_initial_condition</text>
<text text-anchor="middle" x="224.5" y="-391" font-family="Helvetica,sans-Serif" font-size="10.00">::s_perturb_sphere</text>
</a>
</g>
</g>
<!-- Node1&#45;&gt;Node17 -->
<g id="edge19" class="edge">
<title>Node1&#45;&gt;Node17</title>
<path fill="none" stroke="#63b8ff" d="M66.14,-522.45C80.37,-495.69 108.75,-449.25 146,-423 150.28,-419.98 154.95,-417.34 159.81,-415.02"/>
<polygon fill="#63b8ff" stroke="#63b8ff" points="161.51,-418.1 169.33,-410.95 158.76,-411.66 161.51,-418.1"/>
</g>
<!-- Node18 -->
<g id="node18" class="node">
<title>Node18</title>
<g id="a_node18"><a xlink:href="namespacem__initial__condition.html#ab66e3b04024a8ae7327857b1b265bc27" target="_top" xlink:title=" ">
<polygon fill="white" stroke="#666666" points="303,-366 146,-366 146,-336 303,-336 303,-366"/>
<text text-anchor="start" x="154" y="-354" font-family="Helvetica,sans-Serif" font-size="10.00">m_initial_condition</text>
<text text-anchor="middle" x="224.5" y="-343" font-family="Helvetica,sans-Serif" font-size="10.00">::s_perturb_surrounding_flow</text>
</a>
</g>
</g>
<!-- Node1&#45;&gt;Node18 -->
<g id="edge20" class="edge">
<title>Node1&#45;&gt;Node18</title>
<path fill="none" stroke="#63b8ff" d="M61.44,-522.4C71.83,-487.01 97.88,-414.68 146,-375 147.55,-373.72 149.16,-372.51 150.84,-371.37"/>
<polygon fill="#63b8ff" stroke="#63b8ff" points="152.79,-374.28 159.6,-366.16 149.21,-368.26 152.79,-374.28"/>
</g>
<!-- Node19 -->
<g id="node19" class="node">
<title>Node19</title>
<g id="a_node19"><a xlink:href="namespacem__initial__condition.html#a9c54a1e384e94493914688f9a2a2cf14" target="_top" xlink:title="The rectangular patch is a 2D geometry that may be used, for example, in creating a solid boundary,...">
<polygon fill="white" stroke="#666666" points="279.5,-318 169.5,-318 169.5,-288 279.5,-288 279.5,-318"/>
<text text-anchor="start" x="177.5" y="-306" font-family="Helvetica,sans-Serif" font-size="10.00">m_initial_condition</text>
<text text-anchor="middle" x="224.5" y="-295" font-family="Helvetica,sans-Serif" font-size="10.00">::s_rectangle</text>
</a>
</g>
</g>
<!-- Node1&#45;&gt;Node19 -->
<g id="edge21" class="edge">
<title>Node1&#45;&gt;Node19</title>
<path fill="none" stroke="#63b8ff" d="M58.7,-522.45C65.42,-479.73 86.8,-380.86 146,-327 150.17,-323.21 154.92,-320.02 159.99,-317.33"/>
<polygon fill="#63b8ff" stroke="#63b8ff" points="161.74,-320.37 169.36,-313.01 158.81,-314.01 161.74,-320.37"/>
</g>
<!-- Node20 -->
<g id="node20" class="node">
<title>Node20</title>
<g id="a_node20"><a xlink:href="namespacem__initial__condition.html#a9037159f591341d05fa5fb23fe82bc2c" target="_top" xlink:title="The spherical patch is a 3D geometry that may be used, for example, in creating a bubble or a droplet...">
<polygon fill="white" stroke="#666666" points="279.5,-558 169.5,-558 169.5,-528 279.5,-528 279.5,-558"/>
<text text-anchor="start" x="177.5" y="-546" font-family="Helvetica,sans-Serif" font-size="10.00">m_initial_condition</text>
<text text-anchor="middle" x="224.5" y="-535" font-family="Helvetica,sans-Serif" font-size="10.00">::s_sphere</text>
</a>
</g>
</g>
<!-- Node1&#45;&gt;Node20 -->
<g id="edge22" class="edge">
<title>Node1&#45;&gt;Node20</title>
<path fill="none" stroke="#63b8ff" d="M110.38,-543C125.9,-543 142.95,-543 159.01,-543"/>
<polygon fill="#63b8ff" stroke="#63b8ff" points="159.39,-546.5 169.39,-543 159.39,-539.5 159.39,-546.5"/>
</g>
<!-- Node21 -->
<g id="node21" class="node">
<title>Node21</title>
<g id="a_node21"><a xlink:href="namespacem__initial__condition.html#af17f90ba4a3878feb6e38bc8d66cb950" target="_top" xlink:title="This patch generates the shape of the spherical harmonics as a perturbation to a perfect sphere.">
<polygon fill="white" stroke="#666666" points="288.5,-174 160.5,-174 160.5,-144 288.5,-144 288.5,-174"/>
<text text-anchor="start" x="168.5" y="-162" font-family="Helvetica,sans-Serif" font-size="10.00">m_initial_condition</text>
<text text-anchor="middle" x="224.5" y="-151" font-family="Helvetica,sans-Serif" font-size="10.00">::s_spherical_harmonic</text>
</a>
</g>
</g>
<!-- Node1&#45;&gt;Node21 -->
<g id="edge24" class="edge">
<title>Node1&#45;&gt;Node21</title>
<path fill="none" stroke="#63b8ff" d="M58.52,-522.13C67.27,-453.04 98.4,-233.31 146,-183 147.82,-181.08 149.79,-179.3 151.88,-177.67"/>
<polygon fill="#63b8ff" stroke="#63b8ff" points="154.02,-180.46 160.47,-172.06 150.19,-174.6 154.02,-180.46"/>
</g>
<!-- Node23 -->
<g id="node23" class="node">
<title>Node23</title>
<g id="a_node23"><a xlink:href="namespacem__initial__condition.html#ac4540baa01372eb3df51b268769fa6fc" target="_top" xlink:title="The spiral patch is a 2D geometry that may be used, The geometry of the patch is well&#45;defined when it...">
<polygon fill="white" stroke="#666666" points="279.5,-78 169.5,-78 169.5,-48 279.5,-48 279.5,-78"/>
<text text-anchor="start" x="177.5" y="-66" font-family="Helvetica,sans-Serif" font-size="10.00">m_initial_condition</text>
<text text-anchor="middle" x="224.5" y="-55" font-family="Helvetica,sans-Serif" font-size="10.00">::s_spiral</text>
</a>
</g>
</g>
<!-- Node1&#45;&gt;Node23 -->
<g id="edge27" class="edge">
<title>Node1&#45;&gt;Node23</title>
<path fill="none" stroke="#63b8ff" d="M57.32,-522.4C62.83,-442.33 86.63,-152.99 146,-87 150.04,-82.51 154.91,-78.84 160.21,-75.86"/>
<polygon fill="#63b8ff" stroke="#63b8ff" points="161.94,-78.91 169.47,-71.46 158.93,-72.59 161.94,-78.91"/>
</g>
<!-- Node25 -->
<g id="node25" class="node">
<title>Node25</title>
<g id="a_node25"><a xlink:href="namespacem__initial__condition.html#ab056c04c30f55423904517abe61ebd99" target="_top" xlink:title="The swept line patch is a 2D geometry that may be used, for example, in creating a solid boundary,...">
<polygon fill="white" stroke="#666666" points="279.5,-126 169.5,-126 169.5,-96 279.5,-96 279.5,-126"/>
<text text-anchor="start" x="177.5" y="-114" font-family="Helvetica,sans-Serif" font-size="10.00">m_initial_condition</text>
<text text-anchor="middle" x="224.5" y="-103" font-family="Helvetica,sans-Serif" font-size="10.00">::s_sweep_line</text>
</a>
</g>
</g>
<!-- Node1&#45;&gt;Node25 -->
<g id="edge30" class="edge">
<title>Node1&#45;&gt;Node25</title>
<path fill="none" stroke="#63b8ff" d="M57.85,-522.29C64.91,-447.55 92.53,-193.12 146,-135 150.03,-130.62 154.85,-127.03 160.07,-124.09"/>
<polygon fill="#63b8ff" stroke="#63b8ff" points="161.68,-127.2 169.2,-119.73 158.67,-120.88 161.68,-127.2"/>
</g>
<!-- Node26 -->
<g id="node26" class="node">
<title>Node26</title>
<g id="a_node26"><a xlink:href="namespacem__initial__condition.html#a51f30d0a86584bdc757c22ebf7993e88" target="_top" xlink:title="The swept plane patch is a 3D geometry that may be used, for example, in creating a solid boundary,...">
<polygon fill="white" stroke="#666666" points="279.5,-270 169.5,-270 169.5,-240 279.5,-240 279.5,-270"/>
<text text-anchor="start" x="177.5" y="-258" font-family="Helvetica,sans-Serif" font-size="10.00">m_initial_condition</text>
<text text-anchor="middle" x="224.5" y="-247" font-family="Helvetica,sans-Serif" font-size="10.00">::s_sweep_plane</text>
</a>
</g>
</g>
<!-- Node1&#45;&gt;Node26 -->
<g id="edge31" class="edge">
<title>Node1&#45;&gt;Node26</title>
<path fill="none" stroke="#63b8ff" d="M56.94,-522.18C60.3,-472.75 75.69,-347.35 146,-279 150.21,-274.91 155.09,-271.52 160.33,-268.7"/>
<polygon fill="#63b8ff" stroke="#63b8ff" points="161.82,-271.87 169.41,-264.49 158.87,-265.52 161.82,-271.87"/>
</g>
<!-- Node27 -->
<g id="node27" class="node">
<title>Node27</title>
<g id="a_node27"><a xlink:href="namespacem__initial__condition.html#a3e1c1480513e75b444ce7a77ed0fe598" target="_top" xlink:title="The varcircle patch is a 2D geometry that may be used . It generatres an annulus.">
<polygon fill="white" stroke="#666666" points="279.5,-30 169.5,-30 169.5,0 279.5,0 279.5,-30"/>
<text text-anchor="start" x="177.5" y="-18" font-family="Helvetica,sans-Serif" font-size="10.00">m_initial_condition</text>
<text text-anchor="middle" x="224.5" y="-7" font-family="Helvetica,sans-Serif" font-size="10.00">::s_varcircle</text>
</a>
</g>
</g>
<!-- Node1&#45;&gt;Node27 -->
<g id="edge33" class="edge">
<title>Node1&#45;&gt;Node27</title>
<path fill="none" stroke="#63b8ff" d="M56.9,-522.32C61.01,-436.92 80.75,-112.86 146,-39 150,-34.47 154.84,-30.78 160.12,-27.79"/>
<polygon fill="#63b8ff" stroke="#63b8ff" points="161.85,-30.84 169.36,-23.36 158.83,-24.52 161.85,-30.84"/>
</g>
<!-- Node6 -->
<g id="node6" class="node">
<title>Node6</title>
<g id="a_node6"><a xlink:href="namespacem__initial__condition.html#a791e5fa466dd15343882711c91bae63d" target="_top" xlink:title=" ">
<polygon fill="white" stroke="#666666" points="465.5,-563.5 340.5,-563.5 340.5,-522.5 465.5,-522.5 465.5,-563.5"/>
<text text-anchor="start" x="348.5" y="-551.5" font-family="Helvetica,sans-Serif" font-size="10.00">m_initial_condition</text>
<text text-anchor="start" x="348.5" y="-540.5" font-family="Helvetica,sans-Serif" font-size="10.00">::s_convert_cylindrical</text>
<text text-anchor="middle" x="403" y="-529.5" font-family="Helvetica,sans-Serif" font-size="10.00">_to_cartesian_coord</text>
</a>
</g>
</g>
<!-- Node5&#45;&gt;Node6 -->
<g id="edge5" class="edge">
<title>Node5&#45;&gt;Node6</title>
<path fill="none" stroke="#63b8ff" d="M279.7,-216.37C288.31,-219.83 296.5,-224.55 303,-231 381.74,-309.2 397.96,-449.64 401.22,-511.86"/>
<polygon fill="#63b8ff" stroke="#63b8ff" points="397.74,-512.36 401.68,-522.19 404.73,-512.05 397.74,-512.36"/>
</g>
<!-- Node11&#45;&gt;Node6 -->
<g id="edge11" class="edge">
<title>Node11&#45;&gt;Node6</title>
<path fill="none" stroke="#63b8ff" d="M279.6,-941.08C288.33,-937.58 296.58,-932.73 303,-926 352.11,-874.51 386.57,-655.48 397.93,-573.84"/>
<polygon fill="#63b8ff" stroke="#63b8ff" points="401.43,-574.08 399.32,-563.7 394.5,-573.13 401.43,-574.08"/>
</g>
<!-- Node12&#45;&gt;Node6 -->
<g id="edge13" class="edge">
<title>Node12&#45;&gt;Node6</title>
<path fill="none" stroke="#63b8ff" d="M279.88,-674.61C287.99,-671.53 295.98,-667.71 303,-663 338.27,-639.35 367.56,-599.49 384.91,-572.25"/>
<polygon fill="#63b8ff" stroke="#63b8ff" points="388.02,-573.87 390.33,-563.53 382.08,-570.18 388.02,-573.87"/>
</g>
<!-- Node14&#45;&gt;Node6 -->
<g id="edge16" class="edge">
<title>Node14&#45;&gt;Node6</title>
<path fill="none" stroke="#63b8ff" d="M279.76,-624.71C287.72,-621.89 295.7,-618.66 303,-615 327.16,-602.89 351.75,-585.04 370.38,-570.15"/>
<polygon fill="#63b8ff" stroke="#63b8ff" points="372.69,-572.78 378.24,-563.76 368.27,-567.35 372.69,-572.78"/>
</g>
<!-- Node20&#45;&gt;Node6 -->
<g id="edge23" class="edge">
<title>Node20&#45;&gt;Node6</title>
<path fill="none" stroke="#63b8ff" d="M279.9,-543C295.75,-543 313.32,-543 330.08,-543"/>
<polygon fill="#63b8ff" stroke="#63b8ff" points="330.38,-546.5 340.38,-543 330.38,-539.5 330.38,-546.5"/>
</g>
<!-- Node21&#45;&gt;Node6 -->
<g id="edge25" class="edge">
<title>Node21&#45;&gt;Node6</title>
<path fill="none" stroke="#63b8ff" d="M288.8,-172.37C294.03,-175.25 298.88,-178.75 303,-183 393.11,-276.03 402.87,-443.15 402.81,-512.03"/>
<polygon fill="#63b8ff" stroke="#63b8ff" points="399.31,-512.19 402.73,-522.21 406.31,-512.24 399.31,-512.19"/>
</g>
<!-- Node22 -->
<g id="node22" class="node">
<title>Node22</title>
<g id="a_node22"><a xlink:href="namespacem__initial__condition.html#a88d2e8debdc097d4d811fb67d6fbc880" target="_top" xlink:title=" ">
<polygon fill="white" stroke="#666666" points="465.5,-179.5 340.5,-179.5 340.5,-138.5 465.5,-138.5 465.5,-179.5"/>
<text text-anchor="start" x="348.5" y="-167.5" font-family="Helvetica,sans-Serif" font-size="10.00">m_initial_condition</text>
<text text-anchor="start" x="348.5" y="-156.5" font-family="Helvetica,sans-Serif" font-size="10.00">::s_convert_cylindrical</text>
<text text-anchor="middle" x="403" y="-145.5" font-family="Helvetica,sans-Serif" font-size="10.00">_to_spherical_coord</text>
</a>
</g>
</g>
<!-- Node21&#45;&gt;Node22 -->
<g id="edge26" class="edge">
<title>Node21&#45;&gt;Node22</title>
<path fill="none" stroke="#63b8ff" d="M288.72,-159C302.12,-159 316.36,-159 330.06,-159"/>
<polygon fill="#63b8ff" stroke="#63b8ff" points="330.4,-162.5 340.4,-159 330.4,-155.5 330.4,-162.5"/>
</g>
<!-- Node24 -->
<g id="node24" class="node">
<title>Node24</title>
<g id="a_node24"><a xlink:href="namespacem__initial__condition.html#a6bd15d72ae72d7c598bbc3b57cf0b90e" target="_top" xlink:title="Archimedes spiral function.">
<polygon fill="white" stroke="#666666" points="467,-72.5 339,-72.5 339,-53.5 467,-53.5 467,-72.5"/>
<text text-anchor="middle" x="403" y="-60.5" font-family="Helvetica,sans-Serif" font-size="10.00">m_initial_condition::f_r</text>
</a>
</g>
</g>
<!-- Node23&#45;&gt;Node24 -->
<g id="edge28" class="edge">
<title>Node23&#45;&gt;Node24</title>
<path fill="none" stroke="#63b8ff" d="M279.9,-63C295.33,-63 312.39,-63 328.75,-63"/>
<polygon fill="#63b8ff" stroke="#63b8ff" points="328.82,-66.5 338.82,-63 328.82,-59.5 328.82,-66.5"/>
</g>
<!-- Node24&#45;&gt;Node24 -->
<g id="edge29" class="edge">
<title>Node24&#45;&gt;Node24</title>
<path fill="none" stroke="#63b8ff" d="M375.57,-72.58C362.22,-81.23 371.36,-90.5 403,-90.5 424.26,-90.5 435.36,-86.32 436.31,-80.95"/>
<polygon fill="#63b8ff" stroke="#63b8ff" points="439.05,-78.76 430.43,-72.58 433.32,-82.78 439.05,-78.76"/>
</g>
<!-- Node26&#45;&gt;Node6 -->
<g id="edge32" class="edge">
<title>Node26&#45;&gt;Node6</title>
<path fill="none" stroke="#63b8ff" d="M279.82,-264.81C288.32,-268.22 296.44,-272.81 303,-279 370.6,-342.76 392.38,-457.14 399.13,-512"/>
<polygon fill="#63b8ff" stroke="#63b8ff" points="395.67,-512.6 400.28,-522.14 402.63,-511.81 395.67,-512.6"/>
</g>
</g>
</svg>
        <g id="navigator" transform="translate(0 0)" fill="#404254">
                <rect fill="#f2f5e9" fill-opacity="0.5" stroke="#606060" stroke-width=".5" x="0" y="0" width="60" height="60"/>
                <use id="zoomplus" xlink:href="#zoomPlus" x="17" y="9" onmousedown="handleZoom(evt,'in')"/>
                <use id="zoomminus" xlink:href="#zoomMin" x="42" y="9" onmousedown="handleZoom(evt,'out')"/>
                <use id="reset" xlink:href="#resetDef" x="30" y="36" onmousedown="handleReset()"/>
                <g id="arrowUp" xlink:href="#dirArrow" transform="translate(30 24)" onmousedown="handlePan(0,-1)">
                  <use xlink:href="#rim" fill="#404040">
                        <set attributeName="fill" to="#808080" begin="arrowUp.mouseover" end="arrowUp.mouseout"/>
                  </use>
                  <path fill="none" stroke="white" stroke-width="1.5" d="M0,-3.0v7 M-2.5,-0.5L0,-3.0L2.5,-0.5"/>
                </g>
                <g id="arrowRight" xlink:href="#dirArrow" transform="rotate(90) translate(36 -43)" onmousedown="handlePan(1,0)">
                  <use xlink:href="#rim" fill="#404040">
                        <set attributeName="fill" to="#808080" begin="arrowRight.mouseover" end="arrowRight.mouseout"/>
                  </use>
                  <path fill="none" stroke="white" stroke-width="1.5" d="M0,-3.0v7 M-2.5,-0.5L0,-3.0L2.5,-0.5"/>
                </g>
                <g id="arrowDown" xlink:href="#dirArrow" transform="rotate(180) translate(-30 -48)" onmousedown="handlePan(0,1)">
                  <use xlink:href="#rim" fill="#404040">
                        <set attributeName="fill" to="#808080" begin="arrowDown.mouseover" end="arrowDown.mouseout"/>
                  </use>
                  <path fill="none" stroke="white" stroke-width="1.5" d="M0,-3.0v7 M-2.5,-0.5L0,-3.0L2.5,-0.5"/>
                </g>
                <g id="arrowLeft" xlink:href="#dirArrow" transform="rotate(270) translate(-36 17)" onmousedown="handlePan(-1,0)">
                  <use xlink:href="#rim" fill="#404040">
                        <set attributeName="fill" to="#808080" begin="arrowLeft.mouseover" end="arrowLeft.mouseout"/>
                  </use>
                  <path fill="none" stroke="white" stroke-width="1.5" d="M0,-3.0v7 M-2.5,-0.5L0,-3.0L2.5,-0.5"/>
                </g>
        </g>
        <svg viewBox="0 0 15 15" width="100%" height="30px" preserveAspectRatio="xMaxYMin meet">
         <g id="arrow_out" transform="scale(0.3 0.3)">
          <a xlink:href="namespacem__initial__condition_aa74a70029e3ec0fd3225b369e7c5443e_cgraph_org.svg" target="_base">
           <rect id="button" ry="5" rx="5" y="6" x="6" height="38" width="38"
                fill="#f2f5e9" fill-opacity="0.5" stroke="#606060" stroke-width="1.0"/>
           <path id="arrow"
             d="M 11.500037,31.436501 C 11.940474,20.09759 22.043105,11.32322 32.158766,21.979434 L 37.068811,17.246167 C 37.068811,17.246167 37.088388,32 37.088388,32 L 22.160133,31.978069 C 22.160133,31.978069 26.997745,27.140456 26.997745,27.140456 C 18.528582,18.264221 13.291696,25.230495 11.500037,31.436501 z"
             style="fill:#404040;"/>
          </a>
         </g>
        </svg>
</svg>
