<?xml version="1.0" encoding="UTF-8" standalone="no"?>
<!DOCTYPE svg PUBLIC "-//W3C//DTD SVG 1.1//EN"
 "http://www.w3.org/Graphics/SVG/1.1/DTD/svg11.dtd">
<!-- Generated by graphviz version 2.43.0 (0)
 -->
<!-- Title: m_create_patches::s_convert_cylindrical_to_cartesian_coord Pages: 1 -->
<svg width="513pt" height="326pt"
 viewBox="0.00 0.00 513.00 326.00" xmlns="http://www.w3.org/2000/svg" xmlns:xlink="http://www.w3.org/1999/xlink">
<g id="graph0" class="graph" transform="scale(1 1) rotate(0) translate(4 322)">
<title>m_create_patches::s_convert_cylindrical_to_cartesian_coord</title>
<!-- Node1 -->
<g id="node1" class="node">
<title>Node1</title>
<g id="a_node1"><a xlink:title=" ">
<polygon fill="#999999" stroke="#666666" points="505,-179.5 388,-179.5 388,-138.5 505,-138.5 505,-179.5"/>
<text text-anchor="start" x="396" y="-167.5" font-family="Helvetica,sans-Serif" font-size="10.00">m_create_patches::s</text>
<text text-anchor="start" x="396" y="-156.5" font-family="Helvetica,sans-Serif" font-size="10.00">_convert_cylindrical</text>
<text text-anchor="middle" x="446.5" y="-145.5" font-family="Helvetica,sans-Serif" font-size="10.00">_to_cartesian_coord</text>
</a>
</g>
</g>
<!-- Node2 -->
<g id="node2" class="node">
<title>Node2</title>
<g id="a_node2"><a xlink:href="namespacem__create__patches.html#a4eceb9a29fa2091ec1dc166d2c628288" target="_top" xlink:title="This patch assigns the primitive variables as analytical functions such that the code can be verified...">
<polygon fill="white" stroke="#666666" points="352,-318 235,-318 235,-288 352,-288 352,-318"/>
<text text-anchor="start" x="243" y="-306" font-family="Helvetica,sans-Serif" font-size="10.00">m_create_patches::s</text>
<text text-anchor="middle" x="293.5" y="-295" font-family="Helvetica,sans-Serif" font-size="10.00">_3d_analytical</text>
</a>
</g>
</g>
<!-- Node1&#45;&gt;Node2 -->
<g id="edge1" class="edge">
<title>Node1&#45;&gt;Node2</title>
<path fill="none" stroke="#63b8ff" d="M428.65,-188.47C412.1,-215.19 384.63,-254.09 352,-279 347.62,-282.35 342.7,-285.31 337.63,-287.92"/>
<polygon fill="#63b8ff" stroke="#63b8ff" points="431.65,-190.28 433.84,-179.92 425.66,-186.66 431.65,-190.28"/>
</g>
<!-- Node5 -->
<g id="node5" class="node">
<title>Node5</title>
<g id="a_node5"><a xlink:href="namespacem__create__patches.html#a0cf8fa5e98458c926835aab5d823ed50" target="_top" xlink:title="The cuboidal patch is a 3D geometry that may be used, for example, in creating a solid boundary,...">
<polygon fill="white" stroke="#666666" points="352,-270 235,-270 235,-240 352,-240 352,-270"/>
<text text-anchor="start" x="243" y="-258" font-family="Helvetica,sans-Serif" font-size="10.00">m_create_patches::s</text>
<text text-anchor="middle" x="293.5" y="-247" font-family="Helvetica,sans-Serif" font-size="10.00">_cuboid</text>
</a>
</g>
</g>
<!-- Node1&#45;&gt;Node5 -->
<g id="edge4" class="edge">
<title>Node1&#45;&gt;Node5</title>
<path fill="none" stroke="#63b8ff" d="M414.45,-186.21C396.92,-200.71 374.13,-218.16 352,-231 346.48,-234.2 340.45,-237.2 334.44,-239.93"/>
<polygon fill="#63b8ff" stroke="#63b8ff" points="416.71,-188.89 422.12,-179.78 412.21,-183.53 416.71,-188.89"/>
</g>
<!-- Node6 -->
<g id="node6" class="node">
<title>Node6</title>
<g id="a_node6"><a xlink:href="namespacem__create__patches.html#ad66cf9dde61447d211ef2ee50c63a094" target="_top" xlink:title="The cylindrical patch is a 3D geometry that may be used, for example, in setting up a cylindrical sol...">
<polygon fill="white" stroke="#666666" points="352,-222 235,-222 235,-192 352,-192 352,-222"/>
<text text-anchor="start" x="243" y="-210" font-family="Helvetica,sans-Serif" font-size="10.00">m_create_patches::s</text>
<text text-anchor="middle" x="293.5" y="-199" font-family="Helvetica,sans-Serif" font-size="10.00">_cylinder</text>
</a>
</g>
</g>
<!-- Node1&#45;&gt;Node6 -->
<g id="edge6" class="edge">
<title>Node1&#45;&gt;Node6</title>
<path fill="none" stroke="#63b8ff" d="M378.27,-180.37C366.05,-184.25 353.54,-188.23 342.04,-191.89"/>
<polygon fill="#63b8ff" stroke="#63b8ff" points="379.51,-183.65 387.98,-177.28 377.39,-176.98 379.51,-183.65"/>
</g>
<!-- Node7 -->
<g id="node7" class="node">
<title>Node7</title>
<g id="a_node7"><a xlink:href="namespacem__create__patches.html#a0597653c3e8bde0e484f99412c5f2a57" target="_top" xlink:title="The ellipsoidal patch is a 3D geometry. The geometry of the patch is well&#45;defined when its centroid a...">
<polygon fill="white" stroke="#666666" points="352,-174 235,-174 235,-144 352,-144 352,-174"/>
<text text-anchor="start" x="243" y="-162" font-family="Helvetica,sans-Serif" font-size="10.00">m_create_patches::s</text>
<text text-anchor="middle" x="293.5" y="-151" font-family="Helvetica,sans-Serif" font-size="10.00">_ellipsoid</text>
</a>
</g>
</g>
<!-- Node1&#45;&gt;Node7 -->
<g id="edge8" class="edge">
<title>Node1&#45;&gt;Node7</title>
<path fill="none" stroke="#63b8ff" d="M377.95,-159C369.32,-159 360.56,-159 352.11,-159"/>
<polygon fill="#63b8ff" stroke="#63b8ff" points="377.98,-162.5 387.98,-159 377.98,-155.5 377.98,-162.5"/>
</g>
<!-- Node8 -->
<g id="node8" class="node">
<title>Node8</title>
<g id="a_node8"><a xlink:href="namespacem__create__patches.html#a565ecc7f4e08026fd7580e32736efa35" target="_top" xlink:title="The spherical patch is a 3D geometry that may be used, for example, in creating a bubble or a droplet...">
<polygon fill="white" stroke="#666666" points="352,-126 235,-126 235,-96 352,-96 352,-126"/>
<text text-anchor="start" x="243" y="-114" font-family="Helvetica,sans-Serif" font-size="10.00">m_create_patches::s</text>
<text text-anchor="middle" x="293.5" y="-103" font-family="Helvetica,sans-Serif" font-size="10.00">_sphere</text>
</a>
</g>
</g>
<!-- Node1&#45;&gt;Node8 -->
<g id="edge10" class="edge">
<title>Node1&#45;&gt;Node8</title>
<path fill="none" stroke="#63b8ff" d="M378.27,-137.63C366.05,-133.75 353.54,-129.77 342.04,-126.11"/>
<polygon fill="#63b8ff" stroke="#63b8ff" points="377.39,-141.02 387.98,-140.72 379.51,-134.35 377.39,-141.02"/>
</g>
<!-- Node9 -->
<g id="node9" class="node">
<title>Node9</title>
<g id="a_node9"><a xlink:href="namespacem__create__patches.html#a54f0f0e5805df845369db4680e461564" target="_top" xlink:title="This patch generates the shape of the spherical harmonics as a perturbation to a perfect sphere.">
<polygon fill="white" stroke="#666666" points="352,-78 235,-78 235,-48 352,-48 352,-78"/>
<text text-anchor="start" x="243" y="-66" font-family="Helvetica,sans-Serif" font-size="10.00">m_create_patches::s</text>
<text text-anchor="middle" x="293.5" y="-55" font-family="Helvetica,sans-Serif" font-size="10.00">_spherical_harmonic</text>
</a>
</g>
</g>
<!-- Node1&#45;&gt;Node9 -->
<g id="edge12" class="edge">
<title>Node1&#45;&gt;Node9</title>
<path fill="none" stroke="#63b8ff" d="M414.45,-131.79C396.92,-117.29 374.13,-99.84 352,-87 346.48,-83.8 340.45,-80.8 334.44,-78.07"/>
<polygon fill="#63b8ff" stroke="#63b8ff" points="412.21,-134.47 422.12,-138.22 416.71,-129.11 412.21,-134.47"/>
</g>
<!-- Node10 -->
<g id="node10" class="node">
<title>Node10</title>
<g id="a_node10"><a xlink:href="namespacem__create__patches.html#adffe36b493554609593c737c004b3c5e" target="_top" xlink:title="The swept plane patch is a 3D geometry that may be used, for example, in creating a solid boundary,...">
<polygon fill="white" stroke="#666666" points="352,-30 235,-30 235,0 352,0 352,-30"/>
<text text-anchor="start" x="243" y="-18" font-family="Helvetica,sans-Serif" font-size="10.00">m_create_patches::s</text>
<text text-anchor="middle" x="293.5" y="-7" font-family="Helvetica,sans-Serif" font-size="10.00">_sweep_plane</text>
</a>
</g>
</g>
<!-- Node1&#45;&gt;Node10 -->
<g id="edge14" class="edge">
<title>Node1&#45;&gt;Node10</title>
<path fill="none" stroke="#63b8ff" d="M428.65,-129.53C412.1,-102.81 384.63,-63.91 352,-39 347.62,-35.65 342.7,-32.69 337.63,-30.08"/>
<polygon fill="#63b8ff" stroke="#63b8ff" points="425.66,-131.34 433.84,-138.08 431.65,-127.72 425.66,-131.34"/>
</g>
<!-- Node3 -->
<g id="node3" class="node">
<title>Node3</title>
<g id="a_node3"><a xlink:href="namespacem__initial__condition.html#aa74a70029e3ec0fd3225b369e7c5443e" target="_top" xlink:title="This subroutine peruses the patches and depending on the type of geometry associated with a particula...">
<polygon fill="white" stroke="#666666" points="199,-179.5 89,-179.5 89,-138.5 199,-138.5 199,-179.5"/>
<text text-anchor="start" x="97" y="-167.5" font-family="Helvetica,sans-Serif" font-size="10.00">m_initial_condition</text>
<text text-anchor="start" x="97" y="-156.5" font-family="Helvetica,sans-Serif" font-size="10.00">::s_generate_initial</text>
<text text-anchor="middle" x="144" y="-145.5" font-family="Helvetica,sans-Serif" font-size="10.00">_condition</text>
</a>
</g>
</g>
<!-- Node2&#45;&gt;Node3 -->
<g id="edge2" class="edge">
<title>Node2&#45;&gt;Node3</title>
<path fill="none" stroke="#63b8ff" d="M240.55,-282.93C238.63,-281.69 236.77,-280.38 235,-279 199.45,-251.33 170.84,-206.26 156.04,-179.94"/>
<polygon fill="#63b8ff" stroke="#63b8ff" points="238.9,-286.02 249.31,-288 242.4,-279.96 238.9,-286.02"/>
</g>
<!-- Node4 -->
<g id="node4" class="node">
<title>Node4</title>
<g id="a_node4"><a xlink:href="p__main_8f90.html#aeec10ee8e2940c953967da3e374e1579" target="_top" xlink:title="This program takes care of setting up the initial condition and grid data for the multicomponent flow...">
<polygon fill="white" stroke="#666666" points="53,-168.5 0,-168.5 0,-149.5 53,-149.5 53,-168.5"/>
<text text-anchor="middle" x="26.5" y="-156.5" font-family="Helvetica,sans-Serif" font-size="10.00">p_main</text>
</a>
</g>
</g>
<!-- Node3&#45;&gt;Node4 -->
<g id="edge3" class="edge">
<title>Node3&#45;&gt;Node4</title>
<path fill="none" stroke="#63b8ff" d="M78.76,-159C69.75,-159 60.95,-159 53.26,-159"/>
<polygon fill="#63b8ff" stroke="#63b8ff" points="78.97,-162.5 88.97,-159 78.97,-155.5 78.97,-162.5"/>
</g>
<!-- Node5&#45;&gt;Node3 -->
<g id="edge5" class="edge">
<title>Node5&#45;&gt;Node3</title>
<path fill="none" stroke="#63b8ff" d="M243.14,-235.49C240.35,-234.05 237.61,-232.55 235,-231 210.04,-216.21 184.48,-195.07 167.01,-179.53"/>
<polygon fill="#63b8ff" stroke="#63b8ff" points="241.68,-238.67 252.2,-239.88 244.73,-232.37 241.68,-238.67"/>
</g>
<!-- Node6&#45;&gt;Node3 -->
<g id="edge7" class="edge">
<title>Node6&#45;&gt;Node3</title>
<path fill="none" stroke="#63b8ff" d="M236.57,-188.8C224.29,-184.8 211.3,-180.58 199.1,-176.6"/>
<polygon fill="#63b8ff" stroke="#63b8ff" points="235.64,-192.18 246.23,-191.94 237.81,-185.52 235.64,-192.18"/>
</g>
<!-- Node7&#45;&gt;Node3 -->
<g id="edge9" class="edge">
<title>Node7&#45;&gt;Node3</title>
<path fill="none" stroke="#63b8ff" d="M224.44,-159C216.02,-159 207.51,-159 199.33,-159"/>
<polygon fill="#63b8ff" stroke="#63b8ff" points="224.63,-162.5 234.63,-159 224.63,-155.5 224.63,-162.5"/>
</g>
<!-- Node8&#45;&gt;Node3 -->
<g id="edge11" class="edge">
<title>Node8&#45;&gt;Node3</title>
<path fill="none" stroke="#63b8ff" d="M236.57,-129.2C224.29,-133.2 211.3,-137.42 199.1,-141.4"/>
<polygon fill="#63b8ff" stroke="#63b8ff" points="237.81,-132.48 246.23,-126.06 235.64,-125.82 237.81,-132.48"/>
</g>
<!-- Node9&#45;&gt;Node3 -->
<g id="edge13" class="edge">
<title>Node9&#45;&gt;Node3</title>
<path fill="none" stroke="#63b8ff" d="M243.14,-82.51C240.35,-83.95 237.61,-85.45 235,-87 210.04,-101.79 184.48,-122.93 167.01,-138.47"/>
<polygon fill="#63b8ff" stroke="#63b8ff" points="244.73,-85.63 252.2,-78.12 241.68,-79.33 244.73,-85.63"/>
</g>
<!-- Node10&#45;&gt;Node3 -->
<g id="edge15" class="edge">
<title>Node10&#45;&gt;Node3</title>
<path fill="none" stroke="#63b8ff" d="M240.55,-35.07C238.63,-36.31 236.77,-37.62 235,-39 199.45,-66.67 170.84,-111.74 156.04,-138.06"/>
<polygon fill="#63b8ff" stroke="#63b8ff" points="242.4,-38.04 249.31,-30 238.9,-31.98 242.4,-38.04"/>
</g>
</g>
</svg>
