<?xml version="1.0" encoding="UTF-8" standalone="no"?>
<!DOCTYPE svg PUBLIC "-//W3C//DTD SVG 1.1//EN"
 "http://www.w3.org/Graphics/SVG/1.1/DTD/svg11.dtd">
<!-- Generated by graphviz version 2.43.0 (0)
 -->
<!-- Title: m_patches::s_stl Pages: 1 -->
<svg width="294pt" height="86pt"
 viewBox="0.00 0.00 294.00 86.00" xmlns="http://www.w3.org/2000/svg" xmlns:xlink="http://www.w3.org/1999/xlink">
<g id="graph0" class="graph" transform="scale(1 1) rotate(0) translate(4 82)">
<title>m_patches::s_stl</title>
<!-- Node1 -->
<g id="node1" class="node">
<title>Node1</title>
<g id="a_node1"><a xlink:title="The STL patch is a 2/3D geometry that is imported from an STL file.">
<polygon fill="#999999" stroke="#666666" points="98,-48.5 0,-48.5 0,-29.5 98,-29.5 98,-48.5"/>
<text text-anchor="middle" x="49" y="-36.5" font-family="Helvetica,sans-Serif" font-size="10.00">m_patches::s_stl</text>
</a>
</g>
</g>
<!-- Node2 -->
<g id="node2" class="node">
<title>Node2</title>
<g id="a_node2"><a xlink:href="namespacem__patches.html#a83efe3e97fcd582a8a212ebf326a0689" target="_top" xlink:title=" ">
<polygon fill="white" stroke="#666666" points="286,-78 134,-78 134,-48 286,-48 286,-78"/>
<text text-anchor="start" x="142" y="-66" font-family="Helvetica,sans-Serif" font-size="10.00">m_patches::s_stl_transform</text>
<text text-anchor="middle" x="210" y="-55" font-family="Helvetica,sans-Serif" font-size="10.00">_matrix</text>
</a>
</g>
</g>
<!-- Node1&#45;&gt;Node2 -->
<g id="edge1" class="edge">
<title>Node1&#45;&gt;Node2</title>
<path fill="none" stroke="#63b8ff" d="M98.14,-46.27C106.31,-47.5 115,-48.81 123.79,-50.14"/>
<polygon fill="#63b8ff" stroke="#63b8ff" points="123.32,-53.61 133.73,-51.64 124.36,-46.68 123.32,-53.61"/>
</g>
<!-- Node3 -->
<g id="node3" class="node">
<title>Node3</title>
<g id="a_node3"><a xlink:href="namespacem__patches.html#af29810fbf1972fbadbcc53ee0a4398e7" target="_top" xlink:title=" ">
<polygon fill="white" stroke="#666666" points="286,-30 134,-30 134,0 286,0 286,-30"/>
<text text-anchor="start" x="142" y="-18" font-family="Helvetica,sans-Serif" font-size="10.00">m_patches::s_stl_transform</text>
<text text-anchor="middle" x="210" y="-7" font-family="Helvetica,sans-Serif" font-size="10.00">_triangle</text>
</a>
</g>
</g>
<!-- Node1&#45;&gt;Node3 -->
<g id="edge2" class="edge">
<title>Node1&#45;&gt;Node3</title>
<path fill="none" stroke="#63b8ff" d="M98.14,-31.73C106.31,-30.5 115,-29.19 123.79,-27.86"/>
<polygon fill="#63b8ff" stroke="#63b8ff" points="124.36,-31.32 133.73,-26.36 123.32,-24.39 124.36,-31.32"/>
</g>
</g>
</svg>
