<?xml version="1.0" encoding="UTF-8" standalone="no"?>
<!DOCTYPE svg PUBLIC "-//W3C//DTD SVG 1.1//EN"
 "http://www.w3.org/Graphics/SVG/1.1/DTD/svg11.dtd">
<!-- Generated by graphviz version 2.43.0 (0)
 -->
<!-- Title: m_start_up::s_read_serial_ic_data_files Pages: 1 -->
<svg width="378pt" height="59pt"
 viewBox="0.00 0.00 378.00 59.00" xmlns="http://www.w3.org/2000/svg" xmlns:xlink="http://www.w3.org/1999/xlink">
<g id="graph0" class="graph" transform="scale(1 1) rotate(0) translate(4 55)">
<title>m_start_up::s_read_serial_ic_data_files</title>
<!-- Node1 -->
<g id="node1" class="node">
<title>Node1</title>
<g id="a_node1"><a xlink:title="The goal of this subroutine is to read in any preexisting initial condition data files so that they m...">
<polygon fill="#999999" stroke="#666666" points="370,-51 255,-51 255,-21 370,-21 370,-51"/>
<text text-anchor="start" x="263" y="-39" font-family="Helvetica,sans-Serif" font-size="10.00">m_start_up::s_read</text>
<text text-anchor="middle" x="312.5" y="-28" font-family="Helvetica,sans-Serif" font-size="10.00">_serial_ic_data_files</text>
</a>
</g>
</g>
<!-- Node2 -->
<g id="node2" class="node">
<title>Node2</title>
<g id="a_node2"><a xlink:href="p__main_8f90.html#aeec10ee8e2940c953967da3e374e1579" target="_top" xlink:title="This program takes care of setting up the initial condition and grid data for the multicomponent flow...">
<polygon fill="white" stroke="#666666" points="53,-45.5 0,-45.5 0,-26.5 53,-26.5 53,-45.5"/>
<text text-anchor="middle" x="26.5" y="-33.5" font-family="Helvetica,sans-Serif" font-size="10.00">p_main</text>
</a>
</g>
</g>
<!-- Node1&#45;&gt;Node2 -->
<g id="edge1" class="edge">
<title>Node1&#45;&gt;Node2</title>
<path fill="none" stroke="#63b8ff" d="M244.69,-38.42C236.05,-38.66 227.31,-38.87 219,-39 161.23,-39.94 146.76,-40.41 89,-39 77.24,-38.71 64.24,-38.12 53.22,-37.53"/>
<polygon fill="#63b8ff" stroke="#63b8ff" points="244.87,-41.92 254.76,-38.13 244.66,-34.92 244.87,-41.92"/>
</g>
<!-- Node3 -->
<g id="node3" class="node">
<title>Node3</title>
<g id="a_node3"><a xlink:href="namespacem__start__up.html#a37202711d89d04cd18f08170ba608aa1" target="_top" xlink:title=" ">
<polygon fill="white" stroke="#666666" points="219,-30 89,-30 89,0 219,0 219,-30"/>
<text text-anchor="start" x="97" y="-18" font-family="Helvetica,sans-Serif" font-size="10.00">m_start_up::s_initialize</text>
<text text-anchor="middle" x="154" y="-7" font-family="Helvetica,sans-Serif" font-size="10.00">_start_up_module</text>
</a>
</g>
</g>
<!-- Node1&#45;&gt;Node3 -->
<g id="edge2" class="edge">
<title>Node1&#45;&gt;Node3</title>
<path fill="none" stroke="#63b8ff" d="M245.03,-27.08C236.45,-25.93 227.67,-24.75 219.12,-23.6"/>
<polygon fill="#63b8ff" stroke="#63b8ff" points="244.62,-30.56 255,-28.42 245.55,-23.62 244.62,-30.56"/>
</g>
<!-- Node3&#45;&gt;Node2 -->
<g id="edge3" class="edge">
<title>Node3&#45;&gt;Node2</title>
<path fill="none" stroke="#63b8ff" d="M78.74,-27.43C69.58,-28.96 60.76,-30.44 53.09,-31.72"/>
<polygon fill="#63b8ff" stroke="#63b8ff" points="79.49,-30.85 88.78,-25.75 78.34,-23.94 79.49,-30.85"/>
</g>
</g>
</svg>
