<?xml version="1.0" encoding="UTF-8" standalone="no"?>
<!DOCTYPE svg PUBLIC "-//W3C//DTD SVG 1.1//EN"
 "http://www.w3.org/Graphics/SVG/1.1/DTD/svg11.dtd">
<!-- Generated by graphviz version 2.43.0 (0)
 -->
<!-- Title: m_mpi_proxy::s_mpi_reduce_min Pages: 1 -->
<svg width="552pt" height="176pt"
 viewBox="0.00 0.00 552.00 176.40" xmlns="http://www.w3.org/2000/svg" xmlns:xlink="http://www.w3.org/1999/xlink">
<g id="graph0" class="graph" transform="scale(1 1) rotate(0) translate(4 172.4)">
<title>m_mpi_proxy::s_mpi_reduce_min</title>
<!-- Node1 -->
<g id="node1" class="node">
<title>Node1</title>
<g id="a_node1"><a xlink:title="The following subroutine takes the inputted variable and determines its minimum value on the entire c...">
<polygon fill="#bfbfbf" stroke="black" points="426,-66.66 426,-96.66 544,-96.66 544,-66.66 426,-66.66"/>
<text text-anchor="start" x="434" y="-84.66" font-family="Helvetica,sans-Serif" font-size="10.00">m_mpi_proxy::s_mpi</text>
<text text-anchor="middle" x="485" y="-73.66" font-family="Helvetica,sans-Serif" font-size="10.00">_reduce_min</text>
</a>
</g>
</g>
<!-- Node2 -->
<g id="node2" class="node">
<title>Node2</title>
<g id="a_node2"><a xlink:href="namespacem__grid.html#a7c0d1c6fcecd2759774be2b3786a6b50" target="_top" xlink:title="The following subroutine generates either a uniform or non&#45;uniform rectilinear grid in serial,...">
<polygon fill="none" stroke="black" points="267.5,-115.66 267.5,-145.66 377.5,-145.66 377.5,-115.66 267.5,-115.66"/>
<text text-anchor="start" x="275.5" y="-133.66" font-family="Helvetica,sans-Serif" font-size="10.00">m_grid::s_generate</text>
<text text-anchor="middle" x="322.5" y="-122.66" font-family="Helvetica,sans-Serif" font-size="10.00">_serial_grid</text>
</a>
</g>
</g>
<!-- Node1&#45;&gt;Node2 -->
<g id="edge1" class="edge">
<title>Node1&#45;&gt;Node2</title>
<path fill="none" stroke="midnightblue" d="M424.67,-99.77C407.61,-104.98 389.19,-110.61 372.8,-115.61"/>
<polygon fill="midnightblue" stroke="midnightblue" points="425.99,-103.03 434.54,-96.76 423.95,-96.33 425.99,-103.03"/>
</g>
<!-- Node5 -->
<g id="node5" class="node">
<title>Node5</title>
<g id="a_node5"><a xlink:href="namespacem__start__up.html#aaaad3d18eef01d1d8387e34a8b7d33ac" target="_top" xlink:title="Cell&#45;boundary data are checked for consistency by looking at the (non&#45;)uniform cell&#45;width distributio...">
<polygon fill="none" stroke="black" points="255,-66.66 255,-96.66 390,-96.66 390,-66.66 255,-66.66"/>
<text text-anchor="start" x="263" y="-84.66" font-family="Helvetica,sans-Serif" font-size="10.00">m_start_up::s_read</text>
<text text-anchor="middle" x="322.5" y="-73.66" font-family="Helvetica,sans-Serif" font-size="10.00">_parallel_grid_data_files</text>
</a>
</g>
</g>
<!-- Node1&#45;&gt;Node5 -->
<g id="edge5" class="edge">
<title>Node1&#45;&gt;Node5</title>
<path fill="none" stroke="midnightblue" d="M415.44,-81.66C407.01,-81.66 398.41,-81.66 390.01,-81.66"/>
<polygon fill="midnightblue" stroke="midnightblue" points="415.6,-85.16 425.6,-81.66 415.6,-78.16 415.6,-85.16"/>
</g>
<!-- Node7 -->
<g id="node7" class="node">
<title>Node7</title>
<g id="a_node7"><a xlink:href="namespacem__start__up.html#ac2be28e53607458a3860b03446ed6497" target="_top" xlink:title="The goal of this subroutine is to read in any preexisting grid data as well as based on the imported ...">
<polygon fill="none" stroke="black" points="260,-17.66 260,-47.66 385,-47.66 385,-17.66 260,-17.66"/>
<text text-anchor="start" x="268" y="-35.66" font-family="Helvetica,sans-Serif" font-size="10.00">m_start_up::s_read</text>
<text text-anchor="middle" x="322.5" y="-24.66" font-family="Helvetica,sans-Serif" font-size="10.00">_serial_grid_data_files</text>
</a>
</g>
</g>
<!-- Node1&#45;&gt;Node7 -->
<g id="edge9" class="edge">
<title>Node1&#45;&gt;Node7</title>
<path fill="none" stroke="midnightblue" d="M424.67,-63.55C407.61,-58.34 389.19,-52.72 372.8,-47.71"/>
<polygon fill="midnightblue" stroke="midnightblue" points="423.95,-66.99 434.54,-66.56 425.99,-60.29 423.95,-66.99"/>
</g>
<!-- Node3 -->
<g id="node3" class="node">
<title>Node3</title>
<g id="a_node3"><a xlink:href="p__main_8f90.html#aeec10ee8e2940c953967da3e374e1579" target="_top" xlink:title="This program takes care of setting up the initial condition and grid data for the multicomponent flow...">
<polygon fill="none" stroke="black" points="0,-75.16 0,-94.16 53,-94.16 53,-75.16 0,-75.16"/>
<text text-anchor="middle" x="26.5" y="-82.16" font-family="Helvetica,sans-Serif" font-size="10.00">p_main</text>
</a>
</g>
</g>
<!-- Node2&#45;&gt;Node3 -->
<g id="edge2" class="edge">
<title>Node2&#45;&gt;Node3</title>
<path fill="none" stroke="midnightblue" d="M273.75,-148.87C225.11,-164.41 148.56,-180.36 89,-153.66 61.62,-141.39 41.42,-110.23 32.53,-94.32"/>
<polygon fill="midnightblue" stroke="midnightblue" points="275,-152.15 283.39,-145.68 272.8,-145.5 275,-152.15"/>
</g>
<!-- Node4 -->
<g id="node4" class="node">
<title>Node4</title>
<g id="a_node4"><a xlink:href="namespacem__grid.html#a08c7d18352873ceab95c10629c1ce317" target="_top" xlink:title="Computation of parameters, allocation procedures, and/or any other tasks needed to properly setup the...">
<polygon fill="none" stroke="black" points="99.5,-113.66 99.5,-143.66 208.5,-143.66 208.5,-113.66 99.5,-113.66"/>
<text text-anchor="start" x="107.5" y="-131.66" font-family="Helvetica,sans-Serif" font-size="10.00">m_grid::s_initialize</text>
<text text-anchor="middle" x="154" y="-120.66" font-family="Helvetica,sans-Serif" font-size="10.00">_grid_module</text>
</a>
</g>
</g>
<!-- Node2&#45;&gt;Node4 -->
<g id="edge3" class="edge">
<title>Node2&#45;&gt;Node4</title>
<path fill="none" stroke="midnightblue" d="M257.06,-129.89C241.01,-129.69 223.97,-129.49 208.5,-129.3"/>
<polygon fill="midnightblue" stroke="midnightblue" points="257.4,-133.39 267.44,-130.01 257.49,-126.39 257.4,-133.39"/>
</g>
<!-- Node4&#45;&gt;Node3 -->
<g id="edge4" class="edge">
<title>Node4&#45;&gt;Node3</title>
<path fill="none" stroke="midnightblue" d="M100.68,-110.32C84.33,-104.59 67.01,-98.51 53.33,-93.72"/>
<polygon fill="midnightblue" stroke="midnightblue" points="99.57,-113.64 110.16,-113.64 101.88,-107.03 99.57,-113.64"/>
</g>
<!-- Node5&#45;&gt;Node3 -->
<g id="edge6" class="edge">
<title>Node5&#45;&gt;Node3</title>
<path fill="none" stroke="midnightblue" d="M244.45,-82.45C181.24,-83.09 95.52,-83.97 53.25,-84.4"/>
<polygon fill="midnightblue" stroke="midnightblue" points="244.82,-85.94 254.79,-82.34 244.75,-78.94 244.82,-85.94"/>
</g>
<!-- Node6 -->
<g id="node6" class="node">
<title>Node6</title>
<g id="a_node6"><a xlink:href="namespacem__start__up.html#a37202711d89d04cd18f08170ba608aa1" target="_top" xlink:title=" ">
<polygon fill="none" stroke="black" points="89,-25.66 89,-55.66 219,-55.66 219,-25.66 89,-25.66"/>
<text text-anchor="start" x="97" y="-43.66" font-family="Helvetica,sans-Serif" font-size="10.00">m_start_up::s_initialize</text>
<text text-anchor="middle" x="154" y="-32.66" font-family="Helvetica,sans-Serif" font-size="10.00">_start_up_module</text>
</a>
</g>
</g>
<!-- Node5&#45;&gt;Node6 -->
<g id="edge7" class="edge">
<title>Node5&#45;&gt;Node6</title>
<path fill="none" stroke="midnightblue" d="M250.48,-64.17C239.02,-61.35 227.24,-58.45 216.05,-55.69"/>
<polygon fill="midnightblue" stroke="midnightblue" points="249.9,-67.63 260.45,-66.63 251.57,-60.84 249.9,-67.63"/>
</g>
<!-- Node6&#45;&gt;Node3 -->
<g id="edge8" class="edge">
<title>Node6&#45;&gt;Node3</title>
<path fill="none" stroke="midnightblue" d="M100.68,-59C84.33,-64.74 67.01,-70.81 53.33,-75.61"/>
<polygon fill="midnightblue" stroke="midnightblue" points="101.88,-62.29 110.16,-55.68 99.57,-55.69 101.88,-62.29"/>
</g>
<!-- Node7&#45;&gt;Node3 -->
<g id="edge10" class="edge">
<title>Node7&#45;&gt;Node3</title>
<path fill="none" stroke="midnightblue" d="M268.5,-14.9C219.69,-1.69 146.36,10.05 89,-15.66 61.62,-27.94 41.42,-59.09 32.53,-75"/>
<polygon fill="midnightblue" stroke="midnightblue" points="267.65,-18.3 278.23,-17.65 269.55,-11.56 267.65,-18.3"/>
</g>
<!-- Node7&#45;&gt;Node6 -->
<g id="edge11" class="edge">
<title>Node7&#45;&gt;Node6</title>
<path fill="none" stroke="midnightblue" d="M249.84,-36.1C239.61,-36.6 229.14,-37.1 219.06,-37.58"/>
<polygon fill="midnightblue" stroke="midnightblue" points="250.15,-39.59 259.97,-35.62 249.82,-32.6 250.15,-39.59"/>
</g>
</g>
</svg>
