<?xml version="1.0" encoding="UTF-8" standalone="no"?>
<!DOCTYPE svg PUBLIC "-//W3C//DTD SVG 1.1//EN"
 "http://www.w3.org/Graphics/SVG/1.1/DTD/svg11.dtd">
<!-- Generated by graphviz version 2.43.0 (0)
 -->
<!-- Title: m_start_up::s_finalize_modules Pages: 1 -->
<svg width="309pt" height="291pt"
 viewBox="0.00 0.00 309.00 290.50" xmlns="http://www.w3.org/2000/svg" xmlns:xlink="http://www.w3.org/1999/xlink">

<svg id="main" version="1.1" xmlns="http://www.w3.org/2000/svg" xmlns:xlink="http://www.w3.org/1999/xlink" xml:space="preserve" onload="init(evt)">
<style type="text/css"><![CDATA[
.node, .edge {opacity: 0.7;}
.node.selected, .edge.selected {opacity: 1;}
.edge:hover path { stroke: red; }
.edge:hover polygon { stroke: red; fill: red; }
]]></style>
<script type="application/ecmascript" xlink:href="svg.min.js"/>
<svg id="graph" class="graph">
<g id="graph0" class="graph" transform="scale(1 1) rotate(0) translate(4 286.5)">
<title>m_start_up::s_finalize_modules</title>
<!-- Node1 -->
<g id="Node000001" class="node">
<title>Node1</title>
<g id="a_Node000001"><a xlink:title=" ">
<polygon fill="#999999" stroke="#666666" points="123,-150.5 0,-150.5 0,-120.5 123,-120.5 123,-150.5"/>
<text text-anchor="start" x="8" y="-138.5" font-family="Helvetica,sans-Serif" font-size="10.00">m_start_up::s_finalize</text>
<text text-anchor="middle" x="61.5" y="-127.5" font-family="Helvetica,sans-Serif" font-size="10.00">_modules</text>
</a>
</g>
</g>
<!-- Node2 -->
<g id="Node000002" class="node">
<title>Node2</title>
<g id="a_Node000002"><a xlink:href="namespacem__data__output.html#a02f2b04a434c1f0ebf9156147d0f976e" target="_top" xlink:title="Resets s_write_data_files pointer.">
<polygon fill="white" stroke="#666666" points="301,-282.5 159,-282.5 159,-252.5 301,-252.5 301,-282.5"/>
<text text-anchor="start" x="167" y="-270.5" font-family="Helvetica,sans-Serif" font-size="10.00">m_data_output::s_finalize</text>
<text text-anchor="middle" x="230" y="-259.5" font-family="Helvetica,sans-Serif" font-size="10.00">_data_output_module</text>
</a>
</g>
</g>
<!-- Node1&#45;&gt;Node2 -->
<g id="edge1_Node000001_Node000002" class="edge">
<title>Node1&#45;&gt;Node2</title>
<g id="a_edge1_Node000001_Node000002"><a xlink:title=" ">
<path fill="none" stroke="#63b8ff" d="M72.21,-150.63C87.82,-173.8 120.66,-218.06 159,-243.5 161.41,-245.1 163.93,-246.6 166.54,-248.01"/>
<polygon fill="#63b8ff" stroke="#63b8ff" points="165.12,-251.21 175.64,-252.47 168.19,-244.93 165.12,-251.21"/>
</a>
</g>
</g>
<!-- Node3 -->
<g id="Node000003" class="node">
<title>Node3</title>
<g id="a_Node000003"><a xlink:href="namespacem__global__parameters.html#aa2237c2ed3662bbd69ef39e2e92af7bf" target="_top" xlink:title=" ">
<polygon fill="white" stroke="#666666" points="291.5,-234 168.5,-234 168.5,-193 291.5,-193 291.5,-234"/>
<text text-anchor="start" x="176.5" y="-222" font-family="Helvetica,sans-Serif" font-size="10.00">m_global_parameters</text>
<text text-anchor="start" x="176.5" y="-211" font-family="Helvetica,sans-Serif" font-size="10.00">::s_finalize_global</text>
<text text-anchor="middle" x="230" y="-200" font-family="Helvetica,sans-Serif" font-size="10.00">_parameters_module</text>
</a>
</g>
</g>
<!-- Node1&#45;&gt;Node3 -->
<g id="edge2_Node000001_Node000003" class="edge">
<title>Node1&#45;&gt;Node3</title>
<g id="a_edge2_Node000001_Node000003"><a xlink:title=" ">
<path fill="none" stroke="#63b8ff" d="M91.85,-150.64C110.87,-160.32 136.24,-172.97 159,-183.5 162.78,-185.25 166.69,-187.02 170.64,-188.78"/>
<polygon fill="#63b8ff" stroke="#63b8ff" points="169.33,-192.03 179.89,-192.87 172.16,-185.63 169.33,-192.03"/>
</a>
</g>
</g>
<!-- Node4 -->
<g id="Node000004" class="node">
<title>Node4</title>
<g id="a_Node000004"><a xlink:href="namespacem__grid.html#a128e8c4d55df21039d945edda39205aa" target="_top" xlink:title="Deallocation procedures for the module.">
<polygon fill="white" stroke="#666666" points="281,-174.5 179,-174.5 179,-144.5 281,-144.5 281,-174.5"/>
<text text-anchor="start" x="187" y="-162.5" font-family="Helvetica,sans-Serif" font-size="10.00">m_grid::s_finalize</text>
<text text-anchor="middle" x="230" y="-151.5" font-family="Helvetica,sans-Serif" font-size="10.00">_grid_module</text>
</a>
</g>
</g>
<!-- Node1&#45;&gt;Node4 -->
<g id="edge3_Node000001_Node000004" class="edge">
<title>Node1&#45;&gt;Node4</title>
<g id="a_edge3_Node000001_Node000004"><a xlink:title=" ">
<path fill="none" stroke="#63b8ff" d="M123.08,-144.23C137.96,-146.38 153.89,-148.67 168.76,-150.82"/>
<polygon fill="#63b8ff" stroke="#63b8ff" points="168.46,-154.31 178.86,-152.27 169.46,-147.38 168.46,-154.31"/>
</a>
</g>
</g>
<!-- Node5 -->
<g id="Node000005" class="node">
<title>Node5</title>
<g id="a_Node000005"><a xlink:href="m__variables__conversion_8fpp_8f90.html#ace14d66a864f202904444921d6927a20" target="_top" xlink:title=" ">
<polygon fill="white" stroke="#666666" points="288.5,-126.5 171.5,-126.5 171.5,-96.5 288.5,-96.5 288.5,-126.5"/>
<text text-anchor="start" x="179.5" y="-114.5" font-family="Helvetica,sans-Serif" font-size="10.00">s_finalize_variables</text>
<text text-anchor="middle" x="230" y="-103.5" font-family="Helvetica,sans-Serif" font-size="10.00">_conversion_module</text>
</a>
</g>
</g>
<!-- Node1&#45;&gt;Node5 -->
<g id="edge4_Node000001_Node000005" class="edge">
<title>Node1&#45;&gt;Node5</title>
<g id="a_edge4_Node000001_Node000005"><a xlink:title=" ">
<path fill="none" stroke="#63b8ff" d="M123.08,-126.77C135.48,-124.98 148.61,-123.09 161.24,-121.27"/>
<polygon fill="#63b8ff" stroke="#63b8ff" points="161.84,-124.72 171.24,-119.83 160.84,-117.79 161.84,-124.72"/>
</a>
</g>
</g>
<!-- Node6 -->
<g id="Node000006" class="node">
<title>Node6</title>
<g id="a_Node000006"><a xlink:href="namespacem__assign__variables.html#a0ac5909103b06b46099506b517f43c5f" target="_top" xlink:title=" ">
<polygon fill="white" stroke="#666666" points="286.5,-78 173.5,-78 173.5,-37 286.5,-37 286.5,-78"/>
<text text-anchor="start" x="181.5" y="-66" font-family="Helvetica,sans-Serif" font-size="10.00">m_assign_variables</text>
<text text-anchor="start" x="181.5" y="-55" font-family="Helvetica,sans-Serif" font-size="10.00">::s_finialize_assign</text>
<text text-anchor="middle" x="230" y="-44" font-family="Helvetica,sans-Serif" font-size="10.00">_variables_module</text>
</a>
</g>
</g>
<!-- Node1&#45;&gt;Node6 -->
<g id="edge5_Node000001_Node000006" class="edge">
<title>Node1&#45;&gt;Node6</title>
<g id="a_edge5_Node000001_Node000006"><a xlink:title=" ">
<path fill="none" stroke="#63b8ff" d="M91.85,-120.36C110.87,-110.68 136.24,-98.03 159,-87.5 162.78,-85.75 166.69,-83.98 170.64,-82.22"/>
<polygon fill="#63b8ff" stroke="#63b8ff" points="172.16,-85.37 179.89,-78.13 169.33,-78.97 172.16,-85.37"/>
</a>
</g>
</g>
<!-- Node7 -->
<g id="Node000007" class="node">
<title>Node7</title>
<g id="a_Node000007"><a xlink:href="m__mpi__common_8fpp_8f90.html#a284ab739ceaa5d422dcf5fed4a1e82ae" target="_top" xlink:title="The subroutine finalizes the MPI execution environment.">
<polygon fill="white" stroke="#666666" points="273,-19 187,-19 187,0 273,0 273,-19"/>
<text text-anchor="middle" x="230" y="-7" font-family="Helvetica,sans-Serif" font-size="10.00">s_mpi_finalize</text>
</a>
</g>
</g>
<!-- Node1&#45;&gt;Node7 -->
<g id="edge6_Node000001_Node000007" class="edge">
<title>Node1&#45;&gt;Node7</title>
<g id="a_edge6_Node000001_Node000007"><a xlink:title=" ">
<path fill="none" stroke="#63b8ff" d="M72.05,-120.21C87.44,-96.85 120,-52.47 159,-28.5 164.49,-25.13 170.59,-22.34 176.82,-20.04"/>
<polygon fill="#63b8ff" stroke="#63b8ff" points="178.26,-23.26 186.67,-16.83 176.08,-16.61 178.26,-23.26"/>
</a>
</g>
</g>
</g>
</svg>
</svg>

<style type='text/css'>
<![CDATA[
[data-mouse-over-selected='false'] { opacity: 0.7; }
[data-mouse-over-selected='true']  { opacity: 1.0; }
]]>
</style>
<script type="application/ecmascript"><![CDATA[
document.addEventListener('DOMContentLoaded', (event) => {
  highlightEdges();
  highlightAdjacentNodes();
});
]]></script>
</svg>
