<?xml version="1.0" encoding="UTF-8" standalone="no"?>
<!DOCTYPE svg PUBLIC "-//W3C//DTD SVG 1.1//EN"
 "http://www.w3.org/Graphics/SVG/1.1/DTD/svg11.dtd">
<!-- Generated by graphviz version 2.43.0 (0)
 -->
<!-- Title: m_stl::f_stl_is_inside Pages: 1 -->
<svg width="403pt" height="27pt"
 viewBox="0.00 0.00 403.00 27.00" xmlns="http://www.w3.org/2000/svg" xmlns:xlink="http://www.w3.org/1999/xlink">
<g id="graph0" class="graph" transform="scale(1 1) rotate(0) translate(4 23)">
<title>m_stl::f_stl_is_inside</title>
<!-- Node1 -->
<g id="node1" class="node">
<title>Node1</title>
<g id="a_node1"><a xlink:title=" ">
<polygon fill="#999999" stroke="#666666" points="119,-19 0,-19 0,0 119,0 119,-19"/>
<text text-anchor="middle" x="59.5" y="-7" font-family="Helvetica,sans-Serif" font-size="10.00">m_stl::f_stl_is_inside</text>
</a>
</g>
</g>
<!-- Node2 -->
<g id="node2" class="node">
<title>Node2</title>
<g id="a_node2"><a xlink:href="namespacem__stl.html#a60170e2e45c00f3d940feefb44f7d44a" target="_top" xlink:title=" ">
<polygon fill="white" stroke="#666666" points="262,-19 155,-19 155,0 262,0 262,-19"/>
<text text-anchor="middle" x="208.5" y="-7" font-family="Helvetica,sans-Serif" font-size="10.00">m_stl::f_intersects</text>
</a>
</g>
</g>
<!-- Node1&#45;&gt;Node2 -->
<g id="edge1" class="edge">
<title>Node1&#45;&gt;Node2</title>
<path fill="none" stroke="#63b8ff" d="M119.02,-9.5C127.45,-9.5 136.14,-9.5 144.65,-9.5"/>
<polygon fill="#63b8ff" stroke="#63b8ff" points="144.89,-13 154.89,-9.5 144.89,-6 144.89,-13"/>
</g>
<!-- Node3 -->
<g id="node3" class="node">
<title>Node3</title>
<g id="a_node3"><a xlink:href="namespacem__stl.html#a1a3f9ab27b76b9250b0fc3c8209ed655" target="_top" xlink:title=" ">
<polygon fill="white" stroke="#666666" points="395,-19 298,-19 298,0 395,0 395,-19"/>
<text text-anchor="middle" x="346.5" y="-7" font-family="Helvetica,sans-Serif" font-size="10.00">m_stl::crossprod</text>
</a>
</g>
</g>
<!-- Node2&#45;&gt;Node3 -->
<g id="edge2" class="edge">
<title>Node2&#45;&gt;Node3</title>
<path fill="none" stroke="#63b8ff" d="M262.08,-9.5C270.48,-9.5 279.2,-9.5 287.71,-9.5"/>
<polygon fill="#63b8ff" stroke="#63b8ff" points="287.95,-13 297.95,-9.5 287.95,-6 287.95,-13"/>
</g>
</g>
</svg>
