<?xml version="1.0" encoding="UTF-8" standalone="no"?>
<!DOCTYPE svg PUBLIC "-//W3C//DTD SVG 1.1//EN"
 "http://www.w3.org/Graphics/SVG/1.1/DTD/svg11.dtd">
<!-- Generated by graphviz version 2.43.0 (0)
 -->
<!-- Title: m_patches::f_r Pages: 1 -->
<svg width="481pt" height="56pt"
 viewBox="0.00 0.00 481.00 56.00" xmlns="http://www.w3.org/2000/svg" xmlns:xlink="http://www.w3.org/1999/xlink">

<svg id="main" version="1.1" xmlns="http://www.w3.org/2000/svg" xmlns:xlink="http://www.w3.org/1999/xlink" xml:space="preserve" onload="init(evt)">
<style type="text/css"><![CDATA[
.node, .edge {opacity: 0.7;}
.node.selected, .edge.selected {opacity: 1;}
.edge:hover path { stroke: red; }
.edge:hover polygon { stroke: red; fill: red; }
]]></style>
<script type="application/ecmascript" xlink:href="svg.min.js"/>
<svg id="graph" class="graph">
<g id="graph0" class="graph" transform="scale(1 1) rotate(0) translate(4 52)">
<title>m_patches::f_r</title>
<!-- Node1 -->
<g id="Node000001" class="node">
<title>Node1</title>
<g id="a_Node000001"><a xlink:title="Archimedes spiral function.">
<polygon fill="#999999" stroke="#666666" points="473,-30 384,-30 384,-11 473,-11 473,-30"/>
<text text-anchor="middle" x="428.5" y="-18" font-family="Helvetica,sans-Serif" font-size="10.00">m_patches::f_r</text>
</a>
</g>
</g>
<!-- Node1&#45;&gt;Node1 -->
<g id="edge1_Node000001_Node000001" class="edge">
<title>Node1&#45;&gt;Node1</title>
<g id="a_edge1_Node000001_Node000001"><a xlink:title=" ">
<path fill="none" stroke="#63b8ff" d="M453.8,-39.19C452.42,-44.2 443.99,-48 428.5,-48 404.33,-48 397.34,-38.73 407.54,-30.08"/>
<polygon fill="#63b8ff" stroke="#63b8ff" points="456.92,-37.61 449.46,-30.08 450.6,-40.62 456.92,-37.61"/>
</a>
</g>
</g>
<!-- Node2 -->
<g id="Node000002" class="node">
<title>Node2</title>
<g id="a_Node000002"><a xlink:href="namespacem__patches.html#af9b0318710825d616d4d03361fd4d88b" target="_top" xlink:title="The spiral patch is a 2D geometry that may be used, The geometry of the patch is well&#45;defined when it...">
<polygon fill="white" stroke="#666666" points="348,-30 235,-30 235,-11 348,-11 348,-30"/>
<text text-anchor="middle" x="291.5" y="-18" font-family="Helvetica,sans-Serif" font-size="10.00">m_patches::s_spiral</text>
</a>
</g>
</g>
<!-- Node1&#45;&gt;Node2 -->
<g id="edge2_Node000001_Node000002" class="edge">
<title>Node1&#45;&gt;Node2</title>
<g id="a_edge2_Node000001_Node000002"><a xlink:title=" ">
<path fill="none" stroke="#63b8ff" d="M373.43,-20.5C365.2,-20.5 356.69,-20.5 348.43,-20.5"/>
<polygon fill="#63b8ff" stroke="#63b8ff" points="373.67,-24 383.67,-20.5 373.67,-17 373.67,-24"/>
</a>
</g>
</g>
<!-- Node3 -->
<g id="Node000003" class="node">
<title>Node3</title>
<g id="a_Node000003"><a xlink:href="namespacem__initial__condition.html#aa74a70029e3ec0fd3225b369e7c5443e" target="_top" xlink:title="This subroutine peruses the patches and depending on the type of geometry associated with a particula...">
<polygon fill="white" stroke="#666666" points="199,-41 89,-41 89,0 199,0 199,-41"/>
<text text-anchor="start" x="97" y="-29" font-family="Helvetica,sans-Serif" font-size="10.00">m_initial_condition</text>
<text text-anchor="start" x="97" y="-18" font-family="Helvetica,sans-Serif" font-size="10.00">::s_generate_initial</text>
<text text-anchor="middle" x="144" y="-7" font-family="Helvetica,sans-Serif" font-size="10.00">_condition</text>
</a>
</g>
</g>
<!-- Node2&#45;&gt;Node3 -->
<g id="edge3_Node000002_Node000003" class="edge">
<title>Node2&#45;&gt;Node3</title>
<g id="a_edge3_Node000002_Node000003"><a xlink:title=" ">
<path fill="none" stroke="#63b8ff" d="M224.39,-20.5C215.9,-20.5 207.28,-20.5 199.01,-20.5"/>
<polygon fill="#63b8ff" stroke="#63b8ff" points="224.66,-24 234.66,-20.5 224.66,-17 224.66,-24"/>
</a>
</g>
</g>
<!-- Node4 -->
<g id="Node000004" class="node">
<title>Node4</title>
<g id="a_Node000004"><a xlink:href="p__main_8f90.html#aeec10ee8e2940c953967da3e374e1579" target="_top" xlink:title="This program takes care of setting up the initial condition and grid data for the multicomponent flow...">
<polygon fill="white" stroke="#666666" points="53,-30 0,-30 0,-11 53,-11 53,-30"/>
<text text-anchor="middle" x="26.5" y="-18" font-family="Helvetica,sans-Serif" font-size="10.00">p_main</text>
</a>
</g>
</g>
<!-- Node3&#45;&gt;Node4 -->
<g id="edge4_Node000003_Node000004" class="edge">
<title>Node3&#45;&gt;Node4</title>
<g id="a_edge4_Node000003_Node000004"><a xlink:title=" ">
<path fill="none" stroke="#63b8ff" d="M78.76,-20.5C69.75,-20.5 60.95,-20.5 53.26,-20.5"/>
<polygon fill="#63b8ff" stroke="#63b8ff" points="78.97,-24 88.97,-20.5 78.97,-17 78.97,-24"/>
</a>
</g>
</g>
</g>
</svg>
</svg>

<style type='text/css'>
<![CDATA[
[data-mouse-over-selected='false'] { opacity: 0.7; }
[data-mouse-over-selected='true']  { opacity: 1.0; }
]]>
</style>
<script type="application/ecmascript"><![CDATA[
document.addEventListener('DOMContentLoaded', (event) => {
  highlightEdges();
  highlightAdjacentNodes();
});
]]></script>
</svg>
