<?xml version="1.0" encoding="UTF-8" standalone="no"?>
<!DOCTYPE svg PUBLIC "-//W3C//DTD SVG 1.1//EN"
 "http://www.w3.org/Graphics/SVG/1.1/DTD/svg11.dtd">
<!-- Generated by graphviz version 2.43.0 (0)
 -->
<!-- Title: m_start_up::s_check_input_file Pages: 1 -->
<svg width="486pt" height="1220pt"
 viewBox="0.00 0.00 486.00 1219.50" xmlns="http://www.w3.org/2000/svg" xmlns:xlink="http://www.w3.org/1999/xlink">
<g id="graph0" class="graph" transform="scale(1 1) rotate(0) translate(4 1215.5)">
<title>m_start_up::s_check_input_file</title>
<!-- Node1 -->
<g id="node1" class="node">
<title>Node1</title>
<g id="a_node1"><a xlink:title="Checking that the user inputs make sense, i.e. that the individual choices are compatible with the co...">
<polygon fill="#bfbfbf" stroke="black" points="0,-591.5 0,-621.5 116,-621.5 116,-591.5 0,-591.5"/>
<text text-anchor="start" x="8" y="-609.5" font-family="Helvetica,sans-Serif" font-size="10.00">m_start_up::s_check</text>
<text text-anchor="middle" x="58" y="-598.5" font-family="Helvetica,sans-Serif" font-size="10.00">_input_file</text>
</a>
</g>
</g>
<!-- Node2 -->
<g id="node2" class="node">
<title>Node2</title>
<g id="a_node2"><a xlink:href="namespacem__start__up.html#a2c3f4c2fe04814a924bff26228516a39" target="_top" xlink:title="This subroutine verifies that the geometric parameters of the analytical patch have consistently been...">
<polygon fill="none" stroke="black" points="178.5,-1170 178.5,-1211 297.5,-1211 297.5,-1170 178.5,-1170"/>
<text text-anchor="start" x="186.5" y="-1199" font-family="Helvetica,sans-Serif" font-size="10.00">m_start_up::s_check</text>
<text text-anchor="start" x="186.5" y="-1188" font-family="Helvetica,sans-Serif" font-size="10.00">_1d_analytical_patch</text>
<text text-anchor="middle" x="238" y="-1177" font-family="Helvetica,sans-Serif" font-size="10.00">_geometry</text>
</a>
</g>
</g>
<!-- Node1&#45;&gt;Node2 -->
<g id="edge1" class="edge">
<title>Node1&#45;&gt;Node2</title>
<path fill="none" stroke="midnightblue" d="M59.63,-621.68C63.19,-701.19 83.22,-1069.39 152,-1155.5 156.72,-1161.42 162.62,-1166.34 169.08,-1170.44"/>
<polygon fill="midnightblue" stroke="midnightblue" points="167.76,-1173.71 178.2,-1175.53 171.17,-1167.6 167.76,-1173.71"/>
</g>
<!-- Node3 -->
<g id="node3" class="node">
<title>Node3</title>
<g id="a_node3"><a xlink:href="namespacem__mpi__proxy.html#a04ac565bad2b22dc045a5eeb4f516e2e" target="_top" xlink:title="The subroutine terminates the MPI execution environment.">
<polygon fill="none" stroke="black" points="360,-591.5 360,-621.5 478,-621.5 478,-591.5 360,-591.5"/>
<text text-anchor="start" x="368" y="-609.5" font-family="Helvetica,sans-Serif" font-size="10.00">m_mpi_proxy::s_mpi</text>
<text text-anchor="middle" x="419" y="-598.5" font-family="Helvetica,sans-Serif" font-size="10.00">_abort</text>
</a>
</g>
</g>
<!-- Node1&#45;&gt;Node3 -->
<g id="edge45" class="edge">
<title>Node1&#45;&gt;Node3</title>
<path fill="none" stroke="midnightblue" d="M59.24,-621.54C60.84,-699.43 72.47,-1056.02 152,-1122.5 210.65,-1171.53 265.3,-1171.47 324,-1122.5 400.59,-1058.6 414.93,-726.18 417.48,-631.62"/>
<polygon fill="midnightblue" stroke="midnightblue" points="420.98,-631.62 417.73,-621.54 413.98,-631.45 420.98,-631.62"/>
</g>
<!-- Node4 -->
<g id="node4" class="node">
<title>Node4</title>
<g id="a_node4"><a xlink:href="namespacem__start__up.html#a0acb93e848d6dd38e617d4870a9b9261" target="_top" xlink:title="This subroutine verifies that the geometric parameters of the analytical patch have consistently been...">
<polygon fill="none" stroke="black" points="178.5,-1072 178.5,-1113 297.5,-1113 297.5,-1072 178.5,-1072"/>
<text text-anchor="start" x="186.5" y="-1101" font-family="Helvetica,sans-Serif" font-size="10.00">m_start_up::s_check</text>
<text text-anchor="start" x="186.5" y="-1090" font-family="Helvetica,sans-Serif" font-size="10.00">_2d_analytical_patch</text>
<text text-anchor="middle" x="238" y="-1079" font-family="Helvetica,sans-Serif" font-size="10.00">_geometry</text>
</a>
</g>
</g>
<!-- Node1&#45;&gt;Node4 -->
<g id="edge3" class="edge">
<title>Node1&#45;&gt;Node4</title>
<path fill="none" stroke="midnightblue" d="M60.14,-621.92C65.7,-693.65 92.31,-993.95 152,-1062.5 156.8,-1068.02 162.69,-1072.52 169.1,-1076.2"/>
<polygon fill="midnightblue" stroke="midnightblue" points="167.6,-1079.36 178.11,-1080.71 170.74,-1073.1 167.6,-1079.36"/>
</g>
<!-- Node5 -->
<g id="node5" class="node">
<title>Node5</title>
<g id="a_node5"><a xlink:href="namespacem__start__up.html#a936948a39ac13e74203588cae06b325f" target="_top" xlink:title="This subroutine verifies that the geometric parameters of the analytical patch have consistently been...">
<polygon fill="none" stroke="black" points="178.5,-1012 178.5,-1053 297.5,-1053 297.5,-1012 178.5,-1012"/>
<text text-anchor="start" x="186.5" y="-1041" font-family="Helvetica,sans-Serif" font-size="10.00">m_start_up::s_check</text>
<text text-anchor="start" x="186.5" y="-1030" font-family="Helvetica,sans-Serif" font-size="10.00">_3d_analytical_patch</text>
<text text-anchor="middle" x="238" y="-1019" font-family="Helvetica,sans-Serif" font-size="10.00">_geometry</text>
</a>
</g>
</g>
<!-- Node1&#45;&gt;Node5 -->
<g id="edge5" class="edge">
<title>Node1&#45;&gt;Node5</title>
<path fill="none" stroke="midnightblue" d="M60.62,-621.62C67.88,-686.9 99.43,-943.88 152,-1002.5 156.88,-1007.95 162.82,-1012.4 169.26,-1016.05"/>
<polygon fill="midnightblue" stroke="midnightblue" points="167.79,-1019.23 178.3,-1020.54 170.9,-1012.96 167.79,-1019.23"/>
</g>
<!-- Node6 -->
<g id="node6" class="node">
<title>Node6</title>
<g id="a_node6"><a xlink:href="namespacem__start__up.html#ada150cf67ef5f91529ac7eda46ad5492" target="_top" xlink:title="This subroutine verifies that any rights granted to the given active patch, to overwrite the precedin...">
<polygon fill="none" stroke="black" points="169.5,-952 169.5,-993 306.5,-993 306.5,-952 169.5,-952"/>
<text text-anchor="start" x="177.5" y="-981" font-family="Helvetica,sans-Serif" font-size="10.00">m_start_up::s_check</text>
<text text-anchor="start" x="177.5" y="-970" font-family="Helvetica,sans-Serif" font-size="10.00">_active_patch_alteration</text>
<text text-anchor="middle" x="238" y="-959" font-family="Helvetica,sans-Serif" font-size="10.00">_rights</text>
</a>
</g>
</g>
<!-- Node1&#45;&gt;Node6 -->
<g id="edge7" class="edge">
<title>Node1&#45;&gt;Node6</title>
<path fill="none" stroke="midnightblue" d="M58.57,-621.54C57.92,-673.42 62.81,-846.91 152,-942.5 154.61,-945.3 157.49,-947.83 160.58,-950.13"/>
<polygon fill="midnightblue" stroke="midnightblue" points="158.86,-953.19 169.16,-955.68 162.67,-947.31 158.86,-953.19"/>
</g>
<!-- Node7 -->
<g id="node7" class="node">
<title>Node7</title>
<g id="a_node7"><a xlink:href="namespacem__start__up.html#a2650f87062992def80eb084ff2c0913b" target="_top" xlink:title="This subroutine verifies that the primitive variables associated with the given active patch are phys...">
<polygon fill="none" stroke="black" points="171,-892 171,-933 305,-933 305,-892 171,-892"/>
<text text-anchor="start" x="179" y="-921" font-family="Helvetica,sans-Serif" font-size="10.00">m_start_up::s_check</text>
<text text-anchor="start" x="179" y="-910" font-family="Helvetica,sans-Serif" font-size="10.00">_active_patch_primitive</text>
<text text-anchor="middle" x="238" y="-899" font-family="Helvetica,sans-Serif" font-size="10.00">_variables</text>
</a>
</g>
</g>
<!-- Node1&#45;&gt;Node7 -->
<g id="edge9" class="edge">
<title>Node1&#45;&gt;Node7</title>
<path fill="none" stroke="midnightblue" d="M59.65,-621.72C62.42,-667.64 76.92,-806.34 152,-882.5 155.03,-885.57 158.39,-888.33 161.98,-890.81"/>
<polygon fill="midnightblue" stroke="midnightblue" points="160.34,-893.91 170.71,-896.09 163.96,-887.92 160.34,-893.91"/>
</g>
<!-- Node8 -->
<g id="node8" class="node">
<title>Node8</title>
<g id="a_node8"><a xlink:href="namespacem__start__up.html#a2ab9d448e20b9f9b5db3adbb28e011fe" target="_top" xlink:title="This subroutine verifies that the geometric parameters of the circle patch have consistently been inp...">
<polygon fill="none" stroke="black" points="171.5,-842.5 171.5,-872.5 304.5,-872.5 304.5,-842.5 171.5,-842.5"/>
<text text-anchor="start" x="179.5" y="-860.5" font-family="Helvetica,sans-Serif" font-size="10.00">m_start_up::s_check</text>
<text text-anchor="middle" x="238" y="-849.5" font-family="Helvetica,sans-Serif" font-size="10.00">_circle_patch_geometry</text>
</a>
</g>
</g>
<!-- Node1&#45;&gt;Node8 -->
<g id="edge11" class="edge">
<title>Node1&#45;&gt;Node8</title>
<path fill="none" stroke="midnightblue" d="M60.65,-621.52C65.92,-662.07 86.06,-774.66 152,-833.5 155.07,-836.24 158.42,-838.66 161.97,-840.81"/>
<polygon fill="midnightblue" stroke="midnightblue" points="160.66,-844.08 171.15,-845.61 163.91,-837.88 160.66,-844.08"/>
</g>
<!-- Node9 -->
<g id="node9" class="node">
<title>Node9</title>
<g id="a_node9"><a xlink:href="namespacem__start__up.html#ac9af27b20bc2249e7c015c76061b5515" target="_top" xlink:title="This subroutine verifies that the geometric parameters of the cuboid patch have consistently been inp...">
<polygon fill="none" stroke="black" points="168.5,-793.5 168.5,-823.5 307.5,-823.5 307.5,-793.5 168.5,-793.5"/>
<text text-anchor="start" x="176.5" y="-811.5" font-family="Helvetica,sans-Serif" font-size="10.00">m_start_up::s_check</text>
<text text-anchor="middle" x="238" y="-800.5" font-family="Helvetica,sans-Serif" font-size="10.00">_cuboid_patch_geometry</text>
</a>
</g>
</g>
<!-- Node1&#45;&gt;Node9 -->
<g id="edge13" class="edge">
<title>Node1&#45;&gt;Node9</title>
<path fill="none" stroke="midnightblue" d="M62.57,-621.76C71.43,-656.2 97.74,-740.42 152,-784.5 154.29,-786.36 156.71,-788.07 159.24,-789.65"/>
<polygon fill="midnightblue" stroke="midnightblue" points="157.71,-792.81 168.17,-794.54 161.07,-786.67 157.71,-792.81"/>
</g>
<!-- Node10 -->
<g id="node10" class="node">
<title>Node10</title>
<g id="a_node10"><a xlink:href="namespacem__start__up.html#ad6c503541113565dcac0b49b11ff3afb" target="_top" xlink:title="This subroutine verifies that the geometric parameters of the cylinder patch have consistently been i...">
<polygon fill="none" stroke="black" points="165,-744.5 165,-774.5 311,-774.5 311,-744.5 165,-744.5"/>
<text text-anchor="start" x="173" y="-762.5" font-family="Helvetica,sans-Serif" font-size="10.00">m_start_up::s_check</text>
<text text-anchor="middle" x="238" y="-751.5" font-family="Helvetica,sans-Serif" font-size="10.00">_cylinder_patch_geometry</text>
</a>
</g>
</g>
<!-- Node1&#45;&gt;Node10 -->
<g id="edge15" class="edge">
<title>Node1&#45;&gt;Node10</title>
<path fill="none" stroke="midnightblue" d="M65.79,-621.8C78.61,-648.93 109.02,-705.42 152,-735.5 154.14,-737 156.38,-738.41 158.68,-739.73"/>
<polygon fill="midnightblue" stroke="midnightblue" points="157.38,-742.99 167.88,-744.39 160.55,-736.75 157.38,-742.99"/>
</g>
<!-- Node11 -->
<g id="node11" class="node">
<title>Node11</title>
<g id="a_node11"><a xlink:href="namespacem__start__up.html#a51ddc16cb3379a50fbf2957e47dbb7d5" target="_top" xlink:title="This subroutine verifies that the geometric parameters of the ellipse patch have consistently been in...">
<polygon fill="none" stroke="black" points="168.5,-695.5 168.5,-725.5 307.5,-725.5 307.5,-695.5 168.5,-695.5"/>
<text text-anchor="start" x="176.5" y="-713.5" font-family="Helvetica,sans-Serif" font-size="10.00">m_start_up::s_check</text>
<text text-anchor="middle" x="238" y="-702.5" font-family="Helvetica,sans-Serif" font-size="10.00">_ellipse_patch_geometry</text>
</a>
</g>
</g>
<!-- Node1&#45;&gt;Node11 -->
<g id="edge17" class="edge">
<title>Node1&#45;&gt;Node11</title>
<path fill="none" stroke="midnightblue" d="M72.64,-621.72C89.56,-639.71 120.1,-669.37 152,-686.5 155.47,-688.36 159.1,-690.1 162.83,-691.7"/>
<polygon fill="midnightblue" stroke="midnightblue" points="161.65,-695 172.24,-695.45 164.24,-688.5 161.65,-695"/>
</g>
<!-- Node12 -->
<g id="node12" class="node">
<title>Node12</title>
<g id="a_node12"><a xlink:href="namespacem__start__up.html#a9cb00dcfe248d67b64c361ac57b6a269" target="_top" xlink:title="This subroutine verifies that the geometric parameters of the ellipsoid patch have consistently been ...">
<polygon fill="none" stroke="black" points="164,-646.5 164,-676.5 312,-676.5 312,-646.5 164,-646.5"/>
<text text-anchor="start" x="172" y="-664.5" font-family="Helvetica,sans-Serif" font-size="10.00">m_start_up::s_check</text>
<text text-anchor="middle" x="238" y="-653.5" font-family="Helvetica,sans-Serif" font-size="10.00">_ellipsoid_patch_geometry</text>
</a>
</g>
</g>
<!-- Node1&#45;&gt;Node12 -->
<g id="edge19" class="edge">
<title>Node1&#45;&gt;Node12</title>
<path fill="none" stroke="midnightblue" d="M104.81,-621.54C119.82,-626.4 136.6,-631.75 152,-636.5 159.44,-638.79 167.26,-641.16 175.03,-643.48"/>
<polygon fill="midnightblue" stroke="midnightblue" points="174.21,-646.88 184.79,-646.38 176.2,-640.17 174.21,-646.88"/>
</g>
<!-- Node13 -->
<g id="node13" class="node">
<title>Node13</title>
<g id="a_node13"><a xlink:href="namespacem__start__up.html#a3bf3a6bd18c4f5c2e4aefec6ad9664d8" target="_top" xlink:title="This subroutine verifies that the rights of the given inactive patch, to overwrite the preceding patc...">
<polygon fill="none" stroke="black" points="165,-586 165,-627 311,-627 311,-586 165,-586"/>
<text text-anchor="start" x="173" y="-615" font-family="Helvetica,sans-Serif" font-size="10.00">m_start_up::s_check</text>
<text text-anchor="start" x="173" y="-604" font-family="Helvetica,sans-Serif" font-size="10.00">_inactive_patch_alteration</text>
<text text-anchor="middle" x="238" y="-593" font-family="Helvetica,sans-Serif" font-size="10.00">_rights</text>
</a>
</g>
</g>
<!-- Node1&#45;&gt;Node13 -->
<g id="edge21" class="edge">
<title>Node1&#45;&gt;Node13</title>
<path fill="none" stroke="midnightblue" d="M116.3,-606.5C128.49,-606.5 141.59,-606.5 154.51,-606.5"/>
<polygon fill="midnightblue" stroke="midnightblue" points="154.81,-610 164.81,-606.5 154.81,-603 154.81,-610"/>
</g>
<!-- Node14 -->
<g id="node14" class="node">
<title>Node14</title>
<g id="a_node14"><a xlink:href="namespacem__start__up.html#a1a6b2eb124c5710f9078ea787be5d650" target="_top" xlink:title="This subroutine verifies that the geometric parameters of the inactive patch remain unaltered by the ...">
<polygon fill="none" stroke="black" points="165,-536.5 165,-566.5 311,-566.5 311,-536.5 165,-536.5"/>
<text text-anchor="start" x="173" y="-554.5" font-family="Helvetica,sans-Serif" font-size="10.00">m_start_up::s_check</text>
<text text-anchor="middle" x="238" y="-543.5" font-family="Helvetica,sans-Serif" font-size="10.00">_inactive_patch_geometry</text>
</a>
</g>
</g>
<!-- Node1&#45;&gt;Node14 -->
<g id="edge23" class="edge">
<title>Node1&#45;&gt;Node14</title>
<path fill="none" stroke="midnightblue" d="M104.81,-591.46C119.82,-586.6 136.6,-581.25 152,-576.5 159.44,-574.21 167.26,-571.84 175.03,-569.52"/>
<polygon fill="midnightblue" stroke="midnightblue" points="176.2,-572.83 184.79,-566.62 174.21,-566.12 176.2,-572.83"/>
</g>
<!-- Node15 -->
<g id="node15" class="node">
<title>Node15</title>
<g id="a_node15"><a xlink:href="namespacem__start__up.html#a3242a22615c7f69033b53d51df04ad02" target="_top" xlink:title="This subroutine verifies that the primitive variables associated with the given inactive patch remain...">
<polygon fill="none" stroke="black" points="166.5,-476 166.5,-517 309.5,-517 309.5,-476 166.5,-476"/>
<text text-anchor="start" x="174.5" y="-505" font-family="Helvetica,sans-Serif" font-size="10.00">m_start_up::s_check</text>
<text text-anchor="start" x="174.5" y="-494" font-family="Helvetica,sans-Serif" font-size="10.00">_inactive_patch_primitive</text>
<text text-anchor="middle" x="238" y="-483" font-family="Helvetica,sans-Serif" font-size="10.00">_variables</text>
</a>
</g>
</g>
<!-- Node1&#45;&gt;Node15 -->
<g id="edge25" class="edge">
<title>Node1&#45;&gt;Node15</title>
<path fill="none" stroke="midnightblue" d="M73.51,-591.26C90.8,-573.83 121.24,-545.4 152,-527.5 155.67,-525.37 159.5,-523.34 163.44,-521.42"/>
<polygon fill="midnightblue" stroke="midnightblue" points="165.13,-524.49 172.75,-517.13 162.2,-518.13 165.13,-524.49"/>
</g>
<!-- Node16 -->
<g id="node16" class="node">
<title>Node16</title>
<g id="a_node16"><a xlink:href="namespacem__start__up.html#a3fe683c4126d72deba7f8daf1ad83b94" target="_top" xlink:title="This subroutine verifies that the geometric parameters of the isentropic vortex patch have been enter...">
<polygon fill="none" stroke="black" points="168.5,-416 168.5,-457 307.5,-457 307.5,-416 168.5,-416"/>
<text text-anchor="start" x="176.5" y="-445" font-family="Helvetica,sans-Serif" font-size="10.00">m_start_up::s_check</text>
<text text-anchor="start" x="176.5" y="-434" font-family="Helvetica,sans-Serif" font-size="10.00">_isentropic_vortex_patch</text>
<text text-anchor="middle" x="238" y="-423" font-family="Helvetica,sans-Serif" font-size="10.00">_geometry</text>
</a>
</g>
</g>
<!-- Node1&#45;&gt;Node16 -->
<g id="edge27" class="edge">
<title>Node1&#45;&gt;Node16</title>
<path fill="none" stroke="midnightblue" d="M65.24,-591.08C77.59,-562.47 107.81,-500.93 152,-466.5 154.31,-464.7 156.75,-463 159.27,-461.39"/>
<polygon fill="midnightblue" stroke="midnightblue" points="161.19,-464.33 168.12,-456.32 157.71,-458.25 161.19,-464.33"/>
</g>
<!-- Node17 -->
<g id="node17" class="node">
<title>Node17</title>
<g id="a_node17"><a xlink:href="namespacem__start__up.html#a9a3e975da11ddbbabdf66a66ff9167d1" target="_top" xlink:title="This subroutine verifies that the geometric parameters of the line segment patch have consistently be...">
<polygon fill="none" stroke="black" points="178,-356 178,-397 298,-397 298,-356 178,-356"/>
<text text-anchor="start" x="186" y="-385" font-family="Helvetica,sans-Serif" font-size="10.00">m_start_up::s_check</text>
<text text-anchor="start" x="186" y="-374" font-family="Helvetica,sans-Serif" font-size="10.00">_line_segment_patch</text>
<text text-anchor="middle" x="238" y="-363" font-family="Helvetica,sans-Serif" font-size="10.00">_geometry</text>
</a>
</g>
</g>
<!-- Node1&#45;&gt;Node17 -->
<g id="edge29" class="edge">
<title>Node1&#45;&gt;Node17</title>
<path fill="none" stroke="midnightblue" d="M61.85,-591.33C69.57,-554.37 94.32,-458.9 152,-406.5 156.98,-401.98 162.69,-398.12 168.73,-394.85"/>
<polygon fill="midnightblue" stroke="midnightblue" points="170.33,-397.97 177.79,-390.45 167.27,-391.67 170.33,-397.97"/>
</g>
<!-- Node18 -->
<g id="node18" class="node">
<title>Node18</title>
<g id="a_node18"><a xlink:href="namespacem__start__up.html#af838464749f53bf064afdba3c261ac83" target="_top" xlink:title="This subroutine verifies that the geometric parameters of the line sweep patch have consistently been...">
<polygon fill="none" stroke="black" points="157.5,-306.5 157.5,-336.5 318.5,-336.5 318.5,-306.5 157.5,-306.5"/>
<text text-anchor="start" x="165.5" y="-324.5" font-family="Helvetica,sans-Serif" font-size="10.00">m_start_up::s_check</text>
<text text-anchor="middle" x="238" y="-313.5" font-family="Helvetica,sans-Serif" font-size="10.00">_line_sweep_patch_geometry</text>
</a>
</g>
</g>
<!-- Node1&#45;&gt;Node18 -->
<g id="edge31" class="edge">
<title>Node1&#45;&gt;Node18</title>
<path fill="none" stroke="midnightblue" d="M59.82,-591.35C63.04,-546.92 78.62,-415.78 152,-346.5 153.68,-344.91 155.46,-343.43 157.31,-342.03"/>
<polygon fill="midnightblue" stroke="midnightblue" points="159.38,-344.86 165.9,-336.51 155.6,-338.98 159.38,-344.86"/>
</g>
<!-- Node19 -->
<g id="node19" class="node">
<title>Node19</title>
<g id="a_node19"><a xlink:href="namespacem__start__up.html#aae294c405210613a2466358f3af3fd90" target="_top" xlink:title="This subroutine verifies that the geometric parameters of the plane sweep patch have consistently bee...">
<polygon fill="none" stroke="black" points="153,-257.5 153,-287.5 323,-287.5 323,-257.5 153,-257.5"/>
<text text-anchor="start" x="161" y="-275.5" font-family="Helvetica,sans-Serif" font-size="10.00">m_start_up::s_check</text>
<text text-anchor="middle" x="238" y="-264.5" font-family="Helvetica,sans-Serif" font-size="10.00">_plane_sweep_patch_geometry</text>
</a>
</g>
</g>
<!-- Node1&#45;&gt;Node19 -->
<g id="edge33" class="edge">
<title>Node1&#45;&gt;Node19</title>
<path fill="none" stroke="midnightblue" d="M58.82,-591.45C59.07,-541.9 66.76,-382.2 152,-297.5 153.47,-296.04 155.03,-294.66 156.65,-293.36"/>
<polygon fill="midnightblue" stroke="midnightblue" points="158.96,-296.02 165.27,-287.51 155.03,-290.23 158.96,-296.02"/>
</g>
<!-- Node20 -->
<g id="node20" class="node">
<title>Node20</title>
<g id="a_node20"><a xlink:href="namespacem__start__up.html#a038565f6f0f4ed12a0a3738ab880f507" target="_top" xlink:title="This subroutine verifies that the geometric parameters of the rectangle patch have consistently been ...">
<polygon fill="none" stroke="black" points="162,-208.5 162,-238.5 314,-238.5 314,-208.5 162,-208.5"/>
<text text-anchor="start" x="170" y="-226.5" font-family="Helvetica,sans-Serif" font-size="10.00">m_start_up::s_check</text>
<text text-anchor="middle" x="238" y="-215.5" font-family="Helvetica,sans-Serif" font-size="10.00">_rectangle_patch_geometry</text>
</a>
</g>
</g>
<!-- Node1&#45;&gt;Node20 -->
<g id="edge35" class="edge">
<title>Node1&#45;&gt;Node20</title>
<path fill="none" stroke="midnightblue" d="M60.97,-591.11C69.19,-529.24 102.63,-299.47 152,-248.5 153.4,-247.05 154.89,-245.68 156.44,-244.39"/>
<polygon fill="midnightblue" stroke="midnightblue" points="158.54,-247.2 164.71,-238.58 154.51,-241.47 158.54,-247.2"/>
</g>
<!-- Node21 -->
<g id="node21" class="node">
<title>Node21</title>
<g id="a_node21"><a xlink:href="namespacem__start__up.html#a3bc334d434726c8cdba2f5d611ec4d42" target="_top" xlink:title="This subroutine verifies that the geometric parameters of the sphere patch have consistently been inp...">
<polygon fill="none" stroke="black" points="168,-159.5 168,-189.5 308,-189.5 308,-159.5 168,-159.5"/>
<text text-anchor="start" x="176" y="-177.5" font-family="Helvetica,sans-Serif" font-size="10.00">m_start_up::s_check</text>
<text text-anchor="middle" x="238" y="-166.5" font-family="Helvetica,sans-Serif" font-size="10.00">_sphere_patch_geometry</text>
</a>
</g>
</g>
<!-- Node1&#45;&gt;Node21 -->
<g id="edge37" class="edge">
<title>Node1&#45;&gt;Node21</title>
<path fill="none" stroke="midnightblue" d="M60.43,-591.34C67.03,-524.7 96.51,-258.51 152,-199.5 154.12,-197.24 156.44,-195.18 158.91,-193.31"/>
<polygon fill="midnightblue" stroke="midnightblue" points="161.27,-195.95 167.8,-187.61 157.49,-190.06 161.27,-195.95"/>
</g>
<!-- Node22 -->
<g id="node22" class="node">
<title>Node22</title>
<g id="a_node22"><a xlink:href="namespacem__start__up.html#a59bfdd1a0d03041d57f7f9e7e1a38a97" target="_top" xlink:title="This subroutine verifies that the geometric parameters of the spherical harmonic patch have consisten...">
<polygon fill="none" stroke="black" points="179.5,-99 179.5,-140 296.5,-140 296.5,-99 179.5,-99"/>
<text text-anchor="start" x="187.5" y="-128" font-family="Helvetica,sans-Serif" font-size="10.00">m_start_up::s_check</text>
<text text-anchor="start" x="187.5" y="-117" font-family="Helvetica,sans-Serif" font-size="10.00">_spherical_harmonic</text>
<text text-anchor="middle" x="238" y="-106" font-family="Helvetica,sans-Serif" font-size="10.00">_patch_geometry</text>
</a>
</g>
</g>
<!-- Node1&#45;&gt;Node22 -->
<g id="edge39" class="edge">
<title>Node1&#45;&gt;Node22</title>
<path fill="none" stroke="midnightblue" d="M60.15,-591.09C65.79,-519.43 92.67,-219.36 152,-150.5 157.12,-144.56 163.47,-139.76 170.39,-135.87"/>
<polygon fill="midnightblue" stroke="midnightblue" points="171.97,-138.99 179.39,-131.43 168.88,-132.72 171.97,-138.99"/>
</g>
<!-- Node23 -->
<g id="node23" class="node">
<title>Node23</title>
<g id="a_node23"><a xlink:href="namespacem__start__up.html#a06fc233527470088dcf63425fc758b8c" target="_top" xlink:title="This subroutine verifies that the smoothing parameters of the given patch, which supports the smoothi...">
<polygon fill="none" stroke="black" points="158,-49.5 158,-79.5 318,-79.5 318,-49.5 158,-49.5"/>
<text text-anchor="start" x="166" y="-67.5" font-family="Helvetica,sans-Serif" font-size="10.00">m_start_up::s_check</text>
<text text-anchor="middle" x="238" y="-56.5" font-family="Helvetica,sans-Serif" font-size="10.00">_supported_patch_smoothing</text>
</a>
</g>
</g>
<!-- Node1&#45;&gt;Node23 -->
<g id="edge41" class="edge">
<title>Node1&#45;&gt;Node23</title>
<path fill="none" stroke="midnightblue" d="M59.64,-591.32C63.17,-514.22 82.79,-166.62 152,-89.5 153.2,-88.16 154.47,-86.89 155.8,-85.69"/>
<polygon fill="midnightblue" stroke="midnightblue" points="158.11,-88.33 163.98,-79.51 153.89,-82.75 158.11,-88.33"/>
</g>
<!-- Node24 -->
<g id="node24" class="node">
<title>Node24</title>
<g id="a_node24"><a xlink:href="namespacem__start__up.html#a9ec1a8955422d87dddd1ad55f99fb9b8" target="_top" xlink:title="This subroutine verifies that the smoothing parameters of the given patch, which does not support the...">
<polygon fill="none" stroke="black" points="152,-0.5 152,-30.5 324,-30.5 324,-0.5 152,-0.5"/>
<text text-anchor="start" x="160" y="-18.5" font-family="Helvetica,sans-Serif" font-size="10.00">m_start_up::s_check</text>
<text text-anchor="middle" x="238" y="-7.5" font-family="Helvetica,sans-Serif" font-size="10.00">_unsupported_patch_smoothing</text>
</a>
</g>
</g>
<!-- Node1&#45;&gt;Node24 -->
<g id="edge43" class="edge">
<title>Node1&#45;&gt;Node24</title>
<path fill="none" stroke="midnightblue" d="M59.38,-591.26C61.72,-509.74 76.66,-125.75 152,-40.5 153.05,-39.31 154.15,-38.18 155.31,-37.1"/>
<polygon fill="midnightblue" stroke="midnightblue" points="157.78,-39.61 163.53,-30.7 153.48,-34.08 157.78,-39.61"/>
</g>
<!-- Node2&#45;&gt;Node3 -->
<g id="edge2" class="edge">
<title>Node2&#45;&gt;Node3</title>
<path fill="none" stroke="midnightblue" d="M297.79,-1175.52C307.77,-1170.6 317.12,-1164.1 324,-1155.5 390.32,-1072.62 412.02,-728.14 416.86,-631.69"/>
<polygon fill="midnightblue" stroke="midnightblue" points="420.36,-631.84 417.34,-621.68 413.36,-631.5 420.36,-631.84"/>
</g>
<!-- Node4&#45;&gt;Node3 -->
<g id="edge4" class="edge">
<title>Node4&#45;&gt;Node3</title>
<path fill="none" stroke="midnightblue" d="M297.88,-1080.7C307.73,-1076.39 317,-1070.52 324,-1062.5 381.27,-996.86 408.74,-718.47 415.99,-632.14"/>
<polygon fill="midnightblue" stroke="midnightblue" points="419.5,-632.18 416.83,-621.93 412.52,-631.61 419.5,-632.18"/>
</g>
<!-- Node5&#45;&gt;Node3 -->
<g id="edge6" class="edge">
<title>Node5&#45;&gt;Node3</title>
<path fill="none" stroke="midnightblue" d="M297.68,-1020.53C307.55,-1016.24 316.89,-1010.41 324,-1002.5 374.2,-946.66 405.84,-710.57 415.13,-632.03"/>
<polygon fill="midnightblue" stroke="midnightblue" points="418.67,-631.96 416.34,-621.62 411.71,-631.15 418.67,-631.96"/>
</g>
<!-- Node6&#45;&gt;Node3 -->
<g id="edge8" class="edge">
<title>Node6&#45;&gt;Node3</title>
<path fill="none" stroke="midnightblue" d="M306.82,-955.67C313.19,-952.09 319.08,-947.76 324,-942.5 408.15,-852.56 417.93,-693.51 418.39,-631.88"/>
<polygon fill="midnightblue" stroke="midnightblue" points="421.89,-631.55 418.38,-621.55 414.89,-631.55 421.89,-631.55"/>
</g>
<!-- Node7&#45;&gt;Node3 -->
<g id="edge10" class="edge">
<title>Node7&#45;&gt;Node3</title>
<path fill="none" stroke="midnightblue" d="M305.27,-896.07C312.17,-892.42 318.61,-887.95 324,-882.5 394.43,-811.29 412.14,-685.27 416.56,-631.72"/>
<polygon fill="midnightblue" stroke="midnightblue" points="420.05,-631.95 417.29,-621.72 413.07,-631.44 420.05,-631.95"/>
</g>
<!-- Node8&#45;&gt;Node3 -->
<g id="edge12" class="edge">
<title>Node8&#45;&gt;Node3</title>
<path fill="none" stroke="midnightblue" d="M304.84,-845.59C311.8,-842.45 318.38,-838.49 324,-833.5 385.24,-779.06 407.5,-678.5 414.8,-631.69"/>
<polygon fill="midnightblue" stroke="midnightblue" points="418.3,-631.92 416.28,-621.52 411.38,-630.92 418.3,-631.92"/>
</g>
<!-- Node9&#45;&gt;Node3 -->
<g id="edge14" class="edge">
<title>Node9&#45;&gt;Node3</title>
<path fill="none" stroke="midnightblue" d="M307.81,-794.52C313.61,-791.76 319.11,-788.45 324,-784.5 373.92,-744.12 400.6,-670.02 411.69,-631.4"/>
<polygon fill="midnightblue" stroke="midnightblue" points="415.14,-632.07 414.41,-621.5 408.39,-630.22 415.14,-632.07"/>
</g>
<!-- Node10&#45;&gt;Node3 -->
<g id="edge16" class="edge">
<title>Node10&#45;&gt;Node3</title>
<path fill="none" stroke="midnightblue" d="M308.1,-744.37C313.71,-741.85 319.09,-738.92 324,-735.5 362.82,-708.47 391.67,-660.13 406.58,-630.92"/>
<polygon fill="midnightblue" stroke="midnightblue" points="409.79,-632.32 411.09,-621.8 403.52,-629.21 409.79,-632.32"/>
</g>
<!-- Node11&#45;&gt;Node3 -->
<g id="edge18" class="edge">
<title>Node11&#45;&gt;Node3</title>
<path fill="none" stroke="midnightblue" d="M303.74,-695.41C310.75,-692.85 317.64,-689.89 324,-686.5 352.12,-671.49 379.3,-646.92 397.14,-628.96"/>
<polygon fill="midnightblue" stroke="midnightblue" points="399.72,-631.32 404.18,-621.71 394.7,-626.44 399.72,-631.32"/>
</g>
<!-- Node12&#45;&gt;Node3 -->
<g id="edge20" class="edge">
<title>Node12&#45;&gt;Node3</title>
<path fill="none" stroke="midnightblue" d="M290.75,-646.48C301.74,-643.24 313.26,-639.79 324,-636.5 336.28,-632.74 349.42,-628.6 361.88,-624.64"/>
<polygon fill="midnightblue" stroke="midnightblue" points="363.23,-627.89 371.69,-621.51 361.1,-621.22 363.23,-627.89"/>
</g>
<!-- Node13&#45;&gt;Node3 -->
<g id="edge22" class="edge">
<title>Node13&#45;&gt;Node3</title>
<path fill="none" stroke="midnightblue" d="M311.03,-606.5C323.83,-606.5 337.13,-606.5 349.82,-606.5"/>
<polygon fill="midnightblue" stroke="midnightblue" points="349.85,-610 359.85,-606.5 349.85,-603 349.85,-610"/>
</g>
<!-- Node14&#45;&gt;Node3 -->
<g id="edge24" class="edge">
<title>Node14&#45;&gt;Node3</title>
<path fill="none" stroke="midnightblue" d="M290.75,-566.52C301.74,-569.76 313.26,-573.21 324,-576.5 336.28,-580.26 349.42,-584.4 361.88,-588.36"/>
<polygon fill="midnightblue" stroke="midnightblue" points="361.1,-591.78 371.69,-591.49 363.23,-585.11 361.1,-591.78"/>
</g>
<!-- Node15&#45;&gt;Node3 -->
<g id="edge26" class="edge">
<title>Node15&#45;&gt;Node3</title>
<path fill="none" stroke="midnightblue" d="M303.23,-517.16C310.41,-520.28 317.47,-523.73 324,-527.5 351.13,-543.19 378.09,-566.91 396.14,-584.26"/>
<polygon fill="midnightblue" stroke="midnightblue" points="393.71,-586.78 403.3,-591.27 398.6,-581.77 393.71,-586.78"/>
</g>
<!-- Node16&#45;&gt;Node3 -->
<g id="edge28" class="edge">
<title>Node16&#45;&gt;Node3</title>
<path fill="none" stroke="midnightblue" d="M307.86,-456.34C313.58,-459.3 319.05,-462.67 324,-466.5 364.09,-497.57 392.97,-550.71 407.45,-581.81"/>
<polygon fill="midnightblue" stroke="midnightblue" points="404.33,-583.41 411.64,-591.08 410.71,-580.53 404.33,-583.41"/>
</g>
<!-- Node17&#45;&gt;Node3 -->
<g id="edge30" class="edge">
<title>Node17&#45;&gt;Node3</title>
<path fill="none" stroke="midnightblue" d="M298.19,-390.47C307.55,-394.55 316.57,-399.78 324,-406.5 377.26,-454.68 402.89,-539.35 412.82,-581.37"/>
<polygon fill="midnightblue" stroke="midnightblue" points="409.45,-582.34 415.07,-591.32 416.28,-580.8 409.45,-582.34"/>
</g>
<!-- Node18&#45;&gt;Node3 -->
<g id="edge32" class="edge">
<title>Node18&#45;&gt;Node3</title>
<path fill="none" stroke="midnightblue" d="M310.09,-336.52C315.13,-339.31 319.86,-342.6 324,-346.5 392.55,-411 411.24,-529.26 416.23,-581.06"/>
<polygon fill="midnightblue" stroke="midnightblue" points="412.77,-581.68 417.12,-591.34 419.74,-581.08 412.77,-581.68"/>
</g>
<!-- Node19&#45;&gt;Node3 -->
<g id="edge34" class="edge">
<title>Node19&#45;&gt;Node3</title>
<path fill="none" stroke="midnightblue" d="M310.71,-287.52C315.56,-290.31 320.07,-293.6 324,-297.5 404.27,-377.03 416.41,-522.82 417.95,-581.27"/>
<polygon fill="midnightblue" stroke="midnightblue" points="414.45,-581.51 418.13,-591.45 421.45,-581.39 414.45,-581.51"/>
</g>
<!-- Node20&#45;&gt;Node3 -->
<g id="edge36" class="edge">
<title>Node20&#45;&gt;Node3</title>
<path fill="none" stroke="midnightblue" d="M311.28,-238.59C315.94,-241.36 320.25,-244.64 324,-248.5 371.05,-296.95 404.21,-507.22 414.57,-580.89"/>
<polygon fill="midnightblue" stroke="midnightblue" points="411.15,-581.68 415.98,-591.11 418.08,-580.73 411.15,-581.68"/>
</g>
<!-- Node21&#45;&gt;Node3 -->
<g id="edge38" class="edge">
<title>Node21&#45;&gt;Node3</title>
<path fill="none" stroke="midnightblue" d="M308.19,-187.63C314.05,-190.79 319.46,-194.69 324,-199.5 377.09,-255.82 407,-501.19 415.47,-581.19"/>
<polygon fill="midnightblue" stroke="midnightblue" points="412.01,-581.75 416.53,-591.34 418.98,-581.03 412.01,-581.75"/>
</g>
<!-- Node22&#45;&gt;Node3 -->
<g id="edge40" class="edge">
<title>Node22&#45;&gt;Node3</title>
<path fill="none" stroke="midnightblue" d="M296.59,-131.44C306.93,-135.91 316.71,-142.06 324,-150.5 380.93,-216.44 408.63,-494.62 415.97,-580.88"/>
<polygon fill="midnightblue" stroke="midnightblue" points="412.5,-581.41 416.81,-591.09 419.47,-580.83 412.5,-581.41"/>
</g>
<!-- Node23&#45;&gt;Node3 -->
<g id="edge42" class="edge">
<title>Node23&#45;&gt;Node3</title>
<path fill="none" stroke="midnightblue" d="M312.01,-79.52C316.44,-82.31 320.5,-85.61 324,-89.5 390.6,-163.57 411.98,-487.47 416.82,-581.08"/>
<polygon fill="midnightblue" stroke="midnightblue" points="413.34,-581.51 417.33,-591.32 420.33,-581.16 413.34,-581.51"/>
</g>
<!-- Node24&#45;&gt;Node3 -->
<g id="edge44" class="edge">
<title>Node24&#45;&gt;Node3</title>
<path fill="none" stroke="midnightblue" d="M312.47,-30.71C316.73,-33.46 320.64,-36.7 324,-40.5 396.64,-122.55 413.85,-481.65 417.26,-580.96"/>
<polygon fill="midnightblue" stroke="midnightblue" points="413.77,-581.38 417.59,-591.26 420.76,-581.15 413.77,-581.38"/>
</g>
</g>
</svg>
