<?xml version="1.0" encoding="UTF-8" standalone="no"?>
<!DOCTYPE svg PUBLIC "-//W3C//DTD SVG 1.1//EN"
 "http://www.w3.org/Graphics/SVG/1.1/DTD/svg11.dtd">
<!-- Generated by graphviz version 2.43.0 (0)
 -->
<!-- Title: m_model::s_read_stl Pages: 1 -->
<svg width="393pt" height="101pt"
 viewBox="0.00 0.00 393.00 100.76" xmlns="http://www.w3.org/2000/svg" xmlns:xlink="http://www.w3.org/1999/xlink">

<svg id="main" version="1.1" xmlns="http://www.w3.org/2000/svg" xmlns:xlink="http://www.w3.org/1999/xlink" xml:space="preserve" onload="init(evt)">
<style type="text/css"><![CDATA[
.node, .edge {opacity: 0.7;}
.node.selected, .edge.selected {opacity: 1;}
.edge:hover path { stroke: red; }
.edge:hover polygon { stroke: red; fill: red; }
]]></style>
<script type="application/ecmascript" xlink:href="svg.min.js"/>
<svg id="graph" class="graph">
<g id="graph0" class="graph" transform="scale(1 1) rotate(0) translate(4 96.76)">
<title>m_model::s_read_stl</title>
<!-- Node1 -->
<g id="Node000001" class="node">
<title>Node1</title>
<g id="a_Node000001"><a xlink:title=" ">
<polygon fill="#999999" stroke="#666666" points="118,-72.5 0,-72.5 0,-53.5 118,-53.5 118,-72.5"/>
<text text-anchor="middle" x="59" y="-60.5" font-family="Helvetica,sans-Serif" font-size="10.00">m_model::s_read_stl</text>
</a>
</g>
</g>
<!-- Node2 -->
<g id="Node000002" class="node">
<title>Node2</title>
<g id="a_Node000002"><a xlink:href="m__mpi__common_8fpp_8f90.html#ad9e1329e498b65ad4256658675d6f797" target="_top" xlink:title="The subroutine terminates the MPI execution environment.">
<polygon fill="white" stroke="#666666" points="385,-72.5 308,-72.5 308,-53.5 385,-53.5 385,-72.5"/>
<text text-anchor="middle" x="346.5" y="-60.5" font-family="Helvetica,sans-Serif" font-size="10.00">s_mpi_abort</text>
</a>
</g>
</g>
<!-- Node1&#45;&gt;Node2 -->
<g id="edge1_Node000001_Node000002" class="edge">
<title>Node1&#45;&gt;Node2</title>
<g id="a_edge1_Node000001_Node000002"><a xlink:title=" ">
<path fill="none" stroke="#63b8ff" d="M89.69,-72.61C108.01,-78.03 132.11,-84.25 154,-87 206.04,-93.54 220.21,-95.24 272,-87 285.7,-84.82 300.32,-80.49 312.89,-76.1"/>
<polygon fill="#63b8ff" stroke="#63b8ff" points="314.27,-79.32 322.46,-72.6 311.87,-72.74 314.27,-79.32"/>
</a>
</g>
</g>
<!-- Node3 -->
<g id="Node000003" class="node">
<title>Node3</title>
<g id="a_Node000003"><a xlink:href="namespacem__model.html#a86c56beafd11322f83dd60c431e1f0ee" target="_top" xlink:title=" ">
<polygon fill="white" stroke="#666666" points="272,-78 154,-78 154,-48 272,-48 272,-78"/>
<text text-anchor="start" x="162" y="-66" font-family="Helvetica,sans-Serif" font-size="10.00">m_model::s_read_stl</text>
<text text-anchor="middle" x="213" y="-55" font-family="Helvetica,sans-Serif" font-size="10.00">_ascii</text>
</a>
</g>
</g>
<!-- Node1&#45;&gt;Node3 -->
<g id="edge2_Node000001_Node000003" class="edge">
<title>Node1&#45;&gt;Node3</title>
<g id="a_edge2_Node000001_Node000003"><a xlink:title=" ">
<path fill="none" stroke="#63b8ff" d="M118.33,-63C126.61,-63 135.17,-63 143.62,-63"/>
<polygon fill="#63b8ff" stroke="#63b8ff" points="143.82,-66.5 153.82,-63 143.82,-59.5 143.82,-66.5"/>
</a>
</g>
</g>
<!-- Node4 -->
<g id="Node000004" class="node">
<title>Node4</title>
<g id="a_Node000004"><a xlink:href="namespacem__model.html#acb6ead03311886a7274f3c8d872266a4" target="_top" xlink:title=" ">
<polygon fill="white" stroke="#666666" points="272,-30 154,-30 154,0 272,0 272,-30"/>
<text text-anchor="start" x="162" y="-18" font-family="Helvetica,sans-Serif" font-size="10.00">m_model::s_read_stl</text>
<text text-anchor="middle" x="213" y="-7" font-family="Helvetica,sans-Serif" font-size="10.00">_binary</text>
</a>
</g>
</g>
<!-- Node1&#45;&gt;Node4 -->
<g id="edge4_Node000001_Node000004" class="edge">
<title>Node1&#45;&gt;Node4</title>
<g id="a_edge4_Node000001_Node000004"><a xlink:title=" ">
<path fill="none" stroke="#63b8ff" d="M90.39,-53.4C108.81,-47.59 132.89,-39.98 154.76,-33.08"/>
<polygon fill="#63b8ff" stroke="#63b8ff" points="155.82,-36.41 164.3,-30.06 153.71,-29.74 155.82,-36.41"/>
</a>
</g>
</g>
<!-- Node3&#45;&gt;Node2 -->
<g id="edge3_Node000003_Node000002" class="edge">
<title>Node3&#45;&gt;Node2</title>
<g id="a_edge3_Node000003_Node000002"><a xlink:title=" ">
<path fill="none" stroke="#63b8ff" d="M272.06,-63C280.57,-63 289.26,-63 297.55,-63"/>
<polygon fill="#63b8ff" stroke="#63b8ff" points="297.77,-66.5 307.77,-63 297.77,-59.5 297.77,-66.5"/>
</a>
</g>
</g>
<!-- Node4&#45;&gt;Node2 -->
<g id="edge5_Node000004_Node000002" class="edge">
<title>Node4&#45;&gt;Node2</title>
<g id="a_edge5_Node000004_Node000002"><a xlink:title=" ">
<path fill="none" stroke="#63b8ff" d="M255.25,-30.06C272.75,-36.45 292.96,-43.82 309.81,-49.97"/>
<polygon fill="#63b8ff" stroke="#63b8ff" points="308.7,-53.29 319.3,-53.44 311.1,-46.72 308.7,-53.29"/>
</a>
</g>
</g>
</g>
</svg>
</svg>

<style type='text/css'>
<![CDATA[
[data-mouse-over-selected='false'] { opacity: 0.7; }
[data-mouse-over-selected='true']  { opacity: 1.0; }
]]>
</style>
<script type="application/ecmascript"><![CDATA[
document.addEventListener('DOMContentLoaded', (event) => {
  highlightEdges();
  highlightAdjacentNodes();
});
]]></script>
</svg>
