<?xml version="1.0" encoding="UTF-8" standalone="no"?>
<!DOCTYPE svg PUBLIC "-//W3C//DTD SVG 1.1//EN"
 "http://www.w3.org/Graphics/SVG/1.1/DTD/svg11.dtd">
<!-- Generated by graphviz version 2.43.0 (0)
 -->
<!-- Title: m_initial_condition::s_spherical_harmonic Pages: 1 -->
<svg width="297pt" height="108pt"
 viewBox="0.00 0.00 297.00 108.00" xmlns="http://www.w3.org/2000/svg" xmlns:xlink="http://www.w3.org/1999/xlink">
<g id="graph0" class="graph" transform="scale(1 1) rotate(0) translate(4 104)">
<title>m_initial_condition::s_spherical_harmonic</title>
<!-- Node1 -->
<g id="node1" class="node">
<title>Node1</title>
<g id="a_node1"><a xlink:title="This patch generates the shape of the spherical harmonics as a perturbation to a perfect sphere.">
<polygon fill="#999999" stroke="#666666" points="128,-64.5 0,-64.5 0,-34.5 128,-34.5 128,-64.5"/>
<text text-anchor="start" x="8" y="-52.5" font-family="Helvetica,sans-Serif" font-size="10.00">m_initial_condition</text>
<text text-anchor="middle" x="64" y="-41.5" font-family="Helvetica,sans-Serif" font-size="10.00">::s_spherical_harmonic</text>
</a>
</g>
</g>
<!-- Node2 -->
<g id="node2" class="node">
<title>Node2</title>
<g id="a_node2"><a xlink:href="namespacem__initial__condition.html#a791e5fa466dd15343882711c91bae63d" target="_top" xlink:title=" ">
<polygon fill="white" stroke="#666666" points="289,-100 164,-100 164,-59 289,-59 289,-100"/>
<text text-anchor="start" x="172" y="-88" font-family="Helvetica,sans-Serif" font-size="10.00">m_initial_condition</text>
<text text-anchor="start" x="172" y="-77" font-family="Helvetica,sans-Serif" font-size="10.00">::s_convert_cylindrical</text>
<text text-anchor="middle" x="226.5" y="-66" font-family="Helvetica,sans-Serif" font-size="10.00">_to_cartesian_coord</text>
</a>
</g>
</g>
<!-- Node1&#45;&gt;Node2 -->
<g id="edge1" class="edge">
<title>Node1&#45;&gt;Node2</title>
<path fill="none" stroke="#63b8ff" d="M128.43,-61.36C136.81,-62.92 145.44,-64.54 153.94,-66.12"/>
<polygon fill="#63b8ff" stroke="#63b8ff" points="153.36,-69.58 163.84,-67.97 154.65,-62.7 153.36,-69.58"/>
</g>
<!-- Node3 -->
<g id="node3" class="node">
<title>Node3</title>
<g id="a_node3"><a xlink:href="namespacem__initial__condition.html#a88d2e8debdc097d4d811fb67d6fbc880" target="_top" xlink:title=" ">
<polygon fill="white" stroke="#666666" points="289,-41 164,-41 164,0 289,0 289,-41"/>
<text text-anchor="start" x="172" y="-29" font-family="Helvetica,sans-Serif" font-size="10.00">m_initial_condition</text>
<text text-anchor="start" x="172" y="-18" font-family="Helvetica,sans-Serif" font-size="10.00">::s_convert_cylindrical</text>
<text text-anchor="middle" x="226.5" y="-7" font-family="Helvetica,sans-Serif" font-size="10.00">_to_spherical_coord</text>
</a>
</g>
</g>
<!-- Node1&#45;&gt;Node3 -->
<g id="edge2" class="edge">
<title>Node1&#45;&gt;Node3</title>
<path fill="none" stroke="#63b8ff" d="M128.43,-38.04C136.81,-36.52 145.44,-34.97 153.94,-33.43"/>
<polygon fill="#63b8ff" stroke="#63b8ff" points="154.62,-36.86 163.84,-31.64 153.37,-29.98 154.62,-36.86"/>
</g>
</g>
</svg>
