<?xml version="1.0" encoding="UTF-8" standalone="no"?>
<!DOCTYPE svg PUBLIC "-//W3C//DTD SVG 1.1//EN"
 "http://www.w3.org/Graphics/SVG/1.1/DTD/svg11.dtd">
<!-- Generated by graphviz version 2.43.0 (0)
 -->
<!-- Title: m_initial_condition::s_assign_patch_mixture_primitive_variables Pages: 1 -->
<svg width="383pt" height="50pt"
 viewBox="0.00 0.00 383.00 50.00" xmlns="http://www.w3.org/2000/svg" xmlns:xlink="http://www.w3.org/1999/xlink">
<g id="graph0" class="graph" transform="scale(1 1) rotate(0) translate(4 46)">
<title>m_initial_condition::s_assign_patch_mixture_primitive_variables</title>
<!-- Node1 -->
<g id="node1" class="node">
<title>Node1</title>
<g id="a_node1"><a xlink:title="This subroutine assigns the mixture primitive variables of the patch designated by the patch_id,...">
<polygon fill="#bfbfbf" stroke="black" points="235,-0.5 235,-41.5 375,-41.5 375,-0.5 235,-0.5"/>
<text text-anchor="start" x="243" y="-29.5" font-family="Helvetica,sans-Serif" font-size="10.00">m_initial_condition</text>
<text text-anchor="start" x="243" y="-18.5" font-family="Helvetica,sans-Serif" font-size="10.00">::s_assign_patch_mixture</text>
<text text-anchor="middle" x="305" y="-7.5" font-family="Helvetica,sans-Serif" font-size="10.00">_primitive_variables</text>
</a>
</g>
</g>
<!-- Node2 -->
<g id="node2" class="node">
<title>Node2</title>
<g id="a_node2"><a xlink:href="namespacem__initial__condition.html#a07a665ff41297455ac2da7b54243bac5" target="_top" xlink:title="Computation of parameters, allocation procedures, and/or any other tasks needed to properly setup the...">
<polygon fill="none" stroke="black" points="89,-0.5 89,-41.5 199,-41.5 199,-0.5 89,-0.5"/>
<text text-anchor="start" x="97" y="-29.5" font-family="Helvetica,sans-Serif" font-size="10.00">m_initial_condition</text>
<text text-anchor="start" x="97" y="-18.5" font-family="Helvetica,sans-Serif" font-size="10.00">::s_initialize_initial</text>
<text text-anchor="middle" x="144" y="-7.5" font-family="Helvetica,sans-Serif" font-size="10.00">_condition_module</text>
</a>
</g>
</g>
<!-- Node1&#45;&gt;Node2 -->
<g id="edge1" class="edge">
<title>Node1&#45;&gt;Node2</title>
<path fill="none" stroke="midnightblue" d="M224.65,-21C216.04,-21 207.44,-21 199.23,-21"/>
<polygon fill="midnightblue" stroke="midnightblue" points="224.72,-24.5 234.72,-21 224.72,-17.5 224.72,-24.5"/>
</g>
<!-- Node3 -->
<g id="node3" class="node">
<title>Node3</title>
<g id="a_node3"><a xlink:href="p__main_8f90.html#aeec10ee8e2940c953967da3e374e1579" target="_top" xlink:title="This program takes care of setting up the initial condition and grid data for the multicomponent flow...">
<polygon fill="none" stroke="black" points="0,-11.5 0,-30.5 53,-30.5 53,-11.5 0,-11.5"/>
<text text-anchor="middle" x="26.5" y="-18.5" font-family="Helvetica,sans-Serif" font-size="10.00">p_main</text>
</a>
</g>
</g>
<!-- Node2&#45;&gt;Node3 -->
<g id="edge2" class="edge">
<title>Node2&#45;&gt;Node3</title>
<path fill="none" stroke="midnightblue" d="M78.76,-21C69.75,-21 60.95,-21 53.26,-21"/>
<polygon fill="midnightblue" stroke="midnightblue" points="78.97,-24.5 88.97,-21 78.97,-17.5 78.97,-24.5"/>
</g>
</g>
</svg>
