<?xml version="1.0" encoding="UTF-8" standalone="no"?>
<!DOCTYPE svg PUBLIC "-//W3C//DTD SVG 1.1//EN"
 "http://www.w3.org/Graphics/SVG/1.1/DTD/svg11.dtd">
<!-- Generated by graphviz version 2.43.0 (0)
 -->
<!-- Title: m_start_up::s_check_input_file Pages: 1 -->
<svg width="463pt" height="1337pt"
 viewBox="0.00 0.00 463.00 1337.00" xmlns="http://www.w3.org/2000/svg" xmlns:xlink="http://www.w3.org/1999/xlink">
<g id="graph0" class="graph" transform="scale(1 1) rotate(0) translate(4 1333)">
<title>m_start_up::s_check_input_file</title>
<!-- Node1 -->
<g id="node1" class="node">
<title>Node1</title>
<g id="a_node1"><a xlink:title="Checking that the user inputs make sense, i.e. that the individual choices are compatible with the co...">
<polygon fill="#999999" stroke="#666666" points="116,-674.5 0,-674.5 0,-644.5 116,-644.5 116,-674.5"/>
<text text-anchor="start" x="8" y="-662.5" font-family="Helvetica,sans-Serif" font-size="10.00">m_start_up::s_check</text>
<text text-anchor="middle" x="58" y="-651.5" font-family="Helvetica,sans-Serif" font-size="10.00">_input_file</text>
</a>
</g>
</g>
<!-- Node2 -->
<g id="node2" class="node">
<title>Node2</title>
<g id="a_node2"><a xlink:href="namespacem__check__patches.html#a1c50b481760b96ce4496118759dc67f5" target="_top" xlink:title=" ">
<polygon fill="white" stroke="#666666" points="267,-674.5 152,-674.5 152,-644.5 267,-644.5 267,-674.5"/>
<text text-anchor="start" x="160" y="-662.5" font-family="Helvetica,sans-Serif" font-size="10.00">m_check_patches::s</text>
<text text-anchor="middle" x="209.5" y="-651.5" font-family="Helvetica,sans-Serif" font-size="10.00">_check_patches</text>
</a>
</g>
</g>
<!-- Node1&#45;&gt;Node2 -->
<g id="edge1" class="edge">
<title>Node1&#45;&gt;Node2</title>
<path fill="none" stroke="#63b8ff" d="M116.37,-659.5C124.57,-659.5 133.06,-659.5 141.42,-659.5"/>
<polygon fill="#63b8ff" stroke="#63b8ff" points="141.53,-663 151.53,-659.5 141.53,-656 141.53,-663"/>
</g>
<!-- Node3 -->
<g id="node3" class="node">
<title>Node3</title>
<g id="a_node3"><a xlink:href="namespacem__check__patches.html#a4d14e04de7d9344029130ab09571fdb9" target="_top" xlink:title="This subroutine verifies that the geometric parameters of the analytical patch have consistently been...">
<polygon fill="white" stroke="#666666" points="439.5,-1329 318.5,-1329 318.5,-1288 439.5,-1288 439.5,-1329"/>
<text text-anchor="start" x="326.5" y="-1317" font-family="Helvetica,sans-Serif" font-size="10.00">m_check_patches::s</text>
<text text-anchor="start" x="326.5" y="-1306" font-family="Helvetica,sans-Serif" font-size="10.00">_check_1d_analytical</text>
<text text-anchor="middle" x="379" y="-1295" font-family="Helvetica,sans-Serif" font-size="10.00">_patch_geometry</text>
</a>
</g>
</g>
<!-- Node2&#45;&gt;Node3 -->
<g id="edge2" class="edge">
<title>Node2&#45;&gt;Node3</title>
<path fill="none" stroke="#63b8ff" d="M210.75,-674.64C212.48,-760.11 224.88,-1181.89 303,-1279.5 305.09,-1282.12 307.45,-1284.5 310.01,-1286.66"/>
<polygon fill="#63b8ff" stroke="#63b8ff" points="308.05,-1289.56 318.21,-1292.54 312.12,-1283.87 308.05,-1289.56"/>
</g>
<!-- Node4 -->
<g id="node4" class="node">
<title>Node4</title>
<g id="a_node4"><a xlink:href="namespacem__check__patches.html#a41e469c1773e6b92e16b2e3b3558c0ed" target="_top" xlink:title="This subroutine verifies that the geometric parameters of the analytical patch have consistently been...">
<polygon fill="white" stroke="#666666" points="439.5,-1270 318.5,-1270 318.5,-1229 439.5,-1229 439.5,-1270"/>
<text text-anchor="start" x="326.5" y="-1258" font-family="Helvetica,sans-Serif" font-size="10.00">m_check_patches::s</text>
<text text-anchor="start" x="326.5" y="-1247" font-family="Helvetica,sans-Serif" font-size="10.00">_check_2d_analytical</text>
<text text-anchor="middle" x="379" y="-1236" font-family="Helvetica,sans-Serif" font-size="10.00">_patch_geometry</text>
</a>
</g>
</g>
<!-- Node2&#45;&gt;Node4 -->
<g id="edge3" class="edge">
<title>Node2&#45;&gt;Node4</title>
<path fill="none" stroke="#63b8ff" d="M211.01,-674.5C214.02,-754.75 231.86,-1132.99 303,-1220.5 305.11,-1223.1 307.49,-1225.47 310.06,-1227.62"/>
<polygon fill="#63b8ff" stroke="#63b8ff" points="308.11,-1230.53 318.29,-1233.47 312.17,-1224.83 308.11,-1230.53"/>
</g>
<!-- Node5 -->
<g id="node5" class="node">
<title>Node5</title>
<g id="a_node5"><a xlink:href="namespacem__check__patches.html#a5643fb88910457783efdc7be07c2096c" target="_top" xlink:title="This subroutine verifies that the geometric parameters of the analytical patch have consistently been...">
<polygon fill="white" stroke="#666666" points="439.5,-1211 318.5,-1211 318.5,-1170 439.5,-1170 439.5,-1211"/>
<text text-anchor="start" x="326.5" y="-1199" font-family="Helvetica,sans-Serif" font-size="10.00">m_check_patches::s</text>
<text text-anchor="start" x="326.5" y="-1188" font-family="Helvetica,sans-Serif" font-size="10.00">_check_3d_analytical</text>
<text text-anchor="middle" x="379" y="-1177" font-family="Helvetica,sans-Serif" font-size="10.00">_patch_geometry</text>
</a>
</g>
</g>
<!-- Node2&#45;&gt;Node5 -->
<g id="edge4" class="edge">
<title>Node2&#45;&gt;Node5</title>
<path fill="none" stroke="#63b8ff" d="M211.35,-674.88C215.83,-750.72 238.96,-1084.23 303,-1161.5 305.14,-1164.08 307.53,-1166.43 310.12,-1168.57"/>
<polygon fill="#63b8ff" stroke="#63b8ff" points="308.2,-1171.5 318.39,-1174.39 312.23,-1165.78 308.2,-1171.5"/>
</g>
<!-- Node6 -->
<g id="node6" class="node">
<title>Node6</title>
<g id="a_node6"><a xlink:href="namespacem__check__patches.html#ac652a2c373fea30afb587a3a8f28e4c9" target="_top" xlink:title="This subroutine verifies that any rights granted to the given active patch, to overwrite the precedin...">
<polygon fill="white" stroke="#666666" points="438,-1152 320,-1152 320,-1111 438,-1111 438,-1152"/>
<text text-anchor="start" x="328" y="-1140" font-family="Helvetica,sans-Serif" font-size="10.00">m_check_patches::s</text>
<text text-anchor="start" x="328" y="-1129" font-family="Helvetica,sans-Serif" font-size="10.00">_check_active_patch</text>
<text text-anchor="middle" x="379" y="-1118" font-family="Helvetica,sans-Serif" font-size="10.00">_alteration_rights</text>
</a>
</g>
</g>
<!-- Node2&#45;&gt;Node6 -->
<g id="edge5" class="edge">
<title>Node2&#45;&gt;Node6</title>
<path fill="none" stroke="#63b8ff" d="M211.76,-674.92C217.82,-745.27 245.93,-1035.26 303,-1102.5 305.5,-1105.44 308.33,-1108.08 311.39,-1110.46"/>
<polygon fill="#63b8ff" stroke="#63b8ff" points="309.71,-1113.54 319.98,-1116.15 313.57,-1107.71 309.71,-1113.54"/>
</g>
<!-- Node7 -->
<g id="node7" class="node">
<title>Node7</title>
<g id="a_node7"><a xlink:href="namespacem__check__patches.html#a7286a74b75fa2f5e046638056a85665e" target="_top" xlink:title="This subroutine verifies that the primitive variables associated with the given active patch are phys...">
<polygon fill="white" stroke="#666666" points="438,-1093 320,-1093 320,-1052 438,-1052 438,-1093"/>
<text text-anchor="start" x="328" y="-1081" font-family="Helvetica,sans-Serif" font-size="10.00">m_check_patches::s</text>
<text text-anchor="start" x="328" y="-1070" font-family="Helvetica,sans-Serif" font-size="10.00">_check_active_patch</text>
<text text-anchor="middle" x="379" y="-1059" font-family="Helvetica,sans-Serif" font-size="10.00">_primitive_variables</text>
</a>
</g>
</g>
<!-- Node2&#45;&gt;Node7 -->
<g id="edge6" class="edge">
<title>Node2&#45;&gt;Node7</title>
<path fill="none" stroke="#63b8ff" d="M212.26,-674.56C219.97,-738.4 252.75,-986.1 303,-1043.5 305.49,-1046.35 308.3,-1048.91 311.32,-1051.23"/>
<polygon fill="#63b8ff" stroke="#63b8ff" points="309.49,-1054.22 319.77,-1056.8 313.34,-1048.37 309.49,-1054.22"/>
</g>
<!-- Node8 -->
<g id="node8" class="node">
<title>Node8</title>
<g id="a_node8"><a xlink:href="namespacem__check__patches.html#aad20d0b0a41ec17a6c03afc700efa25a" target="_top" xlink:title="This subroutine verifies that the geometric parameters of the circle patch have consistently been inp...">
<polygon fill="white" stroke="#666666" points="436.5,-1034 321.5,-1034 321.5,-993 436.5,-993 436.5,-1034"/>
<text text-anchor="start" x="329.5" y="-1022" font-family="Helvetica,sans-Serif" font-size="10.00">m_check_patches::s</text>
<text text-anchor="start" x="329.5" y="-1011" font-family="Helvetica,sans-Serif" font-size="10.00">_check_circle_patch</text>
<text text-anchor="middle" x="379" y="-1000" font-family="Helvetica,sans-Serif" font-size="10.00">_geometry</text>
</a>
</g>
</g>
<!-- Node2&#45;&gt;Node8 -->
<g id="edge7" class="edge">
<title>Node2&#45;&gt;Node8</title>
<path fill="none" stroke="#63b8ff" d="M210.32,-674.67C210.53,-725.42 217.99,-891.32 303,-984.5 305.91,-987.69 309.21,-990.53 312.77,-993.07"/>
<polygon fill="#63b8ff" stroke="#63b8ff" points="311.12,-996.16 321.47,-998.43 314.79,-990.2 311.12,-996.16"/>
</g>
<!-- Node9 -->
<g id="node9" class="node">
<title>Node9</title>
<g id="a_node9"><a xlink:href="namespacem__check__patches.html#aea0d7e10470a4ecaa08df5ff79fe2485" target="_top" xlink:title="This subroutine verifies that the geometric parameters of the cuboid patch have consistently been inp...">
<polygon fill="white" stroke="#666666" points="439,-975 319,-975 319,-934 439,-934 439,-975"/>
<text text-anchor="start" x="327" y="-963" font-family="Helvetica,sans-Serif" font-size="10.00">m_check_patches::s</text>
<text text-anchor="start" x="327" y="-952" font-family="Helvetica,sans-Serif" font-size="10.00">_check_cuboid_patch</text>
<text text-anchor="middle" x="379" y="-941" font-family="Helvetica,sans-Serif" font-size="10.00">_geometry</text>
</a>
</g>
</g>
<!-- Node2&#45;&gt;Node9 -->
<g id="edge8" class="edge">
<title>Node2&#45;&gt;Node9</title>
<path fill="none" stroke="#63b8ff" d="M211.45,-674.71C215.04,-719.34 231.48,-851.49 303,-925.5 305.14,-927.71 307.46,-929.76 309.93,-931.65"/>
<polygon fill="#63b8ff" stroke="#63b8ff" points="308.5,-934.9 318.77,-937.51 312.37,-929.07 308.5,-934.9"/>
</g>
<!-- Node10 -->
<g id="node10" class="node">
<title>Node10</title>
<g id="a_node10"><a xlink:href="namespacem__check__patches.html#a66adadaa54ebba56992b9bb9ed7cb490" target="_top" xlink:title="This subroutine verifies that the geometric parameters of the cylinder patch have consistently been i...">
<polygon fill="white" stroke="#666666" points="442.5,-916 315.5,-916 315.5,-875 442.5,-875 442.5,-916"/>
<text text-anchor="start" x="323.5" y="-904" font-family="Helvetica,sans-Serif" font-size="10.00">m_check_patches::s</text>
<text text-anchor="start" x="323.5" y="-893" font-family="Helvetica,sans-Serif" font-size="10.00">_check_cylinder_patch</text>
<text text-anchor="middle" x="379" y="-882" font-family="Helvetica,sans-Serif" font-size="10.00">_geometry</text>
</a>
</g>
</g>
<!-- Node2&#45;&gt;Node10 -->
<g id="edge9" class="edge">
<title>Node2&#45;&gt;Node10</title>
<path fill="none" stroke="#63b8ff" d="M213.14,-674.53C220.49,-712.1 244.64,-811.06 303,-866.5 304.29,-867.72 305.63,-868.9 307.02,-870.02"/>
<polygon fill="#63b8ff" stroke="#63b8ff" points="305.27,-873.07 315.47,-875.95 309.3,-867.34 305.27,-873.07"/>
</g>
<!-- Node11 -->
<g id="node11" class="node">
<title>Node11</title>
<g id="a_node11"><a xlink:href="namespacem__check__patches.html#ac701bfedde9f28ce1c4aafba47c0b7c9" target="_top" xlink:title="This subroutine verifies that the geometric parameters of the ellipse patch have consistently been in...">
<polygon fill="white" stroke="#666666" points="439,-857 319,-857 319,-816 439,-816 439,-857"/>
<text text-anchor="start" x="327" y="-845" font-family="Helvetica,sans-Serif" font-size="10.00">m_check_patches::s</text>
<text text-anchor="start" x="327" y="-834" font-family="Helvetica,sans-Serif" font-size="10.00">_check_ellipse_patch</text>
<text text-anchor="middle" x="379" y="-823" font-family="Helvetica,sans-Serif" font-size="10.00">_geometry</text>
</a>
</g>
</g>
<!-- Node2&#45;&gt;Node11 -->
<g id="edge10" class="edge">
<title>Node2&#45;&gt;Node11</title>
<path fill="none" stroke="#63b8ff" d="M216.18,-674.75C227.93,-704.37 257.69,-770.06 303,-807.5 305.22,-809.33 307.57,-811.06 310.01,-812.69"/>
<polygon fill="#63b8ff" stroke="#63b8ff" points="308.25,-815.71 318.63,-817.83 311.83,-809.7 308.25,-815.71"/>
</g>
<!-- Node12 -->
<g id="node12" class="node">
<title>Node12</title>
<g id="a_node12"><a xlink:href="namespacem__check__patches.html#abd8a1330518492f664a786646fcba9f9" target="_top" xlink:title="This subroutine verifies that the geometric parameters of the ellipsoid patch have consistently been ...">
<polygon fill="white" stroke="#666666" points="443.5,-798 314.5,-798 314.5,-757 443.5,-757 443.5,-798"/>
<text text-anchor="start" x="322.5" y="-786" font-family="Helvetica,sans-Serif" font-size="10.00">m_check_patches::s</text>
<text text-anchor="start" x="322.5" y="-775" font-family="Helvetica,sans-Serif" font-size="10.00">_check_ellipsoid_patch</text>
<text text-anchor="middle" x="379" y="-764" font-family="Helvetica,sans-Serif" font-size="10.00">_geometry</text>
</a>
</g>
</g>
<!-- Node2&#45;&gt;Node12 -->
<g id="edge11" class="edge">
<title>Node2&#45;&gt;Node12</title>
<path fill="none" stroke="#63b8ff" d="M222.83,-674.63C239.32,-694.03 270.3,-727.66 303,-748.5 304.91,-749.72 306.89,-750.9 308.9,-752.04"/>
<polygon fill="#63b8ff" stroke="#63b8ff" points="307.5,-755.26 317.98,-756.81 310.75,-749.06 307.5,-755.26"/>
</g>
<!-- Node13 -->
<g id="node13" class="node">
<title>Node13</title>
<g id="a_node13"><a xlink:href="namespacem__check__patches.html#a2690167f0b25ca2a4475875740a1a99c" target="_top" xlink:title="This subroutine verifies that the rights of the given inactive patch, to overwrite the preceding patc...">
<polygon fill="white" stroke="#666666" points="442.5,-739 315.5,-739 315.5,-698 442.5,-698 442.5,-739"/>
<text text-anchor="start" x="323.5" y="-727" font-family="Helvetica,sans-Serif" font-size="10.00">m_check_patches::s</text>
<text text-anchor="start" x="323.5" y="-716" font-family="Helvetica,sans-Serif" font-size="10.00">_check_inactive_patch</text>
<text text-anchor="middle" x="379" y="-705" font-family="Helvetica,sans-Serif" font-size="10.00">_alteration_rights</text>
</a>
</g>
</g>
<!-- Node2&#45;&gt;Node13 -->
<g id="edge12" class="edge">
<title>Node2&#45;&gt;Node13</title>
<path fill="none" stroke="#63b8ff" d="M253.2,-674.54C270.45,-680.62 290.78,-687.78 309.97,-694.54"/>
<polygon fill="#63b8ff" stroke="#63b8ff" points="308.98,-697.9 319.58,-697.92 311.31,-691.3 308.98,-697.9"/>
</g>
<!-- Node14 -->
<g id="node14" class="node">
<title>Node14</title>
<g id="a_node14"><a xlink:href="namespacem__check__patches.html#aa2e133b2f325b7a3597149ec08e7dccc" target="_top" xlink:title=" ">
<polygon fill="white" stroke="#666666" points="442.5,-680 315.5,-680 315.5,-639 442.5,-639 442.5,-680"/>
<text text-anchor="start" x="323.5" y="-668" font-family="Helvetica,sans-Serif" font-size="10.00">m_check_patches::s</text>
<text text-anchor="start" x="323.5" y="-657" font-family="Helvetica,sans-Serif" font-size="10.00">_check_inactive_patch</text>
<text text-anchor="middle" x="379" y="-646" font-family="Helvetica,sans-Serif" font-size="10.00">_geometry</text>
</a>
</g>
</g>
<!-- Node2&#45;&gt;Node14 -->
<g id="edge13" class="edge">
<title>Node2&#45;&gt;Node14</title>
<path fill="none" stroke="#63b8ff" d="M267.21,-659.5C279.41,-659.5 292.48,-659.5 305.2,-659.5"/>
<polygon fill="#63b8ff" stroke="#63b8ff" points="305.31,-663 315.31,-659.5 305.31,-656 305.31,-663"/>
</g>
<!-- Node15 -->
<g id="node15" class="node">
<title>Node15</title>
<g id="a_node15"><a xlink:href="namespacem__check__patches.html#a67a788934dbcdcd139962e5b453bf622" target="_top" xlink:title="This subroutine verifies that the primitive variables associated with the given inactive patch remain...">
<polygon fill="white" stroke="#666666" points="442.5,-621 315.5,-621 315.5,-580 442.5,-580 442.5,-621"/>
<text text-anchor="start" x="323.5" y="-609" font-family="Helvetica,sans-Serif" font-size="10.00">m_check_patches::s</text>
<text text-anchor="start" x="323.5" y="-598" font-family="Helvetica,sans-Serif" font-size="10.00">_check_inactive_patch</text>
<text text-anchor="middle" x="379" y="-587" font-family="Helvetica,sans-Serif" font-size="10.00">_primitive_variables</text>
</a>
</g>
</g>
<!-- Node2&#45;&gt;Node15 -->
<g id="edge14" class="edge">
<title>Node2&#45;&gt;Node15</title>
<path fill="none" stroke="#63b8ff" d="M253.2,-644.46C270.45,-638.38 290.78,-631.22 309.97,-624.46"/>
<polygon fill="#63b8ff" stroke="#63b8ff" points="311.31,-627.7 319.58,-621.08 308.98,-621.1 311.31,-627.7"/>
</g>
<!-- Node16 -->
<g id="node16" class="node">
<title>Node16</title>
<g id="a_node16"><a xlink:href="namespacem__check__patches.html#ad07ba3c6ec28f098d2301cb5c4fab3fa" target="_top" xlink:title="This subroutine verifies that the geometric parameters of the isentropic vortex patch have been enter...">
<polygon fill="white" stroke="#666666" points="449,-562 309,-562 309,-521 449,-521 449,-562"/>
<text text-anchor="start" x="317" y="-550" font-family="Helvetica,sans-Serif" font-size="10.00">m_check_patches::s</text>
<text text-anchor="start" x="317" y="-539" font-family="Helvetica,sans-Serif" font-size="10.00">_check_isentropic_vortex</text>
<text text-anchor="middle" x="379" y="-528" font-family="Helvetica,sans-Serif" font-size="10.00">_patch_geometry</text>
</a>
</g>
</g>
<!-- Node2&#45;&gt;Node16 -->
<g id="edge15" class="edge">
<title>Node2&#45;&gt;Node16</title>
<path fill="none" stroke="#63b8ff" d="M223.19,-644.28C239.83,-625.12 270.73,-592.21 303,-571.5 305.57,-569.85 308.25,-568.26 311,-566.74"/>
<polygon fill="#63b8ff" stroke="#63b8ff" points="312.69,-569.8 319.96,-562.1 309.47,-563.59 312.69,-569.8"/>
</g>
<!-- Node17 -->
<g id="node17" class="node">
<title>Node17</title>
<g id="a_node17"><a xlink:href="namespacem__check__patches.html#a5b142fb0ce186f97c22e5a10a36a3bb8" target="_top" xlink:title="This subroutine verifies that the geometric parameters of the line segment patch have consistently be...">
<polygon fill="white" stroke="#666666" points="440,-503 318,-503 318,-462 440,-462 440,-503"/>
<text text-anchor="start" x="326" y="-491" font-family="Helvetica,sans-Serif" font-size="10.00">m_check_patches::s</text>
<text text-anchor="start" x="326" y="-480" font-family="Helvetica,sans-Serif" font-size="10.00">_check_line_segment</text>
<text text-anchor="middle" x="379" y="-469" font-family="Helvetica,sans-Serif" font-size="10.00">_patch_geometry</text>
</a>
</g>
</g>
<!-- Node2&#45;&gt;Node17 -->
<g id="edge16" class="edge">
<title>Node2&#45;&gt;Node17</title>
<path fill="none" stroke="#63b8ff" d="M216.24,-644.4C228.11,-615.06 258.06,-549.95 303,-512.5 304.98,-510.85 307.06,-509.28 309.22,-507.79"/>
<polygon fill="#63b8ff" stroke="#63b8ff" points="311.22,-510.67 317.88,-502.44 307.53,-504.72 311.22,-510.67"/>
</g>
<!-- Node18 -->
<g id="node18" class="node">
<title>Node18</title>
<g id="a_node18"><a xlink:href="namespacem__check__patches.html#a7bae026c1e443c8247a8ad74a849063b" target="_top" xlink:title="This subroutine verifies that the geometric parameters of the line sweep patch have consistently been...">
<polygon fill="white" stroke="#666666" points="450.5,-444 307.5,-444 307.5,-403 450.5,-403 450.5,-444"/>
<text text-anchor="start" x="315.5" y="-432" font-family="Helvetica,sans-Serif" font-size="10.00">m_check_patches::s</text>
<text text-anchor="start" x="315.5" y="-421" font-family="Helvetica,sans-Serif" font-size="10.00">_check_line_sweep_patch</text>
<text text-anchor="middle" x="379" y="-410" font-family="Helvetica,sans-Serif" font-size="10.00">_geometry</text>
</a>
</g>
</g>
<!-- Node2&#45;&gt;Node18 -->
<g id="edge17" class="edge">
<title>Node2&#45;&gt;Node18</title>
<path fill="none" stroke="#63b8ff" d="M213.26,-644.31C220.82,-606.8 245.29,-508.86 303,-453.5 304.25,-452.3 305.56,-451.14 306.91,-450.03"/>
<polygon fill="#63b8ff" stroke="#63b8ff" points="309.03,-452.82 315.1,-444.14 304.94,-447.14 309.03,-452.82"/>
</g>
<!-- Node19 -->
<g id="node19" class="node">
<title>Node19</title>
<g id="a_node19"><a xlink:href="namespacem__check__patches.html#a9bb2f96dfcb0168c5a5e51cb7b5dc906" target="_top" xlink:title="This subroutine verifies that the geometric parameters of the plane sweep patch have consistently bee...">
<polygon fill="white" stroke="#666666" points="455,-385 303,-385 303,-344 455,-344 455,-385"/>
<text text-anchor="start" x="311" y="-373" font-family="Helvetica,sans-Serif" font-size="10.00">m_check_patches::s</text>
<text text-anchor="start" x="311" y="-362" font-family="Helvetica,sans-Serif" font-size="10.00">_check_plane_sweep_patch</text>
<text text-anchor="middle" x="379" y="-351" font-family="Helvetica,sans-Serif" font-size="10.00">_geometry</text>
</a>
</g>
</g>
<!-- Node2&#45;&gt;Node19 -->
<g id="edge18" class="edge">
<title>Node2&#45;&gt;Node19</title>
<path fill="none" stroke="#63b8ff" d="M211.51,-644.39C215.26,-600.02 232.11,-468.63 303,-394.5 304.06,-393.39 305.17,-392.32 306.31,-391.29"/>
<polygon fill="#63b8ff" stroke="#63b8ff" points="308.63,-393.92 314.41,-385.04 304.35,-388.38 308.63,-393.92"/>
</g>
<!-- Node20 -->
<g id="node20" class="node">
<title>Node20</title>
<g id="a_node20"><a xlink:href="namespacem__check__patches.html#ac34be0830489fb414bc93ecbb25c0383" target="_top" xlink:title="This subroutine verifies that the geometric parameters of the rectangle patch have consistently been ...">
<polygon fill="white" stroke="#666666" points="446,-326 312,-326 312,-285 446,-285 446,-326"/>
<text text-anchor="start" x="320" y="-314" font-family="Helvetica,sans-Serif" font-size="10.00">m_check_patches::s</text>
<text text-anchor="start" x="320" y="-303" font-family="Helvetica,sans-Serif" font-size="10.00">_check_rectangle_patch</text>
<text text-anchor="middle" x="379" y="-292" font-family="Helvetica,sans-Serif" font-size="10.00">_geometry</text>
</a>
</g>
</g>
<!-- Node2&#45;&gt;Node20 -->
<g id="edge19" class="edge">
<title>Node2&#45;&gt;Node20</title>
<path fill="none" stroke="#63b8ff" d="M210.37,-644.41C210.77,-593.94 218.74,-428.87 303,-335.5 303.9,-334.5 304.83,-333.54 305.8,-332.61"/>
<polygon fill="#63b8ff" stroke="#63b8ff" points="308.29,-335.1 313.82,-326.07 303.86,-329.68 308.29,-335.1"/>
</g>
<!-- Node21 -->
<g id="node21" class="node">
<title>Node21</title>
<g id="a_node21"><a xlink:href="namespacem__check__patches.html#ad2dd6dc473d7bb6d32cd5fd906c80da4" target="_top" xlink:title="This subroutine verifies that the geometric parameters of the sphere patch have consistently been inp...">
<polygon fill="white" stroke="#666666" points="439.5,-267 318.5,-267 318.5,-226 439.5,-226 439.5,-267"/>
<text text-anchor="start" x="326.5" y="-255" font-family="Helvetica,sans-Serif" font-size="10.00">m_check_patches::s</text>
<text text-anchor="start" x="326.5" y="-244" font-family="Helvetica,sans-Serif" font-size="10.00">_check_sphere_patch</text>
<text text-anchor="middle" x="379" y="-233" font-family="Helvetica,sans-Serif" font-size="10.00">_geometry</text>
</a>
</g>
</g>
<!-- Node2&#45;&gt;Node21 -->
<g id="edge20" class="edge">
<title>Node2&#45;&gt;Node21</title>
<path fill="none" stroke="#63b8ff" d="M212.28,-644.5C220.09,-580.88 253.19,-334.03 303,-276.5 305.02,-274.16 307.25,-272.01 309.64,-270.02"/>
<polygon fill="#63b8ff" stroke="#63b8ff" points="312.16,-272.52 318.28,-263.87 308.1,-266.82 312.16,-272.52"/>
</g>
<!-- Node22 -->
<g id="node22" class="node">
<title>Node22</title>
<g id="a_node22"><a xlink:href="namespacem__check__patches.html#a7f4fc28d325755439d8764d595e09387" target="_top" xlink:title="This subroutine verifies that the geometric parameters of the spherical harmonic patch have consisten...">
<polygon fill="white" stroke="#666666" points="454.5,-208 303.5,-208 303.5,-167 454.5,-167 454.5,-208"/>
<text text-anchor="start" x="311.5" y="-196" font-family="Helvetica,sans-Serif" font-size="10.00">m_check_patches::s</text>
<text text-anchor="start" x="311.5" y="-185" font-family="Helvetica,sans-Serif" font-size="10.00">_check_spherical_harmonic</text>
<text text-anchor="middle" x="379" y="-174" font-family="Helvetica,sans-Serif" font-size="10.00">_patch_geometry</text>
</a>
</g>
</g>
<!-- Node2&#45;&gt;Node22 -->
<g id="edge21" class="edge">
<title>Node2&#45;&gt;Node22</title>
<path fill="none" stroke="#63b8ff" d="M211.79,-644.13C217.94,-574.01 246.42,-284.9 303,-217.5 303.84,-216.5 304.71,-215.54 305.62,-214.61"/>
<polygon fill="#63b8ff" stroke="#63b8ff" points="307.91,-217.25 313.19,-208.06 303.34,-211.95 307.91,-217.25"/>
</g>
<!-- Node23 -->
<g id="node23" class="node">
<title>Node23</title>
<g id="a_node23"><a xlink:href="namespacem__check__patches.html#a4031e8c60108044dea6270f8c8a0036a" target="_top" xlink:title=" ">
<polygon fill="white" stroke="#666666" points="439,-148.5 319,-148.5 319,-118.5 439,-118.5 439,-148.5"/>
<text text-anchor="start" x="327" y="-136.5" font-family="Helvetica,sans-Serif" font-size="10.00">m_check_patches::s</text>
<text text-anchor="middle" x="379" y="-125.5" font-family="Helvetica,sans-Serif" font-size="10.00">_check_stl_geometry</text>
</a>
</g>
</g>
<!-- Node2&#45;&gt;Node23 -->
<g id="edge22" class="edge">
<title>Node2&#45;&gt;Node23</title>
<path fill="none" stroke="#63b8ff" d="M211.28,-644.09C215.44,-568.11 237.27,-234.08 303,-158.5 305.21,-155.96 307.68,-153.68 310.34,-151.63"/>
<polygon fill="#63b8ff" stroke="#63b8ff" points="312.34,-154.51 318.85,-146.15 308.55,-148.63 312.34,-154.51"/>
</g>
<!-- Node24 -->
<g id="node24" class="node">
<title>Node24</title>
<g id="a_node24"><a xlink:href="namespacem__check__patches.html#ac4618b7bb46f92ac59717a31d673ab88" target="_top" xlink:title="This subroutine verifies that the smoothing parameters of the given patch, which supports the smoothi...">
<polygon fill="white" stroke="#666666" points="447.5,-100 310.5,-100 310.5,-59 447.5,-59 447.5,-100"/>
<text text-anchor="start" x="318.5" y="-88" font-family="Helvetica,sans-Serif" font-size="10.00">m_check_patches::s</text>
<text text-anchor="start" x="318.5" y="-77" font-family="Helvetica,sans-Serif" font-size="10.00">_check_supported_patch</text>
<text text-anchor="middle" x="379" y="-66" font-family="Helvetica,sans-Serif" font-size="10.00">_smoothing</text>
</a>
</g>
</g>
<!-- Node2&#45;&gt;Node24 -->
<g id="edge23" class="edge">
<title>Node2&#45;&gt;Node24</title>
<path fill="none" stroke="#63b8ff" d="M211.09,-644.28C214.47,-564.57 233.72,-195.44 303,-109.5 303.7,-108.63 304.44,-107.78 305.2,-106.95"/>
<polygon fill="#63b8ff" stroke="#63b8ff" points="307.62,-109.49 312.69,-100.19 302.92,-104.29 307.62,-109.49"/>
</g>
<!-- Node25 -->
<g id="node25" class="node">
<title>Node25</title>
<g id="a_node25"><a xlink:href="namespacem__check__patches.html#a7f27b499f2b90ad0f25443c1a1c5a0e5" target="_top" xlink:title="This subroutine verifies that the smoothing parameters of the given patch, which does not support the...">
<polygon fill="white" stroke="#666666" points="453.5,-41 304.5,-41 304.5,0 453.5,0 453.5,-41"/>
<text text-anchor="start" x="312.5" y="-29" font-family="Helvetica,sans-Serif" font-size="10.00">m_check_patches::s</text>
<text text-anchor="start" x="312.5" y="-18" font-family="Helvetica,sans-Serif" font-size="10.00">_check_unsupported_patch</text>
<text text-anchor="middle" x="379" y="-7" font-family="Helvetica,sans-Serif" font-size="10.00">_smoothing</text>
</a>
</g>
</g>
<!-- Node2&#45;&gt;Node25 -->
<g id="edge24" class="edge">
<title>Node2&#45;&gt;Node25</title>
<path fill="none" stroke="#63b8ff" d="M210.82,-644.36C212.87,-559.85 226.75,-146.65 303,-50.5 303.7,-49.62 304.42,-48.77 305.18,-47.94"/>
<polygon fill="#63b8ff" stroke="#63b8ff" points="307.6,-50.46 312.63,-41.13 302.88,-45.29 307.6,-50.46"/>
</g>
</g>
</svg>
