<?xml version="1.0" encoding="UTF-8" standalone="no"?>
<!DOCTYPE svg PUBLIC "-//W3C//DTD SVG 1.1//EN"
 "http://www.w3.org/Graphics/SVG/1.1/DTD/svg11.dtd">
<!-- Generated by graphviz version 2.43.0 (0)
 -->
<!-- Title: m_initial_condition::s_generate_initial_condition Pages: 1 -->
<svg width="475pt" height="1140pt"
 viewBox="0.00 0.00 475.00 1140.00" xmlns="http://www.w3.org/2000/svg" xmlns:xlink="http://www.w3.org/1999/xlink">
<g id="graph0" class="graph" transform="scale(1 1) rotate(0) translate(4 1136)">
<title>m_initial_condition::s_generate_initial_condition</title>
<!-- Node1 -->
<g id="node1" class="node">
<title>Node1</title>
<g id="a_node1"><a xlink:title="This subroutine peruses the patches and depending on the type of geometry associated with a particula...">
<polygon fill="#bfbfbf" stroke="black" points="0,-534 0,-575 110,-575 110,-534 0,-534"/>
<text text-anchor="start" x="8" y="-563" font-family="Helvetica,sans-Serif" font-size="10.00">m_initial_condition</text>
<text text-anchor="start" x="8" y="-552" font-family="Helvetica,sans-Serif" font-size="10.00">::s_generate_initial</text>
<text text-anchor="middle" x="55" y="-541" font-family="Helvetica,sans-Serif" font-size="10.00">_condition</text>
</a>
</g>
</g>
<!-- Node2 -->
<g id="node2" class="node">
<title>Node2</title>
<g id="a_node2"><a xlink:href="namespacem__initial__condition.html#a3b4fe978231e74b699695a35fb544236" target="_top" xlink:title="This patch assigns the primitive variables as analytical functions such that the code can be verified...">
<polygon fill="none" stroke="black" points="169.5,-1101.5 169.5,-1131.5 279.5,-1131.5 279.5,-1101.5 169.5,-1101.5"/>
<text text-anchor="start" x="177.5" y="-1119.5" font-family="Helvetica,sans-Serif" font-size="10.00">m_initial_condition</text>
<text text-anchor="middle" x="224.5" y="-1108.5" font-family="Helvetica,sans-Serif" font-size="10.00">::s_1d_analytical</text>
</a>
</g>
</g>
<!-- Node1&#45;&gt;Node2 -->
<g id="edge1" class="edge">
<title>Node1&#45;&gt;Node2</title>
<path fill="none" stroke="midnightblue" d="M56.64,-575.05C59.8,-663.76 76.52,-1012.99 146,-1092.5 149.98,-1097.05 154.8,-1100.75 160.07,-1103.76"/>
<polygon fill="midnightblue" stroke="midnightblue" points="158.77,-1107.02 169.3,-1108.19 161.8,-1100.71 158.77,-1107.02"/>
</g>
<!-- Node3 -->
<g id="node3" class="node">
<title>Node3</title>
<g id="a_node3"><a xlink:href="namespacem__initial__condition.html#a7685befab45f10089fc46907fa4cc049" target="_top" xlink:title=" ">
<polygon fill="none" stroke="black" points="167,-1052.5 167,-1082.5 282,-1082.5 282,-1052.5 167,-1052.5"/>
<text text-anchor="start" x="175" y="-1070.5" font-family="Helvetica,sans-Serif" font-size="10.00">m_initial_condition</text>
<text text-anchor="middle" x="224.5" y="-1059.5" font-family="Helvetica,sans-Serif" font-size="10.00">::s_1d_bubble_pulse</text>
</a>
</g>
</g>
<!-- Node1&#45;&gt;Node3 -->
<g id="edge2" class="edge">
<title>Node1&#45;&gt;Node3</title>
<path fill="none" stroke="midnightblue" d="M57.02,-575.14C61.56,-658.86 82.59,-972.1 146,-1043.5 149.33,-1047.25 153.24,-1050.42 157.49,-1053.11"/>
<polygon fill="midnightblue" stroke="midnightblue" points="156.17,-1056.37 166.65,-1057.95 159.44,-1050.18 156.17,-1056.37"/>
</g>
<!-- Node4 -->
<g id="node4" class="node">
<title>Node4</title>
<g id="a_node4"><a xlink:href="namespacem__initial__condition.html#a50f5727753c025d26925640a19259102" target="_top" xlink:title="This patch assigns the primitive variables as analytical functions such that the code can be verified...">
<polygon fill="none" stroke="black" points="169.5,-1003.5 169.5,-1033.5 279.5,-1033.5 279.5,-1003.5 169.5,-1003.5"/>
<text text-anchor="start" x="177.5" y="-1021.5" font-family="Helvetica,sans-Serif" font-size="10.00">m_initial_condition</text>
<text text-anchor="middle" x="224.5" y="-1010.5" font-family="Helvetica,sans-Serif" font-size="10.00">::s_2d_analytical</text>
</a>
</g>
</g>
<!-- Node1&#45;&gt;Node4 -->
<g id="edge3" class="edge">
<title>Node1&#45;&gt;Node4</title>
<path fill="none" stroke="midnightblue" d="M57.48,-575.18C63.51,-653.57 88.61,-931.16 146,-994.5 150,-998.91 154.79,-1002.52 160,-1005.48"/>
<polygon fill="midnightblue" stroke="midnightblue" points="158.58,-1008.68 169.11,-1009.85 161.61,-1002.36 158.58,-1008.68"/>
</g>
<!-- Node5 -->
<g id="node5" class="node">
<title>Node5</title>
<g id="a_node5"><a xlink:href="namespacem__initial__condition.html#abb87c531b4d42302dd22863b95a7cdb2" target="_top" xlink:title="This patch assigns the primitive variables as analytical functions such that the code can be verified...">
<polygon fill="none" stroke="black" points="169.5,-196.5 169.5,-226.5 279.5,-226.5 279.5,-196.5 169.5,-196.5"/>
<text text-anchor="start" x="177.5" y="-214.5" font-family="Helvetica,sans-Serif" font-size="10.00">m_initial_condition</text>
<text text-anchor="middle" x="224.5" y="-203.5" font-family="Helvetica,sans-Serif" font-size="10.00">::s_3d_analytical</text>
</a>
</g>
</g>
<!-- Node1&#45;&gt;Node5 -->
<g id="edge4" class="edge">
<title>Node1&#45;&gt;Node5</title>
<path fill="none" stroke="midnightblue" d="M55.57,-533.81C55.56,-477.89 63.35,-322.2 146,-236.5 150.09,-232.26 154.89,-228.74 160.08,-225.82"/>
<polygon fill="midnightblue" stroke="midnightblue" points="161.64,-228.95 169.1,-221.44 158.58,-222.66 161.64,-228.95"/>
</g>
<!-- Node7 -->
<g id="node7" class="node">
<title>Node7</title>
<g id="a_node7"><a xlink:href="namespacem__initial__condition.html#aea2bf07e8890b1a108f2f891609174c9" target="_top" xlink:title=" ">
<polygon fill="none" stroke="black" points="169.5,-905.5 169.5,-935.5 279.5,-935.5 279.5,-905.5 169.5,-905.5"/>
<text text-anchor="start" x="177.5" y="-923.5" font-family="Helvetica,sans-Serif" font-size="10.00">m_initial_condition</text>
<text text-anchor="middle" x="224.5" y="-912.5" font-family="Helvetica,sans-Serif" font-size="10.00">::s_3dvarcircle</text>
</a>
</g>
</g>
<!-- Node1&#45;&gt;Node7 -->
<g id="edge6" class="edge">
<title>Node1&#45;&gt;Node7</title>
<path fill="none" stroke="midnightblue" d="M58.8,-575.26C68.2,-641.95 100.56,-849.06 146,-896.5 150.12,-900.8 154.99,-904.34 160.26,-907.24"/>
<polygon fill="midnightblue" stroke="midnightblue" points="158.89,-910.46 169.42,-911.56 161.87,-904.13 158.89,-910.46"/>
</g>
<!-- Node8 -->
<g id="node8" class="node">
<title>Node8</title>
<g id="a_node8"><a xlink:href="namespacem__initial__condition.html#a75d13cb7c7c4f88e8b532cf7e7dda498" target="_top" xlink:title="The circular patch is a 2D geometry that may be used, for example, in creating a bubble or a droplet....">
<polygon fill="none" stroke="black" points="169.5,-856.5 169.5,-886.5 279.5,-886.5 279.5,-856.5 169.5,-856.5"/>
<text text-anchor="start" x="177.5" y="-874.5" font-family="Helvetica,sans-Serif" font-size="10.00">m_initial_condition</text>
<text text-anchor="middle" x="224.5" y="-863.5" font-family="Helvetica,sans-Serif" font-size="10.00">::s_circle</text>
</a>
</g>
</g>
<!-- Node1&#45;&gt;Node8 -->
<g id="edge7" class="edge">
<title>Node1&#45;&gt;Node8</title>
<path fill="none" stroke="midnightblue" d="M56.19,-575.05C57.79,-627.73 69.42,-768.91 146,-846.5 150.14,-850.69 154.98,-854.18 160.18,-857.08"/>
<polygon fill="midnightblue" stroke="midnightblue" points="158.7,-860.25 169.23,-861.44 161.74,-853.95 158.7,-860.25"/>
</g>
<!-- Node9 -->
<g id="node9" class="node">
<title>Node9</title>
<g id="a_node9"><a xlink:href="namespacem__variables__conversion.html#a589fffc2fe084855ea9e86935f1916b1" target="_top" xlink:title="Converts the conservative variables to the primitive ones.">
<polygon fill="none" stroke="black" points="155.5,-796 155.5,-837 293.5,-837 293.5,-796 155.5,-796"/>
<text text-anchor="start" x="163.5" y="-825" font-family="Helvetica,sans-Serif" font-size="10.00">m_variables_conversion</text>
<text text-anchor="start" x="163.5" y="-814" font-family="Helvetica,sans-Serif" font-size="10.00">::s_convert_conservative</text>
<text text-anchor="middle" x="224.5" y="-803" font-family="Helvetica,sans-Serif" font-size="10.00">_to_primitive_variables</text>
</a>
</g>
</g>
<!-- Node1&#45;&gt;Node9 -->
<g id="edge8" class="edge">
<title>Node1&#45;&gt;Node9</title>
<path fill="none" stroke="midnightblue" d="M58.4,-575.18C64.64,-619.78 85.34,-725.88 146,-786.5 147.08,-787.58 148.21,-788.63 149.38,-789.64"/>
<polygon fill="midnightblue" stroke="midnightblue" points="147.46,-792.58 157.57,-795.77 151.66,-786.97 147.46,-792.58"/>
</g>
<!-- Node10 -->
<g id="node10" class="node">
<title>Node10</title>
<g id="a_node10"><a xlink:href="namespacem__variables__conversion.html#a63d50d6771031b79117f2aba60e0cca3" target="_top" xlink:title="Converts the primitive variables to the conservative ones. Used when initializing patches.">
<polygon fill="none" stroke="black" points="149.5,-736 149.5,-777 299.5,-777 299.5,-736 149.5,-736"/>
<text text-anchor="start" x="157.5" y="-765" font-family="Helvetica,sans-Serif" font-size="10.00">m_variables_conversion</text>
<text text-anchor="start" x="157.5" y="-754" font-family="Helvetica,sans-Serif" font-size="10.00">::s_convert_primitive</text>
<text text-anchor="middle" x="224.5" y="-743" font-family="Helvetica,sans-Serif" font-size="10.00">_to_conservative_variables</text>
</a>
</g>
</g>
<!-- Node1&#45;&gt;Node10 -->
<g id="edge9" class="edge">
<title>Node1&#45;&gt;Node10</title>
<path fill="none" stroke="midnightblue" d="M61.59,-575.24C72.22,-610.93 98.62,-684.18 146,-726.5 147.33,-727.69 148.72,-728.83 150.14,-729.93"/>
<polygon fill="midnightblue" stroke="midnightblue" points="148.51,-733.06 158.75,-735.78 152.44,-727.27 148.51,-733.06"/>
</g>
<!-- Node11 -->
<g id="node11" class="node">
<title>Node11</title>
<g id="a_node11"><a xlink:href="namespacem__initial__condition.html#a2297a9b98d2478b3594083197bd9b8b5" target="_top" xlink:title="The cuboidal patch is a 3D geometry that may be used, for example, in creating a solid boundary,...">
<polygon fill="none" stroke="black" points="169.5,-954.5 169.5,-984.5 279.5,-984.5 279.5,-954.5 169.5,-954.5"/>
<text text-anchor="start" x="177.5" y="-972.5" font-family="Helvetica,sans-Serif" font-size="10.00">m_initial_condition</text>
<text text-anchor="middle" x="224.5" y="-961.5" font-family="Helvetica,sans-Serif" font-size="10.00">::s_cuboid</text>
</a>
</g>
</g>
<!-- Node1&#45;&gt;Node11 -->
<g id="edge10" class="edge">
<title>Node1&#45;&gt;Node11</title>
<path fill="none" stroke="midnightblue" d="M58.05,-575.1C65.66,-647.68 94.57,-890.12 146,-945.5 150.05,-949.86 154.88,-953.44 160.12,-956.37"/>
<polygon fill="midnightblue" stroke="midnightblue" points="158.72,-959.58 169.25,-960.72 161.73,-953.26 158.72,-959.58"/>
</g>
<!-- Node12 -->
<g id="node12" class="node">
<title>Node12</title>
<g id="a_node12"><a xlink:href="namespacem__initial__condition.html#af834c631376de6906fb6b002df70ce49" target="_top" xlink:title="The cylindrical patch is a 3D geometry that may be used, for example, in setting up a cylindrical sol...">
<polygon fill="none" stroke="black" points="169.5,-686.5 169.5,-716.5 279.5,-716.5 279.5,-686.5 169.5,-686.5"/>
<text text-anchor="start" x="177.5" y="-704.5" font-family="Helvetica,sans-Serif" font-size="10.00">m_initial_condition</text>
<text text-anchor="middle" x="224.5" y="-693.5" font-family="Helvetica,sans-Serif" font-size="10.00">::s_cylinder</text>
</a>
</g>
</g>
<!-- Node1&#45;&gt;Node12 -->
<g id="edge12" class="edge">
<title>Node1&#45;&gt;Node12</title>
<path fill="none" stroke="midnightblue" d="M65.77,-575.1C79.77,-602.46 108.09,-650.45 146,-677.5 150.26,-680.54 154.92,-683.2 159.77,-685.54"/>
<polygon fill="midnightblue" stroke="midnightblue" points="158.71,-688.89 169.28,-689.62 161.47,-682.46 158.71,-688.89"/>
</g>
<!-- Node13 -->
<g id="node13" class="node">
<title>Node13</title>
<g id="a_node13"><a xlink:href="namespacem__initial__condition.html#a5e999ad19f23f5f2b059b80e49c0a086" target="_top" xlink:title="The elliptical patch is a 2D geometry. The geometry of the patch is well&#45;defined when its centroid an...">
<polygon fill="none" stroke="black" points="169.5,-588.5 169.5,-618.5 279.5,-618.5 279.5,-588.5 169.5,-588.5"/>
<text text-anchor="start" x="177.5" y="-606.5" font-family="Helvetica,sans-Serif" font-size="10.00">m_initial_condition</text>
<text text-anchor="middle" x="224.5" y="-595.5" font-family="Helvetica,sans-Serif" font-size="10.00">::s_ellipse</text>
</a>
</g>
</g>
<!-- Node1&#45;&gt;Node13 -->
<g id="edge14" class="edge">
<title>Node1&#45;&gt;Node13</title>
<path fill="none" stroke="midnightblue" d="M110.38,-570.41C126.91,-575.24 145.19,-580.59 162.14,-585.55"/>
<polygon fill="midnightblue" stroke="midnightblue" points="161.37,-588.97 171.95,-588.42 163.34,-582.25 161.37,-588.97"/>
</g>
<!-- Node14 -->
<g id="node14" class="node">
<title>Node14</title>
<g id="a_node14"><a xlink:href="namespacem__initial__condition.html#a524f37de8423b7943c22c5d105eda922" target="_top" xlink:title="The ellipsoidal patch is a 3D geometry. The geometry of the patch is well&#45;defined when its centroid a...">
<polygon fill="none" stroke="black" points="169.5,-637.5 169.5,-667.5 279.5,-667.5 279.5,-637.5 169.5,-637.5"/>
<text text-anchor="start" x="177.5" y="-655.5" font-family="Helvetica,sans-Serif" font-size="10.00">m_initial_condition</text>
<text text-anchor="middle" x="224.5" y="-644.5" font-family="Helvetica,sans-Serif" font-size="10.00">::s_ellipsoid</text>
</a>
</g>
</g>
<!-- Node1&#45;&gt;Node14 -->
<g id="edge15" class="edge">
<title>Node1&#45;&gt;Node14</title>
<path fill="none" stroke="midnightblue" d="M76.47,-575.32C93.68,-591.78 119.64,-614.3 146,-628.5 150.46,-630.9 155.19,-633.1 160.04,-635.11"/>
<polygon fill="midnightblue" stroke="midnightblue" points="158.86,-638.41 169.45,-638.74 161.38,-631.88 158.86,-638.41"/>
</g>
<!-- Node15 -->
<g id="node15" class="node">
<title>Node15</title>
<g id="a_node15"><a xlink:href="namespacem__initial__condition.html#ab329077796ad7579df0a96543263150d" target="_top" xlink:title="The isentropic vortex is a 2D geometry that may be used, for example, to generate an isentropic flow ...">
<polygon fill="none" stroke="black" points="165.5,-490.5 165.5,-520.5 283.5,-520.5 283.5,-490.5 165.5,-490.5"/>
<text text-anchor="start" x="173.5" y="-508.5" font-family="Helvetica,sans-Serif" font-size="10.00">m_initial_condition</text>
<text text-anchor="middle" x="224.5" y="-497.5" font-family="Helvetica,sans-Serif" font-size="10.00">::s_isentropic_vortex</text>
</a>
</g>
</g>
<!-- Node1&#45;&gt;Node15 -->
<g id="edge17" class="edge">
<title>Node1&#45;&gt;Node15</title>
<path fill="none" stroke="midnightblue" d="M110.38,-538.59C126.91,-533.76 145.19,-528.41 162.14,-523.45"/>
<polygon fill="midnightblue" stroke="midnightblue" points="163.34,-526.75 171.95,-520.58 161.37,-520.03 163.34,-526.75"/>
</g>
<!-- Node16 -->
<g id="node16" class="node">
<title>Node16</title>
<g id="a_node16"><a xlink:href="namespacem__initial__condition.html#a3be32c8ee8a7dffae734d063200471e8" target="_top" xlink:title="The line segment patch is a 1D geometry that may be used, for example, in creating a Riemann problem....">
<polygon fill="none" stroke="black" points="169.5,-441.5 169.5,-471.5 279.5,-471.5 279.5,-441.5 169.5,-441.5"/>
<text text-anchor="start" x="177.5" y="-459.5" font-family="Helvetica,sans-Serif" font-size="10.00">m_initial_condition</text>
<text text-anchor="middle" x="224.5" y="-448.5" font-family="Helvetica,sans-Serif" font-size="10.00">::s_line_segment</text>
</a>
</g>
</g>
<!-- Node1&#45;&gt;Node16 -->
<g id="edge18" class="edge">
<title>Node1&#45;&gt;Node16</title>
<path fill="none" stroke="midnightblue" d="M76.91,-533.73C94.18,-517.57 120,-495.59 146,-481.5 150.47,-479.08 155.21,-476.84 160.06,-474.79"/>
<polygon fill="midnightblue" stroke="midnightblue" points="161.47,-478 169.48,-471.07 158.89,-471.49 161.47,-478"/>
</g>
<!-- Node17 -->
<g id="node17" class="node">
<title>Node17</title>
<g id="a_node17"><a xlink:href="namespacem__initial__condition.html#afef3f507e182798fcfd7aecc52878fc9" target="_top" xlink:title=" ">
<polygon fill="none" stroke="black" points="169.5,-392.5 169.5,-422.5 279.5,-422.5 279.5,-392.5 169.5,-392.5"/>
<text text-anchor="start" x="177.5" y="-410.5" font-family="Helvetica,sans-Serif" font-size="10.00">m_initial_condition</text>
<text text-anchor="middle" x="224.5" y="-399.5" font-family="Helvetica,sans-Serif" font-size="10.00">::s_perturb_sphere</text>
</a>
</g>
</g>
<!-- Node1&#45;&gt;Node17 -->
<g id="edge19" class="edge">
<title>Node1&#45;&gt;Node17</title>
<path fill="none" stroke="midnightblue" d="M66.1,-533.67C80.28,-506.53 108.61,-459.4 146,-432.5 150.27,-429.43 154.93,-426.73 159.78,-424.34"/>
<polygon fill="midnightblue" stroke="midnightblue" points="161.55,-427.39 169.29,-420.15 158.73,-420.98 161.55,-427.39"/>
</g>
<!-- Node18 -->
<g id="node18" class="node">
<title>Node18</title>
<g id="a_node18"><a xlink:href="namespacem__initial__condition.html#ab66e3b04024a8ae7327857b1b265bc27" target="_top" xlink:title=" ">
<polygon fill="none" stroke="black" points="146,-343.5 146,-373.5 303,-373.5 303,-343.5 146,-343.5"/>
<text text-anchor="start" x="154" y="-361.5" font-family="Helvetica,sans-Serif" font-size="10.00">m_initial_condition</text>
<text text-anchor="middle" x="224.5" y="-350.5" font-family="Helvetica,sans-Serif" font-size="10.00">::s_perturb_surrounding_flow</text>
</a>
</g>
</g>
<!-- Node1&#45;&gt;Node18 -->
<g id="edge20" class="edge">
<title>Node1&#45;&gt;Node18</title>
<path fill="none" stroke="midnightblue" d="M61.29,-533.88C71.54,-498.07 97.47,-424.31 146,-383.5 147.99,-381.83 150.09,-380.27 152.28,-378.81"/>
<polygon fill="midnightblue" stroke="midnightblue" points="154.21,-381.74 161.1,-373.69 150.7,-375.68 154.21,-381.74"/>
</g>
<!-- Node19 -->
<g id="node19" class="node">
<title>Node19</title>
<g id="a_node19"><a xlink:href="namespacem__initial__condition.html#a9c54a1e384e94493914688f9a2a2cf14" target="_top" xlink:title="The rectangular patch is a 2D geometry that may be used, for example, in creating a solid boundary,...">
<polygon fill="none" stroke="black" points="169.5,-294.5 169.5,-324.5 279.5,-324.5 279.5,-294.5 169.5,-294.5"/>
<text text-anchor="start" x="177.5" y="-312.5" font-family="Helvetica,sans-Serif" font-size="10.00">m_initial_condition</text>
<text text-anchor="middle" x="224.5" y="-301.5" font-family="Helvetica,sans-Serif" font-size="10.00">::s_rectangle</text>
</a>
</g>
</g>
<!-- Node1&#45;&gt;Node19 -->
<g id="edge21" class="edge">
<title>Node1&#45;&gt;Node19</title>
<path fill="none" stroke="midnightblue" d="M58.59,-533.96C65.11,-490.76 86.21,-389.89 146,-334.5 150.15,-330.66 154.89,-327.4 159.94,-324.65"/>
<polygon fill="midnightblue" stroke="midnightblue" points="161.77,-327.66 169.31,-320.22 158.77,-321.33 161.77,-327.66"/>
</g>
<!-- Node20 -->
<g id="node20" class="node">
<title>Node20</title>
<g id="a_node20"><a xlink:href="namespacem__initial__condition.html#a9037159f591341d05fa5fb23fe82bc2c" target="_top" xlink:title="The spherical patch is a 3D geometry that may be used, for example, in creating a bubble or a droplet...">
<polygon fill="none" stroke="black" points="169.5,-539.5 169.5,-569.5 279.5,-569.5 279.5,-539.5 169.5,-539.5"/>
<text text-anchor="start" x="177.5" y="-557.5" font-family="Helvetica,sans-Serif" font-size="10.00">m_initial_condition</text>
<text text-anchor="middle" x="224.5" y="-546.5" font-family="Helvetica,sans-Serif" font-size="10.00">::s_sphere</text>
</a>
</g>
</g>
<!-- Node1&#45;&gt;Node20 -->
<g id="edge22" class="edge">
<title>Node1&#45;&gt;Node20</title>
<path fill="none" stroke="midnightblue" d="M110.38,-554.5C125.9,-554.5 142.95,-554.5 159.01,-554.5"/>
<polygon fill="midnightblue" stroke="midnightblue" points="159.39,-558 169.39,-554.5 159.39,-551 159.39,-558"/>
</g>
<!-- Node21 -->
<g id="node21" class="node">
<title>Node21</title>
<g id="a_node21"><a xlink:href="namespacem__initial__condition.html#af17f90ba4a3878feb6e38bc8d66cb950" target="_top" xlink:title="This patch generates the shape of the spherical harmonics as a perturbation to a perfect sphere.">
<polygon fill="none" stroke="black" points="160.5,-147.5 160.5,-177.5 288.5,-177.5 288.5,-147.5 160.5,-147.5"/>
<text text-anchor="start" x="168.5" y="-165.5" font-family="Helvetica,sans-Serif" font-size="10.00">m_initial_condition</text>
<text text-anchor="middle" x="224.5" y="-154.5" font-family="Helvetica,sans-Serif" font-size="10.00">::s_spherical_harmonic</text>
</a>
</g>
</g>
<!-- Node1&#45;&gt;Node21 -->
<g id="edge24" class="edge">
<title>Node1&#45;&gt;Node21</title>
<path fill="none" stroke="midnightblue" d="M58.43,-533.74C66.98,-463.93 97.84,-239.24 146,-187.5 147.81,-185.55 149.78,-183.76 151.86,-182.1"/>
<polygon fill="midnightblue" stroke="midnightblue" points="154.06,-184.84 160.43,-176.38 150.17,-179.02 154.06,-184.84"/>
</g>
<!-- Node23 -->
<g id="node23" class="node">
<title>Node23</title>
<g id="a_node23"><a xlink:href="namespacem__initial__condition.html#ac4540baa01372eb3df51b268769fa6fc" target="_top" xlink:title="The spiral patch is a 2D geometry that may be used, The geometry of the patch is well&#45;defined when it...">
<polygon fill="none" stroke="black" points="169.5,-49.5 169.5,-79.5 279.5,-79.5 279.5,-49.5 169.5,-49.5"/>
<text text-anchor="start" x="177.5" y="-67.5" font-family="Helvetica,sans-Serif" font-size="10.00">m_initial_condition</text>
<text text-anchor="middle" x="224.5" y="-56.5" font-family="Helvetica,sans-Serif" font-size="10.00">::s_spiral</text>
</a>
</g>
</g>
<!-- Node1&#45;&gt;Node23 -->
<g id="edge27" class="edge">
<title>Node1&#45;&gt;Node23</title>
<path fill="none" stroke="midnightblue" d="M57.23,-533.73C62.47,-452.31 85.44,-156.08 146,-88.5 150.03,-84 154.89,-80.33 160.19,-77.34"/>
<polygon fill="midnightblue" stroke="midnightblue" points="161.92,-80.4 169.44,-72.94 158.91,-74.08 161.92,-80.4"/>
</g>
<!-- Node25 -->
<g id="node25" class="node">
<title>Node25</title>
<g id="a_node25"><a xlink:href="namespacem__initial__condition.html#ab056c04c30f55423904517abe61ebd99" target="_top" xlink:title="The swept line patch is a 2D geometry that may be used, for example, in creating a solid boundary,...">
<polygon fill="none" stroke="black" points="169.5,-98.5 169.5,-128.5 279.5,-128.5 279.5,-98.5 169.5,-98.5"/>
<text text-anchor="start" x="177.5" y="-116.5" font-family="Helvetica,sans-Serif" font-size="10.00">m_initial_condition</text>
<text text-anchor="middle" x="224.5" y="-105.5" font-family="Helvetica,sans-Serif" font-size="10.00">::s_sweep_line</text>
</a>
</g>
</g>
<!-- Node1&#45;&gt;Node25 -->
<g id="edge29" class="edge">
<title>Node1&#45;&gt;Node25</title>
<path fill="none" stroke="midnightblue" d="M57.73,-533.86C64.49,-458.16 91.41,-197.1 146,-137.5 150.02,-133.11 154.83,-129.51 160.05,-126.57"/>
<polygon fill="midnightblue" stroke="midnightblue" points="161.66,-129.68 169.17,-122.21 158.64,-123.37 161.66,-129.68"/>
</g>
<!-- Node26 -->
<g id="node26" class="node">
<title>Node26</title>
<g id="a_node26"><a xlink:href="namespacem__initial__condition.html#a51f30d0a86584bdc757c22ebf7993e88" target="_top" xlink:title="The swept plane patch is a 3D geometry that may be used, for example, in creating a solid boundary,...">
<polygon fill="none" stroke="black" points="169.5,-245.5 169.5,-275.5 279.5,-275.5 279.5,-245.5 169.5,-245.5"/>
<text text-anchor="start" x="177.5" y="-263.5" font-family="Helvetica,sans-Serif" font-size="10.00">m_initial_condition</text>
<text text-anchor="middle" x="224.5" y="-252.5" font-family="Helvetica,sans-Serif" font-size="10.00">::s_sweep_plane</text>
</a>
</g>
</g>
<!-- Node1&#45;&gt;Node26 -->
<g id="edge30" class="edge">
<title>Node1&#45;&gt;Node26</title>
<path fill="none" stroke="midnightblue" d="M56.84,-533.72C59.98,-483.76 74.93,-355.81 146,-285.5 150.19,-281.36 155.06,-277.91 160.29,-275.02"/>
<polygon fill="midnightblue" stroke="midnightblue" points="161.84,-278.16 169.36,-270.69 158.83,-271.84 161.84,-278.16"/>
</g>
<!-- Node27 -->
<g id="node27" class="node">
<title>Node27</title>
<g id="a_node27"><a xlink:href="namespacem__initial__condition.html#a3e1c1480513e75b444ce7a77ed0fe598" target="_top" xlink:title="The varcircle patch is a 2D geometry that may be used . It generatres an annulus.">
<polygon fill="none" stroke="black" points="169.5,-0.5 169.5,-30.5 279.5,-30.5 279.5,-0.5 169.5,-0.5"/>
<text text-anchor="start" x="177.5" y="-18.5" font-family="Helvetica,sans-Serif" font-size="10.00">m_initial_condition</text>
<text text-anchor="middle" x="224.5" y="-7.5" font-family="Helvetica,sans-Serif" font-size="10.00">::s_varcircle</text>
</a>
</g>
</g>
<!-- Node1&#45;&gt;Node27 -->
<g id="edge32" class="edge">
<title>Node1&#45;&gt;Node27</title>
<path fill="none" stroke="midnightblue" d="M56.81,-533.95C60.6,-447.62 79.36,-115.21 146,-39.5 149.99,-34.96 154.83,-31.27 160.11,-28.27"/>
<polygon fill="midnightblue" stroke="midnightblue" points="161.84,-31.32 169.34,-23.85 158.81,-25.01 161.84,-31.32"/>
</g>
<!-- Node6 -->
<g id="node6" class="node">
<title>Node6</title>
<g id="a_node6"><a xlink:href="namespacem__initial__condition.html#a791e5fa466dd15343882711c91bae63d" target="_top" xlink:title=" ">
<polygon fill="none" stroke="black" points="340.5,-534 340.5,-575 465.5,-575 465.5,-534 340.5,-534"/>
<text text-anchor="start" x="348.5" y="-563" font-family="Helvetica,sans-Serif" font-size="10.00">m_initial_condition</text>
<text text-anchor="start" x="348.5" y="-552" font-family="Helvetica,sans-Serif" font-size="10.00">::s_convert_cylindrical</text>
<text text-anchor="middle" x="403" y="-541" font-family="Helvetica,sans-Serif" font-size="10.00">_to_cartesian_coord</text>
</a>
</g>
</g>
<!-- Node5&#45;&gt;Node6 -->
<g id="edge5" class="edge">
<title>Node5&#45;&gt;Node6</title>
<path fill="none" stroke="midnightblue" d="M279.75,-221.58C288.36,-225.14 296.54,-229.97 303,-236.5 382.79,-317.11 398.43,-460.88 401.38,-523.7"/>
<polygon fill="midnightblue" stroke="midnightblue" points="397.89,-523.91 401.77,-533.77 404.88,-523.64 397.89,-523.91"/>
</g>
<!-- Node11&#45;&gt;Node6 -->
<g id="edge11" class="edge">
<title>Node11&#45;&gt;Node6</title>
<path fill="none" stroke="midnightblue" d="M279.63,-960.61C288.35,-957.1 296.6,-952.24 303,-945.5 353.1,-892.7 387.12,-667.81 398.13,-585.15"/>
<polygon fill="midnightblue" stroke="midnightblue" points="401.62,-585.49 399.45,-575.12 394.68,-584.58 401.62,-585.49"/>
</g>
<!-- Node12&#45;&gt;Node6 -->
<g id="edge13" class="edge">
<title>Node12&#45;&gt;Node6</title>
<path fill="none" stroke="midnightblue" d="M279.52,-689.34C287.77,-686.22 295.89,-682.33 303,-677.5 338.85,-653.14 368.19,-611.95 385.38,-584.01"/>
<polygon fill="midnightblue" stroke="midnightblue" points="388.59,-585.46 390.73,-575.09 382.58,-581.86 388.59,-585.46"/>
</g>
<!-- Node14&#45;&gt;Node6 -->
<g id="edge16" class="edge">
<title>Node14&#45;&gt;Node6</title>
<path fill="none" stroke="midnightblue" d="M279.8,-638.29C287.76,-635.47 295.72,-632.21 303,-628.5 327.65,-615.94 352.58,-597.27 371.26,-581.82"/>
<polygon fill="midnightblue" stroke="midnightblue" points="373.72,-584.32 379.12,-575.2 369.21,-578.96 373.72,-584.32"/>
</g>
<!-- Node20&#45;&gt;Node6 -->
<g id="edge23" class="edge">
<title>Node20&#45;&gt;Node6</title>
<path fill="none" stroke="midnightblue" d="M279.9,-554.5C295.75,-554.5 313.32,-554.5 330.08,-554.5"/>
<polygon fill="midnightblue" stroke="midnightblue" points="330.38,-558 340.38,-554.5 330.38,-551 330.38,-558"/>
</g>
<!-- Node21&#45;&gt;Node6 -->
<g id="edge25" class="edge">
<title>Node21&#45;&gt;Node6</title>
<path fill="none" stroke="midnightblue" d="M288.84,-176.69C294.07,-179.64 298.9,-183.2 303,-187.5 394.16,-283.2 403.28,-453.79 402.93,-523.52"/>
<polygon fill="midnightblue" stroke="midnightblue" points="399.42,-523.77 402.8,-533.81 406.42,-523.86 399.42,-523.77"/>
</g>
<!-- Node22 -->
<g id="node22" class="node">
<title>Node22</title>
<g id="a_node22"><a xlink:href="namespacem__initial__condition.html#a88d2e8debdc097d4d811fb67d6fbc880" target="_top" xlink:title=" ">
<polygon fill="none" stroke="black" points="340.5,-142 340.5,-183 465.5,-183 465.5,-142 340.5,-142"/>
<text text-anchor="start" x="348.5" y="-171" font-family="Helvetica,sans-Serif" font-size="10.00">m_initial_condition</text>
<text text-anchor="start" x="348.5" y="-160" font-family="Helvetica,sans-Serif" font-size="10.00">::s_convert_cylindrical</text>
<text text-anchor="middle" x="403" y="-149" font-family="Helvetica,sans-Serif" font-size="10.00">_to_spherical_coord</text>
</a>
</g>
</g>
<!-- Node21&#45;&gt;Node22 -->
<g id="edge26" class="edge">
<title>Node21&#45;&gt;Node22</title>
<path fill="none" stroke="midnightblue" d="M288.72,-162.5C302.12,-162.5 316.36,-162.5 330.06,-162.5"/>
<polygon fill="midnightblue" stroke="midnightblue" points="330.4,-166 340.4,-162.5 330.4,-159 330.4,-166"/>
</g>
<!-- Node24 -->
<g id="node24" class="node">
<title>Node24</title>
<g id="a_node24"><a xlink:href="namespacem__initial__condition.html#a6bd15d72ae72d7c598bbc3b57cf0b90e" target="_top" xlink:title="Archimedes spiral function.">
<polygon fill="none" stroke="black" points="339,-55 339,-74 467,-74 467,-55 339,-55"/>
<text text-anchor="middle" x="403" y="-62" font-family="Helvetica,sans-Serif" font-size="10.00">m_initial_condition::f_r</text>
</a>
</g>
</g>
<!-- Node23&#45;&gt;Node24 -->
<g id="edge28" class="edge">
<title>Node23&#45;&gt;Node24</title>
<path fill="none" stroke="midnightblue" d="M279.9,-64.5C295.33,-64.5 312.39,-64.5 328.75,-64.5"/>
<polygon fill="midnightblue" stroke="midnightblue" points="328.82,-68 338.82,-64.5 328.82,-61 328.82,-68"/>
</g>
<!-- Node26&#45;&gt;Node6 -->
<g id="edge31" class="edge">
<title>Node26&#45;&gt;Node6</title>
<path fill="none" stroke="midnightblue" d="M279.88,-271.02C288.37,-274.54 296.47,-279.23 303,-285.5 371.31,-351.09 392.77,-467.83 399.28,-523.41"/>
<polygon fill="midnightblue" stroke="midnightblue" points="395.84,-524.12 400.4,-533.68 402.8,-523.36 395.84,-524.12"/>
</g>
</g>
</svg>
