<?xml version="1.0" encoding="UTF-8" standalone="no"?>
<!DOCTYPE svg PUBLIC "-//W3C//DTD SVG 1.1//EN"
 "http://www.w3.org/Graphics/SVG/1.1/DTD/svg11.dtd">
<!-- Generated by graphviz version 2.43.0 (0)
 -->
<!-- Title: m_global_parameters::s_quad Pages: 1 -->
<svg width="736pt" height="88pt"
 viewBox="0.00 0.00 736.00 88.00" xmlns="http://www.w3.org/2000/svg" xmlns:xlink="http://www.w3.org/1999/xlink">
<g id="graph0" class="graph" transform="scale(1 1) rotate(0) translate(4 84)">
<title>m_global_parameters::s_quad</title>
<!-- Node1 -->
<g id="node1" class="node">
<title>Node1</title>
<g id="a_node1"><a xlink:title="Computes the quadrature for polydisperse bubble populations.">
<polygon fill="#bfbfbf" stroke="black" points="605,-24.5 605,-54.5 728,-54.5 728,-24.5 605,-24.5"/>
<text text-anchor="start" x="613" y="-42.5" font-family="Helvetica,sans-Serif" font-size="10.00">m_global_parameters</text>
<text text-anchor="middle" x="666.5" y="-31.5" font-family="Helvetica,sans-Serif" font-size="10.00">::s_quad</text>
</a>
</g>
</g>
<!-- Node2 -->
<g id="node2" class="node">
<title>Node2</title>
<g id="a_node2"><a xlink:href="namespacem__global__parameters.html#aac1a5a73b1eae759c913983b38047167" target="_top" xlink:title="Computes the bubble number density n from the conservative variables.">
<polygon fill="none" stroke="black" points="441,-49.5 441,-79.5 569,-79.5 569,-49.5 441,-49.5"/>
<text text-anchor="start" x="449" y="-67.5" font-family="Helvetica,sans-Serif" font-size="10.00">m_global_parameters</text>
<text text-anchor="middle" x="505" y="-56.5" font-family="Helvetica,sans-Serif" font-size="10.00">::s_comp_n_from_cons</text>
</a>
</g>
</g>
<!-- Node1&#45;&gt;Node2 -->
<g id="edge1" class="edge">
<title>Node1&#45;&gt;Node2</title>
<path fill="none" stroke="midnightblue" d="M594.83,-50.58C586.31,-51.91 577.64,-53.27 569.24,-54.59"/>
<polygon fill="midnightblue" stroke="midnightblue" points="595.41,-54.03 604.74,-49.02 594.32,-47.11 595.41,-54.03"/>
</g>
<!-- Node6 -->
<g id="node6" class="node">
<title>Node6</title>
<g id="a_node6"><a xlink:href="namespacem__global__parameters.html#acdaa3827df6fee38a3e55e8b13130c27" target="_top" xlink:title="Computes the bubble number density n from the primitive variables.">
<polygon fill="none" stroke="black" points="441,-0.5 441,-30.5 569,-30.5 569,-0.5 441,-0.5"/>
<text text-anchor="start" x="449" y="-18.5" font-family="Helvetica,sans-Serif" font-size="10.00">m_global_parameters</text>
<text text-anchor="middle" x="505" y="-7.5" font-family="Helvetica,sans-Serif" font-size="10.00">::s_comp_n_from_prim</text>
</a>
</g>
</g>
<!-- Node1&#45;&gt;Node6 -->
<g id="edge6" class="edge">
<title>Node1&#45;&gt;Node6</title>
<path fill="none" stroke="midnightblue" d="M594.83,-28.87C586.31,-27.58 577.64,-26.28 569.24,-25.02"/>
<polygon fill="midnightblue" stroke="midnightblue" points="594.34,-32.33 604.74,-30.36 595.38,-25.41 594.34,-32.33"/>
</g>
<!-- Node3 -->
<g id="node3" class="node">
<title>Node3</title>
<g id="a_node3"><a xlink:href="namespacem__data__output.html#abaf86e34cd05a2227a23bcef0671a391" target="_top" xlink:title="Writes grid and initial condition data files to the &quot;0&quot; time&#45;step directory in the local processor ra...">
<polygon fill="none" stroke="black" points="274,-49.5 274,-79.5 405,-79.5 405,-49.5 274,-49.5"/>
<text text-anchor="start" x="282" y="-67.5" font-family="Helvetica,sans-Serif" font-size="10.00">m_data_output::s_write</text>
<text text-anchor="middle" x="339.5" y="-56.5" font-family="Helvetica,sans-Serif" font-size="10.00">_serial_data_files</text>
</a>
</g>
</g>
<!-- Node2&#45;&gt;Node3 -->
<g id="edge2" class="edge">
<title>Node2&#45;&gt;Node3</title>
<path fill="none" stroke="midnightblue" d="M430.55,-64.5C422.08,-64.5 413.5,-64.5 405.17,-64.5"/>
<polygon fill="midnightblue" stroke="midnightblue" points="430.79,-68 440.79,-64.5 430.79,-61 430.79,-68"/>
</g>
<!-- Node4 -->
<g id="node4" class="node">
<title>Node4</title>
<g id="a_node4"><a xlink:href="p__main_8f90.html#aeec10ee8e2940c953967da3e374e1579" target="_top" xlink:title="This program takes care of setting up the initial condition and grid data for the multicomponent flow...">
<polygon fill="none" stroke="black" points="0,-55 0,-74 53,-74 53,-55 0,-55"/>
<text text-anchor="middle" x="26.5" y="-62" font-family="Helvetica,sans-Serif" font-size="10.00">p_main</text>
</a>
</g>
</g>
<!-- Node3&#45;&gt;Node4 -->
<g id="edge3" class="edge">
<title>Node3&#45;&gt;Node4</title>
<path fill="none" stroke="midnightblue" d="M263.76,-66.98C255.07,-67.19 246.34,-67.38 238,-67.5 171.79,-68.49 155.2,-69.11 89,-67.5 77.24,-67.21 64.24,-66.62 53.22,-66.03"/>
<polygon fill="midnightblue" stroke="midnightblue" points="264,-70.47 273.9,-66.71 263.81,-63.48 264,-70.47"/>
</g>
<!-- Node5 -->
<g id="node5" class="node">
<title>Node5</title>
<g id="a_node5"><a xlink:href="namespacem__data__output.html#ab65b312ef83adb104cafafada9c998b6" target="_top" xlink:title="Computation of parameters, allocation procedures, and/or any other tasks needed to properly setup the...">
<polygon fill="none" stroke="black" points="89,-27.5 89,-57.5 238,-57.5 238,-27.5 89,-27.5"/>
<text text-anchor="start" x="97" y="-45.5" font-family="Helvetica,sans-Serif" font-size="10.00">m_data_output::s_initialize</text>
<text text-anchor="middle" x="163.5" y="-34.5" font-family="Helvetica,sans-Serif" font-size="10.00">_data_output_module</text>
</a>
</g>
</g>
<!-- Node3&#45;&gt;Node5 -->
<g id="edge4" class="edge">
<title>Node3&#45;&gt;Node5</title>
<path fill="none" stroke="midnightblue" d="M263.53,-55.02C255.11,-53.96 246.54,-52.87 238.13,-51.81"/>
<polygon fill="midnightblue" stroke="midnightblue" points="263.35,-58.53 273.71,-56.31 264.23,-51.58 263.35,-58.53"/>
</g>
<!-- Node5&#45;&gt;Node4 -->
<g id="edge5" class="edge">
<title>Node5&#45;&gt;Node4</title>
<path fill="none" stroke="midnightblue" d="M78.58,-56.18C69.39,-57.67 60.64,-59.1 53.05,-60.34"/>
<polygon fill="midnightblue" stroke="midnightblue" points="79.37,-59.59 88.68,-54.53 78.25,-52.68 79.37,-59.59"/>
</g>
</g>
</svg>
