<?xml version="1.0" encoding="UTF-8" standalone="no"?>
<!DOCTYPE svg PUBLIC "-//W3C//DTD SVG 1.1//EN"
 "http://www.w3.org/Graphics/SVG/1.1/DTD/svg11.dtd">
<!-- Generated by graphviz version 2.43.0 (0)
 -->
<!-- Title: m_initial_condition::s_generate_initial_condition Pages: 1 -->
<!--zoomable 1118 -->
<svg id="main" version="1.1" xmlns="http://www.w3.org/2000/svg" xmlns:xlink="http://www.w3.org/1999/xlink" xml:space="preserve" onload="init(evt)">
<style type="text/css"><![CDATA[
.edge:hover path { stroke: red; }
.edge:hover polygon { stroke: red; fill: red; }
]]></style>
<script type="text/javascript"><![CDATA[
var edges = document.getElementsByTagName('g');
if (edges && edges.length) {
  for (var i=0;i<edges.length;i++) {
    if (edges[i].id.substr(0,4)=='edge') {
      edges[i].setAttribute('class','edge');
    }
  }
}
]]></script>
        <defs>
                <circle id="rim" cx="0" cy="0" r="7"/>
                <circle id="rim2" cx="0" cy="0" r="3.5"/>
                <g id="zoomPlus">
                        <use xlink:href="#rim" fill="#404040">
                                <set attributeName="fill" to="#808080" begin="zoomplus.mouseover" end="zoomplus.mouseout"/>
                        </use>
                        <path d="M-4,0h8M0,-4v8" fill="none" stroke="white" stroke-width="1.5" pointer-events="none"/>
                </g>
                <g id="zoomMin">
                        <use xlink:href="#rim" fill="#404040">
                                <set attributeName="fill" to="#808080" begin="zoomminus.mouseover" end="zoomminus.mouseout"/>
                        </use>
                        <path d="M-4,0h8" fill="none" stroke="white" stroke-width="1.5" pointer-events="none"/>
                </g>
                <g id="dirArrow">
                        <path fill="none" stroke="white" stroke-width="1.5" d="M0,-3.0v7 M-2.5,-0.5L0,-3.0L2.5,-0.5"/>
                </g>
               <g id="resetDef">
                       <use xlink:href="#rim2" fill="#404040">
                               <set attributeName="fill" to="#808080" begin="reset.mouseover" end="reset.mouseout"/>
                       </use>
               </g>
        </defs>

<script type="text/javascript">
var viewWidth = 675;
var viewHeight = 1118;
var sectionId = 'dynsection-0';
</script>
<script xlink:href="svgpan.js"/>
<svg id="graph" class="graph">
<g id="viewport">
<title>m_initial_condition::s_generate_initial_condition</title>
<!-- Node1 -->
<g id="node1" class="node">
<title>Node1</title>
<g id="a_node1"><a xlink:title="This subroutine peruses the patches and depending on the type of geometry associated with a particula...">
<polygon fill="#999999" stroke="#666666" points="110,-563.5 0,-563.5 0,-522.5 110,-522.5 110,-563.5"/>
<text text-anchor="start" x="8" y="-551.5" font-family="Helvetica,sans-Serif" font-size="10.00">m_initial_condition</text>
<text text-anchor="start" x="8" y="-540.5" font-family="Helvetica,sans-Serif" font-size="10.00">::s_generate_initial</text>
<text text-anchor="middle" x="55" y="-529.5" font-family="Helvetica,sans-Serif" font-size="10.00">_condition</text>
</a>
</g>
</g>
<!-- Node2 -->
<g id="node2" class="node">
<title>Node2</title>
<g id="a_node2"><a xlink:href="namespacem__create__patches.html#a7238cfe624f85f47b5db7ed990bac882" target="_top" xlink:title="This patch assigns the primitive variables as analytical functions such that the code can be verified...">
<polygon fill="white" stroke="#666666" points="279.5,-1110 162.5,-1110 162.5,-1080 279.5,-1080 279.5,-1110"/>
<text text-anchor="start" x="170.5" y="-1098" font-family="Helvetica,sans-Serif" font-size="10.00">m_create_patches::s</text>
<text text-anchor="middle" x="221" y="-1087" font-family="Helvetica,sans-Serif" font-size="10.00">_1d_analytical</text>
</a>
</g>
</g>
<!-- Node1&#45;&gt;Node2 -->
<g id="edge1" class="edge">
<title>Node1&#45;&gt;Node2</title>
<path fill="none" stroke="#63b8ff" d="M56.74,-563.74C60.3,-651.67 78.33,-992.75 146,-1071 148.32,-1073.69 150.95,-1076.07 153.79,-1078.2"/>
<polygon fill="#63b8ff" stroke="#63b8ff" points="151.97,-1081.18 162.31,-1083.5 155.67,-1075.24 151.97,-1081.18"/>
</g>
<!-- Node3 -->
<g id="node3" class="node">
<title>Node3</title>
<g id="a_node3"><a xlink:href="namespacem__create__patches.html#a45efc2731e95c8b350986ecf5919d51b" target="_top" xlink:title=" ">
<polygon fill="white" stroke="#666666" points="279.5,-1062 162.5,-1062 162.5,-1032 279.5,-1032 279.5,-1062"/>
<text text-anchor="start" x="170.5" y="-1050" font-family="Helvetica,sans-Serif" font-size="10.00">m_create_patches::s</text>
<text text-anchor="middle" x="221" y="-1039" font-family="Helvetica,sans-Serif" font-size="10.00">_1d_bubble_pulse</text>
</a>
</g>
</g>
<!-- Node1&#45;&gt;Node3 -->
<g id="edge2" class="edge">
<title>Node1&#45;&gt;Node3</title>
<path fill="none" stroke="#63b8ff" d="M57.12,-563.52C62.01,-646.04 84.13,-952.64 146,-1023 148.35,-1025.67 150.99,-1028.04 153.85,-1030.15"/>
<polygon fill="#63b8ff" stroke="#63b8ff" points="152.04,-1033.15 162.39,-1035.43 155.72,-1027.2 152.04,-1033.15"/>
</g>
<!-- Node4 -->
<g id="node4" class="node">
<title>Node4</title>
<g id="a_node4"><a xlink:href="namespacem__create__patches.html#a289e416fe7f9722b502d932b685d1150" target="_top" xlink:title="This patch assigns the primitive variables as analytical functions such that the code can be verified...">
<polygon fill="white" stroke="#666666" points="279.5,-1014 162.5,-1014 162.5,-984 279.5,-984 279.5,-1014"/>
<text text-anchor="start" x="170.5" y="-1002" font-family="Helvetica,sans-Serif" font-size="10.00">m_create_patches::s</text>
<text text-anchor="middle" x="221" y="-991" font-family="Helvetica,sans-Serif" font-size="10.00">_2d_analytical</text>
</a>
</g>
</g>
<!-- Node1&#45;&gt;Node4 -->
<g id="edge3" class="edge">
<title>Node1&#45;&gt;Node4</title>
<path fill="none" stroke="#63b8ff" d="M57.59,-563.55C63.94,-640.8 89.98,-912.56 146,-975 148.37,-977.64 151.04,-980 153.91,-982.09"/>
<polygon fill="#63b8ff" stroke="#63b8ff" points="152.13,-985.11 162.49,-987.34 155.79,-979.14 152.13,-985.11"/>
</g>
<!-- Node5 -->
<g id="node5" class="node">
<title>Node5</title>
<g id="a_node5"><a xlink:href="namespacem__create__patches.html#a4eceb9a29fa2091ec1dc166d2c628288" target="_top" xlink:title="This patch assigns the primitive variables as analytical functions such that the code can be verified...">
<polygon fill="white" stroke="#666666" points="279.5,-270 162.5,-270 162.5,-240 279.5,-240 279.5,-270"/>
<text text-anchor="start" x="170.5" y="-258" font-family="Helvetica,sans-Serif" font-size="10.00">m_create_patches::s</text>
<text text-anchor="middle" x="221" y="-247" font-family="Helvetica,sans-Serif" font-size="10.00">_3d_analytical</text>
</a>
</g>
</g>
<!-- Node1&#45;&gt;Node5 -->
<g id="edge4" class="edge">
<title>Node1&#45;&gt;Node5</title>
<path fill="none" stroke="#63b8ff" d="M57,-522.25C60.49,-472.95 76.15,-347.82 146,-279 148.36,-276.68 150.94,-274.58 153.69,-272.69"/>
<polygon fill="#63b8ff" stroke="#63b8ff" points="155.5,-275.68 162.34,-267.59 151.95,-269.65 155.5,-275.68"/>
</g>
<!-- Node7 -->
<g id="node7" class="node">
<title>Node7</title>
<g id="a_node7"><a xlink:href="namespacem__create__patches.html#a14109493caaa887330cd525066523852" target="_top" xlink:title=" ">
<polygon fill="white" stroke="#666666" points="279.5,-906 162.5,-906 162.5,-876 279.5,-876 279.5,-906"/>
<text text-anchor="start" x="170.5" y="-894" font-family="Helvetica,sans-Serif" font-size="10.00">m_create_patches::s</text>
<text text-anchor="middle" x="221" y="-883" font-family="Helvetica,sans-Serif" font-size="10.00">_3dvarcircle</text>
</a>
</g>
</g>
<!-- Node1&#45;&gt;Node7 -->
<g id="edge6" class="edge">
<title>Node1&#45;&gt;Node7</title>
<path fill="none" stroke="#63b8ff" d="M55.44,-563.65C55.08,-620.23 61.99,-779.32 146,-867 148.34,-869.44 150.92,-871.63 153.69,-873.6"/>
<polygon fill="#63b8ff" stroke="#63b8ff" points="152.07,-876.71 162.44,-878.86 155.67,-870.71 152.07,-876.71"/>
</g>
<!-- Node8 -->
<g id="node8" class="node">
<title>Node8</title>
<g id="a_node8"><a xlink:href="namespacem__create__patches.html#a31853a2226699ec3e77f25d28c9ef97a" target="_top" xlink:title="The circular patch is a 2D geometry that may be used, for example, in creating a bubble or a droplet....">
<polygon fill="white" stroke="#666666" points="279.5,-858 162.5,-858 162.5,-828 279.5,-828 279.5,-858"/>
<text text-anchor="start" x="170.5" y="-846" font-family="Helvetica,sans-Serif" font-size="10.00">m_create_patches::s</text>
<text text-anchor="middle" x="221" y="-835" font-family="Helvetica,sans-Serif" font-size="10.00">_circle</text>
</a>
</g>
</g>
<!-- Node1&#45;&gt;Node8 -->
<g id="edge7" class="edge">
<title>Node1&#45;&gt;Node8</title>
<path fill="none" stroke="#63b8ff" d="M56.63,-563.55C59.29,-614.23 73.24,-746.36 146,-819 148.34,-821.34 150.91,-823.45 153.65,-825.35"/>
<polygon fill="#63b8ff" stroke="#63b8ff" points="151.9,-828.38 162.28,-830.47 155.47,-822.36 151.9,-828.38"/>
</g>
<!-- Node9 -->
<g id="node9" class="node">
<title>Node9</title>
<g id="a_node9"><a xlink:href="namespacem__variables__conversion.html#a86ac76fa70eabaede1b0f3a4af740560" target="_top" xlink:title="The following procedure handles the conversion between the conservative variables and the primitive v...">
<polygon fill="white" stroke="#666666" points="290,-965.5 152,-965.5 152,-924.5 290,-924.5 290,-965.5"/>
<text text-anchor="start" x="160" y="-953.5" font-family="Helvetica,sans-Serif" font-size="10.00">m_variables_conversion</text>
<text text-anchor="start" x="160" y="-942.5" font-family="Helvetica,sans-Serif" font-size="10.00">::s_convert_conservative</text>
<text text-anchor="middle" x="221" y="-931.5" font-family="Helvetica,sans-Serif" font-size="10.00">_to_primitive_variables</text>
</a>
</g>
</g>
<!-- Node1&#45;&gt;Node9 -->
<g id="edge8" class="edge">
<title>Node1&#45;&gt;Node9</title>
<path fill="none" stroke="#63b8ff" d="M58.53,-563.91C67.43,-634.24 99.25,-860.77 146,-915 146.75,-915.87 147.52,-916.71 148.32,-917.53"/>
<polygon fill="#63b8ff" stroke="#63b8ff" points="146.3,-920.4 156.17,-924.25 150.86,-915.09 146.3,-920.4"/>
</g>
<!-- Node15 -->
<g id="node15" class="node">
<title>Node15</title>
<g id="a_node15"><a xlink:href="namespacem__variables__conversion.html#a866ca0a45dcda5e1c48344e17df62fd1" target="_top" xlink:title="The following procedure handles the conversion between the primitive variables and the conservative v...">
<polygon fill="white" stroke="#666666" points="296,-761.5 146,-761.5 146,-720.5 296,-720.5 296,-761.5"/>
<text text-anchor="start" x="154" y="-749.5" font-family="Helvetica,sans-Serif" font-size="10.00">m_variables_conversion</text>
<text text-anchor="start" x="154" y="-738.5" font-family="Helvetica,sans-Serif" font-size="10.00">::s_convert_primitive</text>
<text text-anchor="middle" x="221" y="-727.5" font-family="Helvetica,sans-Serif" font-size="10.00">_to_conservative_variables</text>
</a>
</g>
</g>
<!-- Node1&#45;&gt;Node15 -->
<g id="edge14" class="edge">
<title>Node1&#45;&gt;Node15</title>
<path fill="none" stroke="#63b8ff" d="M61.97,-563.74C73.03,-598.69 99.85,-669.53 146,-711 147.47,-712.32 149,-713.59 150.59,-714.8"/>
<polygon fill="#63b8ff" stroke="#63b8ff" points="148.69,-717.74 158.93,-720.45 152.61,-711.94 148.69,-717.74"/>
</g>
<!-- Node16 -->
<g id="node16" class="node">
<title>Node16</title>
<g id="a_node16"><a xlink:href="namespacem__create__patches.html#a0cf8fa5e98458c926835aab5d823ed50" target="_top" xlink:title="The cuboidal patch is a 3D geometry that may be used, for example, in creating a solid boundary,...">
<polygon fill="white" stroke="#666666" points="279.5,-810 162.5,-810 162.5,-780 279.5,-780 279.5,-810"/>
<text text-anchor="start" x="170.5" y="-798" font-family="Helvetica,sans-Serif" font-size="10.00">m_create_patches::s</text>
<text text-anchor="middle" x="221" y="-787" font-family="Helvetica,sans-Serif" font-size="10.00">_cuboid</text>
</a>
</g>
</g>
<!-- Node1&#45;&gt;Node16 -->
<g id="edge15" class="edge">
<title>Node1&#45;&gt;Node16</title>
<path fill="none" stroke="#63b8ff" d="M58.26,-563.59C64.23,-607.94 84.44,-713.16 146,-771 148.29,-773.15 150.77,-775.11 153.4,-776.89"/>
<polygon fill="#63b8ff" stroke="#63b8ff" points="151.78,-780 162.19,-782.01 155.3,-773.95 151.78,-780"/>
</g>
<!-- Node17 -->
<g id="node17" class="node">
<title>Node17</title>
<g id="a_node17"><a xlink:href="namespacem__create__patches.html#ad66cf9dde61447d211ef2ee50c63a094" target="_top" xlink:title="The cylindrical patch is a 3D geometry that may be used, for example, in setting up a cylindrical sol...">
<polygon fill="white" stroke="#666666" points="279.5,-702 162.5,-702 162.5,-672 279.5,-672 279.5,-702"/>
<text text-anchor="start" x="170.5" y="-690" font-family="Helvetica,sans-Serif" font-size="10.00">m_create_patches::s</text>
<text text-anchor="middle" x="221" y="-679" font-family="Helvetica,sans-Serif" font-size="10.00">_cylinder</text>
</a>
</g>
</g>
<!-- Node1&#45;&gt;Node17 -->
<g id="edge17" class="edge">
<title>Node1&#45;&gt;Node17</title>
<path fill="none" stroke="#63b8ff" d="M66.44,-563.94C80.8,-590.69 109.13,-636.65 146,-663 148.24,-664.6 150.59,-666.1 153.03,-667.5"/>
<polygon fill="#63b8ff" stroke="#63b8ff" points="151.64,-670.72 162.13,-672.17 154.83,-664.49 151.64,-670.72"/>
</g>
<!-- Node18 -->
<g id="node18" class="node">
<title>Node18</title>
<g id="a_node18"><a xlink:href="namespacem__create__patches.html#a05291d1083b4237604139f3030255f7d" target="_top" xlink:title="The elliptical patch is a 2D geometry. The geometry of the patch is well&#45;defined when its centroid an...">
<polygon fill="white" stroke="#666666" points="279.5,-606 162.5,-606 162.5,-576 279.5,-576 279.5,-606"/>
<text text-anchor="start" x="170.5" y="-594" font-family="Helvetica,sans-Serif" font-size="10.00">m_create_patches::s</text>
<text text-anchor="middle" x="221" y="-583" font-family="Helvetica,sans-Serif" font-size="10.00">_ellipse</text>
</a>
</g>
</g>
<!-- Node1&#45;&gt;Node18 -->
<g id="edge19" class="edge">
<title>Node1&#45;&gt;Node18</title>
<path fill="none" stroke="#63b8ff" d="M110.15,-558.85C125.76,-563.42 142.9,-568.43 158.89,-573.12"/>
<polygon fill="#63b8ff" stroke="#63b8ff" points="158.1,-576.53 168.68,-575.98 160.07,-569.81 158.1,-576.53"/>
</g>
<!-- Node19 -->
<g id="node19" class="node">
<title>Node19</title>
<g id="a_node19"><a xlink:href="namespacem__create__patches.html#a0597653c3e8bde0e484f99412c5f2a57" target="_top" xlink:title="The ellipsoidal patch is a 3D geometry. The geometry of the patch is well&#45;defined when its centroid a...">
<polygon fill="white" stroke="#666666" points="279.5,-654 162.5,-654 162.5,-624 279.5,-624 279.5,-654"/>
<text text-anchor="start" x="170.5" y="-642" font-family="Helvetica,sans-Serif" font-size="10.00">m_create_patches::s</text>
<text text-anchor="middle" x="221" y="-631" font-family="Helvetica,sans-Serif" font-size="10.00">_ellipsoid</text>
</a>
</g>
</g>
<!-- Node1&#45;&gt;Node19 -->
<g id="edge20" class="edge">
<title>Node1&#45;&gt;Node19</title>
<path fill="none" stroke="#63b8ff" d="M77.32,-563.78C94.62,-579.67 120.28,-601.14 146,-615 149.28,-616.77 152.72,-618.44 156.24,-620"/>
<polygon fill="#63b8ff" stroke="#63b8ff" points="155.12,-623.33 165.7,-623.91 157.79,-616.86 155.12,-623.33"/>
</g>
<!-- Node20 -->
<g id="node20" class="node">
<title>Node20</title>
<g id="a_node20"><a xlink:href="namespacem__create__patches.html#ac155b19d0f7ae23b525855b46c7d196a" target="_top" xlink:title="The isentropic vortex is a 2D geometry that may be used, for example, to generate an isentropic flow ...">
<polygon fill="white" stroke="#666666" points="279.5,-510 162.5,-510 162.5,-480 279.5,-480 279.5,-510"/>
<text text-anchor="start" x="170.5" y="-498" font-family="Helvetica,sans-Serif" font-size="10.00">m_create_patches::s</text>
<text text-anchor="middle" x="221" y="-487" font-family="Helvetica,sans-Serif" font-size="10.00">_isentropic_vortex</text>
</a>
</g>
</g>
<!-- Node1&#45;&gt;Node20 -->
<g id="edge22" class="edge">
<title>Node1&#45;&gt;Node20</title>
<path fill="none" stroke="#63b8ff" d="M110.15,-527.15C125.76,-522.58 142.9,-517.57 158.89,-512.88"/>
<polygon fill="#63b8ff" stroke="#63b8ff" points="160.07,-516.19 168.68,-510.02 158.1,-509.47 160.07,-516.19"/>
</g>
<!-- Node21 -->
<g id="node21" class="node">
<title>Node21</title>
<g id="a_node21"><a xlink:href="namespacem__create__patches.html#a8c26483f9ae9ef49e6bacc4588fc9b1d" target="_top" xlink:title="The line segment patch is a 1D geometry that may be used, for example, in creating a Riemann problem....">
<polygon fill="white" stroke="#666666" points="279.5,-462 162.5,-462 162.5,-432 279.5,-432 279.5,-462"/>
<text text-anchor="start" x="170.5" y="-450" font-family="Helvetica,sans-Serif" font-size="10.00">m_create_patches::s</text>
<text text-anchor="middle" x="221" y="-439" font-family="Helvetica,sans-Serif" font-size="10.00">_line_segment</text>
</a>
</g>
</g>
<!-- Node1&#45;&gt;Node21 -->
<g id="edge23" class="edge">
<title>Node1&#45;&gt;Node21</title>
<path fill="none" stroke="#63b8ff" d="M77.32,-522.22C94.62,-506.33 120.28,-484.86 146,-471 149.28,-469.23 152.72,-467.56 156.24,-466"/>
<polygon fill="#63b8ff" stroke="#63b8ff" points="157.79,-469.14 165.7,-462.09 155.12,-462.67 157.79,-469.14"/>
</g>
<!-- Node22 -->
<g id="node22" class="node">
<title>Node22</title>
<g id="a_node22"><a xlink:href="namespacem__create__patches.html#af57599ea42b50284efc93e772b787eca" target="_top" xlink:title=" ">
<polygon fill="white" stroke="#666666" points="279.5,-414 162.5,-414 162.5,-384 279.5,-384 279.5,-414"/>
<text text-anchor="start" x="170.5" y="-402" font-family="Helvetica,sans-Serif" font-size="10.00">m_create_patches::s</text>
<text text-anchor="middle" x="221" y="-391" font-family="Helvetica,sans-Serif" font-size="10.00">_perturb_sphere</text>
</a>
</g>
</g>
<!-- Node1&#45;&gt;Node22 -->
<g id="edge24" class="edge">
<title>Node1&#45;&gt;Node22</title>
<path fill="none" stroke="#63b8ff" d="M66.44,-522.06C80.8,-495.31 109.13,-449.35 146,-423 148.24,-421.4 150.59,-419.9 153.03,-418.5"/>
<polygon fill="#63b8ff" stroke="#63b8ff" points="154.83,-421.51 162.13,-413.83 151.64,-415.28 154.83,-421.51"/>
</g>
<!-- Node23 -->
<g id="node23" class="node">
<title>Node23</title>
<g id="a_node23"><a xlink:href="namespacem__create__patches.html#afbffb41e4565befd87aa0273ed8a19ff" target="_top" xlink:title=" ">
<polygon fill="white" stroke="#666666" points="294,-366 148,-366 148,-336 294,-336 294,-366"/>
<text text-anchor="start" x="156" y="-354" font-family="Helvetica,sans-Serif" font-size="10.00">m_create_patches::s</text>
<text text-anchor="middle" x="221" y="-343" font-family="Helvetica,sans-Serif" font-size="10.00">_perturb_surrounding_flow</text>
</a>
</g>
</g>
<!-- Node1&#45;&gt;Node23 -->
<g id="edge25" class="edge">
<title>Node1&#45;&gt;Node23</title>
<path fill="none" stroke="#63b8ff" d="M61.49,-522.46C71.97,-487.18 98.15,-415 146,-375 147.55,-373.7 149.18,-372.47 150.86,-371.31"/>
<polygon fill="#63b8ff" stroke="#63b8ff" points="152.92,-374.16 159.71,-366.02 149.33,-368.15 152.92,-374.16"/>
</g>
<!-- Node24 -->
<g id="node24" class="node">
<title>Node24</title>
<g id="a_node24"><a xlink:href="namespacem__create__patches.html#a439aff2d0a23189c3f407ca59a7e962d" target="_top" xlink:title="The rectangular patch is a 2D geometry that may be used, for example, in creating a solid boundary,...">
<polygon fill="white" stroke="#666666" points="279.5,-318 162.5,-318 162.5,-288 279.5,-288 279.5,-318"/>
<text text-anchor="start" x="170.5" y="-306" font-family="Helvetica,sans-Serif" font-size="10.00">m_create_patches::s</text>
<text text-anchor="middle" x="221" y="-295" font-family="Helvetica,sans-Serif" font-size="10.00">_rectangle</text>
</a>
</g>
</g>
<!-- Node1&#45;&gt;Node24 -->
<g id="edge26" class="edge">
<title>Node1&#45;&gt;Node24</title>
<path fill="none" stroke="#63b8ff" d="M58.81,-522.19C65.69,-479.41 87.31,-381.11 146,-327 148.31,-324.87 150.81,-322.93 153.45,-321.16"/>
<polygon fill="#63b8ff" stroke="#63b8ff" points="155.35,-324.11 162.27,-316.08 151.86,-318.04 155.35,-324.11"/>
</g>
<!-- Node25 -->
<g id="node25" class="node">
<title>Node25</title>
<g id="a_node25"><a xlink:href="namespacem__create__patches.html#a565ecc7f4e08026fd7580e32736efa35" target="_top" xlink:title="The spherical patch is a 3D geometry that may be used, for example, in creating a bubble or a droplet...">
<polygon fill="white" stroke="#666666" points="279.5,-558 162.5,-558 162.5,-528 279.5,-528 279.5,-558"/>
<text text-anchor="start" x="170.5" y="-546" font-family="Helvetica,sans-Serif" font-size="10.00">m_create_patches::s</text>
<text text-anchor="middle" x="221" y="-535" font-family="Helvetica,sans-Serif" font-size="10.00">_sphere</text>
</a>
</g>
</g>
<!-- Node1&#45;&gt;Node25 -->
<g id="edge27" class="edge">
<title>Node1&#45;&gt;Node25</title>
<path fill="none" stroke="#63b8ff" d="M110.15,-543C123.59,-543 138.16,-543 152.17,-543"/>
<polygon fill="#63b8ff" stroke="#63b8ff" points="152.24,-546.5 162.24,-543 152.24,-539.5 152.24,-546.5"/>
</g>
<!-- Node26 -->
<g id="node26" class="node">
<title>Node26</title>
<g id="a_node26"><a xlink:href="namespacem__create__patches.html#a54f0f0e5805df845369db4680e461564" target="_top" xlink:title="This patch generates the shape of the spherical harmonics as a perturbation to a perfect sphere.">
<polygon fill="white" stroke="#666666" points="279.5,-174 162.5,-174 162.5,-144 279.5,-144 279.5,-174"/>
<text text-anchor="start" x="170.5" y="-162" font-family="Helvetica,sans-Serif" font-size="10.00">m_create_patches::s</text>
<text text-anchor="middle" x="221" y="-151" font-family="Helvetica,sans-Serif" font-size="10.00">_spherical_harmonic</text>
</a>
</g>
</g>
<!-- Node1&#45;&gt;Node26 -->
<g id="edge29" class="edge">
<title>Node1&#45;&gt;Node26</title>
<path fill="none" stroke="#63b8ff" d="M58.55,-522.15C67.38,-453.14 98.74,-233.62 146,-183 148.3,-180.53 150.86,-178.32 153.61,-176.33"/>
<polygon fill="#63b8ff" stroke="#63b8ff" points="155.6,-179.21 162.32,-171.02 151.96,-173.24 155.6,-179.21"/>
</g>
<!-- Node28 -->
<g id="node28" class="node">
<title>Node28</title>
<g id="a_node28"><a xlink:href="namespacem__create__patches.html#a42adae30594ebe18444eb9a3932eef88" target="_top" xlink:title="The spiral patch is a 2D geometry that may be used, The geometry of the patch is well&#45;defined when it...">
<polygon fill="white" stroke="#666666" points="279.5,-78 162.5,-78 162.5,-48 279.5,-48 279.5,-78"/>
<text text-anchor="start" x="170.5" y="-66" font-family="Helvetica,sans-Serif" font-size="10.00">m_create_patches::s</text>
<text text-anchor="middle" x="221" y="-55" font-family="Helvetica,sans-Serif" font-size="10.00">_spiral</text>
</a>
</g>
</g>
<!-- Node1&#45;&gt;Node28 -->
<g id="edge32" class="edge">
<title>Node1&#45;&gt;Node28</title>
<path fill="none" stroke="#63b8ff" d="M57.34,-522.42C62.96,-442.44 87.07,-153.38 146,-87 148.36,-84.34 151.01,-81.98 153.88,-79.88"/>
<polygon fill="#63b8ff" stroke="#63b8ff" points="155.75,-82.83 162.44,-74.61 152.09,-76.87 155.75,-82.83"/>
</g>
<!-- Node30 -->
<g id="node30" class="node">
<title>Node30</title>
<g id="a_node30"><a xlink:href="namespacem__create__patches.html#af11aee0ac5301ef5c0ac18a0f0de6fc1" target="_top" xlink:title="The swept line patch is a 2D geometry that may be used, for example, in creating a solid boundary,...">
<polygon fill="white" stroke="#666666" points="279.5,-126 162.5,-126 162.5,-96 279.5,-96 279.5,-126"/>
<text text-anchor="start" x="170.5" y="-114" font-family="Helvetica,sans-Serif" font-size="10.00">m_create_patches::s</text>
<text text-anchor="middle" x="221" y="-103" font-family="Helvetica,sans-Serif" font-size="10.00">_sweep_line</text>
</a>
</g>
</g>
<!-- Node1&#45;&gt;Node30 -->
<g id="edge35" class="edge">
<title>Node1&#45;&gt;Node30</title>
<path fill="none" stroke="#63b8ff" d="M57.87,-522.31C65.02,-447.66 92.92,-193.47 146,-135 148.27,-132.5 150.8,-130.26 153.52,-128.25"/>
<polygon fill="#63b8ff" stroke="#63b8ff" points="155.52,-131.13 162.18,-122.9 151.84,-125.18 155.52,-131.13"/>
</g>
<!-- Node31 -->
<g id="node31" class="node">
<title>Node31</title>
<g id="a_node31"><a xlink:href="namespacem__create__patches.html#adffe36b493554609593c737c004b3c5e" target="_top" xlink:title="The swept plane patch is a 3D geometry that may be used, for example, in creating a solid boundary,...">
<polygon fill="white" stroke="#666666" points="279.5,-222 162.5,-222 162.5,-192 279.5,-192 279.5,-222"/>
<text text-anchor="start" x="170.5" y="-210" font-family="Helvetica,sans-Serif" font-size="10.00">m_create_patches::s</text>
<text text-anchor="middle" x="221" y="-199" font-family="Helvetica,sans-Serif" font-size="10.00">_sweep_plane</text>
</a>
</g>
</g>
<!-- Node1&#45;&gt;Node31 -->
<g id="edge36" class="edge">
<title>Node1&#45;&gt;Node31</title>
<path fill="none" stroke="#63b8ff" d="M55.71,-522.3C56.09,-467.1 64.85,-314.86 146,-231 148.35,-228.57 150.94,-226.39 153.71,-224.43"/>
<polygon fill="#63b8ff" stroke="#63b8ff" points="155.7,-227.32 162.49,-219.18 152.11,-221.31 155.7,-227.32"/>
</g>
<!-- Node32 -->
<g id="node32" class="node">
<title>Node32</title>
<g id="a_node32"><a xlink:href="namespacem__create__patches.html#a491ae96aaf933da2565b6829958334c8" target="_top" xlink:title="The varcircle patch is a 2D geometry that may be used . It generatres an annulus.">
<polygon fill="white" stroke="#666666" points="279.5,-30 162.5,-30 162.5,0 279.5,0 279.5,-30"/>
<text text-anchor="start" x="170.5" y="-18" font-family="Helvetica,sans-Serif" font-size="10.00">m_create_patches::s</text>
<text text-anchor="middle" x="221" y="-7" font-family="Helvetica,sans-Serif" font-size="10.00">_varcircle</text>
</a>
</g>
</g>
<!-- Node1&#45;&gt;Node32 -->
<g id="edge38" class="edge">
<title>Node1&#45;&gt;Node32</title>
<path fill="none" stroke="#63b8ff" d="M56.92,-522.34C61.14,-437.04 81.24,-113.29 146,-39 148.33,-36.32 150.97,-33.94 153.82,-31.83"/>
<polygon fill="#63b8ff" stroke="#63b8ff" points="155.7,-34.78 162.35,-26.53 152.01,-28.83 155.7,-34.78"/>
</g>
<!-- Node6 -->
<g id="node6" class="node">
<title>Node6</title>
<g id="a_node6"><a xlink:href="namespacem__create__patches.html#ac0ec43616a83e56977993a1380a1452a" target="_top" xlink:title=" ">
<polygon fill="white" stroke="#666666" points="478.5,-563.5 361.5,-563.5 361.5,-522.5 478.5,-522.5 478.5,-563.5"/>
<text text-anchor="start" x="369.5" y="-551.5" font-family="Helvetica,sans-Serif" font-size="10.00">m_create_patches::s</text>
<text text-anchor="start" x="369.5" y="-540.5" font-family="Helvetica,sans-Serif" font-size="10.00">_convert_cylindrical</text>
<text text-anchor="middle" x="420" y="-529.5" font-family="Helvetica,sans-Serif" font-size="10.00">_to_cartesian_coord</text>
</a>
</g>
</g>
<!-- Node5&#45;&gt;Node6 -->
<g id="edge5" class="edge">
<title>Node5&#45;&gt;Node6</title>
<path fill="none" stroke="#63b8ff" d="M279.55,-268.28C285.51,-271.18 291.14,-274.7 296,-279 368.08,-342.76 400.97,-457.62 413.1,-512.37"/>
<polygon fill="#63b8ff" stroke="#63b8ff" points="409.75,-513.43 415.25,-522.48 416.59,-511.97 409.75,-513.43"/>
</g>
<!-- Node10 -->
<g id="node10" class="node">
<title>Node10</title>
<g id="a_node10"><a xlink:href="namespacem__global__parameters.html#ad6c69097a0e9f5acf637c6b49e0bd1ea" target="_top" xlink:title="Computes the bubble number density n from the conservative variables.">
<polygon fill="white" stroke="#666666" points="484,-876 356,-876 356,-846 484,-846 484,-876"/>
<text text-anchor="start" x="364" y="-864" font-family="Helvetica,sans-Serif" font-size="10.00">m_global_parameters</text>
<text text-anchor="middle" x="420" y="-853" font-family="Helvetica,sans-Serif" font-size="10.00">::s_comp_n_from_cons</text>
</a>
</g>
</g>
<!-- Node9&#45;&gt;Node10 -->
<g id="edge9" class="edge">
<title>Node9&#45;&gt;Node10</title>
<path fill="none" stroke="#63b8ff" d="M277.81,-924.45C284.08,-921.54 290.26,-918.37 296,-915 313.71,-904.58 313.77,-895.47 332,-886 336.5,-883.66 341.26,-881.51 346.12,-879.55"/>
<polygon fill="#63b8ff" stroke="#63b8ff" points="347.46,-882.78 355.59,-875.99 344.99,-876.23 347.46,-882.78"/>
</g>
<!-- Node12 -->
<g id="node12" class="node">
<title>Node12</title>
<g id="a_node12"><a xlink:href="namespacem__variables__conversion.html#a0d8355cfe5f7428da40115584f9eb3bd" target="_top" xlink:title="This procedure conditionally calculates the appropriate pressure.">
<polygon fill="white" stroke="#666666" points="487.5,-1043 352.5,-1043 352.5,-1013 487.5,-1013 487.5,-1043"/>
<text text-anchor="start" x="360.5" y="-1031" font-family="Helvetica,sans-Serif" font-size="10.00">m_variables_conversion</text>
<text text-anchor="middle" x="420" y="-1020" font-family="Helvetica,sans-Serif" font-size="10.00">::s_compute_pressure</text>
</a>
</g>
</g>
<!-- Node9&#45;&gt;Node12 -->
<g id="edge11" class="edge">
<title>Node9&#45;&gt;Node12</title>
<path fill="none" stroke="#63b8ff" d="M277.81,-965.55C284.08,-968.46 290.26,-971.63 296,-975 313.71,-985.42 313.72,-994.63 332,-1004 335.69,-1005.89 339.54,-1007.64 343.48,-1009.27"/>
<polygon fill="#63b8ff" stroke="#63b8ff" points="342.23,-1012.54 352.82,-1012.85 344.74,-1006 342.23,-1012.54"/>
</g>
<!-- Node13 -->
<g id="node13" class="node">
<title>Node13</title>
<g id="a_node13"><a xlink:href="namespacem__variables__conversion.html#a0e52444cc72f2fd0ea3a6d3543cfa32e" target="_top" xlink:title=" ">
<polygon fill="white" stroke="#666666" points="487.5,-994.5 352.5,-994.5 352.5,-953.5 487.5,-953.5 487.5,-994.5"/>
<text text-anchor="start" x="360.5" y="-982.5" font-family="Helvetica,sans-Serif" font-size="10.00">m_variables_conversion</text>
<text text-anchor="start" x="360.5" y="-971.5" font-family="Helvetica,sans-Serif" font-size="10.00">::s_convert_species_to</text>
<text text-anchor="middle" x="420" y="-960.5" font-family="Helvetica,sans-Serif" font-size="10.00">_mixture_variables_acc</text>
</a>
</g>
</g>
<!-- Node9&#45;&gt;Node13 -->
<g id="edge12" class="edge">
<title>Node9&#45;&gt;Node13</title>
<path fill="none" stroke="#63b8ff" d="M290.07,-955.02C306.9,-957.5 325.04,-960.17 342.25,-962.7"/>
<polygon fill="#63b8ff" stroke="#63b8ff" points="341.85,-966.18 352.26,-964.17 342.87,-959.26 341.85,-966.18"/>
</g>
<!-- Node14 -->
<g id="node14" class="node">
<title>Node14</title>
<g id="a_node14"><a xlink:href="namespacem__variables__conversion.html#a915eb0e3917fc09375124cf3df2c6df6" target="_top" xlink:title=" ">
<polygon fill="white" stroke="#666666" points="508,-935.5 332,-935.5 332,-894.5 508,-894.5 508,-935.5"/>
<text text-anchor="start" x="340" y="-923.5" font-family="Helvetica,sans-Serif" font-size="10.00">m_variables_conversion</text>
<text text-anchor="start" x="340" y="-912.5" font-family="Helvetica,sans-Serif" font-size="10.00">::s_convert_species_to</text>
<text text-anchor="middle" x="420" y="-901.5" font-family="Helvetica,sans-Serif" font-size="10.00">_mixture_variables_bubbles_acc</text>
</a>
</g>
</g>
<!-- Node9&#45;&gt;Node14 -->
<g id="edge13" class="edge">
<title>Node9&#45;&gt;Node14</title>
<path fill="none" stroke="#63b8ff" d="M290.07,-934.63C300.27,-933.08 310.95,-931.45 321.61,-929.83"/>
<polygon fill="#63b8ff" stroke="#63b8ff" points="322.46,-933.24 331.81,-928.28 321.4,-926.32 322.46,-933.24"/>
</g>
<!-- Node11 -->
<g id="node11" class="node">
<title>Node11</title>
<g id="a_node11"><a xlink:href="namespacem__global__parameters.html#aa5a48fa9cc196136634022cfa6708213" target="_top" xlink:title="Computes the quadrature for polydisperse bubble populations.">
<polygon fill="white" stroke="#666666" points="667,-876 544,-876 544,-846 667,-846 667,-876"/>
<text text-anchor="start" x="552" y="-864" font-family="Helvetica,sans-Serif" font-size="10.00">m_global_parameters</text>
<text text-anchor="middle" x="605.5" y="-853" font-family="Helvetica,sans-Serif" font-size="10.00">::s_quad</text>
</a>
</g>
</g>
<!-- Node10&#45;&gt;Node11 -->
<g id="edge10" class="edge">
<title>Node10&#45;&gt;Node11</title>
<path fill="none" stroke="#63b8ff" d="M484.15,-861C500.12,-861 517.37,-861 533.69,-861"/>
<polygon fill="#63b8ff" stroke="#63b8ff" points="533.71,-864.5 543.71,-861 533.71,-857.5 533.71,-864.5"/>
</g>
<!-- Node16&#45;&gt;Node6 -->
<g id="edge16" class="edge">
<title>Node16&#45;&gt;Node6</title>
<path fill="none" stroke="#63b8ff" d="M279.68,-781.26C285.54,-778.45 291.12,-775.06 296,-771 360.02,-717.63 395.81,-622.05 410.69,-573.34"/>
<polygon fill="#63b8ff" stroke="#63b8ff" points="414.06,-574.27 413.55,-563.69 407.35,-572.28 414.06,-574.27"/>
</g>
<!-- Node17&#45;&gt;Node6 -->
<g id="edge18" class="edge">
<title>Node17&#45;&gt;Node6</title>
<path fill="none" stroke="#63b8ff" d="M278.18,-671.85C284.38,-669.29 290.45,-666.35 296,-663 336.27,-638.68 373.6,-598.79 396.33,-571.74"/>
<polygon fill="#63b8ff" stroke="#63b8ff" points="399.23,-573.73 402.9,-563.79 393.83,-569.27 399.23,-573.73"/>
</g>
<!-- Node19&#45;&gt;Node6 -->
<g id="edge21" class="edge">
<title>Node19&#45;&gt;Node6</title>
<path fill="none" stroke="#63b8ff" d="M273.5,-623.89C281.15,-621.19 288.85,-618.21 296,-615 325.03,-601.98 355.92,-583.88 379.49,-569.08"/>
<polygon fill="#63b8ff" stroke="#63b8ff" points="381.58,-571.9 388.14,-563.59 377.82,-565.99 381.58,-571.9"/>
</g>
<!-- Node25&#45;&gt;Node6 -->
<g id="edge28" class="edge">
<title>Node25&#45;&gt;Node6</title>
<path fill="none" stroke="#63b8ff" d="M279.51,-543C301.97,-543 327.88,-543 351.24,-543"/>
<polygon fill="#63b8ff" stroke="#63b8ff" points="351.42,-546.5 361.42,-543 351.42,-539.5 351.42,-546.5"/>
</g>
<!-- Node26&#45;&gt;Node6 -->
<g id="edge30" class="edge">
<title>Node26&#45;&gt;Node6</title>
<path fill="none" stroke="#63b8ff" d="M279.65,-171.59C285.66,-174.61 291.28,-178.36 296,-183 390.04,-275.59 412.21,-442.95 417.42,-511.96"/>
<polygon fill="#63b8ff" stroke="#63b8ff" points="413.94,-512.43 418.11,-522.17 420.92,-511.95 413.94,-512.43"/>
</g>
<!-- Node27 -->
<g id="node27" class="node">
<title>Node27</title>
<g id="a_node27"><a xlink:href="namespacem__create__patches.html#a6ae150ea6bf9fd6689c0dff9ef500449" target="_top" xlink:title=" ">
<polygon fill="white" stroke="#666666" points="478.5,-179.5 361.5,-179.5 361.5,-138.5 478.5,-138.5 478.5,-179.5"/>
<text text-anchor="start" x="369.5" y="-167.5" font-family="Helvetica,sans-Serif" font-size="10.00">m_create_patches::s</text>
<text text-anchor="start" x="369.5" y="-156.5" font-family="Helvetica,sans-Serif" font-size="10.00">_convert_cylindrical</text>
<text text-anchor="middle" x="420" y="-145.5" font-family="Helvetica,sans-Serif" font-size="10.00">_to_spherical_coord</text>
</a>
</g>
</g>
<!-- Node26&#45;&gt;Node27 -->
<g id="edge31" class="edge">
<title>Node26&#45;&gt;Node27</title>
<path fill="none" stroke="#63b8ff" d="M279.51,-159C301.97,-159 327.88,-159 351.24,-159"/>
<polygon fill="#63b8ff" stroke="#63b8ff" points="351.42,-162.5 361.42,-159 351.42,-155.5 351.42,-162.5"/>
</g>
<!-- Node29 -->
<g id="node29" class="node">
<title>Node29</title>
<g id="a_node29"><a xlink:href="namespacem__create__patches.html#a2af7b0a5418c840cdd7b4edec5502454" target="_top" xlink:title="Archimedes spiral function.">
<polygon fill="white" stroke="#666666" points="482.5,-72.5 357.5,-72.5 357.5,-53.5 482.5,-53.5 482.5,-72.5"/>
<text text-anchor="middle" x="420" y="-60.5" font-family="Helvetica,sans-Serif" font-size="10.00">m_create_patches::f_r</text>
</a>
</g>
</g>
<!-- Node28&#45;&gt;Node29 -->
<g id="edge33" class="edge">
<title>Node28&#45;&gt;Node29</title>
<path fill="none" stroke="#63b8ff" d="M279.51,-63C300.68,-63 324.93,-63 347.21,-63"/>
<polygon fill="#63b8ff" stroke="#63b8ff" points="347.29,-66.5 357.29,-63 347.29,-59.5 347.29,-66.5"/>
</g>
<!-- Node29&#45;&gt;Node29 -->
<g id="edge34" class="edge">
<title>Node29&#45;&gt;Node29</title>
<path fill="none" stroke="#63b8ff" d="M391.64,-72.58C377.84,-81.23 387.3,-90.5 420,-90.5 442.48,-90.5 453.98,-86.12 454.48,-80.57"/>
<polygon fill="#63b8ff" stroke="#63b8ff" points="457.22,-78.39 448.36,-72.58 451.66,-82.65 457.22,-78.39"/>
</g>
<!-- Node31&#45;&gt;Node6 -->
<g id="edge37" class="edge">
<title>Node31&#45;&gt;Node6</title>
<path fill="none" stroke="#63b8ff" d="M279.82,-219.99C285.72,-222.94 291.28,-226.56 296,-231 379.02,-309.03 406.99,-450.06 415.56,-512.19"/>
<polygon fill="#63b8ff" stroke="#63b8ff" points="412.09,-512.69 416.86,-522.16 419.04,-511.79 412.09,-512.69"/>
</g>
</g>
</svg>
        <g id="navigator" transform="translate(0 0)" fill="#404254">
                <rect fill="#f2f5e9" fill-opacity="0.5" stroke="#606060" stroke-width=".5" x="0" y="0" width="60" height="60"/>
                <use id="zoomplus" xlink:href="#zoomPlus" x="17" y="9" onmousedown="handleZoom(evt,'in')"/>
                <use id="zoomminus" xlink:href="#zoomMin" x="42" y="9" onmousedown="handleZoom(evt,'out')"/>
                <use id="reset" xlink:href="#resetDef" x="30" y="36" onmousedown="handleReset()"/>
                <g id="arrowUp" xlink:href="#dirArrow" transform="translate(30 24)" onmousedown="handlePan(0,-1)">
                  <use xlink:href="#rim" fill="#404040">
                        <set attributeName="fill" to="#808080" begin="arrowUp.mouseover" end="arrowUp.mouseout"/>
                  </use>
                  <path fill="none" stroke="white" stroke-width="1.5" d="M0,-3.0v7 M-2.5,-0.5L0,-3.0L2.5,-0.5"/>
                </g>
                <g id="arrowRight" xlink:href="#dirArrow" transform="rotate(90) translate(36 -43)" onmousedown="handlePan(1,0)">
                  <use xlink:href="#rim" fill="#404040">
                        <set attributeName="fill" to="#808080" begin="arrowRight.mouseover" end="arrowRight.mouseout"/>
                  </use>
                  <path fill="none" stroke="white" stroke-width="1.5" d="M0,-3.0v7 M-2.5,-0.5L0,-3.0L2.5,-0.5"/>
                </g>
                <g id="arrowDown" xlink:href="#dirArrow" transform="rotate(180) translate(-30 -48)" onmousedown="handlePan(0,1)">
                  <use xlink:href="#rim" fill="#404040">
                        <set attributeName="fill" to="#808080" begin="arrowDown.mouseover" end="arrowDown.mouseout"/>
                  </use>
                  <path fill="none" stroke="white" stroke-width="1.5" d="M0,-3.0v7 M-2.5,-0.5L0,-3.0L2.5,-0.5"/>
                </g>
                <g id="arrowLeft" xlink:href="#dirArrow" transform="rotate(270) translate(-36 17)" onmousedown="handlePan(-1,0)">
                  <use xlink:href="#rim" fill="#404040">
                        <set attributeName="fill" to="#808080" begin="arrowLeft.mouseover" end="arrowLeft.mouseout"/>
                  </use>
                  <path fill="none" stroke="white" stroke-width="1.5" d="M0,-3.0v7 M-2.5,-0.5L0,-3.0L2.5,-0.5"/>
                </g>
        </g>
        <svg viewBox="0 0 15 15" width="100%" height="30px" preserveAspectRatio="xMaxYMin meet">
         <g id="arrow_out" transform="scale(0.3 0.3)">
          <a xlink:href="namespacem__initial__condition_aa74a70029e3ec0fd3225b369e7c5443e_cgraph_org.svg" target="_base">
           <rect id="button" ry="5" rx="5" y="6" x="6" height="38" width="38"
                fill="#f2f5e9" fill-opacity="0.5" stroke="#606060" stroke-width="1.0"/>
           <path id="arrow"
             d="M 11.500037,31.436501 C 11.940474,20.09759 22.043105,11.32322 32.158766,21.979434 L 37.068811,17.246167 C 37.068811,17.246167 37.088388,32 37.088388,32 L 22.160133,31.978069 C 22.160133,31.978069 26.997745,27.140456 26.997745,27.140456 C 18.528582,18.264221 13.291696,25.230495 11.500037,31.436501 z"
             style="fill:#404040;"/>
          </a>
         </g>
        </svg>
</svg>
