<?xml version="1.0" encoding="UTF-8" standalone="no"?>
<!DOCTYPE svg PUBLIC "-//W3C//DTD SVG 1.1//EN"
 "http://www.w3.org/Graphics/SVG/1.1/DTD/svg11.dtd">
<!-- Generated by graphviz version 2.43.0 (0)
 -->
<!-- Title: m_initial_condition::s_generate_initial_condition Pages: 1 -->
<!--zoomable 1156 -->
<svg id="main" version="1.1" xmlns="http://www.w3.org/2000/svg" xmlns:xlink="http://www.w3.org/1999/xlink" xml:space="preserve" onload="init(evt)">
<style type="text/css"><![CDATA[
.edge:hover path { stroke: red; }
.edge:hover polygon { stroke: red; fill: red; }
]]></style>
<script type="text/javascript"><![CDATA[
var edges = document.getElementsByTagName('g');
if (edges && edges.length) {
  for (var i=0;i<edges.length;i++) {
    if (edges[i].id.substr(0,4)=='edge') {
      edges[i].setAttribute('class','edge');
    }
  }
}
]]></script>
        <defs>
                <circle id="rim" cx="0" cy="0" r="7"/>
                <circle id="rim2" cx="0" cy="0" r="3.5"/>
                <g id="zoomPlus">
                        <use xlink:href="#rim" fill="#404040">
                                <set attributeName="fill" to="#808080" begin="zoomplus.mouseover" end="zoomplus.mouseout"/>
                        </use>
                        <path d="M-4,0h8M0,-4v8" fill="none" stroke="white" stroke-width="1.5" pointer-events="none"/>
                </g>
                <g id="zoomMin">
                        <use xlink:href="#rim" fill="#404040">
                                <set attributeName="fill" to="#808080" begin="zoomminus.mouseover" end="zoomminus.mouseout"/>
                        </use>
                        <path d="M-4,0h8" fill="none" stroke="white" stroke-width="1.5" pointer-events="none"/>
                </g>
                <g id="dirArrow">
                        <path fill="none" stroke="white" stroke-width="1.5" d="M0,-3.0v7 M-2.5,-0.5L0,-3.0L2.5,-0.5"/>
                </g>
               <g id="resetDef">
                       <use xlink:href="#rim2" fill="#404040">
                               <set attributeName="fill" to="#808080" begin="reset.mouseover" end="reset.mouseout"/>
                       </use>
               </g>
        </defs>

<script type="text/javascript">
var viewWidth = 675;
var viewHeight = 1156;
var sectionId = 'dynsection-0';
</script>
<script xlink:href="svgpan.js"/>
<svg id="graph" class="graph">
<g id="viewport">
<title>m_initial_condition::s_generate_initial_condition</title>
<!-- Node1 -->
<g id="node1" class="node">
<title>Node1</title>
<g id="a_node1"><a xlink:title="This subroutine peruses the patches and depending on the type of geometry associated with a particula...">
<polygon fill="#999999" stroke="#666666" points="110,-577.5 0,-577.5 0,-536.5 110,-536.5 110,-577.5"/>
<text text-anchor="start" x="8" y="-565.5" font-family="Helvetica,sans-Serif" font-size="10.00">m_initial_condition</text>
<text text-anchor="start" x="8" y="-554.5" font-family="Helvetica,sans-Serif" font-size="10.00">::s_generate_initial</text>
<text text-anchor="middle" x="55" y="-543.5" font-family="Helvetica,sans-Serif" font-size="10.00">_condition</text>
</a>
</g>
</g>
<!-- Node2 -->
<g id="node2" class="node">
<title>Node2</title>
<g id="a_node2"><a xlink:href="namespacem__create__patches.html#a7238cfe624f85f47b5db7ed990bac882" target="_top" xlink:title="This patch assigns the primitive variables as analytical functions such that the code can be verified...">
<polygon fill="white" stroke="#666666" points="279.5,-1148 162.5,-1148 162.5,-1118 279.5,-1118 279.5,-1148"/>
<text text-anchor="start" x="170.5" y="-1136" font-family="Helvetica,sans-Serif" font-size="10.00">m_create_patches::s</text>
<text text-anchor="middle" x="221" y="-1125" font-family="Helvetica,sans-Serif" font-size="10.00">_1d_analytical</text>
</a>
</g>
</g>
<!-- Node1&#45;&gt;Node2 -->
<g id="edge1" class="edge">
<title>Node1&#45;&gt;Node2</title>
<path fill="none" stroke="#63b8ff" d="M56.58,-577.75C59.49,-668.16 75.4,-1026.76 146,-1109 148.31,-1111.69 150.93,-1114.09 153.77,-1116.22"/>
<polygon fill="#63b8ff" stroke="#63b8ff" points="151.94,-1119.2 162.27,-1121.53 155.65,-1113.26 151.94,-1119.2"/>
</g>
<!-- Node3 -->
<g id="node3" class="node">
<title>Node3</title>
<g id="a_node3"><a xlink:href="namespacem__create__patches.html#a45efc2731e95c8b350986ecf5919d51b" target="_top" xlink:title=" ">
<polygon fill="white" stroke="#666666" points="279.5,-1100 162.5,-1100 162.5,-1070 279.5,-1070 279.5,-1100"/>
<text text-anchor="start" x="170.5" y="-1088" font-family="Helvetica,sans-Serif" font-size="10.00">m_create_patches::s</text>
<text text-anchor="middle" x="221" y="-1077" font-family="Helvetica,sans-Serif" font-size="10.00">_1d_bubble_pulse</text>
</a>
</g>
</g>
<!-- Node1&#45;&gt;Node3 -->
<g id="edge2" class="edge">
<title>Node1&#45;&gt;Node3</title>
<path fill="none" stroke="#63b8ff" d="M56.92,-577.66C61.14,-662.96 81.24,-986.71 146,-1061 148.33,-1063.68 150.97,-1066.06 153.82,-1068.17"/>
<polygon fill="#63b8ff" stroke="#63b8ff" points="152.01,-1071.17 162.35,-1073.47 155.7,-1065.22 152.01,-1071.17"/>
</g>
<!-- Node4 -->
<g id="node4" class="node">
<title>Node4</title>
<g id="a_node4"><a xlink:href="namespacem__create__patches.html#a289e416fe7f9722b502d932b685d1150" target="_top" xlink:title="This patch assigns the primitive variables as analytical functions such that the code can be verified...">
<polygon fill="white" stroke="#666666" points="279.5,-1052 162.5,-1052 162.5,-1022 279.5,-1022 279.5,-1052"/>
<text text-anchor="start" x="170.5" y="-1040" font-family="Helvetica,sans-Serif" font-size="10.00">m_create_patches::s</text>
<text text-anchor="middle" x="221" y="-1029" font-family="Helvetica,sans-Serif" font-size="10.00">_2d_analytical</text>
</a>
</g>
</g>
<!-- Node1&#45;&gt;Node4 -->
<g id="edge3" class="edge">
<title>Node1&#45;&gt;Node4</title>
<path fill="none" stroke="#63b8ff" d="M57.34,-577.58C62.96,-657.56 87.07,-946.62 146,-1013 148.36,-1015.66 151.01,-1018.02 153.88,-1020.12"/>
<polygon fill="#63b8ff" stroke="#63b8ff" points="152.09,-1023.13 162.44,-1025.39 155.75,-1017.17 152.09,-1023.13"/>
</g>
<!-- Node5 -->
<g id="node5" class="node">
<title>Node5</title>
<g id="a_node5"><a xlink:href="namespacem__create__patches.html#a4eceb9a29fa2091ec1dc166d2c628288" target="_top" xlink:title="This patch assigns the primitive variables as analytical functions such that the code can be verified...">
<polygon fill="white" stroke="#666666" points="279.5,-260 162.5,-260 162.5,-230 279.5,-230 279.5,-260"/>
<text text-anchor="start" x="170.5" y="-248" font-family="Helvetica,sans-Serif" font-size="10.00">m_create_patches::s</text>
<text text-anchor="middle" x="221" y="-237" font-family="Helvetica,sans-Serif" font-size="10.00">_3d_analytical</text>
</a>
</g>
</g>
<!-- Node1&#45;&gt;Node5 -->
<g id="edge4" class="edge">
<title>Node1&#45;&gt;Node5</title>
<path fill="none" stroke="#63b8ff" d="M56.3,-536.35C58.19,-484.1 70.47,-345.34 146,-269 148.33,-266.65 150.89,-264.53 153.61,-262.61"/>
<polygon fill="#63b8ff" stroke="#63b8ff" points="155.43,-265.6 162.22,-257.47 151.84,-259.59 155.43,-265.6"/>
</g>
<!-- Node7 -->
<g id="node7" class="node">
<title>Node7</title>
<g id="a_node7"><a xlink:href="namespacem__create__patches.html#a14109493caaa887330cd525066523852" target="_top" xlink:title=" ">
<polygon fill="white" stroke="#666666" points="279.5,-944 162.5,-944 162.5,-914 279.5,-914 279.5,-944"/>
<text text-anchor="start" x="170.5" y="-932" font-family="Helvetica,sans-Serif" font-size="10.00">m_create_patches::s</text>
<text text-anchor="middle" x="221" y="-921" font-family="Helvetica,sans-Serif" font-size="10.00">_3dvarcircle</text>
</a>
</g>
</g>
<!-- Node1&#45;&gt;Node7 -->
<g id="edge6" class="edge">
<title>Node1&#45;&gt;Node7</title>
<path fill="none" stroke="#63b8ff" d="M58.71,-577.63C67.94,-644.88 100.13,-856.26 146,-905 148.31,-907.46 150.88,-909.67 153.63,-911.65"/>
<polygon fill="#63b8ff" stroke="#63b8ff" points="151.99,-914.75 162.36,-916.94 155.62,-908.76 151.99,-914.75"/>
</g>
<!-- Node8 -->
<g id="node8" class="node">
<title>Node8</title>
<g id="a_node8"><a xlink:href="namespacem__create__patches.html#a31853a2226699ec3e77f25d28c9ef97a" target="_top" xlink:title="The circular patch is a 2D geometry that may be used, for example, in creating a bubble or a droplet....">
<polygon fill="white" stroke="#666666" points="279.5,-896 162.5,-896 162.5,-866 279.5,-866 279.5,-896"/>
<text text-anchor="start" x="170.5" y="-884" font-family="Helvetica,sans-Serif" font-size="10.00">m_create_patches::s</text>
<text text-anchor="middle" x="221" y="-873" font-family="Helvetica,sans-Serif" font-size="10.00">_circle</text>
</a>
</g>
</g>
<!-- Node1&#45;&gt;Node8 -->
<g id="edge7" class="edge">
<title>Node1&#45;&gt;Node8</title>
<path fill="none" stroke="#63b8ff" d="M56,-577.7C57.13,-631.46 67.68,-776.92 146,-857 148.31,-859.37 150.86,-861.5 153.58,-863.42"/>
<polygon fill="#63b8ff" stroke="#63b8ff" points="151.8,-866.43 162.17,-868.58 155.4,-860.43 151.8,-866.43"/>
</g>
<!-- Node9 -->
<g id="node9" class="node">
<title>Node9</title>
<g id="a_node9"><a xlink:href="namespacem__variables__conversion.html#a86ac76fa70eabaede1b0f3a4af740560" target="_top" xlink:title="The following procedure handles the conversion between the conservative variables and the primitive v...">
<polygon fill="white" stroke="#666666" points="290,-1003.5 152,-1003.5 152,-962.5 290,-962.5 290,-1003.5"/>
<text text-anchor="start" x="160" y="-991.5" font-family="Helvetica,sans-Serif" font-size="10.00">m_variables_conversion</text>
<text text-anchor="start" x="160" y="-980.5" font-family="Helvetica,sans-Serif" font-size="10.00">::s_convert_conservative</text>
<text text-anchor="middle" x="221" y="-969.5" font-family="Helvetica,sans-Serif" font-size="10.00">_to_primitive_variables</text>
</a>
</g>
</g>
<!-- Node1&#45;&gt;Node9 -->
<g id="edge8" class="edge">
<title>Node1&#45;&gt;Node9</title>
<path fill="none" stroke="#63b8ff" d="M58.18,-577.71C66.24,-650.71 96.45,-894.72 146,-953 146.74,-953.87 147.51,-954.72 148.31,-955.54"/>
<polygon fill="#63b8ff" stroke="#63b8ff" points="146.27,-958.4 156.12,-962.3 150.85,-953.11 146.27,-958.4"/>
</g>
<!-- Node15 -->
<g id="node15" class="node">
<title>Node15</title>
<g id="a_node15"><a xlink:href="namespacem__variables__conversion.html#a866ca0a45dcda5e1c48344e17df62fd1" target="_top" xlink:title="The following procedure handles the conversion between the primitive variables and the conservative v...">
<polygon fill="white" stroke="#666666" points="296,-799.5 146,-799.5 146,-758.5 296,-758.5 296,-799.5"/>
<text text-anchor="start" x="154" y="-787.5" font-family="Helvetica,sans-Serif" font-size="10.00">m_variables_conversion</text>
<text text-anchor="start" x="154" y="-776.5" font-family="Helvetica,sans-Serif" font-size="10.00">::s_convert_primitive</text>
<text text-anchor="middle" x="221" y="-765.5" font-family="Helvetica,sans-Serif" font-size="10.00">_to_conservative_variables</text>
</a>
</g>
</g>
<!-- Node1&#45;&gt;Node15 -->
<g id="edge14" class="edge">
<title>Node1&#45;&gt;Node15</title>
<path fill="none" stroke="#63b8ff" d="M60.37,-577.58C69.6,-616.25 94.58,-700.24 146,-749 147.28,-750.21 148.61,-751.38 150,-752.5"/>
<polygon fill="#63b8ff" stroke="#63b8ff" points="148.18,-755.51 158.36,-758.45 152.24,-749.8 148.18,-755.51"/>
</g>
<!-- Node16 -->
<g id="node16" class="node">
<title>Node16</title>
<g id="a_node16"><a xlink:href="namespacem__create__patches.html#a0cf8fa5e98458c926835aab5d823ed50" target="_top" xlink:title="The cuboidal patch is a 3D geometry that may be used, for example, in creating a solid boundary,...">
<polygon fill="white" stroke="#666666" points="279.5,-740 162.5,-740 162.5,-710 279.5,-710 279.5,-740"/>
<text text-anchor="start" x="170.5" y="-728" font-family="Helvetica,sans-Serif" font-size="10.00">m_create_patches::s</text>
<text text-anchor="middle" x="221" y="-717" font-family="Helvetica,sans-Serif" font-size="10.00">_cuboid</text>
</a>
</g>
</g>
<!-- Node1&#45;&gt;Node16 -->
<g id="edge15" class="edge">
<title>Node1&#45;&gt;Node16</title>
<path fill="none" stroke="#63b8ff" d="M63.51,-577.61C75.91,-608.8 103.59,-667.89 146,-701 148.3,-702.79 150.73,-704.45 153.26,-705.99"/>
<polygon fill="#63b8ff" stroke="#63b8ff" points="151.73,-709.14 162.19,-710.76 155.02,-702.96 151.73,-709.14"/>
</g>
<!-- Node17 -->
<g id="node17" class="node">
<title>Node17</title>
<g id="a_node17"><a xlink:href="namespacem__create__patches.html#ad66cf9dde61447d211ef2ee50c63a094" target="_top" xlink:title="The cylindrical patch is a 3D geometry that may be used, for example, in setting up a cylindrical sol...">
<polygon fill="white" stroke="#666666" points="279.5,-692 162.5,-692 162.5,-662 279.5,-662 279.5,-692"/>
<text text-anchor="start" x="170.5" y="-680" font-family="Helvetica,sans-Serif" font-size="10.00">m_create_patches::s</text>
<text text-anchor="middle" x="221" y="-669" font-family="Helvetica,sans-Serif" font-size="10.00">_cylinder</text>
</a>
</g>
</g>
<!-- Node1&#45;&gt;Node17 -->
<g id="edge17" class="edge">
<title>Node1&#45;&gt;Node17</title>
<path fill="none" stroke="#63b8ff" d="M70.26,-577.5C86.33,-599.17 114.37,-632.92 146,-653 148.6,-654.65 151.32,-656.19 154.12,-657.64"/>
<polygon fill="#63b8ff" stroke="#63b8ff" points="152.74,-660.86 163.28,-661.93 155.71,-654.52 152.74,-660.86"/>
</g>
<!-- Node18 -->
<g id="node18" class="node">
<title>Node18</title>
<g id="a_node18"><a xlink:href="namespacem__create__patches.html#a05291d1083b4237604139f3030255f7d" target="_top" xlink:title="The elliptical patch is a 2D geometry. The geometry of the patch is well&#45;defined when its centroid an...">
<polygon fill="white" stroke="#666666" points="279.5,-644 162.5,-644 162.5,-614 279.5,-614 279.5,-644"/>
<text text-anchor="start" x="170.5" y="-632" font-family="Helvetica,sans-Serif" font-size="10.00">m_create_patches::s</text>
<text text-anchor="middle" x="221" y="-621" font-family="Helvetica,sans-Serif" font-size="10.00">_ellipse</text>
</a>
</g>
</g>
<!-- Node1&#45;&gt;Node18 -->
<g id="edge19" class="edge">
<title>Node1&#45;&gt;Node18</title>
<path fill="none" stroke="#63b8ff" d="M91.2,-577.63C107.54,-586.72 127.42,-597.11 146,-605 150.43,-606.88 155.06,-608.7 159.75,-610.45"/>
<polygon fill="#63b8ff" stroke="#63b8ff" points="158.81,-613.83 169.41,-613.91 161.17,-607.24 158.81,-613.83"/>
</g>
<!-- Node19 -->
<g id="node19" class="node">
<title>Node19</title>
<g id="a_node19"><a xlink:href="namespacem__create__patches.html#a0597653c3e8bde0e484f99412c5f2a57" target="_top" xlink:title="The ellipsoidal patch is a 3D geometry. The geometry of the patch is well&#45;defined when its centroid a...">
<polygon fill="white" stroke="#666666" points="279.5,-596 162.5,-596 162.5,-566 279.5,-566 279.5,-596"/>
<text text-anchor="start" x="170.5" y="-584" font-family="Helvetica,sans-Serif" font-size="10.00">m_create_patches::s</text>
<text text-anchor="middle" x="221" y="-573" font-family="Helvetica,sans-Serif" font-size="10.00">_ellipsoid</text>
</a>
</g>
</g>
<!-- Node1&#45;&gt;Node19 -->
<g id="edge20" class="edge">
<title>Node1&#45;&gt;Node19</title>
<path fill="none" stroke="#63b8ff" d="M110.15,-564.93C123.59,-566.89 138.16,-569.02 152.17,-571.07"/>
<polygon fill="#63b8ff" stroke="#63b8ff" points="151.84,-574.56 162.24,-572.55 152.85,-567.64 151.84,-574.56"/>
</g>
<!-- Node20 -->
<g id="node20" class="node">
<title>Node20</title>
<g id="a_node20"><a xlink:href="namespacem__create__patches.html#ac155b19d0f7ae23b525855b46c7d196a" target="_top" xlink:title="The isentropic vortex is a 2D geometry that may be used, for example, to generate an isentropic flow ...">
<polygon fill="white" stroke="#666666" points="279.5,-548 162.5,-548 162.5,-518 279.5,-518 279.5,-548"/>
<text text-anchor="start" x="170.5" y="-536" font-family="Helvetica,sans-Serif" font-size="10.00">m_create_patches::s</text>
<text text-anchor="middle" x="221" y="-525" font-family="Helvetica,sans-Serif" font-size="10.00">_isentropic_vortex</text>
</a>
</g>
</g>
<!-- Node1&#45;&gt;Node20 -->
<g id="edge22" class="edge">
<title>Node1&#45;&gt;Node20</title>
<path fill="none" stroke="#63b8ff" d="M110.15,-549.07C123.59,-547.11 138.16,-544.98 152.17,-542.93"/>
<polygon fill="#63b8ff" stroke="#63b8ff" points="152.85,-546.36 162.24,-541.45 151.84,-539.44 152.85,-546.36"/>
</g>
<!-- Node21 -->
<g id="node21" class="node">
<title>Node21</title>
<g id="a_node21"><a xlink:href="namespacem__create__patches.html#a8c26483f9ae9ef49e6bacc4588fc9b1d" target="_top" xlink:title="The line segment patch is a 1D geometry that may be used, for example, in creating a Riemann problem....">
<polygon fill="white" stroke="#666666" points="279.5,-500 162.5,-500 162.5,-470 279.5,-470 279.5,-500"/>
<text text-anchor="start" x="170.5" y="-488" font-family="Helvetica,sans-Serif" font-size="10.00">m_create_patches::s</text>
<text text-anchor="middle" x="221" y="-477" font-family="Helvetica,sans-Serif" font-size="10.00">_line_segment</text>
</a>
</g>
</g>
<!-- Node1&#45;&gt;Node21 -->
<g id="edge23" class="edge">
<title>Node1&#45;&gt;Node21</title>
<path fill="none" stroke="#63b8ff" d="M91.2,-536.37C107.54,-527.28 127.42,-516.89 146,-509 150.43,-507.12 155.06,-505.3 159.75,-503.55"/>
<polygon fill="#63b8ff" stroke="#63b8ff" points="161.17,-506.76 169.41,-500.09 158.81,-500.17 161.17,-506.76"/>
</g>
<!-- Node22 -->
<g id="node22" class="node">
<title>Node22</title>
<g id="a_node22"><a xlink:href="namespacem__create__patches.html#af57599ea42b50284efc93e772b787eca" target="_top" xlink:title=" ">
<polygon fill="white" stroke="#666666" points="279.5,-452 162.5,-452 162.5,-422 279.5,-422 279.5,-452"/>
<text text-anchor="start" x="170.5" y="-440" font-family="Helvetica,sans-Serif" font-size="10.00">m_create_patches::s</text>
<text text-anchor="middle" x="221" y="-429" font-family="Helvetica,sans-Serif" font-size="10.00">_perturb_sphere</text>
</a>
</g>
</g>
<!-- Node1&#45;&gt;Node22 -->
<g id="edge24" class="edge">
<title>Node1&#45;&gt;Node22</title>
<path fill="none" stroke="#63b8ff" d="M70.26,-536.5C86.33,-514.83 114.37,-481.08 146,-461 148.6,-459.35 151.32,-457.81 154.12,-456.36"/>
<polygon fill="#63b8ff" stroke="#63b8ff" points="155.71,-459.48 163.28,-452.07 152.74,-453.14 155.71,-459.48"/>
</g>
<!-- Node23 -->
<g id="node23" class="node">
<title>Node23</title>
<g id="a_node23"><a xlink:href="namespacem__create__patches.html#afbffb41e4565befd87aa0273ed8a19ff" target="_top" xlink:title=" ">
<polygon fill="white" stroke="#666666" points="294,-404 148,-404 148,-374 294,-374 294,-404"/>
<text text-anchor="start" x="156" y="-392" font-family="Helvetica,sans-Serif" font-size="10.00">m_create_patches::s</text>
<text text-anchor="middle" x="221" y="-381" font-family="Helvetica,sans-Serif" font-size="10.00">_perturb_surrounding_flow</text>
</a>
</g>
</g>
<!-- Node1&#45;&gt;Node23 -->
<g id="edge25" class="edge">
<title>Node1&#45;&gt;Node23</title>
<path fill="none" stroke="#63b8ff" d="M63.51,-536.39C75.91,-505.2 103.59,-446.11 146,-413 147.77,-411.62 149.63,-410.31 151.55,-409.08"/>
<polygon fill="#63b8ff" stroke="#63b8ff" points="153.32,-412.09 160.32,-404.14 149.89,-405.99 153.32,-412.09"/>
</g>
<!-- Node24 -->
<g id="node24" class="node">
<title>Node24</title>
<g id="a_node24"><a xlink:href="namespacem__create__patches.html#a439aff2d0a23189c3f407ca59a7e962d" target="_top" xlink:title="The rectangular patch is a 2D geometry that may be used, for example, in creating a solid boundary,...">
<polygon fill="white" stroke="#666666" points="279.5,-356 162.5,-356 162.5,-326 279.5,-326 279.5,-356"/>
<text text-anchor="start" x="170.5" y="-344" font-family="Helvetica,sans-Serif" font-size="10.00">m_create_patches::s</text>
<text text-anchor="middle" x="221" y="-333" font-family="Helvetica,sans-Serif" font-size="10.00">_rectangle</text>
</a>
</g>
</g>
<!-- Node1&#45;&gt;Node24 -->
<g id="edge26" class="edge">
<title>Node1&#45;&gt;Node24</title>
<path fill="none" stroke="#63b8ff" d="M59.99,-536.38C68.63,-497.27 92.73,-412.01 146,-365 148.35,-362.92 150.89,-361.02 153.56,-359.29"/>
<polygon fill="#63b8ff" stroke="#63b8ff" points="155.45,-362.24 162.46,-354.29 152.02,-356.14 155.45,-362.24"/>
</g>
<!-- Node25 -->
<g id="node25" class="node">
<title>Node25</title>
<g id="a_node25"><a xlink:href="namespacem__create__patches.html#a565ecc7f4e08026fd7580e32736efa35" target="_top" xlink:title="The spherical patch is a 3D geometry that may be used, for example, in creating a bubble or a droplet...">
<polygon fill="white" stroke="#666666" points="279.5,-308 162.5,-308 162.5,-278 279.5,-278 279.5,-308"/>
<text text-anchor="start" x="170.5" y="-296" font-family="Helvetica,sans-Serif" font-size="10.00">m_create_patches::s</text>
<text text-anchor="middle" x="221" y="-285" font-family="Helvetica,sans-Serif" font-size="10.00">_sphere</text>
</a>
</g>
</g>
<!-- Node1&#45;&gt;Node25 -->
<g id="edge27" class="edge">
<title>Node1&#45;&gt;Node25</title>
<path fill="none" stroke="#63b8ff" d="M57.8,-536.4C62.92,-490.39 81.66,-378.5 146,-317 148.39,-314.71 151,-312.65 153.77,-310.77"/>
<polygon fill="#63b8ff" stroke="#63b8ff" points="155.58,-313.77 162.48,-305.73 152.07,-307.71 155.58,-313.77"/>
</g>
<!-- Node26 -->
<g id="node26" class="node">
<title>Node26</title>
<g id="a_node26"><a xlink:href="namespacem__create__patches.html#a54f0f0e5805df845369db4680e461564" target="_top" xlink:title="This patch generates the shape of the spherical harmonics as a perturbation to a perfect sphere.">
<polygon fill="white" stroke="#666666" points="279.5,-212 162.5,-212 162.5,-182 279.5,-182 279.5,-212"/>
<text text-anchor="start" x="170.5" y="-200" font-family="Helvetica,sans-Serif" font-size="10.00">m_create_patches::s</text>
<text text-anchor="middle" x="221" y="-189" font-family="Helvetica,sans-Serif" font-size="10.00">_spherical_harmonic</text>
</a>
</g>
</g>
<!-- Node1&#45;&gt;Node26 -->
<g id="edge29" class="edge">
<title>Node1&#45;&gt;Node26</title>
<path fill="none" stroke="#63b8ff" d="M55.2,-536.44C54.1,-478.56 59.1,-312.53 146,-221 148.32,-218.55 150.9,-216.35 153.66,-214.38"/>
<polygon fill="#63b8ff" stroke="#63b8ff" points="155.65,-217.26 162.4,-209.1 152.03,-211.27 155.65,-217.26"/>
</g>
<!-- Node28 -->
<g id="node28" class="node">
<title>Node28</title>
<g id="a_node28"><a xlink:href="namespacem__create__patches.html#a42adae30594ebe18444eb9a3932eef88" target="_top" xlink:title="The spiral patch is a 2D geometry that may be used, The geometry of the patch is well&#45;defined when it...">
<polygon fill="white" stroke="#666666" points="279.5,-164 162.5,-164 162.5,-134 279.5,-134 279.5,-164"/>
<text text-anchor="start" x="170.5" y="-152" font-family="Helvetica,sans-Serif" font-size="10.00">m_create_patches::s</text>
<text text-anchor="middle" x="221" y="-141" font-family="Helvetica,sans-Serif" font-size="10.00">_spiral</text>
</a>
</g>
</g>
<!-- Node1&#45;&gt;Node28 -->
<g id="edge32" class="edge">
<title>Node1&#45;&gt;Node28</title>
<path fill="none" stroke="#63b8ff" d="M58.18,-536.29C66.14,-464.48 95.82,-227.55 146,-173 148.29,-170.51 150.83,-168.29 153.56,-166.29"/>
<polygon fill="#63b8ff" stroke="#63b8ff" points="155.56,-169.17 162.25,-160.96 151.89,-163.21 155.56,-169.17"/>
</g>
<!-- Node30 -->
<g id="node30" class="node">
<title>Node30</title>
<g id="a_node30"><a xlink:href="namespacem__create__patches.html#ae134b436b33cab3e5bbc17679194d94e" target="_top" xlink:title="The STL patch is a 2/3D geometry that is imported from an STL file.">
<polygon fill="white" stroke="#666666" points="288,-67.5 154,-67.5 154,-48.5 288,-48.5 288,-67.5"/>
<text text-anchor="middle" x="221" y="-55.5" font-family="Helvetica,sans-Serif" font-size="10.00">m_create_patches::s_stl</text>
</a>
</g>
</g>
<!-- Node1&#45;&gt;Node30 -->
<g id="edge35" class="edge">
<title>Node1&#45;&gt;Node30</title>
<path fill="none" stroke="#63b8ff" d="M57,-536.37C61.42,-453.42 81.97,-145.4 146,-77 147.22,-75.7 148.51,-74.49 149.86,-73.35"/>
<polygon fill="#63b8ff" stroke="#63b8ff" points="151.93,-76.18 158.25,-67.67 148.01,-70.38 151.93,-76.18"/>
</g>
<!-- Node33 -->
<g id="node33" class="node">
<title>Node33</title>
<g id="a_node33"><a xlink:href="namespacem__create__patches.html#af11aee0ac5301ef5c0ac18a0f0de6fc1" target="_top" xlink:title="The swept line patch is a 2D geometry that may be used, for example, in creating a solid boundary,...">
<polygon fill="white" stroke="#666666" points="279.5,-116 162.5,-116 162.5,-86 279.5,-86 279.5,-116"/>
<text text-anchor="start" x="170.5" y="-104" font-family="Helvetica,sans-Serif" font-size="10.00">m_create_patches::s</text>
<text text-anchor="middle" x="221" y="-93" font-family="Helvetica,sans-Serif" font-size="10.00">_sweep_line</text>
</a>
</g>
</g>
<!-- Node1&#45;&gt;Node33 -->
<g id="edge38" class="edge">
<title>Node1&#45;&gt;Node33</title>
<path fill="none" stroke="#63b8ff" d="M57.59,-536.45C63.94,-459.2 89.98,-187.44 146,-125 148.37,-122.36 151.04,-120 153.91,-117.91"/>
<polygon fill="#63b8ff" stroke="#63b8ff" points="155.79,-120.86 162.49,-112.66 152.13,-114.89 155.79,-120.86"/>
</g>
<!-- Node34 -->
<g id="node34" class="node">
<title>Node34</title>
<g id="a_node34"><a xlink:href="namespacem__create__patches.html#adffe36b493554609593c737c004b3c5e" target="_top" xlink:title="The swept plane patch is a 3D geometry that may be used, for example, in creating a solid boundary,...">
<polygon fill="white" stroke="#666666" points="279.5,-848 162.5,-848 162.5,-818 279.5,-818 279.5,-848"/>
<text text-anchor="start" x="170.5" y="-836" font-family="Helvetica,sans-Serif" font-size="10.00">m_create_patches::s</text>
<text text-anchor="middle" x="221" y="-825" font-family="Helvetica,sans-Serif" font-size="10.00">_sweep_plane</text>
</a>
</g>
</g>
<!-- Node1&#45;&gt;Node34 -->
<g id="edge39" class="edge">
<title>Node1&#45;&gt;Node34</title>
<path fill="none" stroke="#63b8ff" d="M57.37,-577.53C61.65,-625.11 78.84,-743.79 146,-809 148.37,-811.31 150.97,-813.39 153.73,-815.27"/>
<polygon fill="#63b8ff" stroke="#63b8ff" points="152.01,-818.32 162.41,-820.34 155.54,-812.28 152.01,-818.32"/>
</g>
<!-- Node35 -->
<g id="node35" class="node">
<title>Node35</title>
<g id="a_node35"><a xlink:href="namespacem__create__patches.html#a491ae96aaf933da2565b6829958334c8" target="_top" xlink:title="The varcircle patch is a 2D geometry that may be used . It generatres an annulus.">
<polygon fill="white" stroke="#666666" points="279.5,-30 162.5,-30 162.5,0 279.5,0 279.5,-30"/>
<text text-anchor="start" x="170.5" y="-18" font-family="Helvetica,sans-Serif" font-size="10.00">m_create_patches::s</text>
<text text-anchor="middle" x="221" y="-7" font-family="Helvetica,sans-Serif" font-size="10.00">_varcircle</text>
</a>
</g>
</g>
<!-- Node1&#45;&gt;Node35 -->
<g id="edge41" class="edge">
<title>Node1&#45;&gt;Node35</title>
<path fill="none" stroke="#63b8ff" d="M56.81,-536.36C60.64,-449.62 79.53,-115.62 146,-39 148.33,-36.32 150.96,-33.93 153.8,-31.81"/>
<polygon fill="#63b8ff" stroke="#63b8ff" points="155.68,-34.77 162.32,-26.51 151.98,-28.82 155.68,-34.77"/>
</g>
<!-- Node6 -->
<g id="node6" class="node">
<title>Node6</title>
<g id="a_node6"><a xlink:href="namespacem__create__patches.html#ac0ec43616a83e56977993a1380a1452a" target="_top" xlink:title=" ">
<polygon fill="white" stroke="#666666" points="478.5,-601.5 361.5,-601.5 361.5,-560.5 478.5,-560.5 478.5,-601.5"/>
<text text-anchor="start" x="369.5" y="-589.5" font-family="Helvetica,sans-Serif" font-size="10.00">m_create_patches::s</text>
<text text-anchor="start" x="369.5" y="-578.5" font-family="Helvetica,sans-Serif" font-size="10.00">_convert_cylindrical</text>
<text text-anchor="middle" x="420" y="-567.5" font-family="Helvetica,sans-Serif" font-size="10.00">_to_cartesian_coord</text>
</a>
</g>
</g>
<!-- Node5&#45;&gt;Node6 -->
<g id="edge5" class="edge">
<title>Node5&#45;&gt;Node6</title>
<path fill="none" stroke="#63b8ff" d="M279.82,-257.99C285.72,-260.94 291.28,-264.56 296,-269 379.02,-347.03 406.99,-488.06 415.56,-550.19"/>
<polygon fill="#63b8ff" stroke="#63b8ff" points="412.09,-550.69 416.86,-560.16 419.04,-549.79 412.09,-550.69"/>
</g>
<!-- Node10 -->
<g id="node10" class="node">
<title>Node10</title>
<g id="a_node10"><a xlink:href="namespacem__global__parameters.html#ad6c69097a0e9f5acf637c6b49e0bd1ea" target="_top" xlink:title="Computes the bubble number density n from the conservative variables.">
<polygon fill="white" stroke="#666666" points="484,-1022 356,-1022 356,-992 484,-992 484,-1022"/>
<text text-anchor="start" x="364" y="-1010" font-family="Helvetica,sans-Serif" font-size="10.00">m_global_parameters</text>
<text text-anchor="middle" x="420" y="-999" font-family="Helvetica,sans-Serif" font-size="10.00">::s_comp_n_from_cons</text>
</a>
</g>
</g>
<!-- Node9&#45;&gt;Node10 -->
<g id="edge9" class="edge">
<title>Node9&#45;&gt;Node10</title>
<path fill="none" stroke="#63b8ff" d="M290.07,-991.29C308.09,-993.49 327.61,-995.87 345.88,-998.09"/>
<polygon fill="#63b8ff" stroke="#63b8ff" points="345.54,-1001.58 355.89,-999.31 346.39,-994.63 345.54,-1001.58"/>
</g>
<!-- Node12 -->
<g id="node12" class="node">
<title>Node12</title>
<g id="a_node12"><a xlink:href="namespacem__variables__conversion.html#a0d8355cfe5f7428da40115584f9eb3bd" target="_top" xlink:title="This procedure conditionally calculates the appropriate pressure.">
<polygon fill="white" stroke="#666666" points="487.5,-974 352.5,-974 352.5,-944 487.5,-944 487.5,-974"/>
<text text-anchor="start" x="360.5" y="-962" font-family="Helvetica,sans-Serif" font-size="10.00">m_variables_conversion</text>
<text text-anchor="middle" x="420" y="-951" font-family="Helvetica,sans-Serif" font-size="10.00">::s_compute_pressure</text>
</a>
</g>
</g>
<!-- Node9&#45;&gt;Node12 -->
<g id="edge11" class="edge">
<title>Node9&#45;&gt;Node12</title>
<path fill="none" stroke="#63b8ff" d="M290.07,-974.71C306.9,-972.66 325.04,-970.45 342.25,-968.35"/>
<polygon fill="#63b8ff" stroke="#63b8ff" points="342.75,-971.81 352.26,-967.13 341.91,-964.87 342.75,-971.81"/>
</g>
<!-- Node13 -->
<g id="node13" class="node">
<title>Node13</title>
<g id="a_node13"><a xlink:href="namespacem__variables__conversion.html#a0e52444cc72f2fd0ea3a6d3543cfa32e" target="_top" xlink:title=" ">
<polygon fill="white" stroke="#666666" points="487.5,-925.5 352.5,-925.5 352.5,-884.5 487.5,-884.5 487.5,-925.5"/>
<text text-anchor="start" x="360.5" y="-913.5" font-family="Helvetica,sans-Serif" font-size="10.00">m_variables_conversion</text>
<text text-anchor="start" x="360.5" y="-902.5" font-family="Helvetica,sans-Serif" font-size="10.00">::s_convert_species_to</text>
<text text-anchor="middle" x="420" y="-891.5" font-family="Helvetica,sans-Serif" font-size="10.00">_mixture_variables_acc</text>
</a>
</g>
</g>
<!-- Node9&#45;&gt;Node13 -->
<g id="edge12" class="edge">
<title>Node9&#45;&gt;Node13</title>
<path fill="none" stroke="#63b8ff" d="M274.37,-962.37C281.67,-959.31 289.05,-956.14 296,-953 312.3,-945.63 315.51,-941.93 332,-935 336.67,-933.04 341.51,-931.1 346.42,-929.22"/>
<polygon fill="#63b8ff" stroke="#63b8ff" points="347.77,-932.45 355.9,-925.66 345.31,-925.9 347.77,-932.45"/>
</g>
<!-- Node14 -->
<g id="node14" class="node">
<title>Node14</title>
<g id="a_node14"><a xlink:href="namespacem__variables__conversion.html#a915eb0e3917fc09375124cf3df2c6df6" target="_top" xlink:title=" ">
<polygon fill="white" stroke="#666666" points="508,-1081.5 332,-1081.5 332,-1040.5 508,-1040.5 508,-1081.5"/>
<text text-anchor="start" x="340" y="-1069.5" font-family="Helvetica,sans-Serif" font-size="10.00">m_variables_conversion</text>
<text text-anchor="start" x="340" y="-1058.5" font-family="Helvetica,sans-Serif" font-size="10.00">::s_convert_species_to</text>
<text text-anchor="middle" x="420" y="-1047.5" font-family="Helvetica,sans-Serif" font-size="10.00">_mixture_variables_bubbles_acc</text>
</a>
</g>
</g>
<!-- Node9&#45;&gt;Node14 -->
<g id="edge13" class="edge">
<title>Node9&#45;&gt;Node14</title>
<path fill="none" stroke="#63b8ff" d="M274.37,-1003.63C281.67,-1006.69 289.05,-1009.86 296,-1013 312.3,-1020.37 315.51,-1024.07 332,-1031 336.67,-1032.96 341.51,-1034.9 346.42,-1036.78"/>
<polygon fill="#63b8ff" stroke="#63b8ff" points="345.31,-1040.1 355.9,-1040.34 347.77,-1033.55 345.31,-1040.1"/>
</g>
<!-- Node11 -->
<g id="node11" class="node">
<title>Node11</title>
<g id="a_node11"><a xlink:href="namespacem__global__parameters.html#aa5a48fa9cc196136634022cfa6708213" target="_top" xlink:title="Computes the quadrature for polydisperse bubble populations.">
<polygon fill="white" stroke="#666666" points="667,-1022 544,-1022 544,-992 667,-992 667,-1022"/>
<text text-anchor="start" x="552" y="-1010" font-family="Helvetica,sans-Serif" font-size="10.00">m_global_parameters</text>
<text text-anchor="middle" x="605.5" y="-999" font-family="Helvetica,sans-Serif" font-size="10.00">::s_quad</text>
</a>
</g>
</g>
<!-- Node10&#45;&gt;Node11 -->
<g id="edge10" class="edge">
<title>Node10&#45;&gt;Node11</title>
<path fill="none" stroke="#63b8ff" d="M484.15,-1007C500.12,-1007 517.37,-1007 533.69,-1007"/>
<polygon fill="#63b8ff" stroke="#63b8ff" points="533.71,-1010.5 543.71,-1007 533.71,-1003.5 533.71,-1010.5"/>
</g>
<!-- Node16&#45;&gt;Node6 -->
<g id="edge16" class="edge">
<title>Node16&#45;&gt;Node6</title>
<path fill="none" stroke="#63b8ff" d="M278.18,-709.85C284.38,-707.29 290.45,-704.35 296,-701 336.27,-676.68 373.6,-636.79 396.33,-609.74"/>
<polygon fill="#63b8ff" stroke="#63b8ff" points="399.23,-611.73 402.9,-601.79 393.83,-607.27 399.23,-611.73"/>
</g>
<!-- Node17&#45;&gt;Node6 -->
<g id="edge18" class="edge">
<title>Node17&#45;&gt;Node6</title>
<path fill="none" stroke="#63b8ff" d="M273.5,-661.89C281.15,-659.19 288.85,-656.21 296,-653 325.03,-639.98 355.92,-621.88 379.49,-607.08"/>
<polygon fill="#63b8ff" stroke="#63b8ff" points="381.58,-609.9 388.14,-601.59 377.82,-603.99 381.58,-609.9"/>
</g>
<!-- Node19&#45;&gt;Node6 -->
<g id="edge21" class="edge">
<title>Node19&#45;&gt;Node6</title>
<path fill="none" stroke="#63b8ff" d="M279.51,-581C301.97,-581 327.88,-581 351.24,-581"/>
<polygon fill="#63b8ff" stroke="#63b8ff" points="351.42,-584.5 361.42,-581 351.42,-577.5 351.42,-584.5"/>
</g>
<!-- Node25&#45;&gt;Node6 -->
<g id="edge28" class="edge">
<title>Node25&#45;&gt;Node6</title>
<path fill="none" stroke="#63b8ff" d="M279.55,-306.28C285.51,-309.18 291.14,-312.7 296,-317 368.08,-380.76 400.97,-495.62 413.1,-550.37"/>
<polygon fill="#63b8ff" stroke="#63b8ff" points="409.75,-551.43 415.25,-560.48 416.59,-549.97 409.75,-551.43"/>
</g>
<!-- Node26&#45;&gt;Node6 -->
<g id="edge30" class="edge">
<title>Node26&#45;&gt;Node6</title>
<path fill="none" stroke="#63b8ff" d="M279.65,-209.59C285.66,-212.61 291.28,-216.36 296,-221 390.04,-313.59 412.21,-480.95 417.42,-549.96"/>
<polygon fill="#63b8ff" stroke="#63b8ff" points="413.94,-550.43 418.11,-560.17 420.92,-549.95 413.94,-550.43"/>
</g>
<!-- Node27 -->
<g id="node27" class="node">
<title>Node27</title>
<g id="a_node27"><a xlink:href="namespacem__create__patches.html#a6ae150ea6bf9fd6689c0dff9ef500449" target="_top" xlink:title=" ">
<polygon fill="white" stroke="#666666" points="478.5,-226.5 361.5,-226.5 361.5,-185.5 478.5,-185.5 478.5,-226.5"/>
<text text-anchor="start" x="369.5" y="-214.5" font-family="Helvetica,sans-Serif" font-size="10.00">m_create_patches::s</text>
<text text-anchor="start" x="369.5" y="-203.5" font-family="Helvetica,sans-Serif" font-size="10.00">_convert_cylindrical</text>
<text text-anchor="middle" x="420" y="-192.5" font-family="Helvetica,sans-Serif" font-size="10.00">_to_spherical_coord</text>
</a>
</g>
</g>
<!-- Node26&#45;&gt;Node27 -->
<g id="edge31" class="edge">
<title>Node26&#45;&gt;Node27</title>
<path fill="none" stroke="#63b8ff" d="M279.51,-199.63C301.97,-200.65 327.88,-201.84 351.24,-202.9"/>
<polygon fill="#63b8ff" stroke="#63b8ff" points="351.27,-206.41 361.42,-203.37 351.59,-199.42 351.27,-206.41"/>
</g>
<!-- Node29 -->
<g id="node29" class="node">
<title>Node29</title>
<g id="a_node29"><a xlink:href="namespacem__create__patches.html#a2af7b0a5418c840cdd7b4edec5502454" target="_top" xlink:title="Archimedes spiral function.">
<polygon fill="white" stroke="#666666" points="482.5,-149.5 357.5,-149.5 357.5,-130.5 482.5,-130.5 482.5,-149.5"/>
<text text-anchor="middle" x="420" y="-137.5" font-family="Helvetica,sans-Serif" font-size="10.00">m_create_patches::f_r</text>
</a>
</g>
</g>
<!-- Node28&#45;&gt;Node29 -->
<g id="edge33" class="edge">
<title>Node28&#45;&gt;Node29</title>
<path fill="none" stroke="#63b8ff" d="M279.51,-146.37C300.68,-145.41 324.93,-144.3 347.21,-143.28"/>
<polygon fill="#63b8ff" stroke="#63b8ff" points="347.46,-146.77 357.29,-142.82 347.14,-139.78 347.46,-146.77"/>
</g>
<!-- Node29&#45;&gt;Node29 -->
<g id="edge34" class="edge">
<title>Node29&#45;&gt;Node29</title>
<path fill="none" stroke="#63b8ff" d="M391.64,-149.58C377.84,-158.23 387.3,-167.5 420,-167.5 442.48,-167.5 453.98,-163.12 454.48,-157.57"/>
<polygon fill="#63b8ff" stroke="#63b8ff" points="457.22,-155.39 448.36,-149.58 451.66,-159.65 457.22,-155.39"/>
</g>
<!-- Node31 -->
<g id="node31" class="node">
<title>Node31</title>
<g id="a_node31"><a xlink:href="namespacem__create__patches.html#a06d20d2bc9902a5d9458ae53df0ee7ee" target="_top" xlink:title=" ">
<polygon fill="white" stroke="#666666" points="482.5,-40 357.5,-40 357.5,-10 482.5,-10 482.5,-40"/>
<text text-anchor="start" x="365.5" y="-28" font-family="Helvetica,sans-Serif" font-size="10.00">m_create_patches::s</text>
<text text-anchor="middle" x="420" y="-17" font-family="Helvetica,sans-Serif" font-size="10.00">_stl_transform_matrix</text>
</a>
</g>
</g>
<!-- Node30&#45;&gt;Node31 -->
<g id="edge36" class="edge">
<title>Node30&#45;&gt;Node31</title>
<path fill="none" stroke="#63b8ff" d="M278.72,-48.5C300.1,-44.92 324.72,-40.79 347.3,-37.01"/>
<polygon fill="#63b8ff" stroke="#63b8ff" points="347.89,-40.46 357.17,-35.36 346.73,-33.56 347.89,-40.46"/>
</g>
<!-- Node32 -->
<g id="node32" class="node">
<title>Node32</title>
<g id="a_node32"><a xlink:href="namespacem__create__patches.html#a945222ec186d9643e60af618d7df39ed" target="_top" xlink:title=" ">
<polygon fill="white" stroke="#666666" points="485,-88 355,-88 355,-58 485,-58 485,-88"/>
<text text-anchor="start" x="363" y="-76" font-family="Helvetica,sans-Serif" font-size="10.00">m_create_patches::s</text>
<text text-anchor="middle" x="420" y="-65" font-family="Helvetica,sans-Serif" font-size="10.00">_stl_transform_triangle</text>
</a>
</g>
</g>
<!-- Node30&#45;&gt;Node32 -->
<g id="edge37" class="edge">
<title>Node30&#45;&gt;Node32</title>
<path fill="none" stroke="#63b8ff" d="M288.15,-63.04C306.25,-64.42 326,-65.92 344.54,-67.33"/>
<polygon fill="#63b8ff" stroke="#63b8ff" points="344.46,-70.83 354.7,-68.1 344.99,-63.85 344.46,-70.83"/>
</g>
<!-- Node34&#45;&gt;Node6 -->
<g id="edge40" class="edge">
<title>Node34&#45;&gt;Node6</title>
<path fill="none" stroke="#63b8ff" d="M279.68,-819.26C285.54,-816.45 291.12,-813.06 296,-809 360.02,-755.63 395.81,-660.05 410.69,-611.34"/>
<polygon fill="#63b8ff" stroke="#63b8ff" points="414.06,-612.27 413.55,-601.69 407.35,-610.28 414.06,-612.27"/>
</g>
</g>
</svg>
        <g id="navigator" transform="translate(0 0)" fill="#404254">
                <rect fill="#f2f5e9" fill-opacity="0.5" stroke="#606060" stroke-width=".5" x="0" y="0" width="60" height="60"/>
                <use id="zoomplus" xlink:href="#zoomPlus" x="17" y="9" onmousedown="handleZoom(evt,'in')"/>
                <use id="zoomminus" xlink:href="#zoomMin" x="42" y="9" onmousedown="handleZoom(evt,'out')"/>
                <use id="reset" xlink:href="#resetDef" x="30" y="36" onmousedown="handleReset()"/>
                <g id="arrowUp" xlink:href="#dirArrow" transform="translate(30 24)" onmousedown="handlePan(0,-1)">
                  <use xlink:href="#rim" fill="#404040">
                        <set attributeName="fill" to="#808080" begin="arrowUp.mouseover" end="arrowUp.mouseout"/>
                  </use>
                  <path fill="none" stroke="white" stroke-width="1.5" d="M0,-3.0v7 M-2.5,-0.5L0,-3.0L2.5,-0.5"/>
                </g>
                <g id="arrowRight" xlink:href="#dirArrow" transform="rotate(90) translate(36 -43)" onmousedown="handlePan(1,0)">
                  <use xlink:href="#rim" fill="#404040">
                        <set attributeName="fill" to="#808080" begin="arrowRight.mouseover" end="arrowRight.mouseout"/>
                  </use>
                  <path fill="none" stroke="white" stroke-width="1.5" d="M0,-3.0v7 M-2.5,-0.5L0,-3.0L2.5,-0.5"/>
                </g>
                <g id="arrowDown" xlink:href="#dirArrow" transform="rotate(180) translate(-30 -48)" onmousedown="handlePan(0,1)">
                  <use xlink:href="#rim" fill="#404040">
                        <set attributeName="fill" to="#808080" begin="arrowDown.mouseover" end="arrowDown.mouseout"/>
                  </use>
                  <path fill="none" stroke="white" stroke-width="1.5" d="M0,-3.0v7 M-2.5,-0.5L0,-3.0L2.5,-0.5"/>
                </g>
                <g id="arrowLeft" xlink:href="#dirArrow" transform="rotate(270) translate(-36 17)" onmousedown="handlePan(-1,0)">
                  <use xlink:href="#rim" fill="#404040">
                        <set attributeName="fill" to="#808080" begin="arrowLeft.mouseover" end="arrowLeft.mouseout"/>
                  </use>
                  <path fill="none" stroke="white" stroke-width="1.5" d="M0,-3.0v7 M-2.5,-0.5L0,-3.0L2.5,-0.5"/>
                </g>
        </g>
        <svg viewBox="0 0 15 15" width="100%" height="30px" preserveAspectRatio="xMaxYMin meet">
         <g id="arrow_out" transform="scale(0.3 0.3)">
          <a xlink:href="namespacem__initial__condition_aa74a70029e3ec0fd3225b369e7c5443e_cgraph_org.svg" target="_base">
           <rect id="button" ry="5" rx="5" y="6" x="6" height="38" width="38"
                fill="#f2f5e9" fill-opacity="0.5" stroke="#606060" stroke-width="1.0"/>
           <path id="arrow"
             d="M 11.500037,31.436501 C 11.940474,20.09759 22.043105,11.32322 32.158766,21.979434 L 37.068811,17.246167 C 37.068811,17.246167 37.088388,32 37.088388,32 L 22.160133,31.978069 C 22.160133,31.978069 26.997745,27.140456 26.997745,27.140456 C 18.528582,18.264221 13.291696,25.230495 11.500037,31.436501 z"
             style="fill:#404040;"/>
          </a>
         </g>
        </svg>
</svg>
