<?xml version="1.0" encoding="UTF-8" standalone="no"?>
<!DOCTYPE svg PUBLIC "-//W3C//DTD SVG 1.1//EN"
 "http://www.w3.org/Graphics/SVG/1.1/DTD/svg11.dtd">
<!-- Generated by graphviz version 2.43.0 (0)
 -->
<!-- Title: m_start_up::s_read_grid Pages: 1 -->
<svg width="407pt" height="76pt"
 viewBox="0.00 0.00 407.00 75.50" xmlns="http://www.w3.org/2000/svg" xmlns:xlink="http://www.w3.org/1999/xlink">
<g id="graph0" class="graph" transform="scale(1 1) rotate(0) translate(4 71.5)">
<title>m_start_up::s_read_grid</title>
<!-- Node1 -->
<g id="Node000001" class="node">
<title>Node1</title>
<g id="a_Node000001"><a xlink:title=" ">
<polygon fill="#999999" stroke="#666666" points="134,-40 0,-40 0,-21 134,-21 134,-40"/>
<text text-anchor="middle" x="67" y="-28" font-family="Helvetica,sans-Serif" font-size="10.00">m_start_up::s_read_grid</text>
</a>
</g>
</g>
<!-- Node2 -->
<g id="Node000002" class="node">
<title>Node2</title>
<g id="a_Node000002"><a xlink:href="namespacem__start__up.html#a1d2e9e9354b18d2aab09e673b04032ef" target="_top" xlink:title="Cell&#45;boundary data are checked for consistency by looking at the (non&#45;)uniform cell&#45;width distributio...">
<polygon fill="white" stroke="#666666" points="286,-67.5 170,-67.5 170,-37.5 286,-37.5 286,-67.5"/>
<text text-anchor="start" x="178" y="-55.5" font-family="Helvetica,sans-Serif" font-size="10.00">m_start_up::s_check</text>
<text text-anchor="middle" x="228" y="-44.5" font-family="Helvetica,sans-Serif" font-size="10.00">_grid_data_files</text>
</a>
</g>
</g>
<!-- Node1&#45;&gt;Node2 -->
<g id="edge1_Node000001_Node000002" class="edge">
<title>Node1&#45;&gt;Node2</title>
<g id="a_edge1_Node000001_Node000002"><a xlink:title=" ">
<path fill="none" stroke="#63b8ff" d="M134.05,-39.64C142.57,-40.82 151.31,-42.03 159.85,-43.21"/>
<polygon fill="#63b8ff" stroke="#63b8ff" points="159.38,-46.68 169.76,-44.58 160.34,-39.74 159.38,-46.68"/>
</a>
</g>
</g>
<!-- Node4 -->
<g id="Node000004" class="node">
<title>Node4</title>
<g id="a_Node000004"><a xlink:href="m__mpi__common_8fpp_8f90.html#ae966ace411b5ffbc9ebd5fed9f35da63" target="_top" xlink:title="Halts all processes until all have reached barrier.">
<polygon fill="white" stroke="#666666" points="269.5,-19 186.5,-19 186.5,0 269.5,0 269.5,-19"/>
<text text-anchor="middle" x="228" y="-7" font-family="Helvetica,sans-Serif" font-size="10.00">s_mpi_barrier</text>
</a>
</g>
</g>
<!-- Node1&#45;&gt;Node4 -->
<g id="edge3_Node000001_Node000004" class="edge">
<title>Node1&#45;&gt;Node4</title>
<g id="a_edge3_Node000001_Node000004"><a xlink:title=" ">
<path fill="none" stroke="#63b8ff" d="M134.05,-21.78C148.19,-19.91 162.92,-17.96 176.37,-16.19"/>
<polygon fill="#63b8ff" stroke="#63b8ff" points="176.92,-19.64 186.38,-14.87 176,-12.71 176.92,-19.64"/>
</a>
</g>
</g>
<!-- Node3 -->
<g id="Node000003" class="node">
<title>Node3</title>
<g id="a_Node000003"><a xlink:href="m__mpi__common_8fpp_8f90.html#ad9e1329e498b65ad4256658675d6f797" target="_top" xlink:title="The subroutine terminates the MPI execution environment.">
<polygon fill="white" stroke="#666666" points="399,-62 322,-62 322,-43 399,-43 399,-62"/>
<text text-anchor="middle" x="360.5" y="-50" font-family="Helvetica,sans-Serif" font-size="10.00">s_mpi_abort</text>
</a>
</g>
</g>
<!-- Node2&#45;&gt;Node3 -->
<g id="edge2_Node000002_Node000003" class="edge">
<title>Node2&#45;&gt;Node3</title>
<g id="a_edge2_Node000002_Node000003"><a xlink:title=" ">
<path fill="none" stroke="#63b8ff" d="M286.24,-52.5C294.71,-52.5 303.37,-52.5 311.63,-52.5"/>
<polygon fill="#63b8ff" stroke="#63b8ff" points="311.83,-56 321.83,-52.5 311.83,-49 311.83,-56"/>
</a>
</g>
</g>
</g>
</svg>
