<?xml version="1.0" encoding="UTF-8" standalone="no"?>
<!DOCTYPE svg PUBLIC "-//W3C//DTD SVG 1.1//EN"
 "http://www.w3.org/Graphics/SVG/1.1/DTD/svg11.dtd">
<!-- Generated by graphviz version 2.43.0 (0)
 -->
<!-- Title: m_start_up::s_read_parallel_ic_data_files Pages: 1 -->
<svg width="388pt" height="61pt"
 viewBox="0.00 0.00 388.00 61.00" xmlns="http://www.w3.org/2000/svg" xmlns:xlink="http://www.w3.org/1999/xlink">
<g id="graph0" class="graph" transform="scale(1 1) rotate(0) translate(4 57)">
<title>m_start_up::s_read_parallel_ic_data_files</title>
<!-- Node1 -->
<g id="node1" class="node">
<title>Node1</title>
<g id="a_node1"><a xlink:title="The goal of this subroutine is to read in any preexisting initial condition data files so that they m...">
<polygon fill="#bfbfbf" stroke="black" points="255,-22.5 255,-52.5 380,-52.5 380,-22.5 255,-22.5"/>
<text text-anchor="start" x="263" y="-40.5" font-family="Helvetica,sans-Serif" font-size="10.00">m_start_up::s_read</text>
<text text-anchor="middle" x="317.5" y="-29.5" font-family="Helvetica,sans-Serif" font-size="10.00">_parallel_ic_data_files</text>
</a>
</g>
</g>
<!-- Node2 -->
<g id="node2" class="node">
<title>Node2</title>
<g id="a_node2"><a xlink:href="p__main_8f90.html#aeec10ee8e2940c953967da3e374e1579" target="_top" xlink:title="This program takes care of setting up the initial condition and grid data for the multicomponent flow...">
<polygon fill="none" stroke="black" points="0,-28 0,-47 53,-47 53,-28 0,-28"/>
<text text-anchor="middle" x="26.5" y="-35" font-family="Helvetica,sans-Serif" font-size="10.00">p_main</text>
</a>
</g>
</g>
<!-- Node1&#45;&gt;Node2 -->
<g id="edge1" class="edge">
<title>Node1&#45;&gt;Node2</title>
<path fill="none" stroke="midnightblue" d="M244.75,-39.96C236.07,-40.18 227.34,-40.37 219,-40.5 161.23,-41.39 146.76,-41.91 89,-40.5 77.24,-40.21 64.24,-39.62 53.22,-39.03"/>
<polygon fill="midnightblue" stroke="midnightblue" points="244.97,-43.45 254.87,-39.68 244.78,-36.46 244.97,-43.45"/>
</g>
<!-- Node3 -->
<g id="node3" class="node">
<title>Node3</title>
<g id="a_node3"><a xlink:href="namespacem__start__up.html#a37202711d89d04cd18f08170ba608aa1" target="_top" xlink:title=" ">
<polygon fill="none" stroke="black" points="89,-0.5 89,-30.5 219,-30.5 219,-0.5 89,-0.5"/>
<text text-anchor="start" x="97" y="-18.5" font-family="Helvetica,sans-Serif" font-size="10.00">m_start_up::s_initialize</text>
<text text-anchor="middle" x="154" y="-7.5" font-family="Helvetica,sans-Serif" font-size="10.00">_start_up_module</text>
</a>
</g>
</g>
<!-- Node1&#45;&gt;Node3 -->
<g id="edge2" class="edge">
<title>Node1&#45;&gt;Node3</title>
<path fill="none" stroke="midnightblue" d="M244.94,-27.75C236.31,-26.58 227.54,-25.38 219.03,-24.22"/>
<polygon fill="midnightblue" stroke="midnightblue" points="244.6,-31.24 254.98,-29.12 245.55,-24.3 244.6,-31.24"/>
</g>
<!-- Node3&#45;&gt;Node2 -->
<g id="edge3" class="edge">
<title>Node3&#45;&gt;Node2</title>
<path fill="none" stroke="midnightblue" d="M78.74,-28.52C69.58,-30.12 60.76,-31.67 53.09,-33.01"/>
<polygon fill="midnightblue" stroke="midnightblue" points="79.53,-31.93 88.78,-26.76 78.33,-25.04 79.53,-31.93"/>
</g>
</g>
</svg>
