<?xml version="1.0" encoding="UTF-8" standalone="no"?>
<!DOCTYPE svg PUBLIC "-//W3C//DTD SVG 1.1//EN"
 "http://www.w3.org/Graphics/SVG/1.1/DTD/svg11.dtd">
<!-- Generated by graphviz version 2.43.0 (0)
 -->
<!-- Title: m_mpi_proxy::s_mpi_barrier Pages: 1 -->
<svg width="561pt" height="157pt"
 viewBox="0.00 0.00 561.00 156.96" xmlns="http://www.w3.org/2000/svg" xmlns:xlink="http://www.w3.org/1999/xlink">
<g id="graph0" class="graph" transform="scale(1 1) rotate(0) translate(4 152.96)">
<title>m_mpi_proxy::s_mpi_barrier</title>
<!-- Node1 -->
<g id="node1" class="node">
<title>Node1</title>
<g id="a_node1"><a xlink:title="Halts all processes until all have reached barrier.">
<polygon fill="#bfbfbf" stroke="black" points="435,-88.5 435,-118.5 553,-118.5 553,-88.5 435,-88.5"/>
<text text-anchor="start" x="443" y="-106.5" font-family="Helvetica,sans-Serif" font-size="10.00">m_mpi_proxy::s_mpi</text>
<text text-anchor="middle" x="494" y="-95.5" font-family="Helvetica,sans-Serif" font-size="10.00">_barrier</text>
</a>
</g>
</g>
<!-- Node2 -->
<g id="node2" class="node">
<title>Node2</title>
<g id="a_node2"><a xlink:href="p__main_8f90.html#aeec10ee8e2940c953967da3e374e1579" target="_top" xlink:title="This program takes care of setting up the initial condition and grid data for the multicomponent flow...">
<polygon fill="none" stroke="black" points="0,-72 0,-91 53,-91 53,-72 0,-72"/>
<text text-anchor="middle" x="26.5" y="-79" font-family="Helvetica,sans-Serif" font-size="10.00">p_main</text>
</a>
</g>
</g>
<!-- Node1&#45;&gt;Node2 -->
<g id="edge1" class="edge">
<title>Node1&#45;&gt;Node2</title>
<path fill="none" stroke="midnightblue" d="M432.6,-121.17C351.93,-141.68 205.66,-167.97 89,-128.5 67.36,-121.18 47.34,-102.85 36.33,-91.37"/>
<polygon fill="midnightblue" stroke="midnightblue" points="433.78,-124.48 442.58,-118.58 432.02,-117.71 433.78,-124.48"/>
</g>
<!-- Node3 -->
<g id="node3" class="node">
<title>Node3</title>
<g id="a_node3"><a xlink:href="namespacem__data__output.html#ab65b312ef83adb104cafafada9c998b6" target="_top" xlink:title="Computation of parameters, allocation procedures, and/or any other tasks needed to properly setup the...">
<polygon fill="none" stroke="black" points="89,-88.5 89,-118.5 238,-118.5 238,-88.5 89,-88.5"/>
<text text-anchor="start" x="97" y="-106.5" font-family="Helvetica,sans-Serif" font-size="10.00">m_data_output::s_initialize</text>
<text text-anchor="middle" x="163.5" y="-95.5" font-family="Helvetica,sans-Serif" font-size="10.00">_data_output_module</text>
</a>
</g>
</g>
<!-- Node1&#45;&gt;Node3 -->
<g id="edge2" class="edge">
<title>Node1&#45;&gt;Node3</title>
<path fill="none" stroke="midnightblue" d="M424.4,-103.5C369.92,-103.5 293.89,-103.5 238.14,-103.5"/>
<polygon fill="midnightblue" stroke="midnightblue" points="424.65,-107 434.65,-103.5 424.65,-100 424.65,-107"/>
</g>
<!-- Node4 -->
<g id="node4" class="node">
<title>Node4</title>
<g id="a_node4"><a xlink:href="namespacem__start__up.html#a25daee88d75c57908efa6e3e0516fb28" target="_top" xlink:title="The goal of this subroutine is to read in any preexisting initial condition data files so that they m...">
<polygon fill="none" stroke="black" points="274,-44.5 274,-74.5 399,-74.5 399,-44.5 274,-44.5"/>
<text text-anchor="start" x="282" y="-62.5" font-family="Helvetica,sans-Serif" font-size="10.00">m_start_up::s_read</text>
<text text-anchor="middle" x="336.5" y="-51.5" font-family="Helvetica,sans-Serif" font-size="10.00">_parallel_ic_data_files</text>
</a>
</g>
</g>
<!-- Node1&#45;&gt;Node4 -->
<g id="edge4" class="edge">
<title>Node1&#45;&gt;Node4</title>
<path fill="none" stroke="midnightblue" d="M430.05,-85.69C416.96,-81.98 403.3,-78.12 390.6,-74.53"/>
<polygon fill="midnightblue" stroke="midnightblue" points="429.35,-89.13 439.92,-88.48 431.25,-82.39 429.35,-89.13"/>
</g>
<!-- Node3&#45;&gt;Node2 -->
<g id="edge3" class="edge">
<title>Node3&#45;&gt;Node2</title>
<path fill="none" stroke="midnightblue" d="M78.58,-89.82C69.39,-88.33 60.64,-86.9 53.05,-85.66"/>
<polygon fill="midnightblue" stroke="midnightblue" points="78.25,-93.32 88.68,-91.47 79.37,-86.41 78.25,-93.32"/>
</g>
<!-- Node4&#45;&gt;Node2 -->
<g id="edge5" class="edge">
<title>Node4&#45;&gt;Node2</title>
<path fill="none" stroke="midnightblue" d="M263.78,-64.62C196.39,-69.44 99.24,-76.38 53.36,-79.65"/>
<polygon fill="midnightblue" stroke="midnightblue" points="264.19,-68.1 273.91,-63.9 263.69,-61.12 264.19,-68.1"/>
</g>
<!-- Node5 -->
<g id="node5" class="node">
<title>Node5</title>
<g id="a_node5"><a xlink:href="namespacem__start__up.html#a37202711d89d04cd18f08170ba608aa1" target="_top" xlink:title=" ">
<polygon fill="none" stroke="black" points="98.5,-0.5 98.5,-30.5 228.5,-30.5 228.5,-0.5 98.5,-0.5"/>
<text text-anchor="start" x="106.5" y="-18.5" font-family="Helvetica,sans-Serif" font-size="10.00">m_start_up::s_initialize</text>
<text text-anchor="middle" x="163.5" y="-7.5" font-family="Helvetica,sans-Serif" font-size="10.00">_start_up_module</text>
</a>
</g>
</g>
<!-- Node4&#45;&gt;Node5 -->
<g id="edge6" class="edge">
<title>Node4&#45;&gt;Node5</title>
<path fill="none" stroke="midnightblue" d="M267.12,-41.91C252.47,-38.14 237.13,-34.19 222.9,-30.53"/>
<polygon fill="midnightblue" stroke="midnightblue" points="266.57,-45.38 277.13,-44.48 268.32,-38.6 266.57,-45.38"/>
</g>
<!-- Node5&#45;&gt;Node2 -->
<g id="edge7" class="edge">
<title>Node5&#45;&gt;Node2</title>
<path fill="none" stroke="midnightblue" d="M113.25,-34.47C105.07,-37.94 96.73,-41.69 89,-45.5 72.69,-53.55 54.83,-64.23 42.58,-71.86"/>
<polygon fill="midnightblue" stroke="midnightblue" points="114.86,-37.59 122.75,-30.52 112.18,-31.13 114.86,-37.59"/>
</g>
</g>
</svg>
