<?xml version="1.0" encoding="UTF-8" standalone="no"?>
<!DOCTYPE svg PUBLIC "-//W3C//DTD SVG 1.1//EN"
 "http://www.w3.org/Graphics/SVG/1.1/DTD/svg11.dtd">
<!-- Generated by graphviz version 2.43.0 (0)
 -->
<!-- Title: m_initial_condition::s_initialize_initial_condition_module Pages: 1 -->
<svg width="314pt" height="167pt"
 viewBox="0.00 0.00 314.00 167.00" xmlns="http://www.w3.org/2000/svg" xmlns:xlink="http://www.w3.org/1999/xlink">
<g id="graph0" class="graph" transform="scale(1 1) rotate(0) translate(4 163)">
<title>m_initial_condition::s_initialize_initial_condition_module</title>
<!-- Node1 -->
<g id="node1" class="node">
<title>Node1</title>
<g id="a_node1"><a xlink:title="Computation of parameters, allocation procedures, and/or any other tasks needed to properly setup the...">
<polygon fill="#999999" stroke="#666666" points="110,-100 0,-100 0,-59 110,-59 110,-100"/>
<text text-anchor="start" x="8" y="-88" font-family="Helvetica,sans-Serif" font-size="10.00">m_initial_condition</text>
<text text-anchor="start" x="8" y="-77" font-family="Helvetica,sans-Serif" font-size="10.00">::s_initialize_initial</text>
<text text-anchor="middle" x="55" y="-66" font-family="Helvetica,sans-Serif" font-size="10.00">_condition_module</text>
</a>
</g>
</g>
<!-- Node2 -->
<g id="node2" class="node">
<title>Node2</title>
<g id="a_node2"><a xlink:href="namespacem__initial__condition.html#ac414f08eb31dad32ed313767d214df72" target="_top" xlink:title="This subroutine assigns the mixture primitive variables of the patch designated by the patch_id,...">
<polygon fill="white" stroke="#666666" points="296,-159 156,-159 156,-118 296,-118 296,-159"/>
<text text-anchor="start" x="164" y="-147" font-family="Helvetica,sans-Serif" font-size="10.00">m_initial_condition</text>
<text text-anchor="start" x="164" y="-136" font-family="Helvetica,sans-Serif" font-size="10.00">::s_assign_patch_mixture</text>
<text text-anchor="middle" x="226" y="-125" font-family="Helvetica,sans-Serif" font-size="10.00">_primitive_variables</text>
</a>
</g>
</g>
<!-- Node1&#45;&gt;Node2 -->
<g id="edge1" class="edge">
<title>Node1&#45;&gt;Node2</title>
<path fill="none" stroke="#63b8ff" d="M110.4,-98.49C125.11,-103.63 141.21,-109.25 156.57,-114.61"/>
<polygon fill="#63b8ff" stroke="#63b8ff" points="155.43,-117.92 166.03,-117.91 157.74,-111.31 155.43,-117.92"/>
</g>
<!-- Node3 -->
<g id="node3" class="node">
<title>Node3</title>
<g id="a_node3"><a xlink:href="namespacem__initial__condition.html#a0024bfbe15f4f49cb2a5a2c574d89e19" target="_top" xlink:title="This subroutine assigns the species primitive variables of the patch designated by the patch_id,...">
<polygon fill="white" stroke="#666666" points="295.5,-100 156.5,-100 156.5,-59 295.5,-59 295.5,-100"/>
<text text-anchor="start" x="164.5" y="-88" font-family="Helvetica,sans-Serif" font-size="10.00">m_initial_condition</text>
<text text-anchor="start" x="164.5" y="-77" font-family="Helvetica,sans-Serif" font-size="10.00">::s_assign_patch_species</text>
<text text-anchor="middle" x="226" y="-66" font-family="Helvetica,sans-Serif" font-size="10.00">_primitive_variables</text>
</a>
</g>
</g>
<!-- Node1&#45;&gt;Node3 -->
<g id="edge2" class="edge">
<title>Node1&#45;&gt;Node3</title>
<path fill="none" stroke="#63b8ff" d="M110.4,-79.5C121.86,-79.5 134.17,-79.5 146.32,-79.5"/>
<polygon fill="#63b8ff" stroke="#63b8ff" points="146.46,-83 156.46,-79.5 146.46,-76 146.46,-83"/>
</g>
<!-- Node4 -->
<g id="node4" class="node">
<title>Node4</title>
<g id="a_node4"><a xlink:href="namespacem__initial__condition.html#abd7cee461afabc01b81373e4be5a20c7" target="_top" xlink:title="This subroutine assigns the species primitive variables. This follows s_assign_patch_species_primitiv...">
<polygon fill="white" stroke="#666666" points="306,-41 146,-41 146,0 306,0 306,-41"/>
<text text-anchor="start" x="154" y="-29" font-family="Helvetica,sans-Serif" font-size="10.00">m_initial_condition</text>
<text text-anchor="start" x="154" y="-18" font-family="Helvetica,sans-Serif" font-size="10.00">::s_assign_patch_species</text>
<text text-anchor="middle" x="226" y="-7" font-family="Helvetica,sans-Serif" font-size="10.00">_primitive_variables_bubbles</text>
</a>
</g>
</g>
<!-- Node1&#45;&gt;Node4 -->
<g id="edge3" class="edge">
<title>Node1&#45;&gt;Node4</title>
<path fill="none" stroke="#63b8ff" d="M110.4,-60.51C125.11,-55.37 141.21,-49.75 156.57,-44.39"/>
<polygon fill="#63b8ff" stroke="#63b8ff" points="157.74,-47.69 166.03,-41.09 155.43,-41.08 157.74,-47.69"/>
</g>
</g>
</svg>
