<?xml version="1.0" encoding="UTF-8" standalone="no"?>
<!DOCTYPE svg PUBLIC "-//W3C//DTD SVG 1.1//EN"
 "http://www.w3.org/Graphics/SVG/1.1/DTD/svg11.dtd">
<!-- Generated by graphviz version 2.43.0 (0)
 -->
<!-- Title: m_variables_conversion::s_convert_species_to_mixture_variables Pages: 1 -->
<svg width="599pt" height="157pt"
 viewBox="0.00 0.00 599.00 157.00" xmlns="http://www.w3.org/2000/svg" xmlns:xlink="http://www.w3.org/1999/xlink">
<g id="graph0" class="graph" transform="scale(1 1) rotate(0) translate(4 153)">
<title>m_variables_conversion::s_convert_species_to_mixture_variables</title>
<!-- Node1 -->
<g id="node1" class="node">
<title>Node1</title>
<g id="a_node1"><a xlink:title="This subroutine is designed for the volume fraction model and provided a set of either conservative o...">
<polygon fill="#999999" stroke="#666666" points="591,-90 456,-90 456,-49 591,-49 591,-90"/>
<text text-anchor="start" x="464" y="-78" font-family="Helvetica,sans-Serif" font-size="10.00">m_variables_conversion</text>
<text text-anchor="start" x="464" y="-67" font-family="Helvetica,sans-Serif" font-size="10.00">::s_convert_species_to</text>
<text text-anchor="middle" x="523.5" y="-56" font-family="Helvetica,sans-Serif" font-size="10.00">_mixture_variables</text>
</a>
</g>
</g>
<!-- Node2 -->
<g id="node2" class="node">
<title>Node2</title>
<g id="a_node2"><a xlink:href="namespacem__initial__condition.html#a0024bfbe15f4f49cb2a5a2c574d89e19" target="_top" xlink:title="This subroutine assigns the species primitive variables of the patch designated by the patch_id,...">
<polygon fill="white" stroke="#666666" points="409.5,-149 270.5,-149 270.5,-108 409.5,-108 409.5,-149"/>
<text text-anchor="start" x="278.5" y="-137" font-family="Helvetica,sans-Serif" font-size="10.00">m_initial_condition</text>
<text text-anchor="start" x="278.5" y="-126" font-family="Helvetica,sans-Serif" font-size="10.00">::s_assign_patch_species</text>
<text text-anchor="middle" x="340" y="-115" font-family="Helvetica,sans-Serif" font-size="10.00">_primitive_variables</text>
</a>
</g>
</g>
<!-- Node1&#45;&gt;Node2 -->
<g id="edge1" class="edge">
<title>Node1&#45;&gt;Node2</title>
<path fill="none" stroke="#63b8ff" d="M449.55,-93.22C434.57,-98.08 418.91,-103.17 404.31,-107.92"/>
<polygon fill="#63b8ff" stroke="#63b8ff" points="450.85,-96.47 459.27,-90.05 448.68,-89.82 450.85,-96.47"/>
</g>
<!-- Node5 -->
<g id="node5" class="node">
<title>Node5</title>
<g id="a_node5"><a xlink:href="namespacem__initial__condition.html#abd7cee461afabc01b81373e4be5a20c7" target="_top" xlink:title="This subroutine assigns the species primitive variables. This follows s_assign_patch_species_primitiv...">
<polygon fill="white" stroke="#666666" points="420,-90 260,-90 260,-49 420,-49 420,-90"/>
<text text-anchor="start" x="268" y="-78" font-family="Helvetica,sans-Serif" font-size="10.00">m_initial_condition</text>
<text text-anchor="start" x="268" y="-67" font-family="Helvetica,sans-Serif" font-size="10.00">::s_assign_patch_species</text>
<text text-anchor="middle" x="340" y="-56" font-family="Helvetica,sans-Serif" font-size="10.00">_primitive_variables_bubbles</text>
</a>
</g>
</g>
<!-- Node1&#45;&gt;Node5 -->
<g id="edge4" class="edge">
<title>Node1&#45;&gt;Node5</title>
<path fill="none" stroke="#63b8ff" d="M445.73,-69.5C437.28,-69.5 428.65,-69.5 420.17,-69.5"/>
<polygon fill="#63b8ff" stroke="#63b8ff" points="445.95,-73 455.95,-69.5 445.95,-66 445.95,-73"/>
</g>
<!-- Node6 -->
<g id="node6" class="node">
<title>Node6</title>
<g id="a_node6"><a xlink:href="namespacem__variables__conversion.html#a3645e5a02bfdcb5d3a8f68f9c00cb051" target="_top" xlink:title="Computation of parameters, allocation procedures, and/or any other tasks needed to properly setup the...">
<polygon fill="white" stroke="#666666" points="224,-41 89,-41 89,0 224,0 224,-41"/>
<text text-anchor="start" x="97" y="-29" font-family="Helvetica,sans-Serif" font-size="10.00">m_variables_conversion</text>
<text text-anchor="start" x="97" y="-18" font-family="Helvetica,sans-Serif" font-size="10.00">::s_initialize_variables</text>
<text text-anchor="middle" x="156.5" y="-7" font-family="Helvetica,sans-Serif" font-size="10.00">_conversion_module</text>
</a>
</g>
</g>
<!-- Node1&#45;&gt;Node6 -->
<g id="edge6" class="edge">
<title>Node1&#45;&gt;Node6</title>
<path fill="none" stroke="#63b8ff" d="M447.44,-46.42C438.26,-44.14 428.96,-42.09 420,-40.5 353.96,-28.76 277.38,-23.91 224.04,-21.91"/>
<polygon fill="#63b8ff" stroke="#63b8ff" points="446.78,-49.86 457.34,-48.96 448.52,-43.08 446.78,-49.86"/>
</g>
<!-- Node3 -->
<g id="node3" class="node">
<title>Node3</title>
<g id="a_node3"><a xlink:href="namespacem__initial__condition.html#a07a665ff41297455ac2da7b54243bac5" target="_top" xlink:title="Computation of parameters, allocation procedures, and/or any other tasks needed to properly setup the...">
<polygon fill="white" stroke="#666666" points="211.5,-100 101.5,-100 101.5,-59 211.5,-59 211.5,-100"/>
<text text-anchor="start" x="109.5" y="-88" font-family="Helvetica,sans-Serif" font-size="10.00">m_initial_condition</text>
<text text-anchor="start" x="109.5" y="-77" font-family="Helvetica,sans-Serif" font-size="10.00">::s_initialize_initial</text>
<text text-anchor="middle" x="156.5" y="-66" font-family="Helvetica,sans-Serif" font-size="10.00">_condition_module</text>
</a>
</g>
</g>
<!-- Node2&#45;&gt;Node3 -->
<g id="edge2" class="edge">
<title>Node2&#45;&gt;Node3</title>
<path fill="none" stroke="#63b8ff" d="M260.7,-107.36C244.11,-102.88 226.95,-98.25 211.51,-94.08"/>
<polygon fill="#63b8ff" stroke="#63b8ff" points="259.82,-110.75 270.38,-109.98 261.64,-103.99 259.82,-110.75"/>
</g>
<!-- Node4 -->
<g id="node4" class="node">
<title>Node4</title>
<g id="a_node4"><a xlink:href="p__main_8f90.html#aeec10ee8e2940c953967da3e374e1579" target="_top" xlink:title="This program takes care of setting up the initial condition and grid data for the multicomponent flow...">
<polygon fill="white" stroke="#666666" points="53,-59 0,-59 0,-40 53,-40 53,-59"/>
<text text-anchor="middle" x="26.5" y="-47" font-family="Helvetica,sans-Serif" font-size="10.00">p_main</text>
</a>
</g>
</g>
<!-- Node3&#45;&gt;Node4 -->
<g id="edge3" class="edge">
<title>Node3&#45;&gt;Node4</title>
<path fill="none" stroke="#63b8ff" d="M91.41,-64.48C77.89,-61.31 64.38,-58.14 53.28,-55.54"/>
<polygon fill="#63b8ff" stroke="#63b8ff" points="90.68,-67.9 101.22,-66.78 92.28,-61.09 90.68,-67.9"/>
</g>
<!-- Node5&#45;&gt;Node3 -->
<g id="edge5" class="edge">
<title>Node5&#45;&gt;Node3</title>
<path fill="none" stroke="#63b8ff" d="M249.92,-74.41C236.81,-75.13 223.65,-75.86 211.54,-76.52"/>
<polygon fill="#63b8ff" stroke="#63b8ff" points="250.13,-77.9 259.92,-73.86 249.74,-70.91 250.13,-77.9"/>
</g>
<!-- Node6&#45;&gt;Node4 -->
<g id="edge7" class="edge">
<title>Node6&#45;&gt;Node4</title>
<path fill="none" stroke="#63b8ff" d="M79.07,-37.82C69.76,-39.93 60.81,-41.95 53.06,-43.71"/>
<polygon fill="#63b8ff" stroke="#63b8ff" points="79.9,-41.22 88.88,-35.59 78.35,-34.39 79.9,-41.22"/>
</g>
</g>
</svg>
