<?xml version="1.0" encoding="UTF-8" standalone="no"?>
<!DOCTYPE svg PUBLIC "-//W3C//DTD SVG 1.1//EN"
 "http://www.w3.org/Graphics/SVG/1.1/DTD/svg11.dtd">
<!-- Generated by graphviz version 2.43.0 (0)
 -->
<!-- Title: m_model::f_model_read Pages: 1 -->
<svg width="715pt" height="190pt"
 viewBox="0.00 0.00 715.00 190.30" xmlns="http://www.w3.org/2000/svg" xmlns:xlink="http://www.w3.org/1999/xlink">
<g id="graph0" class="graph" transform="scale(1 1) rotate(0) translate(4 186.3)">
<title>m_model::f_model_read</title>
<!-- Node1 -->
<g id="Node000001" class="node">
<title>Node1</title>
<g id="a_Node000001"><a xlink:title="This procedure reads a mesh from a file.">
<polygon fill="#999999" stroke="#666666" points="135,-167 0,-167 0,-148 135,-148 135,-167"/>
<text text-anchor="middle" x="67.5" y="-155" font-family="Helvetica,sans-Serif" font-size="10.00">m_model::f_model_read</text>
</a>
</g>
</g>
<!-- Node2 -->
<g id="Node000002" class="node">
<title>Node2</title>
<g id="a_Node000002"><a xlink:href="m__mpi__common_8fpp_8f90.html#ad9e1329e498b65ad4256658675d6f797" target="_top" xlink:title="The subroutine terminates the MPI execution environment.">
<polygon fill="white" stroke="#666666" points="579.5,-129 502.5,-129 502.5,-110 579.5,-110 579.5,-129"/>
<text text-anchor="middle" x="541" y="-117" font-family="Helvetica,sans-Serif" font-size="10.00">s_mpi_abort</text>
</a>
</g>
</g>
<!-- Node1&#45;&gt;Node2 -->
<g id="edge1_Node000001_Node000002" class="edge">
<title>Node1&#45;&gt;Node2</title>
<g id="a_edge1_Node000001_Node000002"><a xlink:title=" ">
<path fill="none" stroke="#63b8ff" d="M110.15,-167.01C128.67,-170.78 150.81,-174.64 171,-176.5 293.17,-187.73 327.01,-182.39 446,-152.5 466.66,-147.31 489.21,-139.47 507.04,-132.74"/>
<polygon fill="#63b8ff" stroke="#63b8ff" points="508.34,-135.99 516.41,-129.13 505.82,-129.45 508.34,-135.99"/>
</a>
</g>
</g>
<!-- Node3 -->
<g id="Node000003" class="node">
<title>Node3</title>
<g id="a_Node000003"><a xlink:href="namespacem__model.html#adc9b5433cf32ba68e911e087ecb33238" target="_top" xlink:title="This procedure reads an OBJ file.">
<polygon fill="white" stroke="#666666" points="292,-167 171,-167 171,-148 292,-148 292,-167"/>
<text text-anchor="middle" x="231.5" y="-155" font-family="Helvetica,sans-Serif" font-size="10.00">m_model::s_read_obj</text>
</a>
</g>
</g>
<!-- Node1&#45;&gt;Node3 -->
<g id="edge2_Node000001_Node000003" class="edge">
<title>Node1&#45;&gt;Node3</title>
<g id="a_edge2_Node000001_Node000003"><a xlink:title=" ">
<path fill="none" stroke="#63b8ff" d="M135.33,-157.5C143.69,-157.5 152.27,-157.5 160.67,-157.5"/>
<polygon fill="#63b8ff" stroke="#63b8ff" points="160.83,-161 170.83,-157.5 160.83,-154 160.83,-161"/>
</a>
</g>
</g>
<!-- Node4 -->
<g id="Node000004" class="node">
<title>Node4</title>
<g id="a_Node000004"><a xlink:href="namespacem__model.html#a7303a163fbad467b0966db4428bb23e0" target="_top" xlink:title="This procedure reads an STL file.">
<polygon fill="white" stroke="#666666" points="290.5,-108 172.5,-108 172.5,-89 290.5,-89 290.5,-108"/>
<text text-anchor="middle" x="231.5" y="-96" font-family="Helvetica,sans-Serif" font-size="10.00">m_model::s_read_stl</text>
</a>
</g>
</g>
<!-- Node1&#45;&gt;Node4 -->
<g id="edge4_Node000001_Node000004" class="edge">
<title>Node1&#45;&gt;Node4</title>
<g id="a_edge4_Node000001_Node000004"><a xlink:title=" ">
<path fill="none" stroke="#63b8ff" d="M94.89,-147.89C122.03,-138 164.5,-122.54 194.67,-111.55"/>
<polygon fill="#63b8ff" stroke="#63b8ff" points="196.19,-114.72 204.39,-108.01 193.8,-108.14 196.19,-114.72"/>
</a>
</g>
</g>
<!-- Node3&#45;&gt;Node2 -->
<g id="edge3_Node000003_Node000002" class="edge">
<title>Node3&#45;&gt;Node2</title>
<g id="a_edge3_Node000003_Node000002"><a xlink:title=" ">
<path fill="none" stroke="#63b8ff" d="M292.15,-150.13C350.57,-142.91 438.42,-132.05 492.33,-125.39"/>
<polygon fill="#63b8ff" stroke="#63b8ff" points="492.82,-128.86 502.31,-124.16 491.96,-121.91 492.82,-128.86"/>
</a>
</g>
</g>
<!-- Node4&#45;&gt;Node2 -->
<g id="edge5_Node000004_Node000002" class="edge">
<title>Node4&#45;&gt;Node2</title>
<g id="a_edge5_Node000004_Node000002"><a xlink:title=" ">
<path fill="none" stroke="#63b8ff" d="M290.7,-102.47C349.1,-106.46 437.96,-112.53 492.32,-116.24"/>
<polygon fill="#63b8ff" stroke="#63b8ff" points="492.17,-119.74 502.38,-116.93 492.64,-112.76 492.17,-119.74"/>
</a>
</g>
</g>
<!-- Node5 -->
<g id="Node000005" class="node">
<title>Node5</title>
<g id="a_Node000005"><a xlink:href="namespacem__model.html#a86c56beafd11322f83dd60c431e1f0ee" target="_top" xlink:title="This procedure reads an ASCII STL file.">
<polygon fill="white" stroke="#666666" points="446,-43.5 328,-43.5 328,-13.5 446,-13.5 446,-43.5"/>
<text text-anchor="start" x="336" y="-31.5" font-family="Helvetica,sans-Serif" font-size="10.00">m_model::s_read_stl</text>
<text text-anchor="middle" x="387" y="-20.5" font-family="Helvetica,sans-Serif" font-size="10.00">_ascii</text>
</a>
</g>
</g>
<!-- Node4&#45;&gt;Node5 -->
<g id="edge6_Node000004_Node000005" class="edge">
<title>Node4&#45;&gt;Node5</title>
<g id="a_edge6_Node000004_Node000005"><a xlink:title=" ">
<path fill="none" stroke="#63b8ff" d="M251.74,-88.84C270.92,-79.3 301.29,-64.45 328,-52.5 331.64,-50.87 335.43,-49.21 339.25,-47.57"/>
<polygon fill="#63b8ff" stroke="#63b8ff" points="340.9,-50.68 348.74,-43.55 338.16,-44.23 340.9,-50.68"/>
</a>
</g>
</g>
<!-- Node8 -->
<g id="Node000008" class="node">
<title>Node8</title>
<g id="a_Node000008"><a xlink:href="namespacem__model.html#acb6ead03311886a7274f3c8d872266a4" target="_top" xlink:title="This procedure reads a binary STL file.">
<polygon fill="white" stroke="#666666" points="446,-91.5 328,-91.5 328,-61.5 446,-61.5 446,-91.5"/>
<text text-anchor="start" x="336" y="-79.5" font-family="Helvetica,sans-Serif" font-size="10.00">m_model::s_read_stl</text>
<text text-anchor="middle" x="387" y="-68.5" font-family="Helvetica,sans-Serif" font-size="10.00">_binary</text>
</a>
</g>
</g>
<!-- Node4&#45;&gt;Node8 -->
<g id="edge11_Node000004_Node000008" class="edge">
<title>Node4&#45;&gt;Node8</title>
<g id="a_edge11_Node000004_Node000008"><a xlink:title=" ">
<path fill="none" stroke="#63b8ff" d="M290.53,-90.18C299.41,-88.91 308.65,-87.59 317.73,-86.28"/>
<polygon fill="#63b8ff" stroke="#63b8ff" points="318.48,-89.71 327.89,-84.83 317.49,-82.78 318.48,-89.71"/>
</a>
</g>
</g>
<!-- Node5&#45;&gt;Node2 -->
<g id="edge8_Node000005_Node000002" class="edge">
<title>Node5&#45;&gt;Node2</title>
<g id="a_edge8_Node000005_Node000002"><a xlink:title=" ">
<path fill="none" stroke="#63b8ff" d="M427.88,-43.59C434.06,-46.33 440.28,-49.33 446,-52.5 473.24,-67.59 502.05,-89.04 520.48,-103.58"/>
<polygon fill="#63b8ff" stroke="#63b8ff" points="518.41,-106.41 528.41,-109.91 522.78,-100.94 518.41,-106.41"/>
</a>
</g>
</g>
<!-- Node6 -->
<g id="Node000006" class="node">
<title>Node6</title>
<g id="a_Node000006"><a xlink:href="m__model_8fpp_8f90.html#af63a31cf24c86c82e0dae5d6dbf038d2" target="_top" xlink:title=" ">
<polygon fill="white" stroke="#666666" points="707,-38 636,-38 636,-19 707,-19 707,-38"/>
<text text-anchor="middle" x="671.5" y="-26" font-family="Helvetica,sans-Serif" font-size="10.00">f_read_line</text>
</a>
</g>
</g>
<!-- Node5&#45;&gt;Node6 -->
<g id="edge7_Node000005_Node000006" class="edge">
<title>Node5&#45;&gt;Node6</title>
<g id="a_edge7_Node000005_Node000006"><a xlink:title=" ">
<path fill="none" stroke="#63b8ff" d="M446.19,-28.5C499.46,-28.5 577.17,-28.5 625.74,-28.5"/>
<polygon fill="#63b8ff" stroke="#63b8ff" points="625.94,-32 635.94,-28.5 625.94,-25 625.94,-32"/>
</a>
</g>
</g>
<!-- Node7 -->
<g id="Node000007" class="node">
<title>Node7</title>
<g id="a_Node000007"><a xlink:href="m__model_8fpp_8f90.html#ae23787e3e47b402d85ad91cc48172dfb" target="_top" xlink:title=" ">
<polygon fill="white" stroke="#666666" points="600,-19 482,-19 482,0 600,0 600,-19"/>
<text text-anchor="middle" x="541" y="-7" font-family="Helvetica,sans-Serif" font-size="10.00">s_skip_ignored_lines</text>
</a>
</g>
</g>
<!-- Node5&#45;&gt;Node7 -->
<g id="edge9_Node000005_Node000007" class="edge">
<title>Node5&#45;&gt;Node7</title>
<g id="a_edge9_Node000005_Node000007"><a xlink:title=" ">
<path fill="none" stroke="#63b8ff" d="M446.33,-21.21C454.7,-20.16 463.36,-19.08 471.9,-18.01"/>
<polygon fill="#63b8ff" stroke="#63b8ff" points="472.34,-21.49 481.82,-16.77 471.47,-14.54 472.34,-21.49"/>
</a>
</g>
</g>
<!-- Node7&#45;&gt;Node6 -->
<g id="edge10_Node000007_Node000006" class="edge">
<title>Node7&#45;&gt;Node6</title>
<g id="a_edge10_Node000007_Node000006"><a xlink:title=" ">
<path fill="none" stroke="#63b8ff" d="M600.23,-18.11C608.83,-19.38 617.56,-20.67 625.82,-21.89"/>
<polygon fill="#63b8ff" stroke="#63b8ff" points="625.58,-25.4 635.98,-23.4 626.6,-18.47 625.58,-25.4"/>
</a>
</g>
</g>
<!-- Node8&#45;&gt;Node2 -->
<g id="edge12_Node000008_Node000002" class="edge">
<title>Node8&#45;&gt;Node2</title>
<g id="a_edge12_Node000008_Node000002"><a xlink:title=" ">
<path fill="none" stroke="#63b8ff" d="M441.16,-91.54C459.2,-96.64 479.12,-102.28 496.33,-107.15"/>
<polygon fill="#63b8ff" stroke="#63b8ff" points="495.54,-110.56 506.11,-109.91 497.44,-103.82 495.54,-110.56"/>
</a>
</g>
</g>
</g>
</svg>
