<?xml version="1.0" encoding="UTF-8" standalone="no"?>
<!DOCTYPE svg PUBLIC "-//W3C//DTD SVG 1.1//EN"
 "http://www.w3.org/Graphics/SVG/1.1/DTD/svg11.dtd">
<!-- Generated by graphviz version 2.43.0 (0)
 -->
<!-- Title: m_assign_variables::s_assign_patch_species_primitive_variables Pages: 1 -->
<svg width="508pt" height="109pt"
 viewBox="0.00 0.00 508.00 109.00" xmlns="http://www.w3.org/2000/svg" xmlns:xlink="http://www.w3.org/1999/xlink">
<g id="graph0" class="graph" transform="scale(1 1) rotate(0) translate(4 105)">
<title>m_assign_variables::s_assign_patch_species_primitive_variables</title>
<!-- Node1 -->
<g id="Node000001" class="node">
<title>Node1</title>
<g id="a_Node000001"><a xlink:title="This subroutine assigns the species primitive variables of the patch designated by the patch_id,...">
<polygon fill="#999999" stroke="#666666" points="500,-65 361,-65 361,-24 500,-24 500,-65"/>
<text text-anchor="start" x="369" y="-53" font-family="Helvetica,sans-Serif" font-size="10.00">m_assign_variables</text>
<text text-anchor="start" x="369" y="-42" font-family="Helvetica,sans-Serif" font-size="10.00">::s_assign_patch_species</text>
<text text-anchor="middle" x="430.5" y="-31" font-family="Helvetica,sans-Serif" font-size="10.00">_primitive_variables</text>
</a>
</g>
</g>
<!-- Node2 -->
<g id="Node000002" class="node">
<title>Node2</title>
<g id="a_Node000002"><a xlink:href="interfacem__assign__variables_1_1s__assign__patch__xxxxx__primitive__variables.html#a1c825e2bfe2443bd9219a8188a343bfe" target="_top" xlink:title=" ">
<polygon fill="white" stroke="#666666" points="176,-101 0,-101 0,-38 176,-38 176,-101"/>
<text text-anchor="start" x="8" y="-89" font-family="Helvetica,sans-Serif" font-size="10.00">m_assign_variables</text>
<text text-anchor="start" x="8" y="-78" font-family="Helvetica,sans-Serif" font-size="10.00">::s_assign_patch_xxxxx</text>
<text text-anchor="start" x="8" y="-67" font-family="Helvetica,sans-Serif" font-size="10.00">_primitive_variables::</text>
<text text-anchor="start" x="8" y="-56" font-family="Helvetica,sans-Serif" font-size="10.00">s_assign_patch_xxxxx_primitive</text>
<text text-anchor="middle" x="88" y="-45" font-family="Helvetica,sans-Serif" font-size="10.00">_variables</text>
</a>
</g>
</g>
<!-- Node1&#45;&gt;Node2 -->
<g id="edge1_Node000001_Node000002" class="edge">
<title>Node1&#45;&gt;Node2</title>
<g id="a_edge1_Node000001_Node000002"><a xlink:title=" ">
<path fill="none" stroke="#63b8ff" d="M350.4,-50.31C298.28,-54.13 230,-59.15 176.3,-63.09"/>
<polygon fill="#63b8ff" stroke="#63b8ff" points="350.88,-53.78 360.59,-49.56 350.37,-46.8 350.88,-53.78"/>
</a>
</g>
</g>
<!-- Node3 -->
<g id="Node000003" class="node">
<title>Node3</title>
<g id="a_Node000003"><a xlink:href="namespacem__assign__variables.html#ae31ee924c1ac66d05a215ec59656a9e0" target="_top" xlink:title=" ">
<polygon fill="white" stroke="#666666" points="325,-41 212,-41 212,0 325,0 325,-41"/>
<text text-anchor="start" x="220" y="-29" font-family="Helvetica,sans-Serif" font-size="10.00">m_assign_variables</text>
<text text-anchor="start" x="220" y="-18" font-family="Helvetica,sans-Serif" font-size="10.00">::s_initialize_assign</text>
<text text-anchor="middle" x="268.5" y="-7" font-family="Helvetica,sans-Serif" font-size="10.00">_variables_module</text>
</a>
</g>
</g>
<!-- Node1&#45;&gt;Node3 -->
<g id="edge2_Node000001_Node000003" class="edge">
<title>Node1&#45;&gt;Node3</title>
<g id="a_edge2_Node000001_Node000003"><a xlink:title=" ">
<path fill="none" stroke="#63b8ff" d="M350.66,-32.67C342.06,-31.38 333.44,-30.09 325.21,-28.86"/>
<polygon fill="#63b8ff" stroke="#63b8ff" points="350.31,-36.16 360.72,-34.18 351.35,-29.24 350.31,-36.16"/>
</a>
</g>
</g>
<!-- Node3&#45;&gt;Node2 -->
<g id="edge4_Node000003_Node000002" class="edge">
<title>Node3&#45;&gt;Node2</title>
<g id="a_edge4_Node000003_Node000002"><a xlink:title=" ">
<path fill="none" stroke="#63b8ff" d="M202.23,-38.42C193.77,-40.74 185,-43.15 176.26,-45.55"/>
<polygon fill="#63b8ff" stroke="#63b8ff" points="203.28,-41.76 212,-35.74 201.43,-35.01 203.28,-41.76"/>
</a>
</g>
</g>
<!-- Node4 -->
<g id="Node000004" class="node">
<title>Node4</title>
<g id="a_Node000004"><a xlink:href="p__main_8f90.html#aeec10ee8e2940c953967da3e374e1579" target="_top" xlink:title="This program takes care of setting up the initial condition and grid data for the multicomponent flow...">
<polygon fill="white" stroke="#666666" points="114.5,-20 61.5,-20 61.5,-1 114.5,-1 114.5,-20"/>
<text text-anchor="middle" x="88" y="-8" font-family="Helvetica,sans-Serif" font-size="10.00">p_main</text>
</a>
</g>
</g>
<!-- Node3&#45;&gt;Node4 -->
<g id="edge3_Node000003_Node000004" class="edge">
<title>Node3&#45;&gt;Node4</title>
<g id="a_edge3_Node000003_Node000004"><a xlink:title=" ">
<path fill="none" stroke="#63b8ff" d="M201.89,-16.82C171.57,-15.13 137.32,-13.21 114.58,-11.93"/>
<polygon fill="#63b8ff" stroke="#63b8ff" points="201.82,-20.33 212,-17.39 202.21,-13.34 201.82,-20.33"/>
</a>
</g>
</g>
</g>
</svg>
