<?xml version="1.0" encoding="UTF-8" standalone="no"?>
<!DOCTYPE svg PUBLIC "-//W3C//DTD SVG 1.1//EN"
 "http://www.w3.org/Graphics/SVG/1.1/DTD/svg11.dtd">
<!-- Generated by graphviz version 2.43.0 (0)
 -->
<!-- Title: m_start_up::s_initialize_modules Pages: 1 -->
<svg width="671pt" height="767pt"
 viewBox="0.00 0.00 671.00 766.94" xmlns="http://www.w3.org/2000/svg" xmlns:xlink="http://www.w3.org/1999/xlink">
<g id="graph0" class="graph" transform="scale(1 1) rotate(0) translate(4 762.94)">
<title>m_start_up::s_initialize_modules</title>
<!-- Node1 -->
<g id="Node000001" class="node">
<title>Node1</title>
<g id="a_Node000001"><a xlink:title=" ">
<polygon fill="#999999" stroke="#666666" points="130,-419 0,-419 0,-389 130,-389 130,-419"/>
<text text-anchor="start" x="8" y="-407" font-family="Helvetica,sans-Serif" font-size="10.00">m_start_up::s_initialize</text>
<text text-anchor="middle" x="65" y="-396" font-family="Helvetica,sans-Serif" font-size="10.00">_modules</text>
</a>
</g>
</g>
<!-- Node2 -->
<g id="Node000002" class="node">
<title>Node2</title>
<g id="a_Node000002"><a xlink:href="namespacem__grid.html#a475baa23ebacca5a4790f12b2221bc0d" target="_top" xlink:title="The following subroutine generates either a uniform or non&#45;uniform rectilinear grid in parallel,...">
<polygon fill="white" stroke="#666666" points="483,-743 373,-743 373,-713 483,-713 483,-743"/>
<text text-anchor="start" x="381" y="-731" font-family="Helvetica,sans-Serif" font-size="10.00">m_grid::s_generate</text>
<text text-anchor="middle" x="428" y="-720" font-family="Helvetica,sans-Serif" font-size="10.00">_parallel_grid</text>
</a>
</g>
</g>
<!-- Node1&#45;&gt;Node2 -->
<g id="edge1_Node000001_Node000002" class="edge">
<title>Node1&#45;&gt;Node2</title>
<g id="a_edge1_Node000001_Node000002"><a xlink:title=" ">
<path fill="none" stroke="#63b8ff" d="M68.29,-419.14C77.49,-477.9 113.9,-689.55 166,-728 224.99,-771.53 313.66,-760.04 370.94,-745.69"/>
<polygon fill="#63b8ff" stroke="#63b8ff" points="372.11,-749 380.9,-743.08 370.34,-742.22 372.11,-749"/>
</a>
</g>
</g>
<!-- Node3 -->
<g id="Node000003" class="node">
<title>Node3</title>
<g id="a_Node000003"><a xlink:href="namespacem__grid.html#a8b6cf6f41e6f75092930f43a4309c3a9" target="_top" xlink:title="The following subroutine generates either a uniform or non&#45;uniform rectilinear grid in serial,...">
<polygon fill="white" stroke="#666666" points="483,-676 373,-676 373,-646 483,-646 483,-676"/>
<text text-anchor="start" x="381" y="-664" font-family="Helvetica,sans-Serif" font-size="10.00">m_grid::s_generate</text>
<text text-anchor="middle" x="428" y="-653" font-family="Helvetica,sans-Serif" font-size="10.00">_serial_grid</text>
</a>
</g>
</g>
<!-- Node1&#45;&gt;Node3 -->
<g id="edge2_Node000001_Node000003" class="edge">
<title>Node1&#45;&gt;Node3</title>
<g id="a_edge2_Node000001_Node000003"><a xlink:title=" ">
<path fill="none" stroke="#63b8ff" d="M67.15,-419.28C71.32,-462.71 89.74,-587.23 166,-642 222.83,-682.82 305.74,-681.4 362.78,-673.79"/>
<polygon fill="#63b8ff" stroke="#63b8ff" points="363.36,-677.25 372.77,-672.36 362.37,-670.32 363.36,-677.25"/>
</a>
</g>
</g>
<!-- Node5 -->
<g id="Node000005" class="node">
<title>Node5</title>
<g id="a_Node000005"><a xlink:href="namespacem__assign__variables.html#ae31ee924c1ac66d05a215ec59656a9e0" target="_top" xlink:title=" ">
<polygon fill="white" stroke="#666666" points="297,-316.5 184,-316.5 184,-275.5 297,-275.5 297,-316.5"/>
<text text-anchor="start" x="192" y="-304.5" font-family="Helvetica,sans-Serif" font-size="10.00">m_assign_variables</text>
<text text-anchor="start" x="192" y="-293.5" font-family="Helvetica,sans-Serif" font-size="10.00">::s_initialize_assign</text>
<text text-anchor="middle" x="240.5" y="-282.5" font-family="Helvetica,sans-Serif" font-size="10.00">_variables_module</text>
</a>
</g>
</g>
<!-- Node1&#45;&gt;Node5 -->
<g id="edge4_Node000001_Node000005" class="edge">
<title>Node1&#45;&gt;Node5</title>
<g id="a_edge4_Node000001_Node000005"><a xlink:title=" ">
<path fill="none" stroke="#63b8ff" d="M84.45,-388.91C103.99,-373.33 136.09,-348.83 166,-331 171.71,-327.6 177.8,-324.26 183.94,-321.09"/>
<polygon fill="#63b8ff" stroke="#63b8ff" points="185.58,-324.18 192.94,-316.56 182.43,-317.93 185.58,-324.18"/>
</a>
</g>
</g>
<!-- Node8 -->
<g id="Node000008" class="node">
<title>Node8</title>
<g id="a_Node000008"><a xlink:href="namespacem__data__output.html#ab65b312ef83adb104cafafada9c998b6" target="_top" xlink:title="Computation of parameters, allocation procedures, and/or any other tasks needed to properly setup the...">
<polygon fill="white" stroke="#666666" points="315,-441 166,-441 166,-411 315,-411 315,-441"/>
<text text-anchor="start" x="174" y="-429" font-family="Helvetica,sans-Serif" font-size="10.00">m_data_output::s_initialize</text>
<text text-anchor="middle" x="240.5" y="-418" font-family="Helvetica,sans-Serif" font-size="10.00">_data_output_module</text>
</a>
</g>
</g>
<!-- Node1&#45;&gt;Node8 -->
<g id="edge7_Node000001_Node000008" class="edge">
<title>Node1&#45;&gt;Node8</title>
<g id="a_edge7_Node000001_Node000008"><a xlink:title=" ">
<path fill="none" stroke="#63b8ff" d="M130.11,-412.13C138.51,-413.19 147.21,-414.3 155.86,-415.39"/>
<polygon fill="#63b8ff" stroke="#63b8ff" points="155.63,-418.89 165.99,-416.68 156.51,-411.95 155.63,-418.89"/>
</a>
</g>
</g>
<!-- Node10 -->
<g id="Node000010" class="node">
<title>Node10</title>
<g id="a_Node000010"><a xlink:href="namespacem__data__output.html#a12a171700eb3f8a63d17c01a0033cf39" target="_top" xlink:title="Writes grid and initial condition data files in parallel to the &quot;0&quot; time&#45;step directory in the local ...">
<polygon fill="white" stroke="#666666" points="493.5,-413 362.5,-413 362.5,-383 493.5,-383 493.5,-413"/>
<text text-anchor="start" x="370.5" y="-401" font-family="Helvetica,sans-Serif" font-size="10.00">m_data_output::s_write</text>
<text text-anchor="middle" x="428" y="-390" font-family="Helvetica,sans-Serif" font-size="10.00">_parallel_data_files</text>
</a>
</g>
</g>
<!-- Node1&#45;&gt;Node10 -->
<g id="edge38_Node000001_Node000010" class="edge">
<title>Node1&#45;&gt;Node10</title>
<g id="a_edge38_Node000001_Node000010"><a xlink:title=" ">
<path fill="none" stroke="#63b8ff" d="M130.02,-402.68C141.97,-402.44 154.37,-402.21 166,-402 228.76,-400.89 300.02,-399.81 352.2,-399.05"/>
<polygon fill="#63b8ff" stroke="#63b8ff" points="352.43,-402.55 362.37,-398.91 352.33,-395.55 352.43,-402.55"/>
</a>
</g>
</g>
<!-- Node12 -->
<g id="Node000012" class="node">
<title>Node12</title>
<g id="a_Node000012"><a xlink:href="namespacem__data__output.html#abaf86e34cd05a2227a23bcef0671a391" target="_top" xlink:title="Writes grid and initial condition data files to the &quot;0&quot; time&#45;step directory in the local processor ra...">
<polygon fill="white" stroke="#666666" points="493.5,-365 362.5,-365 362.5,-335 493.5,-335 493.5,-365"/>
<text text-anchor="start" x="370.5" y="-353" font-family="Helvetica,sans-Serif" font-size="10.00">m_data_output::s_write</text>
<text text-anchor="middle" x="428" y="-342" font-family="Helvetica,sans-Serif" font-size="10.00">_serial_data_files</text>
</a>
</g>
</g>
<!-- Node1&#45;&gt;Node12 -->
<g id="edge39_Node000001_Node000012" class="edge">
<title>Node1&#45;&gt;Node12</title>
<g id="a_edge39_Node000001_Node000012"><a xlink:title=" ">
<path fill="none" stroke="#63b8ff" d="M130.12,-394.41C192.24,-385.12 286.42,-371.03 351.99,-361.22"/>
<polygon fill="#63b8ff" stroke="#63b8ff" points="352.89,-364.63 362.26,-359.68 351.85,-357.7 352.89,-364.63"/>
</a>
</g>
</g>
<!-- Node15 -->
<g id="Node000015" class="node">
<title>Node15</title>
<g id="a_Node000015"><a xlink:href="namespacem__global__parameters.html#a8a76198d180cb9736c21dde108cb0dbf" target="_top" xlink:title="Computation of parameters, allocation procedures, and/or any other tasks needed to properly setup the...">
<polygon fill="white" stroke="#666666" points="302,-257.5 179,-257.5 179,-216.5 302,-216.5 302,-257.5"/>
<text text-anchor="start" x="187" y="-245.5" font-family="Helvetica,sans-Serif" font-size="10.00">m_global_parameters</text>
<text text-anchor="start" x="187" y="-234.5" font-family="Helvetica,sans-Serif" font-size="10.00">::s_initialize_global</text>
<text text-anchor="middle" x="240.5" y="-223.5" font-family="Helvetica,sans-Serif" font-size="10.00">_parameters_module</text>
</a>
</g>
</g>
<!-- Node1&#45;&gt;Node15 -->
<g id="edge14_Node000001_Node000015" class="edge">
<title>Node1&#45;&gt;Node15</title>
<g id="a_edge14_Node000001_Node000015"><a xlink:title=" ">
<path fill="none" stroke="#63b8ff" d="M73.5,-388.69C87.84,-360.86 121.7,-301.66 166,-267 167.81,-265.59 169.69,-264.23 171.63,-262.93"/>
<polygon fill="#63b8ff" stroke="#63b8ff" points="173.73,-265.75 180.47,-257.57 170.1,-259.76 173.73,-265.75"/>
</a>
</g>
</g>
<!-- Node16 -->
<g id="Node000016" class="node">
<title>Node16</title>
<g id="a_Node000016"><a xlink:href="namespacem__grid.html#a08c7d18352873ceab95c10629c1ce317" target="_top" xlink:title="Computation of parameters, allocation procedures, and/or any other tasks needed to properly setup the...">
<polygon fill="white" stroke="#666666" points="295,-719 186,-719 186,-689 295,-689 295,-719"/>
<text text-anchor="start" x="194" y="-707" font-family="Helvetica,sans-Serif" font-size="10.00">m_grid::s_initialize</text>
<text text-anchor="middle" x="240.5" y="-696" font-family="Helvetica,sans-Serif" font-size="10.00">_grid_module</text>
</a>
</g>
</g>
<!-- Node1&#45;&gt;Node16 -->
<g id="edge15_Node000001_Node000016" class="edge">
<title>Node1&#45;&gt;Node16</title>
<g id="a_edge15_Node000001_Node000016"><a xlink:title=" ">
<path fill="none" stroke="#63b8ff" d="M67.33,-419.16C72.06,-464.3 92.02,-599.35 166,-675 169.36,-678.44 173.18,-681.47 177.26,-684.16"/>
<polygon fill="#63b8ff" stroke="#63b8ff" points="175.56,-687.22 185.97,-689.19 179.06,-681.16 175.56,-687.22"/>
</a>
</g>
</g>
<!-- Node17 -->
<g id="Node000017" class="node">
<title>Node17</title>
<g id="a_Node000017"><a xlink:href="namespacem__initial__condition.html#a07a665ff41297455ac2da7b54243bac5" target="_top" xlink:title="Computation of parameters, allocation procedures, and/or any other tasks needed to properly setup the...">
<polygon fill="white" stroke="#666666" points="295.5,-198.5 185.5,-198.5 185.5,-157.5 295.5,-157.5 295.5,-198.5"/>
<text text-anchor="start" x="193.5" y="-186.5" font-family="Helvetica,sans-Serif" font-size="10.00">m_initial_condition</text>
<text text-anchor="start" x="193.5" y="-175.5" font-family="Helvetica,sans-Serif" font-size="10.00">::s_initialize_initial</text>
<text text-anchor="middle" x="240.5" y="-164.5" font-family="Helvetica,sans-Serif" font-size="10.00">_condition_module</text>
</a>
</g>
</g>
<!-- Node1&#45;&gt;Node17 -->
<g id="edge18_Node000001_Node000017" class="edge">
<title>Node1&#45;&gt;Node17</title>
<g id="a_edge18_Node000001_Node000017"><a xlink:title=" ">
<path fill="none" stroke="#63b8ff" d="M69.81,-388.76C79.62,-352.52 109.05,-260.35 166,-208 169.29,-204.98 172.92,-202.24 176.75,-199.77"/>
<polygon fill="#63b8ff" stroke="#63b8ff" points="178.51,-202.79 185.42,-194.76 175.01,-196.73 178.51,-202.79"/>
</a>
</g>
</g>
<!-- Node18 -->
<g id="Node000018" class="node">
<title>Node18</title>
<g id="a_Node000018"><a xlink:href="m__helper_8fpp_8f90.html#ae6e719f709d847b8b1a1f8e8b483158f" target="_top" xlink:title="Initializes non&#45;polydisperse bubble modeling.">
<polygon fill="white" stroke="#666666" points="297,-139.5 184,-139.5 184,-120.5 297,-120.5 297,-139.5"/>
<text text-anchor="middle" x="240.5" y="-127.5" font-family="Helvetica,sans-Serif" font-size="10.00">s_initialize_nonpoly</text>
</a>
</g>
</g>
<!-- Node1&#45;&gt;Node18 -->
<g id="edge19_Node000001_Node000018" class="edge">
<title>Node1&#45;&gt;Node18</title>
<g id="a_edge19_Node000001_Node000018"><a xlink:title=" ">
<path fill="none" stroke="#63b8ff" d="M67.25,-388.99C71.76,-345.01 91.08,-215.38 166,-149 168.65,-146.66 171.54,-144.6 174.61,-142.78"/>
<polygon fill="#63b8ff" stroke="#63b8ff" points="176.23,-145.89 183.64,-138.31 173.12,-139.61 176.23,-145.89"/>
</a>
</g>
</g>
<!-- Node20 -->
<g id="Node000020" class="node">
<title>Node20</title>
<g id="a_Node000020"><a xlink:href="m__variables__conversion_8fpp_8f90.html#ad5e4b4372f2626845645a4e03a83df65" target="_top" xlink:title="The computation of parameters, the allocation of memory, the association of pointers and/or the execu...">
<polygon fill="white" stroke="#666666" points="300,-102 181,-102 181,-72 300,-72 300,-102"/>
<text text-anchor="start" x="189" y="-90" font-family="Helvetica,sans-Serif" font-size="10.00">s_initialize_variables</text>
<text text-anchor="middle" x="240.5" y="-79" font-family="Helvetica,sans-Serif" font-size="10.00">_conversion_module</text>
</a>
</g>
</g>
<!-- Node1&#45;&gt;Node20 -->
<g id="edge21_Node000001_Node000020" class="edge">
<title>Node1&#45;&gt;Node20</title>
<g id="a_edge21_Node000001_Node000020"><a xlink:title=" ">
<path fill="none" stroke="#63b8ff" d="M66.68,-388.88C69.63,-341.23 85.21,-192.62 166,-112 167.88,-110.13 169.9,-108.39 172.04,-106.79"/>
<polygon fill="#63b8ff" stroke="#63b8ff" points="174.22,-109.55 180.76,-101.22 170.45,-103.65 174.22,-109.55"/>
</a>
</g>
</g>
<!-- Node24 -->
<g id="Node000024" class="node">
<title>Node24</title>
<g id="a_Node000024"><a xlink:href="namespacem__start__up.html#ac1c3187de246cbfb9c6b3751e90b9426" target="_top" xlink:title="Cell&#45;boundary data are checked for consistency by looking at the (non&#45;)uniform cell&#45;width distributio...">
<polygon fill="white" stroke="#666666" points="308,-633 173,-633 173,-603 308,-603 308,-633"/>
<text text-anchor="start" x="181" y="-621" font-family="Helvetica,sans-Serif" font-size="10.00">m_start_up::s_read</text>
<text text-anchor="middle" x="240.5" y="-610" font-family="Helvetica,sans-Serif" font-size="10.00">_parallel_grid_data_files</text>
</a>
</g>
</g>
<!-- Node1&#45;&gt;Node24 -->
<g id="edge25_Node000001_Node000024" class="edge">
<title>Node1&#45;&gt;Node24</title>
<g id="a_edge25_Node000001_Node000024"><a xlink:title=" ">
<path fill="none" stroke="#63b8ff" d="M69.72,-419.05C79.32,-454.77 108.31,-545.32 166,-594 167.54,-595.3 169.15,-596.53 170.82,-597.69"/>
<polygon fill="#63b8ff" stroke="#63b8ff" points="169.21,-600.81 179.59,-602.97 172.83,-594.81 169.21,-600.81"/>
</a>
</g>
</g>
<!-- Node26 -->
<g id="Node000026" class="node">
<title>Node26</title>
<g id="a_Node000026"><a xlink:href="namespacem__start__up.html#a25daee88d75c57908efa6e3e0516fb28" target="_top" xlink:title="The goal of this subroutine is to read in any preexisting initial condition data files so that they m...">
<polygon fill="white" stroke="#666666" points="303,-489 178,-489 178,-459 303,-459 303,-489"/>
<text text-anchor="start" x="186" y="-477" font-family="Helvetica,sans-Serif" font-size="10.00">m_start_up::s_read</text>
<text text-anchor="middle" x="240.5" y="-466" font-family="Helvetica,sans-Serif" font-size="10.00">_parallel_ic_data_files</text>
</a>
</g>
</g>
<!-- Node1&#45;&gt;Node26 -->
<g id="edge28_Node000001_Node000026" class="edge">
<title>Node1&#45;&gt;Node26</title>
<g id="a_edge28_Node000001_Node000026"><a xlink:title=" ">
<path fill="none" stroke="#63b8ff" d="M96.24,-419.02C115.88,-428.49 142.16,-440.66 166,-450 170.8,-451.88 175.81,-453.74 180.86,-455.53"/>
<polygon fill="#63b8ff" stroke="#63b8ff" points="179.99,-458.93 190.59,-458.9 182.29,-452.32 179.99,-458.93"/>
</a>
</g>
</g>
<!-- Node27 -->
<g id="Node000027" class="node">
<title>Node27</title>
<g id="a_Node000027"><a xlink:href="namespacem__start__up.html#a396fa8a3563d4b04bb838a09c273bf61" target="_top" xlink:title="The goal of this subroutine is to read in any preexisting grid data as well as based on the imported ...">
<polygon fill="white" stroke="#666666" points="303,-585 178,-585 178,-555 303,-555 303,-585"/>
<text text-anchor="start" x="186" y="-573" font-family="Helvetica,sans-Serif" font-size="10.00">m_start_up::s_read</text>
<text text-anchor="middle" x="240.5" y="-562" font-family="Helvetica,sans-Serif" font-size="10.00">_serial_grid_data_files</text>
</a>
</g>
</g>
<!-- Node1&#45;&gt;Node27 -->
<g id="edge32_Node000001_Node000027" class="edge">
<title>Node1&#45;&gt;Node27</title>
<g id="a_edge32_Node000001_Node000027"><a xlink:title=" ">
<path fill="none" stroke="#63b8ff" d="M72.68,-419.28C86.13,-448.27 119.2,-511.41 166,-546 167.89,-547.39 169.86,-548.71 171.89,-549.95"/>
<polygon fill="#63b8ff" stroke="#63b8ff" points="170.7,-553.28 181.17,-554.93 174.01,-547.11 170.7,-553.28"/>
</a>
</g>
</g>
<!-- Node28 -->
<g id="Node000028" class="node">
<title>Node28</title>
<g id="a_Node000028"><a xlink:href="namespacem__start__up.html#a88f1f355d8aeecb6cd47653ed285cfa2" target="_top" xlink:title="The goal of this subroutine is to read in any preexisting initial condition data files so that they m...">
<polygon fill="white" stroke="#666666" points="298,-537 183,-537 183,-507 298,-507 298,-537"/>
<text text-anchor="start" x="191" y="-525" font-family="Helvetica,sans-Serif" font-size="10.00">m_start_up::s_read</text>
<text text-anchor="middle" x="240.5" y="-514" font-family="Helvetica,sans-Serif" font-size="10.00">_serial_ic_data_files</text>
</a>
</g>
</g>
<!-- Node1&#45;&gt;Node28 -->
<g id="edge35_Node000001_Node000028" class="edge">
<title>Node1&#45;&gt;Node28</title>
<g id="a_edge35_Node000001_Node000028"><a xlink:title=" ">
<path fill="none" stroke="#63b8ff" d="M78.33,-419.19C95.8,-439.79 129.72,-476.5 166,-498 168.83,-499.68 171.79,-501.25 174.83,-502.73"/>
<polygon fill="#63b8ff" stroke="#63b8ff" points="173.59,-506.01 184.15,-506.88 176.43,-499.61 173.59,-506.01"/>
</a>
</g>
</g>
<!-- Node29 -->
<g id="Node000029" class="node">
<title>Node29</title>
<g id="a_Node000029"><a xlink:href="m__helper_8fpp_8f90.html#a546be57ed19ff3f9da2d133dc9df96a9" target="_top" xlink:title="Computes the Simpson weights for quadrature.">
<polygon fill="white" stroke="#666666" points="274.5,-53.5 206.5,-53.5 206.5,-34.5 274.5,-34.5 274.5,-53.5"/>
<text text-anchor="middle" x="240.5" y="-41.5" font-family="Helvetica,sans-Serif" font-size="10.00">s_simpson</text>
</a>
</g>
</g>
<!-- Node1&#45;&gt;Node29 -->
<g id="edge37_Node000001_Node000029" class="edge">
<title>Node1&#45;&gt;Node29</title>
<g id="a_edge37_Node000001_Node000029"><a xlink:title=" ">
<path fill="none" stroke="#63b8ff" d="M65.55,-388.79C64.87,-335.56 70.04,-155.91 166,-63 174.19,-55.07 185.24,-50.33 196.28,-47.53"/>
<polygon fill="#63b8ff" stroke="#63b8ff" points="197.24,-50.9 206.34,-45.46 195.84,-44.05 197.24,-50.9"/>
</a>
</g>
</g>
<!-- Node4 -->
<g id="Node000004" class="node">
<title>Node4</title>
<g id="a_Node000004"><a xlink:href="m__mpi__common_8fpp_8f90.html#a69c6a0b8d191bf31b9831c7f39206fe4" target="_top" xlink:title="The following subroutine takes the inputted variable and determines its minimum value on the entire c...">
<polygon fill="white" stroke="#666666" points="656,-627.5 548,-627.5 548,-608.5 656,-608.5 656,-627.5"/>
<text text-anchor="middle" x="602" y="-615.5" font-family="Helvetica,sans-Serif" font-size="10.00">s_mpi_reduce_min</text>
</a>
</g>
</g>
<!-- Node3&#45;&gt;Node4 -->
<g id="edge3_Node000003_Node000004" class="edge">
<title>Node3&#45;&gt;Node4</title>
<g id="a_edge3_Node000003_Node000004"><a xlink:title=" ">
<path fill="none" stroke="#63b8ff" d="M483.42,-647.39C505.77,-641.81 531.42,-635.4 553.04,-629.99"/>
<polygon fill="#63b8ff" stroke="#63b8ff" points="554.14,-633.32 562.99,-627.5 552.44,-626.53 554.14,-633.32"/>
</a>
</g>
</g>
<!-- Node6 -->
<g id="Node000006" class="node">
<title>Node6</title>
<g id="a_Node000006"><a xlink:href="namespacem__assign__variables.html#aa06360954af8af6e857e009116101f20" target="_top" xlink:title="This subroutine assigns the mixture primitive variables of the patch designated by the patch_id,...">
<polygon fill="white" stroke="#666666" points="498,-257.5 358,-257.5 358,-216.5 498,-216.5 498,-257.5"/>
<text text-anchor="start" x="366" y="-245.5" font-family="Helvetica,sans-Serif" font-size="10.00">m_assign_variables</text>
<text text-anchor="start" x="366" y="-234.5" font-family="Helvetica,sans-Serif" font-size="10.00">::s_assign_patch_mixture</text>
<text text-anchor="middle" x="428" y="-223.5" font-family="Helvetica,sans-Serif" font-size="10.00">_primitive_variables</text>
</a>
</g>
</g>
<!-- Node5&#45;&gt;Node6 -->
<g id="edge5_Node000005_Node000006" class="edge">
<title>Node5&#45;&gt;Node6</title>
<g id="a_edge5_Node000005_Node000006"><a xlink:title=" ">
<path fill="none" stroke="#63b8ff" d="M297.16,-278.3C314.6,-272.75 334.15,-266.53 352.67,-260.64"/>
<polygon fill="#63b8ff" stroke="#63b8ff" points="353.78,-263.96 362.25,-257.59 351.66,-257.29 353.78,-263.96"/>
</a>
</g>
</g>
<!-- Node7 -->
<g id="Node000007" class="node">
<title>Node7</title>
<g id="a_Node000007"><a xlink:href="namespacem__assign__variables.html#acea8669db4dc8eb166849ab1f9683223" target="_top" xlink:title="This subroutine assigns the species primitive variables. This follows s_assign_patch_species_primitiv...">
<polygon fill="white" stroke="#666666" points="497.5,-316.5 358.5,-316.5 358.5,-275.5 497.5,-275.5 497.5,-316.5"/>
<text text-anchor="start" x="366.5" y="-304.5" font-family="Helvetica,sans-Serif" font-size="10.00">m_assign_variables</text>
<text text-anchor="start" x="366.5" y="-293.5" font-family="Helvetica,sans-Serif" font-size="10.00">::s_assign_patch_species</text>
<text text-anchor="middle" x="428" y="-282.5" font-family="Helvetica,sans-Serif" font-size="10.00">_primitive_variables</text>
</a>
</g>
</g>
<!-- Node5&#45;&gt;Node7 -->
<g id="edge6_Node000005_Node000007" class="edge">
<title>Node5&#45;&gt;Node7</title>
<g id="a_edge6_Node000005_Node000007"><a xlink:title=" ">
<path fill="none" stroke="#63b8ff" d="M297.16,-296C313.21,-296 331.05,-296 348.23,-296"/>
<polygon fill="#63b8ff" stroke="#63b8ff" points="348.25,-299.5 358.25,-296 348.25,-292.5 348.25,-299.5"/>
</a>
</g>
</g>
<!-- Node9 -->
<g id="Node000009" class="node">
<title>Node9</title>
<g id="a_Node000009"><a xlink:href="m__mpi__common_8fpp_8f90.html#ae966ace411b5ffbc9ebd5fed9f35da63" target="_top" xlink:title="Halts all processes until all have reached barrier.">
<polygon fill="white" stroke="#666666" points="469.5,-450.5 386.5,-450.5 386.5,-431.5 469.5,-431.5 469.5,-450.5"/>
<text text-anchor="middle" x="428" y="-438.5" font-family="Helvetica,sans-Serif" font-size="10.00">s_mpi_barrier</text>
</a>
</g>
</g>
<!-- Node8&#45;&gt;Node9 -->
<g id="edge8_Node000008_Node000009" class="edge">
<title>Node8&#45;&gt;Node9</title>
<g id="a_edge8_Node000008_Node000009"><a xlink:title=" ">
<path fill="none" stroke="#63b8ff" d="M315.08,-431.95C335.56,-433.61 357.35,-435.37 376.21,-436.89"/>
<polygon fill="#63b8ff" stroke="#63b8ff" points="376.11,-440.4 386.36,-437.71 376.67,-433.42 376.11,-440.4"/>
</a>
</g>
</g>
<!-- Node8&#45;&gt;Node10 -->
<g id="edge9_Node000008_Node000010" class="edge">
<title>Node8&#45;&gt;Node10</title>
<g id="a_edge9_Node000008_Node000010"><a xlink:title=" ">
<path fill="none" stroke="#63b8ff" d="M315.08,-414.89C327.25,-413.06 339.88,-411.15 352.08,-409.31"/>
<polygon fill="#63b8ff" stroke="#63b8ff" points="352.85,-412.73 362.21,-407.78 351.8,-405.81 352.85,-412.73"/>
</a>
</g>
</g>
<!-- Node8&#45;&gt;Node12 -->
<g id="edge11_Node000008_Node000012" class="edge">
<title>Node8&#45;&gt;Node12</title>
<g id="a_edge11_Node000008_Node000012"><a xlink:title=" ">
<path fill="none" stroke="#63b8ff" d="M270.3,-410.99C292.11,-399.95 322.99,-385.01 351,-374 355.99,-372.04 361.21,-370.12 366.48,-368.28"/>
<polygon fill="#63b8ff" stroke="#63b8ff" points="367.63,-371.58 375.97,-365.05 365.37,-364.96 367.63,-371.58"/>
</a>
</g>
</g>
<!-- Node11 -->
<g id="Node000011" class="node">
<title>Node11</title>
<g id="a_Node000011"><a xlink:href="m__mpi__common_8fpp_8f90.html#af3c13e2984fd36a116df57de0b672bc1" target="_top" xlink:title=" ">
<polygon fill="white" stroke="#666666" points="662,-447.5 542,-447.5 542,-428.5 662,-428.5 662,-447.5"/>
<text text-anchor="middle" x="602" y="-435.5" font-family="Helvetica,sans-Serif" font-size="10.00">s_initialize_mpi_data</text>
</a>
</g>
</g>
<!-- Node10&#45;&gt;Node11 -->
<g id="edge10_Node000010_Node000011" class="edge">
<title>Node10&#45;&gt;Node11</title>
<g id="a_edge10_Node000010_Node000011"><a xlink:title=" ">
<path fill="none" stroke="#63b8ff" d="M493.54,-413.01C512.18,-417.34 532.27,-422.02 549.97,-426.13"/>
<polygon fill="#63b8ff" stroke="#63b8ff" points="549.55,-429.63 560.09,-428.49 551.14,-422.81 549.55,-429.63"/>
</a>
</g>
</g>
<!-- Node13 -->
<g id="Node000013" class="node">
<title>Node13</title>
<g id="a_Node000013"><a xlink:href="m__helper_8fpp_8f90.html#a772c75c8b24c414cfaed17e2f8acc772" target="_top" xlink:title=" ">
<polygon fill="white" stroke="#666666" points="663,-377.5 541,-377.5 541,-358.5 663,-358.5 663,-377.5"/>
<text text-anchor="middle" x="602" y="-365.5" font-family="Helvetica,sans-Serif" font-size="10.00">s_comp_n_from_cons</text>
</a>
</g>
</g>
<!-- Node12&#45;&gt;Node13 -->
<g id="edge12_Node000012_Node000013" class="edge">
<title>Node12&#45;&gt;Node13</title>
<g id="a_edge12_Node000012_Node000013"><a xlink:title=" ">
<path fill="none" stroke="#63b8ff" d="M493.54,-356.75C505.67,-358.02 518.42,-359.36 530.73,-360.65"/>
<polygon fill="#63b8ff" stroke="#63b8ff" points="530.62,-364.15 540.93,-361.71 531.35,-357.19 530.62,-364.15"/>
</a>
</g>
</g>
<!-- Node14 -->
<g id="Node000014" class="node">
<title>Node14</title>
<g id="a_Node000014"><a xlink:href="m__variables__conversion_8fpp_8f90.html#ad31047dc31e7ee8fc14d8717c4d0c334" target="_top" xlink:title="This procedure conditionally calculates the appropriate pressure.">
<polygon fill="white" stroke="#666666" points="660.5,-340.5 543.5,-340.5 543.5,-321.5 660.5,-321.5 660.5,-340.5"/>
<text text-anchor="middle" x="602" y="-328.5" font-family="Helvetica,sans-Serif" font-size="10.00">s_compute_pressure</text>
</a>
</g>
</g>
<!-- Node12&#45;&gt;Node14 -->
<g id="edge13_Node000012_Node000014" class="edge">
<title>Node12&#45;&gt;Node14</title>
<g id="a_edge13_Node000012_Node000014"><a xlink:title=" ">
<path fill="none" stroke="#63b8ff" d="M493.54,-342.87C506.47,-341.44 520.1,-339.94 533.15,-338.5"/>
<polygon fill="#63b8ff" stroke="#63b8ff" points="533.91,-341.93 543.46,-337.36 533.14,-334.98 533.91,-341.93"/>
</a>
</g>
</g>
<!-- Node16&#45;&gt;Node2 -->
<g id="edge16_Node000016_Node000002" class="edge">
<title>Node16&#45;&gt;Node2</title>
<g id="a_edge16_Node000016_Node000002"><a xlink:title=" ">
<path fill="none" stroke="#63b8ff" d="M295.15,-710.94C316.31,-713.68 340.79,-716.85 362.87,-719.7"/>
<polygon fill="#63b8ff" stroke="#63b8ff" points="362.46,-723.18 372.82,-720.99 363.36,-716.24 362.46,-723.18"/>
</a>
</g>
</g>
<!-- Node16&#45;&gt;Node3 -->
<g id="edge17_Node000016_Node000003" class="edge">
<title>Node16&#45;&gt;Node3</title>
<g id="a_edge17_Node000016_Node000003"><a xlink:title=" ">
<path fill="none" stroke="#63b8ff" d="M295.15,-691.56C316.31,-686.66 340.79,-680.98 362.87,-675.87"/>
<polygon fill="#63b8ff" stroke="#63b8ff" points="363.87,-679.23 372.82,-673.56 362.29,-672.41 363.87,-679.23"/>
</a>
</g>
</g>
<!-- Node19 -->
<g id="Node000019" class="node">
<title>Node19</title>
<g id="a_Node000019"><a xlink:href="m__helper_8fpp_8f90.html#a91cfb5e94039510845e0bb8cdc843ee8" target="_top" xlink:title="Computes the transfer coefficient for the non&#45;polytropic bubble compression process.">
<polygon fill="white" stroke="#666666" points="466,-163.5 390,-163.5 390,-144.5 466,-144.5 466,-163.5"/>
<text text-anchor="middle" x="428" y="-151.5" font-family="Helvetica,sans-Serif" font-size="10.00">s_transcoeff</text>
</a>
</g>
</g>
<!-- Node18&#45;&gt;Node19 -->
<g id="edge20_Node000018_Node000019" class="edge">
<title>Node18&#45;&gt;Node19</title>
<g id="a_edge20_Node000018_Node000019"><a xlink:title=" ">
<path fill="none" stroke="#63b8ff" d="M297.16,-137.2C323.51,-140.61 354.65,-144.64 379.83,-147.9"/>
<polygon fill="#63b8ff" stroke="#63b8ff" points="379.5,-151.38 389.87,-149.2 380.4,-144.44 379.5,-151.38"/>
</a>
</g>
</g>
<!-- Node21 -->
<g id="Node000021" class="node">
<title>Node21</title>
<g id="a_Node000021"><a xlink:href="m__variables__conversion_8fpp_8f90.html#a23d455cd803d423a9c329a36303c8e59" target="_top" xlink:title="This subroutine is designed for the gamma/pi_inf model and provided a set of either conservative or p...">
<polygon fill="white" stroke="#666666" points="489,-126 367,-126 367,-96 489,-96 489,-126"/>
<text text-anchor="start" x="375" y="-114" font-family="Helvetica,sans-Serif" font-size="10.00">s_convert_mixture_to</text>
<text text-anchor="middle" x="428" y="-103" font-family="Helvetica,sans-Serif" font-size="10.00">_mixture_variables</text>
</a>
</g>
</g>
<!-- Node20&#45;&gt;Node21 -->
<g id="edge22_Node000020_Node000021" class="edge">
<title>Node20&#45;&gt;Node21</title>
<g id="a_edge22_Node000020_Node000021"><a xlink:title=" ">
<path fill="none" stroke="#63b8ff" d="M300.19,-94.59C318.19,-96.92 338.17,-99.51 356.85,-101.92"/>
<polygon fill="#63b8ff" stroke="#63b8ff" points="356.41,-105.4 366.77,-103.21 357.31,-98.45 356.41,-105.4"/>
</a>
</g>
</g>
<!-- Node22 -->
<g id="Node000022" class="node">
<title>Node22</title>
<g id="a_Node000022"><a xlink:href="m__variables__conversion_8fpp_8f90.html#a6584e5eab51d43b8fcb934fbf815732f" target="_top" xlink:title="This subroutine is designed for the volume fraction model and provided a set of either conservative o...">
<polygon fill="white" stroke="#666666" points="488.5,-78 367.5,-78 367.5,-48 488.5,-48 488.5,-78"/>
<text text-anchor="start" x="375.5" y="-66" font-family="Helvetica,sans-Serif" font-size="10.00">s_convert_species_to</text>
<text text-anchor="middle" x="428" y="-55" font-family="Helvetica,sans-Serif" font-size="10.00">_mixture_variables</text>
</a>
</g>
</g>
<!-- Node20&#45;&gt;Node22 -->
<g id="edge23_Node000020_Node000022" class="edge">
<title>Node20&#45;&gt;Node22</title>
<g id="a_edge23_Node000020_Node000022"><a xlink:title=" ">
<path fill="none" stroke="#63b8ff" d="M300.19,-79.41C318.37,-77.05 338.57,-74.44 357.41,-72"/>
<polygon fill="#63b8ff" stroke="#63b8ff" points="357.95,-75.46 367.41,-70.71 357.05,-68.52 357.95,-75.46"/>
</a>
</g>
</g>
<!-- Node23 -->
<g id="Node000023" class="node">
<title>Node23</title>
<g id="a_Node000023"><a xlink:href="m__variables__conversion_8fpp_8f90.html#a518985449876e8bf5a1f426b74790665" target="_top" xlink:title="This procedure is used alongside with the gamma/pi_inf model to transfer the density,...">
<polygon fill="white" stroke="#666666" points="505,-30 351,-30 351,0 505,0 505,-30"/>
<text text-anchor="start" x="359" y="-18" font-family="Helvetica,sans-Serif" font-size="10.00">s_convert_species_to</text>
<text text-anchor="middle" x="428" y="-7" font-family="Helvetica,sans-Serif" font-size="10.00">_mixture_variables_bubbles</text>
</a>
</g>
</g>
<!-- Node20&#45;&gt;Node23 -->
<g id="edge24_Node000020_Node000023" class="edge">
<title>Node20&#45;&gt;Node23</title>
<g id="a_edge24_Node000020_Node000023"><a xlink:title=" ">
<path fill="none" stroke="#63b8ff" d="M293.6,-71.95C300.92,-69.28 308.24,-66.28 315,-63 332.3,-54.6 333.66,-47.31 351,-39 354.86,-37.15 358.9,-35.4 363.01,-33.74"/>
<polygon fill="#63b8ff" stroke="#63b8ff" points="364.6,-36.89 372.71,-30.07 362.12,-30.34 364.6,-36.89"/>
</a>
</g>
</g>
<!-- Node24&#45;&gt;Node4 -->
<g id="edge27_Node000024_Node000004" class="edge">
<title>Node24&#45;&gt;Node4</title>
<g id="a_edge27_Node000024_Node000004"><a xlink:title=" ">
<path fill="none" stroke="#63b8ff" d="M308.28,-618C373.91,-618 473.33,-618 537.72,-618"/>
<polygon fill="#63b8ff" stroke="#63b8ff" points="537.75,-621.5 547.75,-618 537.75,-614.5 537.75,-621.5"/>
</a>
</g>
</g>
<!-- Node25 -->
<g id="Node000025" class="node">
<title>Node25</title>
<g id="a_Node000025"><a xlink:href="m__mpi__common_8fpp_8f90.html#ad9e1329e498b65ad4256658675d6f797" target="_top" xlink:title="The subroutine terminates the MPI execution environment.">
<polygon fill="white" stroke="#666666" points="466.5,-536.5 389.5,-536.5 389.5,-517.5 466.5,-517.5 466.5,-536.5"/>
<text text-anchor="middle" x="428" y="-524.5" font-family="Helvetica,sans-Serif" font-size="10.00">s_mpi_abort</text>
</a>
</g>
</g>
<!-- Node24&#45;&gt;Node25 -->
<g id="edge26_Node000024_Node000025" class="edge">
<title>Node24&#45;&gt;Node25</title>
<g id="a_edge26_Node000024_Node000025"><a xlink:title=" ">
<path fill="none" stroke="#63b8ff" d="M292.68,-602.93C300.27,-600.22 307.91,-597.23 315,-594 347.8,-579.06 383.09,-556.82 405.1,-542.11"/>
<polygon fill="#63b8ff" stroke="#63b8ff" points="407.08,-545 413.4,-536.51 403.16,-539.2 407.08,-545"/>
</a>
</g>
</g>
<!-- Node26&#45;&gt;Node9 -->
<g id="edge31_Node000026_Node000009" class="edge">
<title>Node26&#45;&gt;Node9</title>
<g id="a_edge31_Node000026_Node000009"><a xlink:title=" ">
<path fill="none" stroke="#63b8ff" d="M303.01,-463.06C326.79,-458.83 353.67,-454.05 376.31,-450.02"/>
<polygon fill="#63b8ff" stroke="#63b8ff" points="377.15,-453.42 386.39,-448.23 375.93,-446.53 377.15,-453.42"/>
</a>
</g>
</g>
<!-- Node26&#45;&gt;Node11 -->
<g id="edge29_Node000026_Node000011" class="edge">
<title>Node26&#45;&gt;Node11</title>
<g id="a_edge29_Node000026_Node000011"><a xlink:title=" ">
<path fill="none" stroke="#63b8ff" d="M303.02,-473.72C356.6,-472.76 436.27,-469.63 505,-460 521.81,-457.65 540.01,-453.81 556.01,-449.99"/>
<polygon fill="#63b8ff" stroke="#63b8ff" points="557.28,-453.29 566.16,-447.51 555.61,-446.49 557.28,-453.29"/>
</a>
</g>
</g>
<!-- Node26&#45;&gt;Node25 -->
<g id="edge30_Node000026_Node000025" class="edge">
<title>Node26&#45;&gt;Node25</title>
<g id="a_edge30_Node000026_Node000025"><a xlink:title=" ">
<path fill="none" stroke="#63b8ff" d="M294.16,-489.05C322.46,-497.13 356.94,-506.98 383.67,-514.62"/>
<polygon fill="#63b8ff" stroke="#63b8ff" points="382.93,-518.05 393.51,-517.43 384.85,-511.32 382.93,-518.05"/>
</a>
</g>
</g>
<!-- Node27&#45;&gt;Node4 -->
<g id="edge34_Node000027_Node000004" class="edge">
<title>Node27&#45;&gt;Node4</title>
<g id="a_edge34_Node000027_Node000004"><a xlink:title=" ">
<path fill="none" stroke="#63b8ff" d="M303.3,-578.25C368.76,-586.99 471.58,-600.72 537.63,-609.54"/>
<polygon fill="#63b8ff" stroke="#63b8ff" points="537.52,-613.06 547.9,-610.91 538.45,-606.12 537.52,-613.06"/>
</a>
</g>
</g>
<!-- Node27&#45;&gt;Node25 -->
<g id="edge33_Node000027_Node000025" class="edge">
<title>Node27&#45;&gt;Node25</title>
<g id="a_edge33_Node000027_Node000025"><a xlink:title=" ">
<path fill="none" stroke="#63b8ff" d="M303.01,-555.74C327.91,-549.97 356.2,-543.41 379.47,-538.02"/>
<polygon fill="#63b8ff" stroke="#63b8ff" points="380.49,-541.37 389.45,-535.71 378.91,-534.55 380.49,-541.37"/>
</a>
</g>
</g>
<!-- Node28&#45;&gt;Node25 -->
<g id="edge36_Node000028_Node000025" class="edge">
<title>Node28&#45;&gt;Node25</title>
<g id="a_edge36_Node000028_Node000025"><a xlink:title=" ">
<path fill="none" stroke="#63b8ff" d="M298.16,-523.53C324.08,-524.23 354.45,-525.04 379.2,-525.71"/>
<polygon fill="#63b8ff" stroke="#63b8ff" points="379.34,-529.22 389.43,-525.99 379.52,-522.22 379.34,-529.22"/>
</a>
</g>
</g>
</g>
</svg>
