<?xml version="1.0" encoding="UTF-8" standalone="no"?>
<!DOCTYPE svg PUBLIC "-//W3C//DTD SVG 1.1//EN"
 "http://www.w3.org/Graphics/SVG/1.1/DTD/svg11.dtd">
<!-- Generated by graphviz version 2.43.0 (0)
 -->
<!-- Title: m_assign_variables::s_assign_patch_mixture_primitive_variables Pages: 1 -->
<svg width="598pt" height="120pt"
 viewBox="0.00 0.00 598.00 119.50" xmlns="http://www.w3.org/2000/svg" xmlns:xlink="http://www.w3.org/1999/xlink">
<g id="graph0" class="graph" transform="scale(1 1) rotate(0) translate(4 115.5)">
<title>m_assign_variables::s_assign_patch_mixture_primitive_variables</title>
<!-- Node1 -->
<g id="Node000001" class="node">
<title>Node1</title>
<g id="a_Node000001"><a xlink:title="This subroutine assigns the mixture primitive variables of the patch designated by the patch_id,...">
<polygon fill="#999999" stroke="#666666" points="590,-75.5 450,-75.5 450,-34.5 590,-34.5 590,-75.5"/>
<text text-anchor="start" x="458" y="-63.5" font-family="Helvetica,sans-Serif" font-size="10.00">m_assign_variables</text>
<text text-anchor="start" x="458" y="-52.5" font-family="Helvetica,sans-Serif" font-size="10.00">::s_assign_patch_mixture</text>
<text text-anchor="middle" x="520" y="-41.5" font-family="Helvetica,sans-Serif" font-size="10.00">_primitive_variables</text>
</a>
</g>
</g>
<!-- Node2 -->
<g id="Node000002" class="node">
<title>Node2</title>
<g id="a_Node000002"><a xlink:href="interfacem__assign__variables_1_1s__assign__patch__xxxxx__primitive__variables.html#a1c825e2bfe2443bd9219a8188a343bfe" target="_top" xlink:title=" ">
<polygon fill="white" stroke="#666666" points="265,-111.5 89,-111.5 89,-48.5 265,-48.5 265,-111.5"/>
<text text-anchor="start" x="97" y="-99.5" font-family="Helvetica,sans-Serif" font-size="10.00">m_assign_variables</text>
<text text-anchor="start" x="97" y="-88.5" font-family="Helvetica,sans-Serif" font-size="10.00">::s_assign_patch_xxxxx</text>
<text text-anchor="start" x="97" y="-77.5" font-family="Helvetica,sans-Serif" font-size="10.00">_primitive_variables::</text>
<text text-anchor="start" x="97" y="-66.5" font-family="Helvetica,sans-Serif" font-size="10.00">s_assign_patch_xxxxx_primitive</text>
<text text-anchor="middle" x="177" y="-55.5" font-family="Helvetica,sans-Serif" font-size="10.00">_variables</text>
</a>
</g>
</g>
<!-- Node1&#45;&gt;Node2 -->
<g id="edge1_Node000001_Node000002" class="edge">
<title>Node1&#45;&gt;Node2</title>
<g id="a_edge1_Node000001_Node000002"><a xlink:title=" ">
<path fill="none" stroke="#63b8ff" d="M439.76,-60.81C387.47,-64.64 318.93,-69.67 265.11,-73.61"/>
<polygon fill="#63b8ff" stroke="#63b8ff" points="440.28,-64.28 449.99,-60.06 439.76,-57.3 440.28,-64.28"/>
</a>
</g>
</g>
<!-- Node3 -->
<g id="Node000003" class="node">
<title>Node3</title>
<g id="a_Node000003"><a xlink:href="namespacem__assign__variables.html#ae31ee924c1ac66d05a215ec59656a9e0" target="_top" xlink:title=" ">
<polygon fill="white" stroke="#666666" points="414,-51.5 301,-51.5 301,-10.5 414,-10.5 414,-51.5"/>
<text text-anchor="start" x="309" y="-39.5" font-family="Helvetica,sans-Serif" font-size="10.00">m_assign_variables</text>
<text text-anchor="start" x="309" y="-28.5" font-family="Helvetica,sans-Serif" font-size="10.00">::s_initialize_assign</text>
<text text-anchor="middle" x="357.5" y="-17.5" font-family="Helvetica,sans-Serif" font-size="10.00">_variables_module</text>
</a>
</g>
</g>
<!-- Node1&#45;&gt;Node3 -->
<g id="edge2_Node000001_Node000003" class="edge">
<title>Node1&#45;&gt;Node3</title>
<g id="a_edge2_Node000001_Node000003"><a xlink:title=" ">
<path fill="none" stroke="#63b8ff" d="M439.48,-43.11C430.88,-41.82 422.28,-40.54 414.05,-39.31"/>
<polygon fill="#63b8ff" stroke="#63b8ff" points="439.13,-46.6 449.54,-44.61 440.16,-39.67 439.13,-46.6"/>
</a>
</g>
</g>
<!-- Node3&#45;&gt;Node2 -->
<g id="edge3_Node000003_Node000002" class="edge">
<title>Node3&#45;&gt;Node2</title>
<g id="a_edge3_Node000003_Node000002"><a xlink:title=" ">
<path fill="none" stroke="#63b8ff" d="M291.23,-48.92C282.77,-51.24 274,-53.65 265.26,-56.05"/>
<polygon fill="#63b8ff" stroke="#63b8ff" points="292.28,-52.26 301,-46.24 290.43,-45.51 292.28,-52.26"/>
</a>
</g>
</g>
<!-- Node4 -->
<g id="Node000004" class="node">
<title>Node4</title>
<g id="a_Node000004"><a xlink:href="namespacem__start__up.html#a3745654d013067a8c4fd89f50598674c" target="_top" xlink:title=" ">
<polygon fill="white" stroke="#666666" points="242,-30 112,-30 112,0 242,0 242,-30"/>
<text text-anchor="start" x="120" y="-18" font-family="Helvetica,sans-Serif" font-size="10.00">m_start_up::s_initialize</text>
<text text-anchor="middle" x="177" y="-7" font-family="Helvetica,sans-Serif" font-size="10.00">_modules</text>
</a>
</g>
</g>
<!-- Node3&#45;&gt;Node4 -->
<g id="edge4_Node000003_Node000004" class="edge">
<title>Node3&#45;&gt;Node4</title>
<g id="a_edge4_Node000003_Node000004"><a xlink:title=" ">
<path fill="none" stroke="#63b8ff" d="M290.76,-25.11C274.91,-23.69 257.99,-22.17 242.21,-20.76"/>
<polygon fill="#63b8ff" stroke="#63b8ff" points="290.73,-28.62 301,-26.03 291.35,-21.65 290.73,-28.62"/>
</a>
</g>
</g>
<!-- Node5 -->
<g id="Node000005" class="node">
<title>Node5</title>
<g id="a_Node000005"><a xlink:href="p__main_8f90.html#aeec10ee8e2940c953967da3e374e1579" target="_top" xlink:title="This program takes care of setting up the initial condition and grid data for the multicomponent flow...">
<polygon fill="white" stroke="#666666" points="53,-24.5 0,-24.5 0,-5.5 53,-5.5 53,-24.5"/>
<text text-anchor="middle" x="26.5" y="-12.5" font-family="Helvetica,sans-Serif" font-size="10.00">p_main</text>
</a>
</g>
</g>
<!-- Node4&#45;&gt;Node5 -->
<g id="edge5_Node000004_Node000005" class="edge">
<title>Node4&#45;&gt;Node5</title>
<g id="a_edge5_Node000004_Node000005"><a xlink:title=" ">
<path fill="none" stroke="#63b8ff" d="M101.49,-15C84.05,-15 66.63,-15 53.08,-15"/>
<polygon fill="#63b8ff" stroke="#63b8ff" points="101.73,-18.5 111.73,-15 101.73,-11.5 101.73,-18.5"/>
</a>
</g>
</g>
</g>
</svg>
