<?xml version="1.0" encoding="UTF-8" standalone="no"?>
<!DOCTYPE svg PUBLIC "-//W3C//DTD SVG 1.1//EN"
 "http://www.w3.org/Graphics/SVG/1.1/DTD/svg11.dtd">
<!-- Generated by graphviz version 2.43.0 (0)
 -->
<!-- Title: m_grid::s_generate_parallel_grid Pages: 1 -->
<svg width="352pt" height="61pt"
 viewBox="0.00 0.00 352.00 61.00" xmlns="http://www.w3.org/2000/svg" xmlns:xlink="http://www.w3.org/1999/xlink">
<g id="graph0" class="graph" transform="scale(1 1) rotate(0) translate(4 57)">
<title>m_grid::s_generate_parallel_grid</title>
<!-- Node1 -->
<g id="node1" class="node">
<title>Node1</title>
<g id="a_node1"><a xlink:title="The following subroutine generates either a uniform or non&#45;uniform rectilinear grid in parallel,...">
<polygon fill="#bfbfbf" stroke="black" points="234,-22.5 234,-52.5 344,-52.5 344,-22.5 234,-22.5"/>
<text text-anchor="start" x="242" y="-40.5" font-family="Helvetica,sans-Serif" font-size="10.00">m_grid::s_generate</text>
<text text-anchor="middle" x="289" y="-29.5" font-family="Helvetica,sans-Serif" font-size="10.00">_parallel_grid</text>
</a>
</g>
</g>
<!-- Node2 -->
<g id="node2" class="node">
<title>Node2</title>
<g id="a_node2"><a xlink:href="p__main_8f90.html#aeec10ee8e2940c953967da3e374e1579" target="_top" xlink:title="This program takes care of setting up the initial condition and grid data for the multicomponent flow...">
<polygon fill="none" stroke="black" points="0,-28 0,-47 53,-47 53,-28 0,-28"/>
<text text-anchor="middle" x="26.5" y="-35" font-family="Helvetica,sans-Serif" font-size="10.00">p_main</text>
</a>
</g>
</g>
<!-- Node1&#45;&gt;Node2 -->
<g id="edge1" class="edge">
<title>Node1&#45;&gt;Node2</title>
<path fill="none" stroke="midnightblue" d="M223.7,-39.9C215.06,-40.15 206.31,-40.36 198,-40.5 149.56,-41.31 137.43,-41.68 89,-40.5 77.24,-40.21 64.24,-39.62 53.22,-39.03"/>
<polygon fill="midnightblue" stroke="midnightblue" points="223.86,-43.4 233.75,-39.6 223.65,-36.4 223.86,-43.4"/>
</g>
<!-- Node3 -->
<g id="node3" class="node">
<title>Node3</title>
<g id="a_node3"><a xlink:href="namespacem__grid.html#a08c7d18352873ceab95c10629c1ce317" target="_top" xlink:title="Computation of parameters, allocation procedures, and/or any other tasks needed to properly setup the...">
<polygon fill="none" stroke="black" points="89,-0.5 89,-30.5 198,-30.5 198,-0.5 89,-0.5"/>
<text text-anchor="start" x="97" y="-18.5" font-family="Helvetica,sans-Serif" font-size="10.00">m_grid::s_initialize</text>
<text text-anchor="middle" x="143.5" y="-7.5" font-family="Helvetica,sans-Serif" font-size="10.00">_grid_module</text>
</a>
</g>
</g>
<!-- Node1&#45;&gt;Node3 -->
<g id="edge2" class="edge">
<title>Node1&#45;&gt;Node3</title>
<path fill="none" stroke="midnightblue" d="M223.85,-27.66C215.33,-26.36 206.67,-25.03 198.35,-23.76"/>
<polygon fill="midnightblue" stroke="midnightblue" points="223.33,-31.13 233.75,-29.18 224.39,-24.21 223.33,-31.13"/>
</g>
<!-- Node3&#45;&gt;Node2 -->
<g id="edge3" class="edge">
<title>Node3&#45;&gt;Node2</title>
<path fill="none" stroke="midnightblue" d="M78.82,-27.68C69.75,-29.42 60.89,-31.11 53.15,-32.59"/>
<polygon fill="midnightblue" stroke="midnightblue" points="79.54,-31.11 88.7,-25.79 78.22,-24.23 79.54,-31.11"/>
</g>
</g>
</svg>
