<?xml version="1.0" encoding="UTF-8" standalone="no"?>
<!DOCTYPE svg PUBLIC "-//W3C//DTD SVG 1.1//EN"
 "http://www.w3.org/Graphics/SVG/1.1/DTD/svg11.dtd">
<!-- Generated by graphviz version 2.43.0 (0)
 -->
<!-- Title: m_create_patches::s_spiral Pages: 1 -->
<svg width="286pt" height="51pt"
 viewBox="0.00 0.00 286.00 50.50" xmlns="http://www.w3.org/2000/svg" xmlns:xlink="http://www.w3.org/1999/xlink">
<g id="graph0" class="graph" transform="scale(1 1) rotate(0) translate(4 46.5)">
<title>m_create_patches::s_spiral</title>
<!-- Node1 -->
<g id="node1" class="node">
<title>Node1</title>
<g id="a_node1"><a xlink:title="The spiral patch is a 2D geometry that may be used, The geometry of the patch is well&#45;defined when it...">
<polygon fill="#999999" stroke="#666666" points="117,-30 0,-30 0,0 117,0 117,-30"/>
<text text-anchor="start" x="8" y="-18" font-family="Helvetica,sans-Serif" font-size="10.00">m_create_patches::s</text>
<text text-anchor="middle" x="58.5" y="-7" font-family="Helvetica,sans-Serif" font-size="10.00">_spiral</text>
</a>
</g>
</g>
<!-- Node2 -->
<g id="node2" class="node">
<title>Node2</title>
<g id="a_node2"><a xlink:href="namespacem__create__patches.html#a2af7b0a5418c840cdd7b4edec5502454" target="_top" xlink:title="Archimedes spiral function.">
<polygon fill="white" stroke="#666666" points="278,-24.5 153,-24.5 153,-5.5 278,-5.5 278,-24.5"/>
<text text-anchor="middle" x="215.5" y="-12.5" font-family="Helvetica,sans-Serif" font-size="10.00">m_create_patches::f_r</text>
</a>
</g>
</g>
<!-- Node1&#45;&gt;Node2 -->
<g id="edge1" class="edge">
<title>Node1&#45;&gt;Node2</title>
<path fill="none" stroke="#63b8ff" d="M117.22,-15C125.57,-15 134.25,-15 142.83,-15"/>
<polygon fill="#63b8ff" stroke="#63b8ff" points="142.84,-18.5 152.84,-15 142.84,-11.5 142.84,-18.5"/>
</g>
<!-- Node2&#45;&gt;Node2 -->
<g id="edge2" class="edge">
<title>Node2&#45;&gt;Node2</title>
<path fill="none" stroke="#63b8ff" d="M191.46,-24.58C179.76,-33.23 187.77,-42.5 215.5,-42.5 233.7,-42.5 243.4,-38.51 244.62,-33.32"/>
<polygon fill="#63b8ff" stroke="#63b8ff" points="247.59,-31.47 239.54,-24.58 241.54,-34.99 247.59,-31.47"/>
</g>
</g>
</svg>
