<?xml version="1.0" encoding="UTF-8" standalone="no"?>
<!DOCTYPE svg PUBLIC "-//W3C//DTD SVG 1.1//EN"
 "http://www.w3.org/Graphics/SVG/1.1/DTD/svg11.dtd">
<!-- Generated by graphviz version 2.43.0 (0)
 -->
<!-- Title: m_start_up::s_initialize_start_up_module Pages: 1 -->
<svg width="486pt" height="210pt"
 viewBox="0.00 0.00 486.00 210.00" xmlns="http://www.w3.org/2000/svg" xmlns:xlink="http://www.w3.org/1999/xlink">
<g id="graph0" class="graph" transform="scale(1 1) rotate(0) translate(4 206)">
<title>m_start_up::s_initialize_start_up_module</title>
<!-- Node1 -->
<g id="node1" class="node">
<title>Node1</title>
<g id="a_node1"><a xlink:title=" ">
<polygon fill="#bfbfbf" stroke="black" points="0,-73.5 0,-103.5 130,-103.5 130,-73.5 0,-73.5"/>
<text text-anchor="start" x="8" y="-91.5" font-family="Helvetica,sans-Serif" font-size="10.00">m_start_up::s_initialize</text>
<text text-anchor="middle" x="65" y="-80.5" font-family="Helvetica,sans-Serif" font-size="10.00">_start_up_module</text>
</a>
</g>
</g>
<!-- Node2 -->
<g id="node2" class="node">
<title>Node2</title>
<g id="a_node2"><a xlink:href="namespacem__start__up.html#aaaad3d18eef01d1d8387e34a8b7d33ac" target="_top" xlink:title="Cell&#45;boundary data are checked for consistency by looking at the (non&#45;)uniform cell&#45;width distributio...">
<polygon fill="none" stroke="black" points="166,-49.5 166,-79.5 301,-79.5 301,-49.5 166,-49.5"/>
<text text-anchor="start" x="174" y="-67.5" font-family="Helvetica,sans-Serif" font-size="10.00">m_start_up::s_read</text>
<text text-anchor="middle" x="233.5" y="-56.5" font-family="Helvetica,sans-Serif" font-size="10.00">_parallel_grid_data_files</text>
</a>
</g>
</g>
<!-- Node1&#45;&gt;Node2 -->
<g id="edge1" class="edge">
<title>Node1&#45;&gt;Node2</title>
<path fill="none" stroke="midnightblue" d="M130.37,-79.22C138.73,-78.02 147.35,-76.77 155.87,-75.55"/>
<polygon fill="midnightblue" stroke="midnightblue" points="156.42,-79 165.82,-74.11 155.42,-72.07 156.42,-79"/>
</g>
<!-- Node5 -->
<g id="node5" class="node">
<title>Node5</title>
<g id="a_node5"><a xlink:href="namespacem__start__up.html#a25daee88d75c57908efa6e3e0516fb28" target="_top" xlink:title="The goal of this subroutine is to read in any preexisting initial condition data files so that they m...">
<polygon fill="none" stroke="black" points="171,-147.5 171,-177.5 296,-177.5 296,-147.5 171,-147.5"/>
<text text-anchor="start" x="179" y="-165.5" font-family="Helvetica,sans-Serif" font-size="10.00">m_start_up::s_read</text>
<text text-anchor="middle" x="233.5" y="-154.5" font-family="Helvetica,sans-Serif" font-size="10.00">_parallel_ic_data_files</text>
</a>
</g>
</g>
<!-- Node1&#45;&gt;Node5 -->
<g id="edge4" class="edge">
<title>Node1&#45;&gt;Node5</title>
<path fill="none" stroke="midnightblue" d="M94.03,-103.62C113.85,-114.04 141.2,-127.87 166,-138.5 170.17,-140.29 174.53,-142.06 178.93,-143.79"/>
<polygon fill="midnightblue" stroke="midnightblue" points="177.98,-147.17 188.57,-147.47 180.48,-140.63 177.98,-147.17"/>
</g>
<!-- Node8 -->
<g id="node8" class="node">
<title>Node8</title>
<g id="a_node8"><a xlink:href="namespacem__start__up.html#ac2be28e53607458a3860b03446ed6497" target="_top" xlink:title="The goal of this subroutine is to read in any preexisting grid data as well as based on the imported ...">
<polygon fill="none" stroke="black" points="171,-0.5 171,-30.5 296,-30.5 296,-0.5 171,-0.5"/>
<text text-anchor="start" x="179" y="-18.5" font-family="Helvetica,sans-Serif" font-size="10.00">m_start_up::s_read</text>
<text text-anchor="middle" x="233.5" y="-7.5" font-family="Helvetica,sans-Serif" font-size="10.00">_serial_grid_data_files</text>
</a>
</g>
</g>
<!-- Node1&#45;&gt;Node8 -->
<g id="edge8" class="edge">
<title>Node1&#45;&gt;Node8</title>
<path fill="none" stroke="midnightblue" d="M95.88,-73.31C115.59,-63.5 142.09,-50.71 166,-40.5 170.96,-38.38 176.17,-36.26 181.4,-34.19"/>
<polygon fill="midnightblue" stroke="midnightblue" points="182.72,-37.43 190.77,-30.55 180.18,-30.91 182.72,-37.43"/>
</g>
<!-- Node9 -->
<g id="node9" class="node">
<title>Node9</title>
<g id="a_node9"><a xlink:href="namespacem__start__up.html#a88f1f355d8aeecb6cd47653ed285cfa2" target="_top" xlink:title="The goal of this subroutine is to read in any preexisting initial condition data files so that they m...">
<polygon fill="none" stroke="black" points="176,-98.5 176,-128.5 291,-128.5 291,-98.5 176,-98.5"/>
<text text-anchor="start" x="184" y="-116.5" font-family="Helvetica,sans-Serif" font-size="10.00">m_start_up::s_read</text>
<text text-anchor="middle" x="233.5" y="-105.5" font-family="Helvetica,sans-Serif" font-size="10.00">_serial_ic_data_files</text>
</a>
</g>
</g>
<!-- Node1&#45;&gt;Node9 -->
<g id="edge11" class="edge">
<title>Node1&#45;&gt;Node9</title>
<path fill="none" stroke="midnightblue" d="M130.37,-98.17C141.98,-99.91 154.1,-101.73 165.78,-103.48"/>
<polygon fill="midnightblue" stroke="midnightblue" points="165.49,-106.98 175.89,-105 166.53,-100.05 165.49,-106.98"/>
</g>
<!-- Node3 -->
<g id="node3" class="node">
<title>Node3</title>
<g id="a_node3"><a xlink:href="namespacem__mpi__proxy.html#a04ac565bad2b22dc045a5eeb4f516e2e" target="_top" xlink:title="The subroutine terminates the MPI execution environment.">
<polygon fill="none" stroke="black" points="348.5,-49.5 348.5,-79.5 466.5,-79.5 466.5,-49.5 348.5,-49.5"/>
<text text-anchor="start" x="356.5" y="-67.5" font-family="Helvetica,sans-Serif" font-size="10.00">m_mpi_proxy::s_mpi</text>
<text text-anchor="middle" x="407.5" y="-56.5" font-family="Helvetica,sans-Serif" font-size="10.00">_abort</text>
</a>
</g>
</g>
<!-- Node2&#45;&gt;Node3 -->
<g id="edge2" class="edge">
<title>Node2&#45;&gt;Node3</title>
<path fill="none" stroke="midnightblue" d="M301.49,-64.5C313.58,-64.5 326.19,-64.5 338.31,-64.5"/>
<polygon fill="midnightblue" stroke="midnightblue" points="338.35,-68 348.35,-64.5 338.35,-61 338.35,-68"/>
</g>
<!-- Node4 -->
<g id="node4" class="node">
<title>Node4</title>
<g id="a_node4"><a xlink:href="namespacem__mpi__proxy.html#ad02d11c9b94b9354f7d8234937bb27a2" target="_top" xlink:title="The following subroutine takes the inputted variable and determines its minimum value on the entire c...">
<polygon fill="none" stroke="black" points="348.5,-0.5 348.5,-30.5 466.5,-30.5 466.5,-0.5 348.5,-0.5"/>
<text text-anchor="start" x="356.5" y="-18.5" font-family="Helvetica,sans-Serif" font-size="10.00">m_mpi_proxy::s_mpi</text>
<text text-anchor="middle" x="407.5" y="-7.5" font-family="Helvetica,sans-Serif" font-size="10.00">_reduce_min</text>
</a>
</g>
</g>
<!-- Node2&#45;&gt;Node4 -->
<g id="edge3" class="edge">
<title>Node2&#45;&gt;Node4</title>
<path fill="none" stroke="midnightblue" d="M287.51,-49.4C305.33,-44.32 325.38,-38.61 343.87,-33.34"/>
<polygon fill="midnightblue" stroke="midnightblue" points="345.01,-36.66 353.67,-30.55 343.09,-29.93 345.01,-36.66"/>
</g>
<!-- Node5&#45;&gt;Node3 -->
<g id="edge6" class="edge">
<title>Node5&#45;&gt;Node3</title>
<path fill="none" stroke="midnightblue" d="M281.32,-147.39C288.05,-144.7 294.79,-141.72 301,-138.5 303.05,-137.43 346.52,-106.84 377.01,-85.33"/>
<polygon fill="midnightblue" stroke="midnightblue" points="379.07,-88.16 385.22,-79.53 375.03,-82.44 379.07,-88.16"/>
</g>
<!-- Node6 -->
<g id="node6" class="node">
<title>Node6</title>
<g id="a_node6"><a xlink:href="namespacem__mpi__proxy.html#a2ff35ede51e90c483969e44c31303415" target="_top" xlink:title=" ">
<polygon fill="none" stroke="black" points="337,-171.5 337,-201.5 478,-201.5 478,-171.5 337,-171.5"/>
<text text-anchor="start" x="345" y="-189.5" font-family="Helvetica,sans-Serif" font-size="10.00">m_mpi_proxy::s_initialize</text>
<text text-anchor="middle" x="407.5" y="-178.5" font-family="Helvetica,sans-Serif" font-size="10.00">_mpi_data</text>
</a>
</g>
</g>
<!-- Node5&#45;&gt;Node6 -->
<g id="edge5" class="edge">
<title>Node5&#45;&gt;Node6</title>
<path fill="none" stroke="midnightblue" d="M296.11,-171.1C306.01,-172.48 316.39,-173.93 326.65,-175.36"/>
<polygon fill="midnightblue" stroke="midnightblue" points="326.46,-178.86 336.84,-176.78 327.42,-171.93 326.46,-178.86"/>
</g>
<!-- Node7 -->
<g id="node7" class="node">
<title>Node7</title>
<g id="a_node7"><a xlink:href="namespacem__mpi__proxy.html#abfbc42cea69273bc9fa4a2d78f636eb1" target="_top" xlink:title="Halts all processes until all have reached barrier.">
<polygon fill="none" stroke="black" points="348.5,-122.5 348.5,-152.5 466.5,-152.5 466.5,-122.5 348.5,-122.5"/>
<text text-anchor="start" x="356.5" y="-140.5" font-family="Helvetica,sans-Serif" font-size="10.00">m_mpi_proxy::s_mpi</text>
<text text-anchor="middle" x="407.5" y="-129.5" font-family="Helvetica,sans-Serif" font-size="10.00">_barrier</text>
</a>
</g>
</g>
<!-- Node5&#45;&gt;Node7 -->
<g id="edge7" class="edge">
<title>Node5&#45;&gt;Node7</title>
<path fill="none" stroke="midnightblue" d="M296.11,-153.55C309.84,-151.55 324.47,-149.42 338.44,-147.39"/>
<polygon fill="midnightblue" stroke="midnightblue" points="339.09,-150.84 348.48,-145.93 338.08,-143.91 339.09,-150.84"/>
</g>
<!-- Node8&#45;&gt;Node3 -->
<g id="edge9" class="edge">
<title>Node8&#45;&gt;Node3</title>
<path fill="none" stroke="midnightblue" d="M287.51,-30.6C305.33,-35.68 325.38,-41.39 343.87,-46.66"/>
<polygon fill="midnightblue" stroke="midnightblue" points="343.09,-50.07 353.67,-49.45 345.01,-43.34 343.09,-50.07"/>
</g>
<!-- Node8&#45;&gt;Node4 -->
<g id="edge10" class="edge">
<title>Node8&#45;&gt;Node4</title>
<path fill="none" stroke="midnightblue" d="M296.11,-15.5C309.84,-15.5 324.47,-15.5 338.44,-15.5"/>
<polygon fill="midnightblue" stroke="midnightblue" points="338.48,-19 348.48,-15.5 338.48,-12 338.48,-19"/>
</g>
<!-- Node9&#45;&gt;Node3 -->
<g id="edge12" class="edge">
<title>Node9&#45;&gt;Node3</title>
<path fill="none" stroke="midnightblue" d="M287.51,-98.4C305.33,-93.32 325.38,-87.61 343.87,-82.34"/>
<polygon fill="midnightblue" stroke="midnightblue" points="345.01,-85.66 353.67,-79.55 343.09,-78.93 345.01,-85.66"/>
</g>
</g>
</svg>
