<?xml version="1.0" encoding="UTF-8" standalone="no"?>
<!DOCTYPE svg PUBLIC "-//W3C//DTD SVG 1.1//EN"
 "http://www.w3.org/Graphics/SVG/1.1/DTD/svg11.dtd">
<!-- Generated by graphviz version 2.43.0 (0)
 -->
<!-- Title: m_initial_condition::s_generate_initial_condition Pages: 1 -->
<!--zoomable 1054 -->

<svg id="main" version="1.1" xmlns="http://www.w3.org/2000/svg" xmlns:xlink="http://www.w3.org/1999/xlink" xml:space="preserve" onload="init(evt)">
<style type="text/css"><![CDATA[
.node, .edge {opacity: 0.7;}
.node.selected, .edge.selected {opacity: 1;}
.edge:hover path { stroke: red; }
.edge:hover polygon { stroke: red; fill: red; }
]]></style>

<defs>
  <circle id="rim" cx="0" cy="0" r="7"/>
  <circle id="rim2" cx="0" cy="0" r="3.5"/>
  <g id="zoomPlus">
    <use xlink:href="#rim" fill="#404040"><set attributeName="fill" to="#808080" begin="zoomplus.mouseover" end="zoomplus.mouseout"/></use>
    <path d="M-4,0h8M0,-4v8" fill="none" stroke="white" stroke-width="1.5" pointer-events="none"/>
  </g>
  <g id="zoomMin">
    <use xlink:href="#rim" fill="#404040"><set attributeName="fill" to="#808080" begin="zoomminus.mouseover" end="zoomminus.mouseout"/></use>
    <path d="M-4,0h8" fill="none" stroke="white" stroke-width="1.5" pointer-events="none"/>
  </g>
  <g id="arrowUp" transform="translate(30 24)">
    <use xlink:href="#rim"/>
    <path pointer-events="none" fill="none" stroke="white" stroke-width="1.5" d="M0,-3.0v7 M-2.5,-0.5L0,-3.0L2.5,-0.5"/>
  </g>
  <g id="arrowRight" transform="rotate(90) translate(36 -43)">
    <use xlink:href="#rim"/>
    <path pointer-events="none" fill="none" stroke="white" stroke-width="1.5" d="M0,-3.0v7 M-2.5,-0.5L0,-3.0L2.5,-0.5"/>
  </g>
  <g id="arrowDown" transform="rotate(180) translate(-30 -48)">
    <use xlink:href="#rim"/>
    <path pointer-events="none" fill="none" stroke="white" stroke-width="1.5" d="M0,-3.0v7 M-2.5,-0.5L0,-3.0L2.5,-0.5"/>
  </g>
  <g id="arrowLeft" transform="rotate(270) translate(-36 17)">
    <use xlink:href="#rim"/>
    <path pointer-events="none" fill="none" stroke="white" stroke-width="1.5" d="M0,-3.0v7 M-2.5,-0.5L0,-3.0L2.5,-0.5"/>
  </g>
  <g id="resetDef">
    <use xlink:href="#rim2" fill="#404040"><set attributeName="fill" to="#808080" begin="reset.mouseover" end="reset.mouseout"/></use>
  </g>
</defs>
<script type="application/ecmascript">
var viewWidth = 697;
var viewHeight = 1054;
var sectionId = 'dynsection-0';
</script>
<script type="application/ecmascript" xlink:href="svg.min.js"/>
<svg id="graph" class="graph">
<g id="viewport">
<title>m_initial_condition::s_generate_initial_condition</title>
<!-- Node1 -->
<g id="Node000001" class="node">
<title>Node1</title>
<g id="a_Node000001"><a xlink:title="This subroutine peruses the patches and depending on the type of geometry associated with a particula...">
<polygon fill="#999999" stroke="#666666" points="110,-533 0,-533 0,-492 110,-492 110,-533"/>
<text text-anchor="start" x="8" y="-521" font-family="Helvetica,sans-Serif" font-size="10.00">m_initial_condition</text>
<text text-anchor="start" x="8" y="-510" font-family="Helvetica,sans-Serif" font-size="10.00">::s_generate_initial</text>
<text text-anchor="middle" x="55" y="-499" font-family="Helvetica,sans-Serif" font-size="10.00">_condition</text>
</a>
</g>
</g>
<!-- Node2 -->
<g id="Node000002" class="node">
<title>Node2</title>
<g id="a_Node000002"><a xlink:href="namespacem__patches.html#a049be436d0c118c61d37c22c1a66d52a" target="_top" xlink:title="This patch assigns the primitive variables as analytical functions such that the code can be verified...">
<polygon fill="white" stroke="#666666" points="314.5,-1046 162.5,-1046 162.5,-1027 314.5,-1027 314.5,-1046"/>
<text text-anchor="middle" x="238.5" y="-1034" font-family="Helvetica,sans-Serif" font-size="10.00">m_patches::s_1d_analytical</text>
</a>
</g>
</g>
<!-- Node1&#45;&gt;Node2 -->
<g id="edge1_Node000001_Node000002" class="edge">
<title>Node1&#45;&gt;Node2</title>
<g id="a_edge1_Node000001_Node000002"><a xlink:title=" ">
<path fill="none" stroke="#63b8ff" d="M56.69,-533.11C60.02,-618.9 77.1,-946.62 146,-1017.5 148.25,-1019.81 150.69,-1021.88 153.3,-1023.72"/>
<polygon fill="#63b8ff" stroke="#63b8ff" points="151.71,-1026.85 162.1,-1028.9 155.25,-1020.81 151.71,-1026.85"/>
</a>
</g>
</g>
<!-- Node3 -->
<g id="Node000003" class="node">
<title>Node3</title>
<g id="a_Node000003"><a xlink:href="namespacem__patches.html#a7bbae345a3fa4e777ccbd05dbb78335a" target="_top" xlink:title=" ">
<polygon fill="white" stroke="#666666" points="307,-1008.5 170,-1008.5 170,-978.5 307,-978.5 307,-1008.5"/>
<text text-anchor="start" x="178" y="-996.5" font-family="Helvetica,sans-Serif" font-size="10.00">m_patches::s_1d_bubble</text>
<text text-anchor="middle" x="238.5" y="-985.5" font-family="Helvetica,sans-Serif" font-size="10.00">_pulse</text>
</a>
</g>
</g>
<!-- Node1&#45;&gt;Node3 -->
<g id="edge2_Node000001_Node000003" class="edge">
<title>Node1&#45;&gt;Node3</title>
<g id="a_edge2_Node000001_Node000003"><a xlink:title=" ">
<path fill="none" stroke="#63b8ff" d="M57.22,-533.22C62.4,-613.76 85.08,-904.68 146,-969.5 150.18,-973.95 155.07,-977.61 160.38,-980.62"/>
<polygon fill="#63b8ff" stroke="#63b8ff" points="159.14,-983.9 169.67,-985.09 162.18,-977.6 159.14,-983.9"/>
</a>
</g>
</g>
<!-- Node4 -->
<g id="Node000004" class="node">
<title>Node4</title>
<g id="a_Node000004"><a xlink:href="namespacem__patches.html#a2e69c0fc458162bde0a907b2fbf51cd5" target="_top" xlink:title="This patch assigns the primitive variables as analytical functions such that the code can be verified...">
<polygon fill="white" stroke="#666666" points="314.5,-960 162.5,-960 162.5,-941 314.5,-941 314.5,-960"/>
<text text-anchor="middle" x="238.5" y="-948" font-family="Helvetica,sans-Serif" font-size="10.00">m_patches::s_2d_analytical</text>
</a>
</g>
</g>
<!-- Node1&#45;&gt;Node4 -->
<g id="edge3_Node000001_Node000004" class="edge">
<title>Node1&#45;&gt;Node4</title>
<g id="a_edge3_Node000001_Node000004"><a xlink:title=" ">
<path fill="none" stroke="#63b8ff" d="M57.52,-533.15C63.54,-609.48 88.33,-874.22 146,-931.5 148.29,-933.77 150.77,-935.8 153.4,-937.62"/>
<polygon fill="#63b8ff" stroke="#63b8ff" points="151.86,-940.77 162.28,-942.72 155.35,-934.71 151.86,-940.77"/>
</a>
</g>
</g>
<!-- Node5 -->
<g id="Node000005" class="node">
<title>Node5</title>
<g id="a_Node000005"><a xlink:href="namespacem__patches.html#a55e4bc25766e757c116eaf82d1eb6531" target="_top" xlink:title="The Taylor Green vortex is 2D decaying vortex that may be used, for example, to verify the effects of...">
<polygon fill="white" stroke="#666666" points="318.5,-922.5 158.5,-922.5 158.5,-892.5 318.5,-892.5 318.5,-922.5"/>
<text text-anchor="start" x="166.5" y="-910.5" font-family="Helvetica,sans-Serif" font-size="10.00">m_patches::s_2d_taylorgreen</text>
<text text-anchor="middle" x="238.5" y="-899.5" font-family="Helvetica,sans-Serif" font-size="10.00">_vortex</text>
</a>
</g>
</g>
<!-- Node1&#45;&gt;Node5 -->
<g id="edge4_Node000001_Node000005" class="edge">
<title>Node1&#45;&gt;Node5</title>
<g id="a_edge4_Node000001_Node000005"><a xlink:title=" ">
<path fill="none" stroke="#63b8ff" d="M58.23,-533.1C66.26,-603.42 95.86,-832.42 146,-883.5 147.27,-884.79 148.59,-886.01 149.97,-887.17"/>
<polygon fill="#63b8ff" stroke="#63b8ff" points="148.21,-890.21 158.39,-893.15 152.26,-884.5 148.21,-890.21"/>
</a>
</g>
</g>
<!-- Node6 -->
<g id="Node000006" class="node">
<title>Node6</title>
<g id="a_Node000006"><a xlink:href="namespacem__patches.html#a236fcbc415c46b059d1a864254f03749" target="_top" xlink:title="This patch assigns the primitive variables as analytical functions such that the code can be verified...">
<polygon fill="white" stroke="#666666" points="314.5,-741 162.5,-741 162.5,-722 314.5,-722 314.5,-741"/>
<text text-anchor="middle" x="238.5" y="-729" font-family="Helvetica,sans-Serif" font-size="10.00">m_patches::s_3d_analytical</text>
</a>
</g>
</g>
<!-- Node1&#45;&gt;Node6 -->
<g id="edge5_Node000001_Node000006" class="edge">
<title>Node1&#45;&gt;Node6</title>
<g id="a_edge5_Node000001_Node000006"><a xlink:title=" ">
<path fill="none" stroke="#63b8ff" d="M58.9,-533.07C65.86,-574.28 87.5,-666.96 146,-713.5 148.32,-715.34 150.77,-717.01 153.32,-718.53"/>
<polygon fill="#63b8ff" stroke="#63b8ff" points="151.87,-721.72 162.37,-723.1 155.03,-715.47 151.87,-721.72"/>
</a>
</g>
</g>
<!-- Node8 -->
<g id="Node000008" class="node">
<title>Node8</title>
<g id="a_Node000008"><a xlink:href="namespacem__patches.html#a9953de1edc7ab7b0eb574e7ac33f5156" target="_top" xlink:title=" ">
<polygon fill="white" stroke="#666666" points="308.5,-815 168.5,-815 168.5,-796 308.5,-796 308.5,-815"/>
<text text-anchor="middle" x="238.5" y="-803" font-family="Helvetica,sans-Serif" font-size="10.00">m_patches::s_3dvarcircle</text>
</a>
</g>
</g>
<!-- Node1&#45;&gt;Node8 -->
<g id="edge7_Node000001_Node000008" class="edge">
<title>Node1&#45;&gt;Node8</title>
<g id="a_edge7_Node000001_Node000008"><a xlink:title=" ">
<path fill="none" stroke="#63b8ff" d="M56.12,-533.14C57.61,-584.63 69.06,-719.42 146,-787.5 149.92,-790.96 154.3,-793.84 158.97,-796.22"/>
<polygon fill="#63b8ff" stroke="#63b8ff" points="157.69,-799.49 168.26,-800.22 160.46,-793.05 157.69,-799.49"/>
</a>
</g>
</g>
<!-- Node9 -->
<g id="Node000009" class="node">
<title>Node9</title>
<g id="a_Node000009"><a xlink:href="namespacem__patches.html#a99bd27a782f64ea9785aedbe33e2eecb" target="_top" xlink:title="The circular patch is a 2D geometry that may be used, for example, in creating a bubble or a droplet....">
<polygon fill="white" stroke="#666666" points="295,-778 182,-778 182,-759 295,-759 295,-778"/>
<text text-anchor="middle" x="238.5" y="-766" font-family="Helvetica,sans-Serif" font-size="10.00">m_patches::s_circle</text>
</a>
</g>
</g>
<!-- Node1&#45;&gt;Node9 -->
<g id="edge8_Node000001_Node000009" class="edge">
<title>Node1&#45;&gt;Node9</title>
<g id="a_edge8_Node000001_Node000009"><a xlink:title=" ">
<path fill="none" stroke="#63b8ff" d="M57.32,-533.15C61.46,-579.72 78.36,-693.32 146,-750.5 153.43,-756.78 162.42,-761.11 171.82,-764.05"/>
<polygon fill="#63b8ff" stroke="#63b8ff" points="171.16,-767.49 181.72,-766.63 172.93,-760.72 171.16,-767.49"/>
</a>
</g>
</g>
<!-- Node10 -->
<g id="Node000010" class="node">
<title>Node10</title>
<g id="a_Node000010"><a xlink:href="namespacem__variables__conversion.html#a86ac76fa70eabaede1b0f3a4af740560" target="_top" xlink:title="The following procedure handles the conversion between the conservative variables and the primitive v...">
<polygon fill="white" stroke="#666666" points="307.5,-874 169.5,-874 169.5,-833 307.5,-833 307.5,-874"/>
<text text-anchor="start" x="177.5" y="-862" font-family="Helvetica,sans-Serif" font-size="10.00">m_variables_conversion</text>
<text text-anchor="start" x="177.5" y="-851" font-family="Helvetica,sans-Serif" font-size="10.00">::s_convert_conservative</text>
<text text-anchor="middle" x="238.5" y="-840" font-family="Helvetica,sans-Serif" font-size="10.00">_to_primitive_variables</text>
</a>
</g>
</g>
<!-- Node1&#45;&gt;Node10 -->
<g id="edge9_Node000001_Node000010" class="edge">
<title>Node1&#45;&gt;Node10</title>
<g id="a_edge9_Node000001_Node000010"><a xlink:title=" ">
<path fill="none" stroke="#63b8ff" d="M55.68,-533.23C55.98,-588.51 64.57,-740.91 146,-824.5 150.17,-828.78 154.97,-832.43 160.14,-835.55"/>
<polygon fill="#63b8ff" stroke="#63b8ff" points="158.67,-838.73 169.14,-840.3 161.93,-832.53 158.67,-838.73"/>
</a>
</g>
</g>
<!-- Node14 -->
<g id="Node000014" class="node">
<title>Node14</title>
<g id="a_Node000014"><a xlink:href="namespacem__variables__conversion.html#a866ca0a45dcda5e1c48344e17df62fd1" target="_top" xlink:title="The following procedure handles the conversion between the primitive variables and the conservative v...">
<polygon fill="white" stroke="#666666" points="313.5,-704 163.5,-704 163.5,-663 313.5,-663 313.5,-704"/>
<text text-anchor="start" x="171.5" y="-692" font-family="Helvetica,sans-Serif" font-size="10.00">m_variables_conversion</text>
<text text-anchor="start" x="171.5" y="-681" font-family="Helvetica,sans-Serif" font-size="10.00">::s_convert_primitive</text>
<text text-anchor="middle" x="238.5" y="-670" font-family="Helvetica,sans-Serif" font-size="10.00">_to_conservative_variables</text>
</a>
</g>
</g>
<!-- Node1&#45;&gt;Node14 -->
<g id="edge13_Node000001_Node000014" class="edge">
<title>Node1&#45;&gt;Node14</title>
<g id="a_edge13_Node000001_Node000014"><a xlink:title=" ">
<path fill="none" stroke="#63b8ff" d="M63.85,-533.17C76.52,-563.82 104.35,-621.19 146,-653.5 148.64,-655.55 151.43,-657.46 154.32,-659.25"/>
<polygon fill="#63b8ff" stroke="#63b8ff" points="152.85,-662.43 163.29,-664.22 156.24,-656.31 152.85,-662.43"/>
</a>
</g>
</g>
<!-- Node15 -->
<g id="Node000015" class="node">
<title>Node15</title>
<g id="a_Node000015"><a xlink:href="namespacem__patches.html#a66aced9da5e4fde4d5c92b2283f8cccd" target="_top" xlink:title="The cuboidal patch is a 3D geometry that may be used, for example, in creating a solid boundary,...">
<polygon fill="white" stroke="#666666" points="298,-596 179,-596 179,-577 298,-577 298,-596"/>
<text text-anchor="middle" x="238.5" y="-584" font-family="Helvetica,sans-Serif" font-size="10.00">m_patches::s_cuboid</text>
</a>
</g>
</g>
<!-- Node1&#45;&gt;Node15 -->
<g id="edge14_Node000001_Node000015" class="edge">
<title>Node1&#45;&gt;Node15</title>
<g id="a_edge14_Node000001_Node000015"><a xlink:title=" ">
<path fill="none" stroke="#63b8ff" d="M83.38,-533.19C100.53,-545.2 123.57,-559.66 146,-568.5 153.31,-571.38 161.13,-573.81 169.01,-575.87"/>
<polygon fill="#63b8ff" stroke="#63b8ff" points="168.45,-579.33 178.99,-578.27 170.09,-572.53 168.45,-579.33"/>
</a>
</g>
</g>
<!-- Node16 -->
<g id="Node000016" class="node">
<title>Node16</title>
<g id="a_Node000016"><a xlink:href="namespacem__patches.html#ac9e356d1f9db7bcd0f98095a8cf503a7" target="_top" xlink:title="The cylindrical patch is a 3D geometry that may be used, for example, in setting up a cylindrical sol...">
<polygon fill="white" stroke="#666666" points="301,-522 176,-522 176,-503 301,-503 301,-522"/>
<text text-anchor="middle" x="238.5" y="-510" font-family="Helvetica,sans-Serif" font-size="10.00">m_patches::s_cylinder</text>
</a>
</g>
</g>
<!-- Node1&#45;&gt;Node16 -->
<g id="edge16_Node000001_Node000016" class="edge">
<title>Node1&#45;&gt;Node16</title>
<g id="a_edge16_Node000001_Node000016"><a xlink:title=" ">
<path fill="none" stroke="#63b8ff" d="M110.46,-512.5C127.81,-512.5 147.29,-512.5 165.68,-512.5"/>
<polygon fill="#63b8ff" stroke="#63b8ff" points="165.77,-516 175.77,-512.5 165.77,-509 165.77,-516"/>
</a>
</g>
</g>
<!-- Node17 -->
<g id="Node000017" class="node">
<title>Node17</title>
<g id="a_Node000017"><a xlink:href="namespacem__patches.html#acdb5dc6256daeea167f0969a914ac734" target="_top" xlink:title="The elliptical patch is a 2D geometry. The geometry of the patch is well&#45;defined when its centroid an...">
<polygon fill="white" stroke="#666666" points="298,-559 179,-559 179,-540 298,-540 298,-559"/>
<text text-anchor="middle" x="238.5" y="-547" font-family="Helvetica,sans-Serif" font-size="10.00">m_patches::s_ellipse</text>
</a>
</g>
</g>
<!-- Node1&#45;&gt;Node17 -->
<g id="edge18_Node000001_Node000017" class="edge">
<title>Node1&#45;&gt;Node17</title>
<g id="a_edge18_Node000001_Node000017"><a xlink:title=" ">
<path fill="none" stroke="#63b8ff" d="M110.23,-524.08C122.02,-526.56 134.42,-529.14 146,-531.5 156.34,-533.61 167.34,-535.81 178,-537.92"/>
<polygon fill="#63b8ff" stroke="#63b8ff" points="177.6,-541.41 188.09,-539.91 178.96,-534.54 177.6,-541.41"/>
</a>
</g>
</g>
<!-- Node18 -->
<g id="Node000018" class="node">
<title>Node18</title>
<g id="a_Node000018"><a xlink:href="namespacem__patches.html#abcefacc72ee4a302589be269e902bb25" target="_top" xlink:title="The ellipsoidal patch is a 3D geometry. The geometry of the patch is well&#45;defined when its centroid a...">
<polygon fill="white" stroke="#666666" points="302.5,-265 174.5,-265 174.5,-246 302.5,-246 302.5,-265"/>
<text text-anchor="middle" x="238.5" y="-253" font-family="Helvetica,sans-Serif" font-size="10.00">m_patches::s_ellipsoid</text>
</a>
</g>
</g>
<!-- Node1&#45;&gt;Node18 -->
<g id="edge19_Node000001_Node000018" class="edge">
<title>Node1&#45;&gt;Node18</title>
<g id="a_edge19_Node000001_Node000018"><a xlink:title=" ">
<path fill="none" stroke="#63b8ff" d="M57.36,-491.9C61.59,-445.44 78.66,-332.03 146,-274.5 151.51,-269.79 157.89,-266.15 164.66,-263.34"/>
<polygon fill="#63b8ff" stroke="#63b8ff" points="165.83,-266.64 174.09,-260.01 163.5,-260.04 165.83,-266.64"/>
</a>
</g>
</g>
<!-- Node19 -->
<g id="Node000019" class="node">
<title>Node19</title>
<g id="a_Node000019"><a xlink:href="namespacem__patches.html#a6a55561aea30814a3a1491ee7a6a2e81" target="_top" xlink:title="The isentropic vortex is a 2D geometry that may be used, for example, to generate an isentropic flow ...">
<polygon fill="white" stroke="#666666" points="305.5,-484.5 171.5,-484.5 171.5,-454.5 305.5,-454.5 305.5,-484.5"/>
<text text-anchor="start" x="179.5" y="-472.5" font-family="Helvetica,sans-Serif" font-size="10.00">m_patches::s_isentropic</text>
<text text-anchor="middle" x="238.5" y="-461.5" font-family="Helvetica,sans-Serif" font-size="10.00">_vortex</text>
</a>
</g>
</g>
<!-- Node1&#45;&gt;Node19 -->
<g id="edge21_Node000001_Node000019" class="edge">
<title>Node1&#45;&gt;Node19</title>
<g id="a_edge21_Node000001_Node000019"><a xlink:title=" ">
<path fill="none" stroke="#63b8ff" d="M110.46,-499.6C127.37,-495.59 146.3,-491.11 164.28,-486.85"/>
<polygon fill="#63b8ff" stroke="#63b8ff" points="165.22,-490.22 174.15,-484.51 163.61,-483.41 165.22,-490.22"/>
</a>
</g>
</g>
<!-- Node20 -->
<g id="Node000020" class="node">
<title>Node20</title>
<g id="a_Node000020"><a xlink:href="namespacem__patches.html#a6b17e82e2e0ed61936e576b878169007" target="_top" xlink:title="The line segment patch is a 1D geometry that may be used, for example, in creating a Riemann problem....">
<polygon fill="white" stroke="#666666" points="314.5,-436 162.5,-436 162.5,-417 314.5,-417 314.5,-436"/>
<text text-anchor="middle" x="238.5" y="-424" font-family="Helvetica,sans-Serif" font-size="10.00">m_patches::s_line_segment</text>
</a>
</g>
</g>
<!-- Node1&#45;&gt;Node20 -->
<g id="edge22_Node000001_Node000020" class="edge">
<title>Node1&#45;&gt;Node20</title>
<g id="a_edge22_Node000001_Node000020"><a xlink:title=" ">
<path fill="none" stroke="#63b8ff" d="M77.91,-491.85C95.14,-476.76 120.41,-457 146,-445.5 151.63,-442.97 157.61,-440.77 163.71,-438.86"/>
<polygon fill="#63b8ff" stroke="#63b8ff" points="164.72,-442.21 173.37,-436.09 162.79,-435.49 164.72,-442.21"/>
</a>
</g>
</g>
<!-- Node21 -->
<g id="Node000021" class="node">
<title>Node21</title>
<g id="a_Node000021"><a xlink:href="namespacem__initial__condition.html#afef3f507e182798fcfd7aecc52878fc9" target="_top" xlink:title=" ">
<polygon fill="white" stroke="#666666" points="293.5,-398.5 183.5,-398.5 183.5,-368.5 293.5,-368.5 293.5,-398.5"/>
<text text-anchor="start" x="191.5" y="-386.5" font-family="Helvetica,sans-Serif" font-size="10.00">m_initial_condition</text>
<text text-anchor="middle" x="238.5" y="-375.5" font-family="Helvetica,sans-Serif" font-size="10.00">::s_perturb_sphere</text>
</a>
</g>
</g>
<!-- Node1&#45;&gt;Node21 -->
<g id="edge23_Node000001_Node000021" class="edge">
<title>Node1&#45;&gt;Node21</title>
<g id="a_edge23_Node000001_Node000021"><a xlink:title=" ">
<path fill="none" stroke="#63b8ff" d="M68.56,-491.66C83.9,-467.99 112.06,-429.88 146,-408.5 154.36,-403.23 163.83,-399.06 173.42,-395.76"/>
<polygon fill="#63b8ff" stroke="#63b8ff" points="174.54,-399.08 183.03,-392.75 172.44,-392.4 174.54,-399.08"/>
</a>
</g>
</g>
<!-- Node22 -->
<g id="Node000022" class="node">
<title>Node22</title>
<g id="a_Node000022"><a xlink:href="namespacem__initial__condition.html#ab66e3b04024a8ae7327857b1b265bc27" target="_top" xlink:title=" ">
<polygon fill="white" stroke="#666666" points="317,-350.5 160,-350.5 160,-320.5 317,-320.5 317,-350.5"/>
<text text-anchor="start" x="168" y="-338.5" font-family="Helvetica,sans-Serif" font-size="10.00">m_initial_condition</text>
<text text-anchor="middle" x="238.5" y="-327.5" font-family="Helvetica,sans-Serif" font-size="10.00">::s_perturb_surrounding_flow</text>
</a>
</g>
</g>
<!-- Node1&#45;&gt;Node22 -->
<g id="edge24_Node000001_Node000022" class="edge">
<title>Node1&#45;&gt;Node22</title>
<g id="a_edge24_Node000001_Node000022"><a xlink:title=" ">
<path fill="none" stroke="#63b8ff" d="M62.35,-491.93C73.64,-458.83 100.41,-394 146,-359.5 147.86,-358.09 149.8,-356.76 151.8,-355.52"/>
<polygon fill="#63b8ff" stroke="#63b8ff" points="153.82,-358.4 160.91,-350.52 150.46,-352.26 153.82,-358.4"/>
</a>
</g>
</g>
<!-- Node23 -->
<g id="Node000023" class="node">
<title>Node23</title>
<g id="a_Node000023"><a xlink:href="namespacem__patches.html#a2477a5e1abe26b776e376f90627ad4ac" target="_top" xlink:title="The rectangular patch is a 2D geometry that may be used, for example, in creating a solid boundary,...">
<polygon fill="white" stroke="#666666" points="304.5,-302 172.5,-302 172.5,-283 304.5,-283 304.5,-302"/>
<text text-anchor="middle" x="238.5" y="-290" font-family="Helvetica,sans-Serif" font-size="10.00">m_patches::s_rectangle</text>
</a>
</g>
</g>
<!-- Node1&#45;&gt;Node23 -->
<g id="edge25_Node000001_Node000023" class="edge">
<title>Node1&#45;&gt;Node23</title>
<g id="a_edge25_Node000001_Node000023"><a xlink:title=" ">
<path fill="none" stroke="#63b8ff" d="M58.94,-491.98C65.98,-450.86 87.75,-358.34 146,-311.5 150.98,-307.5 156.59,-304.28 162.52,-301.69"/>
<polygon fill="#63b8ff" stroke="#63b8ff" points="163.92,-304.91 172.06,-298.13 161.47,-298.35 163.92,-304.91"/>
</a>
</g>
</g>
<!-- Node24 -->
<g id="Node000024" class="node">
<title>Node24</title>
<g id="a_Node000024"><a xlink:href="namespacem__patches.html#a0a4c1431391482cd3947343d01832f94" target="_top" xlink:title="The spherical patch is a 3D geometry that may be used, for example, in creating a bubble or a droplet...">
<polygon fill="white" stroke="#666666" points="298,-228 179,-228 179,-209 298,-209 298,-228"/>
<text text-anchor="middle" x="238.5" y="-216" font-family="Helvetica,sans-Serif" font-size="10.00">m_patches::s_sphere</text>
</a>
</g>
</g>
<!-- Node1&#45;&gt;Node24 -->
<g id="edge26_Node000001_Node000024" class="edge">
<title>Node1&#45;&gt;Node24</title>
<g id="a_edge26_Node000001_Node000024"><a xlink:title=" ">
<path fill="none" stroke="#63b8ff" d="M56.16,-491.9C57.76,-440.54 69.42,-305.98 146,-237.5 152.59,-231.61 160.52,-227.36 168.92,-224.33"/>
<polygon fill="#63b8ff" stroke="#63b8ff" points="170.01,-227.66 178.56,-221.4 167.98,-220.96 170.01,-227.66"/>
</a>
</g>
</g>
<!-- Node25 -->
<g id="Node000025" class="node">
<title>Node25</title>
<g id="a_Node000025"><a xlink:href="namespacem__patches.html#a36be577575b5c54d581467162eef12ab" target="_top" xlink:title="This patch generates the shape of the spherical harmonics as a perturbation to a perfect sphere.">
<polygon fill="white" stroke="#666666" points="304,-190.5 173,-190.5 173,-160.5 304,-160.5 304,-190.5"/>
<text text-anchor="start" x="181" y="-178.5" font-family="Helvetica,sans-Serif" font-size="10.00">m_patches::s_spherical</text>
<text text-anchor="middle" x="238.5" y="-167.5" font-family="Helvetica,sans-Serif" font-size="10.00">_harmonic</text>
</a>
</g>
</g>
<!-- Node1&#45;&gt;Node25 -->
<g id="edge28_Node000001_Node000025" class="edge">
<title>Node1&#45;&gt;Node25</title>
<g id="a_edge28_Node000001_Node000025"><a xlink:title=" ">
<path fill="none" stroke="#63b8ff" d="M55.5,-491.99C55.31,-436.6 62.7,-282.63 146,-200.5 151.04,-195.53 156.97,-191.52 163.35,-188.3"/>
<polygon fill="#63b8ff" stroke="#63b8ff" points="165.19,-191.31 172.96,-184.11 162.4,-184.89 165.19,-191.31"/>
</a>
</g>
</g>
<!-- Node27 -->
<g id="Node000027" class="node">
<title>Node27</title>
<g id="a_Node000027"><a xlink:href="namespacem__patches.html#af9b0318710825d616d4d03361fd4d88b" target="_top" xlink:title="The spiral patch is a 2D geometry that may be used, The geometry of the patch is well&#45;defined when it...">
<polygon fill="white" stroke="#666666" points="295,-142 182,-142 182,-123 295,-123 295,-142"/>
<text text-anchor="middle" x="238.5" y="-130" font-family="Helvetica,sans-Serif" font-size="10.00">m_patches::s_spiral</text>
</a>
</g>
</g>
<!-- Node1&#45;&gt;Node27 -->
<g id="edge31_Node000001_Node000027" class="edge">
<title>Node1&#45;&gt;Node27</title>
<g id="a_edge31_Node000001_Node000027"><a xlink:title=" ">
<path fill="none" stroke="#63b8ff" d="M58.28,-491.87C66.35,-422.57 95.82,-199.73 146,-151.5 153.28,-144.5 162.43,-139.78 172.11,-136.65"/>
<polygon fill="#63b8ff" stroke="#63b8ff" points="173.17,-139.99 181.92,-134.02 171.35,-133.23 173.17,-139.99"/>
</a>
</g>
</g>
<!-- Node29 -->
<g id="Node000029" class="node">
<title>Node29</title>
<g id="a_Node000029"><a xlink:href="namespacem__initial__condition.html#a50f37d0c816501ebcd2908e17e7afde5" target="_top" xlink:title="This subroutine computes velocity perturbations for a temporal mixing &#160;&#160;layer with hypertangent mean ...">
<polygon fill="white" stroke="#666666" points="331,-67.5 146,-67.5 146,-37.5 331,-37.5 331,-67.5"/>
<text text-anchor="start" x="154" y="-55.5" font-family="Helvetica,sans-Serif" font-size="10.00">m_initial_condition</text>
<text text-anchor="middle" x="238.5" y="-44.5" font-family="Helvetica,sans-Serif" font-size="10.00">::s_superposition_instability_wave</text>
</a>
</g>
</g>
<!-- Node1&#45;&gt;Node29 -->
<g id="edge34_Node000001_Node000029" class="edge">
<title>Node1&#45;&gt;Node29</title>
<g id="a_edge34_Node000001_Node000029"><a xlink:title=" ">
<path fill="none" stroke="#63b8ff" d="M57.43,-491.93C63.25,-413.96 87.69,-137.98 146,-76.5 146.79,-75.67 147.61,-74.86 148.45,-74.08"/>
<polygon fill="#63b8ff" stroke="#63b8ff" points="150.83,-76.66 156.57,-67.76 146.53,-71.14 150.83,-76.66"/>
</a>
</g>
</g>
<!-- Node32 -->
<g id="Node000032" class="node">
<title>Node32</title>
<g id="a_Node000032"><a xlink:href="namespacem__patches.html#a33b9e3cf733ea5ed19cd9c1e26023fdb" target="_top" xlink:title="The swept line patch is a 2D geometry that may be used, for example, in creating a solid boundary,...">
<polygon fill="white" stroke="#666666" points="309,-105 168,-105 168,-86 309,-86 309,-105"/>
<text text-anchor="middle" x="238.5" y="-93" font-family="Helvetica,sans-Serif" font-size="10.00">m_patches::s_sweep_line</text>
</a>
</g>
</g>
<!-- Node1&#45;&gt;Node32 -->
<g id="edge37_Node000001_Node000032" class="edge">
<title>Node1&#45;&gt;Node32</title>
<g id="a_edge37_Node000001_Node000032"><a xlink:title=" ">
<path fill="none" stroke="#63b8ff" d="M57.77,-491.87C64.51,-418.03 91.05,-168.49 146,-114.5 149.74,-110.83 153.99,-107.78 158.56,-105.26"/>
<polygon fill="#63b8ff" stroke="#63b8ff" points="160.11,-108.4 167.71,-101.03 157.17,-102.05 160.11,-108.4"/>
</a>
</g>
</g>
<!-- Node33 -->
<g id="Node000033" class="node">
<title>Node33</title>
<g id="a_Node000033"><a xlink:href="namespacem__patches.html#a216bbe41add1a4d8f4d316eaef75b6a1" target="_top" xlink:title="The swept plane patch is a 3D geometry that may be used, for example, in creating a solid boundary,...">
<polygon fill="white" stroke="#666666" points="297.5,-644.5 179.5,-644.5 179.5,-614.5 297.5,-614.5 297.5,-644.5"/>
<text text-anchor="start" x="187.5" y="-632.5" font-family="Helvetica,sans-Serif" font-size="10.00">m_patches::s_sweep</text>
<text text-anchor="middle" x="238.5" y="-621.5" font-family="Helvetica,sans-Serif" font-size="10.00">_plane</text>
</a>
</g>
</g>
<!-- Node1&#45;&gt;Node33 -->
<g id="edge38_Node000001_Node000033" class="edge">
<title>Node1&#45;&gt;Node33</title>
<g id="a_edge38_Node000001_Node000033"><a xlink:title=" ">
<path fill="none" stroke="#63b8ff" d="M70.49,-533.08C86.54,-554.36 114.39,-587.01 146,-605.5 153.34,-609.79 161.45,-613.33 169.72,-616.24"/>
<polygon fill="#63b8ff" stroke="#63b8ff" points="168.87,-619.64 179.46,-619.38 171.02,-612.98 168.87,-619.64"/>
</a>
</g>
</g>
<!-- Node34 -->
<g id="Node000034" class="node">
<title>Node34</title>
<g id="a_Node000034"><a xlink:href="namespacem__patches.html#a6dbf82573766e0711b3551d8b74fcd81" target="_top" xlink:title="The varcircle patch is a 2D geometry that may be used . It generatres an annulus.">
<polygon fill="white" stroke="#666666" points="302.5,-19 174.5,-19 174.5,0 302.5,0 302.5,-19"/>
<text text-anchor="middle" x="238.5" y="-7" font-family="Helvetica,sans-Serif" font-size="10.00">m_patches::s_varcircle</text>
</a>
</g>
</g>
<!-- Node1&#45;&gt;Node34 -->
<g id="edge40_Node000001_Node000034" class="edge">
<title>Node1&#45;&gt;Node34</title>
<g id="a_edge40_Node000001_Node000034"><a xlink:title=" ">
<path fill="none" stroke="#63b8ff" d="M56.87,-491.9C60.82,-408.36 79.85,-96.05 146,-28.5 151.31,-23.08 157.73,-19.01 164.68,-15.97"/>
<polygon fill="#63b8ff" stroke="#63b8ff" points="166.22,-19.13 174.43,-12.44 163.83,-12.55 166.22,-19.13"/>
</a>
</g>
</g>
<!-- Node7 -->
<g id="Node000007" class="node">
<title>Node7</title>
<g id="a_Node000007"><a xlink:href="namespacem__patches.html#aae6a1ff489da8002462c8dd57727782f" target="_top" xlink:title=" ">
<polygon fill="white" stroke="#666666" points="540,-527.5 370,-527.5 370,-497.5 540,-497.5 540,-527.5"/>
<text text-anchor="start" x="378" y="-515.5" font-family="Helvetica,sans-Serif" font-size="10.00">m_patches::s_convert</text>
<text text-anchor="middle" x="455" y="-504.5" font-family="Helvetica,sans-Serif" font-size="10.00">_cylindrical_to_cartesian_coord</text>
</a>
</g>
</g>
<!-- Node6&#45;&gt;Node7 -->
<g id="edge6_Node000006_Node000007" class="edge">
<title>Node6&#45;&gt;Node7</title>
<g id="a_edge6_Node000006_Node000007"><a xlink:title=" ">
<path fill="none" stroke="#63b8ff" d="M314.56,-722.22C320.38,-719.88 325.95,-717.01 331,-713.5 394.6,-669.25 431.41,-580.47 446.27,-537.26"/>
<polygon fill="#63b8ff" stroke="#63b8ff" points="449.66,-538.14 449.5,-527.55 443.02,-535.93 449.66,-538.14"/>
</a>
</g>
</g>
<!-- Node11 -->
<g id="Node000011" class="node">
<title>Node11</title>
<g id="a_Node000011"><a xlink:href="namespacem__variables__conversion.html#a1be52cb9db2d49f8f256b226d72b8d4c" target="_top" xlink:title="This procedure conditionally calculates the appropriate pressure.">
<polygon fill="white" stroke="#666666" points="522.5,-868.5 387.5,-868.5 387.5,-838.5 522.5,-838.5 522.5,-868.5"/>
<text text-anchor="start" x="395.5" y="-856.5" font-family="Helvetica,sans-Serif" font-size="10.00">m_variables_conversion</text>
<text text-anchor="middle" x="455" y="-845.5" font-family="Helvetica,sans-Serif" font-size="10.00">::s_compute_pressure</text>
</a>
</g>
</g>
<!-- Node10&#45;&gt;Node11 -->
<g id="edge10_Node000010_Node000011" class="edge">
<title>Node10&#45;&gt;Node11</title>
<g id="a_edge10_Node000010_Node000011"><a xlink:title=" ">
<path fill="none" stroke="#63b8ff" d="M307.66,-853.5C329.79,-853.5 354.49,-853.5 377.2,-853.5"/>
<polygon fill="#63b8ff" stroke="#63b8ff" points="377.48,-857 387.48,-853.5 377.48,-850 377.48,-857"/>
</a>
</g>
</g>
<!-- Node12 -->
<g id="Node000012" class="node">
<title>Node12</title>
<g id="a_Node000012"><a xlink:href="namespacem__variables__conversion.html#a0e52444cc72f2fd0ea3a6d3543cfa32e" target="_top" xlink:title=" ">
<polygon fill="white" stroke="#666666" points="522.5,-820 387.5,-820 387.5,-779 522.5,-779 522.5,-820"/>
<text text-anchor="start" x="395.5" y="-808" font-family="Helvetica,sans-Serif" font-size="10.00">m_variables_conversion</text>
<text text-anchor="start" x="395.5" y="-797" font-family="Helvetica,sans-Serif" font-size="10.00">::s_convert_species_to</text>
<text text-anchor="middle" x="455" y="-786" font-family="Helvetica,sans-Serif" font-size="10.00">_mixture_variables_acc</text>
</a>
</g>
</g>
<!-- Node10&#45;&gt;Node12 -->
<g id="edge11_Node000010_Node000012" class="edge">
<title>Node10&#45;&gt;Node12</title>
<g id="a_edge11_Node000010_Node000012"><a xlink:title=" ">
<path fill="none" stroke="#63b8ff" d="M307.66,-836.34C329.89,-830.74 354.71,-824.5 377.51,-818.76"/>
<polygon fill="#63b8ff" stroke="#63b8ff" points="378.64,-822.08 387.48,-816.25 376.93,-815.29 378.64,-822.08"/>
</a>
</g>
</g>
<!-- Node13 -->
<g id="Node000013" class="node">
<title>Node13</title>
<g id="a_Node000013"><a xlink:href="namespacem__variables__conversion.html#a8c5b7c732af2020216749229776452c3" target="_top" xlink:title=" ">
<polygon fill="white" stroke="#666666" points="543,-928 367,-928 367,-887 543,-887 543,-928"/>
<text text-anchor="start" x="375" y="-916" font-family="Helvetica,sans-Serif" font-size="10.00">m_variables_conversion</text>
<text text-anchor="start" x="375" y="-905" font-family="Helvetica,sans-Serif" font-size="10.00">::s_convert_species_to</text>
<text text-anchor="middle" x="455" y="-894" font-family="Helvetica,sans-Serif" font-size="10.00">_mixture_variables_bubbles_acc</text>
</a>
</g>
</g>
<!-- Node10&#45;&gt;Node13 -->
<g id="edge12_Node000010_Node000013" class="edge">
<title>Node10&#45;&gt;Node13</title>
<g id="a_edge12_Node000010_Node000013"><a xlink:title=" ">
<path fill="none" stroke="#63b8ff" d="M307.66,-870.66C325.13,-875.06 344.21,-879.86 362.64,-884.5"/>
<polygon fill="#63b8ff" stroke="#63b8ff" points="361.95,-887.94 372.5,-886.98 363.66,-881.15 361.95,-887.94"/>
</a>
</g>
</g>
<!-- Node15&#45;&gt;Node7 -->
<g id="edge15_Node000015_Node000007" class="edge">
<title>Node15&#45;&gt;Node7</title>
<g id="a_edge15_Node000015_Node000007"><a xlink:title=" ">
<path fill="none" stroke="#63b8ff" d="M298.1,-577.08C309.15,-574.71 320.52,-571.87 331,-568.5 360.78,-558.94 392.9,-544.15 416.84,-532.17"/>
<polygon fill="#63b8ff" stroke="#63b8ff" points="418.59,-535.21 425.92,-527.57 415.42,-528.97 418.59,-535.21"/>
</a>
</g>
</g>
<!-- Node16&#45;&gt;Node7 -->
<g id="edge17_Node000016_Node000007" class="edge">
<title>Node16&#45;&gt;Node7</title>
<g id="a_edge17_Node000016_Node000007"><a xlink:title=" ">
<path fill="none" stroke="#63b8ff" d="M301.25,-512.5C319.57,-512.5 340.06,-512.5 359.94,-512.5"/>
<polygon fill="#63b8ff" stroke="#63b8ff" points="359.95,-516 369.95,-512.5 359.95,-509 359.95,-516"/>
</a>
</g>
</g>
<!-- Node18&#45;&gt;Node7 -->
<g id="edge20_Node000018_Node000007" class="edge">
<title>Node18&#45;&gt;Node7</title>
<g id="a_edge20_Node000018_Node000007"><a xlink:title=" ">
<path fill="none" stroke="#63b8ff" d="M302.75,-260.94C312.88,-263.9 322.73,-268.22 331,-274.5 403.14,-329.25 436.7,-438.4 448.63,-487.52"/>
<polygon fill="#63b8ff" stroke="#63b8ff" points="445.24,-488.38 450.91,-497.32 452.05,-486.79 445.24,-488.38"/>
</a>
</g>
</g>
<!-- Node24&#45;&gt;Node7 -->
<g id="edge27_Node000024_Node000007" class="edge">
<title>Node24&#45;&gt;Node7</title>
<g id="a_edge27_Node000024_Node000007"><a xlink:title=" ">
<path fill="none" stroke="#63b8ff" d="M298.3,-222.24C310.05,-225.21 321.65,-229.97 331,-237.5 412.01,-302.68 441.38,-432.47 450.46,-487.21"/>
<polygon fill="#63b8ff" stroke="#63b8ff" points="447.05,-488.07 452.05,-497.41 453.96,-486.99 447.05,-488.07"/>
</a>
</g>
</g>
<!-- Node25&#45;&gt;Node7 -->
<g id="edge29_Node000025_Node000007" class="edge">
<title>Node25&#45;&gt;Node7</title>
<g id="a_edge29_Node000025_Node000007"><a xlink:title=" ">
<path fill="none" stroke="#63b8ff" d="M304.4,-185.07C314.11,-188.7 323.4,-193.68 331,-200.5 418.74,-279.18 444.63,-428.48 451.62,-487.54"/>
<polygon fill="#63b8ff" stroke="#63b8ff" points="448.14,-487.93 452.72,-497.49 455.1,-487.16 448.14,-487.93"/>
</a>
</g>
</g>
<!-- Node26 -->
<g id="Node000026" class="node">
<title>Node26</title>
<g id="a_Node000026"><a xlink:href="namespacem__patches.html#a02315a55f5a44491a9743cfe648514fe" target="_top" xlink:title=" ">
<polygon fill="white" stroke="#666666" points="539.5,-199.5 370.5,-199.5 370.5,-169.5 539.5,-169.5 539.5,-199.5"/>
<text text-anchor="start" x="378.5" y="-187.5" font-family="Helvetica,sans-Serif" font-size="10.00">m_patches::s_convert</text>
<text text-anchor="middle" x="455" y="-176.5" font-family="Helvetica,sans-Serif" font-size="10.00">_cylindrical_to_spherical_coord</text>
</a>
</g>
</g>
<!-- Node25&#45;&gt;Node26 -->
<g id="edge30_Node000025_Node000026" class="edge">
<title>Node25&#45;&gt;Node26</title>
<g id="a_edge30_Node000025_Node000026"><a xlink:title=" ">
<path fill="none" stroke="#63b8ff" d="M304.15,-178.21C321.82,-178.95 341.33,-179.77 360.27,-180.57"/>
<polygon fill="#63b8ff" stroke="#63b8ff" points="360.28,-184.07 370.42,-180.99 360.57,-177.08 360.28,-184.07"/>
</a>
</g>
</g>
<!-- Node28 -->
<g id="Node000028" class="node">
<title>Node28</title>
<g id="a_Node000028"><a xlink:href="namespacem__patches.html#a38e8db0da64a4a5afd83bda4dc990f0c" target="_top" xlink:title="Archimedes spiral function.">
<polygon fill="white" stroke="#666666" points="499.5,-133 410.5,-133 410.5,-114 499.5,-114 499.5,-133"/>
<text text-anchor="middle" x="455" y="-121" font-family="Helvetica,sans-Serif" font-size="10.00">m_patches::f_r</text>
</a>
</g>
</g>
<!-- Node27&#45;&gt;Node28 -->
<g id="edge32_Node000027_Node000028" class="edge">
<title>Node27&#45;&gt;Node28</title>
<g id="a_edge32_Node000027_Node000028"><a xlink:title=" ">
<path fill="none" stroke="#63b8ff" d="M295.02,-130.17C327.39,-128.81 368.03,-127.11 400.11,-125.76"/>
<polygon fill="#63b8ff" stroke="#63b8ff" points="400.37,-129.25 410.21,-125.34 400.07,-122.26 400.37,-129.25"/>
</a>
</g>
</g>
<!-- Node28&#45;&gt;Node28 -->
<g id="edge33_Node000028_Node000028" class="edge">
<title>Node28&#45;&gt;Node28</title>
<g id="a_edge33_Node000028_Node000028"><a xlink:title=" ">
<path fill="none" stroke="#63b8ff" d="M427.57,-133.08C414.22,-141.73 423.36,-151 455,-151 476.26,-151 487.36,-146.82 488.31,-141.45"/>
<polygon fill="#63b8ff" stroke="#63b8ff" points="491.05,-139.26 482.43,-133.08 485.32,-143.28 491.05,-139.26"/>
</a>
</g>
</g>
<!-- Node30 -->
<g id="Node000030" class="node">
<title>Node30</title>
<g id="a_Node000030"><a xlink:href="namespacem__initial__condition.html#a7ef3152e5d06fe9242edb0b09ae97951" target="_top" xlink:title="This subroutine computes instability waves for a given set of spatial wavenumbers (alpha,...">
<polygon fill="white" stroke="#666666" points="511.5,-67.5 398.5,-67.5 398.5,-37.5 511.5,-37.5 511.5,-67.5"/>
<text text-anchor="start" x="406.5" y="-55.5" font-family="Helvetica,sans-Serif" font-size="10.00">m_initial_condition</text>
<text text-anchor="middle" x="455" y="-44.5" font-family="Helvetica,sans-Serif" font-size="10.00">::s_instability_wave</text>
</a>
</g>
</g>
<!-- Node29&#45;&gt;Node30 -->
<g id="edge35_Node000029_Node000030" class="edge">
<title>Node29&#45;&gt;Node30</title>
<g id="a_edge35_Node000029_Node000030"><a xlink:title=" ">
<path fill="none" stroke="#63b8ff" d="M331.09,-52.5C350.31,-52.5 370.22,-52.5 388.27,-52.5"/>
<polygon fill="#63b8ff" stroke="#63b8ff" points="388.38,-56 398.38,-52.5 388.38,-49 388.38,-56"/>
</a>
</g>
</g>
<!-- Node31 -->
<g id="Node000031" class="node">
<title>Node31</title>
<g id="a_Node000031"><a xlink:href="namespacem__initial__condition.html#a5ec73f4130ceb7893efddc863874e951" target="_top" xlink:title="This subroutine generates an instability wave using the most unstable eigenvalue and corresponding ei...">
<polygon fill="white" stroke="#666666" points="689,-67.5 579,-67.5 579,-37.5 689,-37.5 689,-67.5"/>
<text text-anchor="start" x="587" y="-55.5" font-family="Helvetica,sans-Serif" font-size="10.00">m_initial_condition</text>
<text text-anchor="middle" x="634" y="-44.5" font-family="Helvetica,sans-Serif" font-size="10.00">::s_generate_wave</text>
</a>
</g>
</g>
<!-- Node30&#45;&gt;Node31 -->
<g id="edge36_Node000030_Node000031" class="edge">
<title>Node30&#45;&gt;Node31</title>
<g id="a_edge36_Node000030_Node000031"><a xlink:title=" ">
<path fill="none" stroke="#63b8ff" d="M511.52,-52.5C529.65,-52.5 549.94,-52.5 568.67,-52.5"/>
<polygon fill="#63b8ff" stroke="#63b8ff" points="568.89,-56 578.89,-52.5 568.89,-49 568.89,-56"/>
</a>
</g>
</g>
<!-- Node33&#45;&gt;Node7 -->
<g id="edge39_Node000033_Node000007" class="edge">
<title>Node33&#45;&gt;Node7</title>
<g id="a_edge39_Node000033_Node000007"><a xlink:title=" ">
<path fill="none" stroke="#63b8ff" d="M297.84,-617.85C309.13,-614.59 320.66,-610.52 331,-605.5 369.13,-586.99 407.15,-555.8 430.6,-534.7"/>
<polygon fill="#63b8ff" stroke="#63b8ff" points="433.25,-537.02 438.27,-527.69 428.52,-531.85 433.25,-537.02"/>
</a>
</g>
</g>
</g>
</svg>

<g id="navigator" transform="translate(0 0)" fill="#404254">
  <rect fill="#f2f5e9" fill-opacity="0.5" stroke="#606060" stroke-width=".5" x="0" y="0" width="60" height="60"/>
  <use id="zoomplus" xlink:href="#zoomPlus" x="17" y="9" onmousedown="handleZoom(evt,'in')"/>
  <use id="zoomminus" xlink:href="#zoomMin" x="42" y="9" onmousedown="handleZoom(evt,'out')"/>
  <use id="reset" xlink:href="#resetDef" x="30" y="36" onmousedown="handleReset()"/>
   <use id="arrowup" xlink:href="#arrowUp" x="0" y="0" onmousedown="handlePan(0,-1)"/>
  <use id="arrowright" xlink:href="#arrowRight" x="0" y="0" onmousedown="handlePan(1,0)"/>
  <use id="arrowdown" xlink:href="#arrowDown" x="0" y="0" onmousedown="handlePan(0,1)"/>
  <use id="arrowleft" xlink:href="#arrowLeft" x="0" y="0" onmousedown="handlePan(-1,0)"/>
</g>
<svg viewBox="0 0 15 15" width="100%" height="30px" preserveAspectRatio="xMaxYMin meet">
 <g id="arrow_out" transform="scale(0.3 0.3)">
  <a xlink:href="namespacem__initial__condition_aa74a70029e3ec0fd3225b369e7c5443e_cgraph_org.svg" target="_base">
   <rect id="button" ry="5" rx="5" y="6" x="6" height="38" width="38"
        fill="#f2f5e9" fill-opacity="0.5" stroke="#606060" stroke-width="1.0"/>
   <path id="arrow"
     d="M 11.500037,31.436501 C 11.940474,20.09759 22.043105,11.32322 32.158766,21.979434 L 37.068811,17.246167 C 37.068811,17.246167 37.088388,32 37.088388,32 L 22.160133,31.978069 C 22.160133,31.978069 26.997745,27.140456 26.997745,27.140456 C 18.528582,18.264221 13.291696,25.230495 11.500037,31.436501 z"
     style="fill:#404040;"/>
  </a>
 </g>
</svg>

<style type='text/css'>
<![CDATA[
[data-mouse-over-selected='false'] { opacity: 0.7; }
[data-mouse-over-selected='true']  { opacity: 1.0; }
]]>
</style>
<script type="application/ecmascript"><![CDATA[
document.addEventListener('DOMContentLoaded', (event) => {
  highlightEdges();
  highlightAdjacentNodes();
});
]]></script>
</svg>
