<?xml version="1.0" encoding="UTF-8" standalone="no"?>
<!DOCTYPE svg PUBLIC "-//W3C//DTD SVG 1.1//EN"
 "http://www.w3.org/Graphics/SVG/1.1/DTD/svg11.dtd">
<!-- Generated by graphviz version 2.43.0 (0)
 -->
<!-- Title: m_data_output::s_write_serial_data_files Pages: 1 -->
<svg width="462pt" height="39pt"
 viewBox="0.00 0.00 462.00 39.00" xmlns="http://www.w3.org/2000/svg" xmlns:xlink="http://www.w3.org/1999/xlink">
<g id="graph0" class="graph" transform="scale(1 1) rotate(0) translate(4 35)">
<title>m_data_output::s_write_serial_data_files</title>
<!-- Node1 -->
<g id="node1" class="node">
<title>Node1</title>
<g id="a_node1"><a xlink:title="Writes grid and initial condition data files to the &quot;0&quot; time&#45;step directory in the local processor ra...">
<polygon fill="#bfbfbf" stroke="black" points="0,-0.5 0,-30.5 131,-30.5 131,-0.5 0,-0.5"/>
<text text-anchor="start" x="8" y="-18.5" font-family="Helvetica,sans-Serif" font-size="10.00">m_data_output::s_write</text>
<text text-anchor="middle" x="65.5" y="-7.5" font-family="Helvetica,sans-Serif" font-size="10.00">_serial_data_files</text>
</a>
</g>
</g>
<!-- Node2 -->
<g id="node2" class="node">
<title>Node2</title>
<g id="a_node2"><a xlink:href="namespacem__global__parameters.html#aac1a5a73b1eae759c913983b38047167" target="_top" xlink:title="Computes the bubble number density n from the conservative variables.">
<polygon fill="none" stroke="black" points="167,-0.5 167,-30.5 295,-30.5 295,-0.5 167,-0.5"/>
<text text-anchor="start" x="175" y="-18.5" font-family="Helvetica,sans-Serif" font-size="10.00">m_global_parameters</text>
<text text-anchor="middle" x="231" y="-7.5" font-family="Helvetica,sans-Serif" font-size="10.00">::s_comp_n_from_cons</text>
</a>
</g>
</g>
<!-- Node1&#45;&gt;Node2 -->
<g id="edge1" class="edge">
<title>Node1&#45;&gt;Node2</title>
<path fill="none" stroke="midnightblue" d="M131.12,-15.5C139.59,-15.5 148.31,-15.5 156.91,-15.5"/>
<polygon fill="midnightblue" stroke="midnightblue" points="156.92,-19 166.92,-15.5 156.92,-12 156.92,-19"/>
</g>
<!-- Node3 -->
<g id="node3" class="node">
<title>Node3</title>
<g id="a_node3"><a xlink:href="namespacem__global__parameters.html#aa5a48fa9cc196136634022cfa6708213" target="_top" xlink:title="Computes the quadrature for polydisperse bubble populations.">
<polygon fill="none" stroke="black" points="331,-0.5 331,-30.5 454,-30.5 454,-0.5 331,-0.5"/>
<text text-anchor="start" x="339" y="-18.5" font-family="Helvetica,sans-Serif" font-size="10.00">m_global_parameters</text>
<text text-anchor="middle" x="392.5" y="-7.5" font-family="Helvetica,sans-Serif" font-size="10.00">::s_quad</text>
</a>
</g>
</g>
<!-- Node2&#45;&gt;Node3 -->
<g id="edge2" class="edge">
<title>Node2&#45;&gt;Node3</title>
<path fill="none" stroke="midnightblue" d="M295.04,-15.5C303.4,-15.5 312.01,-15.5 320.49,-15.5"/>
<polygon fill="midnightblue" stroke="midnightblue" points="320.74,-19 330.74,-15.5 320.74,-12 320.74,-19"/>
</g>
</g>
</svg>
