<?xml version="1.0" encoding="UTF-8" standalone="no"?>
<!DOCTYPE svg PUBLIC "-//W3C//DTD SVG 1.1//EN"
 "http://www.w3.org/Graphics/SVG/1.1/DTD/svg11.dtd">
<!-- Generated by graphviz version 2.43.0 (0)
 -->
<!-- Title: m_grid::s_initialize_grid_module Pages: 1 -->
<svg width="263pt" height="86pt"
 viewBox="0.00 0.00 263.00 86.00" xmlns="http://www.w3.org/2000/svg" xmlns:xlink="http://www.w3.org/1999/xlink">
<g id="graph0" class="graph" transform="scale(1 1) rotate(0) translate(4 82)">
<title>m_grid::s_initialize_grid_module</title>
<!-- Node1 -->
<g id="node1" class="node">
<title>Node1</title>
<g id="a_node1"><a xlink:title="Computation of parameters, allocation procedures, and/or any other tasks needed to properly setup the...">
<polygon fill="#999999" stroke="#666666" points="109,-54 0,-54 0,-24 109,-24 109,-54"/>
<text text-anchor="start" x="8" y="-42" font-family="Helvetica,sans-Serif" font-size="10.00">m_grid::s_initialize</text>
<text text-anchor="middle" x="54.5" y="-31" font-family="Helvetica,sans-Serif" font-size="10.00">_grid_module</text>
</a>
</g>
</g>
<!-- Node2 -->
<g id="node2" class="node">
<title>Node2</title>
<g id="a_node2"><a xlink:href="namespacem__grid.html#abcc7c446abd0c768e42b2a2f7323a2d7" target="_top" xlink:title="The following subroutine generates either a uniform or non&#45;uniform rectilinear grid in parallel,...">
<polygon fill="white" stroke="#666666" points="255,-78 145,-78 145,-48 255,-48 255,-78"/>
<text text-anchor="start" x="153" y="-66" font-family="Helvetica,sans-Serif" font-size="10.00">m_grid::s_generate</text>
<text text-anchor="middle" x="200" y="-55" font-family="Helvetica,sans-Serif" font-size="10.00">_parallel_grid</text>
</a>
</g>
</g>
<!-- Node1&#45;&gt;Node2 -->
<g id="edge1" class="edge">
<title>Node1&#45;&gt;Node2</title>
<path fill="none" stroke="#63b8ff" d="M109.34,-48C117.69,-49.4 126.38,-50.85 134.92,-52.28"/>
<polygon fill="#63b8ff" stroke="#63b8ff" points="134.42,-55.75 144.86,-53.94 135.57,-48.84 134.42,-55.75"/>
</g>
<!-- Node3 -->
<g id="node3" class="node">
<title>Node3</title>
<g id="a_node3"><a xlink:href="namespacem__grid.html#a7c0d1c6fcecd2759774be2b3786a6b50" target="_top" xlink:title="The following subroutine generates either a uniform or non&#45;uniform rectilinear grid in serial,...">
<polygon fill="white" stroke="#666666" points="255,-30 145,-30 145,0 255,0 255,-30"/>
<text text-anchor="start" x="153" y="-18" font-family="Helvetica,sans-Serif" font-size="10.00">m_grid::s_generate</text>
<text text-anchor="middle" x="200" y="-7" font-family="Helvetica,sans-Serif" font-size="10.00">_serial_grid</text>
</a>
</g>
</g>
<!-- Node1&#45;&gt;Node3 -->
<g id="edge2" class="edge">
<title>Node1&#45;&gt;Node3</title>
<path fill="none" stroke="#63b8ff" d="M109.34,-30C117.69,-28.6 126.38,-27.15 134.92,-25.72"/>
<polygon fill="#63b8ff" stroke="#63b8ff" points="135.57,-29.16 144.86,-24.06 134.42,-22.25 135.57,-29.16"/>
</g>
</g>
</svg>
