<?xml version="1.0" encoding="UTF-8" standalone="no"?>
<!DOCTYPE svg PUBLIC "-//W3C//DTD SVG 1.1//EN"
 "http://www.w3.org/Graphics/SVG/1.1/DTD/svg11.dtd">
<!-- Generated by graphviz version 2.43.0 (0)
 -->
<!-- Title: p_main Pages: 1 -->
<svg width="413pt" height="333pt"
 viewBox="0.00 0.00 413.00 332.94" xmlns="http://www.w3.org/2000/svg" xmlns:xlink="http://www.w3.org/1999/xlink">
<g id="graph0" class="graph" transform="scale(1 1) rotate(0) translate(4 328.94)">
<title>p_main</title>
<!-- Node1 -->
<g id="node1" class="node">
<title>Node1</title>
<g id="a_node1"><a xlink:title="This program takes care of setting up the initial condition and grid data for the multicomponent flow...">
<polygon fill="#999999" stroke="#666666" points="53,-163.44 0,-163.44 0,-144.44 53,-144.44 53,-163.44"/>
<text text-anchor="middle" x="26.5" y="-151.44" font-family="Helvetica,sans-Serif" font-size="10.00">p_main</text>
</a>
</g>
</g>
<!-- Node2 -->
<g id="node2" class="node">
<title>Node2</title>
<g id="a_node2"><a xlink:href="namespacem__data__output.html#a02f2b04a434c1f0ebf9156147d0f976e" target="_top" xlink:title="Resets s_write_data_files pointer.">
<polygon fill="white" stroke="#666666" points="234.5,-324.94 92.5,-324.94 92.5,-294.94 234.5,-294.94 234.5,-324.94"/>
<text text-anchor="start" x="100.5" y="-312.94" font-family="Helvetica,sans-Serif" font-size="10.00">m_data_output::s_finalize</text>
<text text-anchor="middle" x="163.5" y="-301.94" font-family="Helvetica,sans-Serif" font-size="10.00">_data_output_module</text>
</a>
</g>
</g>
<!-- Node1&#45;&gt;Node2 -->
<g id="edge1" class="edge">
<title>Node1&#45;&gt;Node2</title>
<path fill="none" stroke="#63b8ff" d="M29.23,-163.47C34.11,-187.59 50.21,-251.56 89,-285.94 90.35,-287.13 91.75,-288.26 93.21,-289.34"/>
<polygon fill="#63b8ff" stroke="#63b8ff" points="91.72,-292.54 102.04,-294.92 95.46,-286.62 91.72,-292.54"/>
</g>
<!-- Node3 -->
<g id="node3" class="node">
<title>Node3</title>
<g id="a_node3"><a xlink:href="namespacem__grid.html#a128e8c4d55df21039d945edda39205aa" target="_top" xlink:title="Deallocation procedures for the module.">
<polygon fill="white" stroke="#666666" points="214.5,-276.94 112.5,-276.94 112.5,-246.94 214.5,-246.94 214.5,-276.94"/>
<text text-anchor="start" x="120.5" y="-264.94" font-family="Helvetica,sans-Serif" font-size="10.00">m_grid::s_finalize</text>
<text text-anchor="middle" x="163.5" y="-253.94" font-family="Helvetica,sans-Serif" font-size="10.00">_grid_module</text>
</a>
</g>
</g>
<!-- Node1&#45;&gt;Node3 -->
<g id="edge2" class="edge">
<title>Node1&#45;&gt;Node3</title>
<path fill="none" stroke="#63b8ff" d="M32.68,-163.55C41.94,-179.93 62.84,-213.35 89,-232.94 93.71,-236.46 98.91,-239.62 104.3,-242.44"/>
<polygon fill="#63b8ff" stroke="#63b8ff" points="102.97,-245.68 113.5,-246.86 106,-239.37 102.97,-245.68"/>
</g>
<!-- Node4 -->
<g id="node4" class="node">
<title>Node4</title>
<g id="a_node4"><a xlink:href="namespacem__grid.html#abcc7c446abd0c768e42b2a2f7323a2d7" target="_top" xlink:title="The following subroutine generates either a uniform or non&#45;uniform rectilinear grid in parallel,...">
<polygon fill="white" stroke="#666666" points="394.5,-218.94 284.5,-218.94 284.5,-188.94 394.5,-188.94 394.5,-218.94"/>
<text text-anchor="start" x="292.5" y="-206.94" font-family="Helvetica,sans-Serif" font-size="10.00">m_grid::s_generate</text>
<text text-anchor="middle" x="339.5" y="-195.94" font-family="Helvetica,sans-Serif" font-size="10.00">_parallel_grid</text>
</a>
</g>
</g>
<!-- Node1&#45;&gt;Node4 -->
<g id="edge3" class="edge">
<title>Node1&#45;&gt;Node4</title>
<path fill="none" stroke="#63b8ff" d="M36.4,-163.54C47.47,-174.73 67.55,-192.61 89,-199.94 149.34,-220.54 222.77,-218.78 274.3,-213.55"/>
<polygon fill="#63b8ff" stroke="#63b8ff" points="274.73,-217.02 284.3,-212.47 273.98,-210.07 274.73,-217.02"/>
</g>
<!-- Node5 -->
<g id="node5" class="node">
<title>Node5</title>
<g id="a_node5"><a xlink:href="namespacem__grid.html#a7c0d1c6fcecd2759774be2b3786a6b50" target="_top" xlink:title="The following subroutine generates either a uniform or non&#45;uniform rectilinear grid in serial,...">
<polygon fill="white" stroke="#666666" points="394.5,-155.94 284.5,-155.94 284.5,-125.94 394.5,-125.94 394.5,-155.94"/>
<text text-anchor="start" x="292.5" y="-143.94" font-family="Helvetica,sans-Serif" font-size="10.00">m_grid::s_generate</text>
<text text-anchor="middle" x="339.5" y="-132.94" font-family="Helvetica,sans-Serif" font-size="10.00">_serial_grid</text>
</a>
</g>
</g>
<!-- Node1&#45;&gt;Node5 -->
<g id="edge4" class="edge">
<title>Node1&#45;&gt;Node5</title>
<path fill="none" stroke="#63b8ff" d="M53.22,-152.86C101.25,-150.85 205.91,-146.48 274.22,-143.62"/>
<polygon fill="#63b8ff" stroke="#63b8ff" points="274.6,-147.11 284.45,-143.19 274.31,-140.12 274.6,-147.11"/>
</g>
<!-- Node6 -->
<g id="node6" class="node">
<title>Node6</title>
<g id="a_node6"><a xlink:href="namespacem__data__output.html#ab65b312ef83adb104cafafada9c998b6" target="_top" xlink:title="Computation of parameters, allocation procedures, and/or any other tasks needed to properly setup the...">
<polygon fill="white" stroke="#666666" points="238,-66.94 89,-66.94 89,-36.94 238,-36.94 238,-66.94"/>
<text text-anchor="start" x="97" y="-54.94" font-family="Helvetica,sans-Serif" font-size="10.00">m_data_output::s_initialize</text>
<text text-anchor="middle" x="163.5" y="-43.94" font-family="Helvetica,sans-Serif" font-size="10.00">_data_output_module</text>
</a>
</g>
</g>
<!-- Node1&#45;&gt;Node6 -->
<g id="edge5" class="edge">
<title>Node1&#45;&gt;Node6</title>
<path fill="none" stroke="#63b8ff" d="M33.48,-144.08C43.3,-128.66 64.24,-98.73 89,-80.94 93.85,-77.45 99.18,-74.31 104.68,-71.5"/>
<polygon fill="#63b8ff" stroke="#63b8ff" points="106.51,-74.51 114.06,-67.07 103.52,-68.18 106.51,-74.51"/>
</g>
<!-- Node7 -->
<g id="node7" class="node">
<title>Node7</title>
<g id="a_node7"><a xlink:href="namespacem__data__output.html#a12a171700eb3f8a63d17c01a0033cf39" target="_top" xlink:title="Writes grid and initial condition data files in parallel to the &quot;0&quot; time&#45;step directory in the local ...">
<polygon fill="white" stroke="#666666" points="405,-100.94 274,-100.94 274,-70.94 405,-70.94 405,-100.94"/>
<text text-anchor="start" x="282" y="-88.94" font-family="Helvetica,sans-Serif" font-size="10.00">m_data_output::s_write</text>
<text text-anchor="middle" x="339.5" y="-77.94" font-family="Helvetica,sans-Serif" font-size="10.00">_parallel_data_files</text>
</a>
</g>
</g>
<!-- Node1&#45;&gt;Node7 -->
<g id="edge11" class="edge">
<title>Node1&#45;&gt;Node7</title>
<path fill="none" stroke="#63b8ff" d="M53.22,-148.31C98.92,-138.32 195.89,-117.12 264.04,-102.22"/>
<polygon fill="#63b8ff" stroke="#63b8ff" points="264.86,-105.62 273.88,-100.06 263.36,-98.78 264.86,-105.62"/>
</g>
<!-- Node8 -->
<g id="node8" class="node">
<title>Node8</title>
<g id="a_node8"><a xlink:href="namespacem__data__output.html#abaf86e34cd05a2227a23bcef0671a391" target="_top" xlink:title="Writes grid and initial condition data files to the &quot;0&quot; time&#45;step directory in the local processor ra...">
<polygon fill="white" stroke="#666666" points="405,-38.94 274,-38.94 274,-8.94 405,-8.94 405,-38.94"/>
<text text-anchor="start" x="282" y="-26.94" font-family="Helvetica,sans-Serif" font-size="10.00">m_data_output::s_write</text>
<text text-anchor="middle" x="339.5" y="-15.94" font-family="Helvetica,sans-Serif" font-size="10.00">_serial_data_files</text>
</a>
</g>
</g>
<!-- Node1&#45;&gt;Node8 -->
<g id="edge12" class="edge">
<title>Node1&#45;&gt;Node8</title>
<path fill="none" stroke="#63b8ff" d="M28.84,-144.11C32.79,-119.4 46.89,-54.71 89,-27.94 142.92,6.35 217.53,2.46 271.09,-7"/>
<polygon fill="#63b8ff" stroke="#63b8ff" points="270.7,-10.49 281.17,-8.89 271.99,-3.61 270.7,-10.49"/>
</g>
<!-- Node9 -->
<g id="node9" class="node">
<title>Node9</title>
<g id="a_node9"><a xlink:href="namespacem__grid.html#a08c7d18352873ceab95c10629c1ce317" target="_top" xlink:title="Computation of parameters, allocation procedures, and/or any other tasks needed to properly setup the...">
<polygon fill="white" stroke="#666666" points="218,-190.94 109,-190.94 109,-160.94 218,-160.94 218,-190.94"/>
<text text-anchor="start" x="117" y="-178.94" font-family="Helvetica,sans-Serif" font-size="10.00">m_grid::s_initialize</text>
<text text-anchor="middle" x="163.5" y="-167.94" font-family="Helvetica,sans-Serif" font-size="10.00">_grid_module</text>
</a>
</g>
</g>
<!-- Node1&#45;&gt;Node9 -->
<g id="edge8" class="edge">
<title>Node1&#45;&gt;Node9</title>
<path fill="none" stroke="#63b8ff" d="M53.21,-158.13C66.26,-160.25 82.75,-162.94 98.93,-165.58"/>
<polygon fill="#63b8ff" stroke="#63b8ff" points="98.5,-169.05 108.94,-167.21 99.63,-162.14 98.5,-169.05"/>
</g>
<!-- Node6&#45;&gt;Node7 -->
<g id="edge6" class="edge">
<title>Node6&#45;&gt;Node7</title>
<path fill="none" stroke="#63b8ff" d="M238.04,-66.3C246.57,-67.97 255.28,-69.67 263.83,-71.34"/>
<polygon fill="#63b8ff" stroke="#63b8ff" points="263.29,-74.8 273.77,-73.29 264.63,-67.93 263.29,-74.8"/>
</g>
<!-- Node6&#45;&gt;Node8 -->
<g id="edge7" class="edge">
<title>Node6&#45;&gt;Node8</title>
<path fill="none" stroke="#63b8ff" d="M238.04,-40.1C246.57,-38.73 255.28,-37.33 263.83,-35.95"/>
<polygon fill="#63b8ff" stroke="#63b8ff" points="264.45,-39.4 273.77,-34.35 263.34,-32.48 264.45,-39.4"/>
</g>
<!-- Node9&#45;&gt;Node4 -->
<g id="edge9" class="edge">
<title>Node9&#45;&gt;Node4</title>
<path fill="none" stroke="#63b8ff" d="M218.13,-184.56C235.9,-187.43 255.87,-190.64 274.36,-193.61"/>
<polygon fill="#63b8ff" stroke="#63b8ff" points="274.02,-197.1 284.45,-195.24 275.14,-190.19 274.02,-197.1"/>
</g>
<!-- Node9&#45;&gt;Node5 -->
<g id="edge10" class="edge">
<title>Node9&#45;&gt;Node5</title>
<path fill="none" stroke="#63b8ff" d="M218.13,-165.15C235.98,-161.56 256.06,-157.52 274.61,-153.79"/>
<polygon fill="#63b8ff" stroke="#63b8ff" points="275.34,-157.21 284.45,-151.81 273.96,-150.35 275.34,-157.21"/>
</g>
</g>
</svg>
