<?xml version="1.0" encoding="UTF-8" standalone="no"?>
<!DOCTYPE svg PUBLIC "-//W3C//DTD SVG 1.1//EN"
 "http://www.w3.org/Graphics/SVG/1.1/DTD/svg11.dtd">
<!-- Generated by graphviz version 2.43.0 (0)
 -->
<!-- Title: t_octree Pages: 1 -->
<svg width="166pt" height="93pt"
 viewBox="0.00 0.00 165.50 93.00" xmlns="http://www.w3.org/2000/svg" xmlns:xlink="http://www.w3.org/1999/xlink">

<svg id="main" version="1.1" xmlns="http://www.w3.org/2000/svg" xmlns:xlink="http://www.w3.org/1999/xlink" xml:space="preserve" onload="init(evt)">
<style type="text/css"><![CDATA[
.node, .edge {opacity: 0.7;}
.node.selected, .edge.selected {opacity: 1;}
.edge:hover path { stroke: red; }
.edge:hover polygon { stroke: red; fill: red; }
]]></style>
<script type="application/ecmascript" xlink:href="svg.min.js"/>
<svg id="graph" class="graph">
<g id="graph0" class="graph" transform="scale(1 1) rotate(0) translate(4 89)">
<title>t_octree</title>
<!-- Node1 -->
<g id="Node000001" class="node">
<title>Node1</title>
<g id="a_Node000001"><a xlink:title=" ">
<polygon fill="#999999" stroke="#666666" points="96.5,-19 40.5,-19 40.5,0 96.5,0 96.5,-19"/>
<text text-anchor="middle" x="68.5" y="-7" font-family="Helvetica,sans-Serif" font-size="10.00">t_octree</text>
</a>
</g>
</g>
<!-- Node1&#45;&gt;Node1 -->
<g id="edge2_Node000001_Node000001" class="edge">
<title>Node1&#45;&gt;Node1</title>
<g id="a_edge2_Node000001_Node000001"><a xlink:title=" ">
<path fill="none" stroke="#9a32cd" stroke-dasharray="5,2" d="M107.05,-14.63C111.56,-13.69 114.5,-11.98 114.5,-9.5 114.5,-5.44 106.59,-3.44 96.8,-3.5"/>
<polygon fill="#9a32cd" stroke="#9a32cd" points="106.47,-11.17 96.8,-15.5 107.06,-18.14 106.47,-11.17"/>
</a>
</g>
<text text-anchor="middle" x="136" y="-7" font-family="Helvetica,sans-Serif" font-size="10.00" fill="grey"> children</text>
</g>
<!-- Node2 -->
<g id="Node000002" class="node">
<title>Node2</title>
<g id="a_Node000002"><a xlink:href="structt__triangle.html" target="_top" xlink:title=" ">
<polygon fill="white" stroke="#666666" points="63,-85 0,-85 0,-66 63,-66 63,-85"/>
<text text-anchor="middle" x="31.5" y="-73" font-family="Helvetica,sans-Serif" font-size="10.00">t_triangle</text>
</a>
</g>
</g>
<!-- Node2&#45;&gt;Node1 -->
<g id="edge1_Node000001_Node000002" class="edge">
<title>Node2&#45;&gt;Node1</title>
<g id="a_edge1_Node000001_Node000002"><a xlink:title=" ">
<path fill="none" stroke="#9a32cd" stroke-dasharray="5,2" d="M41.59,-57.05C48.63,-44.86 57.74,-29.11 63.35,-19.41"/>
<polygon fill="#9a32cd" stroke="#9a32cd" points="38.46,-55.46 36.49,-65.87 44.53,-58.96 38.46,-55.46"/>
</a>
</g>
<text text-anchor="middle" x="60.5" y="-40" font-family="Helvetica,sans-Serif" font-size="10.00" fill="grey"> trs</text>
</g>
<!-- Node3 -->
<g id="Node000003" class="node">
<title>Node3</title>
<g id="a_Node000003"><a xlink:href="structt__bbox.html" target="_top" xlink:title=" ">
<polygon fill="white" stroke="#666666" points="131.5,-85 81.5,-85 81.5,-66 131.5,-66 131.5,-85"/>
<text text-anchor="middle" x="106.5" y="-73" font-family="Helvetica,sans-Serif" font-size="10.00">t_bbox</text>
</a>
</g>
</g>
<!-- Node3&#45;&gt;Node1 -->
<g id="edge3_Node000001_Node000003" class="edge">
<title>Node3&#45;&gt;Node1</title>
<g id="a_edge3_Node000001_Node000003"><a xlink:title=" ">
<path fill="none" stroke="#9a32cd" stroke-dasharray="5,2" d="M96.14,-57.05C88.9,-44.86 79.55,-29.11 73.79,-19.41"/>
<polygon fill="#9a32cd" stroke="#9a32cd" points="93.26,-59.06 101.38,-65.87 99.28,-55.48 93.26,-59.06"/>
</a>
</g>
<text text-anchor="middle" x="103.5" y="-40" font-family="Helvetica,sans-Serif" font-size="10.00" fill="grey"> bbox</text>
</g>
</g>
</svg>
</svg>

<style type='text/css'>
<![CDATA[
[data-mouse-over-selected='false'] { opacity: 0.7; }
[data-mouse-over-selected='true']  { opacity: 1.0; }
]]>
</style>
<script type="application/ecmascript"><![CDATA[
document.addEventListener('DOMContentLoaded', (event) => {
  highlightEdges();
  highlightAdjacentNodes();
});
]]></script>
</svg>
