<?xml version="1.0" encoding="UTF-8" standalone="no"?>
<!DOCTYPE svg PUBLIC "-//W3C//DTD SVG 1.1//EN"
 "http://www.w3.org/Graphics/SVG/1.1/DTD/svg11.dtd">
<!-- Generated by graphviz version 2.43.0 (0)
 -->
<!-- Title: f_rddot_km Pages: 1 -->
<svg width="625pt" height="138pt"
 viewBox="0.00 0.00 625.00 138.00" xmlns="http://www.w3.org/2000/svg" xmlns:xlink="http://www.w3.org/1999/xlink">
<g id="graph0" class="graph" transform="scale(1 1) rotate(0) translate(4 134)">
<title>f_rddot_km</title>
<!-- Node1 -->
<g id="Node000001" class="node">
<title>Node1</title>
<g id="a_Node000001"><a xlink:title="Function that computes the bubble radial acceleration for Keller–Miksis bubbles.">
<polygon fill="#999999" stroke="#666666" points="617,-74 545,-74 545,-55 617,-55 617,-74"/>
<text text-anchor="middle" x="581" y="-62" font-family="Helvetica,sans-Serif" font-size="10.00">f_rddot_km</text>
</a>
</g>
</g>
<!-- Node1&#45;&gt;Node1 -->
<g id="edge1_Node000001_Node000001" class="edge">
<title>Node1&#45;&gt;Node1</title>
<g id="a_edge1_Node000001_Node000001"><a xlink:title=" ">
<path fill="none" stroke="#63b8ff" d="M607.79,-83.19C606.32,-88.2 597.4,-92 581,-92 555.41,-92 548.01,-82.73 558.81,-74.08"/>
<polygon fill="#63b8ff" stroke="#63b8ff" points="610.82,-81.44 603.19,-74.08 604.57,-84.59 610.82,-81.44"/>
</a>
</g>
</g>
<!-- Node2 -->
<g id="Node000002" class="node">
<title>Node2</title>
<g id="a_Node000002"><a xlink:href="m__bubbles_8fpp_8f90.html#a13d7f514861d6b4004211c6f0bdb58fc" target="_top" xlink:title=" ">
<polygon fill="white" stroke="#666666" points="509,-74 363,-74 363,-55 509,-55 509,-74"/>
<text text-anchor="middle" x="436" y="-62" font-family="Helvetica,sans-Serif" font-size="10.00">s_compute_bubble_source</text>
</a>
</g>
</g>
<!-- Node1&#45;&gt;Node2 -->
<g id="edge2_Node000001_Node000002" class="edge">
<title>Node1&#45;&gt;Node2</title>
<g id="a_edge2_Node000001_Node000002"><a xlink:title=" ">
<path fill="none" stroke="#63b8ff" d="M534.64,-64.5C526.49,-64.5 517.81,-64.5 509.12,-64.5"/>
<polygon fill="#63b8ff" stroke="#63b8ff" points="534.65,-68 544.65,-64.5 534.65,-61 534.65,-68"/>
</a>
</g>
</g>
<!-- Node3 -->
<g id="Node000003" class="node">
<title>Node3</title>
<g id="a_Node000003"><a xlink:href="m__rhs_8fpp_8f90.html#a8522bdf311a42fe6ff7f2b433656573f" target="_top" xlink:title=" ">
<polygon fill="white" stroke="#666666" points="327,-74 237,-74 237,-55 327,-55 327,-74"/>
<text text-anchor="middle" x="282" y="-62" font-family="Helvetica,sans-Serif" font-size="10.00">s_compute_rhs</text>
</a>
</g>
</g>
<!-- Node2&#45;&gt;Node3 -->
<g id="edge3_Node000002_Node000003" class="edge">
<title>Node2&#45;&gt;Node3</title>
<g id="a_edge3_Node000002_Node000003"><a xlink:title=" ">
<path fill="none" stroke="#63b8ff" d="M352.37,-64.5C343.7,-64.5 335.16,-64.5 327.18,-64.5"/>
<polygon fill="#63b8ff" stroke="#63b8ff" points="352.56,-68 362.56,-64.5 352.56,-61 352.56,-68"/>
</a>
</g>
</g>
<!-- Node4 -->
<g id="Node000004" class="node">
<title>Node4</title>
<g id="a_Node000004"><a xlink:href="m__rhs_8fpp_8f90.html#a87616394067f1273cd06c4d299d10add" target="_top" xlink:title=" ">
<polygon fill="white" stroke="#666666" points="200,-130 90,-130 90,-111 200,-111 200,-130"/>
<text text-anchor="middle" x="145" y="-118" font-family="Helvetica,sans-Serif" font-size="10.00">__m_rhs_fpp_f90__</text>
</a>
</g>
</g>
<!-- Node3&#45;&gt;Node4 -->
<g id="edge4_Node000003_Node000004" class="edge">
<title>Node3&#45;&gt;Node4</title>
<g id="a_edge4_Node000003_Node000004"><a xlink:title=" ">
<path fill="none" stroke="#63b8ff" d="M253.2,-78.78C237.99,-86.31 218.69,-95.44 201,-102.5 193.44,-105.52 185.16,-108.43 177.37,-111"/>
<polygon fill="#63b8ff" stroke="#63b8ff" points="255.18,-81.7 262.55,-74.09 252.04,-75.44 255.18,-81.7"/>
</a>
</g>
</g>
<!-- Node5 -->
<g id="Node000005" class="node">
<title>Node5</title>
<g id="a_Node000005"><a xlink:href="m__time__steppers_8fpp_8f90.html#af409df8df1b374744d8c379e7e7dba0b" target="_top" xlink:title="1st order TVD RK time&#45;stepping algorithm">
<polygon fill="white" stroke="#666666" points="199.5,-93 90.5,-93 90.5,-74 199.5,-74 199.5,-93"/>
<text text-anchor="middle" x="145" y="-81" font-family="Helvetica,sans-Serif" font-size="10.00">s_1st_order_tvd_rk</text>
</a>
</g>
</g>
<!-- Node3&#45;&gt;Node5 -->
<g id="edge5_Node000003_Node000005" class="edge">
<title>Node3&#45;&gt;Node5</title>
<g id="a_edge5_Node000003_Node000005"><a xlink:title=" ">
<path fill="none" stroke="#63b8ff" d="M226.87,-72.12C217.93,-73.38 208.66,-74.68 199.73,-75.94"/>
<polygon fill="#63b8ff" stroke="#63b8ff" points="227.38,-75.58 236.8,-70.72 226.41,-68.65 227.38,-75.58"/>
</a>
</g>
</g>
<!-- Node7 -->
<g id="Node000007" class="node">
<title>Node7</title>
<g id="a_Node000007"><a xlink:href="m__time__steppers_8fpp_8f90.html#a2847bfea6f3dc3fdae115a99009f7245" target="_top" xlink:title="2nd order TVD RK time&#45;stepping algorithm">
<polygon fill="white" stroke="#666666" points="201,-56 89,-56 89,-37 201,-37 201,-56"/>
<text text-anchor="middle" x="145" y="-44" font-family="Helvetica,sans-Serif" font-size="10.00">s_2nd_order_tvd_rk</text>
</a>
</g>
</g>
<!-- Node3&#45;&gt;Node7 -->
<g id="edge7_Node000003_Node000007" class="edge">
<title>Node3&#45;&gt;Node7</title>
<g id="a_edge7_Node000003_Node000007"><a xlink:title=" ">
<path fill="none" stroke="#63b8ff" d="M226.71,-57.26C218.3,-56.14 209.6,-54.98 201.17,-53.86"/>
<polygon fill="#63b8ff" stroke="#63b8ff" points="226.42,-60.75 236.8,-58.61 227.35,-53.82 226.42,-60.75"/>
</a>
</g>
</g>
<!-- Node8 -->
<g id="Node000008" class="node">
<title>Node8</title>
<g id="a_Node000008"><a xlink:href="m__time__steppers_8fpp_8f90.html#ad642c094881f0cffbb6158f9fa079a86" target="_top" xlink:title="3rd order TVD RK time&#45;stepping algorithm">
<polygon fill="white" stroke="#666666" points="200,-19 90,-19 90,0 200,0 200,-19"/>
<text text-anchor="middle" x="145" y="-7" font-family="Helvetica,sans-Serif" font-size="10.00">s_3rd_order_tvd_rk</text>
</a>
</g>
</g>
<!-- Node3&#45;&gt;Node8 -->
<g id="edge9_Node000003_Node000008" class="edge">
<title>Node3&#45;&gt;Node8</title>
<g id="a_edge9_Node000003_Node000008"><a xlink:title=" ">
<path fill="none" stroke="#63b8ff" d="M251.86,-50.62C236.81,-43.65 218.07,-35.27 201,-28.5 192.74,-25.22 183.66,-21.95 175.29,-19.07"/>
<polygon fill="#63b8ff" stroke="#63b8ff" points="250.62,-53.91 261.16,-54.97 253.58,-47.57 250.62,-53.91"/>
</a>
</g>
</g>
<!-- Node6 -->
<g id="Node000006" class="node">
<title>Node6</title>
<g id="a_Node000006"><a xlink:href="p__main_8fpp_8f90.html#aeec10ee8e2940c953967da3e374e1579" target="_top" xlink:title="Quasi&#45;conservative, shock&#45; and interface&#45; capturing finite&#45;volume scheme for the multicomponent Navie...">
<polygon fill="white" stroke="#666666" points="53,-56 0,-56 0,-37 53,-37 53,-56"/>
<text text-anchor="middle" x="26.5" y="-44" font-family="Helvetica,sans-Serif" font-size="10.00">p_main</text>
</a>
</g>
</g>
<!-- Node5&#45;&gt;Node6 -->
<g id="edge6_Node000005_Node000006" class="edge">
<title>Node5&#45;&gt;Node6</title>
<g id="a_edge6_Node000005_Node000006"><a xlink:title=" ">
<path fill="none" stroke="#63b8ff" d="M104.34,-70.9C87.38,-65.52 68.07,-59.39 53.06,-54.62"/>
<polygon fill="#63b8ff" stroke="#63b8ff" points="103.41,-74.28 114,-73.97 105.53,-67.61 103.41,-74.28"/>
</a>
</g>
</g>
<!-- Node7&#45;&gt;Node6 -->
<g id="edge8_Node000007_Node000006" class="edge">
<title>Node7&#45;&gt;Node6</title>
<g id="a_edge8_Node000007_Node000006"><a xlink:title=" ">
<path fill="none" stroke="#63b8ff" d="M78.6,-46.5C69.59,-46.5 60.81,-46.5 53.15,-46.5"/>
<polygon fill="#63b8ff" stroke="#63b8ff" points="78.82,-50 88.82,-46.5 78.82,-43 78.82,-50"/>
</a>
</g>
</g>
<!-- Node8&#45;&gt;Node6 -->
<g id="edge10_Node000008_Node000006" class="edge">
<title>Node8&#45;&gt;Node6</title>
<g id="a_edge10_Node000008_Node000006"><a xlink:title=" ">
<path fill="none" stroke="#63b8ff" d="M104.34,-22.1C87.38,-27.48 68.07,-33.61 53.06,-38.38"/>
<polygon fill="#63b8ff" stroke="#63b8ff" points="105.53,-25.39 114,-19.03 103.41,-18.72 105.53,-25.39"/>
</a>
</g>
</g>
</g>
</svg>
