<?xml version="1.0" encoding="UTF-8" standalone="no"?>
<!DOCTYPE svg PUBLIC "-//W3C//DTD SVG 1.1//EN"
 "http://www.w3.org/Graphics/SVG/1.1/DTD/svg11.dtd">
<!-- Generated by graphviz version 2.43.0 (0)
 -->
<!-- Title: f_cpbw_km Pages: 1 -->
<svg width="820pt" height="173pt"
 viewBox="0.00 0.00 820.00 173.00" xmlns="http://www.w3.org/2000/svg" xmlns:xlink="http://www.w3.org/1999/xlink">
<g id="graph0" class="graph" transform="scale(1 1) rotate(0) translate(4 169)">
<title>f_cpbw_km</title>
<!-- Node1 -->
<g id="Node000001" class="node">
<title>Node1</title>
<g id="a_Node000001"><a xlink:title="Function that computes the bubble wall pressure for Keller–Miksis bubbles.">
<polygon fill="#999999" stroke="#666666" points="812,-53 740,-53 740,-34 812,-34 812,-53"/>
<text text-anchor="middle" x="776" y="-41" font-family="Helvetica,sans-Serif" font-size="10.00">f_cpbw_km</text>
</a>
</g>
</g>
<!-- Node1&#45;&gt;Node1 -->
<g id="edge1_Node000001_Node000001" class="edge">
<title>Node1&#45;&gt;Node1</title>
<g id="a_edge1_Node000001_Node000001"><a xlink:title=" ">
<path fill="none" stroke="#63b8ff" d="M802.79,-62.19C801.32,-67.2 792.4,-71 776,-71 750.41,-71 743.01,-61.73 753.81,-53.08"/>
<polygon fill="#63b8ff" stroke="#63b8ff" points="805.82,-60.44 798.19,-53.08 799.57,-63.59 805.82,-60.44"/>
</a>
</g>
</g>
<!-- Node2 -->
<g id="Node000002" class="node">
<title>Node2</title>
<g id="a_Node000002"><a xlink:href="m__bubbles_8fpp_8f90.html#a13d7f514861d6b4004211c6f0bdb58fc" target="_top" xlink:title="The purpose of this procedure is to compute the source terms that are needed for the bubble modeling.">
<polygon fill="white" stroke="#666666" points="704,-76 558,-76 558,-57 704,-57 704,-76"/>
<text text-anchor="middle" x="631" y="-64" font-family="Helvetica,sans-Serif" font-size="10.00">s_compute_bubble_source</text>
</a>
</g>
</g>
<!-- Node1&#45;&gt;Node2 -->
<g id="edge2_Node000001_Node000002" class="edge">
<title>Node1&#45;&gt;Node2</title>
<g id="a_edge2_Node000001_Node000002"><a xlink:title=" ">
<path fill="none" stroke="#63b8ff" d="M729.69,-50.79C717.45,-52.76 704.02,-54.92 691.15,-56.99"/>
<polygon fill="#63b8ff" stroke="#63b8ff" points="730.33,-54.23 739.65,-49.19 729.22,-47.32 730.33,-54.23"/>
</a>
</g>
</g>
<!-- Node10 -->
<g id="Node000010" class="node">
<title>Node10</title>
<g id="a_Node000010"><a xlink:href="namespacem__riemann__solvers.html#a6c9d70572e9b98586bab20b028557a5a" target="_top" xlink:title="This procedure is the implementation of the Harten, Lax, van Leer, and contact (HLLC) approximate Rie...">
<polygon fill="white" stroke="#666666" points="693.5,-37.5 568.5,-37.5 568.5,-7.5 693.5,-7.5 693.5,-37.5"/>
<text text-anchor="start" x="576.5" y="-25.5" font-family="Helvetica,sans-Serif" font-size="10.00">m_riemann_solvers::</text>
<text text-anchor="middle" x="631" y="-14.5" font-family="Helvetica,sans-Serif" font-size="10.00">s_hllc_riemann_solver</text>
</a>
</g>
</g>
<!-- Node1&#45;&gt;Node10 -->
<g id="edge12_Node000001_Node000010" class="edge">
<title>Node1&#45;&gt;Node10</title>
<g id="a_edge12_Node000001_Node000010"><a xlink:title=" ">
<path fill="none" stroke="#63b8ff" d="M729.51,-36.82C718.12,-35.15 705.71,-33.32 693.67,-31.56"/>
<polygon fill="#63b8ff" stroke="#63b8ff" points="729.25,-40.32 739.65,-38.31 730.27,-33.39 729.25,-40.32"/>
</a>
</g>
</g>
<!-- Node3 -->
<g id="Node000003" class="node">
<title>Node3</title>
<g id="a_Node000003"><a xlink:href="m__rhs_8fpp_8f90.html#a8522bdf311a42fe6ff7f2b433656573f" target="_top" xlink:title=" ">
<polygon fill="white" stroke="#666666" points="507.5,-91 417.5,-91 417.5,-72 507.5,-72 507.5,-91"/>
<text text-anchor="middle" x="462.5" y="-79" font-family="Helvetica,sans-Serif" font-size="10.00">s_compute_rhs</text>
</a>
</g>
</g>
<!-- Node2&#45;&gt;Node3 -->
<g id="edge3_Node000002_Node000003" class="edge">
<title>Node2&#45;&gt;Node3</title>
<g id="a_edge3_Node000002_Node000003"><a xlink:title=" ">
<path fill="none" stroke="#63b8ff" d="M547.9,-73.9C534.07,-75.14 520.19,-76.39 507.81,-77.51"/>
<polygon fill="#63b8ff" stroke="#63b8ff" points="548.29,-77.38 557.94,-72.99 547.67,-70.4 548.29,-77.38"/>
</a>
</g>
</g>
<!-- Node4 -->
<g id="Node000004" class="node">
<title>Node4</title>
<g id="a_Node000004"><a xlink:href="m__rhs_8fpp_8f90.html#a87616394067f1273cd06c4d299d10add" target="_top" xlink:title=" ">
<polygon fill="white" stroke="#666666" points="366,-165 256,-165 256,-146 366,-146 366,-165"/>
<text text-anchor="middle" x="311" y="-153" font-family="Helvetica,sans-Serif" font-size="10.00">__m_rhs_fpp_f90__</text>
</a>
</g>
</g>
<!-- Node3&#45;&gt;Node4 -->
<g id="edge4_Node000003_Node000004" class="edge">
<title>Node3&#45;&gt;Node4</title>
<g id="a_edge4_Node000003_Node000004"><a xlink:title=" ">
<path fill="none" stroke="#63b8ff" d="M439.21,-96.6C420.52,-108.8 392.82,-125.79 367,-137.5 360.05,-140.65 352.37,-143.52 345.02,-145.99"/>
<polygon fill="#63b8ff" stroke="#63b8ff" points="441.21,-99.48 447.62,-91.05 437.34,-93.64 441.21,-99.48"/>
</a>
</g>
</g>
<!-- Node5 -->
<g id="Node000005" class="node">
<title>Node5</title>
<g id="a_Node000005"><a xlink:href="m__time__steppers_8fpp_8f90.html#af409df8df1b374744d8c379e7e7dba0b" target="_top" xlink:title="1st order TVD RK time&#45;stepping algorithm">
<polygon fill="white" stroke="#666666" points="365.5,-128 256.5,-128 256.5,-109 365.5,-109 365.5,-128"/>
<text text-anchor="middle" x="311" y="-116" font-family="Helvetica,sans-Serif" font-size="10.00">s_1st_order_tvd_rk</text>
</a>
</g>
</g>
<!-- Node3&#45;&gt;Node5 -->
<g id="edge5_Node000003_Node000005" class="edge">
<title>Node3&#45;&gt;Node5</title>
<g id="a_edge5_Node000003_Node000005"><a xlink:title=" ">
<path fill="none" stroke="#63b8ff" d="M413.04,-93.49C392.82,-98.5 369.67,-104.23 350.63,-108.94"/>
<polygon fill="#63b8ff" stroke="#63b8ff" points="414.13,-96.83 423,-91.03 412.45,-90.03 414.13,-96.83"/>
</a>
</g>
</g>
<!-- Node8 -->
<g id="Node000008" class="node">
<title>Node8</title>
<g id="a_Node000008"><a xlink:href="m__time__steppers_8fpp_8f90.html#a2847bfea6f3dc3fdae115a99009f7245" target="_top" xlink:title="2nd order TVD RK time&#45;stepping algorithm">
<polygon fill="white" stroke="#666666" points="367,-91 255,-91 255,-72 367,-72 367,-91"/>
<text text-anchor="middle" x="311" y="-79" font-family="Helvetica,sans-Serif" font-size="10.00">s_2nd_order_tvd_rk</text>
</a>
</g>
</g>
<!-- Node3&#45;&gt;Node8 -->
<g id="edge8_Node000003_Node000008" class="edge">
<title>Node3&#45;&gt;Node8</title>
<g id="a_edge8_Node000003_Node000008"><a xlink:title=" ">
<path fill="none" stroke="#63b8ff" d="M407.22,-81.5C394.17,-81.5 380.23,-81.5 367.14,-81.5"/>
<polygon fill="#63b8ff" stroke="#63b8ff" points="407.45,-85 417.45,-81.5 407.45,-78 407.45,-85"/>
</a>
</g>
</g>
<!-- Node9 -->
<g id="Node000009" class="node">
<title>Node9</title>
<g id="a_Node000009"><a xlink:href="m__time__steppers_8fpp_8f90.html#ad642c094881f0cffbb6158f9fa079a86" target="_top" xlink:title="3rd order TVD RK time&#45;stepping algorithm">
<polygon fill="white" stroke="#666666" points="366,-54 256,-54 256,-35 366,-35 366,-54"/>
<text text-anchor="middle" x="311" y="-42" font-family="Helvetica,sans-Serif" font-size="10.00">s_3rd_order_tvd_rk</text>
</a>
</g>
</g>
<!-- Node3&#45;&gt;Node9 -->
<g id="edge10_Node000003_Node000009" class="edge">
<title>Node3&#45;&gt;Node9</title>
<g id="a_edge10_Node000003_Node000009"><a xlink:title=" ">
<path fill="none" stroke="#63b8ff" d="M413.04,-69.51C392.82,-64.5 369.67,-58.77 350.63,-54.06"/>
<polygon fill="#63b8ff" stroke="#63b8ff" points="412.45,-72.97 423,-71.97 414.13,-66.17 412.45,-72.97"/>
</a>
</g>
</g>
<!-- Node6 -->
<g id="Node000006" class="node">
<title>Node6</title>
<g id="a_Node000006"><a xlink:href="namespacem__start__up.html#aaaeff91a52af5b8f17ed9efed8ac17bd" target="_top" xlink:title=" ">
<polygon fill="white" stroke="#666666" points="217.5,-89.5 90.5,-89.5 90.5,-59.5 217.5,-59.5 217.5,-89.5"/>
<text text-anchor="start" x="98.5" y="-77.5" font-family="Helvetica,sans-Serif" font-size="10.00">m_start_up::s_perform</text>
<text text-anchor="middle" x="154" y="-66.5" font-family="Helvetica,sans-Serif" font-size="10.00">_time_step</text>
</a>
</g>
</g>
<!-- Node5&#45;&gt;Node6 -->
<g id="edge6_Node000005_Node000006" class="edge">
<title>Node5&#45;&gt;Node6</title>
<g id="a_edge6_Node000005_Node000006"><a xlink:title=" ">
<path fill="none" stroke="#63b8ff" d="M266.63,-106.19C248.46,-101.03 227.16,-94.99 208.07,-89.57"/>
<polygon fill="#63b8ff" stroke="#63b8ff" points="265.79,-109.59 276.37,-108.95 267.7,-102.85 265.79,-109.59"/>
</a>
</g>
</g>
<!-- Node7 -->
<g id="Node000007" class="node">
<title>Node7</title>
<g id="a_Node000007"><a xlink:href="p__main_8fpp_8f90.html#aeec10ee8e2940c953967da3e374e1579" target="_top" xlink:title="Quasi&#45;conservative, shock&#45; and interface&#45; capturing finite&#45;volume scheme for the multicomponent Navie...">
<polygon fill="white" stroke="#666666" points="53,-53 0,-53 0,-34 53,-34 53,-53"/>
<text text-anchor="middle" x="26.5" y="-41" font-family="Helvetica,sans-Serif" font-size="10.00">p_main</text>
</a>
</g>
</g>
<!-- Node6&#45;&gt;Node7 -->
<g id="edge7_Node000006_Node000007" class="edge">
<title>Node6&#45;&gt;Node7</title>
<g id="a_edge7_Node000006_Node000007"><a xlink:title=" ">
<path fill="none" stroke="#63b8ff" d="M82.12,-56.99C71.78,-54.44 61.75,-51.96 53.15,-49.84"/>
<polygon fill="#63b8ff" stroke="#63b8ff" points="81.54,-60.45 92.09,-59.45 83.22,-53.66 81.54,-60.45"/>
</a>
</g>
</g>
<!-- Node8&#45;&gt;Node6 -->
<g id="edge9_Node000008_Node000006" class="edge">
<title>Node8&#45;&gt;Node6</title>
<g id="a_edge9_Node000008_Node000006"><a xlink:title=" ">
<path fill="none" stroke="#63b8ff" d="M244.84,-78.56C235.81,-78.15 226.55,-77.73 217.56,-77.33"/>
<polygon fill="#63b8ff" stroke="#63b8ff" points="244.77,-82.06 254.92,-79.01 245.08,-75.06 244.77,-82.06"/>
</a>
</g>
</g>
<!-- Node9&#45;&gt;Node6 -->
<g id="edge11_Node000009_Node000006" class="edge">
<title>Node9&#45;&gt;Node6</title>
<g id="a_edge11_Node000009_Node000006"><a xlink:title=" ">
<path fill="none" stroke="#63b8ff" d="M250.41,-56.03C239.67,-58.11 228.44,-60.29 217.62,-62.38"/>
<polygon fill="#63b8ff" stroke="#63b8ff" points="251.38,-59.41 260.53,-54.07 250.05,-52.54 251.38,-59.41"/>
</a>
</g>
</g>
<!-- Node11 -->
<g id="Node000011" class="node">
<title>Node11</title>
<g id="a_Node000011"><a xlink:href="namespacem__riemann__solvers.html#aab7e6bf69b7d0b8b9d911f418b872130" target="_top" xlink:title="The computation of parameters, the allocation of memory, the association of pointers and/or the execu...">
<polygon fill="white" stroke="#666666" points="522,-41 403,-41 403,0 522,0 522,-41"/>
<text text-anchor="start" x="411" y="-29" font-family="Helvetica,sans-Serif" font-size="10.00">m_riemann_solvers::</text>
<text text-anchor="start" x="411" y="-18" font-family="Helvetica,sans-Serif" font-size="10.00">s_initialize_riemann</text>
<text text-anchor="middle" x="462.5" y="-7" font-family="Helvetica,sans-Serif" font-size="10.00">_solvers_module</text>
</a>
</g>
</g>
<!-- Node10&#45;&gt;Node11 -->
<g id="edge13_Node000010_Node000011" class="edge">
<title>Node10&#45;&gt;Node11</title>
<g id="a_edge13_Node000010_Node000011"><a xlink:title=" ">
<path fill="none" stroke="#63b8ff" d="M558.38,-21.64C546.24,-21.49 533.76,-21.34 522.01,-21.2"/>
<polygon fill="#63b8ff" stroke="#63b8ff" points="558.43,-25.14 568.47,-21.76 558.52,-18.14 558.43,-25.14"/>
</a>
</g>
</g>
<!-- Node12 -->
<g id="Node000012" class="node">
<title>Node12</title>
<g id="a_Node000012"><a xlink:href="namespacem__start__up.html#a3745654d013067a8c4fd89f50598674c" target="_top" xlink:title=" ">
<polygon fill="white" stroke="#666666" points="219,-34.5 89,-34.5 89,-4.5 219,-4.5 219,-34.5"/>
<text text-anchor="start" x="97" y="-22.5" font-family="Helvetica,sans-Serif" font-size="10.00">m_start_up::s_initialize</text>
<text text-anchor="middle" x="154" y="-11.5" font-family="Helvetica,sans-Serif" font-size="10.00">_modules</text>
</a>
</g>
</g>
<!-- Node11&#45;&gt;Node12 -->
<g id="edge14_Node000011_Node000012" class="edge">
<title>Node11&#45;&gt;Node12</title>
<g id="a_edge14_Node000011_Node000012"><a xlink:title=" ">
<path fill="none" stroke="#63b8ff" d="M392.63,-20.28C340.66,-20.11 269.86,-19.87 219.09,-19.71"/>
<polygon fill="#63b8ff" stroke="#63b8ff" points="392.75,-23.78 402.77,-20.31 392.78,-16.78 392.75,-23.78"/>
</a>
</g>
</g>
<!-- Node12&#45;&gt;Node7 -->
<g id="edge15_Node000012_Node000007" class="edge">
<title>Node12&#45;&gt;Node7</title>
<g id="a_edge15_Node000012_Node000007"><a xlink:title=" ">
<path fill="none" stroke="#63b8ff" d="M78.74,-33.7C69.58,-35.45 60.76,-37.14 53.09,-38.61"/>
<polygon fill="#63b8ff" stroke="#63b8ff" points="79.61,-37.1 88.78,-31.78 78.3,-30.22 79.61,-37.1"/>
</a>
</g>
</g>
</g>
</svg>
