<?xml version="1.0" encoding="UTF-8" standalone="no"?>
<!DOCTYPE svg PUBLIC "-//W3C//DTD SVG 1.1//EN"
 "http://www.w3.org/Graphics/SVG/1.1/DTD/svg11.dtd">
<!-- Generated by graphviz version 2.43.0 (0)
 -->
<!-- Title: s_compute_speed_of_sound Pages: 1 -->
<svg width="573pt" height="268pt"
 viewBox="0.00 0.00 573.00 268.00" xmlns="http://www.w3.org/2000/svg" xmlns:xlink="http://www.w3.org/1999/xlink">
<g id="graph0" class="graph" transform="scale(1 1) rotate(0) translate(4 264)">
<title>s_compute_speed_of_sound</title>
<!-- Node1 -->
<g id="Node000001" class="node">
<title>Node1</title>
<g id="a_Node000001"><a xlink:title=" ">
<polygon fill="#999999" stroke="#666666" points="565,-184.5 446,-184.5 446,-154.5 565,-154.5 565,-184.5"/>
<text text-anchor="start" x="454" y="-172.5" font-family="Helvetica,sans-Serif" font-size="10.00">s_compute_speed_of</text>
<text text-anchor="middle" x="505.5" y="-161.5" font-family="Helvetica,sans-Serif" font-size="10.00">_sound</text>
</a>
</g>
</g>
<!-- Node2 -->
<g id="Node000002" class="node">
<title>Node2</title>
<g id="a_Node000002"><a xlink:href="namespacem__riemann__solvers.html#a1b018ebed82e499a0589925651bba7a7" target="_top" xlink:title=" ">
<polygon fill="white" stroke="#666666" points="388.5,-254.5 268.5,-254.5 268.5,-224.5 388.5,-224.5 388.5,-254.5"/>
<text text-anchor="start" x="276.5" y="-242.5" font-family="Helvetica,sans-Serif" font-size="10.00">m_riemann_solvers::</text>
<text text-anchor="middle" x="328.5" y="-231.5" font-family="Helvetica,sans-Serif" font-size="10.00">s_hll_riemann_solver</text>
</a>
</g>
</g>
<!-- Node1&#45;&gt;Node2 -->
<g id="edge1_Node000001_Node000002" class="edge">
<title>Node1&#45;&gt;Node2</title>
<g id="a_edge1_Node000001_Node000002"><a xlink:title=" ">
<path fill="none" stroke="#63b8ff" d="M467.38,-189.31C450.21,-198.02 429.37,-207.96 410,-215.5 401.85,-218.68 393.09,-221.68 384.47,-224.42"/>
<polygon fill="#63b8ff" stroke="#63b8ff" points="469.21,-192.31 476.51,-184.62 466.01,-186.08 469.21,-192.31"/>
</a>
</g>
</g>
<!-- Node5 -->
<g id="Node000005" class="node">
<title>Node5</title>
<g id="a_Node000005"><a xlink:href="namespacem__riemann__solvers.html#a6c9d70572e9b98586bab20b028557a5a" target="_top" xlink:title="This procedure is the implementation of the Harten, Lax, van Leer, and contact (HLLC) approximate Rie...">
<polygon fill="white" stroke="#666666" points="391,-206.5 266,-206.5 266,-176.5 391,-176.5 391,-206.5"/>
<text text-anchor="start" x="274" y="-194.5" font-family="Helvetica,sans-Serif" font-size="10.00">m_riemann_solvers::</text>
<text text-anchor="middle" x="328.5" y="-183.5" font-family="Helvetica,sans-Serif" font-size="10.00">s_hllc_riemann_solver</text>
</a>
</g>
</g>
<!-- Node1&#45;&gt;Node5 -->
<g id="edge4_Node000001_Node000005" class="edge">
<title>Node1&#45;&gt;Node5</title>
<g id="a_edge4_Node000001_Node000005"><a xlink:title=" ">
<path fill="none" stroke="#63b8ff" d="M435.69,-178.15C420.98,-180 405.52,-181.94 391.1,-183.76"/>
<polygon fill="#63b8ff" stroke="#63b8ff" points="436.26,-181.61 445.74,-176.89 435.38,-174.66 436.26,-181.61"/>
</a>
</g>
</g>
<!-- Node6 -->
<g id="Node000006" class="node">
<title>Node6</title>
<g id="a_Node000006"><a xlink:href="m__data__output_8fpp_8f90.html#aefc508a7157b96fe6611e3874c97ee0b" target="_top" xlink:title="This writes a formatted data file for the flow probe information.">
<polygon fill="white" stroke="#666666" points="383.5,-158 273.5,-158 273.5,-139 383.5,-139 383.5,-158"/>
<text text-anchor="middle" x="328.5" y="-146" font-family="Helvetica,sans-Serif" font-size="10.00">s_write_probe_files</text>
</a>
</g>
</g>
<!-- Node1&#45;&gt;Node6 -->
<g id="edge6_Node000001_Node000006" class="edge">
<title>Node1&#45;&gt;Node6</title>
<g id="a_edge6_Node000001_Node000006"><a xlink:title=" ">
<path fill="none" stroke="#63b8ff" d="M435.71,-161.24C418.43,-159.17 400.13,-156.98 383.68,-155"/>
<polygon fill="#63b8ff" stroke="#63b8ff" points="435.39,-164.73 445.74,-162.45 436.23,-157.78 435.39,-164.73"/>
</a>
</g>
</g>
<!-- Node9 -->
<g id="Node000009" class="node">
<title>Node9</title>
<g id="a_Node000009"><a xlink:href="m__data__output_8fpp_8f90.html#ac145ce5b1674f9df821653e1784a1bcf" target="_top" xlink:title="The goal of the procedure is to output to the run&#45;time information file the stability criteria extrem...">
<polygon fill="white" stroke="#666666" points="410,-93 247,-93 247,-74 410,-74 410,-93"/>
<text text-anchor="middle" x="328.5" y="-81" font-family="Helvetica,sans-Serif" font-size="10.00">s_write_run_time_information</text>
</a>
</g>
</g>
<!-- Node1&#45;&gt;Node9 -->
<g id="edge10_Node000001_Node000009" class="edge">
<title>Node1&#45;&gt;Node9</title>
<g id="a_edge10_Node000001_Node000009"><a xlink:title=" ">
<path fill="none" stroke="#63b8ff" d="M464.36,-149.77C428.34,-132.07 377.01,-106.85 349.21,-93.19"/>
<polygon fill="#63b8ff" stroke="#63b8ff" points="463.1,-153.05 473.62,-154.32 466.19,-146.77 463.1,-153.05"/>
</a>
</g>
</g>
<!-- Node3 -->
<g id="Node000003" class="node">
<title>Node3</title>
<g id="a_Node000003"><a xlink:href="namespacem__riemann__solvers.html#aab7e6bf69b7d0b8b9d911f418b872130" target="_top" xlink:title="The computation of parameters, the allocation of memory, the association of pointers and/or the execu...">
<polygon fill="white" stroke="#666666" points="209.5,-260 90.5,-260 90.5,-219 209.5,-219 209.5,-260"/>
<text text-anchor="start" x="98.5" y="-248" font-family="Helvetica,sans-Serif" font-size="10.00">m_riemann_solvers::</text>
<text text-anchor="start" x="98.5" y="-237" font-family="Helvetica,sans-Serif" font-size="10.00">s_initialize_riemann</text>
<text text-anchor="middle" x="150" y="-226" font-family="Helvetica,sans-Serif" font-size="10.00">_solvers_module</text>
</a>
</g>
</g>
<!-- Node2&#45;&gt;Node3 -->
<g id="edge2_Node000002_Node000003" class="edge">
<title>Node2&#45;&gt;Node3</title>
<g id="a_edge2_Node000002_Node000003"><a xlink:title=" ">
<path fill="none" stroke="#63b8ff" d="M257.86,-239.5C241.85,-239.5 224.99,-239.5 209.51,-239.5"/>
<polygon fill="#63b8ff" stroke="#63b8ff" points="258.24,-243 268.24,-239.5 258.24,-236 258.24,-243"/>
</a>
</g>
</g>
<!-- Node4 -->
<g id="Node000004" class="node">
<title>Node4</title>
<g id="a_Node000004"><a xlink:href="p__main_8fpp_8f90.html#aeec10ee8e2940c953967da3e374e1579" target="_top" xlink:title="Quasi&#45;conservative, shock&#45; and interface&#45; capturing finite&#45;volume scheme for the multicomponent Navie...">
<polygon fill="white" stroke="#666666" points="53,-93 0,-93 0,-74 53,-74 53,-93"/>
<text text-anchor="middle" x="26.5" y="-81" font-family="Helvetica,sans-Serif" font-size="10.00">p_main</text>
</a>
</g>
</g>
<!-- Node3&#45;&gt;Node4 -->
<g id="edge3_Node000003_Node000004" class="edge">
<title>Node3&#45;&gt;Node4</title>
<g id="a_edge3_Node000003_Node000004"><a xlink:title=" ">
<path fill="none" stroke="#63b8ff" d="M91.4,-212.78C90.58,-212.04 89.78,-211.28 89,-210.5 53.82,-175.35 35.76,-116.09 29.79,-93.06"/>
<polygon fill="#63b8ff" stroke="#63b8ff" points="89.31,-215.58 99.34,-218.99 93.62,-210.07 89.31,-215.58"/>
</a>
</g>
</g>
<!-- Node5&#45;&gt;Node3 -->
<g id="edge5_Node000005_Node000003" class="edge">
<title>Node5&#45;&gt;Node3</title>
<g id="a_edge5_Node000005_Node000003"><a xlink:title=" ">
<path fill="none" stroke="#63b8ff" d="M262.15,-209.27C244.89,-213.96 226.39,-219 209.52,-223.58"/>
<polygon fill="#63b8ff" stroke="#63b8ff" points="263.41,-212.56 272.14,-206.56 261.57,-205.8 263.41,-212.56"/>
</a>
</g>
</g>
<!-- Node7 -->
<g id="Node000007" class="node">
<title>Node7</title>
<g id="a_Node000007"><a xlink:href="m__data__output_8fpp_8f90.html#a979b8a2cf4215a8122fc461c0512dbba" target="_top" xlink:title=" ">
<polygon fill="white" stroke="#666666" points="211,-141.5 89,-141.5 89,-111.5 211,-111.5 211,-141.5"/>
<text text-anchor="start" x="97" y="-129.5" font-family="Helvetica,sans-Serif" font-size="10.00">__m_data_output_fpp</text>
<text text-anchor="middle" x="150" y="-118.5" font-family="Helvetica,sans-Serif" font-size="10.00">_f90__</text>
</a>
</g>
</g>
<!-- Node6&#45;&gt;Node7 -->
<g id="edge7_Node000006_Node000007" class="edge">
<title>Node6&#45;&gt;Node7</title>
<g id="a_edge7_Node000006_Node000007"><a xlink:title=" ">
<path fill="none" stroke="#63b8ff" d="M262.76,-140.43C245.86,-138.32 227.71,-136.06 211.06,-133.99"/>
<polygon fill="#63b8ff" stroke="#63b8ff" points="262.75,-143.96 273.1,-141.72 263.61,-137.01 262.75,-143.96"/>
</a>
</g>
</g>
<!-- Node8 -->
<g id="Node000008" class="node">
<title>Node8</title>
<g id="a_Node000008"><a xlink:href="namespacem__derived__variables.html#a516a9808b3446b7b45029f6451d02b3f" target="_top" xlink:title="Writes coherent body information, communication files, and probes.">
<polygon fill="white" stroke="#666666" points="209.5,-201 90.5,-201 90.5,-160 209.5,-160 209.5,-201"/>
<text text-anchor="start" x="98.5" y="-189" font-family="Helvetica,sans-Serif" font-size="10.00">m_derived_variables</text>
<text text-anchor="start" x="98.5" y="-178" font-family="Helvetica,sans-Serif" font-size="10.00">::s_compute_derived</text>
<text text-anchor="middle" x="150" y="-167" font-family="Helvetica,sans-Serif" font-size="10.00">_variables</text>
</a>
</g>
</g>
<!-- Node6&#45;&gt;Node8 -->
<g id="edge8_Node000006_Node000008" class="edge">
<title>Node6&#45;&gt;Node8</title>
<g id="a_edge8_Node000006_Node000008"><a xlink:title=" ">
<path fill="none" stroke="#63b8ff" d="M264.94,-159.84C246.99,-163.1 227.48,-166.63 209.77,-169.85"/>
<polygon fill="#63b8ff" stroke="#63b8ff" points="265.81,-163.24 275.02,-158.01 264.56,-156.35 265.81,-163.24"/>
</a>
</g>
</g>
<!-- Node8&#45;&gt;Node4 -->
<g id="edge9_Node000008_Node000004" class="edge">
<title>Node8&#45;&gt;Node4</title>
<g id="a_edge9_Node000008_Node000004"><a xlink:title=" ">
<path fill="none" stroke="#63b8ff" d="M94.63,-154.5C92.7,-153.2 90.81,-151.87 89,-150.5 66.3,-133.39 45.12,-107.22 34.54,-93.19"/>
<polygon fill="#63b8ff" stroke="#63b8ff" points="93.04,-157.62 103.38,-159.93 96.73,-151.68 93.04,-157.62"/>
</a>
</g>
</g>
<!-- Node9&#45;&gt;Node7 -->
<g id="edge11_Node000009_Node000007" class="edge">
<title>Node9&#45;&gt;Node7</title>
<g id="a_edge11_Node000009_Node000007"><a xlink:title=" ">
<path fill="none" stroke="#63b8ff" d="M278.43,-95.46C257.6,-100.53 233.13,-106.49 211.22,-111.83"/>
<polygon fill="#63b8ff" stroke="#63b8ff" points="279.44,-98.81 288.33,-93.04 277.78,-92.01 279.44,-98.81"/>
</a>
</g>
</g>
<!-- Node10 -->
<g id="Node000010" class="node">
<title>Node10</title>
<g id="a_Node000010"><a xlink:href="m__time__steppers_8fpp_8f90.html#af409df8df1b374744d8c379e7e7dba0b" target="_top" xlink:title="1st order TVD RK time&#45;stepping algorithm">
<polygon fill="white" stroke="#666666" points="204.5,-93 95.5,-93 95.5,-74 204.5,-74 204.5,-93"/>
<text text-anchor="middle" x="150" y="-81" font-family="Helvetica,sans-Serif" font-size="10.00">s_1st_order_tvd_rk</text>
</a>
</g>
</g>
<!-- Node9&#45;&gt;Node10 -->
<g id="edge12_Node000009_Node000010" class="edge">
<title>Node9&#45;&gt;Node10</title>
<g id="a_edge12_Node000009_Node000010"><a xlink:title=" ">
<path fill="none" stroke="#63b8ff" d="M236.87,-83.5C225.84,-83.5 214.86,-83.5 204.61,-83.5"/>
<polygon fill="#63b8ff" stroke="#63b8ff" points="237,-87 247,-83.5 237,-80 237,-87"/>
</a>
</g>
</g>
<!-- Node11 -->
<g id="Node000011" class="node">
<title>Node11</title>
<g id="a_Node000011"><a xlink:href="m__time__steppers_8fpp_8f90.html#a2847bfea6f3dc3fdae115a99009f7245" target="_top" xlink:title="2nd order TVD RK time&#45;stepping algorithm">
<polygon fill="white" stroke="#666666" points="206,-56 94,-56 94,-37 206,-37 206,-56"/>
<text text-anchor="middle" x="150" y="-44" font-family="Helvetica,sans-Serif" font-size="10.00">s_2nd_order_tvd_rk</text>
</a>
</g>
</g>
<!-- Node9&#45;&gt;Node11 -->
<g id="edge14_Node000009_Node000011" class="edge">
<title>Node9&#45;&gt;Node11</title>
<g id="a_edge14_Node000009_Node000011"><a xlink:title=" ">
<path fill="none" stroke="#63b8ff" d="M272.24,-71.92C247.92,-66.82 219.7,-60.9 196.61,-56.06"/>
<polygon fill="#63b8ff" stroke="#63b8ff" points="271.54,-75.35 282.05,-73.97 272.98,-68.49 271.54,-75.35"/>
</a>
</g>
</g>
<!-- Node12 -->
<g id="Node000012" class="node">
<title>Node12</title>
<g id="a_Node000012"><a xlink:href="m__time__steppers_8fpp_8f90.html#ad642c094881f0cffbb6158f9fa079a86" target="_top" xlink:title="3rd order TVD RK time&#45;stepping algorithm">
<polygon fill="white" stroke="#666666" points="205,-19 95,-19 95,0 205,0 205,-19"/>
<text text-anchor="middle" x="150" y="-7" font-family="Helvetica,sans-Serif" font-size="10.00">s_3rd_order_tvd_rk</text>
</a>
</g>
</g>
<!-- Node9&#45;&gt;Node12 -->
<g id="edge16_Node000009_Node000012" class="edge">
<title>Node9&#45;&gt;Node12</title>
<g id="a_edge16_Node000009_Node000012"><a xlink:title=" ">
<path fill="none" stroke="#63b8ff" d="M300.81,-69.19C277.53,-57.07 242.63,-39.76 211,-27.5 203.09,-24.43 194.43,-21.57 186.21,-19.06"/>
<polygon fill="#63b8ff" stroke="#63b8ff" points="299.25,-72.32 309.73,-73.87 302.5,-66.12 299.25,-72.32"/>
</a>
</g>
</g>
<!-- Node10&#45;&gt;Node4 -->
<g id="edge13_Node000010_Node000004" class="edge">
<title>Node10&#45;&gt;Node4</title>
<g id="a_edge13_Node000010_Node000004"><a xlink:title=" ">
<path fill="none" stroke="#63b8ff" d="M85.03,-83.5C73.78,-83.5 62.68,-83.5 53.27,-83.5"/>
<polygon fill="#63b8ff" stroke="#63b8ff" points="85.35,-87 95.35,-83.5 85.35,-80 85.35,-87"/>
</a>
</g>
</g>
<!-- Node11&#45;&gt;Node4 -->
<g id="edge15_Node000011_Node000004" class="edge">
<title>Node11&#45;&gt;Node4</title>
<g id="a_edge15_Node000011_Node000004"><a xlink:title=" ">
<path fill="none" stroke="#63b8ff" d="M106.94,-59.07C100.92,-60.88 94.8,-62.73 89,-64.5 77.24,-68.08 64.23,-72.09 53.22,-75.5"/>
<polygon fill="#63b8ff" stroke="#63b8ff" points="108.34,-62.3 116.91,-56.07 106.33,-55.6 108.34,-62.3"/>
</a>
</g>
</g>
<!-- Node12&#45;&gt;Node4 -->
<g id="edge17_Node000012_Node000004" class="edge">
<title>Node12&#45;&gt;Node4</title>
<g id="a_edge17_Node000012_Node000004"><a xlink:title=" ">
<path fill="none" stroke="#63b8ff" d="M98.68,-22.72C95.33,-24.17 92.07,-25.76 89,-27.5 67.13,-39.88 46.58,-61.3 35.66,-73.75"/>
<polygon fill="#63b8ff" stroke="#63b8ff" points="100.22,-25.88 108.28,-19.01 97.69,-19.36 100.22,-25.88"/>
</a>
</g>
</g>
</g>
</svg>
