<?xml version="1.0" encoding="UTF-8" standalone="no"?>
<!DOCTYPE svg PUBLIC "-//W3C//DTD SVG 1.1//EN"
 "http://www.w3.org/Graphics/SVG/1.1/DTD/svg11.dtd">
<!-- Generated by graphviz version 2.43.0 (0)
 -->
<!-- Title: s_write_serial_data_files Pages: 1 -->
<svg width="446pt" height="87pt"
 viewBox="0.00 0.00 446.00 86.50" xmlns="http://www.w3.org/2000/svg" xmlns:xlink="http://www.w3.org/1999/xlink">
<g id="graph0" class="graph" transform="scale(1 1) rotate(0) translate(4 82.5)">
<title>s_write_serial_data_files</title>
<!-- Node1 -->
<g id="Node000001" class="node">
<title>Node1</title>
<g id="a_Node000001"><a xlink:title="The goal of this subroutine is to output the grid and conservative variables data files for given tim...">
<polygon fill="#999999" stroke="#666666" points="438,-46.5 327,-46.5 327,-16.5 438,-16.5 438,-46.5"/>
<text text-anchor="start" x="335" y="-34.5" font-family="Helvetica,sans-Serif" font-size="10.00">s_write_serial_data</text>
<text text-anchor="middle" x="382.5" y="-23.5" font-family="Helvetica,sans-Serif" font-size="10.00">_files</text>
</a>
</g>
</g>
<!-- Node2 -->
<g id="Node000002" class="node">
<title>Node2</title>
<g id="a_Node000002"><a xlink:href="m__data__output_8fpp_8f90.html#a979b8a2cf4215a8122fc461c0512dbba" target="_top" xlink:title=" ">
<polygon fill="white" stroke="#666666" points="122,-78.5 0,-78.5 0,-48.5 122,-48.5 122,-78.5"/>
<text text-anchor="start" x="8" y="-66.5" font-family="Helvetica,sans-Serif" font-size="10.00">__m_data_output_fpp</text>
<text text-anchor="middle" x="61" y="-55.5" font-family="Helvetica,sans-Serif" font-size="10.00">_f90__</text>
</a>
</g>
</g>
<!-- Node1&#45;&gt;Node2 -->
<g id="edge1_Node000001_Node000002" class="edge">
<title>Node1&#45;&gt;Node2</title>
<g id="a_edge1_Node000001_Node000002"><a xlink:title=" ">
<path fill="none" stroke="#63b8ff" d="M322.71,-49.13C312.23,-51.68 301.36,-53.97 291,-55.5 234.14,-63.92 168.51,-65.39 122.12,-65.06"/>
<polygon fill="#63b8ff" stroke="#63b8ff" points="323.77,-52.47 332.6,-46.61 322.05,-45.69 323.77,-52.47"/>
</a>
</g>
</g>
<!-- Node3 -->
<g id="Node000003" class="node">
<title>Node3</title>
<g id="a_Node000003"><a xlink:href="p__main_8fpp_8f90.html#aeec10ee8e2940c953967da3e374e1579" target="_top" xlink:title="Quasi&#45;conservative, shock&#45; and interface&#45; capturing finite&#45;volume scheme for the multicomponent Navie...">
<polygon fill="white" stroke="#666666" points="87.5,-19 34.5,-19 34.5,0 87.5,0 87.5,-19"/>
<text text-anchor="middle" x="61" y="-7" font-family="Helvetica,sans-Serif" font-size="10.00">p_main</text>
</a>
</g>
</g>
<!-- Node1&#45;&gt;Node3 -->
<g id="edge2_Node000001_Node000003" class="edge">
<title>Node1&#45;&gt;Node3</title>
<g id="a_edge2_Node000001_Node000003"><a xlink:title=" ">
<path fill="none" stroke="#63b8ff" d="M324.19,-13.92C313.27,-11.25 301.86,-8.92 291,-7.5 217.67,2.06 130.01,-3.33 87.55,-6.99"/>
<polygon fill="#63b8ff" stroke="#63b8ff" points="323.5,-17.35 334.06,-16.45 325.24,-10.57 323.5,-17.35"/>
</a>
</g>
</g>
<!-- Node4 -->
<g id="Node000004" class="node">
<title>Node4</title>
<g id="a_Node000004"><a xlink:href="m__data__output_8fpp_8f90.html#a23f7e1c827800797a2fe2a1ea76ca16c" target="_top" xlink:title="The computation of parameters, the allocation of memory, the association of pointers and/or the execu...">
<polygon fill="white" stroke="#666666" points="291,-46.5 158,-46.5 158,-16.5 291,-16.5 291,-46.5"/>
<text text-anchor="start" x="166" y="-34.5" font-family="Helvetica,sans-Serif" font-size="10.00">s_initialize_data_output</text>
<text text-anchor="middle" x="224.5" y="-23.5" font-family="Helvetica,sans-Serif" font-size="10.00">_module</text>
</a>
</g>
</g>
<!-- Node1&#45;&gt;Node4 -->
<g id="edge3_Node000001_Node000004" class="edge">
<title>Node1&#45;&gt;Node4</title>
<g id="a_edge3_Node000001_Node000004"><a xlink:title=" ">
<path fill="none" stroke="#63b8ff" d="M316.72,-31.5C308.23,-31.5 299.52,-31.5 291.02,-31.5"/>
<polygon fill="#63b8ff" stroke="#63b8ff" points="316.94,-35 326.94,-31.5 316.94,-28 316.94,-35"/>
</a>
</g>
</g>
<!-- Node4&#45;&gt;Node2 -->
<g id="edge4_Node000004_Node000002" class="edge">
<title>Node4&#45;&gt;Node2</title>
<g id="a_edge4_Node000004_Node000002"><a xlink:title=" ">
<path fill="none" stroke="#63b8ff" d="M147.78,-46.5C139.19,-48.21 130.52,-49.92 122.17,-51.58"/>
<polygon fill="#63b8ff" stroke="#63b8ff" points="148.68,-49.89 157.81,-44.52 147.32,-43.03 148.68,-49.89"/>
</a>
</g>
</g>
<!-- Node4&#45;&gt;Node3 -->
<g id="edge5_Node000004_Node000003" class="edge">
<title>Node4&#45;&gt;Node3</title>
<g id="a_edge5_Node000004_Node000003"><a xlink:title=" ">
<path fill="none" stroke="#63b8ff" d="M147.63,-21.16C126.06,-18.23 104.04,-15.23 87.72,-13"/>
<polygon fill="#63b8ff" stroke="#63b8ff" points="147.43,-24.67 157.81,-22.55 148.38,-17.73 147.43,-24.67"/>
</a>
</g>
</g>
</g>
</svg>
