<?xml version="1.0" encoding="UTF-8" standalone="no"?>
<!DOCTYPE svg PUBLIC "-//W3C//DTD SVG 1.1//EN"
 "http://www.w3.org/Graphics/SVG/1.1/DTD/svg11.dtd">
<!-- Generated by graphviz version 2.43.0 (0)
 -->
<!-- Title: s_write_probe_files Pages: 1 -->
<svg width="277pt" height="187pt"
 viewBox="0.00 0.00 277.00 187.00" xmlns="http://www.w3.org/2000/svg" xmlns:xlink="http://www.w3.org/1999/xlink">

<svg id="main" version="1.1" xmlns="http://www.w3.org/2000/svg" xmlns:xlink="http://www.w3.org/1999/xlink" xml:space="preserve" onload="init(evt)">
<style type="text/css"><![CDATA[
.node, .edge {opacity: 0.7;}
.node.selected, .edge.selected {opacity: 1;}
.edge:hover path { stroke: red; }
.edge:hover polygon { stroke: red; fill: red; }
]]></style>
<script type="application/ecmascript" xlink:href="svg.min.js"/>
<svg id="graph" class="graph">
<g id="graph0" class="graph" transform="scale(1 1) rotate(0) translate(4 183)">
<title>s_write_probe_files</title>
<!-- Node1 -->
<g id="Node000001" class="node">
<title>Node1</title>
<g id="a_Node000001"><a xlink:title="This writes a formatted data file for the flow probe information.">
<polygon fill="#999999" stroke="#666666" points="110,-93 0,-93 0,-74 110,-74 110,-93"/>
<text text-anchor="middle" x="55" y="-81" font-family="Helvetica,sans-Serif" font-size="10.00">s_write_probe_files</text>
</a>
</g>
</g>
<!-- Node2 -->
<g id="Node000002" class="node">
<title>Node2</title>
<g id="a_Node000002"><a xlink:href="m__variables__conversion_8fpp_8f90.html#ad31047dc31e7ee8fc14d8717c4d0c334" target="_top" xlink:title="This procedure conditionally calculates the appropriate pressure.">
<polygon fill="white" stroke="#666666" points="266,-179 149,-179 149,-160 266,-160 266,-179"/>
<text text-anchor="middle" x="207.5" y="-167" font-family="Helvetica,sans-Serif" font-size="10.00">s_compute_pressure</text>
</a>
</g>
</g>
<!-- Node1&#45;&gt;Node2 -->
<g id="edge1_Node000001_Node000002" class="edge">
<title>Node1&#45;&gt;Node2</title>
<g id="a_edge1_Node000001_Node000002"><a xlink:title=" ">
<path fill="none" stroke="#63b8ff" d="M66.3,-93.02C82.26,-107.32 114.43,-134.38 146,-150.5 150.31,-152.7 154.92,-154.7 159.6,-156.52"/>
<polygon fill="#63b8ff" stroke="#63b8ff" points="158.65,-159.89 169.24,-159.96 161.01,-153.3 158.65,-159.89"/>
</a>
</g>
</g>
<!-- Node3 -->
<g id="Node000003" class="node">
<title>Node3</title>
<g id="a_Node000003"><a xlink:href="m__data__output_8fpp_8f90.html#ae249d3380b38c2174721a676b9c062cc" target="_top" xlink:title=" ">
<polygon fill="white" stroke="#666666" points="267,-141.5 148,-141.5 148,-111.5 267,-111.5 267,-141.5"/>
<text text-anchor="start" x="156" y="-129.5" font-family="Helvetica,sans-Serif" font-size="10.00">s_compute_speed_of</text>
<text text-anchor="middle" x="207.5" y="-118.5" font-family="Helvetica,sans-Serif" font-size="10.00">_sound</text>
</a>
</g>
</g>
<!-- Node1&#45;&gt;Node3 -->
<g id="edge2_Node000001_Node000003" class="edge">
<title>Node1&#45;&gt;Node3</title>
<g id="a_edge2_Node000001_Node000003"><a xlink:title=" ">
<path fill="none" stroke="#63b8ff" d="M89.4,-93.04C105.55,-97.66 125.47,-103.35 144.27,-108.72"/>
<polygon fill="#63b8ff" stroke="#63b8ff" points="143.4,-112.11 153.98,-111.49 145.32,-105.38 143.4,-112.11"/>
</a>
</g>
</g>
<!-- Node4 -->
<g id="Node000004" class="node">
<title>Node4</title>
<g id="a_Node000004"><a xlink:href="m__mpi__common_8fpp_8f90.html#ad9e1329e498b65ad4256658675d6f797" target="_top" xlink:title="The subroutine terminates the MPI execution environment.">
<polygon fill="white" stroke="#666666" points="246,-93 169,-93 169,-74 246,-74 246,-93"/>
<text text-anchor="middle" x="207.5" y="-81" font-family="Helvetica,sans-Serif" font-size="10.00">s_mpi_abort</text>
</a>
</g>
</g>
<!-- Node1&#45;&gt;Node4 -->
<g id="edge3_Node000001_Node000004" class="edge">
<title>Node1&#45;&gt;Node4</title>
<g id="a_edge3_Node000001_Node000004"><a xlink:title=" ">
<path fill="none" stroke="#63b8ff" d="M110.33,-83.5C126.07,-83.5 143.13,-83.5 158.45,-83.5"/>
<polygon fill="#63b8ff" stroke="#63b8ff" points="158.74,-87 168.74,-83.5 158.74,-80 158.74,-87"/>
</a>
</g>
</g>
<!-- Node5 -->
<g id="Node000005" class="node">
<title>Node5</title>
<g id="a_Node000005"><a xlink:href="m__mpi__common_8fpp_8f90.html#ace30ab3097bad7059bd466d05e862ca4" target="_top" xlink:title="The following subroutine takes the input local variable from all processors and reduces to the maximu...">
<polygon fill="white" stroke="#666666" points="269,-56 146,-56 146,-37 269,-37 269,-56"/>
<text text-anchor="middle" x="207.5" y="-44" font-family="Helvetica,sans-Serif" font-size="10.00">s_mpi_allreduce_max</text>
</a>
</g>
</g>
<!-- Node1&#45;&gt;Node5 -->
<g id="edge4_Node000001_Node000005" class="edge">
<title>Node1&#45;&gt;Node5</title>
<g id="a_edge4_Node000001_Node000005"><a xlink:title=" ">
<path fill="none" stroke="#63b8ff" d="M94.76,-73.97C113.99,-69.24 137.43,-63.48 157.86,-58.46"/>
<polygon fill="#63b8ff" stroke="#63b8ff" points="158.74,-61.85 167.61,-56.06 157.07,-55.05 158.74,-61.85"/>
</a>
</g>
</g>
<!-- Node6 -->
<g id="Node000006" class="node">
<title>Node6</title>
<g id="a_Node000006"><a xlink:href="m__mpi__common_8fpp_8f90.html#a32d9758a664e7f6d46ae5a503c57ac1f" target="_top" xlink:title="The following subroutine takes the input local variable from all processors and reduces to the sum of...">
<polygon fill="white" stroke="#666666" points="268.5,-19 146.5,-19 146.5,0 268.5,0 268.5,-19"/>
<text text-anchor="middle" x="207.5" y="-7" font-family="Helvetica,sans-Serif" font-size="10.00">s_mpi_allreduce_sum</text>
</a>
</g>
</g>
<!-- Node1&#45;&gt;Node6 -->
<g id="edge5_Node000001_Node000006" class="edge">
<title>Node1&#45;&gt;Node6</title>
<g id="a_edge5_Node000001_Node000006"><a xlink:title=" ">
<path fill="none" stroke="#63b8ff" d="M69.45,-73.83C86.55,-61.88 117.32,-41.53 146,-28.5 150.95,-26.25 156.24,-24.16 161.56,-22.26"/>
<polygon fill="#63b8ff" stroke="#63b8ff" points="162.74,-25.55 171.08,-19.03 160.49,-18.92 162.74,-25.55"/>
</a>
</g>
</g>
</g>
</svg>
</svg>

<style type='text/css'>
<![CDATA[
[data-mouse-over-selected='false'] { opacity: 0.7; }
[data-mouse-over-selected='true']  { opacity: 1.0; }
]]>
</style>
<script type="application/ecmascript"><![CDATA[
document.addEventListener('DOMContentLoaded', (event) => {
  highlightEdges();
  highlightAdjacentNodes();
});
]]></script>
</svg>
