<?xml version="1.0" encoding="UTF-8" standalone="no"?>
<!DOCTYPE svg PUBLIC "-//W3C//DTD SVG 1.1//EN"
 "http://www.w3.org/Graphics/SVG/1.1/DTD/svg11.dtd">
<!-- Generated by graphviz version 2.43.0 (0)
 -->
<!-- Title: s_write_run_time_information Pages: 1 -->
<svg width="383pt" height="257pt"
 viewBox="0.00 0.00 383.00 257.00" xmlns="http://www.w3.org/2000/svg" xmlns:xlink="http://www.w3.org/1999/xlink">

<svg id="main" version="1.1" xmlns="http://www.w3.org/2000/svg" xmlns:xlink="http://www.w3.org/1999/xlink" xml:space="preserve" onload="init(evt)">
<style type="text/css"><![CDATA[
.node, .edge {opacity: 0.7;}
.node.selected, .edge.selected {opacity: 1;}
.edge:hover path { stroke: red; }
.edge:hover polygon { stroke: red; fill: red; }
]]></style>
<script type="application/ecmascript" xlink:href="svg.min.js"/>
<svg id="graph" class="graph">
<g id="graph0" class="graph" transform="scale(1 1) rotate(0) translate(4 253)">
<title>s_write_run_time_information</title>
<!-- Node1 -->
<g id="Node000001" class="node">
<title>Node1</title>
<g id="a_Node000001"><a xlink:title="The goal of the procedure is to output to the run&#45;time information file the stability criteria extrem...">
<polygon fill="#999999" stroke="#666666" points="163,-125.5 0,-125.5 0,-106.5 163,-106.5 163,-125.5"/>
<text text-anchor="middle" x="81.5" y="-113.5" font-family="Helvetica,sans-Serif" font-size="10.00">s_write_run_time_information</text>
</a>
</g>
</g>
<!-- Node2 -->
<g id="Node000002" class="node">
<title>Node2</title>
<g id="a_Node000002"><a xlink:href="m__data__output_8fpp_8f90.html#ae249d3380b38c2174721a676b9c062cc" target="_top" xlink:title=" ">
<polygon fill="white" stroke="#666666" points="346.5,-249 227.5,-249 227.5,-219 346.5,-219 346.5,-249"/>
<text text-anchor="start" x="235.5" y="-237" font-family="Helvetica,sans-Serif" font-size="10.00">s_compute_speed_of</text>
<text text-anchor="middle" x="287" y="-226" font-family="Helvetica,sans-Serif" font-size="10.00">_sound</text>
</a>
</g>
</g>
<!-- Node1&#45;&gt;Node2 -->
<g id="edge1_Node000001_Node000002" class="edge">
<title>Node1&#45;&gt;Node2</title>
<g id="a_edge1_Node000001_Node000002"><a xlink:title=" ">
<path fill="none" stroke="#63b8ff" d="M91.51,-125.53C109.92,-144.44 153.91,-186.87 199,-210 204.9,-213.03 211.23,-215.71 217.68,-218.08"/>
<polygon fill="#63b8ff" stroke="#63b8ff" points="216.59,-221.41 227.19,-221.33 218.86,-214.78 216.59,-221.41"/>
</a>
</g>
</g>
<!-- Node3 -->
<g id="Node000003" class="node">
<title>Node3</title>
<g id="a_Node000003"><a xlink:href="m__variables__conversion_8fpp_8f90.html#a429dacb6b48479f387786642eb79900d" target="_top" xlink:title=" ">
<polygon fill="white" stroke="#666666" points="353,-201 221,-201 221,-171 353,-171 353,-201"/>
<text text-anchor="start" x="229" y="-189" font-family="Helvetica,sans-Serif" font-size="10.00">s_convert_species_to</text>
<text text-anchor="middle" x="287" y="-178" font-family="Helvetica,sans-Serif" font-size="10.00">_mixture_variables_acc</text>
</a>
</g>
</g>
<!-- Node1&#45;&gt;Node3 -->
<g id="edge2_Node000001_Node000003" class="edge">
<title>Node1&#45;&gt;Node3</title>
<g id="a_edge2_Node000001_Node000003"><a xlink:title=" ">
<path fill="none" stroke="#63b8ff" d="M104.57,-125.53C127.81,-135.38 165.59,-150.83 199,-162 205.29,-164.1 211.88,-166.17 218.49,-168.15"/>
<polygon fill="#63b8ff" stroke="#63b8ff" points="217.6,-171.53 228.18,-170.98 219.56,-164.81 217.6,-171.53"/>
</a>
</g>
</g>
<!-- Node4 -->
<g id="Node000004" class="node">
<title>Node4</title>
<g id="a_Node000004"><a xlink:href="m__variables__conversion_8fpp_8f90.html#ab5ef0fb6705f3250d70ca1d9d750952c" target="_top" xlink:title=" ">
<polygon fill="white" stroke="#666666" points="375,-153 199,-153 199,-123 375,-123 375,-153"/>
<text text-anchor="start" x="207" y="-141" font-family="Helvetica,sans-Serif" font-size="10.00">s_convert_species_to</text>
<text text-anchor="middle" x="287" y="-130" font-family="Helvetica,sans-Serif" font-size="10.00">_mixture_variables_bubbles_acc</text>
</a>
</g>
</g>
<!-- Node1&#45;&gt;Node4 -->
<g id="edge3_Node000001_Node000004" class="edge">
<title>Node1&#45;&gt;Node4</title>
<g id="a_edge3_Node000001_Node000004"><a xlink:title=" ">
<path fill="none" stroke="#63b8ff" d="M163.22,-124.73C171.6,-125.63 180.17,-126.56 188.7,-127.48"/>
<polygon fill="#63b8ff" stroke="#63b8ff" points="188.36,-130.97 198.68,-128.56 189.12,-124.01 188.36,-130.97"/>
</a>
</g>
</g>
<!-- Node5 -->
<g id="Node000005" class="node">
<title>Node5</title>
<g id="a_Node000005"><a xlink:href="m__mpi__common_8fpp_8f90.html#ad9e1329e498b65ad4256658675d6f797" target="_top" xlink:title="The subroutine terminates the MPI execution environment.">
<polygon fill="white" stroke="#666666" points="325.5,-104.5 248.5,-104.5 248.5,-85.5 325.5,-85.5 325.5,-104.5"/>
<text text-anchor="middle" x="287" y="-92.5" font-family="Helvetica,sans-Serif" font-size="10.00">s_mpi_abort</text>
</a>
</g>
</g>
<!-- Node1&#45;&gt;Node5 -->
<g id="edge4_Node000001_Node000005" class="edge">
<title>Node1&#45;&gt;Node5</title>
<g id="a_edge4_Node000001_Node000005"><a xlink:title=" ">
<path fill="none" stroke="#63b8ff" d="M163.22,-107.67C188.61,-105.05 215.82,-102.24 238.16,-99.94"/>
<polygon fill="#63b8ff" stroke="#63b8ff" points="238.79,-103.39 248.38,-98.88 238.07,-96.43 238.79,-103.39"/>
</a>
</g>
</g>
<!-- Node6 -->
<g id="Node000006" class="node">
<title>Node6</title>
<g id="a_Node000006"><a xlink:href="m__mpi__common_8fpp_8f90.html#ae966ace411b5ffbc9ebd5fed9f35da63" target="_top" xlink:title="Halts all processes until all have reached barrier.">
<polygon fill="white" stroke="#666666" points="328.5,-67.5 245.5,-67.5 245.5,-48.5 328.5,-48.5 328.5,-67.5"/>
<text text-anchor="middle" x="287" y="-55.5" font-family="Helvetica,sans-Serif" font-size="10.00">s_mpi_barrier</text>
</a>
</g>
</g>
<!-- Node1&#45;&gt;Node6 -->
<g id="edge5_Node000001_Node000006" class="edge">
<title>Node1&#45;&gt;Node6</title>
<g id="a_edge5_Node000001_Node000006"><a xlink:title=" ">
<path fill="none" stroke="#63b8ff" d="M108.62,-106.35C132.07,-97.91 167.54,-85.67 199,-77 210.76,-73.76 223.54,-70.71 235.58,-68.04"/>
<polygon fill="#63b8ff" stroke="#63b8ff" points="236.46,-71.43 245.5,-65.9 234.98,-64.59 236.46,-71.43"/>
</a>
</g>
</g>
<!-- Node7 -->
<g id="Node000007" class="node">
<title>Node7</title>
<g id="a_Node000007"><a xlink:href="m__mpi__common_8fpp_8f90.html#a99e735e37227935a07a9dbcf948878f6" target="_top" xlink:title="The goal of this subroutine is to determine the global extrema of the stability criteria in the compu...">
<polygon fill="white" stroke="#666666" points="351.5,-30 222.5,-30 222.5,0 351.5,0 351.5,-30"/>
<text text-anchor="start" x="230.5" y="-18" font-family="Helvetica,sans-Serif" font-size="10.00">s_mpi_reduce_stability</text>
<text text-anchor="middle" x="287" y="-7" font-family="Helvetica,sans-Serif" font-size="10.00">_criteria_extrema</text>
</a>
</g>
</g>
<!-- Node1&#45;&gt;Node7 -->
<g id="edge6_Node000001_Node000007" class="edge">
<title>Node1&#45;&gt;Node7</title>
<g id="a_edge6_Node000001_Node000007"><a xlink:title=" ">
<path fill="none" stroke="#63b8ff" d="M94.71,-106.25C115.16,-90.34 158.15,-58.68 199,-40 204.22,-37.61 209.72,-35.4 215.31,-33.36"/>
<polygon fill="#63b8ff" stroke="#63b8ff" points="216.48,-36.66 224.79,-30.08 214.19,-30.04 216.48,-36.66"/>
</a>
</g>
</g>
</g>
</svg>
</svg>

<style type='text/css'>
<![CDATA[
[data-mouse-over-selected='false'] { opacity: 0.7; }
[data-mouse-over-selected='true']  { opacity: 1.0; }
]]>
</style>
<script type="application/ecmascript"><![CDATA[
document.addEventListener('DOMContentLoaded', (event) => {
  highlightEdges();
  highlightAdjacentNodes();
});
]]></script>
</svg>
