<?xml version="1.0" encoding="UTF-8" standalone="no"?>
<!DOCTYPE svg PUBLIC "-//W3C//DTD SVG 1.1//EN"
 "http://www.w3.org/Graphics/SVG/1.1/DTD/svg11.dtd">
<!-- Generated by graphviz version 2.43.0 (0)
 -->
<!-- Title: s_close_probe_files Pages: 1 -->
<svg width="366pt" height="98pt"
 viewBox="0.00 0.00 366.00 97.50" xmlns="http://www.w3.org/2000/svg" xmlns:xlink="http://www.w3.org/1999/xlink">
<g id="graph0" class="graph" transform="scale(1 1) rotate(0) translate(4 93.5)">
<title>s_close_probe_files</title>
<!-- Node1 -->
<g id="Node000001" class="node">
<title>Node1</title>
<g id="a_Node000001"><a xlink:title="Closes probe files.">
<polygon fill="#999999" stroke="#666666" points="358,-57 247,-57 247,-38 358,-38 358,-57"/>
<text text-anchor="middle" x="302.5" y="-45" font-family="Helvetica,sans-Serif" font-size="10.00">s_close_probe_files</text>
</a>
</g>
</g>
<!-- Node2 -->
<g id="Node000002" class="node">
<title>Node2</title>
<g id="a_Node000002"><a xlink:href="m__data__output_8fpp_8f90.html#a979b8a2cf4215a8122fc461c0512dbba" target="_top" xlink:title=" ">
<polygon fill="white" stroke="#666666" points="211,-89.5 89,-89.5 89,-59.5 211,-59.5 211,-89.5"/>
<text text-anchor="start" x="97" y="-77.5" font-family="Helvetica,sans-Serif" font-size="10.00">__m_data_output_fpp</text>
<text text-anchor="middle" x="150" y="-66.5" font-family="Helvetica,sans-Serif" font-size="10.00">_f90__</text>
</a>
</g>
</g>
<!-- Node1&#45;&gt;Node2 -->
<g id="edge1_Node000001_Node000002" class="edge">
<title>Node1&#45;&gt;Node2</title>
<g id="a_edge1_Node000001_Node000002"><a xlink:title=" ">
<path fill="none" stroke="#63b8ff" d="M238.35,-58.83C229.3,-60.45 220.01,-62.12 211.02,-63.73"/>
<polygon fill="#63b8ff" stroke="#63b8ff" points="239.21,-62.23 248.44,-57.02 237.98,-55.34 239.21,-62.23"/>
</a>
</g>
</g>
<!-- Node3 -->
<g id="Node000003" class="node">
<title>Node3</title>
<g id="a_Node000003"><a xlink:href="namespacem__derived__variables.html#a735665bf598281689158d9d6e075f3d4" target="_top" xlink:title="Deallocation procedures for the module.">
<polygon fill="white" stroke="#666666" points="209.5,-41 90.5,-41 90.5,0 209.5,0 209.5,-41"/>
<text text-anchor="start" x="98.5" y="-29" font-family="Helvetica,sans-Serif" font-size="10.00">m_derived_variables</text>
<text text-anchor="start" x="98.5" y="-18" font-family="Helvetica,sans-Serif" font-size="10.00">::s_finalize_derived</text>
<text text-anchor="middle" x="150" y="-7" font-family="Helvetica,sans-Serif" font-size="10.00">_variables_module</text>
</a>
</g>
</g>
<!-- Node1&#45;&gt;Node3 -->
<g id="edge2_Node000001_Node000003" class="edge">
<title>Node1&#45;&gt;Node3</title>
<g id="a_edge2_Node000001_Node000003"><a xlink:title=" ">
<path fill="none" stroke="#63b8ff" d="M238.3,-36.16C228.83,-34.46 219.1,-32.72 209.73,-31.04"/>
<polygon fill="#63b8ff" stroke="#63b8ff" points="237.98,-39.66 248.44,-37.98 239.21,-32.77 237.98,-39.66"/>
</a>
</g>
</g>
<!-- Node4 -->
<g id="Node000004" class="node">
<title>Node4</title>
<g id="a_Node000004"><a xlink:href="p__main_8fpp_8f90.html#aeec10ee8e2940c953967da3e374e1579" target="_top" xlink:title="Quasi&#45;conservative, shock&#45; and interface&#45; capturing finite&#45;volume scheme for the multicomponent Navie...">
<polygon fill="white" stroke="#666666" points="53,-30 0,-30 0,-11 53,-11 53,-30"/>
<text text-anchor="middle" x="26.5" y="-18" font-family="Helvetica,sans-Serif" font-size="10.00">p_main</text>
</a>
</g>
</g>
<!-- Node3&#45;&gt;Node4 -->
<g id="edge3_Node000003_Node000004" class="edge">
<title>Node3&#45;&gt;Node4</title>
<g id="a_edge3_Node000003_Node000004"><a xlink:title=" ">
<path fill="none" stroke="#63b8ff" d="M80.26,-20.5C70.6,-20.5 61.22,-20.5 53.11,-20.5"/>
<polygon fill="#63b8ff" stroke="#63b8ff" points="80.39,-24 90.39,-20.5 80.39,-17 80.39,-24"/>
</a>
</g>
</g>
</g>
</svg>
