<?xml version="1.0" encoding="UTF-8" standalone="no"?>
<!DOCTYPE svg PUBLIC "-//W3C//DTD SVG 1.1//EN"
 "http://www.w3.org/Graphics/SVG/1.1/DTD/svg11.dtd">
<!-- Generated by graphviz version 2.43.0 (0)
 -->
<!-- Title: s_open_run_time_information_file Pages: 1 -->
<svg width="625pt" height="86pt"
 viewBox="0.00 0.00 625.00 86.00" xmlns="http://www.w3.org/2000/svg" xmlns:xlink="http://www.w3.org/1999/xlink">
<g id="graph0" class="graph" transform="scale(1 1) rotate(0) translate(4 82)">
<title>s_open_run_time_information_file</title>
<!-- Node1 -->
<g id="Node000001" class="node">
<title>Node1</title>
<g id="a_Node000001"><a xlink:title="The purpose of this subroutine is to open a new or pre&#45; existing run&#45;time information file and append...">
<polygon fill="#999999" stroke="#666666" points="617,-48.5 435,-48.5 435,-29.5 617,-29.5 617,-48.5"/>
<text text-anchor="middle" x="526" y="-36.5" font-family="Helvetica,sans-Serif" font-size="10.00">s_open_run_time_information_file</text>
</a>
</g>
</g>
<!-- Node2 -->
<g id="Node000002" class="node">
<title>Node2</title>
<g id="a_Node000002"><a xlink:href="m__data__output_8fpp_8f90.html#a979b8a2cf4215a8122fc461c0512dbba" target="_top" xlink:title=" ">
<polygon fill="white" stroke="#666666" points="388,-78 266,-78 266,-48 388,-48 388,-78"/>
<text text-anchor="start" x="274" y="-66" font-family="Helvetica,sans-Serif" font-size="10.00">__m_data_output_fpp</text>
<text text-anchor="middle" x="327" y="-55" font-family="Helvetica,sans-Serif" font-size="10.00">_f90__</text>
</a>
</g>
</g>
<!-- Node1&#45;&gt;Node2 -->
<g id="edge1_Node000001_Node000002" class="edge">
<title>Node1&#45;&gt;Node2</title>
<g id="a_edge1_Node000001_Node000002"><a xlink:title=" ">
<path fill="none" stroke="#63b8ff" d="M436.69,-49.76C420.26,-51.76 403.45,-53.81 388.11,-55.68"/>
<polygon fill="#63b8ff" stroke="#63b8ff" points="437.35,-53.2 446.86,-48.52 436.51,-46.26 437.35,-53.2"/>
</a>
</g>
</g>
<!-- Node3 -->
<g id="Node000003" class="node">
<title>Node3</title>
<g id="a_Node000003"><a xlink:href="m__time__steppers_8fpp_8f90.html#aba3db890fdc8e1e0a406ba5877ef5fa7" target="_top" xlink:title="The computation of parameters, the allocation of memory, the association of pointers and/or the execu...">
<polygon fill="white" stroke="#666666" points="399,-30 255,-30 255,0 399,0 399,-30"/>
<text text-anchor="start" x="263" y="-18" font-family="Helvetica,sans-Serif" font-size="10.00">s_initialize_time_steppers</text>
<text text-anchor="middle" x="327" y="-7" font-family="Helvetica,sans-Serif" font-size="10.00">_module</text>
</a>
</g>
</g>
<!-- Node1&#45;&gt;Node3 -->
<g id="edge2_Node000001_Node000003" class="edge">
<title>Node1&#45;&gt;Node3</title>
<g id="a_edge2_Node000001_Node000003"><a xlink:title=" ">
<path fill="none" stroke="#63b8ff" d="M436.78,-28.25C424.14,-26.71 411.27,-25.14 399.01,-23.65"/>
<polygon fill="#63b8ff" stroke="#63b8ff" points="436.51,-31.74 446.86,-29.48 437.35,-24.8 436.51,-31.74"/>
</a>
</g>
</g>
<!-- Node4 -->
<g id="Node000004" class="node">
<title>Node4</title>
<g id="a_Node000004"><a xlink:href="namespacem__start__up.html#a3745654d013067a8c4fd89f50598674c" target="_top" xlink:title=" ">
<polygon fill="white" stroke="#666666" points="219,-30 89,-30 89,0 219,0 219,-30"/>
<text text-anchor="start" x="97" y="-18" font-family="Helvetica,sans-Serif" font-size="10.00">m_start_up::s_initialize</text>
<text text-anchor="middle" x="154" y="-7" font-family="Helvetica,sans-Serif" font-size="10.00">_modules</text>
</a>
</g>
</g>
<!-- Node3&#45;&gt;Node4 -->
<g id="edge3_Node000003_Node000004" class="edge">
<title>Node3&#45;&gt;Node4</title>
<g id="a_edge3_Node000003_Node000004"><a xlink:title=" ">
<path fill="none" stroke="#63b8ff" d="M244.91,-15C236.3,-15 227.63,-15 219.25,-15"/>
<polygon fill="#63b8ff" stroke="#63b8ff" points="244.97,-18.5 254.97,-15 244.97,-11.5 244.97,-18.5"/>
</a>
</g>
</g>
<!-- Node5 -->
<g id="Node000005" class="node">
<title>Node5</title>
<g id="a_Node000005"><a xlink:href="p__main_8fpp_8f90.html#aeec10ee8e2940c953967da3e374e1579" target="_top" xlink:title="Quasi&#45;conservative, shock&#45; and interface&#45; capturing finite&#45;volume scheme for the multicomponent Navie...">
<polygon fill="white" stroke="#666666" points="53,-24.5 0,-24.5 0,-5.5 53,-5.5 53,-24.5"/>
<text text-anchor="middle" x="26.5" y="-12.5" font-family="Helvetica,sans-Serif" font-size="10.00">p_main</text>
</a>
</g>
</g>
<!-- Node4&#45;&gt;Node5 -->
<g id="edge4_Node000004_Node000005" class="edge">
<title>Node4&#45;&gt;Node5</title>
<g id="a_edge4_Node000004_Node000005"><a xlink:title=" ">
<path fill="none" stroke="#63b8ff" d="M78.74,-15C69.58,-15 60.76,-15 53.09,-15"/>
<polygon fill="#63b8ff" stroke="#63b8ff" points="78.78,-18.5 88.78,-15 78.78,-11.5 78.78,-18.5"/>
</a>
</g>
</g>
</g>
</svg>
