<?xml version="1.0" encoding="UTF-8" standalone="no"?>
<!DOCTYPE svg PUBLIC "-//W3C//DTD SVG 1.1//EN"
 "http://www.w3.org/Graphics/SVG/1.1/DTD/svg11.dtd">
<!-- Generated by graphviz version 2.43.0 (0)
 -->
<!-- Title: s_finalize_fftw_module Pages: 1 -->
<svg width="285pt" height="64pt"
 viewBox="0.00 0.00 285.00 64.00" xmlns="http://www.w3.org/2000/svg" xmlns:xlink="http://www.w3.org/1999/xlink">
<g id="graph0" class="graph" transform="scale(1 1) rotate(0) translate(4 60)">
<title>s_finalize_fftw_module</title>
<!-- Node1 -->
<g id="Node000001" class="node">
<title>Node1</title>
<g id="a_Node000001"><a xlink:title="The purpose of this subroutine is to destroy the fftw plan that will be used in the forward and backw...">
<polygon fill="#999999" stroke="#666666" points="277,-37 149,-37 149,-18 277,-18 277,-37"/>
<text text-anchor="middle" x="213" y="-25" font-family="Helvetica,sans-Serif" font-size="10.00">s_finalize_fftw_module</text>
</a>
</g>
</g>
<!-- Node2 -->
<g id="Node000002" class="node">
<title>Node2</title>
<g id="a_Node000002"><a xlink:href="m__fftw_8fpp_8f90.html#a95aff8b19cde2704bb340f70f90dea14" target="_top" xlink:title=" ">
<polygon fill="white" stroke="#666666" points="113,-56 0,-56 0,-37 113,-37 113,-56"/>
<text text-anchor="middle" x="56.5" y="-44" font-family="Helvetica,sans-Serif" font-size="10.00">__m_fftw_fpp_f90__</text>
</a>
</g>
</g>
<!-- Node1&#45;&gt;Node2 -->
<g id="edge1_Node000001_Node000002" class="edge">
<title>Node1&#45;&gt;Node2</title>
<g id="a_edge1_Node000001_Node000002"><a xlink:title=" ">
<path fill="none" stroke="#63b8ff" d="M138.65,-36.52C130.03,-37.58 121.34,-38.65 113.02,-39.67"/>
<polygon fill="#63b8ff" stroke="#63b8ff" points="139.22,-39.98 148.71,-35.28 138.36,-33.03 139.22,-39.98"/>
</a>
</g>
</g>
<!-- Node3 -->
<g id="Node000003" class="node">
<title>Node3</title>
<g id="a_Node000003"><a xlink:href="p__main_8fpp_8f90.html#aeec10ee8e2940c953967da3e374e1579" target="_top" xlink:title="Quasi&#45;conservative, shock&#45; and interface&#45; capturing finite&#45;volume scheme for the multicomponent Navie...">
<polygon fill="white" stroke="#666666" points="83,-19 30,-19 30,0 83,0 83,-19"/>
<text text-anchor="middle" x="56.5" y="-7" font-family="Helvetica,sans-Serif" font-size="10.00">p_main</text>
</a>
</g>
</g>
<!-- Node1&#45;&gt;Node3 -->
<g id="edge2_Node000001_Node000003" class="edge">
<title>Node1&#45;&gt;Node3</title>
<g id="a_edge2_Node000001_Node000003"><a xlink:title=" ">
<path fill="none" stroke="#63b8ff" d="M138.66,-18.96C118.71,-16.63 98.42,-14.27 83.11,-12.48"/>
<polygon fill="#63b8ff" stroke="#63b8ff" points="138.38,-22.45 148.71,-20.13 139.19,-15.49 138.38,-22.45"/>
</a>
</g>
</g>
</g>
</svg>
