<?xml version="1.0" encoding="UTF-8" standalone="no"?>
<!DOCTYPE svg PUBLIC "-//W3C//DTD SVG 1.1//EN"
 "http://www.w3.org/Graphics/SVG/1.1/DTD/svg11.dtd">
<!-- Generated by graphviz version 2.43.0 (0)
 -->
<!-- Title: __m_hypoelastic_fpp_f90__ Pages: 1 -->
<svg width="315pt" height="76pt"
 viewBox="0.00 0.00 315.00 75.50" xmlns="http://www.w3.org/2000/svg" xmlns:xlink="http://www.w3.org/1999/xlink">
<g id="graph0" class="graph" transform="scale(1 1) rotate(0) translate(4 71.5)">
<title>__m_hypoelastic_fpp_f90__</title>
<!-- Node1 -->
<g id="Node000001" class="node">
<title>Node1</title>
<g id="a_Node000001"><a xlink:title=" ">
<polygon fill="#999999" stroke="#666666" points="119,-51 0,-51 0,-21 119,-21 119,-51"/>
<text text-anchor="start" x="8" y="-39" font-family="Helvetica,sans-Serif" font-size="10.00">__m_hypoelastic_fpp</text>
<text text-anchor="middle" x="59.5" y="-28" font-family="Helvetica,sans-Serif" font-size="10.00">_f90__</text>
</a>
</g>
</g>
<!-- Node2 -->
<g id="Node000002" class="node">
<title>Node2</title>
<g id="a_Node000002"><a xlink:href="m__hypoelastic_8fpp_8f90.html#aea16ad050a56ec1f6d8f7db69665d01e" target="_top" xlink:title="The purpose of this procedure is to compute the source terms that are needed for the elastic stress e...">
<polygon fill="white" stroke="#666666" points="307,-67.5 155,-67.5 155,-48.5 307,-48.5 307,-67.5"/>
<text text-anchor="middle" x="231" y="-55.5" font-family="Helvetica,sans-Serif" font-size="10.00">s_compute_hypoelastic_rhs</text>
</a>
</g>
</g>
<!-- Node1&#45;&gt;Node2 -->
<g id="edge1_Node000001_Node000002" class="edge">
<title>Node1&#45;&gt;Node2</title>
<g id="a_edge1_Node000001_Node000002"><a xlink:title=" ">
<path fill="none" stroke="#63b8ff" d="M119.31,-43.63C128.15,-44.78 137.42,-45.98 146.66,-47.18"/>
<polygon fill="#63b8ff" stroke="#63b8ff" points="146.29,-50.66 156.66,-48.48 147.2,-43.72 146.29,-50.66"/>
</a>
</g>
</g>
<!-- Node3 -->
<g id="Node000003" class="node">
<title>Node3</title>
<g id="a_Node000003"><a xlink:href="m__hypoelastic_8fpp_8f90.html#a5466ce2b3edb9f68d2a8411a6f53ceb5" target="_top" xlink:title=" ">
<polygon fill="white" stroke="#666666" points="296.5,-30 165.5,-30 165.5,0 296.5,0 296.5,-30"/>
<text text-anchor="start" x="173.5" y="-18" font-family="Helvetica,sans-Serif" font-size="10.00">s_initialize_hypoelastic</text>
<text text-anchor="middle" x="231" y="-7" font-family="Helvetica,sans-Serif" font-size="10.00">_module</text>
</a>
</g>
</g>
<!-- Node1&#45;&gt;Node3 -->
<g id="edge2_Node000001_Node000003" class="edge">
<title>Node1&#45;&gt;Node3</title>
<g id="a_edge2_Node000001_Node000003"><a xlink:title=" ">
<path fill="none" stroke="#63b8ff" d="M119.31,-28.71C130.89,-27.28 143.18,-25.76 155.2,-24.27"/>
<polygon fill="#63b8ff" stroke="#63b8ff" points="155.72,-27.73 165.22,-23.03 154.86,-20.78 155.72,-27.73"/>
</a>
</g>
</g>
</g>
</svg>
