<?xml version="1.0" encoding="UTF-8" standalone="no"?>
<!DOCTYPE svg PUBLIC "-//W3C//DTD SVG 1.1//EN"
 "http://www.w3.org/Graphics/SVG/1.1/DTD/svg11.dtd">
<!-- Generated by graphviz version 2.43.0 (0)
 -->
<!-- Title: s_compute_hypoelastic_rhs Pages: 1 -->
<svg width="552pt" height="138pt"
 viewBox="0.00 0.00 552.00 138.00" xmlns="http://www.w3.org/2000/svg" xmlns:xlink="http://www.w3.org/1999/xlink">
<g id="graph0" class="graph" transform="scale(1 1) rotate(0) translate(4 134)">
<title>s_compute_hypoelastic_rhs</title>
<!-- Node1 -->
<g id="Node000001" class="node">
<title>Node1</title>
<g id="a_Node000001"><a xlink:title="The purpose of this procedure is to compute the source terms that are needed for the elastic stress e...">
<polygon fill="#999999" stroke="#666666" points="544,-95 392,-95 392,-76 544,-76 544,-95"/>
<text text-anchor="middle" x="468" y="-83" font-family="Helvetica,sans-Serif" font-size="10.00">s_compute_hypoelastic_rhs</text>
</a>
</g>
</g>
<!-- Node2 -->
<g id="Node000002" class="node">
<title>Node2</title>
<g id="a_Node000002"><a xlink:href="m__hypoelastic_8fpp_8f90.html#a9182fe9130f09d3b7278f9daaf5ad8e1" target="_top" xlink:title=" ">
<polygon fill="white" stroke="#666666" points="356,-122.5 237,-122.5 237,-92.5 356,-92.5 356,-122.5"/>
<text text-anchor="start" x="245" y="-110.5" font-family="Helvetica,sans-Serif" font-size="10.00">__m_hypoelastic_fpp</text>
<text text-anchor="middle" x="296.5" y="-99.5" font-family="Helvetica,sans-Serif" font-size="10.00">_f90__</text>
</a>
</g>
</g>
<!-- Node1&#45;&gt;Node2 -->
<g id="edge1_Node000001_Node000002" class="edge">
<title>Node1&#45;&gt;Node2</title>
<g id="a_edge1_Node000001_Node000002"><a xlink:title=" ">
<path fill="none" stroke="#63b8ff" d="M383.61,-96.32C374.34,-97.53 365.04,-98.73 356.17,-99.89"/>
<polygon fill="#63b8ff" stroke="#63b8ff" points="384.17,-99.78 393.64,-95.02 383.27,-92.84 384.17,-99.78"/>
</a>
</g>
</g>
<!-- Node3 -->
<g id="Node000003" class="node">
<title>Node3</title>
<g id="a_Node000003"><a xlink:href="m__rhs_8fpp_8f90.html#a8522bdf311a42fe6ff7f2b433656573f" target="_top" xlink:title=" ">
<polygon fill="white" stroke="#666666" points="341.5,-74 251.5,-74 251.5,-55 341.5,-55 341.5,-74"/>
<text text-anchor="middle" x="296.5" y="-62" font-family="Helvetica,sans-Serif" font-size="10.00">s_compute_rhs</text>
</a>
</g>
</g>
<!-- Node1&#45;&gt;Node3 -->
<g id="edge2_Node000001_Node000003" class="edge">
<title>Node1&#45;&gt;Node3</title>
<g id="a_edge2_Node000001_Node000003"><a xlink:title=" ">
<path fill="none" stroke="#63b8ff" d="M381.58,-74.92C367.7,-73.2 353.85,-71.48 341.5,-69.95"/>
<polygon fill="#63b8ff" stroke="#63b8ff" points="381.31,-78.41 391.67,-76.17 382.17,-71.46 381.31,-78.41"/>
</a>
</g>
</g>
<!-- Node4 -->
<g id="Node000004" class="node">
<title>Node4</title>
<g id="a_Node000004"><a xlink:href="m__rhs_8fpp_8f90.html#a87616394067f1273cd06c4d299d10add" target="_top" xlink:title=" ">
<polygon fill="white" stroke="#666666" points="200,-130 90,-130 90,-111 200,-111 200,-130"/>
<text text-anchor="middle" x="145" y="-118" font-family="Helvetica,sans-Serif" font-size="10.00">__m_rhs_fpp_f90__</text>
</a>
</g>
</g>
<!-- Node3&#45;&gt;Node4 -->
<g id="edge3_Node000003_Node000004" class="edge">
<title>Node3&#45;&gt;Node4</title>
<g id="a_edge3_Node000003_Node000004"><a xlink:title=" ">
<path fill="none" stroke="#63b8ff" d="M252.97,-77.36C247.54,-79.28 242.1,-81.34 237,-83.5 220.34,-90.54 217.66,-95.44 201,-102.5 193.78,-105.56 185.86,-108.42 178.33,-110.93"/>
<polygon fill="#63b8ff" stroke="#63b8ff" points="254.3,-80.61 262.65,-74.08 252.05,-73.98 254.3,-80.61"/>
</a>
</g>
</g>
<!-- Node5 -->
<g id="Node000005" class="node">
<title>Node5</title>
<g id="a_Node000005"><a xlink:href="m__time__steppers_8fpp_8f90.html#af409df8df1b374744d8c379e7e7dba0b" target="_top" xlink:title="1st order TVD RK time&#45;stepping algorithm">
<polygon fill="white" stroke="#666666" points="199.5,-93 90.5,-93 90.5,-74 199.5,-74 199.5,-93"/>
<text text-anchor="middle" x="145" y="-81" font-family="Helvetica,sans-Serif" font-size="10.00">s_1st_order_tvd_rk</text>
</a>
</g>
</g>
<!-- Node3&#45;&gt;Node5 -->
<g id="edge4_Node000003_Node000005" class="edge">
<title>Node3&#45;&gt;Node5</title>
<g id="a_edge4_Node000003_Node000005"><a xlink:title=" ">
<path fill="none" stroke="#63b8ff" d="M241.28,-71.39C227.67,-73.12 213.09,-74.97 199.52,-76.7"/>
<polygon fill="#63b8ff" stroke="#63b8ff" points="241.97,-74.83 251.45,-70.1 241.09,-67.89 241.97,-74.83"/>
</a>
</g>
</g>
<!-- Node7 -->
<g id="Node000007" class="node">
<title>Node7</title>
<g id="a_Node000007"><a xlink:href="m__time__steppers_8fpp_8f90.html#a2847bfea6f3dc3fdae115a99009f7245" target="_top" xlink:title="2nd order TVD RK time&#45;stepping algorithm">
<polygon fill="white" stroke="#666666" points="201,-56 89,-56 89,-37 201,-37 201,-56"/>
<text text-anchor="middle" x="145" y="-44" font-family="Helvetica,sans-Serif" font-size="10.00">s_2nd_order_tvd_rk</text>
</a>
</g>
</g>
<!-- Node3&#45;&gt;Node7 -->
<g id="edge6_Node000003_Node000007" class="edge">
<title>Node3&#45;&gt;Node7</title>
<g id="a_edge6_Node000003_Node000007"><a xlink:title=" ">
<path fill="none" stroke="#63b8ff" d="M241.22,-57.96C228.17,-56.39 214.23,-54.71 201.14,-53.14"/>
<polygon fill="#63b8ff" stroke="#63b8ff" points="241.11,-61.48 251.45,-59.2 241.94,-54.53 241.11,-61.48"/>
</a>
</g>
</g>
<!-- Node8 -->
<g id="Node000008" class="node">
<title>Node8</title>
<g id="a_Node000008"><a xlink:href="m__time__steppers_8fpp_8f90.html#ad642c094881f0cffbb6158f9fa079a86" target="_top" xlink:title="3rd order TVD RK time&#45;stepping algorithm">
<polygon fill="white" stroke="#666666" points="200,-19 90,-19 90,0 200,0 200,-19"/>
<text text-anchor="middle" x="145" y="-7" font-family="Helvetica,sans-Serif" font-size="10.00">s_3rd_order_tvd_rk</text>
</a>
</g>
</g>
<!-- Node3&#45;&gt;Node8 -->
<g id="edge8_Node000003_Node000008" class="edge">
<title>Node3&#45;&gt;Node8</title>
<g id="a_edge8_Node000003_Node000008"><a xlink:title=" ">
<path fill="none" stroke="#63b8ff" d="M261.63,-51.3C243.66,-44.38 221.19,-35.83 201,-28.5 192.36,-25.36 182.91,-22.05 174.32,-19.09"/>
<polygon fill="#63b8ff" stroke="#63b8ff" points="260.51,-54.62 271.1,-54.97 263.04,-48.09 260.51,-54.62"/>
</a>
</g>
</g>
<!-- Node6 -->
<g id="Node000006" class="node">
<title>Node6</title>
<g id="a_Node000006"><a xlink:href="p__main_8fpp_8f90.html#aeec10ee8e2940c953967da3e374e1579" target="_top" xlink:title="Quasi&#45;conservative, shock&#45; and interface&#45; capturing finite&#45;volume scheme for the multicomponent Navie...">
<polygon fill="white" stroke="#666666" points="53,-56 0,-56 0,-37 53,-37 53,-56"/>
<text text-anchor="middle" x="26.5" y="-44" font-family="Helvetica,sans-Serif" font-size="10.00">p_main</text>
</a>
</g>
</g>
<!-- Node5&#45;&gt;Node6 -->
<g id="edge5_Node000005_Node000006" class="edge">
<title>Node5&#45;&gt;Node6</title>
<g id="a_edge5_Node000005_Node000006"><a xlink:title=" ">
<path fill="none" stroke="#63b8ff" d="M104.34,-70.9C87.38,-65.52 68.07,-59.39 53.06,-54.62"/>
<polygon fill="#63b8ff" stroke="#63b8ff" points="103.41,-74.28 114,-73.97 105.53,-67.61 103.41,-74.28"/>
</a>
</g>
</g>
<!-- Node7&#45;&gt;Node6 -->
<g id="edge7_Node000007_Node000006" class="edge">
<title>Node7&#45;&gt;Node6</title>
<g id="a_edge7_Node000007_Node000006"><a xlink:title=" ">
<path fill="none" stroke="#63b8ff" d="M78.6,-46.5C69.59,-46.5 60.81,-46.5 53.15,-46.5"/>
<polygon fill="#63b8ff" stroke="#63b8ff" points="78.82,-50 88.82,-46.5 78.82,-43 78.82,-50"/>
</a>
</g>
</g>
<!-- Node8&#45;&gt;Node6 -->
<g id="edge9_Node000008_Node000006" class="edge">
<title>Node8&#45;&gt;Node6</title>
<g id="a_edge9_Node000008_Node000006"><a xlink:title=" ">
<path fill="none" stroke="#63b8ff" d="M104.34,-22.1C87.38,-27.48 68.07,-33.61 53.06,-38.38"/>
<polygon fill="#63b8ff" stroke="#63b8ff" points="105.53,-25.39 114,-19.03 103.41,-18.72 105.53,-25.39"/>
</a>
</g>
</g>
</g>
</svg>
