<?xml version="1.0" encoding="UTF-8" standalone="no"?>
<!DOCTYPE svg PUBLIC "-//W3C//DTD SVG 1.1//EN"
 "http://www.w3.org/Graphics/SVG/1.1/DTD/svg11.dtd">
<!-- Generated by graphviz version 2.43.0 (0)
 -->
<!-- Title: s_mpi_abort Pages: 1 -->
<svg width="575pt" height="541pt"
 viewBox="0.00 0.00 575.00 540.92" xmlns="http://www.w3.org/2000/svg" xmlns:xlink="http://www.w3.org/1999/xlink">
<g id="graph0" class="graph" transform="scale(1 1) rotate(0) translate(4 536.92)">
<title>s_mpi_abort</title>
<!-- Node1 -->
<g id="Node000001" class="node">
<title>Node1</title>
<g id="a_Node000001"><a xlink:title="The subroutine terminates the MPI execution environment.">
<polygon fill="#999999" stroke="#666666" points="567,-348 490,-348 490,-329 567,-329 567,-348"/>
<text text-anchor="middle" x="528.5" y="-336" font-family="Helvetica,sans-Serif" font-size="10.00">s_mpi_abort</text>
</a>
</g>
</g>
<!-- Node2 -->
<g id="Node000002" class="node">
<title>Node2</title>
<g id="a_Node000002"><a xlink:href="namespacem__start__up.html#ab5f7e03f1da1999ee699cec4f26370e0" target="_top" xlink:title="The goal of this procedure is to verify that each of the user provided inputs is valid and that their...">
<polygon fill="white" stroke="#666666" points="220,-497.5 104,-497.5 104,-467.5 220,-467.5 220,-497.5"/>
<text text-anchor="start" x="112" y="-485.5" font-family="Helvetica,sans-Serif" font-size="10.00">m_start_up::s_check</text>
<text text-anchor="middle" x="162" y="-474.5" font-family="Helvetica,sans-Serif" font-size="10.00">_input_file</text>
</a>
</g>
</g>
<!-- Node1&#45;&gt;Node2 -->
<g id="edge1_Node000001_Node000002" class="edge">
<title>Node1&#45;&gt;Node2</title>
<g id="a_edge1_Node000001_Node000002"><a xlink:title=" ">
<path fill="none" stroke="#63b8ff" d="M525.62,-358.41C520.94,-395.17 505.19,-473.02 454,-506.5 374.03,-558.8 254.05,-521.07 196.35,-497.53"/>
<polygon fill="#63b8ff" stroke="#63b8ff" points="529.1,-358.74 526.74,-348.41 522.14,-357.96 529.1,-358.74"/>
</a>
</g>
</g>
<!-- Node4 -->
<g id="Node000004" class="node">
<title>Node4</title>
<g id="a_Node000004"><a xlink:href="namespacem__checker.html#af3af1277501908ef5a97721ebf04061f" target="_top" xlink:title=" ">
<polygon fill="white" stroke="#666666" points="419.5,-497.5 305.5,-497.5 305.5,-467.5 419.5,-467.5 419.5,-497.5"/>
<text text-anchor="start" x="313.5" y="-485.5" font-family="Helvetica,sans-Serif" font-size="10.00">m_checker::s_check</text>
<text text-anchor="middle" x="362.5" y="-474.5" font-family="Helvetica,sans-Serif" font-size="10.00">_inputs</text>
</a>
</g>
</g>
<!-- Node1&#45;&gt;Node4 -->
<g id="edge3_Node000001_Node000004" class="edge">
<title>Node1&#45;&gt;Node4</title>
<g id="a_edge3_Node000001_Node000004"><a xlink:title=" ">
<path fill="none" stroke="#63b8ff" d="M520.96,-357.75C510.87,-384.48 488.94,-432.47 454,-458.5 443.96,-465.98 431.78,-471.13 419.64,-474.67"/>
<polygon fill="#63b8ff" stroke="#63b8ff" points="524.25,-358.92 524.35,-348.33 517.67,-356.55 524.25,-358.92"/>
</a>
</g>
</g>
<!-- Node5 -->
<g id="Node000005" class="node">
<title>Node5</title>
<g id="a_Node000005"><a xlink:href="m__variables__conversion_8fpp_8f90.html#a5bc6f1a313312f4085accb9a1c224b99" target="_top" xlink:title="The following procedure handles the conversion between the primitive variables and the conservative v...">
<polygon fill="white" stroke="#666666" points="437.5,-449.5 287.5,-449.5 287.5,-419.5 437.5,-419.5 437.5,-449.5"/>
<text text-anchor="start" x="295.5" y="-437.5" font-family="Helvetica,sans-Serif" font-size="10.00">s_convert_primitive</text>
<text text-anchor="middle" x="362.5" y="-426.5" font-family="Helvetica,sans-Serif" font-size="10.00">_to_conservative_variables</text>
</a>
</g>
</g>
<!-- Node1&#45;&gt;Node5 -->
<g id="edge5_Node000001_Node000005" class="edge">
<title>Node1&#45;&gt;Node5</title>
<g id="a_edge5_Node000001_Node000005"><a xlink:title=" ">
<path fill="none" stroke="#63b8ff" d="M513.95,-356.27C500.48,-372.71 478.37,-396.64 454,-410.5 447.92,-413.96 441.34,-416.93 434.58,-419.48"/>
<polygon fill="#63b8ff" stroke="#63b8ff" points="517.02,-358.03 520.5,-348.02 511.54,-353.68 517.02,-358.03"/>
</a>
</g>
</g>
<!-- Node7 -->
<g id="Node000007" class="node">
<title>Node7</title>
<g id="a_Node000007"><a xlink:href="m__mpi__proxy_8fpp_8f90.html#ada41964cbc5982321a9421444a0f3d54" target="_top" xlink:title="The purpose of this procedure is to optimally decompose the computational domain among the available ...">
<polygon fill="white" stroke="#666666" points="454,-401.5 271,-401.5 271,-371.5 454,-371.5 454,-401.5"/>
<text text-anchor="start" x="279" y="-389.5" font-family="Helvetica,sans-Serif" font-size="10.00">s_mpi_decompose_computational</text>
<text text-anchor="middle" x="362.5" y="-378.5" font-family="Helvetica,sans-Serif" font-size="10.00">_domain</text>
</a>
</g>
</g>
<!-- Node1&#45;&gt;Node7 -->
<g id="edge7_Node000001_Node000007" class="edge">
<title>Node1&#45;&gt;Node7</title>
<g id="a_edge7_Node000001_Node000007"><a xlink:title=" ">
<path fill="none" stroke="#63b8ff" d="M489.67,-351.31C478.25,-355.05 465.65,-359.06 454,-362.5 443.71,-365.54 432.71,-368.61 422.05,-371.49"/>
<polygon fill="#63b8ff" stroke="#63b8ff" points="490.95,-354.57 499.35,-348.11 488.75,-347.92 490.95,-354.57"/>
</a>
</g>
</g>
<!-- Node8 -->
<g id="Node000008" class="node">
<title>Node8</title>
<g id="a_Node000008"><a xlink:href="namespacem__start__up.html#ae0571e78c0179c22d3811df31c33c321" target="_top" xlink:title="The purpose of this procedure is to first verify that an input file has been made available by the us...">
<polygon fill="white" stroke="#666666" points="417.5,-353.5 307.5,-353.5 307.5,-323.5 417.5,-323.5 417.5,-353.5"/>
<text text-anchor="start" x="315.5" y="-341.5" font-family="Helvetica,sans-Serif" font-size="10.00">m_start_up::s_read</text>
<text text-anchor="middle" x="362.5" y="-330.5" font-family="Helvetica,sans-Serif" font-size="10.00">_input_file</text>
</a>
</g>
</g>
<!-- Node1&#45;&gt;Node8 -->
<g id="edge9_Node000001_Node000008" class="edge">
<title>Node1&#45;&gt;Node8</title>
<g id="a_edge9_Node000001_Node000008"><a xlink:title=" ">
<path fill="none" stroke="#63b8ff" d="M479.74,-338.5C460.32,-338.5 437.77,-338.5 417.74,-338.5"/>
<polygon fill="#63b8ff" stroke="#63b8ff" points="479.88,-342 489.88,-338.5 479.88,-335 479.88,-342"/>
</a>
</g>
</g>
<!-- Node9 -->
<g id="Node000009" class="node">
<title>Node9</title>
<g id="a_Node000009"><a xlink:href="namespacem__start__up.html#a45c8fef6680263063a1c7d2fa1748013" target="_top" xlink:title=" ">
<polygon fill="white" stroke="#666666" points="418,-305.5 307,-305.5 307,-275.5 418,-275.5 418,-305.5"/>
<text text-anchor="start" x="315" y="-293.5" font-family="Helvetica,sans-Serif" font-size="10.00">m_start_up::s_read</text>
<text text-anchor="middle" x="362.5" y="-282.5" font-family="Helvetica,sans-Serif" font-size="10.00">_parallel_data_files</text>
</a>
</g>
</g>
<!-- Node1&#45;&gt;Node9 -->
<g id="edge11_Node000001_Node000009" class="edge">
<title>Node1&#45;&gt;Node9</title>
<g id="a_edge11_Node000001_Node000009"><a xlink:title=" ">
<path fill="none" stroke="#63b8ff" d="M489.67,-325.69C478.25,-321.95 465.65,-317.94 454,-314.5 442.46,-311.09 430.04,-307.65 418.2,-304.47"/>
<polygon fill="#63b8ff" stroke="#63b8ff" points="488.75,-329.08 499.35,-328.89 490.95,-322.43 488.75,-329.08"/>
</a>
</g>
</g>
<!-- Node11 -->
<g id="Node000011" class="node">
<title>Node11</title>
<g id="a_Node000011"><a xlink:href="namespacem__start__up.html#abd3c3fd9fbb80ef2ddaf82945c1c1af9" target="_top" xlink:title=" ">
<polygon fill="white" stroke="#666666" points="417.5,-257.5 307.5,-257.5 307.5,-227.5 417.5,-227.5 417.5,-257.5"/>
<text text-anchor="start" x="315.5" y="-245.5" font-family="Helvetica,sans-Serif" font-size="10.00">m_start_up::s_read</text>
<text text-anchor="middle" x="362.5" y="-234.5" font-family="Helvetica,sans-Serif" font-size="10.00">_serial_data_files</text>
</a>
</g>
</g>
<!-- Node1&#45;&gt;Node11 -->
<g id="edge15_Node000001_Node000011" class="edge">
<title>Node1&#45;&gt;Node11</title>
<g id="a_edge15_Node000001_Node000011"><a xlink:title=" ">
<path fill="none" stroke="#63b8ff" d="M513.95,-320.73C500.48,-304.29 478.37,-280.36 454,-266.5 442.98,-260.23 430.27,-255.55 417.93,-252.08"/>
<polygon fill="#63b8ff" stroke="#63b8ff" points="511.54,-323.32 520.5,-328.98 517.02,-318.97 511.54,-323.32"/>
</a>
</g>
</g>
<!-- Node12 -->
<g id="Node000012" class="node">
<title>Node12</title>
<g id="a_Node000012"><a xlink:href="m__data__output_8fpp_8f90.html#aefc508a7157b96fe6611e3874c97ee0b" target="_top" xlink:title="This writes a formatted data file for the flow probe information.">
<polygon fill="white" stroke="#666666" points="417.5,-190 307.5,-190 307.5,-171 417.5,-171 417.5,-190"/>
<text text-anchor="middle" x="362.5" y="-178" font-family="Helvetica,sans-Serif" font-size="10.00">s_write_probe_files</text>
</a>
</g>
</g>
<!-- Node1&#45;&gt;Node12 -->
<g id="edge18_Node000001_Node000012" class="edge">
<title>Node1&#45;&gt;Node12</title>
<g id="a_edge18_Node000001_Node000012"><a xlink:title=" ">
<path fill="none" stroke="#63b8ff" d="M520.13,-319.17C509.3,-293.07 486.75,-246.61 454,-218.5 438.48,-205.18 417.63,-196 399.85,-190"/>
<polygon fill="#63b8ff" stroke="#63b8ff" points="516.98,-320.71 523.94,-328.69 523.48,-318.11 516.98,-320.71"/>
</a>
</g>
</g>
<!-- Node15 -->
<g id="Node000015" class="node">
<title>Node15</title>
<g id="a_Node000015"><a xlink:href="m__data__output_8fpp_8f90.html#ac145ce5b1674f9df821653e1784a1bcf" target="_top" xlink:title="The goal of the procedure is to output to the run&#45;time information file the stability criteria extrem...">
<polygon fill="white" stroke="#666666" points="444,-93 281,-93 281,-74 444,-74 444,-93"/>
<text text-anchor="middle" x="362.5" y="-81" font-family="Helvetica,sans-Serif" font-size="10.00">s_write_run_time_information</text>
</a>
</g>
</g>
<!-- Node1&#45;&gt;Node15 -->
<g id="edge22_Node000001_Node000015" class="edge">
<title>Node1&#45;&gt;Node15</title>
<g id="a_edge22_Node000001_Node000015"><a xlink:title=" ">
<path fill="none" stroke="#63b8ff" d="M522.68,-319.21C513.48,-285.02 490.97,-212.58 454,-161.5 432.72,-132.1 398.24,-106.44 378.56,-93.15"/>
<polygon fill="#63b8ff" stroke="#63b8ff" points="519.29,-320.1 525.2,-328.89 526.07,-318.33 519.29,-320.1"/>
</a>
</g>
</g>
<!-- Node3 -->
<g id="Node000003" class="node">
<title>Node3</title>
<g id="a_Node000003"><a xlink:href="p__main_8fpp_8f90.html#aeec10ee8e2940c953967da3e374e1579" target="_top" xlink:title="Quasi&#45;conservative, shock&#45; and interface&#45; capturing finite&#45;volume scheme for the multicomponent Navie...">
<polygon fill="white" stroke="#666666" points="53,-260 0,-260 0,-241 53,-241 53,-260"/>
<text text-anchor="middle" x="26.5" y="-248" font-family="Helvetica,sans-Serif" font-size="10.00">p_main</text>
</a>
</g>
</g>
<!-- Node2&#45;&gt;Node3 -->
<g id="edge2_Node000002_Node000003" class="edge">
<title>Node2&#45;&gt;Node3</title>
<g id="a_edge2_Node000002_Node000003"><a xlink:title=" ">
<path fill="none" stroke="#63b8ff" d="M95.1,-463.88C92.93,-462.24 90.88,-460.45 89,-458.5 32.74,-400.28 27.6,-293.14 27.4,-260.32"/>
<polygon fill="#63b8ff" stroke="#63b8ff" points="93.68,-467.13 103.99,-469.53 97.43,-461.22 93.68,-467.13"/>
</a>
</g>
</g>
<!-- Node4&#45;&gt;Node2 -->
<g id="edge4_Node000004_Node000002" class="edge">
<title>Node4&#45;&gt;Node2</title>
<g id="a_edge4_Node000004_Node000002"><a xlink:title=" ">
<path fill="none" stroke="#63b8ff" d="M295.22,-482.5C270.96,-482.5 243.74,-482.5 220.33,-482.5"/>
<polygon fill="#63b8ff" stroke="#63b8ff" points="295.41,-486 305.41,-482.5 295.41,-479 295.41,-486"/>
</a>
</g>
</g>
<!-- Node6 -->
<g id="Node000006" class="node">
<title>Node6</title>
<g id="a_Node000006"><a xlink:href="m__variables__conversion_8fpp_8f90.html#a347ac5f0eb3158bfb1edcad667b6025c" target="_top" xlink:title=" ">
<polygon fill="white" stroke="#666666" points="235,-449.5 89,-449.5 89,-419.5 235,-419.5 235,-449.5"/>
<text text-anchor="start" x="97" y="-437.5" font-family="Helvetica,sans-Serif" font-size="10.00">__m_variables_conversion</text>
<text text-anchor="middle" x="162" y="-426.5" font-family="Helvetica,sans-Serif" font-size="10.00">_fpp_f90__</text>
</a>
</g>
</g>
<!-- Node5&#45;&gt;Node6 -->
<g id="edge6_Node000005_Node000006" class="edge">
<title>Node5&#45;&gt;Node6</title>
<g id="a_edge6_Node000005_Node000006"><a xlink:title=" ">
<path fill="none" stroke="#63b8ff" d="M277.2,-434.5C263.2,-434.5 248.79,-434.5 235.13,-434.5"/>
<polygon fill="#63b8ff" stroke="#63b8ff" points="277.3,-438 287.3,-434.5 277.3,-431 277.3,-438"/>
</a>
</g>
</g>
<!-- Node7&#45;&gt;Node3 -->
<g id="edge8_Node000007_Node000003" class="edge">
<title>Node7&#45;&gt;Node3</title>
<g id="a_edge8_Node000007_Node000003"><a xlink:title=" ">
<path fill="none" stroke="#63b8ff" d="M260.72,-392.34C205.99,-390.87 139.4,-381.12 89,-348.5 55.78,-327 37.27,-280.56 30.5,-260.29"/>
<polygon fill="#63b8ff" stroke="#63b8ff" points="260.74,-395.84 270.8,-392.53 260.86,-388.85 260.74,-395.84"/>
</a>
</g>
</g>
<!-- Node8&#45;&gt;Node3 -->
<g id="edge10_Node000008_Node000003" class="edge">
<title>Node8&#45;&gt;Node3</title>
<g id="a_edge10_Node000008_Node000003"><a xlink:title=" ">
<path fill="none" stroke="#63b8ff" d="M297.19,-346.8C239.66,-351.29 154.54,-350.52 89,-318.5 62.4,-305.5 41.99,-275.5 32.81,-260.06"/>
<polygon fill="#63b8ff" stroke="#63b8ff" points="297.58,-350.28 307.25,-345.94 296.99,-343.3 297.58,-350.28"/>
</a>
</g>
</g>
<!-- Node9&#45;&gt;Node3 -->
<g id="edge12_Node000009_Node000003" class="edge">
<title>Node9&#45;&gt;Node3</title>
<g id="a_edge12_Node000009_Node000003"><a xlink:title=" ">
<path fill="none" stroke="#63b8ff" d="M296.69,-303.94C240.3,-312.85 157.16,-319.17 89,-296.5 67.49,-289.35 47.43,-271.41 36.38,-260.16"/>
<polygon fill="#63b8ff" stroke="#63b8ff" points="297.6,-307.34 306.9,-302.25 296.46,-300.43 297.6,-307.34"/>
</a>
</g>
</g>
<!-- Node10 -->
<g id="Node000010" class="node">
<title>Node10</title>
<g id="a_Node000010"><a xlink:href="namespacem__start__up.html#a37202711d89d04cd18f08170ba608aa1" target="_top" xlink:title=" ">
<polygon fill="white" stroke="#666666" points="227,-287.5 97,-287.5 97,-257.5 227,-257.5 227,-287.5"/>
<text text-anchor="start" x="105" y="-275.5" font-family="Helvetica,sans-Serif" font-size="10.00">m_start_up::s_initialize</text>
<text text-anchor="middle" x="162" y="-264.5" font-family="Helvetica,sans-Serif" font-size="10.00">_start_up_module</text>
</a>
</g>
</g>
<!-- Node9&#45;&gt;Node10 -->
<g id="edge13_Node000009_Node000010" class="edge">
<title>Node9&#45;&gt;Node10</title>
<g id="a_edge13_Node000009_Node000010"><a xlink:title=" ">
<path fill="none" stroke="#63b8ff" d="M296.94,-284.65C274.59,-282.62 249.56,-280.35 227.24,-278.33"/>
<polygon fill="#63b8ff" stroke="#63b8ff" points="296.72,-288.14 307,-285.56 297.35,-281.17 296.72,-288.14"/>
</a>
</g>
</g>
<!-- Node10&#45;&gt;Node3 -->
<g id="edge14_Node000010_Node000003" class="edge">
<title>Node10&#45;&gt;Node3</title>
<g id="a_edge14_Node000010_Node000003"><a xlink:title=" ">
<path fill="none" stroke="#63b8ff" d="M86.81,-260.27C74.74,-258.28 62.99,-256.35 53.19,-254.73"/>
<polygon fill="#63b8ff" stroke="#63b8ff" points="86.55,-263.78 96.99,-261.95 87.69,-256.87 86.55,-263.78"/>
</a>
</g>
</g>
<!-- Node11&#45;&gt;Node3 -->
<g id="edge16_Node000011_Node000003" class="edge">
<title>Node11&#45;&gt;Node3</title>
<g id="a_edge16_Node000011_Node000003"><a xlink:title=" ">
<path fill="none" stroke="#63b8ff" d="M297.13,-243.73C241.91,-244.83 160.21,-246.56 89,-248.5 77.25,-248.82 64.25,-249.23 53.23,-249.6"/>
<polygon fill="#63b8ff" stroke="#63b8ff" points="297.54,-247.22 307.47,-243.52 297.4,-240.22 297.54,-247.22"/>
</a>
</g>
</g>
<!-- Node11&#45;&gt;Node10 -->
<g id="edge17_Node000011_Node000010" class="edge">
<title>Node11&#45;&gt;Node10</title>
<g id="a_edge17_Node000011_Node000010"><a xlink:title=" ">
<path fill="none" stroke="#63b8ff" d="M297.15,-252.23C274.68,-255.62 249.48,-259.43 227.04,-262.82"/>
<polygon fill="#63b8ff" stroke="#63b8ff" points="297.89,-255.65 307.26,-250.7 296.85,-248.73 297.89,-255.65"/>
</a>
</g>
</g>
<!-- Node13 -->
<g id="Node000013" class="node">
<title>Node13</title>
<g id="a_Node000013"><a xlink:href="m__data__output_8fpp_8f90.html#a979b8a2cf4215a8122fc461c0512dbba" target="_top" xlink:title=" ">
<polygon fill="white" stroke="#666666" points="223,-141.5 101,-141.5 101,-111.5 223,-111.5 223,-141.5"/>
<text text-anchor="start" x="109" y="-129.5" font-family="Helvetica,sans-Serif" font-size="10.00">__m_data_output_fpp</text>
<text text-anchor="middle" x="162" y="-118.5" font-family="Helvetica,sans-Serif" font-size="10.00">_f90__</text>
</a>
</g>
</g>
<!-- Node12&#45;&gt;Node13 -->
<g id="edge19_Node000012_Node000013" class="edge">
<title>Node12&#45;&gt;Node13</title>
<g id="a_edge19_Node000012_Node000013"><a xlink:title=" ">
<path fill="none" stroke="#63b8ff" d="M316.57,-168.28C287.43,-160.35 249.27,-149.97 218.28,-141.54"/>
<polygon fill="#63b8ff" stroke="#63b8ff" points="315.9,-171.72 326.47,-170.97 317.74,-164.97 315.9,-171.72"/>
</a>
</g>
</g>
<!-- Node14 -->
<g id="Node000014" class="node">
<title>Node14</title>
<g id="a_Node000014"><a xlink:href="namespacem__derived__variables.html#a516a9808b3446b7b45029f6451d02b3f" target="_top" xlink:title="Writes coherent body information, communication files, and probes.">
<polygon fill="white" stroke="#666666" points="221.5,-201 102.5,-201 102.5,-160 221.5,-160 221.5,-201"/>
<text text-anchor="start" x="110.5" y="-189" font-family="Helvetica,sans-Serif" font-size="10.00">m_derived_variables</text>
<text text-anchor="start" x="110.5" y="-178" font-family="Helvetica,sans-Serif" font-size="10.00">::s_compute_derived</text>
<text text-anchor="middle" x="162" y="-167" font-family="Helvetica,sans-Serif" font-size="10.00">_variables</text>
</a>
</g>
</g>
<!-- Node12&#45;&gt;Node14 -->
<g id="edge20_Node000012_Node000014" class="edge">
<title>Node12&#45;&gt;Node14</title>
<g id="a_edge20_Node000012_Node000014"><a xlink:title=" ">
<path fill="none" stroke="#63b8ff" d="M297.08,-180.5C272.83,-180.5 245.4,-180.5 221.7,-180.5"/>
<polygon fill="#63b8ff" stroke="#63b8ff" points="297.26,-184 307.26,-180.5 297.26,-177 297.26,-184"/>
</a>
</g>
</g>
<!-- Node14&#45;&gt;Node3 -->
<g id="edge21_Node000014_Node000003" class="edge">
<title>Node14&#45;&gt;Node3</title>
<g id="a_edge21_Node000014_Node000003"><a xlink:title=" ">
<path fill="none" stroke="#63b8ff" d="M108,-205.78C101.57,-208.99 95.11,-212.28 89,-215.5 73.35,-223.75 55.85,-233.79 43.53,-241"/>
<polygon fill="#63b8ff" stroke="#63b8ff" points="109.95,-208.72 117.37,-201.15 106.85,-202.44 109.95,-208.72"/>
</a>
</g>
</g>
<!-- Node15&#45;&gt;Node13 -->
<g id="edge23_Node000015_Node000013" class="edge">
<title>Node15&#45;&gt;Node13</title>
<g id="a_edge23_Node000015_Node000013"><a xlink:title=" ">
<path fill="none" stroke="#63b8ff" d="M307.36,-95.23C281.29,-100.88 249.93,-107.67 223.12,-113.48"/>
<polygon fill="#63b8ff" stroke="#63b8ff" points="308.41,-98.58 317.45,-93.04 306.93,-91.74 308.41,-98.58"/>
</a>
</g>
</g>
<!-- Node16 -->
<g id="Node000016" class="node">
<title>Node16</title>
<g id="a_Node000016"><a xlink:href="m__time__steppers_8fpp_8f90.html#af409df8df1b374744d8c379e7e7dba0b" target="_top" xlink:title="1st order TVD RK time&#45;stepping algorithm">
<polygon fill="white" stroke="#666666" points="216.5,-93 107.5,-93 107.5,-74 216.5,-74 216.5,-93"/>
<text text-anchor="middle" x="162" y="-81" font-family="Helvetica,sans-Serif" font-size="10.00">s_1st_order_tvd_rk</text>
</a>
</g>
</g>
<!-- Node15&#45;&gt;Node16 -->
<g id="edge24_Node000015_Node000016" class="edge">
<title>Node15&#45;&gt;Node16</title>
<g id="a_edge24_Node000015_Node000016"><a xlink:title=" ">
<path fill="none" stroke="#63b8ff" d="M270.58,-83.5C252.14,-83.5 233.32,-83.5 216.68,-83.5"/>
<polygon fill="#63b8ff" stroke="#63b8ff" points="270.76,-87 280.76,-83.5 270.76,-80 270.76,-87"/>
</a>
</g>
</g>
<!-- Node17 -->
<g id="Node000017" class="node">
<title>Node17</title>
<g id="a_Node000017"><a xlink:href="m__time__steppers_8fpp_8f90.html#a2847bfea6f3dc3fdae115a99009f7245" target="_top" xlink:title="2nd order TVD RK time&#45;stepping algorithm">
<polygon fill="white" stroke="#666666" points="218,-56 106,-56 106,-37 218,-37 218,-56"/>
<text text-anchor="middle" x="162" y="-44" font-family="Helvetica,sans-Serif" font-size="10.00">s_2nd_order_tvd_rk</text>
</a>
</g>
</g>
<!-- Node15&#45;&gt;Node17 -->
<g id="edge26_Node000015_Node000017" class="edge">
<title>Node15&#45;&gt;Node17</title>
<g id="a_edge26_Node000015_Node000017"><a xlink:title=" ">
<path fill="none" stroke="#63b8ff" d="M300.44,-72.12C272.85,-66.98 240.61,-60.97 214.29,-56.06"/>
<polygon fill="#63b8ff" stroke="#63b8ff" points="299.91,-75.58 310.38,-73.97 301.19,-68.7 299.91,-75.58"/>
</a>
</g>
</g>
<!-- Node18 -->
<g id="Node000018" class="node">
<title>Node18</title>
<g id="a_Node000018"><a xlink:href="m__time__steppers_8fpp_8f90.html#ad642c094881f0cffbb6158f9fa079a86" target="_top" xlink:title="3rd order TVD RK time&#45;stepping algorithm">
<polygon fill="white" stroke="#666666" points="217,-19 107,-19 107,0 217,0 217,-19"/>
<text text-anchor="middle" x="162" y="-7" font-family="Helvetica,sans-Serif" font-size="10.00">s_3rd_order_tvd_rk</text>
</a>
</g>
</g>
<!-- Node15&#45;&gt;Node18 -->
<g id="edge28_Node000015_Node000018" class="edge">
<title>Node15&#45;&gt;Node18</title>
<g id="a_edge28_Node000015_Node000018"><a xlink:title=" ">
<path fill="none" stroke="#63b8ff" d="M333.62,-69.49C308.35,-57.2 269.85,-39.47 235,-27.5 225.86,-24.36 215.9,-21.52 206.38,-19.06"/>
<polygon fill="#63b8ff" stroke="#63b8ff" points="332.1,-72.65 342.62,-73.91 335.19,-66.36 332.1,-72.65"/>
</a>
</g>
</g>
<!-- Node16&#45;&gt;Node3 -->
<g id="edge25_Node000016_Node000003" class="edge">
<title>Node16&#45;&gt;Node3</title>
<g id="a_edge25_Node000016_Node000003"><a xlink:title=" ">
<path fill="none" stroke="#63b8ff" d="M98.3,-95.97C94.98,-97.85 91.85,-100.02 89,-102.5 45.39,-140.55 32.05,-214.47 28.58,-240.86"/>
<polygon fill="#63b8ff" stroke="#63b8ff" points="99.93,-99.07 107.45,-91.6 96.92,-92.75 99.93,-99.07"/>
</a>
</g>
</g>
<!-- Node17&#45;&gt;Node3 -->
<g id="edge27_Node000017_Node000003" class="edge">
<title>Node17&#45;&gt;Node3</title>
<g id="a_edge27_Node000017_Node000003"><a xlink:title=" ">
<path fill="none" stroke="#63b8ff" d="M96.59,-58.73C93.89,-60.42 91.33,-62.33 89,-64.5 35.91,-113.79 28.59,-209.82 27.63,-240.69"/>
<polygon fill="#63b8ff" stroke="#63b8ff" points="98.41,-61.73 105.7,-54.04 95.21,-55.5 98.41,-61.73"/>
</a>
</g>
</g>
<!-- Node18&#45;&gt;Node3 -->
<g id="edge29_Node000018_Node000003" class="edge">
<title>Node18&#45;&gt;Node3</title>
<g id="a_edge29_Node000018_Node000003"><a xlink:title=" ">
<path fill="none" stroke="#63b8ff" d="M97.94,-20.66C94.71,-22.61 91.69,-24.87 89,-27.5 26.64,-88.38 25.81,-206.28 27.01,-240.79"/>
<polygon fill="#63b8ff" stroke="#63b8ff" points="99.51,-23.79 106.92,-16.21 96.41,-17.51 99.51,-23.79"/>
</a>
</g>
</g>
</g>
</svg>
