<?xml version="1.0" encoding="UTF-8" standalone="no"?>
<!DOCTYPE svg PUBLIC "-//W3C//DTD SVG 1.1//EN"
 "http://www.w3.org/Graphics/SVG/1.1/DTD/svg11.dtd">
<!-- Generated by graphviz version 2.43.0 (0)
 -->
<!-- Title: s_mom_inv Pages: 1 -->
<svg width="319pt" height="211pt"
 viewBox="0.00 0.00 319.00 211.00" xmlns="http://www.w3.org/2000/svg" xmlns:xlink="http://www.w3.org/1999/xlink">
<g id="graph0" class="graph" transform="scale(1 1) rotate(0) translate(4 207)">
<title>s_mom_inv</title>
<!-- Node1 -->
<g id="Node000001" class="node">
<title>Node1</title>
<g id="a_Node000001"><a xlink:title=" ">
<polygon fill="#999999" stroke="#666666" points="73,-93 0,-93 0,-74 73,-74 73,-93"/>
<text text-anchor="middle" x="36.5" y="-81" font-family="Helvetica,sans-Serif" font-size="10.00">s_mom_inv</text>
</a>
</g>
</g>
<!-- Node2 -->
<g id="Node000002" class="node">
<title>Node2</title>
<g id="a_Node000002"><a xlink:href="m__qbmm_8fpp_8f90.html#a74e7ce86214df481371f693002986023" target="_top" xlink:title=" ">
<polygon fill="white" stroke="#666666" points="181.5,-185 131.5,-185 131.5,-166 181.5,-166 181.5,-185"/>
<text text-anchor="middle" x="156.5" y="-173" font-family="Helvetica,sans-Serif" font-size="10.00">f_quad</text>
</a>
</g>
</g>
<!-- Node1&#45;&gt;Node2 -->
<g id="edge1_Node000001_Node000002" class="edge">
<title>Node1&#45;&gt;Node2</title>
<g id="a_edge1_Node000001_Node000002"><a xlink:title=" ">
<path fill="none" stroke="#63b8ff" d="M44.79,-93.45C56.66,-109.05 81.61,-139.32 109,-157.5 113.03,-160.17 117.51,-162.53 122.05,-164.6"/>
<polygon fill="#63b8ff" stroke="#63b8ff" points="120.77,-167.85 131.35,-168.4 123.42,-161.37 120.77,-167.85"/>
</a>
</g>
</g>
<!-- Node3 -->
<g id="Node000003" class="node">
<title>Node3</title>
<g id="a_Node000003"><a xlink:href="m__qbmm_8fpp_8f90.html#add8fc901ab3865292669cbb997aaf2b2" target="_top" xlink:title=" ">
<polygon fill="white" stroke="#666666" points="187.5,-130 125.5,-130 125.5,-111 187.5,-111 187.5,-130"/>
<text text-anchor="middle" x="156.5" y="-118" font-family="Helvetica,sans-Serif" font-size="10.00">f_quad2d</text>
</a>
</g>
</g>
<!-- Node1&#45;&gt;Node3 -->
<g id="edge3_Node000001_Node000003" class="edge">
<title>Node1&#45;&gt;Node3</title>
<g id="a_edge3_Node000001_Node000003"><a xlink:title=" ">
<path fill="none" stroke="#63b8ff" d="M67.89,-93.03C82.34,-97.56 99.81,-103.04 115.34,-107.91"/>
<polygon fill="#63b8ff" stroke="#63b8ff" points="114.63,-111.35 125.22,-111 116.72,-104.67 114.63,-111.35"/>
</a>
</g>
</g>
<!-- Node4 -->
<g id="Node000004" class="node">
<title>Node4</title>
<g id="a_Node000004"><a xlink:href="m__qbmm_8fpp_8f90.html#a57a24e4f3d6a9db5b1aaa3100b7ef46d" target="_top" xlink:title=" ">
<polygon fill="white" stroke="#666666" points="194.5,-93 118.5,-93 118.5,-74 194.5,-74 194.5,-93"/>
<text text-anchor="middle" x="156.5" y="-81" font-family="Helvetica,sans-Serif" font-size="10.00">s_chyqmom</text>
</a>
</g>
</g>
<!-- Node1&#45;&gt;Node4 -->
<g id="edge5_Node000001_Node000004" class="edge">
<title>Node1&#45;&gt;Node4</title>
<g id="a_edge5_Node000001_Node000004"><a xlink:title=" ">
<path fill="none" stroke="#63b8ff" d="M73.22,-83.5C84.24,-83.5 96.55,-83.5 108.22,-83.5"/>
<polygon fill="#63b8ff" stroke="#63b8ff" points="108.26,-87 118.26,-83.5 108.26,-80 108.26,-87"/>
</a>
</g>
</g>
<!-- Node6 -->
<g id="Node000006" class="node">
<title>Node6</title>
<g id="a_Node000006"><a xlink:href="m__qbmm_8fpp_8f90.html#a5e8f8b30325d688111d1ec1cd8c9680d" target="_top" xlink:title=" ">
<polygon fill="white" stroke="#666666" points="182,-56 131,-56 131,-37 182,-37 182,-56"/>
<text text-anchor="middle" x="156.5" y="-44" font-family="Helvetica,sans-Serif" font-size="10.00">s_coeff</text>
</a>
</g>
</g>
<!-- Node1&#45;&gt;Node6 -->
<g id="edge7_Node000001_Node000006" class="edge">
<title>Node1&#45;&gt;Node6</title>
<g id="a_edge7_Node000001_Node000006"><a xlink:title=" ">
<path fill="none" stroke="#63b8ff" d="M67.89,-73.97C84.06,-68.9 104.02,-62.64 120.8,-57.38"/>
<polygon fill="#63b8ff" stroke="#63b8ff" points="122.28,-60.58 130.77,-54.25 120.19,-53.91 122.28,-60.58"/>
</a>
</g>
</g>
<!-- Node7 -->
<g id="Node000007" class="node">
<title>Node7</title>
<g id="a_Node000007"><a xlink:href="m__qbmm_8fpp_8f90.html#aab31fde8338242a0eac719456000030d" target="_top" xlink:title=" ">
<polygon fill="white" stroke="#666666" points="204,-19 109,-19 109,0 204,0 204,-19"/>
<text text-anchor="middle" x="156.5" y="-7" font-family="Helvetica,sans-Serif" font-size="10.00">s_coeff_nonpoly</text>
</a>
</g>
</g>
<!-- Node1&#45;&gt;Node7 -->
<g id="edge8_Node000001_Node000007" class="edge">
<title>Node1&#45;&gt;Node7</title>
<g id="a_edge8_Node000001_Node000007"><a xlink:title=" ">
<path fill="none" stroke="#63b8ff" d="M48,-73.96C61.4,-62.14 85.65,-41.93 109,-28.5 112.21,-26.65 115.64,-24.89 119.12,-23.25"/>
<polygon fill="#63b8ff" stroke="#63b8ff" points="120.63,-26.41 128.36,-19.16 117.8,-20.01 120.63,-26.41"/>
</a>
</g>
</g>
<!-- Node2&#45;&gt;Node2 -->
<g id="edge2_Node000002_Node000002" class="edge">
<title>Node2&#45;&gt;Node2</title>
<g id="a_edge2_Node000002_Node000002"><a xlink:title=" ">
<path fill="none" stroke="#63b8ff" d="M138.31,-185.08C129.46,-193.73 135.53,-203 156.5,-203 169.61,-203 176.89,-199.38 178.35,-194.55"/>
<polygon fill="#63b8ff" stroke="#63b8ff" points="181.56,-193.15 174.69,-185.08 175.03,-195.67 181.56,-193.15"/>
</a>
</g>
</g>
<!-- Node3&#45;&gt;Node3 -->
<g id="edge4_Node000003_Node000003" class="edge">
<title>Node3&#45;&gt;Node3</title>
<g id="a_edge4_Node000003_Node000003"><a xlink:title=" ">
<path fill="none" stroke="#63b8ff" d="M138.31,-130.08C129.46,-138.73 135.53,-148 156.5,-148 169.61,-148 176.89,-144.38 178.35,-139.55"/>
<polygon fill="#63b8ff" stroke="#63b8ff" points="181.56,-138.15 174.69,-130.08 175.03,-140.67 181.56,-138.15"/>
</a>
</g>
</g>
<!-- Node5 -->
<g id="Node000005" class="node">
<title>Node5</title>
<g id="a_Node000005"><a xlink:href="m__qbmm_8fpp_8f90.html#a9f04f02028dbe154a03418ecca95fc97" target="_top" xlink:title=" ">
<polygon fill="white" stroke="#666666" points="311,-93 240,-93 240,-74 311,-74 311,-93"/>
<text text-anchor="middle" x="275.5" y="-81" font-family="Helvetica,sans-Serif" font-size="10.00">s_hyqmom</text>
</a>
</g>
</g>
<!-- Node4&#45;&gt;Node5 -->
<g id="edge6_Node000004_Node000005" class="edge">
<title>Node4&#45;&gt;Node5</title>
<g id="a_edge6_Node000004_Node000005"><a xlink:title=" ">
<path fill="none" stroke="#63b8ff" d="M194.52,-83.5C205.59,-83.5 217.85,-83.5 229.39,-83.5"/>
<polygon fill="#63b8ff" stroke="#63b8ff" points="229.71,-87 239.71,-83.5 229.71,-80 229.71,-87"/>
</a>
</g>
</g>
</g>
</svg>
