<?xml version="1.0" encoding="UTF-8" standalone="no"?>
<!DOCTYPE svg PUBLIC "-//W3C//DTD SVG 1.1//EN"
 "http://www.w3.org/Graphics/SVG/1.1/DTD/svg11.dtd">
<!-- Generated by graphviz version 2.43.0 (0)
 -->
<!-- Title: s_hyqmom Pages: 1 -->
<svg width="699pt" height="138pt"
 viewBox="0.00 0.00 699.00 138.00" xmlns="http://www.w3.org/2000/svg" xmlns:xlink="http://www.w3.org/1999/xlink">
<g id="graph0" class="graph" transform="scale(1 1) rotate(0) translate(4 134)">
<title>s_hyqmom</title>
<!-- Node1 -->
<g id="Node000001" class="node">
<title>Node1</title>
<g id="a_Node000001"><a xlink:title=" ">
<polygon fill="#999999" stroke="#666666" points="691,-92 620,-92 620,-73 691,-73 691,-92"/>
<text text-anchor="middle" x="655.5" y="-80" font-family="Helvetica,sans-Serif" font-size="10.00">s_hyqmom</text>
</a>
</g>
</g>
<!-- Node2 -->
<g id="Node000002" class="node">
<title>Node2</title>
<g id="a_Node000002"><a xlink:href="m__qbmm_8fpp_8f90.html#a57a24e4f3d6a9db5b1aaa3100b7ef46d" target="_top" xlink:title=" ">
<polygon fill="white" stroke="#666666" points="584,-92 508,-92 508,-73 584,-73 584,-92"/>
<text text-anchor="middle" x="546" y="-80" font-family="Helvetica,sans-Serif" font-size="10.00">s_chyqmom</text>
</a>
</g>
</g>
<!-- Node1&#45;&gt;Node2 -->
<g id="edge1_Node000001_Node000002" class="edge">
<title>Node1&#45;&gt;Node2</title>
<g id="a_edge1_Node000001_Node000002"><a xlink:title=" ">
<path fill="none" stroke="#63b8ff" d="M609.72,-82.5C601.21,-82.5 592.38,-82.5 584.14,-82.5"/>
<polygon fill="#63b8ff" stroke="#63b8ff" points="609.89,-86 619.89,-82.5 609.89,-79 609.89,-86"/>
</a>
</g>
</g>
<!-- Node3 -->
<g id="Node000003" class="node">
<title>Node3</title>
<g id="a_Node000003"><a xlink:href="m__qbmm_8fpp_8f90.html#aa750511b235cbb6510ee744ffdd18d50" target="_top" xlink:title=" ">
<polygon fill="white" stroke="#666666" points="472,-92 399,-92 399,-73 472,-73 472,-92"/>
<text text-anchor="middle" x="435.5" y="-80" font-family="Helvetica,sans-Serif" font-size="10.00">s_mom_inv</text>
</a>
</g>
</g>
<!-- Node2&#45;&gt;Node3 -->
<g id="edge2_Node000002_Node000003" class="edge">
<title>Node2&#45;&gt;Node3</title>
<g id="a_edge2_Node000002_Node000003"><a xlink:title=" ">
<path fill="none" stroke="#63b8ff" d="M497.72,-82.5C489.18,-82.5 480.41,-82.5 472.27,-82.5"/>
<polygon fill="#63b8ff" stroke="#63b8ff" points="497.96,-86 507.96,-82.5 497.96,-79 497.96,-86"/>
</a>
</g>
</g>
<!-- Node4 -->
<g id="Node000004" class="node">
<title>Node4</title>
<g id="a_Node000004"><a xlink:href="m__qbmm_8fpp_8f90.html#a8709b41fb0b88fca7d5d5622b6f8096c" target="_top" xlink:title=" ">
<polygon fill="white" stroke="#666666" points="363,-111 237,-111 237,-92 363,-92 363,-111"/>
<text text-anchor="middle" x="300" y="-99" font-family="Helvetica,sans-Serif" font-size="10.00">__m_qbmm_fpp_f90__</text>
</a>
</g>
</g>
<!-- Node3&#45;&gt;Node4 -->
<g id="edge3_Node000003_Node000004" class="edge">
<title>Node3&#45;&gt;Node4</title>
<g id="a_edge3_Node000003_Node000004"><a xlink:title=" ">
<path fill="none" stroke="#63b8ff" d="M388.62,-89.03C380.41,-90.2 371.74,-91.43 363.16,-92.65"/>
<polygon fill="#63b8ff" stroke="#63b8ff" points="389.32,-92.47 398.72,-87.59 388.33,-85.54 389.32,-92.47"/>
</a>
</g>
</g>
<!-- Node5 -->
<g id="Node000005" class="node">
<title>Node5</title>
<g id="a_Node000005"><a xlink:href="m__rhs_8fpp_8f90.html#a4ad3aab576e417816766c2cebb5564e4" target="_top" xlink:title=" ">
<polygon fill="white" stroke="#666666" points="345,-74 255,-74 255,-55 345,-55 345,-74"/>
<text text-anchor="middle" x="300" y="-62" font-family="Helvetica,sans-Serif" font-size="10.00">s_compute_rhs</text>
</a>
</g>
</g>
<!-- Node3&#45;&gt;Node5 -->
<g id="edge4_Node000003_Node000005" class="edge">
<title>Node3&#45;&gt;Node5</title>
<g id="a_edge4_Node000003_Node000005"><a xlink:title=" ">
<path fill="none" stroke="#63b8ff" d="M388.81,-76.34C374.79,-74.45 359.4,-72.37 345.47,-70.5"/>
<polygon fill="#63b8ff" stroke="#63b8ff" points="388.35,-79.81 398.72,-77.68 389.28,-72.87 388.35,-79.81"/>
</a>
</g>
</g>
<!-- Node6 -->
<g id="Node000006" class="node">
<title>Node6</title>
<g id="a_Node000006"><a xlink:href="m__rhs_8fpp_8f90.html#a87616394067f1273cd06c4d299d10add" target="_top" xlink:title=" ">
<polygon fill="white" stroke="#666666" points="200,-130 90,-130 90,-111 200,-111 200,-130"/>
<text text-anchor="middle" x="145" y="-118" font-family="Helvetica,sans-Serif" font-size="10.00">__m_rhs_fpp_f90__</text>
</a>
</g>
</g>
<!-- Node5&#45;&gt;Node6 -->
<g id="edge5_Node000005_Node000006" class="edge">
<title>Node5&#45;&gt;Node6</title>
<g id="a_edge5_Node000005_Node000006"><a xlink:title=" ">
<path fill="none" stroke="#63b8ff" d="M254.12,-77.15C248.3,-79.11 242.47,-81.24 237,-83.5 220.28,-90.4 217.66,-95.44 201,-102.5 193.78,-105.56 185.86,-108.42 178.33,-110.93"/>
<polygon fill="#63b8ff" stroke="#63b8ff" points="255.39,-80.42 263.83,-74.02 253.24,-73.76 255.39,-80.42"/>
</a>
</g>
</g>
<!-- Node7 -->
<g id="Node000007" class="node">
<title>Node7</title>
<g id="a_Node000007"><a xlink:href="m__time__steppers_8fpp_8f90.html#af409df8df1b374744d8c379e7e7dba0b" target="_top" xlink:title="1st order TVD RK time&#45;stepping algorithm">
<polygon fill="white" stroke="#666666" points="199.5,-93 90.5,-93 90.5,-74 199.5,-74 199.5,-93"/>
<text text-anchor="middle" x="145" y="-81" font-family="Helvetica,sans-Serif" font-size="10.00">s_1st_order_tvd_rk</text>
</a>
</g>
</g>
<!-- Node5&#45;&gt;Node7 -->
<g id="edge6_Node000005_Node000007" class="edge">
<title>Node5&#45;&gt;Node7</title>
<g id="a_edge6_Node000005_Node000007"><a xlink:title=" ">
<path fill="none" stroke="#63b8ff" d="M244.81,-71.23C230.15,-73.05 214.28,-75.02 199.65,-76.84"/>
<polygon fill="#63b8ff" stroke="#63b8ff" points="245.25,-74.7 254.75,-70 244.39,-67.75 245.25,-74.7"/>
</a>
</g>
</g>
<!-- Node9 -->
<g id="Node000009" class="node">
<title>Node9</title>
<g id="a_Node000009"><a xlink:href="m__time__steppers_8fpp_8f90.html#a2847bfea6f3dc3fdae115a99009f7245" target="_top" xlink:title="2nd order TVD RK time&#45;stepping algorithm">
<polygon fill="white" stroke="#666666" points="201,-56 89,-56 89,-37 201,-37 201,-56"/>
<text text-anchor="middle" x="145" y="-44" font-family="Helvetica,sans-Serif" font-size="10.00">s_2nd_order_tvd_rk</text>
</a>
</g>
</g>
<!-- Node5&#45;&gt;Node9 -->
<g id="edge8_Node000005_Node000009" class="edge">
<title>Node5&#45;&gt;Node9</title>
<g id="a_edge8_Node000005_Node000009"><a xlink:title=" ">
<path fill="none" stroke="#63b8ff" d="M244.66,-58.11C230.5,-56.44 215.23,-54.65 201.04,-52.97"/>
<polygon fill="#63b8ff" stroke="#63b8ff" points="244.41,-61.6 254.75,-59.29 245.22,-54.65 244.41,-61.6"/>
</a>
</g>
</g>
<!-- Node10 -->
<g id="Node000010" class="node">
<title>Node10</title>
<g id="a_Node000010"><a xlink:href="m__time__steppers_8fpp_8f90.html#ad642c094881f0cffbb6158f9fa079a86" target="_top" xlink:title="3rd order TVD RK time&#45;stepping algorithm">
<polygon fill="white" stroke="#666666" points="200,-19 90,-19 90,0 200,0 200,-19"/>
<text text-anchor="middle" x="145" y="-7" font-family="Helvetica,sans-Serif" font-size="10.00">s_3rd_order_tvd_rk</text>
</a>
</g>
</g>
<!-- Node5&#45;&gt;Node10 -->
<g id="edge10_Node000005_Node000010" class="edge">
<title>Node5&#45;&gt;Node10</title>
<g id="a_edge10_Node000005_Node000010"><a xlink:title=" ">
<path fill="none" stroke="#63b8ff" d="M263.71,-51.35C245.09,-44.46 221.84,-35.93 201,-28.5 192.25,-25.38 182.68,-22.05 174.02,-19.06"/>
<polygon fill="#63b8ff" stroke="#63b8ff" points="262.66,-54.69 273.26,-54.89 265.1,-48.13 262.66,-54.69"/>
</a>
</g>
</g>
<!-- Node8 -->
<g id="Node000008" class="node">
<title>Node8</title>
<g id="a_Node000008"><a xlink:href="p__main_8fpp_8f90.html#aeec10ee8e2940c953967da3e374e1579" target="_top" xlink:title="Quasi&#45;conservative, shock&#45; and interface&#45; capturing finite&#45;volume scheme for the multicomponent Navie...">
<polygon fill="white" stroke="#666666" points="53,-56 0,-56 0,-37 53,-37 53,-56"/>
<text text-anchor="middle" x="26.5" y="-44" font-family="Helvetica,sans-Serif" font-size="10.00">p_main</text>
</a>
</g>
</g>
<!-- Node7&#45;&gt;Node8 -->
<g id="edge7_Node000007_Node000008" class="edge">
<title>Node7&#45;&gt;Node8</title>
<g id="a_edge7_Node000007_Node000008"><a xlink:title=" ">
<path fill="none" stroke="#63b8ff" d="M104.34,-70.9C87.38,-65.52 68.07,-59.39 53.06,-54.62"/>
<polygon fill="#63b8ff" stroke="#63b8ff" points="103.41,-74.28 114,-73.97 105.53,-67.61 103.41,-74.28"/>
</a>
</g>
</g>
<!-- Node9&#45;&gt;Node8 -->
<g id="edge9_Node000009_Node000008" class="edge">
<title>Node9&#45;&gt;Node8</title>
<g id="a_edge9_Node000009_Node000008"><a xlink:title=" ">
<path fill="none" stroke="#63b8ff" d="M78.6,-46.5C69.59,-46.5 60.81,-46.5 53.15,-46.5"/>
<polygon fill="#63b8ff" stroke="#63b8ff" points="78.82,-50 88.82,-46.5 78.82,-43 78.82,-50"/>
</a>
</g>
</g>
<!-- Node10&#45;&gt;Node8 -->
<g id="edge11_Node000010_Node000008" class="edge">
<title>Node10&#45;&gt;Node8</title>
<g id="a_edge11_Node000010_Node000008"><a xlink:title=" ">
<path fill="none" stroke="#63b8ff" d="M104.34,-22.1C87.38,-27.48 68.07,-33.61 53.06,-38.38"/>
<polygon fill="#63b8ff" stroke="#63b8ff" points="105.53,-25.39 114,-19.03 103.41,-18.72 105.53,-25.39"/>
</a>
</g>
</g>
</g>
</svg>
