<?xml version="1.0" encoding="UTF-8" standalone="no"?>
<!DOCTYPE svg PUBLIC "-//W3C//DTD SVG 1.1//EN"
 "http://www.w3.org/Graphics/SVG/1.1/DTD/svg11.dtd">
<!-- Generated by graphviz version 2.43.0 (0)
 -->
<!-- Title: __m_qbmm_fpp_f90__ Pages: 1 -->
<svg width="556pt" height="211pt"
 viewBox="0.00 0.00 556.00 211.00" xmlns="http://www.w3.org/2000/svg" xmlns:xlink="http://www.w3.org/1999/xlink">
<g id="graph0" class="graph" transform="scale(1 1) rotate(0) translate(4 207)">
<title>__m_qbmm_fpp_f90__</title>
<!-- Node1 -->
<g id="Node000001" class="node">
<title>Node1</title>
<g id="a_Node000001"><a xlink:title=" ">
<polygon fill="#999999" stroke="#666666" points="126,-156 0,-156 0,-137 126,-137 126,-156"/>
<text text-anchor="middle" x="63" y="-144" font-family="Helvetica,sans-Serif" font-size="10.00">__m_qbmm_fpp_f90__</text>
</a>
</g>
</g>
<!-- Node2 -->
<g id="Node000002" class="node">
<title>Node2</title>
<g id="a_Node000002"><a xlink:href="m__qbmm_8fpp_8f90.html#a5e8f8b30325d688111d1ec1cd8c9680d" target="_top" xlink:title=" ">
<polygon fill="white" stroke="#666666" points="419,-203 368,-203 368,-184 419,-184 419,-203"/>
<text text-anchor="middle" x="393.5" y="-191" font-family="Helvetica,sans-Serif" font-size="10.00">s_coeff</text>
</a>
</g>
</g>
<!-- Node1&#45;&gt;Node2 -->
<g id="edge1_Node000001_Node000002" class="edge">
<title>Node1&#45;&gt;Node2</title>
<g id="a_edge1_Node000001_Node000002"><a xlink:title=" ">
<path fill="none" stroke="#63b8ff" d="M109.75,-156.06C126.18,-159.32 144.88,-162.8 162,-165.5 231.12,-176.39 312.48,-185.38 357.7,-190.05"/>
<polygon fill="#63b8ff" stroke="#63b8ff" points="357.56,-193.55 367.86,-191.08 358.27,-186.59 357.56,-193.55"/>
</a>
</g>
</g>
<!-- Node3 -->
<g id="Node000003" class="node">
<title>Node3</title>
<g id="a_Node000003"><a xlink:href="m__qbmm_8fpp_8f90.html#af9c1dbeca51d35272cc734b9aa958aac" target="_top" xlink:title=" ">
<polygon fill="white" stroke="#666666" points="310,-156 162,-156 162,-137 310,-137 310,-156"/>
<text text-anchor="middle" x="236" y="-144" font-family="Helvetica,sans-Serif" font-size="10.00">s_initialize_qbmm_module</text>
</a>
</g>
</g>
<!-- Node1&#45;&gt;Node3 -->
<g id="edge2_Node000001_Node000003" class="edge">
<title>Node1&#45;&gt;Node3</title>
<g id="a_edge2_Node000001_Node000003"><a xlink:title=" ">
<path fill="none" stroke="#63b8ff" d="M126.22,-146.5C134.52,-146.5 143.15,-146.5 151.74,-146.5"/>
<polygon fill="#63b8ff" stroke="#63b8ff" points="151.79,-150 161.79,-146.5 151.79,-143 151.79,-150"/>
</a>
</g>
</g>
<!-- Node4 -->
<g id="Node000004" class="node">
<title>Node4</title>
<g id="a_Node000004"><a xlink:href="m__qbmm_8fpp_8f90.html#a07d4ab28f830cfd5b555868bbf8a17fe" target="_top" xlink:title=" ">
<polygon fill="white" stroke="#666666" points="272.5,-110 199.5,-110 199.5,-91 272.5,-91 272.5,-110"/>
<text text-anchor="middle" x="236" y="-98" font-family="Helvetica,sans-Serif" font-size="10.00">s_mom_inv</text>
</a>
</g>
</g>
<!-- Node1&#45;&gt;Node4 -->
<g id="edge3_Node000001_Node000004" class="edge">
<title>Node1&#45;&gt;Node4</title>
<g id="a_edge3_Node000001_Node000004"><a xlink:title=" ">
<path fill="none" stroke="#63b8ff" d="M99.43,-136.97C125.68,-129.91 161.66,-120.23 189.95,-112.62"/>
<polygon fill="#63b8ff" stroke="#63b8ff" points="190.87,-116 199.61,-110.02 189.05,-109.24 190.87,-116"/>
</a>
</g>
</g>
<!-- Node4&#45;&gt;Node2 -->
<g id="edge10_Node000004_Node000002" class="edge">
<title>Node4&#45;&gt;Node2</title>
<g id="a_edge10_Node000004_Node000002"><a xlink:title=" ">
<path fill="none" stroke="#63b8ff" d="M272.8,-109.84C285.34,-114.2 299.02,-120.29 310,-128.5 331.08,-144.25 324.95,-159.72 346,-175.5 349.68,-178.26 353.84,-180.65 358.12,-182.71"/>
<polygon fill="#63b8ff" stroke="#63b8ff" points="356.97,-186.02 367.55,-186.68 359.69,-179.57 356.97,-186.02"/>
</a>
</g>
</g>
<!-- Node5 -->
<g id="Node000005" class="node">
<title>Node5</title>
<g id="a_Node000005"><a xlink:href="m__qbmm_8fpp_8f90.html#a74e7ce86214df481371f693002986023" target="_top" xlink:title=" ">
<polygon fill="white" stroke="#666666" points="418.5,-148 368.5,-148 368.5,-129 418.5,-129 418.5,-148"/>
<text text-anchor="middle" x="393.5" y="-136" font-family="Helvetica,sans-Serif" font-size="10.00">f_quad</text>
</a>
</g>
</g>
<!-- Node4&#45;&gt;Node5 -->
<g id="edge4_Node000004_Node000005" class="edge">
<title>Node4&#45;&gt;Node5</title>
<g id="a_edge4_Node000004_Node000005"><a xlink:title=" ">
<path fill="none" stroke="#63b8ff" d="M272.67,-109.22C298.37,-115.5 332.83,-123.92 358.2,-130.12"/>
<polygon fill="#63b8ff" stroke="#63b8ff" points="357.58,-133.57 368.12,-132.54 359.24,-126.77 357.58,-133.57"/>
</a>
</g>
</g>
<!-- Node6 -->
<g id="Node000006" class="node">
<title>Node6</title>
<g id="a_Node000006"><a xlink:href="m__qbmm_8fpp_8f90.html#add8fc901ab3865292669cbb997aaf2b2" target="_top" xlink:title=" ">
<polygon fill="white" stroke="#666666" points="424.5,-93 362.5,-93 362.5,-74 424.5,-74 424.5,-93"/>
<text text-anchor="middle" x="393.5" y="-81" font-family="Helvetica,sans-Serif" font-size="10.00">f_quad2d</text>
</a>
</g>
</g>
<!-- Node4&#45;&gt;Node6 -->
<g id="edge6_Node000004_Node000006" class="edge">
<title>Node4&#45;&gt;Node6</title>
<g id="a_edge6_Node000004_Node000006"><a xlink:title=" ">
<path fill="none" stroke="#63b8ff" d="M272.67,-96.6C296.45,-94 327.73,-90.58 352.37,-87.89"/>
<polygon fill="#63b8ff" stroke="#63b8ff" points="352.92,-91.35 362.48,-86.78 352.16,-84.39 352.92,-91.35"/>
</a>
</g>
</g>
<!-- Node7 -->
<g id="Node000007" class="node">
<title>Node7</title>
<g id="a_Node000007"><a xlink:href="m__qbmm_8fpp_8f90.html#a57a24e4f3d6a9db5b1aaa3100b7ef46d" target="_top" xlink:title=" ">
<polygon fill="white" stroke="#666666" points="431.5,-56 355.5,-56 355.5,-37 431.5,-37 431.5,-56"/>
<text text-anchor="middle" x="393.5" y="-44" font-family="Helvetica,sans-Serif" font-size="10.00">s_chyqmom</text>
</a>
</g>
</g>
<!-- Node4&#45;&gt;Node7 -->
<g id="edge8_Node000004_Node000007" class="edge">
<title>Node4&#45;&gt;Node7</title>
<g id="a_edge8_Node000004_Node000007"><a xlink:title=" ">
<path fill="none" stroke="#63b8ff" d="M264.44,-90.97C289.79,-82.17 327.64,-69.02 355.62,-59.31"/>
<polygon fill="#63b8ff" stroke="#63b8ff" points="356.77,-62.61 365.07,-56.03 354.48,-56 356.77,-62.61"/>
</a>
</g>
</g>
<!-- Node9 -->
<g id="Node000009" class="node">
<title>Node9</title>
<g id="a_Node000009"><a xlink:href="m__qbmm_8fpp_8f90.html#aab31fde8338242a0eac719456000030d" target="_top" xlink:title=" ">
<polygon fill="white" stroke="#666666" points="441,-19 346,-19 346,0 441,0 441,-19"/>
<text text-anchor="middle" x="393.5" y="-7" font-family="Helvetica,sans-Serif" font-size="10.00">s_coeff_nonpoly</text>
</a>
</g>
</g>
<!-- Node4&#45;&gt;Node9 -->
<g id="edge11_Node000004_Node000009" class="edge">
<title>Node4&#45;&gt;Node9</title>
<g id="a_edge11_Node000004_Node000009"><a xlink:title=" ">
<path fill="none" stroke="#63b8ff" d="M249.91,-90.76C269.81,-76.03 309.5,-47.77 346,-28.5 349.54,-26.63 353.31,-24.82 357.11,-23.11"/>
<polygon fill="#63b8ff" stroke="#63b8ff" points="358.7,-26.23 366.51,-19.07 355.94,-19.8 358.7,-26.23"/>
</a>
</g>
</g>
<!-- Node5&#45;&gt;Node5 -->
<g id="edge5_Node000005_Node000005" class="edge">
<title>Node5&#45;&gt;Node5</title>
<g id="a_edge5_Node000005_Node000005"><a xlink:title=" ">
<path fill="none" stroke="#63b8ff" d="M375.31,-148.08C366.46,-156.73 372.53,-166 393.5,-166 406.61,-166 413.89,-162.38 415.35,-157.55"/>
<polygon fill="#63b8ff" stroke="#63b8ff" points="418.56,-156.15 411.69,-148.08 412.03,-158.67 418.56,-156.15"/>
</a>
</g>
</g>
<!-- Node6&#45;&gt;Node6 -->
<g id="edge7_Node000006_Node000006" class="edge">
<title>Node6&#45;&gt;Node6</title>
<g id="a_edge7_Node000006_Node000006"><a xlink:title=" ">
<path fill="none" stroke="#63b8ff" d="M375.31,-93.08C366.46,-101.73 372.53,-111 393.5,-111 406.61,-111 413.89,-107.38 415.35,-102.55"/>
<polygon fill="#63b8ff" stroke="#63b8ff" points="418.56,-101.15 411.69,-93.08 412.03,-103.67 418.56,-101.15"/>
</a>
</g>
</g>
<!-- Node8 -->
<g id="Node000008" class="node">
<title>Node8</title>
<g id="a_Node000008"><a xlink:href="m__qbmm_8fpp_8f90.html#a9f04f02028dbe154a03418ecca95fc97" target="_top" xlink:title=" ">
<polygon fill="white" stroke="#666666" points="548,-56 477,-56 477,-37 548,-37 548,-56"/>
<text text-anchor="middle" x="512.5" y="-44" font-family="Helvetica,sans-Serif" font-size="10.00">s_hyqmom</text>
</a>
</g>
</g>
<!-- Node7&#45;&gt;Node8 -->
<g id="edge9_Node000007_Node000008" class="edge">
<title>Node7&#45;&gt;Node8</title>
<g id="a_edge9_Node000007_Node000008"><a xlink:title=" ">
<path fill="none" stroke="#63b8ff" d="M431.52,-46.5C442.59,-46.5 454.85,-46.5 466.39,-46.5"/>
<polygon fill="#63b8ff" stroke="#63b8ff" points="466.71,-50 476.71,-46.5 466.71,-43 466.71,-50"/>
</a>
</g>
</g>
</g>
</svg>
