<?xml version="1.0" encoding="UTF-8" standalone="no"?>
<!DOCTYPE svg PUBLIC "-//W3C//DTD SVG 1.1//EN"
 "http://www.w3.org/Graphics/SVG/1.1/DTD/svg11.dtd">
<!-- Generated by graphviz version 2.43.0 (0)
 -->
<!-- Title: s_compute_rhs Pages: 1 -->
<svg width="789pt" height="1246pt"
 viewBox="0.00 0.00 789.00 1245.50" xmlns="http://www.w3.org/2000/svg" xmlns:xlink="http://www.w3.org/1999/xlink">
<g id="graph0" class="graph" transform="scale(1 1) rotate(0) translate(4 1241.5)">
<title>s_compute_rhs</title>
<!-- Node1 -->
<g id="Node000001" class="node">
<title>Node1</title>
<g id="a_Node000001"><a xlink:title=" ">
<polygon fill="#999999" stroke="#666666" points="90,-381.5 0,-381.5 0,-362.5 90,-362.5 90,-381.5"/>
<text text-anchor="middle" x="45" y="-369.5" font-family="Helvetica,sans-Serif" font-size="10.00">s_compute_rhs</text>
</a>
</g>
</g>
<!-- Node2 -->
<g id="Node000002" class="node">
<title>Node2</title>
<g id="a_Node000002"><a xlink:href="m__bubbles_8fpp_8f90.html#a13d7f514861d6b4004211c6f0bdb58fc" target="_top" xlink:title=" ">
<polygon fill="white" stroke="#666666" points="279,-907.5 133,-907.5 133,-888.5 279,-888.5 279,-907.5"/>
<text text-anchor="middle" x="206" y="-895.5" font-family="Helvetica,sans-Serif" font-size="10.00">s_compute_bubble_source</text>
</a>
</g>
</g>
<!-- Node1&#45;&gt;Node2 -->
<g id="edge1_Node000001_Node000002" class="edge">
<title>Node1&#45;&gt;Node2</title>
<g id="a_edge1_Node000001_Node000002"><a xlink:title=" ">
<path fill="none" stroke="#63b8ff" d="M48.9,-381.58C67.75,-443.94 173.05,-792.32 199.15,-878.64"/>
<polygon fill="#63b8ff" stroke="#63b8ff" points="195.81,-879.68 202.05,-888.24 202.51,-877.66 195.81,-879.68"/>
</a>
</g>
</g>
<!-- Node15 -->
<g id="Node000015" class="node">
<title>Node15</title>
<g id="a_Node000015"><a xlink:href="m__hypoelastic_8fpp_8f90.html#aea16ad050a56ec1f6d8f7db69665d01e" target="_top" xlink:title="The purpose of this procedure is to compute the source terms that are needed for the elastic stress e...">
<polygon fill="white" stroke="#666666" points="282,-552.5 130,-552.5 130,-533.5 282,-533.5 282,-552.5"/>
<text text-anchor="middle" x="206" y="-540.5" font-family="Helvetica,sans-Serif" font-size="10.00">s_compute_hypoelastic_rhs</text>
</a>
</g>
</g>
<!-- Node1&#45;&gt;Node15 -->
<g id="edge25_Node000001_Node000015" class="edge">
<title>Node1&#45;&gt;Node15</title>
<g id="a_edge25_Node000001_Node000015"><a xlink:title=" ">
<path fill="none" stroke="#63b8ff" d="M48.13,-381.62C54.62,-408.64 76.81,-485.73 126,-524 128.35,-525.83 130.85,-527.48 133.45,-528.98"/>
<polygon fill="#63b8ff" stroke="#63b8ff" points="132.16,-532.24 142.68,-533.5 135.23,-525.96 132.16,-532.24"/>
</a>
</g>
</g>
<!-- Node16 -->
<g id="Node000016" class="node">
<title>Node16</title>
<g id="a_Node000016"><a xlink:href="m__viscous_8fpp_8f90.html#a1110efee754c653e3a435b16a660a4d7" target="_top" xlink:title="The purpose of this subroutine is to compute the viscous.">
<polygon fill="white" stroke="#666666" points="279,-515 133,-515 133,-485 279,-485 279,-515"/>
<text text-anchor="start" x="141" y="-503" font-family="Helvetica,sans-Serif" font-size="10.00">s_compute_viscous_stress</text>
<text text-anchor="middle" x="206" y="-492" font-family="Helvetica,sans-Serif" font-size="10.00">_tensor</text>
</a>
</g>
</g>
<!-- Node1&#45;&gt;Node16 -->
<g id="edge26_Node000001_Node000016" class="edge">
<title>Node1&#45;&gt;Node16</title>
<g id="a_edge26_Node000001_Node000016"><a xlink:title=" ">
<path fill="none" stroke="#63b8ff" d="M50.75,-381.65C61.33,-402.16 88.9,-450.35 126,-476 128.24,-477.55 130.59,-479.01 133.01,-480.37"/>
<polygon fill="#63b8ff" stroke="#63b8ff" points="131.55,-483.55 142.06,-484.9 134.69,-477.29 131.55,-483.55"/>
</a>
</g>
</g>
<!-- Node17 -->
<g id="Node000017" class="node">
<title>Node17</title>
<g id="a_Node000017"><a xlink:href="m__variables__conversion_8fpp_8f90.html#a24725c6eb206c9a62e2ec70bf368836d" target="_top" xlink:title="The following procedure handles the conversion between the conservative variables and the primitive v...">
<polygon fill="white" stroke="#666666" points="272,-467 140,-467 140,-437 272,-437 272,-467"/>
<text text-anchor="start" x="148" y="-455" font-family="Helvetica,sans-Serif" font-size="10.00">s_convert_conservative</text>
<text text-anchor="middle" x="206" y="-444" font-family="Helvetica,sans-Serif" font-size="10.00">_to_primitive_variables</text>
</a>
</g>
</g>
<!-- Node1&#45;&gt;Node17 -->
<g id="edge27_Node000001_Node000017" class="edge">
<title>Node1&#45;&gt;Node17</title>
<g id="a_edge27_Node000001_Node000017"><a xlink:title=" ">
<path fill="none" stroke="#63b8ff" d="M65.18,-381.65C90.06,-394.17 134.07,-416.31 166.08,-432.42"/>
<polygon fill="#63b8ff" stroke="#63b8ff" points="164.68,-435.63 175.18,-437 167.82,-429.38 164.68,-435.63"/>
</a>
</g>
</g>
<!-- Node22 -->
<g id="Node000022" class="node">
<title>Node22</title>
<g id="a_Node000022"><a xlink:href="m__viscous_8fpp_8f90.html#a0f828f5ebe7c76e07c69a5d13ea74803" target="_top" xlink:title="Computes viscous terms.">
<polygon fill="white" stroke="#666666" points="248.5,-381.5 163.5,-381.5 163.5,-362.5 248.5,-362.5 248.5,-381.5"/>
<text text-anchor="middle" x="206" y="-369.5" font-family="Helvetica,sans-Serif" font-size="10.00">s_get_viscous</text>
</a>
</g>
</g>
<!-- Node1&#45;&gt;Node22 -->
<g id="edge32_Node000001_Node000022" class="edge">
<title>Node1&#45;&gt;Node22</title>
<g id="a_edge32_Node000001_Node000022"><a xlink:title=" ">
<path fill="none" stroke="#63b8ff" d="M90.29,-372C109.86,-372 133.01,-372 153.36,-372"/>
<polygon fill="#63b8ff" stroke="#63b8ff" points="153.4,-375.5 163.4,-372 153.4,-368.5 153.4,-375.5"/>
</a>
</g>
</g>
<!-- Node29 -->
<g id="Node000029" class="node">
<title>Node29</title>
<g id="a_Node000029"><a xlink:href="m__qbmm_8fpp_8f90.html#aa750511b235cbb6510ee744ffdd18d50" target="_top" xlink:title=" ">
<polygon fill="white" stroke="#666666" points="242.5,-159.5 169.5,-159.5 169.5,-140.5 242.5,-140.5 242.5,-159.5"/>
<text text-anchor="middle" x="206" y="-147.5" font-family="Helvetica,sans-Serif" font-size="10.00">s_mom_inv</text>
</a>
</g>
</g>
<!-- Node1&#45;&gt;Node29 -->
<g id="edge39_Node000001_Node000029" class="edge">
<title>Node1&#45;&gt;Node29</title>
<g id="a_edge39_Node000001_Node000029"><a xlink:title=" ">
<path fill="none" stroke="#63b8ff" d="M50.19,-362.34C60.87,-338.32 90.72,-274.47 126,-228 143.83,-204.52 168.56,-181.25 185.58,-166.32"/>
<polygon fill="#63b8ff" stroke="#63b8ff" points="187.96,-168.89 193.25,-159.7 183.39,-163.59 187.96,-168.89"/>
</a>
</g>
</g>
<!-- Node35 -->
<g id="Node000035" class="node">
<title>Node35</title>
<g id="a_Node000035"><a xlink:href="m__rhs_8fpp_8f90.html#a83350e07cb85a15b536638bccd450f11" target="_top" xlink:title="The purpose of this procedure is to populate the buffers of the conservative variables,...">
<polygon fill="white" stroke="#666666" points="275,-76 137,-76 137,-46 275,-46 275,-76"/>
<text text-anchor="start" x="145" y="-64" font-family="Helvetica,sans-Serif" font-size="10.00">s_populate_conservative</text>
<text text-anchor="middle" x="206" y="-53" font-family="Helvetica,sans-Serif" font-size="10.00">_variables_buffers</text>
</a>
</g>
</g>
<!-- Node1&#45;&gt;Node35 -->
<g id="edge47_Node000001_Node000035" class="edge">
<title>Node1&#45;&gt;Node35</title>
<g id="a_edge47_Node000001_Node000035"><a xlink:title=" ">
<path fill="none" stroke="#63b8ff" d="M47.44,-362.06C52.79,-327.65 73.99,-211.34 126,-132 138.74,-112.56 158.08,-95.06 174.44,-82.29"/>
<polygon fill="#63b8ff" stroke="#63b8ff" points="176.81,-84.89 182.67,-76.06 172.58,-79.3 176.81,-84.89"/>
</a>
</g>
</g>
<!-- Node37 -->
<g id="Node000037" class="node">
<title>Node37</title>
<g id="a_Node000037"><a xlink:href="m__rhs_8fpp_8f90.html#a26833f559de36f1d15b4f6b3d28cfc79" target="_top" xlink:title="The purpose of this subroutine is to WENO&#45;reconstruct the left and the right cell&#45;boundary values,...">
<polygon fill="white" stroke="#666666" points="258.5,-334 153.5,-334 153.5,-304 258.5,-304 258.5,-334"/>
<text text-anchor="start" x="161.5" y="-322" font-family="Helvetica,sans-Serif" font-size="10.00">s_reconstruct_cell</text>
<text text-anchor="middle" x="206" y="-311" font-family="Helvetica,sans-Serif" font-size="10.00">_boundary_values</text>
</a>
</g>
</g>
<!-- Node1&#45;&gt;Node37 -->
<g id="edge49_Node000001_Node000037" class="edge">
<title>Node1&#45;&gt;Node37</title>
<g id="a_edge49_Node000001_Node000037"><a xlink:title=" ">
<path fill="none" stroke="#63b8ff" d="M74.79,-362.4C95.82,-355.39 124.97,-345.68 150.36,-337.21"/>
<polygon fill="#63b8ff" stroke="#63b8ff" points="151.51,-340.52 159.89,-334.04 149.29,-333.88 151.51,-340.52"/>
</a>
</g>
</g>
<!-- Node38 -->
<g id="Node000038" class="node">
<title>Node38</title>
<g id="a_Node000038"><a xlink:href="m__viscous_8fpp_8f90.html#a7a5f067c7a738f8814f5cee205d2892d" target="_top" xlink:title=" ">
<polygon fill="white" stroke="#666666" points="286,-267 126,-267 126,-237 286,-237 286,-267"/>
<text text-anchor="start" x="134" y="-255" font-family="Helvetica,sans-Serif" font-size="10.00">s_reconstruct_cell</text>
<text text-anchor="middle" x="206" y="-244" font-family="Helvetica,sans-Serif" font-size="10.00">_boundary_values_visc_deriv</text>
</a>
</g>
</g>
<!-- Node1&#45;&gt;Node38 -->
<g id="edge51_Node000001_Node000038" class="edge">
<title>Node1&#45;&gt;Node38</title>
<g id="a_edge51_Node000001_Node000038"><a xlink:title=" ">
<path fill="none" stroke="#63b8ff" d="M54.64,-362.13C68.58,-346.57 97.39,-315.96 126,-295 137.66,-286.46 151.21,-278.47 163.76,-271.76"/>
<polygon fill="#63b8ff" stroke="#63b8ff" points="165.44,-274.83 172.69,-267.1 162.2,-268.63 165.44,-274.83"/>
</a>
</g>
</g>
<!-- Node3 -->
<g id="Node000003" class="node">
<title>Node3</title>
<g id="a_Node000003"><a xlink:href="m__bubbles_8fpp_8f90.html#a8018aeac239907c1ee784788f9c81673" target="_top" xlink:title="Function that computes the time derivative of the internal bubble pressure.">
<polygon fill="white" stroke="#666666" points="447,-1127.5 373,-1127.5 373,-1108.5 447,-1108.5 447,-1127.5"/>
<text text-anchor="middle" x="410" y="-1115.5" font-family="Helvetica,sans-Serif" font-size="10.00">f_bpres_dot</text>
</a>
</g>
</g>
<!-- Node2&#45;&gt;Node3 -->
<g id="edge2_Node000002_Node000003" class="edge">
<title>Node2&#45;&gt;Node3</title>
<g id="a_edge2_Node000002_Node000003"><a xlink:title=" ">
<path fill="none" stroke="#63b8ff" d="M209.5,-907.96C218.41,-941.18 251.82,-1048.98 322,-1100 333.75,-1108.54 348.62,-1113.23 362.73,-1115.75"/>
<polygon fill="#63b8ff" stroke="#63b8ff" points="362.41,-1119.24 372.82,-1117.23 363.43,-1112.32 362.41,-1119.24"/>
</a>
</g>
</g>
<!-- Node4 -->
<g id="Node000004" class="node">
<title>Node4</title>
<g id="a_Node000004"><a xlink:href="m__bubbles_8fpp_8f90.html#a92173957cdea7588a1d2ae5a8097dd0b" target="_top" xlink:title="Function that computes the sound speed for the bubble.">
<polygon fill="white" stroke="#666666" points="434,-1072.5 386,-1072.5 386,-1053.5 434,-1053.5 434,-1072.5"/>
<text text-anchor="middle" x="410" y="-1060.5" font-family="Helvetica,sans-Serif" font-size="10.00">f_cgas</text>
</a>
</g>
</g>
<!-- Node2&#45;&gt;Node4 -->
<g id="edge4_Node000002_Node000004" class="edge">
<title>Node2&#45;&gt;Node4</title>
<g id="a_edge4_Node000002_Node000004"><a xlink:title=" ">
<path fill="none" stroke="#63b8ff" d="M211.57,-907.82C224.61,-934.63 264.74,-1009.46 322,-1045 338.06,-1054.97 358.69,-1059.52 375.82,-1061.55"/>
<polygon fill="#63b8ff" stroke="#63b8ff" points="375.68,-1065.05 385.97,-1062.52 376.35,-1058.09 375.68,-1065.05"/>
</a>
</g>
</g>
<!-- Node5 -->
<g id="Node000005" class="node">
<title>Node5</title>
<g id="a_Node000005"><a xlink:href="m__bubbles_8fpp_8f90.html#a5a0193f314079c7e9d923b9374eb20e3" target="_top" xlink:title="Function that computes that bubble wall pressure for Gilmore bubbles.">
<polygon fill="white" stroke="#666666" points="435.5,-1017.5 384.5,-1017.5 384.5,-998.5 435.5,-998.5 435.5,-1017.5"/>
<text text-anchor="middle" x="410" y="-1005.5" font-family="Helvetica,sans-Serif" font-size="10.00">f_cpbw</text>
</a>
</g>
</g>
<!-- Node2&#45;&gt;Node5 -->
<g id="edge6_Node000002_Node000005" class="edge">
<title>Node2&#45;&gt;Node5</title>
<g id="a_edge6_Node000002_Node000005"><a xlink:title=" ">
<path fill="none" stroke="#63b8ff" d="M215.79,-907.57C233.77,-926.51 276.88,-968.79 322,-990 338.26,-997.64 357.74,-1002.06 374.13,-1004.6"/>
<polygon fill="#63b8ff" stroke="#63b8ff" points="374.02,-1008.12 384.4,-1006.01 374.97,-1001.18 374.02,-1008.12"/>
</a>
</g>
</g>
<!-- Node6 -->
<g id="Node000006" class="node">
<title>Node6</title>
<g id="a_Node000006"><a xlink:href="m__bubbles_8fpp_8f90.html#ab5cad916879a4c85674fcadd46ac3acd" target="_top" xlink:title="Function that computes the bubble wall pressure for Keller–Miksis bubbles.">
<polygon fill="white" stroke="#666666" points="446,-962.5 374,-962.5 374,-943.5 446,-943.5 446,-962.5"/>
<text text-anchor="middle" x="410" y="-950.5" font-family="Helvetica,sans-Serif" font-size="10.00">f_cpbw_km</text>
</a>
</g>
</g>
<!-- Node2&#45;&gt;Node6 -->
<g id="edge8_Node000002_Node000006" class="edge">
<title>Node2&#45;&gt;Node6</title>
<g id="a_edge8_Node000002_Node000006"><a xlink:title=" ">
<path fill="none" stroke="#63b8ff" d="M234.17,-907.65C257.33,-915.66 291.58,-926.98 322,-935 335.43,-938.54 350.18,-941.82 363.65,-944.58"/>
<polygon fill="#63b8ff" stroke="#63b8ff" points="363.17,-948.05 373.67,-946.58 364.55,-941.19 363.17,-948.05"/>
</a>
</g>
</g>
<!-- Node7 -->
<g id="Node000007" class="node">
<title>Node7</title>
<g id="a_Node000007"><a xlink:href="m__bubbles_8fpp_8f90.html#a5ba0b7cce948abfecaebce809ed4b632" target="_top" xlink:title="Function that computes the time derivative of the driving pressure.">
<polygon fill="white" stroke="#666666" points="442.5,-907.5 377.5,-907.5 377.5,-888.5 442.5,-888.5 442.5,-907.5"/>
<text text-anchor="middle" x="410" y="-895.5" font-family="Helvetica,sans-Serif" font-size="10.00">f_cpinfdot</text>
</a>
</g>
</g>
<!-- Node2&#45;&gt;Node7 -->
<g id="edge10_Node000002_Node000007" class="edge">
<title>Node2&#45;&gt;Node7</title>
<g id="a_edge10_Node000002_Node000007"><a xlink:title=" ">
<path fill="none" stroke="#63b8ff" d="M279.07,-898C308.65,-898 341.84,-898 367.27,-898"/>
<polygon fill="#63b8ff" stroke="#63b8ff" points="367.31,-901.5 377.31,-898 367.31,-894.5 367.31,-901.5"/>
</a>
</g>
</g>
<!-- Node8 -->
<g id="Node000008" class="node">
<title>Node8</title>
<g id="a_Node000008"><a xlink:href="m__bubbles_8fpp_8f90.html#a5cd28691438ce1e5e59e56e03f81082a" target="_top" xlink:title="Function that computes the bubble enthalpy.">
<polygon fill="white" stroke="#666666" points="426,-852.5 394,-852.5 394,-833.5 426,-833.5 426,-852.5"/>
<text text-anchor="middle" x="410" y="-840.5" font-family="Helvetica,sans-Serif" font-size="10.00">f_h</text>
</a>
</g>
</g>
<!-- Node2&#45;&gt;Node8 -->
<g id="edge12_Node000002_Node000008" class="edge">
<title>Node2&#45;&gt;Node8</title>
<g id="a_edge12_Node000002_Node000008"><a xlink:title=" ">
<path fill="none" stroke="#63b8ff" d="M242.19,-888.42C282.55,-877.43 347.74,-859.68 383.51,-849.94"/>
<polygon fill="#63b8ff" stroke="#63b8ff" points="384.87,-853.2 393.6,-847.19 383.03,-846.44 384.87,-853.2"/>
</a>
</g>
</g>
<!-- Node9 -->
<g id="Node000009" class="node">
<title>Node9</title>
<g id="a_Node000009"><a xlink:href="m__bubbles_8fpp_8f90.html#a8677e47b010a7a8e38e25c25f30fe0f0" target="_top" xlink:title="Function that computes the time derivative of the enthalpy.">
<polygon fill="white" stroke="#666666" points="433.5,-797.5 386.5,-797.5 386.5,-778.5 433.5,-778.5 433.5,-797.5"/>
<text text-anchor="middle" x="410" y="-785.5" font-family="Helvetica,sans-Serif" font-size="10.00">f_hdot</text>
</a>
</g>
</g>
<!-- Node2&#45;&gt;Node9 -->
<g id="edge14_Node000002_Node000009" class="edge">
<title>Node2&#45;&gt;Node9</title>
<g id="a_edge14_Node000002_Node000009"><a xlink:title=" ">
<path fill="none" stroke="#63b8ff" d="M220.38,-888.49C241.39,-873.78 283.69,-845.13 322,-825 339.73,-815.68 360.33,-806.84 377.03,-800.14"/>
<polygon fill="#63b8ff" stroke="#63b8ff" points="378.35,-803.38 386.36,-796.45 375.78,-796.87 378.35,-803.38"/>
</a>
</g>
</g>
<!-- Node10 -->
<g id="Node000010" class="node">
<title>Node10</title>
<g id="a_Node000010"><a xlink:href="m__bubbles_8fpp_8f90.html#a45660b9763222bf51cebff21377443b3" target="_top" xlink:title="Function that computes the bubble radial acceleration.">
<polygon fill="white" stroke="#666666" points="435.5,-742.5 384.5,-742.5 384.5,-723.5 435.5,-723.5 435.5,-742.5"/>
<text text-anchor="middle" x="410" y="-730.5" font-family="Helvetica,sans-Serif" font-size="10.00">f_rddot</text>
</a>
</g>
</g>
<!-- Node2&#45;&gt;Node10 -->
<g id="edge16_Node000002_Node000010" class="edge">
<title>Node2&#45;&gt;Node10</title>
<g id="a_edge16_Node000002_Node000010"><a xlink:title=" ">
<path fill="none" stroke="#63b8ff" d="M213.4,-888.35C229.26,-865.09 272.66,-805.26 322,-770 337.96,-758.59 357.99,-749.77 374.8,-743.61"/>
<polygon fill="#63b8ff" stroke="#63b8ff" points="375.99,-746.9 384.27,-740.29 373.68,-740.29 375.99,-746.9"/>
</a>
</g>
</g>
<!-- Node11 -->
<g id="Node000011" class="node">
<title>Node11</title>
<g id="a_Node000011"><a xlink:href="m__bubbles_8fpp_8f90.html#a6c94745d6e1c569d57616a5e472ae2cd" target="_top" xlink:title="Function that computes the bubble radial acceleration for Keller–Miksis bubbles.">
<polygon fill="white" stroke="#666666" points="446,-687.5 374,-687.5 374,-668.5 446,-668.5 446,-687.5"/>
<text text-anchor="middle" x="410" y="-675.5" font-family="Helvetica,sans-Serif" font-size="10.00">f_rddot_km</text>
</a>
</g>
</g>
<!-- Node2&#45;&gt;Node11 -->
<g id="edge18_Node000002_Node000011" class="edge">
<title>Node2&#45;&gt;Node11</title>
<g id="a_edge18_Node000002_Node000011"><a xlink:title=" ">
<path fill="none" stroke="#63b8ff" d="M210.66,-888.21C222.32,-858.24 261.46,-766.61 322,-715 334.19,-704.61 349.74,-696.76 364.3,-691.03"/>
<polygon fill="#63b8ff" stroke="#63b8ff" points="365.52,-694.31 373.69,-687.56 363.1,-687.74 365.52,-694.31"/>
</a>
</g>
</g>
<!-- Node12 -->
<g id="Node000012" class="node">
<title>Node12</title>
<g id="a_Node000012"><a xlink:href="m__bubbles_8fpp_8f90.html#ad8bb547b5b33724b2d0affee7746a306" target="_top" xlink:title="Function that computes the bubble radial acceleration for Rayleigh&#45;Plesset bubbles.">
<polygon fill="white" stroke="#666666" points="443,-632.5 377,-632.5 377,-613.5 443,-613.5 443,-632.5"/>
<text text-anchor="middle" x="410" y="-620.5" font-family="Helvetica,sans-Serif" font-size="10.00">f_rddot_rp</text>
</a>
</g>
</g>
<!-- Node2&#45;&gt;Node12 -->
<g id="edge20_Node000002_Node000012" class="edge">
<title>Node2&#45;&gt;Node12</title>
<g id="a_edge20_Node000002_Node000012"><a xlink:title=" ">
<path fill="none" stroke="#63b8ff" d="M209.06,-888.39C217.11,-853.08 249.58,-729.02 322,-660 334.59,-648 351.67,-639.59 367.37,-633.86"/>
<polygon fill="#63b8ff" stroke="#63b8ff" points="368.56,-637.15 376.91,-630.63 366.31,-630.52 368.56,-637.15"/>
</a>
</g>
</g>
<!-- Node13 -->
<g id="Node000013" class="node">
<title>Node13</title>
<g id="a_Node000013"><a xlink:href="m__bubbles_8fpp_8f90.html#a5af4ca8a74ce2461012304ed54f52d73" target="_top" xlink:title="Function that computes the vapour flux.">
<polygon fill="white" stroke="#666666" points="435,-1219.5 385,-1219.5 385,-1200.5 435,-1200.5 435,-1219.5"/>
<text text-anchor="middle" x="410" y="-1207.5" font-family="Helvetica,sans-Serif" font-size="10.00">f_vflux</text>
</a>
</g>
</g>
<!-- Node2&#45;&gt;Node13 -->
<g id="edge22_Node000002_Node000013" class="edge">
<title>Node2&#45;&gt;Node13</title>
<g id="a_edge22_Node000002_Node000013"><a xlink:title=" ">
<path fill="none" stroke="#63b8ff" d="M207.6,-907.75C210.74,-949.33 228.81,-1113.35 322,-1192 336.45,-1204.19 357,-1208.84 374.5,-1210.36"/>
<polygon fill="#63b8ff" stroke="#63b8ff" points="374.75,-1213.88 384.93,-1210.95 375.14,-1206.89 374.75,-1213.88"/>
</a>
</g>
</g>
<!-- Node14 -->
<g id="Node000014" class="node">
<title>Node14</title>
<g id="a_Node000014"><a xlink:href="m__bubbles_8fpp_8f90.html#a8a11f32e3e991cbcfa764074a62f2492" target="_top" xlink:title="Subroutine that computes bubble wall properties for vapor bubbles.">
<polygon fill="white" stroke="#666666" points="451.5,-1182.5 368.5,-1182.5 368.5,-1163.5 451.5,-1163.5 451.5,-1182.5"/>
<text text-anchor="middle" x="410" y="-1170.5" font-family="Helvetica,sans-Serif" font-size="10.00">s_bwproperty</text>
</a>
</g>
</g>
<!-- Node2&#45;&gt;Node14 -->
<g id="edge24_Node000002_Node000014" class="edge">
<title>Node2&#45;&gt;Node14</title>
<g id="a_edge24_Node000002_Node000014"><a xlink:title=" ">
<path fill="none" stroke="#63b8ff" d="M208.17,-907.56C213.38,-945.61 237.99,-1087.48 322,-1155 332.25,-1163.23 345.31,-1167.98 358.18,-1170.65"/>
<polygon fill="#63b8ff" stroke="#63b8ff" points="357.96,-1174.16 368.41,-1172.37 359.13,-1167.26 357.96,-1174.16"/>
</a>
</g>
</g>
<!-- Node3&#45;&gt;Node3 -->
<g id="edge3_Node000003_Node000003" class="edge">
<title>Node3&#45;&gt;Node3</title>
<g id="a_edge3_Node000003_Node000003"><a xlink:title=" ">
<path fill="none" stroke="#63b8ff" d="M385.65,-1127.58C373.8,-1136.23 381.92,-1145.5 410,-1145.5 428.43,-1145.5 438.26,-1141.51 439.49,-1136.32"/>
<polygon fill="#63b8ff" stroke="#63b8ff" points="442.44,-1134.43 434.35,-1127.58 436.41,-1137.98 442.44,-1134.43"/>
</a>
</g>
</g>
<!-- Node4&#45;&gt;Node4 -->
<g id="edge5_Node000004_Node000004" class="edge">
<title>Node4&#45;&gt;Node4</title>
<g id="a_edge5_Node000004_Node000004"><a xlink:title=" ">
<path fill="none" stroke="#63b8ff" d="M385.65,-1072.58C373.8,-1081.23 381.92,-1090.5 410,-1090.5 428.43,-1090.5 438.26,-1086.51 439.49,-1081.32"/>
<polygon fill="#63b8ff" stroke="#63b8ff" points="442.44,-1079.43 434.35,-1072.58 436.41,-1082.98 442.44,-1079.43"/>
</a>
</g>
</g>
<!-- Node5&#45;&gt;Node5 -->
<g id="edge7_Node000005_Node000005" class="edge">
<title>Node5&#45;&gt;Node5</title>
<g id="a_edge7_Node000005_Node000005"><a xlink:title=" ">
<path fill="none" stroke="#63b8ff" d="M385.65,-1017.58C373.8,-1026.23 381.92,-1035.5 410,-1035.5 428.43,-1035.5 438.26,-1031.51 439.49,-1026.32"/>
<polygon fill="#63b8ff" stroke="#63b8ff" points="442.44,-1024.43 434.35,-1017.58 436.41,-1027.98 442.44,-1024.43"/>
</a>
</g>
</g>
<!-- Node6&#45;&gt;Node6 -->
<g id="edge9_Node000006_Node000006" class="edge">
<title>Node6&#45;&gt;Node6</title>
<g id="a_edge9_Node000006_Node000006"><a xlink:title=" ">
<path fill="none" stroke="#63b8ff" d="M385.65,-962.58C373.8,-971.23 381.92,-980.5 410,-980.5 428.43,-980.5 438.26,-976.51 439.49,-971.32"/>
<polygon fill="#63b8ff" stroke="#63b8ff" points="442.44,-969.43 434.35,-962.58 436.41,-972.98 442.44,-969.43"/>
</a>
</g>
</g>
<!-- Node7&#45;&gt;Node7 -->
<g id="edge11_Node000007_Node000007" class="edge">
<title>Node7&#45;&gt;Node7</title>
<g id="a_edge11_Node000007_Node000007"><a xlink:title=" ">
<path fill="none" stroke="#63b8ff" d="M385.65,-907.58C373.8,-916.23 381.92,-925.5 410,-925.5 428.43,-925.5 438.26,-921.51 439.49,-916.32"/>
<polygon fill="#63b8ff" stroke="#63b8ff" points="442.44,-914.43 434.35,-907.58 436.41,-917.98 442.44,-914.43"/>
</a>
</g>
</g>
<!-- Node8&#45;&gt;Node8 -->
<g id="edge13_Node000008_Node000008" class="edge">
<title>Node8&#45;&gt;Node8</title>
<g id="a_edge13_Node000008_Node000008"><a xlink:title=" ">
<path fill="none" stroke="#63b8ff" d="M393.75,-848.13C371.56,-857.69 376.98,-870.5 410,-870.5 437.34,-870.5 445.76,-861.71 435.24,-853.27"/>
<polygon fill="#63b8ff" stroke="#63b8ff" points="436.67,-850.05 426.25,-848.13 433.2,-856.13 436.67,-850.05"/>
</a>
</g>
</g>
<!-- Node9&#45;&gt;Node9 -->
<g id="edge15_Node000009_Node000009" class="edge">
<title>Node9&#45;&gt;Node9</title>
<g id="a_edge15_Node000009_Node000009"><a xlink:title=" ">
<path fill="none" stroke="#63b8ff" d="M386.46,-797.01C373.45,-805.82 381.3,-815.5 410,-815.5 429.73,-815.5 439.61,-810.93 439.62,-805.2"/>
<polygon fill="#63b8ff" stroke="#63b8ff" points="442.31,-802.96 433.54,-797.01 436.69,-807.13 442.31,-802.96"/>
</a>
</g>
</g>
<!-- Node10&#45;&gt;Node10 -->
<g id="edge17_Node000010_Node000010" class="edge">
<title>Node10&#45;&gt;Node10</title>
<g id="a_edge17_Node000010_Node000010"><a xlink:title=" ">
<path fill="none" stroke="#63b8ff" d="M385.65,-742.58C373.8,-751.23 381.92,-760.5 410,-760.5 428.43,-760.5 438.26,-756.51 439.49,-751.32"/>
<polygon fill="#63b8ff" stroke="#63b8ff" points="442.44,-749.43 434.35,-742.58 436.41,-752.98 442.44,-749.43"/>
</a>
</g>
</g>
<!-- Node11&#45;&gt;Node11 -->
<g id="edge19_Node000011_Node000011" class="edge">
<title>Node11&#45;&gt;Node11</title>
<g id="a_edge19_Node000011_Node000011"><a xlink:title=" ">
<path fill="none" stroke="#63b8ff" d="M385.65,-687.58C373.8,-696.23 381.92,-705.5 410,-705.5 428.43,-705.5 438.26,-701.51 439.49,-696.32"/>
<polygon fill="#63b8ff" stroke="#63b8ff" points="442.44,-694.43 434.35,-687.58 436.41,-697.98 442.44,-694.43"/>
</a>
</g>
</g>
<!-- Node12&#45;&gt;Node12 -->
<g id="edge21_Node000012_Node000012" class="edge">
<title>Node12&#45;&gt;Node12</title>
<g id="a_edge21_Node000012_Node000012"><a xlink:title=" ">
<path fill="none" stroke="#63b8ff" d="M385.65,-632.58C373.8,-641.23 381.92,-650.5 410,-650.5 428.43,-650.5 438.26,-646.51 439.49,-641.32"/>
<polygon fill="#63b8ff" stroke="#63b8ff" points="442.44,-639.43 434.35,-632.58 436.41,-642.98 442.44,-639.43"/>
</a>
</g>
</g>
<!-- Node13&#45;&gt;Node13 -->
<g id="edge23_Node000013_Node000013" class="edge">
<title>Node13&#45;&gt;Node13</title>
<g id="a_edge23_Node000013_Node000013"><a xlink:title=" ">
<path fill="none" stroke="#63b8ff" d="M385.65,-1219.58C373.8,-1228.23 381.92,-1237.5 410,-1237.5 428.43,-1237.5 438.26,-1233.51 439.49,-1228.32"/>
<polygon fill="#63b8ff" stroke="#63b8ff" points="442.44,-1226.43 434.35,-1219.58 436.41,-1229.98 442.44,-1226.43"/>
</a>
</g>
</g>
<!-- Node18 -->
<g id="Node000018" class="node">
<title>Node18</title>
<g id="a_Node000018"><a xlink:href="m__helper_8fpp_8f90.html#a772c75c8b24c414cfaed17e2f8acc772" target="_top" xlink:title=" ">
<polygon fill="white" stroke="#666666" points="471,-498.5 349,-498.5 349,-479.5 471,-479.5 471,-498.5"/>
<text text-anchor="middle" x="410" y="-486.5" font-family="Helvetica,sans-Serif" font-size="10.00">s_comp_n_from_cons</text>
</a>
</g>
</g>
<!-- Node17&#45;&gt;Node18 -->
<g id="edge28_Node000017_Node000018" class="edge">
<title>Node17&#45;&gt;Node18</title>
<g id="a_edge28_Node000017_Node000018"><a xlink:title=" ">
<path fill="none" stroke="#63b8ff" d="M272.03,-463.91C296.04,-468.31 323.18,-473.28 346.93,-477.63"/>
<polygon fill="#63b8ff" stroke="#63b8ff" points="346.42,-481.1 356.89,-479.45 347.68,-474.21 346.42,-481.1"/>
</a>
</g>
</g>
<!-- Node19 -->
<g id="Node000019" class="node">
<title>Node19</title>
<g id="a_Node000019"><a xlink:href="m__variables__conversion_8fpp_8f90.html#ad31047dc31e7ee8fc14d8717c4d0c334" target="_top" xlink:title="This procedure conditionally calculates the appropriate pressure.">
<polygon fill="white" stroke="#666666" points="468.5,-461.5 351.5,-461.5 351.5,-442.5 468.5,-442.5 468.5,-461.5"/>
<text text-anchor="middle" x="410" y="-449.5" font-family="Helvetica,sans-Serif" font-size="10.00">s_compute_pressure</text>
</a>
</g>
</g>
<!-- Node17&#45;&gt;Node19 -->
<g id="edge29_Node000017_Node000019" class="edge">
<title>Node17&#45;&gt;Node19</title>
<g id="a_edge29_Node000017_Node000019"><a xlink:title=" ">
<path fill="none" stroke="#63b8ff" d="M272.03,-452C294.13,-452 318.88,-452 341.19,-452"/>
<polygon fill="#63b8ff" stroke="#63b8ff" points="341.26,-455.5 351.26,-452 341.26,-448.5 341.26,-455.5"/>
</a>
</g>
</g>
<!-- Node20 -->
<g id="Node000020" class="node">
<title>Node20</title>
<g id="a_Node000020"><a xlink:href="m__variables__conversion_8fpp_8f90.html#a429dacb6b48479f387786642eb79900d" target="_top" xlink:title=" ">
<polygon fill="white" stroke="#666666" points="476,-595 344,-595 344,-565 476,-565 476,-595"/>
<text text-anchor="start" x="352" y="-583" font-family="Helvetica,sans-Serif" font-size="10.00">s_convert_species_to</text>
<text text-anchor="middle" x="410" y="-572" font-family="Helvetica,sans-Serif" font-size="10.00">_mixture_variables_acc</text>
</a>
</g>
</g>
<!-- Node17&#45;&gt;Node20 -->
<g id="edge30_Node000017_Node000020" class="edge">
<title>Node17&#45;&gt;Node20</title>
<g id="a_edge30_Node000017_Node000020"><a xlink:title=" ">
<path fill="none" stroke="#63b8ff" d="M272.01,-466.54C277.05,-469.18 281.8,-472.31 286,-476 315.28,-501.75 292.39,-530.63 322,-556 325.91,-559.36 330.26,-562.24 334.86,-564.73"/>
<polygon fill="#63b8ff" stroke="#63b8ff" points="333.44,-567.93 343.98,-569.04 336.43,-561.6 333.44,-567.93"/>
</a>
</g>
</g>
<!-- Node21 -->
<g id="Node000021" class="node">
<title>Node21</title>
<g id="a_Node000021"><a xlink:href="m__variables__conversion_8fpp_8f90.html#ab5ef0fb6705f3250d70ca1d9d750952c" target="_top" xlink:title=" ">
<polygon fill="white" stroke="#666666" points="498,-547 322,-547 322,-517 498,-517 498,-547"/>
<text text-anchor="start" x="330" y="-535" font-family="Helvetica,sans-Serif" font-size="10.00">s_convert_species_to</text>
<text text-anchor="middle" x="410" y="-524" font-family="Helvetica,sans-Serif" font-size="10.00">_mixture_variables_bubbles_acc</text>
</a>
</g>
</g>
<!-- Node17&#45;&gt;Node21 -->
<g id="edge31_Node000017_Node000021" class="edge">
<title>Node17&#45;&gt;Node21</title>
<g id="a_edge31_Node000017_Node000021"><a xlink:title=" ">
<path fill="none" stroke="#63b8ff" d="M266.82,-467.12C273.47,-469.69 280,-472.64 286,-476 304.67,-486.47 303.19,-497.78 322,-508 325.46,-509.88 329.09,-511.63 332.8,-513.24"/>
<polygon fill="#63b8ff" stroke="#63b8ff" points="331.62,-516.54 342.2,-517 334.21,-510.04 331.62,-516.54"/>
</a>
</g>
</g>
<!-- Node23 -->
<g id="Node000023" class="node">
<title>Node23</title>
<g id="a_Node000023"><a xlink:href="m__viscous_8fpp_8f90.html#aade42711c6dfbbd3bd3b47358ac2bd91" target="_top" xlink:title="The purpose of this subroutine is to employ the inputted left and right cell&#45;boundary integral&#45;averag...">
<polygon fill="white" stroke="#666666" points="484,-387 336,-387 336,-357 484,-357 484,-387"/>
<text text-anchor="start" x="344" y="-375" font-family="Helvetica,sans-Serif" font-size="10.00">s_apply_scalar_divergence</text>
<text text-anchor="middle" x="410" y="-364" font-family="Helvetica,sans-Serif" font-size="10.00">_theorem</text>
</a>
</g>
</g>
<!-- Node22&#45;&gt;Node23 -->
<g id="edge33_Node000022_Node000023" class="edge">
<title>Node22&#45;&gt;Node23</title>
<g id="a_edge33_Node000022_Node000023"><a xlink:title=" ">
<path fill="none" stroke="#63b8ff" d="M248.85,-372C271.09,-372 299.23,-372 325.7,-372"/>
<polygon fill="#63b8ff" stroke="#63b8ff" points="325.75,-375.5 335.75,-372 325.75,-368.5 325.75,-375.5"/>
</a>
</g>
</g>
<!-- Node24 -->
<g id="Node000024" class="node">
<title>Node24</title>
<g id="a_Node000024"><a xlink:href="m__viscous_8fpp_8f90.html#add30c5e0cfe85ee14359bb4e02c713c3" target="_top" xlink:title="Computes the scalar gradient fields via finite differences.">
<polygon fill="white" stroke="#666666" points="475.5,-424.5 344.5,-424.5 344.5,-405.5 475.5,-405.5 475.5,-424.5"/>
<text text-anchor="middle" x="410" y="-412.5" font-family="Helvetica,sans-Serif" font-size="10.00">s_compute_fd_gradient</text>
</a>
</g>
</g>
<!-- Node22&#45;&gt;Node24 -->
<g id="edge34_Node000022_Node000024" class="edge">
<title>Node22&#45;&gt;Node24</title>
<g id="a_edge34_Node000022_Node000024"><a xlink:title=" ">
<path fill="none" stroke="#63b8ff" d="M248.85,-380.91C279.33,-387.4 320.9,-396.25 354.05,-403.3"/>
<polygon fill="#63b8ff" stroke="#63b8ff" points="353.53,-406.77 364.04,-405.43 354.99,-399.92 353.53,-406.77"/>
</a>
</g>
</g>
<!-- Node25 -->
<g id="Node000025" class="node">
<title>Node25</title>
<g id="a_Node000025"><a xlink:href="m__viscous_8fpp_8f90.html#afb2cea3f273b947ff0fefe977e829244" target="_top" xlink:title=" ">
<polygon fill="white" stroke="#666666" points="475,-339 345,-339 345,-309 475,-309 475,-339"/>
<text text-anchor="start" x="353" y="-327" font-family="Helvetica,sans-Serif" font-size="10.00">s_reconstruct_cell</text>
<text text-anchor="middle" x="410" y="-316" font-family="Helvetica,sans-Serif" font-size="10.00">_boundary_values_visc</text>
</a>
</g>
</g>
<!-- Node22&#45;&gt;Node25 -->
<g id="edge35_Node000022_Node000025" class="edge">
<title>Node22&#45;&gt;Node25</title>
<g id="a_edge35_Node000022_Node000025"><a xlink:title=" ">
<path fill="none" stroke="#63b8ff" d="M247.39,-362.4C272.63,-356.4 305.88,-348.5 335.66,-341.43"/>
<polygon fill="#63b8ff" stroke="#63b8ff" points="336.69,-344.78 345.61,-339.06 335.07,-337.97 336.69,-344.78"/>
</a>
</g>
</g>
<!-- Node26 -->
<g id="Node000026" class="node">
<title>Node26</title>
<g id="a_Node000026"><a xlink:href="m__weno_8fpp_8f90.html#a8495f5eb3dca2bbde1088b568cf13288" target="_top" xlink:title=" ">
<polygon fill="white" stroke="#666666" points="596,-290.5 543,-290.5 543,-271.5 596,-271.5 596,-290.5"/>
<text text-anchor="middle" x="569.5" y="-278.5" font-family="Helvetica,sans-Serif" font-size="10.00">s_weno</text>
</a>
</g>
</g>
<!-- Node25&#45;&gt;Node26 -->
<g id="edge36_Node000025_Node000026" class="edge">
<title>Node25&#45;&gt;Node26</title>
<g id="a_edge36_Node000025_Node000026"><a xlink:title=" ">
<path fill="none" stroke="#63b8ff" d="M466.09,-308.96C488.29,-302.9 513.27,-296.08 533,-290.69"/>
<polygon fill="#63b8ff" stroke="#63b8ff" points="534.07,-294.03 542.79,-288.02 532.23,-287.28 534.07,-294.03"/>
</a>
</g>
</g>
<!-- Node27 -->
<g id="Node000027" class="node">
<title>Node27</title>
<g id="a_Node000027"><a xlink:href="m__weno_8fpp_8f90.html#abc4801fbf3acfd4db40d1ad294aa3e46" target="_top" xlink:title="The computation of parameters, the allocation of memory, the association of pointers and/or the execu...">
<polygon fill="white" stroke="#666666" points="761.5,-308.5 660.5,-308.5 660.5,-289.5 761.5,-289.5 761.5,-308.5"/>
<text text-anchor="middle" x="711" y="-296.5" font-family="Helvetica,sans-Serif" font-size="10.00">s_initialize_weno</text>
</a>
</g>
</g>
<!-- Node26&#45;&gt;Node27 -->
<g id="edge37_Node000026_Node000027" class="edge">
<title>Node26&#45;&gt;Node27</title>
<g id="a_edge37_Node000026_Node000027"><a xlink:title=" ">
<path fill="none" stroke="#63b8ff" d="M596.09,-284.3C611.29,-286.26 631.24,-288.84 650.2,-291.28"/>
<polygon fill="#63b8ff" stroke="#63b8ff" points="649.92,-294.78 660.29,-292.59 650.82,-287.83 649.92,-294.78"/>
</a>
</g>
</g>
<!-- Node28 -->
<g id="Node000028" class="node">
<title>Node28</title>
<g id="a_Node000028"><a xlink:href="m__weno_8fpp_8f90.html#ac6752752f34719dae452d0fe42e21682" target="_top" xlink:title="The goal of this subroutine is to ensure that the WENO reconstruction is monotonic....">
<polygon fill="white" stroke="#666666" points="781,-271.5 641,-271.5 641,-252.5 781,-252.5 781,-271.5"/>
<text text-anchor="middle" x="711" y="-259.5" font-family="Helvetica,sans-Serif" font-size="10.00">s_preserve_monotonicity</text>
</a>
</g>
</g>
<!-- Node26&#45;&gt;Node28 -->
<g id="edge38_Node000026_Node000028" class="edge">
<title>Node26&#45;&gt;Node28</title>
<g id="a_edge38_Node000026_Node000028"><a xlink:title=" ">
<path fill="none" stroke="#63b8ff" d="M596.09,-277.52C606.14,-276.15 618.28,-274.49 630.82,-272.78"/>
<polygon fill="#63b8ff" stroke="#63b8ff" points="631.51,-276.22 640.95,-271.41 630.57,-269.29 631.51,-276.22"/>
</a>
</g>
</g>
<!-- Node30 -->
<g id="Node000030" class="node">
<title>Node30</title>
<g id="a_Node000030"><a xlink:href="m__qbmm_8fpp_8f90.html#a161c6f8a13e0e722666a753fea64566d" target="_top" xlink:title=" ">
<polygon fill="white" stroke="#666666" points="435,-159.5 385,-159.5 385,-140.5 435,-140.5 435,-159.5"/>
<text text-anchor="middle" x="410" y="-147.5" font-family="Helvetica,sans-Serif" font-size="10.00">f_quad</text>
</a>
</g>
</g>
<!-- Node29&#45;&gt;Node30 -->
<g id="edge40_Node000029_Node000030" class="edge">
<title>Node29&#45;&gt;Node30</title>
<g id="a_edge40_Node000029_Node000030"><a xlink:title=" ">
<path fill="none" stroke="#63b8ff" d="M242.65,-150C279.86,-150 337.82,-150 374.57,-150"/>
<polygon fill="#63b8ff" stroke="#63b8ff" points="374.8,-153.5 384.8,-150 374.8,-146.5 374.8,-153.5"/>
</a>
</g>
</g>
<!-- Node31 -->
<g id="Node000031" class="node">
<title>Node31</title>
<g id="a_Node000031"><a xlink:href="m__qbmm_8fpp_8f90.html#a49c60fb52cae6f6fc64842b3dc49c01a" target="_top" xlink:title=" ">
<polygon fill="white" stroke="#666666" points="441,-104.5 379,-104.5 379,-85.5 441,-85.5 441,-104.5"/>
<text text-anchor="middle" x="410" y="-92.5" font-family="Helvetica,sans-Serif" font-size="10.00">f_quad2d</text>
</a>
</g>
</g>
<!-- Node29&#45;&gt;Node31 -->
<g id="edge42_Node000029_Node000031" class="edge">
<title>Node29&#45;&gt;Node31</title>
<g id="a_edge42_Node000029_Node000031"><a xlink:title=" ">
<path fill="none" stroke="#63b8ff" d="M242.19,-140.42C277.52,-130.8 331.89,-115.99 368.88,-105.92"/>
<polygon fill="#63b8ff" stroke="#63b8ff" points="370.1,-109.22 378.83,-103.22 368.26,-102.47 370.1,-109.22"/>
</a>
</g>
</g>
<!-- Node32 -->
<g id="Node000032" class="node">
<title>Node32</title>
<g id="a_Node000032"><a xlink:href="m__qbmm_8fpp_8f90.html#a57a24e4f3d6a9db5b1aaa3100b7ef46d" target="_top" xlink:title=" ">
<polygon fill="white" stroke="#666666" points="448,-67.5 372,-67.5 372,-48.5 448,-48.5 448,-67.5"/>
<text text-anchor="middle" x="410" y="-55.5" font-family="Helvetica,sans-Serif" font-size="10.00">s_chyqmom</text>
</a>
</g>
</g>
<!-- Node29&#45;&gt;Node32 -->
<g id="edge44_Node000029_Node000032" class="edge">
<title>Node29&#45;&gt;Node32</title>
<g id="a_edge44_Node000029_Node000032"><a xlink:title=" ">
<path fill="none" stroke="#63b8ff" d="M218.97,-140.36C239.05,-124.69 281.32,-93.74 322,-77 334.53,-71.84 348.68,-67.99 361.87,-65.15"/>
<polygon fill="#63b8ff" stroke="#63b8ff" points="362.61,-68.57 371.73,-63.18 361.24,-61.71 362.61,-68.57"/>
</a>
</g>
</g>
<!-- Node34 -->
<g id="Node000034" class="node">
<title>Node34</title>
<g id="a_Node000034"><a xlink:href="m__qbmm_8fpp_8f90.html#a5e8f8b30325d688111d1ec1cd8c9680d" target="_top" xlink:title=" ">
<polygon fill="white" stroke="#666666" points="435.5,-214.5 384.5,-214.5 384.5,-195.5 435.5,-195.5 435.5,-214.5"/>
<text text-anchor="middle" x="410" y="-202.5" font-family="Helvetica,sans-Serif" font-size="10.00">s_coeff</text>
</a>
</g>
</g>
<!-- Node29&#45;&gt;Node34 -->
<g id="edge46_Node000029_Node000034" class="edge">
<title>Node29&#45;&gt;Node34</title>
<g id="a_edge46_Node000029_Node000034"><a xlink:title=" ">
<path fill="none" stroke="#63b8ff" d="M234.17,-159.65C257.33,-167.66 291.58,-178.98 322,-187 339.13,-191.51 358.4,-195.6 374.44,-198.73"/>
<polygon fill="#63b8ff" stroke="#63b8ff" points="373.98,-202.21 384.46,-200.65 375.3,-195.33 373.98,-202.21"/>
</a>
</g>
</g>
<!-- Node30&#45;&gt;Node30 -->
<g id="edge41_Node000030_Node000030" class="edge">
<title>Node30&#45;&gt;Node30</title>
<g id="a_edge41_Node000030_Node000030"><a xlink:title=" ">
<path fill="none" stroke="#63b8ff" d="M385.65,-159.58C373.8,-168.23 381.92,-177.5 410,-177.5 428.43,-177.5 438.26,-173.51 439.49,-168.32"/>
<polygon fill="#63b8ff" stroke="#63b8ff" points="442.44,-166.43 434.35,-159.58 436.41,-169.98 442.44,-166.43"/>
</a>
</g>
</g>
<!-- Node31&#45;&gt;Node31 -->
<g id="edge43_Node000031_Node000031" class="edge">
<title>Node31&#45;&gt;Node31</title>
<g id="a_edge43_Node000031_Node000031"><a xlink:title=" ">
<path fill="none" stroke="#63b8ff" d="M385.65,-104.58C373.8,-113.23 381.92,-122.5 410,-122.5 428.43,-122.5 438.26,-118.51 439.49,-113.32"/>
<polygon fill="#63b8ff" stroke="#63b8ff" points="442.44,-111.43 434.35,-104.58 436.41,-114.98 442.44,-111.43"/>
</a>
</g>
</g>
<!-- Node33 -->
<g id="Node000033" class="node">
<title>Node33</title>
<g id="a_Node000033"><a xlink:href="m__qbmm_8fpp_8f90.html#a9f04f02028dbe154a03418ecca95fc97" target="_top" xlink:title=" ">
<polygon fill="white" stroke="#666666" points="605,-67.5 534,-67.5 534,-48.5 605,-48.5 605,-67.5"/>
<text text-anchor="middle" x="569.5" y="-55.5" font-family="Helvetica,sans-Serif" font-size="10.00">s_hyqmom</text>
</a>
</g>
</g>
<!-- Node32&#45;&gt;Node33 -->
<g id="edge45_Node000032_Node000033" class="edge">
<title>Node32&#45;&gt;Node33</title>
<g id="a_edge45_Node000032_Node000033"><a xlink:title=" ">
<path fill="none" stroke="#63b8ff" d="M448.33,-58C470.91,-58 499.85,-58 523.67,-58"/>
<polygon fill="#63b8ff" stroke="#63b8ff" points="523.87,-61.5 533.87,-58 523.87,-54.5 523.87,-61.5"/>
</a>
</g>
</g>
<!-- Node36 -->
<g id="Node000036" class="node">
<title>Node36</title>
<g id="a_Node000036"><a xlink:href="m__mpi__proxy_8fpp_8f90.html#acee7e2607d56444468385e2b08003331" target="_top" xlink:title="The goal of this procedure is to populate the buffers of the cell&#45;average conservative variables by c...">
<polygon fill="white" stroke="#666666" points="492,-30 328,-30 328,0 492,0 492,-30"/>
<text text-anchor="start" x="336" y="-18" font-family="Helvetica,sans-Serif" font-size="10.00">s_mpi_sendrecv_conservative</text>
<text text-anchor="middle" x="410" y="-7" font-family="Helvetica,sans-Serif" font-size="10.00">_variables_buffers</text>
</a>
</g>
</g>
<!-- Node35&#45;&gt;Node36 -->
<g id="edge48_Node000035_Node000036" class="edge">
<title>Node35&#45;&gt;Node36</title>
<g id="a_edge48_Node000035_Node000036"><a xlink:title=" ">
<path fill="none" stroke="#63b8ff" d="M273.14,-45.94C292.34,-41.57 313.45,-36.76 333.18,-32.27"/>
<polygon fill="#63b8ff" stroke="#63b8ff" points="334.08,-35.65 343.05,-30.02 332.53,-28.83 334.08,-35.65"/>
</a>
</g>
</g>
<!-- Node37&#45;&gt;Node26 -->
<g id="edge50_Node000037_Node000026" class="edge">
<title>Node37&#45;&gt;Node26</title>
<g id="a_edge50_Node000037_Node000026"><a xlink:title=" ">
<path fill="none" stroke="#63b8ff" d="M258.67,-309.48C278.43,-306.1 301.21,-302.51 322,-300 396.68,-290.97 484.63,-285.4 532.68,-282.78"/>
<polygon fill="#63b8ff" stroke="#63b8ff" points="533.08,-286.27 542.88,-282.24 532.71,-279.28 533.08,-286.27"/>
</a>
</g>
</g>
<!-- Node38&#45;&gt;Node26 -->
<g id="edge52_Node000038_Node000026" class="edge">
<title>Node38&#45;&gt;Node26</title>
<g id="a_edge52_Node000038_Node000026"><a xlink:title=" ">
<path fill="none" stroke="#63b8ff" d="M286.01,-252.99C344.69,-254.47 426.59,-258.12 498,-267 509.47,-268.43 521.87,-270.65 533.03,-272.92"/>
<polygon fill="#63b8ff" stroke="#63b8ff" points="532.36,-276.35 542.86,-274.98 533.79,-269.5 532.36,-276.35"/>
</a>
</g>
</g>
</g>
</svg>
