<?xml version="1.0" encoding="UTF-8" standalone="no"?>
<!DOCTYPE svg PUBLIC "-//W3C//DTD SVG 1.1//EN"
 "http://www.w3.org/Graphics/SVG/1.1/DTD/svg11.dtd">
<!-- Generated by graphviz version 2.43.0 (0)
 -->
<!-- Title: s_compute_rhs Pages: 1 -->
<svg width="789pt" height="1283pt"
 viewBox="0.00 0.00 789.00 1282.50" xmlns="http://www.w3.org/2000/svg" xmlns:xlink="http://www.w3.org/1999/xlink">
<g id="graph0" class="graph" transform="scale(1 1) rotate(0) translate(4 1278.5)">
<title>s_compute_rhs</title>
<!-- Node1 -->
<g id="Node000001" class="node">
<title>Node1</title>
<g id="a_Node000001"><a xlink:title=" ">
<polygon fill="#999999" stroke="#666666" points="90,-413.5 0,-413.5 0,-394.5 90,-394.5 90,-413.5"/>
<text text-anchor="middle" x="45" y="-401.5" font-family="Helvetica,sans-Serif" font-size="10.00">s_compute_rhs</text>
</a>
</g>
</g>
<!-- Node2 -->
<g id="Node000002" class="node">
<title>Node2</title>
<g id="a_Node000002"><a xlink:href="m__bubbles_8fpp_8f90.html#a13d7f514861d6b4004211c6f0bdb58fc" target="_top" xlink:title=" ">
<polygon fill="white" stroke="#666666" points="279,-926.5 133,-926.5 133,-907.5 279,-907.5 279,-926.5"/>
<text text-anchor="middle" x="206" y="-914.5" font-family="Helvetica,sans-Serif" font-size="10.00">s_compute_bubble_source</text>
</a>
</g>
</g>
<!-- Node1&#45;&gt;Node2 -->
<g id="edge1_Node000001_Node000002" class="edge">
<title>Node1&#45;&gt;Node2</title>
<g id="a_edge1_Node000001_Node000002"><a xlink:title=" ">
<path fill="none" stroke="#63b8ff" d="M49.03,-413.79C68.2,-475.63 172.52,-812.21 198.92,-897.4"/>
<polygon fill="#63b8ff" stroke="#63b8ff" points="195.63,-898.59 201.93,-907.11 202.32,-896.52 195.63,-898.59"/>
</a>
</g>
</g>
<!-- Node15 -->
<g id="Node000015" class="node">
<title>Node15</title>
<g id="a_Node000015"><a xlink:href="m__hypoelastic_8fpp_8f90.html#aea16ad050a56ec1f6d8f7db69665d01e" target="_top" xlink:title="The purpose of this procedure is to compute the source terms that are needed for the elastic stress e...">
<polygon fill="white" stroke="#666666" points="282,-595.5 130,-595.5 130,-576.5 282,-576.5 282,-595.5"/>
<text text-anchor="middle" x="206" y="-583.5" font-family="Helvetica,sans-Serif" font-size="10.00">s_compute_hypoelastic_rhs</text>
</a>
</g>
</g>
<!-- Node1&#45;&gt;Node15 -->
<g id="edge25_Node000001_Node000015" class="edge">
<title>Node1&#45;&gt;Node15</title>
<g id="a_edge25_Node000001_Node000015"><a xlink:title=" ">
<path fill="none" stroke="#63b8ff" d="M47.82,-413.89C53.6,-442.44 74.33,-525.62 126,-567 128.27,-568.82 130.69,-570.47 133.21,-571.96"/>
<polygon fill="#63b8ff" stroke="#63b8ff" points="131.66,-575.1 142.17,-576.47 134.81,-568.85 131.66,-575.1"/>
</a>
</g>
</g>
<!-- Node16 -->
<g id="Node000016" class="node">
<title>Node16</title>
<g id="a_Node000016"><a xlink:href="m__viscous_8fpp_8f90.html#a1110efee754c653e3a435b16a660a4d7" target="_top" xlink:title="The purpose of this subroutine is to compute the viscous.">
<polygon fill="white" stroke="#666666" points="279,-558 133,-558 133,-528 279,-528 279,-558"/>
<text text-anchor="start" x="141" y="-546" font-family="Helvetica,sans-Serif" font-size="10.00">s_compute_viscous_stress</text>
<text text-anchor="middle" x="206" y="-535" font-family="Helvetica,sans-Serif" font-size="10.00">_tensor</text>
</a>
</g>
</g>
<!-- Node1&#45;&gt;Node16 -->
<g id="edge26_Node000001_Node000016" class="edge">
<title>Node1&#45;&gt;Node16</title>
<g id="a_edge26_Node000001_Node000016"><a xlink:title=" ">
<path fill="none" stroke="#63b8ff" d="M50.02,-413.66C59.7,-435.75 86.47,-490.24 126,-519 128.08,-520.51 130.25,-521.93 132.5,-523.26"/>
<polygon fill="#63b8ff" stroke="#63b8ff" points="131,-526.43 141.49,-527.97 134.25,-520.23 131,-526.43"/>
</a>
</g>
</g>
<!-- Node17 -->
<g id="Node000017" class="node">
<title>Node17</title>
<g id="a_Node000017"><a xlink:href="m__variables__conversion_8fpp_8f90.html#a24725c6eb206c9a62e2ec70bf368836d" target="_top" xlink:title="The following procedure handles the conversion between the conservative variables and the primitive v...">
<polygon fill="white" stroke="#666666" points="272,-510 140,-510 140,-480 272,-480 272,-510"/>
<text text-anchor="start" x="148" y="-498" font-family="Helvetica,sans-Serif" font-size="10.00">s_convert_conservative</text>
<text text-anchor="middle" x="206" y="-487" font-family="Helvetica,sans-Serif" font-size="10.00">_to_primitive_variables</text>
</a>
</g>
</g>
<!-- Node1&#45;&gt;Node17 -->
<g id="edge27_Node000001_Node000017" class="edge">
<title>Node1&#45;&gt;Node17</title>
<g id="a_edge27_Node000001_Node000017"><a xlink:title=" ">
<path fill="none" stroke="#63b8ff" d="M62.72,-413.57C87.93,-428 136.29,-455.67 169.57,-474.72"/>
<polygon fill="#63b8ff" stroke="#63b8ff" points="168.11,-477.92 178.53,-479.85 171.59,-471.84 168.11,-477.92"/>
</a>
</g>
</g>
<!-- Node22 -->
<g id="Node000022" class="node">
<title>Node22</title>
<g id="a_Node000022"><a xlink:href="m__viscous_8fpp_8f90.html#a0f828f5ebe7c76e07c69a5d13ea74803" target="_top" xlink:title="Computes viscous terms.">
<polygon fill="white" stroke="#666666" points="248.5,-413.5 163.5,-413.5 163.5,-394.5 248.5,-394.5 248.5,-413.5"/>
<text text-anchor="middle" x="206" y="-401.5" font-family="Helvetica,sans-Serif" font-size="10.00">s_get_viscous</text>
</a>
</g>
</g>
<!-- Node1&#45;&gt;Node22 -->
<g id="edge32_Node000001_Node000022" class="edge">
<title>Node1&#45;&gt;Node22</title>
<g id="a_edge32_Node000001_Node000022"><a xlink:title=" ">
<path fill="none" stroke="#63b8ff" d="M90.29,-404C109.86,-404 133.01,-404 153.36,-404"/>
<polygon fill="#63b8ff" stroke="#63b8ff" points="153.4,-407.5 163.4,-404 153.4,-400.5 153.4,-407.5"/>
</a>
</g>
</g>
<!-- Node29 -->
<g id="Node000029" class="node">
<title>Node29</title>
<g id="a_Node000029"><a xlink:href="m__qbmm_8fpp_8f90.html#a07d4ab28f830cfd5b555868bbf8a17fe" target="_top" xlink:title=" ">
<polygon fill="white" stroke="#666666" points="242.5,-160.5 169.5,-160.5 169.5,-141.5 242.5,-141.5 242.5,-160.5"/>
<text text-anchor="middle" x="206" y="-148.5" font-family="Helvetica,sans-Serif" font-size="10.00">s_mom_inv</text>
</a>
</g>
</g>
<!-- Node1&#45;&gt;Node29 -->
<g id="edge39_Node000001_Node000029" class="edge">
<title>Node1&#45;&gt;Node29</title>
<g id="a_edge39_Node000001_Node000029"><a xlink:title=" ">
<path fill="none" stroke="#63b8ff" d="M51.14,-394.32C63.42,-371.32 95.74,-311.77 126,-264 147.84,-229.52 175.63,-190.84 191.76,-168.85"/>
<polygon fill="#63b8ff" stroke="#63b8ff" points="194.6,-170.9 197.72,-160.77 188.97,-166.75 194.6,-170.9"/>
</a>
</g>
</g>
<!-- Node36 -->
<g id="Node000036" class="node">
<title>Node36</title>
<g id="a_Node000036"><a xlink:href="m__rhs_8fpp_8f90.html#a5c22f7d6b7e7a86557cd685eb598f55f" target="_top" xlink:title="The purpose of this procedure is to populate the buffers of the conservative variables,...">
<polygon fill="white" stroke="#666666" points="275,-68 137,-68 137,-38 275,-38 275,-68"/>
<text text-anchor="start" x="145" y="-56" font-family="Helvetica,sans-Serif" font-size="10.00">s_populate_conservative</text>
<text text-anchor="middle" x="206" y="-45" font-family="Helvetica,sans-Serif" font-size="10.00">_variables_buffers</text>
</a>
</g>
</g>
<!-- Node1&#45;&gt;Node36 -->
<g id="edge48_Node000001_Node000036" class="edge">
<title>Node1&#45;&gt;Node36</title>
<g id="a_edge48_Node000001_Node000036"><a xlink:title=" ">
<path fill="none" stroke="#63b8ff" d="M47.11,-394.45C51.67,-358.07 71.4,-225.53 126,-133 139.3,-110.46 160.33,-89.59 177.36,-74.82"/>
<polygon fill="#63b8ff" stroke="#63b8ff" points="179.96,-77.21 185.34,-68.08 175.44,-71.86 179.96,-77.21"/>
</a>
</g>
</g>
<!-- Node38 -->
<g id="Node000038" class="node">
<title>Node38</title>
<g id="a_Node000038"><a xlink:href="m__rhs_8fpp_8f90.html#a26833f559de36f1d15b4f6b3d28cfc79" target="_top" xlink:title="The purpose of this subroutine is to WENO&#45;reconstruct the left and the right cell&#45;boundary values,...">
<polygon fill="white" stroke="#666666" points="258.5,-367 153.5,-367 153.5,-337 258.5,-337 258.5,-367"/>
<text text-anchor="start" x="161.5" y="-355" font-family="Helvetica,sans-Serif" font-size="10.00">s_reconstruct_cell</text>
<text text-anchor="middle" x="206" y="-344" font-family="Helvetica,sans-Serif" font-size="10.00">_boundary_values</text>
</a>
</g>
</g>
<!-- Node1&#45;&gt;Node38 -->
<g id="edge50_Node000001_Node000038" class="edge">
<title>Node1&#45;&gt;Node38</title>
<g id="a_edge50_Node000001_Node000038"><a xlink:title=" ">
<path fill="none" stroke="#63b8ff" d="M75.16,-394.46C95.82,-387.71 124.18,-378.43 149.13,-370.27"/>
<polygon fill="#63b8ff" stroke="#63b8ff" points="150.44,-373.53 158.85,-367.09 148.26,-366.87 150.44,-373.53"/>
</a>
</g>
</g>
<!-- Node39 -->
<g id="Node000039" class="node">
<title>Node39</title>
<g id="a_Node000039"><a xlink:href="m__viscous_8fpp_8f90.html#a7a5f067c7a738f8814f5cee205d2892d" target="_top" xlink:title=" ">
<polygon fill="white" stroke="#666666" points="286,-303 126,-303 126,-273 286,-273 286,-303"/>
<text text-anchor="start" x="134" y="-291" font-family="Helvetica,sans-Serif" font-size="10.00">s_reconstruct_cell</text>
<text text-anchor="middle" x="206" y="-280" font-family="Helvetica,sans-Serif" font-size="10.00">_boundary_values_visc_deriv</text>
</a>
</g>
</g>
<!-- Node1&#45;&gt;Node39 -->
<g id="edge52_Node000001_Node000039" class="edge">
<title>Node1&#45;&gt;Node39</title>
<g id="a_edge52_Node000001_Node000039"><a xlink:title=" ">
<path fill="none" stroke="#63b8ff" d="M54.59,-394.17C68.47,-378.69 97.19,-348.32 126,-328 136.71,-320.45 149.04,-313.49 160.73,-307.57"/>
<polygon fill="#63b8ff" stroke="#63b8ff" points="162.49,-310.61 169.92,-303.05 159.4,-304.32 162.49,-310.61"/>
</a>
</g>
</g>
<!-- Node3 -->
<g id="Node000003" class="node">
<title>Node3</title>
<g id="a_Node000003"><a xlink:href="m__bubbles_8fpp_8f90.html#a8018aeac239907c1ee784788f9c81673" target="_top" xlink:title="Function that computes the time derivative of the internal bubble pressure.">
<polygon fill="white" stroke="#666666" points="447,-1256.5 373,-1256.5 373,-1237.5 447,-1237.5 447,-1256.5"/>
<text text-anchor="middle" x="410" y="-1244.5" font-family="Helvetica,sans-Serif" font-size="10.00">f_bpres_dot</text>
</a>
</g>
</g>
<!-- Node2&#45;&gt;Node3 -->
<g id="edge2_Node000002_Node000003" class="edge">
<title>Node2&#45;&gt;Node3</title>
<g id="a_edge2_Node000002_Node000003"><a xlink:title=" ">
<path fill="none" stroke="#63b8ff" d="M207.36,-926.74C209.52,-969.82 224.22,-1144.82 322,-1229 333.19,-1238.64 348.18,-1243.58 362.57,-1246"/>
<polygon fill="#63b8ff" stroke="#63b8ff" points="362.5,-1249.52 372.87,-1247.34 363.41,-1242.58 362.5,-1249.52"/>
</a>
</g>
</g>
<!-- Node4 -->
<g id="Node000004" class="node">
<title>Node4</title>
<g id="a_Node000004"><a xlink:href="m__bubbles_8fpp_8f90.html#a92173957cdea7588a1d2ae5a8097dd0b" target="_top" xlink:title="Function that computes the sound speed for the bubble.">
<polygon fill="white" stroke="#666666" points="434,-1201.5 386,-1201.5 386,-1182.5 434,-1182.5 434,-1201.5"/>
<text text-anchor="middle" x="410" y="-1189.5" font-family="Helvetica,sans-Serif" font-size="10.00">f_cgas</text>
</a>
</g>
</g>
<!-- Node2&#45;&gt;Node4 -->
<g id="edge4_Node000002_Node000004" class="edge">
<title>Node2&#45;&gt;Node4</title>
<g id="a_edge4_Node000002_Node000004"><a xlink:title=" ">
<path fill="none" stroke="#63b8ff" d="M208.17,-926.56C213.38,-964.61 237.99,-1106.48 322,-1174 336.93,-1186 357.86,-1190.6 375.44,-1192.14"/>
<polygon fill="#63b8ff" stroke="#63b8ff" points="375.69,-1195.66 385.88,-1192.75 376.1,-1188.68 375.69,-1195.66"/>
</a>
</g>
</g>
<!-- Node5 -->
<g id="Node000005" class="node">
<title>Node5</title>
<g id="a_Node000005"><a xlink:href="m__bubbles_8fpp_8f90.html#a5a0193f314079c7e9d923b9374eb20e3" target="_top" xlink:title="Function that computes that bubble wall pressure for Gilmore bubbles.">
<polygon fill="white" stroke="#666666" points="435.5,-1146.5 384.5,-1146.5 384.5,-1127.5 435.5,-1127.5 435.5,-1146.5"/>
<text text-anchor="middle" x="410" y="-1134.5" font-family="Helvetica,sans-Serif" font-size="10.00">f_cpbw</text>
</a>
</g>
</g>
<!-- Node2&#45;&gt;Node5 -->
<g id="edge6_Node000002_Node000005" class="edge">
<title>Node2&#45;&gt;Node5</title>
<g id="a_edge6_Node000002_Node000005"><a xlink:title=" ">
<path fill="none" stroke="#63b8ff" d="M209.5,-926.96C218.41,-960.18 251.82,-1067.98 322,-1119 336.98,-1129.89 357.05,-1134.53 374.14,-1136.38"/>
<polygon fill="#63b8ff" stroke="#63b8ff" points="374.07,-1139.88 384.32,-1137.2 374.63,-1132.9 374.07,-1139.88"/>
</a>
</g>
</g>
<!-- Node6 -->
<g id="Node000006" class="node">
<title>Node6</title>
<g id="a_Node000006"><a xlink:href="m__bubbles_8fpp_8f90.html#ab5cad916879a4c85674fcadd46ac3acd" target="_top" xlink:title="Function that computes the bubble wall pressure for Keller–Miksis bubbles.">
<polygon fill="white" stroke="#666666" points="446,-1091.5 374,-1091.5 374,-1072.5 446,-1072.5 446,-1091.5"/>
<text text-anchor="middle" x="410" y="-1079.5" font-family="Helvetica,sans-Serif" font-size="10.00">f_cpbw_km</text>
</a>
</g>
</g>
<!-- Node2&#45;&gt;Node6 -->
<g id="edge8_Node000002_Node000006" class="edge">
<title>Node2&#45;&gt;Node6</title>
<g id="a_edge8_Node000002_Node000006"><a xlink:title=" ">
<path fill="none" stroke="#63b8ff" d="M211.57,-926.82C224.61,-953.63 264.74,-1028.46 322,-1064 334.44,-1071.72 349.63,-1076.19 363.8,-1078.76"/>
<polygon fill="#63b8ff" stroke="#63b8ff" points="363.48,-1082.25 373.89,-1080.31 364.54,-1075.33 363.48,-1082.25"/>
</a>
</g>
</g>
<!-- Node7 -->
<g id="Node000007" class="node">
<title>Node7</title>
<g id="a_Node000007"><a xlink:href="m__bubbles_8fpp_8f90.html#a5ba0b7cce948abfecaebce809ed4b632" target="_top" xlink:title="Function that computes the time derivative of the driving pressure.">
<polygon fill="white" stroke="#666666" points="442.5,-1036.5 377.5,-1036.5 377.5,-1017.5 442.5,-1017.5 442.5,-1036.5"/>
<text text-anchor="middle" x="410" y="-1024.5" font-family="Helvetica,sans-Serif" font-size="10.00">f_cpinfdot</text>
</a>
</g>
</g>
<!-- Node2&#45;&gt;Node7 -->
<g id="edge10_Node000002_Node000007" class="edge">
<title>Node2&#45;&gt;Node7</title>
<g id="a_edge10_Node000002_Node000007"><a xlink:title=" ">
<path fill="none" stroke="#63b8ff" d="M215.79,-926.57C233.77,-945.51 276.88,-987.79 322,-1009 336.06,-1015.61 352.53,-1019.81 367.34,-1022.46"/>
<polygon fill="#63b8ff" stroke="#63b8ff" points="366.84,-1025.93 377.27,-1024.07 367.95,-1019.02 366.84,-1025.93"/>
</a>
</g>
</g>
<!-- Node8 -->
<g id="Node000008" class="node">
<title>Node8</title>
<g id="a_Node000008"><a xlink:href="m__bubbles_8fpp_8f90.html#a5cd28691438ce1e5e59e56e03f81082a" target="_top" xlink:title="Function that computes the bubble enthalpy.">
<polygon fill="white" stroke="#666666" points="426,-981.5 394,-981.5 394,-962.5 426,-962.5 426,-981.5"/>
<text text-anchor="middle" x="410" y="-969.5" font-family="Helvetica,sans-Serif" font-size="10.00">f_h</text>
</a>
</g>
</g>
<!-- Node2&#45;&gt;Node8 -->
<g id="edge12_Node000002_Node000008" class="edge">
<title>Node2&#45;&gt;Node8</title>
<g id="a_edge12_Node000002_Node000008"><a xlink:title=" ">
<path fill="none" stroke="#63b8ff" d="M234.17,-926.65C257.33,-934.66 291.58,-945.98 322,-954 342.63,-959.44 366.36,-964.25 383.82,-967.53"/>
<polygon fill="#63b8ff" stroke="#63b8ff" points="383.33,-971 393.8,-969.37 384.6,-964.11 383.33,-971"/>
</a>
</g>
</g>
<!-- Node9 -->
<g id="Node000009" class="node">
<title>Node9</title>
<g id="a_Node000009"><a xlink:href="m__bubbles_8fpp_8f90.html#a8677e47b010a7a8e38e25c25f30fe0f0" target="_top" xlink:title="Function that computes the time derivative of the enthalpy.">
<polygon fill="white" stroke="#666666" points="433.5,-926.5 386.5,-926.5 386.5,-907.5 433.5,-907.5 433.5,-926.5"/>
<text text-anchor="middle" x="410" y="-914.5" font-family="Helvetica,sans-Serif" font-size="10.00">f_hdot</text>
</a>
</g>
</g>
<!-- Node2&#45;&gt;Node9 -->
<g id="edge14_Node000002_Node000009" class="edge">
<title>Node2&#45;&gt;Node9</title>
<g id="a_edge14_Node000002_Node000009"><a xlink:title=" ">
<path fill="none" stroke="#63b8ff" d="M279.07,-917C312.13,-917 349.71,-917 375.92,-917"/>
<polygon fill="#63b8ff" stroke="#63b8ff" points="376.06,-920.5 386.06,-917 376.06,-913.5 376.06,-920.5"/>
</a>
</g>
</g>
<!-- Node10 -->
<g id="Node000010" class="node">
<title>Node10</title>
<g id="a_Node000010"><a xlink:href="m__bubbles_8fpp_8f90.html#a45660b9763222bf51cebff21377443b3" target="_top" xlink:title="Function that computes the bubble radial acceleration.">
<polygon fill="white" stroke="#666666" points="435.5,-871.5 384.5,-871.5 384.5,-852.5 435.5,-852.5 435.5,-871.5"/>
<text text-anchor="middle" x="410" y="-859.5" font-family="Helvetica,sans-Serif" font-size="10.00">f_rddot</text>
</a>
</g>
</g>
<!-- Node2&#45;&gt;Node10 -->
<g id="edge16_Node000002_Node000010" class="edge">
<title>Node2&#45;&gt;Node10</title>
<g id="a_edge16_Node000002_Node000010"><a xlink:title=" ">
<path fill="none" stroke="#63b8ff" d="M242.19,-907.42C279.38,-897.29 337.67,-881.42 374.58,-871.37"/>
<polygon fill="#63b8ff" stroke="#63b8ff" points="375.65,-874.71 384.38,-868.7 373.81,-867.95 375.65,-874.71"/>
</a>
</g>
</g>
<!-- Node11 -->
<g id="Node000011" class="node">
<title>Node11</title>
<g id="a_Node000011"><a xlink:href="m__bubbles_8fpp_8f90.html#a6c94745d6e1c569d57616a5e472ae2cd" target="_top" xlink:title="Function that computes the bubble radial acceleration for Keller–Miksis bubbles.">
<polygon fill="white" stroke="#666666" points="446,-816.5 374,-816.5 374,-797.5 446,-797.5 446,-816.5"/>
<text text-anchor="middle" x="410" y="-804.5" font-family="Helvetica,sans-Serif" font-size="10.00">f_rddot_km</text>
</a>
</g>
</g>
<!-- Node2&#45;&gt;Node11 -->
<g id="edge18_Node000002_Node000011" class="edge">
<title>Node2&#45;&gt;Node11</title>
<g id="a_edge18_Node000002_Node000011"><a xlink:title=" ">
<path fill="none" stroke="#63b8ff" d="M220.38,-907.49C241.39,-892.78 283.69,-864.13 322,-844 338.6,-835.27 357.72,-826.97 373.8,-820.44"/>
<polygon fill="#63b8ff" stroke="#63b8ff" points="375.38,-823.58 383.37,-816.62 372.78,-817.08 375.38,-823.58"/>
</a>
</g>
</g>
<!-- Node12 -->
<g id="Node000012" class="node">
<title>Node12</title>
<g id="a_Node000012"><a xlink:href="m__bubbles_8fpp_8f90.html#ad8bb547b5b33724b2d0affee7746a306" target="_top" xlink:title="Function that computes the bubble radial acceleration for Rayleigh&#45;Plesset bubbles.">
<polygon fill="white" stroke="#666666" points="443,-761.5 377,-761.5 377,-742.5 443,-742.5 443,-761.5"/>
<text text-anchor="middle" x="410" y="-749.5" font-family="Helvetica,sans-Serif" font-size="10.00">f_rddot_rp</text>
</a>
</g>
</g>
<!-- Node2&#45;&gt;Node12 -->
<g id="edge20_Node000002_Node000012" class="edge">
<title>Node2&#45;&gt;Node12</title>
<g id="a_edge20_Node000002_Node000012"><a xlink:title=" ">
<path fill="none" stroke="#63b8ff" d="M213.4,-907.35C229.26,-884.09 272.66,-824.26 322,-789 335.8,-779.14 352.64,-771.21 367.82,-765.26"/>
<polygon fill="#63b8ff" stroke="#63b8ff" points="369.36,-768.42 377.5,-761.63 366.91,-761.86 369.36,-768.42"/>
</a>
</g>
</g>
<!-- Node13 -->
<g id="Node000013" class="node">
<title>Node13</title>
<g id="a_Node000013"><a xlink:href="m__bubbles_8fpp_8f90.html#a5af4ca8a74ce2461012304ed54f52d73" target="_top" xlink:title="Function that computes the vapour flux.">
<polygon fill="white" stroke="#666666" points="435,-706.5 385,-706.5 385,-687.5 435,-687.5 435,-706.5"/>
<text text-anchor="middle" x="410" y="-694.5" font-family="Helvetica,sans-Serif" font-size="10.00">f_vflux</text>
</a>
</g>
</g>
<!-- Node2&#45;&gt;Node13 -->
<g id="edge22_Node000002_Node000013" class="edge">
<title>Node2&#45;&gt;Node13</title>
<g id="a_edge22_Node000002_Node000013"><a xlink:title=" ">
<path fill="none" stroke="#63b8ff" d="M210.66,-907.21C222.32,-877.24 261.46,-785.61 322,-734 337.24,-721 357.73,-711.99 374.99,-706.12"/>
<polygon fill="#63b8ff" stroke="#63b8ff" points="376.25,-709.39 384.72,-703.01 374.13,-702.72 376.25,-709.39"/>
</a>
</g>
</g>
<!-- Node14 -->
<g id="Node000014" class="node">
<title>Node14</title>
<g id="a_Node000014"><a xlink:href="m__bubbles_8fpp_8f90.html#a8a11f32e3e991cbcfa764074a62f2492" target="_top" xlink:title="Subroutine that computes bubble wall properties for vapor bubbles.">
<polygon fill="white" stroke="#666666" points="451.5,-669.5 368.5,-669.5 368.5,-650.5 451.5,-650.5 451.5,-669.5"/>
<text text-anchor="middle" x="410" y="-657.5" font-family="Helvetica,sans-Serif" font-size="10.00">s_bwproperty</text>
</a>
</g>
</g>
<!-- Node2&#45;&gt;Node14 -->
<g id="edge24_Node000002_Node000014" class="edge">
<title>Node2&#45;&gt;Node14</title>
<g id="a_edge24_Node000002_Node000014"><a xlink:title=" ">
<path fill="none" stroke="#63b8ff" d="M208.57,-907.42C215.03,-871.17 243.09,-741.24 322,-679 332.25,-670.92 345.2,-666.1 357.96,-663.27"/>
<polygon fill="#63b8ff" stroke="#63b8ff" points="358.89,-666.66 368.09,-661.41 357.62,-659.77 358.89,-666.66"/>
</a>
</g>
</g>
<!-- Node3&#45;&gt;Node3 -->
<g id="edge3_Node000003_Node000003" class="edge">
<title>Node3&#45;&gt;Node3</title>
<g id="a_edge3_Node000003_Node000003"><a xlink:title=" ">
<path fill="none" stroke="#63b8ff" d="M385.65,-1256.58C373.8,-1265.23 381.92,-1274.5 410,-1274.5 428.43,-1274.5 438.26,-1270.51 439.49,-1265.32"/>
<polygon fill="#63b8ff" stroke="#63b8ff" points="442.44,-1263.43 434.35,-1256.58 436.41,-1266.98 442.44,-1263.43"/>
</a>
</g>
</g>
<!-- Node4&#45;&gt;Node4 -->
<g id="edge5_Node000004_Node000004" class="edge">
<title>Node4&#45;&gt;Node4</title>
<g id="a_edge5_Node000004_Node000004"><a xlink:title=" ">
<path fill="none" stroke="#63b8ff" d="M385.65,-1201.58C373.8,-1210.23 381.92,-1219.5 410,-1219.5 428.43,-1219.5 438.26,-1215.51 439.49,-1210.32"/>
<polygon fill="#63b8ff" stroke="#63b8ff" points="442.44,-1208.43 434.35,-1201.58 436.41,-1211.98 442.44,-1208.43"/>
</a>
</g>
</g>
<!-- Node5&#45;&gt;Node5 -->
<g id="edge7_Node000005_Node000005" class="edge">
<title>Node5&#45;&gt;Node5</title>
<g id="a_edge7_Node000005_Node000005"><a xlink:title=" ">
<path fill="none" stroke="#63b8ff" d="M385.65,-1146.58C373.8,-1155.23 381.92,-1164.5 410,-1164.5 428.43,-1164.5 438.26,-1160.51 439.49,-1155.32"/>
<polygon fill="#63b8ff" stroke="#63b8ff" points="442.44,-1153.43 434.35,-1146.58 436.41,-1156.98 442.44,-1153.43"/>
</a>
</g>
</g>
<!-- Node6&#45;&gt;Node6 -->
<g id="edge9_Node000006_Node000006" class="edge">
<title>Node6&#45;&gt;Node6</title>
<g id="a_edge9_Node000006_Node000006"><a xlink:title=" ">
<path fill="none" stroke="#63b8ff" d="M385.65,-1091.58C373.8,-1100.23 381.92,-1109.5 410,-1109.5 428.43,-1109.5 438.26,-1105.51 439.49,-1100.32"/>
<polygon fill="#63b8ff" stroke="#63b8ff" points="442.44,-1098.43 434.35,-1091.58 436.41,-1101.98 442.44,-1098.43"/>
</a>
</g>
</g>
<!-- Node7&#45;&gt;Node7 -->
<g id="edge11_Node000007_Node000007" class="edge">
<title>Node7&#45;&gt;Node7</title>
<g id="a_edge11_Node000007_Node000007"><a xlink:title=" ">
<path fill="none" stroke="#63b8ff" d="M385.65,-1036.58C373.8,-1045.23 381.92,-1054.5 410,-1054.5 428.43,-1054.5 438.26,-1050.51 439.49,-1045.32"/>
<polygon fill="#63b8ff" stroke="#63b8ff" points="442.44,-1043.43 434.35,-1036.58 436.41,-1046.98 442.44,-1043.43"/>
</a>
</g>
</g>
<!-- Node8&#45;&gt;Node8 -->
<g id="edge13_Node000008_Node000008" class="edge">
<title>Node8&#45;&gt;Node8</title>
<g id="a_edge13_Node000008_Node000008"><a xlink:title=" ">
<path fill="none" stroke="#63b8ff" d="M393.75,-977.13C371.56,-986.69 376.98,-999.5 410,-999.5 437.34,-999.5 445.76,-990.71 435.24,-982.27"/>
<polygon fill="#63b8ff" stroke="#63b8ff" points="436.67,-979.05 426.25,-977.13 433.2,-985.13 436.67,-979.05"/>
</a>
</g>
</g>
<!-- Node9&#45;&gt;Node9 -->
<g id="edge15_Node000009_Node000009" class="edge">
<title>Node9&#45;&gt;Node9</title>
<g id="a_edge15_Node000009_Node000009"><a xlink:title=" ">
<path fill="none" stroke="#63b8ff" d="M386.46,-926.01C373.45,-934.82 381.3,-944.5 410,-944.5 429.73,-944.5 439.61,-939.93 439.62,-934.2"/>
<polygon fill="#63b8ff" stroke="#63b8ff" points="442.31,-931.96 433.54,-926.01 436.69,-936.13 442.31,-931.96"/>
</a>
</g>
</g>
<!-- Node10&#45;&gt;Node10 -->
<g id="edge17_Node000010_Node000010" class="edge">
<title>Node10&#45;&gt;Node10</title>
<g id="a_edge17_Node000010_Node000010"><a xlink:title=" ">
<path fill="none" stroke="#63b8ff" d="M385.65,-871.58C373.8,-880.23 381.92,-889.5 410,-889.5 428.43,-889.5 438.26,-885.51 439.49,-880.32"/>
<polygon fill="#63b8ff" stroke="#63b8ff" points="442.44,-878.43 434.35,-871.58 436.41,-881.98 442.44,-878.43"/>
</a>
</g>
</g>
<!-- Node11&#45;&gt;Node11 -->
<g id="edge19_Node000011_Node000011" class="edge">
<title>Node11&#45;&gt;Node11</title>
<g id="a_edge19_Node000011_Node000011"><a xlink:title=" ">
<path fill="none" stroke="#63b8ff" d="M385.65,-816.58C373.8,-825.23 381.92,-834.5 410,-834.5 428.43,-834.5 438.26,-830.51 439.49,-825.32"/>
<polygon fill="#63b8ff" stroke="#63b8ff" points="442.44,-823.43 434.35,-816.58 436.41,-826.98 442.44,-823.43"/>
</a>
</g>
</g>
<!-- Node12&#45;&gt;Node12 -->
<g id="edge21_Node000012_Node000012" class="edge">
<title>Node12&#45;&gt;Node12</title>
<g id="a_edge21_Node000012_Node000012"><a xlink:title=" ">
<path fill="none" stroke="#63b8ff" d="M385.65,-761.58C373.8,-770.23 381.92,-779.5 410,-779.5 428.43,-779.5 438.26,-775.51 439.49,-770.32"/>
<polygon fill="#63b8ff" stroke="#63b8ff" points="442.44,-768.43 434.35,-761.58 436.41,-771.98 442.44,-768.43"/>
</a>
</g>
</g>
<!-- Node13&#45;&gt;Node13 -->
<g id="edge23_Node000013_Node000013" class="edge">
<title>Node13&#45;&gt;Node13</title>
<g id="a_edge23_Node000013_Node000013"><a xlink:title=" ">
<path fill="none" stroke="#63b8ff" d="M385.65,-706.58C373.8,-715.23 381.92,-724.5 410,-724.5 428.43,-724.5 438.26,-720.51 439.49,-715.32"/>
<polygon fill="#63b8ff" stroke="#63b8ff" points="442.44,-713.43 434.35,-706.58 436.41,-716.98 442.44,-713.43"/>
</a>
</g>
</g>
<!-- Node18 -->
<g id="Node000018" class="node">
<title>Node18</title>
<g id="a_Node000018"><a xlink:href="m__helper_8fpp_8f90.html#a772c75c8b24c414cfaed17e2f8acc772" target="_top" xlink:title=" ">
<polygon fill="white" stroke="#666666" points="471,-632.5 349,-632.5 349,-613.5 471,-613.5 471,-632.5"/>
<text text-anchor="middle" x="410" y="-620.5" font-family="Helvetica,sans-Serif" font-size="10.00">s_comp_n_from_cons</text>
</a>
</g>
</g>
<!-- Node17&#45;&gt;Node18 -->
<g id="edge28_Node000017_Node000018" class="edge">
<title>Node17&#45;&gt;Node18</title>
<g id="a_edge28_Node000017_Node000018"><a xlink:title=" ">
<path fill="none" stroke="#63b8ff" d="M272.12,-509.42C277.13,-512.09 281.85,-515.25 286,-519 316.75,-546.78 290.02,-578.65 322,-605 327.2,-609.28 333.16,-612.63 339.46,-615.23"/>
<polygon fill="#63b8ff" stroke="#63b8ff" points="338.3,-618.54 348.9,-618.54 340.62,-611.93 338.3,-618.54"/>
</a>
</g>
</g>
<!-- Node19 -->
<g id="Node000019" class="node">
<title>Node19</title>
<g id="a_Node000019"><a xlink:href="m__variables__conversion_8fpp_8f90.html#ad31047dc31e7ee8fc14d8717c4d0c334" target="_top" xlink:title="This procedure conditionally calculates the appropriate pressure.">
<polygon fill="white" stroke="#666666" points="468.5,-595.5 351.5,-595.5 351.5,-576.5 468.5,-576.5 468.5,-595.5"/>
<text text-anchor="middle" x="410" y="-583.5" font-family="Helvetica,sans-Serif" font-size="10.00">s_compute_pressure</text>
</a>
</g>
</g>
<!-- Node17&#45;&gt;Node19 -->
<g id="edge29_Node000017_Node000019" class="edge">
<title>Node17&#45;&gt;Node19</title>
<g id="a_edge29_Node000017_Node000019"><a xlink:title=" ">
<path fill="none" stroke="#63b8ff" d="M269.98,-510.03C275.63,-512.58 281.07,-515.55 286,-519 307.84,-534.3 299.57,-552.58 322,-567 328.08,-570.91 334.84,-574.02 341.83,-576.5"/>
<polygon fill="#63b8ff" stroke="#63b8ff" points="340.87,-579.87 351.46,-579.5 342.96,-573.19 340.87,-579.87"/>
</a>
</g>
</g>
<!-- Node20 -->
<g id="Node000020" class="node">
<title>Node20</title>
<g id="a_Node000020"><a xlink:href="m__variables__conversion_8fpp_8f90.html#a429dacb6b48479f387786642eb79900d" target="_top" xlink:title=" ">
<polygon fill="white" stroke="#666666" points="476,-558 344,-558 344,-528 476,-528 476,-558"/>
<text text-anchor="start" x="352" y="-546" font-family="Helvetica,sans-Serif" font-size="10.00">s_convert_species_to</text>
<text text-anchor="middle" x="410" y="-535" font-family="Helvetica,sans-Serif" font-size="10.00">_mixture_variables_acc</text>
</a>
</g>
</g>
<!-- Node17&#45;&gt;Node20 -->
<g id="edge30_Node000017_Node000020" class="edge">
<title>Node17&#45;&gt;Node20</title>
<g id="a_edge30_Node000017_Node000020"><a xlink:title=" ">
<path fill="none" stroke="#63b8ff" d="M270.36,-510.06C291.23,-515.01 314.6,-520.57 336.12,-525.68"/>
<polygon fill="#63b8ff" stroke="#63b8ff" points="335.33,-529.09 345.86,-528 336.95,-522.28 335.33,-529.09"/>
</a>
</g>
</g>
<!-- Node21 -->
<g id="Node000021" class="node">
<title>Node21</title>
<g id="a_Node000021"><a xlink:href="m__variables__conversion_8fpp_8f90.html#ab5ef0fb6705f3250d70ca1d9d750952c" target="_top" xlink:title=" ">
<polygon fill="white" stroke="#666666" points="498,-510 322,-510 322,-480 498,-480 498,-510"/>
<text text-anchor="start" x="330" y="-498" font-family="Helvetica,sans-Serif" font-size="10.00">s_convert_species_to</text>
<text text-anchor="middle" x="410" y="-487" font-family="Helvetica,sans-Serif" font-size="10.00">_mixture_variables_bubbles_acc</text>
</a>
</g>
</g>
<!-- Node17&#45;&gt;Node21 -->
<g id="edge31_Node000017_Node000021" class="edge">
<title>Node17&#45;&gt;Node21</title>
<g id="a_edge31_Node000017_Node000021"><a xlink:title=" ">
<path fill="none" stroke="#63b8ff" d="M272.03,-495C284.71,-495 298.26,-495 311.73,-495"/>
<polygon fill="#63b8ff" stroke="#63b8ff" points="311.99,-498.5 321.99,-495 311.99,-491.5 311.99,-498.5"/>
</a>
</g>
</g>
<!-- Node23 -->
<g id="Node000023" class="node">
<title>Node23</title>
<g id="a_Node000023"><a xlink:href="m__viscous_8fpp_8f90.html#aade42711c6dfbbd3bd3b47358ac2bd91" target="_top" xlink:title="The purpose of this subroutine is to employ the inputted left and right cell&#45;boundary integral&#45;averag...">
<polygon fill="white" stroke="#666666" points="484,-462 336,-462 336,-432 484,-432 484,-462"/>
<text text-anchor="start" x="344" y="-450" font-family="Helvetica,sans-Serif" font-size="10.00">s_apply_scalar_divergence</text>
<text text-anchor="middle" x="410" y="-439" font-family="Helvetica,sans-Serif" font-size="10.00">_theorem</text>
</a>
</g>
</g>
<!-- Node22&#45;&gt;Node23 -->
<g id="edge33_Node000022_Node000023" class="edge">
<title>Node22&#45;&gt;Node23</title>
<g id="a_edge33_Node000022_Node000023"><a xlink:title=" ">
<path fill="none" stroke="#63b8ff" d="M248.85,-412.91C271.81,-417.8 301.05,-424.02 328.25,-429.81"/>
<polygon fill="#63b8ff" stroke="#63b8ff" points="327.65,-433.26 338.16,-431.92 329.11,-426.42 327.65,-433.26"/>
</a>
</g>
</g>
<!-- Node24 -->
<g id="Node000024" class="node">
<title>Node24</title>
<g id="a_Node000024"><a xlink:href="m__viscous_8fpp_8f90.html#add30c5e0cfe85ee14359bb4e02c713c3" target="_top" xlink:title="Computes the scalar gradient fields via finite differences.">
<polygon fill="white" stroke="#666666" points="475.5,-413.5 344.5,-413.5 344.5,-394.5 475.5,-394.5 475.5,-413.5"/>
<text text-anchor="middle" x="410" y="-401.5" font-family="Helvetica,sans-Serif" font-size="10.00">s_compute_fd_gradient</text>
</a>
</g>
</g>
<!-- Node22&#45;&gt;Node24 -->
<g id="edge34_Node000022_Node000024" class="edge">
<title>Node22&#45;&gt;Node24</title>
<g id="a_edge34_Node000022_Node000024"><a xlink:title=" ">
<path fill="none" stroke="#63b8ff" d="M248.85,-404C273.46,-404 305.29,-404 334.08,-404"/>
<polygon fill="#63b8ff" stroke="#63b8ff" points="334.13,-407.5 344.13,-404 334.13,-400.5 334.13,-407.5"/>
</a>
</g>
</g>
<!-- Node25 -->
<g id="Node000025" class="node">
<title>Node25</title>
<g id="a_Node000025"><a xlink:href="m__viscous_8fpp_8f90.html#afb2cea3f273b947ff0fefe977e829244" target="_top" xlink:title=" ">
<polygon fill="white" stroke="#666666" points="475,-376 345,-376 345,-346 475,-346 475,-376"/>
<text text-anchor="start" x="353" y="-364" font-family="Helvetica,sans-Serif" font-size="10.00">s_reconstruct_cell</text>
<text text-anchor="middle" x="410" y="-353" font-family="Helvetica,sans-Serif" font-size="10.00">_boundary_values_visc</text>
</a>
</g>
</g>
<!-- Node22&#45;&gt;Node25 -->
<g id="edge35_Node000022_Node000025" class="edge">
<title>Node22&#45;&gt;Node25</title>
<g id="a_edge35_Node000022_Node000025"><a xlink:title=" ">
<path fill="none" stroke="#63b8ff" d="M248.85,-395.09C273.66,-389.81 305.82,-382.96 334.81,-376.79"/>
<polygon fill="#63b8ff" stroke="#63b8ff" points="335.86,-380.15 344.91,-374.64 334.4,-373.3 335.86,-380.15"/>
</a>
</g>
</g>
<!-- Node26 -->
<g id="Node000026" class="node">
<title>Node26</title>
<g id="a_Node000026"><a xlink:href="m__weno_8fpp_8f90.html#a8495f5eb3dca2bbde1088b568cf13288" target="_top" xlink:title=" ">
<polygon fill="white" stroke="#666666" points="596,-327.5 543,-327.5 543,-308.5 596,-308.5 596,-327.5"/>
<text text-anchor="middle" x="569.5" y="-315.5" font-family="Helvetica,sans-Serif" font-size="10.00">s_weno</text>
</a>
</g>
</g>
<!-- Node25&#45;&gt;Node26 -->
<g id="edge36_Node000025_Node000026" class="edge">
<title>Node25&#45;&gt;Node26</title>
<g id="a_edge36_Node000025_Node000026"><a xlink:title=" ">
<path fill="none" stroke="#63b8ff" d="M466.09,-345.96C488.29,-339.9 513.27,-333.08 533,-327.69"/>
<polygon fill="#63b8ff" stroke="#63b8ff" points="534.07,-331.03 542.79,-325.02 532.23,-324.28 534.07,-331.03"/>
</a>
</g>
</g>
<!-- Node27 -->
<g id="Node000027" class="node">
<title>Node27</title>
<g id="a_Node000027"><a xlink:href="m__weno_8fpp_8f90.html#abc4801fbf3acfd4db40d1ad294aa3e46" target="_top" xlink:title="The computation of parameters, the allocation of memory, the association of pointers and/or the execu...">
<polygon fill="white" stroke="#666666" points="761.5,-345.5 660.5,-345.5 660.5,-326.5 761.5,-326.5 761.5,-345.5"/>
<text text-anchor="middle" x="711" y="-333.5" font-family="Helvetica,sans-Serif" font-size="10.00">s_initialize_weno</text>
</a>
</g>
</g>
<!-- Node26&#45;&gt;Node27 -->
<g id="edge37_Node000026_Node000027" class="edge">
<title>Node26&#45;&gt;Node27</title>
<g id="a_edge37_Node000026_Node000027"><a xlink:title=" ">
<path fill="none" stroke="#63b8ff" d="M596.09,-321.3C611.29,-323.26 631.24,-325.84 650.2,-328.28"/>
<polygon fill="#63b8ff" stroke="#63b8ff" points="649.92,-331.78 660.29,-329.59 650.82,-324.83 649.92,-331.78"/>
</a>
</g>
</g>
<!-- Node28 -->
<g id="Node000028" class="node">
<title>Node28</title>
<g id="a_Node000028"><a xlink:href="m__weno_8fpp_8f90.html#ac6752752f34719dae452d0fe42e21682" target="_top" xlink:title="The goal of this subroutine is to ensure that the WENO reconstruction is monotonic....">
<polygon fill="white" stroke="#666666" points="781,-308.5 641,-308.5 641,-289.5 781,-289.5 781,-308.5"/>
<text text-anchor="middle" x="711" y="-296.5" font-family="Helvetica,sans-Serif" font-size="10.00">s_preserve_monotonicity</text>
</a>
</g>
</g>
<!-- Node26&#45;&gt;Node28 -->
<g id="edge38_Node000026_Node000028" class="edge">
<title>Node26&#45;&gt;Node28</title>
<g id="a_edge38_Node000026_Node000028"><a xlink:title=" ">
<path fill="none" stroke="#63b8ff" d="M596.09,-314.52C606.14,-313.15 618.28,-311.49 630.82,-309.78"/>
<polygon fill="#63b8ff" stroke="#63b8ff" points="631.51,-313.22 640.95,-308.41 630.57,-306.29 631.51,-313.22"/>
</a>
</g>
</g>
<!-- Node30 -->
<g id="Node000030" class="node">
<title>Node30</title>
<g id="a_Node000030"><a xlink:href="m__qbmm_8fpp_8f90.html#a74e7ce86214df481371f693002986023" target="_top" xlink:title=" ">
<polygon fill="white" stroke="#666666" points="435,-233.5 385,-233.5 385,-214.5 435,-214.5 435,-233.5"/>
<text text-anchor="middle" x="410" y="-221.5" font-family="Helvetica,sans-Serif" font-size="10.00">f_quad</text>
</a>
</g>
</g>
<!-- Node29&#45;&gt;Node30 -->
<g id="edge40_Node000029_Node000030" class="edge">
<title>Node29&#45;&gt;Node30</title>
<g id="a_edge40_Node000029_Node000030"><a xlink:title=" ">
<path fill="none" stroke="#63b8ff" d="M223.61,-160.53C245.5,-172.71 285.51,-193.7 322,-206 339.03,-211.74 358.57,-215.98 374.82,-218.9"/>
<polygon fill="#63b8ff" stroke="#63b8ff" points="374.51,-222.4 384.96,-220.63 375.69,-215.5 374.51,-222.4"/>
</a>
</g>
</g>
<!-- Node31 -->
<g id="Node000031" class="node">
<title>Node31</title>
<g id="a_Node000031"><a xlink:href="m__qbmm_8fpp_8f90.html#add8fc901ab3865292669cbb997aaf2b2" target="_top" xlink:title=" ">
<polygon fill="white" stroke="#666666" points="441,-178.5 379,-178.5 379,-159.5 441,-159.5 441,-178.5"/>
<text text-anchor="middle" x="410" y="-166.5" font-family="Helvetica,sans-Serif" font-size="10.00">f_quad2d</text>
</a>
</g>
</g>
<!-- Node29&#45;&gt;Node31 -->
<g id="edge42_Node000029_Node000031" class="edge">
<title>Node29&#45;&gt;Node31</title>
<g id="a_edge42_Node000029_Node000031"><a xlink:title=" ">
<path fill="none" stroke="#63b8ff" d="M242.65,-154.18C277.9,-157.32 331.78,-162.12 368.6,-165.4"/>
<polygon fill="#63b8ff" stroke="#63b8ff" points="368.7,-168.92 378.97,-166.32 369.32,-161.95 368.7,-168.92"/>
</a>
</g>
</g>
<!-- Node32 -->
<g id="Node000032" class="node">
<title>Node32</title>
<g id="a_Node000032"><a xlink:href="m__qbmm_8fpp_8f90.html#a57a24e4f3d6a9db5b1aaa3100b7ef46d" target="_top" xlink:title=" ">
<polygon fill="white" stroke="#666666" points="448,-141.5 372,-141.5 372,-122.5 448,-122.5 448,-141.5"/>
<text text-anchor="middle" x="410" y="-129.5" font-family="Helvetica,sans-Serif" font-size="10.00">s_chyqmom</text>
</a>
</g>
</g>
<!-- Node29&#45;&gt;Node32 -->
<g id="edge44_Node000029_Node000032" class="edge">
<title>Node29&#45;&gt;Node32</title>
<g id="a_edge44_Node000029_Node000032"><a xlink:title=" ">
<path fill="none" stroke="#63b8ff" d="M242.65,-147.65C275.64,-144.54 324.92,-139.91 361.29,-136.49"/>
<polygon fill="#63b8ff" stroke="#63b8ff" points="362.03,-139.93 371.66,-135.51 361.37,-132.96 362.03,-139.93"/>
</a>
</g>
</g>
<!-- Node34 -->
<g id="Node000034" class="node">
<title>Node34</title>
<g id="a_Node000034"><a xlink:href="m__qbmm_8fpp_8f90.html#a5e8f8b30325d688111d1ec1cd8c9680d" target="_top" xlink:title=" ">
<polygon fill="white" stroke="#666666" points="435.5,-104.5 384.5,-104.5 384.5,-85.5 435.5,-85.5 435.5,-104.5"/>
<text text-anchor="middle" x="410" y="-92.5" font-family="Helvetica,sans-Serif" font-size="10.00">s_coeff</text>
</a>
</g>
</g>
<!-- Node29&#45;&gt;Node34 -->
<g id="edge46_Node000029_Node000034" class="edge">
<title>Node29&#45;&gt;Node34</title>
<g id="a_edge46_Node000029_Node000034"><a xlink:title=" ">
<path fill="none" stroke="#63b8ff" d="M233.23,-141.37C256.37,-133.11 291.13,-121.27 322,-113 339.11,-108.42 358.38,-104.33 374.42,-101.2"/>
<polygon fill="#63b8ff" stroke="#63b8ff" points="375.28,-104.6 384.45,-99.3 373.97,-97.73 375.28,-104.6"/>
</a>
</g>
</g>
<!-- Node35 -->
<g id="Node000035" class="node">
<title>Node35</title>
<g id="a_Node000035"><a xlink:href="m__qbmm_8fpp_8f90.html#aab31fde8338242a0eac719456000030d" target="_top" xlink:title=" ">
<polygon fill="white" stroke="#666666" points="457.5,-67.5 362.5,-67.5 362.5,-48.5 457.5,-48.5 457.5,-67.5"/>
<text text-anchor="middle" x="410" y="-55.5" font-family="Helvetica,sans-Serif" font-size="10.00">s_coeff_nonpoly</text>
</a>
</g>
</g>
<!-- Node29&#45;&gt;Node35 -->
<g id="edge47_Node000029_Node000035" class="edge">
<title>Node29&#45;&gt;Node35</title>
<g id="a_edge47_Node000029_Node000035"><a xlink:title=" ">
<path fill="none" stroke="#63b8ff" d="M218.58,-141.29C238.42,-125.18 280.79,-92.99 322,-76 331.62,-72.04 342.21,-68.91 352.59,-66.46"/>
<polygon fill="#63b8ff" stroke="#63b8ff" points="353.41,-69.86 362.44,-64.31 351.92,-63.02 353.41,-69.86"/>
</a>
</g>
</g>
<!-- Node30&#45;&gt;Node30 -->
<g id="edge41_Node000030_Node000030" class="edge">
<title>Node30&#45;&gt;Node30</title>
<g id="a_edge41_Node000030_Node000030"><a xlink:title=" ">
<path fill="none" stroke="#63b8ff" d="M385.65,-233.58C373.8,-242.23 381.92,-251.5 410,-251.5 428.43,-251.5 438.26,-247.51 439.49,-242.32"/>
<polygon fill="#63b8ff" stroke="#63b8ff" points="442.44,-240.43 434.35,-233.58 436.41,-243.98 442.44,-240.43"/>
</a>
</g>
</g>
<!-- Node31&#45;&gt;Node31 -->
<g id="edge43_Node000031_Node000031" class="edge">
<title>Node31&#45;&gt;Node31</title>
<g id="a_edge43_Node000031_Node000031"><a xlink:title=" ">
<path fill="none" stroke="#63b8ff" d="M385.65,-178.58C373.8,-187.23 381.92,-196.5 410,-196.5 428.43,-196.5 438.26,-192.51 439.49,-187.32"/>
<polygon fill="#63b8ff" stroke="#63b8ff" points="442.44,-185.43 434.35,-178.58 436.41,-188.98 442.44,-185.43"/>
</a>
</g>
</g>
<!-- Node33 -->
<g id="Node000033" class="node">
<title>Node33</title>
<g id="a_Node000033"><a xlink:href="m__qbmm_8fpp_8f90.html#a9f04f02028dbe154a03418ecca95fc97" target="_top" xlink:title=" ">
<polygon fill="white" stroke="#666666" points="605,-141.5 534,-141.5 534,-122.5 605,-122.5 605,-141.5"/>
<text text-anchor="middle" x="569.5" y="-129.5" font-family="Helvetica,sans-Serif" font-size="10.00">s_hyqmom</text>
</a>
</g>
</g>
<!-- Node32&#45;&gt;Node33 -->
<g id="edge45_Node000032_Node000033" class="edge">
<title>Node32&#45;&gt;Node33</title>
<g id="a_edge45_Node000032_Node000033"><a xlink:title=" ">
<path fill="none" stroke="#63b8ff" d="M448.33,-132C470.91,-132 499.85,-132 523.67,-132"/>
<polygon fill="#63b8ff" stroke="#63b8ff" points="523.87,-135.5 533.87,-132 523.87,-128.5 523.87,-135.5"/>
</a>
</g>
</g>
<!-- Node37 -->
<g id="Node000037" class="node">
<title>Node37</title>
<g id="a_Node000037"><a xlink:href="m__mpi__proxy_8fpp_8f90.html#a77f1effa0dfee1f0d451542ad136a9ba" target="_top" xlink:title="The goal of this procedure is to populate the buffers of the cell&#45;average conservative variables by c...">
<polygon fill="white" stroke="#666666" points="492,-30 328,-30 328,0 492,0 492,-30"/>
<text text-anchor="start" x="336" y="-18" font-family="Helvetica,sans-Serif" font-size="10.00">s_mpi_sendrecv_conservative</text>
<text text-anchor="middle" x="410" y="-7" font-family="Helvetica,sans-Serif" font-size="10.00">_variables_buffers</text>
</a>
</g>
</g>
<!-- Node36&#45;&gt;Node37 -->
<g id="edge49_Node000036_Node000037" class="edge">
<title>Node36&#45;&gt;Node37</title>
<g id="a_edge49_Node000036_Node000037"><a xlink:title=" ">
<path fill="none" stroke="#63b8ff" d="M275.11,-40.19C289.16,-37.54 304.16,-34.72 318.86,-31.96"/>
<polygon fill="#63b8ff" stroke="#63b8ff" points="319.79,-35.34 328.97,-30.06 318.49,-28.46 319.79,-35.34"/>
</a>
</g>
</g>
<!-- Node38&#45;&gt;Node26 -->
<g id="edge51_Node000038_Node000026" class="edge">
<title>Node38&#45;&gt;Node26</title>
<g id="a_edge51_Node000038_Node000026"><a xlink:title=" ">
<path fill="none" stroke="#63b8ff" d="M258.74,-344.66C278.51,-342.01 301.27,-339.15 322,-337 396.82,-329.24 484.72,-323.2 532.72,-320.16"/>
<polygon fill="#63b8ff" stroke="#63b8ff" points="533.15,-323.64 542.91,-319.53 532.71,-316.66 533.15,-323.64"/>
</a>
</g>
</g>
<!-- Node39&#45;&gt;Node26 -->
<g id="edge53_Node000039_Node000026" class="edge">
<title>Node39&#45;&gt;Node26</title>
<g id="a_edge53_Node000039_Node000026"><a xlink:title=" ">
<path fill="none" stroke="#63b8ff" d="M286.01,-289.33C344.69,-291.05 426.59,-294.99 498,-304 509.47,-305.45 521.87,-307.68 533.03,-309.94"/>
<polygon fill="#63b8ff" stroke="#63b8ff" points="532.35,-313.38 542.86,-312 533.79,-306.52 532.35,-313.38"/>
</a>
</g>
</g>
</g>
</svg>
