<?xml version="1.0" encoding="UTF-8" standalone="no"?>
<!DOCTYPE svg PUBLIC "-//W3C//DTD SVG 1.1//EN"
 "http://www.w3.org/Graphics/SVG/1.1/DTD/svg11.dtd">
<!-- Generated by graphviz version 2.43.0 (0)
 -->
<!-- Title: s_initialize_rhs_module Pages: 1 -->
<svg width="394pt" height="76pt"
 viewBox="0.00 0.00 394.00 75.50" xmlns="http://www.w3.org/2000/svg" xmlns:xlink="http://www.w3.org/1999/xlink">
<g id="graph0" class="graph" transform="scale(1 1) rotate(0) translate(4 71.5)">
<title>s_initialize_rhs_module</title>
<!-- Node1 -->
<g id="Node000001" class="node">
<title>Node1</title>
<g id="a_Node000001"><a xlink:title="The computation of parameters, the allocation of memory, the association of pointers and/or the execu...">
<polygon fill="#999999" stroke="#666666" points="386,-45.5 255,-45.5 255,-26.5 386,-26.5 386,-45.5"/>
<text text-anchor="middle" x="320.5" y="-33.5" font-family="Helvetica,sans-Serif" font-size="10.00">s_initialize_rhs_module</text>
</a>
</g>
</g>
<!-- Node2 -->
<g id="Node000002" class="node">
<title>Node2</title>
<g id="a_Node000002"><a xlink:href="m__rhs_8fpp_8f90.html#a87616394067f1273cd06c4d299d10add" target="_top" xlink:title=" ">
<polygon fill="white" stroke="#666666" points="209,-67.5 99,-67.5 99,-48.5 209,-48.5 209,-67.5"/>
<text text-anchor="middle" x="154" y="-55.5" font-family="Helvetica,sans-Serif" font-size="10.00">__m_rhs_fpp_f90__</text>
</a>
</g>
</g>
<!-- Node1&#45;&gt;Node2 -->
<g id="edge1_Node000001_Node000002" class="edge">
<title>Node1&#45;&gt;Node2</title>
<g id="a_edge1_Node000001_Node000002"><a xlink:title=" ">
<path fill="none" stroke="#63b8ff" d="M244.94,-45.97C232.92,-47.58 220.68,-49.22 209.26,-50.74"/>
<polygon fill="#63b8ff" stroke="#63b8ff" points="245.51,-49.43 254.96,-44.63 244.58,-42.49 245.51,-49.43"/>
</a>
</g>
</g>
<!-- Node3 -->
<g id="Node000003" class="node">
<title>Node3</title>
<g id="a_Node000003"><a xlink:href="namespacem__start__up.html#a3745654d013067a8c4fd89f50598674c" target="_top" xlink:title=" ">
<polygon fill="white" stroke="#666666" points="219,-30 89,-30 89,0 219,0 219,-30"/>
<text text-anchor="start" x="97" y="-18" font-family="Helvetica,sans-Serif" font-size="10.00">m_start_up::s_initialize</text>
<text text-anchor="middle" x="154" y="-7" font-family="Helvetica,sans-Serif" font-size="10.00">_modules</text>
</a>
</g>
</g>
<!-- Node1&#45;&gt;Node3 -->
<g id="edge2_Node000001_Node000003" class="edge">
<title>Node1&#45;&gt;Node3</title>
<g id="a_edge2_Node000001_Node000003"><a xlink:title=" ">
<path fill="none" stroke="#63b8ff" d="M244.91,-26.48C236.29,-25.38 227.55,-24.26 219.09,-23.18"/>
<polygon fill="#63b8ff" stroke="#63b8ff" points="244.59,-29.97 254.96,-27.76 245.48,-23.02 244.59,-29.97"/>
</a>
</g>
</g>
<!-- Node4 -->
<g id="Node000004" class="node">
<title>Node4</title>
<g id="a_Node000004"><a xlink:href="p__main_8fpp_8f90.html#aeec10ee8e2940c953967da3e374e1579" target="_top" xlink:title="Quasi&#45;conservative, shock&#45; and interface&#45; capturing finite&#45;volume scheme for the multicomponent Navie...">
<polygon fill="white" stroke="#666666" points="53,-24.5 0,-24.5 0,-5.5 53,-5.5 53,-24.5"/>
<text text-anchor="middle" x="26.5" y="-12.5" font-family="Helvetica,sans-Serif" font-size="10.00">p_main</text>
</a>
</g>
</g>
<!-- Node3&#45;&gt;Node4 -->
<g id="edge3_Node000003_Node000004" class="edge">
<title>Node3&#45;&gt;Node4</title>
<g id="a_edge3_Node000003_Node000004"><a xlink:title=" ">
<path fill="none" stroke="#63b8ff" d="M78.74,-15C69.58,-15 60.76,-15 53.09,-15"/>
<polygon fill="#63b8ff" stroke="#63b8ff" points="78.78,-18.5 88.78,-15 78.78,-11.5 78.78,-18.5"/>
</a>
</g>
</g>
</g>
</svg>
