<?xml version="1.0" encoding="UTF-8" standalone="no"?>
<!DOCTYPE svg PUBLIC "-//W3C//DTD SVG 1.1//EN"
 "http://www.w3.org/Graphics/SVG/1.1/DTD/svg11.dtd">
<!-- Generated by graphviz version 2.43.0 (0)
 -->
<!-- Title: s_time_step_cycling Pages: 1 -->
<svg width="524pt" height="101pt"
 viewBox="0.00 0.00 524.00 101.00" xmlns="http://www.w3.org/2000/svg" xmlns:xlink="http://www.w3.org/1999/xlink">
<g id="graph0" class="graph" transform="scale(1 1) rotate(0) translate(4 97)">
<title>s_time_step_cycling</title>
<!-- Node1 -->
<g id="Node000001" class="node">
<title>Node1</title>
<g id="a_Node000001"><a xlink:title="This subroutine saves the temporary q_prim_vf vector into the q_prim_ts vector that is then used in p...">
<polygon fill="#999999" stroke="#666666" points="516,-56 400,-56 400,-37 516,-37 516,-56"/>
<text text-anchor="middle" x="458" y="-44" font-family="Helvetica,sans-Serif" font-size="10.00">s_time_step_cycling</text>
</a>
</g>
</g>
<!-- Node2 -->
<g id="Node000002" class="node">
<title>Node2</title>
<g id="a_Node000002"><a xlink:href="m__time__steppers_8fpp_8f90.html#af409df8df1b374744d8c379e7e7dba0b" target="_top" xlink:title="1st order TVD RK time&#45;stepping algorithm">
<polygon fill="white" stroke="#666666" points="362.5,-93 253.5,-93 253.5,-74 362.5,-74 362.5,-93"/>
<text text-anchor="middle" x="308" y="-81" font-family="Helvetica,sans-Serif" font-size="10.00">s_1st_order_tvd_rk</text>
</a>
</g>
</g>
<!-- Node1&#45;&gt;Node2 -->
<g id="edge1_Node000001_Node000002" class="edge">
<title>Node1&#45;&gt;Node2</title>
<g id="a_edge1_Node000001_Node000002"><a xlink:title=" ">
<path fill="none" stroke="#63b8ff" d="M409.03,-58.49C389.01,-63.5 366.09,-69.23 347.24,-73.94"/>
<polygon fill="#63b8ff" stroke="#63b8ff" points="410.03,-61.85 418.89,-56.03 408.34,-55.06 410.03,-61.85"/>
</a>
</g>
</g>
<!-- Node5 -->
<g id="Node000005" class="node">
<title>Node5</title>
<g id="a_Node000005"><a xlink:href="m__time__steppers_8fpp_8f90.html#a2847bfea6f3dc3fdae115a99009f7245" target="_top" xlink:title="2nd order TVD RK time&#45;stepping algorithm">
<polygon fill="white" stroke="#666666" points="364,-56 252,-56 252,-37 364,-37 364,-56"/>
<text text-anchor="middle" x="308" y="-44" font-family="Helvetica,sans-Serif" font-size="10.00">s_2nd_order_tvd_rk</text>
</a>
</g>
</g>
<!-- Node1&#45;&gt;Node5 -->
<g id="edge4_Node000001_Node000005" class="edge">
<title>Node1&#45;&gt;Node5</title>
<g id="a_edge4_Node000001_Node000005"><a xlink:title=" ">
<path fill="none" stroke="#63b8ff" d="M389.5,-46.5C381.01,-46.5 372.4,-46.5 364.12,-46.5"/>
<polygon fill="#63b8ff" stroke="#63b8ff" points="389.78,-50 399.78,-46.5 389.78,-43 389.78,-50"/>
</a>
</g>
</g>
<!-- Node6 -->
<g id="Node000006" class="node">
<title>Node6</title>
<g id="a_Node000006"><a xlink:href="m__time__steppers_8fpp_8f90.html#ad642c094881f0cffbb6158f9fa079a86" target="_top" xlink:title="3rd order TVD RK time&#45;stepping algorithm">
<polygon fill="white" stroke="#666666" points="363,-19 253,-19 253,0 363,0 363,-19"/>
<text text-anchor="middle" x="308" y="-7" font-family="Helvetica,sans-Serif" font-size="10.00">s_3rd_order_tvd_rk</text>
</a>
</g>
</g>
<!-- Node1&#45;&gt;Node6 -->
<g id="edge6_Node000001_Node000006" class="edge">
<title>Node1&#45;&gt;Node6</title>
<g id="a_edge6_Node000001_Node000006"><a xlink:title=" ">
<path fill="none" stroke="#63b8ff" d="M409.03,-34.51C389.01,-29.5 366.09,-23.77 347.24,-19.06"/>
<polygon fill="#63b8ff" stroke="#63b8ff" points="408.34,-37.94 418.89,-36.97 410.03,-31.15 408.34,-37.94"/>
</a>
</g>
</g>
<!-- Node3 -->
<g id="Node000003" class="node">
<title>Node3</title>
<g id="a_Node000003"><a xlink:href="namespacem__start__up.html#aaaeff91a52af5b8f17ed9efed8ac17bd" target="_top" xlink:title=" ">
<polygon fill="white" stroke="#666666" points="216,-61.5 89,-61.5 89,-31.5 216,-31.5 216,-61.5"/>
<text text-anchor="start" x="97" y="-49.5" font-family="Helvetica,sans-Serif" font-size="10.00">m_start_up::s_perform</text>
<text text-anchor="middle" x="152.5" y="-38.5" font-family="Helvetica,sans-Serif" font-size="10.00">_time_step</text>
</a>
</g>
</g>
<!-- Node2&#45;&gt;Node3 -->
<g id="edge2_Node000002_Node000003" class="edge">
<title>Node2&#45;&gt;Node3</title>
<g id="a_edge2_Node000002_Node000003"><a xlink:title=" ">
<path fill="none" stroke="#63b8ff" d="M257.58,-71.59C244.29,-68.38 229.73,-64.88 215.83,-61.52"/>
<polygon fill="#63b8ff" stroke="#63b8ff" points="256.93,-75.03 267.47,-73.97 258.57,-68.23 256.93,-75.03"/>
</a>
</g>
</g>
<!-- Node4 -->
<g id="Node000004" class="node">
<title>Node4</title>
<g id="a_Node000004"><a xlink:href="p__main_8fpp_8f90.html#aeec10ee8e2940c953967da3e374e1579" target="_top" xlink:title="Quasi&#45;conservative, shock&#45; and interface&#45; capturing finite&#45;volume scheme for the multicomponent Navie...">
<polygon fill="white" stroke="#666666" points="53,-56 0,-56 0,-37 53,-37 53,-56"/>
<text text-anchor="middle" x="26.5" y="-44" font-family="Helvetica,sans-Serif" font-size="10.00">p_main</text>
</a>
</g>
</g>
<!-- Node3&#45;&gt;Node4 -->
<g id="edge3_Node000003_Node000004" class="edge">
<title>Node3&#45;&gt;Node4</title>
<g id="a_edge3_Node000003_Node000004"><a xlink:title=" ">
<path fill="none" stroke="#63b8ff" d="M78.77,-46.5C69.63,-46.5 60.81,-46.5 53.14,-46.5"/>
<polygon fill="#63b8ff" stroke="#63b8ff" points="78.77,-50 88.77,-46.5 78.77,-43 78.77,-50"/>
</a>
</g>
</g>
<!-- Node5&#45;&gt;Node3 -->
<g id="edge5_Node000005_Node000003" class="edge">
<title>Node5&#45;&gt;Node3</title>
<g id="a_edge5_Node000005_Node000003"><a xlink:title=" ">
<path fill="none" stroke="#63b8ff" d="M241.46,-46.5C233.06,-46.5 224.48,-46.5 216.13,-46.5"/>
<polygon fill="#63b8ff" stroke="#63b8ff" points="241.58,-50 251.58,-46.5 241.58,-43 241.58,-50"/>
</a>
</g>
</g>
<!-- Node6&#45;&gt;Node3 -->
<g id="edge7_Node000006_Node000003" class="edge">
<title>Node6&#45;&gt;Node3</title>
<g id="a_edge7_Node000006_Node000003"><a xlink:title=" ">
<path fill="none" stroke="#63b8ff" d="M257.58,-21.41C244.29,-24.62 229.73,-28.12 215.83,-31.48"/>
<polygon fill="#63b8ff" stroke="#63b8ff" points="258.57,-24.77 267.47,-19.03 256.93,-17.97 258.57,-24.77"/>
</a>
</g>
</g>
</g>
</svg>
