<?xml version="1.0" encoding="UTF-8" standalone="no"?>
<!DOCTYPE svg PUBLIC "-//W3C//DTD SVG 1.1//EN"
 "http://www.w3.org/Graphics/SVG/1.1/DTD/svg11.dtd">
<!-- Generated by graphviz version 2.43.0 (0)
 -->
<!-- Title: s_convert_species_to_mixture_variables_bubbles Pages: 1 -->
<svg width="602pt" height="172pt"
 viewBox="0.00 0.00 602.00 171.50" xmlns="http://www.w3.org/2000/svg" xmlns:xlink="http://www.w3.org/1999/xlink">
<g id="graph0" class="graph" transform="scale(1 1) rotate(0) translate(4 167.5)">
<title>s_convert_species_to_mixture_variables_bubbles</title>
<!-- Node1 -->
<g id="Node000001" class="node">
<title>Node1</title>
<g id="a_Node000001"><a xlink:title="This procedure is used alongside with the gamma/pi_inf model to transfer the density,...">
<polygon fill="#999999" stroke="#666666" points="594,-96.5 440,-96.5 440,-66.5 594,-66.5 594,-96.5"/>
<text text-anchor="start" x="448" y="-84.5" font-family="Helvetica,sans-Serif" font-size="10.00">s_convert_species_to</text>
<text text-anchor="middle" x="517" y="-73.5" font-family="Helvetica,sans-Serif" font-size="10.00">_mixture_variables_bubbles</text>
</a>
</g>
</g>
<!-- Node2 -->
<g id="Node000002" class="node">
<title>Node2</title>
<g id="a_Node000002"><a xlink:href="m__variables__conversion_8fpp_8f90.html#a347ac5f0eb3158bfb1edcad667b6025c" target="_top" xlink:title=" ">
<polygon fill="white" stroke="#666666" points="235,-163.5 89,-163.5 89,-133.5 235,-133.5 235,-163.5"/>
<text text-anchor="start" x="97" y="-151.5" font-family="Helvetica,sans-Serif" font-size="10.00">__m_variables_conversion</text>
<text text-anchor="middle" x="162" y="-140.5" font-family="Helvetica,sans-Serif" font-size="10.00">_fpp_f90__</text>
</a>
</g>
</g>
<!-- Node1&#45;&gt;Node2 -->
<g id="edge1_Node000001_Node000002" class="edge">
<title>Node1&#45;&gt;Node2</title>
<g id="a_edge1_Node000001_Node000002"><a xlink:title=" ">
<path fill="none" stroke="#63b8ff" d="M478.87,-101.05C457.55,-111.33 429.94,-123.1 404,-129.5 348.38,-143.22 283.55,-147.71 235.15,-148.91"/>
<polygon fill="#63b8ff" stroke="#63b8ff" points="480.46,-104.16 487.89,-96.6 477.37,-97.88 480.46,-104.16"/>
</a>
</g>
</g>
<!-- Node3 -->
<g id="Node000003" class="node">
<title>Node3</title>
<g id="a_Node000003"><a xlink:href="m__data__output_8fpp_8f90.html#a23f7e1c827800797a2fe2a1ea76ca16c" target="_top" xlink:title="The computation of parameters, the allocation of memory, the association of pointers and/or the execu...">
<polygon fill="white" stroke="#666666" points="404,-72.5 271,-72.5 271,-42.5 404,-42.5 404,-72.5"/>
<text text-anchor="start" x="279" y="-60.5" font-family="Helvetica,sans-Serif" font-size="10.00">s_initialize_data_output</text>
<text text-anchor="middle" x="337.5" y="-49.5" font-family="Helvetica,sans-Serif" font-size="10.00">_module</text>
</a>
</g>
</g>
<!-- Node1&#45;&gt;Node3 -->
<g id="edge2_Node000001_Node000003" class="edge">
<title>Node1&#45;&gt;Node3</title>
<g id="a_edge2_Node000001_Node000003"><a xlink:title=" ">
<path fill="none" stroke="#63b8ff" d="M429.81,-69.85C421.15,-68.68 412.45,-67.5 404.05,-66.36"/>
<polygon fill="#63b8ff" stroke="#63b8ff" points="429.57,-73.35 439.95,-71.22 430.51,-66.41 429.57,-73.35"/>
</a>
</g>
</g>
<!-- Node7 -->
<g id="Node000007" class="node">
<title>Node7</title>
<g id="a_Node000007"><a xlink:href="m__rhs_8fpp_8f90.html#ae28e169ac4d1272cc2a8e73be34b8ccb" target="_top" xlink:title="The computation of parameters, the allocation of memory, the association of pointers and/or the execu...">
<polygon fill="white" stroke="#666666" points="403,-24 272,-24 272,-5 403,-5 403,-24"/>
<text text-anchor="middle" x="337.5" y="-12" font-family="Helvetica,sans-Serif" font-size="10.00">s_initialize_rhs_module</text>
</a>
</g>
</g>
<!-- Node1&#45;&gt;Node7 -->
<g id="edge6_Node000001_Node000007" class="edge">
<title>Node1&#45;&gt;Node7</title>
<g id="a_edge6_Node000001_Node000007"><a xlink:title=" ">
<path fill="none" stroke="#63b8ff" d="M474.37,-62.21C453.49,-52.91 427.66,-41.97 404,-33.5 394.52,-30.11 384.12,-26.88 374.45,-24.07"/>
<polygon fill="#63b8ff" stroke="#63b8ff" points="473.03,-65.45 483.59,-66.36 475.9,-59.07 473.03,-65.45"/>
</a>
</g>
</g>
<!-- Node9 -->
<g id="Node000009" class="node">
<title>Node9</title>
<g id="a_Node000009"><a xlink:href="m__variables__conversion_8fpp_8f90.html#ad5e4b4372f2626845645a4e03a83df65" target="_top" xlink:title="The computation of parameters, the allocation of memory, the association of pointers and/or the execu...">
<polygon fill="white" stroke="#666666" points="397,-120.5 278,-120.5 278,-90.5 397,-90.5 397,-120.5"/>
<text text-anchor="start" x="286" y="-108.5" font-family="Helvetica,sans-Serif" font-size="10.00">s_initialize_variables</text>
<text text-anchor="middle" x="337.5" y="-97.5" font-family="Helvetica,sans-Serif" font-size="10.00">_conversion_module</text>
</a>
</g>
</g>
<!-- Node1&#45;&gt;Node9 -->
<g id="edge9_Node000001_Node000009" class="edge">
<title>Node1&#45;&gt;Node9</title>
<g id="a_edge9_Node000001_Node000009"><a xlink:title=" ">
<path fill="none" stroke="#63b8ff" d="M429.84,-93.15C418.79,-94.64 407.69,-96.14 397.22,-97.56"/>
<polygon fill="#63b8ff" stroke="#63b8ff" points="430.51,-96.59 439.95,-91.78 429.57,-89.65 430.51,-96.59"/>
</a>
</g>
</g>
<!-- Node4 -->
<g id="Node000004" class="node">
<title>Node4</title>
<g id="a_Node000004"><a xlink:href="m__data__output_8fpp_8f90.html#a979b8a2cf4215a8122fc461c0512dbba" target="_top" xlink:title=" ">
<polygon fill="white" stroke="#666666" points="223,-67.5 101,-67.5 101,-37.5 223,-37.5 223,-67.5"/>
<text text-anchor="start" x="109" y="-55.5" font-family="Helvetica,sans-Serif" font-size="10.00">__m_data_output_fpp</text>
<text text-anchor="middle" x="162" y="-44.5" font-family="Helvetica,sans-Serif" font-size="10.00">_f90__</text>
</a>
</g>
</g>
<!-- Node3&#45;&gt;Node4 -->
<g id="edge3_Node000003_Node000004" class="edge">
<title>Node3&#45;&gt;Node4</title>
<g id="a_edge3_Node000003_Node000004"><a xlink:title=" ">
<path fill="none" stroke="#63b8ff" d="M260.9,-55.32C248.31,-54.96 235.4,-54.59 223.26,-54.24"/>
<polygon fill="#63b8ff" stroke="#63b8ff" points="260.81,-58.82 270.91,-55.61 261.01,-51.82 260.81,-58.82"/>
</a>
</g>
</g>
<!-- Node5 -->
<g id="Node000005" class="node">
<title>Node5</title>
<g id="a_Node000005"><a xlink:href="namespacem__start__up.html#a3745654d013067a8c4fd89f50598674c" target="_top" xlink:title=" ">
<polygon fill="white" stroke="#666666" points="227,-115.5 97,-115.5 97,-85.5 227,-85.5 227,-115.5"/>
<text text-anchor="start" x="105" y="-103.5" font-family="Helvetica,sans-Serif" font-size="10.00">m_start_up::s_initialize</text>
<text text-anchor="middle" x="162" y="-92.5" font-family="Helvetica,sans-Serif" font-size="10.00">_modules</text>
</a>
</g>
</g>
<!-- Node3&#45;&gt;Node5 -->
<g id="edge4_Node000003_Node000005" class="edge">
<title>Node3&#45;&gt;Node5</title>
<g id="a_edge4_Node000003_Node000005"><a xlink:title=" ">
<path fill="none" stroke="#63b8ff" d="M265.77,-75.03C251.8,-78.49 237.25,-82.1 223.65,-85.47"/>
<polygon fill="#63b8ff" stroke="#63b8ff" points="266.95,-78.34 275.82,-72.54 265.27,-71.55 266.95,-78.34"/>
</a>
</g>
</g>
<!-- Node6 -->
<g id="Node000006" class="node">
<title>Node6</title>
<g id="a_Node000006"><a xlink:href="p__main_8fpp_8f90.html#aeec10ee8e2940c953967da3e374e1579" target="_top" xlink:title="Quasi&#45;conservative, shock&#45; and interface&#45; capturing finite&#45;volume scheme for the multicomponent Navie...">
<polygon fill="white" stroke="#666666" points="53,-110 0,-110 0,-91 53,-91 53,-110"/>
<text text-anchor="middle" x="26.5" y="-98" font-family="Helvetica,sans-Serif" font-size="10.00">p_main</text>
</a>
</g>
</g>
<!-- Node5&#45;&gt;Node6 -->
<g id="edge5_Node000005_Node000006" class="edge">
<title>Node5&#45;&gt;Node6</title>
<g id="a_edge5_Node000005_Node000006"><a xlink:title=" ">
<path fill="none" stroke="#63b8ff" d="M86.81,-100.5C74.74,-100.5 62.99,-100.5 53.19,-100.5"/>
<polygon fill="#63b8ff" stroke="#63b8ff" points="86.99,-104 96.99,-100.5 86.99,-97 86.99,-104"/>
</a>
</g>
</g>
<!-- Node7&#45;&gt;Node5 -->
<g id="edge8_Node000007_Node000005" class="edge">
<title>Node7&#45;&gt;Node5</title>
<g id="a_edge8_Node000007_Node000005"><a xlink:title=" ">
<path fill="none" stroke="#63b8ff" d="M281.06,-27.95C277.55,-29.59 274.16,-31.44 271,-33.5 250.12,-47.12 255.6,-62.47 235,-76.5 229.99,-79.91 224.46,-82.87 218.75,-85.43"/>
<polygon fill="#63b8ff" stroke="#63b8ff" points="282.66,-31.08 290.57,-24.03 279.99,-24.6 282.66,-31.08"/>
</a>
</g>
</g>
<!-- Node8 -->
<g id="Node000008" class="node">
<title>Node8</title>
<g id="a_Node000008"><a xlink:href="m__rhs_8fpp_8f90.html#a87616394067f1273cd06c4d299d10add" target="_top" xlink:title=" ">
<polygon fill="white" stroke="#666666" points="217,-19 107,-19 107,0 217,0 217,-19"/>
<text text-anchor="middle" x="162" y="-7" font-family="Helvetica,sans-Serif" font-size="10.00">__m_rhs_fpp_f90__</text>
</a>
</g>
</g>
<!-- Node7&#45;&gt;Node8 -->
<g id="edge7_Node000007_Node000008" class="edge">
<title>Node7&#45;&gt;Node8</title>
<g id="a_edge7_Node000007_Node000008"><a xlink:title=" ">
<path fill="none" stroke="#63b8ff" d="M261.64,-12.34C246.68,-11.91 231.24,-11.47 217.15,-11.06"/>
<polygon fill="#63b8ff" stroke="#63b8ff" points="261.8,-15.85 271.9,-12.64 262,-8.85 261.8,-15.85"/>
</a>
</g>
</g>
<!-- Node9&#45;&gt;Node2 -->
<g id="edge10_Node000009_Node000002" class="edge">
<title>Node9&#45;&gt;Node2</title>
<g id="a_edge10_Node000009_Node000002"><a xlink:title=" ">
<path fill="none" stroke="#63b8ff" d="M267.82,-122.52C253.26,-126.13 237.99,-129.91 223.75,-133.44"/>
<polygon fill="#63b8ff" stroke="#63b8ff" points="268.9,-125.86 277.76,-120.06 267.21,-119.07 268.9,-125.86"/>
</a>
</g>
</g>
<!-- Node9&#45;&gt;Node5 -->
<g id="edge11_Node000009_Node000005" class="edge">
<title>Node9&#45;&gt;Node5</title>
<g id="a_edge11_Node000009_Node000005"><a xlink:title=" ">
<path fill="none" stroke="#63b8ff" d="M267.66,-103.52C254.26,-103.13 240.27,-102.73 227.04,-102.35"/>
<polygon fill="#63b8ff" stroke="#63b8ff" points="267.66,-107.02 277.76,-103.81 267.87,-100.02 267.66,-107.02"/>
</a>
</g>
</g>
</g>
</svg>
