<?xml version="1.0" encoding="UTF-8" standalone="no"?>
<!DOCTYPE svg PUBLIC "-//W3C//DTD SVG 1.1//EN"
 "http://www.w3.org/Graphics/SVG/1.1/DTD/svg11.dtd">
<!-- Generated by graphviz version 2.43.0 (0)
 -->
<!-- Title: s_reconstruct_cell_boundary_values_visc_deriv Pages: 1 -->
<svg width="735pt" height="138pt"
 viewBox="0.00 0.00 735.00 138.00" xmlns="http://www.w3.org/2000/svg" xmlns:xlink="http://www.w3.org/1999/xlink">
<g id="graph0" class="graph" transform="scale(1 1) rotate(0) translate(4 134)">
<title>s_reconstruct_cell_boundary_values_visc_deriv</title>
<!-- Node1 -->
<g id="Node000001" class="node">
<title>Node1</title>
<g id="a_Node000001"><a xlink:title=" ">
<polygon fill="#999999" stroke="#666666" points="727,-97.5 567,-97.5 567,-67.5 727,-67.5 727,-97.5"/>
<text text-anchor="start" x="575" y="-85.5" font-family="Helvetica,sans-Serif" font-size="10.00">s_reconstruct_cell</text>
<text text-anchor="middle" x="647" y="-74.5" font-family="Helvetica,sans-Serif" font-size="10.00">_boundary_values_visc_deriv</text>
</a>
</g>
</g>
<!-- Node2 -->
<g id="Node000002" class="node">
<title>Node2</title>
<g id="a_Node000002"><a xlink:href="m__viscous_8fpp_8f90.html#a24875bab9826f15c6be48956a235472d" target="_top" xlink:title=" ">
<polygon fill="white" stroke="#666666" points="531,-111 400,-111 400,-92 531,-92 531,-111"/>
<text text-anchor="middle" x="465.5" y="-99" font-family="Helvetica,sans-Serif" font-size="10.00">__m_viscous_fpp_f90__</text>
</a>
</g>
</g>
<!-- Node1&#45;&gt;Node2 -->
<g id="edge1_Node000001_Node000002" class="edge">
<title>Node1&#45;&gt;Node2</title>
<g id="a_edge1_Node000001_Node000002"><a xlink:title=" ">
<path fill="none" stroke="#63b8ff" d="M556.64,-91.96C548.02,-92.87 539.39,-93.79 531.07,-94.67"/>
<polygon fill="#63b8ff" stroke="#63b8ff" points="557.17,-95.42 566.75,-90.89 556.43,-88.46 557.17,-95.42"/>
</a>
</g>
</g>
<!-- Node3 -->
<g id="Node000003" class="node">
<title>Node3</title>
<g id="a_Node000003"><a xlink:href="m__rhs_8fpp_8f90.html#a8522bdf311a42fe6ff7f2b433656573f" target="_top" xlink:title=" ">
<polygon fill="white" stroke="#666666" points="510.5,-74 420.5,-74 420.5,-55 510.5,-55 510.5,-74"/>
<text text-anchor="middle" x="465.5" y="-62" font-family="Helvetica,sans-Serif" font-size="10.00">s_compute_rhs</text>
</a>
</g>
</g>
<!-- Node1&#45;&gt;Node3 -->
<g id="edge2_Node000001_Node000003" class="edge">
<title>Node1&#45;&gt;Node3</title>
<g id="a_edge2_Node000001_Node000003"><a xlink:title=" ">
<path fill="none" stroke="#63b8ff" d="M556.38,-73.51C540.56,-71.93 524.75,-70.34 510.89,-68.95"/>
<polygon fill="#63b8ff" stroke="#63b8ff" points="556.45,-77.04 566.75,-74.55 557.15,-70.07 556.45,-77.04"/>
</a>
</g>
</g>
<!-- Node4 -->
<g id="Node000004" class="node">
<title>Node4</title>
<g id="a_Node000004"><a xlink:href="m__rhs_8fpp_8f90.html#a87616394067f1273cd06c4d299d10add" target="_top" xlink:title=" ">
<polygon fill="white" stroke="#666666" points="363,-130 253,-130 253,-111 363,-111 363,-130"/>
<text text-anchor="middle" x="308" y="-118" font-family="Helvetica,sans-Serif" font-size="10.00">__m_rhs_fpp_f90__</text>
</a>
</g>
</g>
<!-- Node3&#45;&gt;Node4 -->
<g id="edge3_Node000003_Node000004" class="edge">
<title>Node3&#45;&gt;Node4</title>
<g id="a_edge3_Node000003_Node000004"><a xlink:title=" ">
<path fill="none" stroke="#63b8ff" d="M418.02,-76.98C411.89,-78.98 405.75,-81.16 400,-83.5 383.24,-90.31 380.66,-95.44 364,-102.5 356.78,-105.56 348.86,-108.42 341.33,-110.93"/>
<polygon fill="#63b8ff" stroke="#63b8ff" points="419.06,-80.32 427.57,-74.01 416.98,-73.64 419.06,-80.32"/>
</a>
</g>
</g>
<!-- Node5 -->
<g id="Node000005" class="node">
<title>Node5</title>
<g id="a_Node000005"><a xlink:href="m__time__steppers_8fpp_8f90.html#af409df8df1b374744d8c379e7e7dba0b" target="_top" xlink:title="1st order TVD RK time&#45;stepping algorithm">
<polygon fill="white" stroke="#666666" points="362.5,-93 253.5,-93 253.5,-74 362.5,-74 362.5,-93"/>
<text text-anchor="middle" x="308" y="-81" font-family="Helvetica,sans-Serif" font-size="10.00">s_1st_order_tvd_rk</text>
</a>
</g>
</g>
<!-- Node3&#45;&gt;Node5 -->
<g id="edge4_Node000003_Node000005" class="edge">
<title>Node3&#45;&gt;Node5</title>
<g id="a_edge4_Node000003_Node000005"><a xlink:title=" ">
<path fill="none" stroke="#63b8ff" d="M410.42,-71.11C394.95,-73 378.09,-75.06 362.65,-76.94"/>
<polygon fill="#63b8ff" stroke="#63b8ff" points="410.85,-74.58 420.36,-69.89 410.01,-67.63 410.85,-74.58"/>
</a>
</g>
</g>
<!-- Node8 -->
<g id="Node000008" class="node">
<title>Node8</title>
<g id="a_Node000008"><a xlink:href="m__time__steppers_8fpp_8f90.html#a2847bfea6f3dc3fdae115a99009f7245" target="_top" xlink:title="2nd order TVD RK time&#45;stepping algorithm">
<polygon fill="white" stroke="#666666" points="364,-56 252,-56 252,-37 364,-37 364,-56"/>
<text text-anchor="middle" x="308" y="-44" font-family="Helvetica,sans-Serif" font-size="10.00">s_2nd_order_tvd_rk</text>
</a>
</g>
</g>
<!-- Node3&#45;&gt;Node8 -->
<g id="edge7_Node000003_Node000008" class="edge">
<title>Node3&#45;&gt;Node8</title>
<g id="a_edge7_Node000003_Node000008"><a xlink:title=" ">
<path fill="none" stroke="#63b8ff" d="M410.24,-58.22C395.29,-56.49 379.06,-54.61 364.07,-52.87"/>
<polygon fill="#63b8ff" stroke="#63b8ff" points="410.02,-61.72 420.36,-59.39 410.82,-54.76 410.02,-61.72"/>
</a>
</g>
</g>
<!-- Node9 -->
<g id="Node000009" class="node">
<title>Node9</title>
<g id="a_Node000009"><a xlink:href="m__time__steppers_8fpp_8f90.html#ad642c094881f0cffbb6158f9fa079a86" target="_top" xlink:title="3rd order TVD RK time&#45;stepping algorithm">
<polygon fill="white" stroke="#666666" points="363,-19 253,-19 253,0 363,0 363,-19"/>
<text text-anchor="middle" x="308" y="-7" font-family="Helvetica,sans-Serif" font-size="10.00">s_3rd_order_tvd_rk</text>
</a>
</g>
</g>
<!-- Node3&#45;&gt;Node9 -->
<g id="edge9_Node000003_Node000009" class="edge">
<title>Node3&#45;&gt;Node9</title>
<g id="a_edge9_Node000003_Node000009"><a xlink:title=" ">
<path fill="none" stroke="#63b8ff" d="M428.54,-51.51C409.4,-44.62 385.44,-36.04 364,-28.5 355.14,-25.38 345.46,-22.02 336.72,-19.01"/>
<polygon fill="#63b8ff" stroke="#63b8ff" points="427.48,-54.85 438.08,-54.94 429.86,-48.26 427.48,-54.85"/>
</a>
</g>
</g>
<!-- Node6 -->
<g id="Node000006" class="node">
<title>Node6</title>
<g id="a_Node000006"><a xlink:href="namespacem__start__up.html#aaaeff91a52af5b8f17ed9efed8ac17bd" target="_top" xlink:title=" ">
<polygon fill="white" stroke="#666666" points="216,-61.5 89,-61.5 89,-31.5 216,-31.5 216,-61.5"/>
<text text-anchor="start" x="97" y="-49.5" font-family="Helvetica,sans-Serif" font-size="10.00">m_start_up::s_perform</text>
<text text-anchor="middle" x="152.5" y="-38.5" font-family="Helvetica,sans-Serif" font-size="10.00">_time_step</text>
</a>
</g>
</g>
<!-- Node5&#45;&gt;Node6 -->
<g id="edge5_Node000005_Node000006" class="edge">
<title>Node5&#45;&gt;Node6</title>
<g id="a_edge5_Node000005_Node000006"><a xlink:title=" ">
<path fill="none" stroke="#63b8ff" d="M257.58,-71.59C244.29,-68.38 229.73,-64.88 215.83,-61.52"/>
<polygon fill="#63b8ff" stroke="#63b8ff" points="256.93,-75.03 267.47,-73.97 258.57,-68.23 256.93,-75.03"/>
</a>
</g>
</g>
<!-- Node7 -->
<g id="Node000007" class="node">
<title>Node7</title>
<g id="a_Node000007"><a xlink:href="p__main_8fpp_8f90.html#aeec10ee8e2940c953967da3e374e1579" target="_top" xlink:title="Quasi&#45;conservative, shock&#45; and interface&#45; capturing finite&#45;volume scheme for the multicomponent Navie...">
<polygon fill="white" stroke="#666666" points="53,-56 0,-56 0,-37 53,-37 53,-56"/>
<text text-anchor="middle" x="26.5" y="-44" font-family="Helvetica,sans-Serif" font-size="10.00">p_main</text>
</a>
</g>
</g>
<!-- Node6&#45;&gt;Node7 -->
<g id="edge6_Node000006_Node000007" class="edge">
<title>Node6&#45;&gt;Node7</title>
<g id="a_edge6_Node000006_Node000007"><a xlink:title=" ">
<path fill="none" stroke="#63b8ff" d="M78.77,-46.5C69.63,-46.5 60.81,-46.5 53.14,-46.5"/>
<polygon fill="#63b8ff" stroke="#63b8ff" points="78.77,-50 88.77,-46.5 78.77,-43 78.77,-50"/>
</a>
</g>
</g>
<!-- Node8&#45;&gt;Node6 -->
<g id="edge8_Node000008_Node000006" class="edge">
<title>Node8&#45;&gt;Node6</title>
<g id="a_edge8_Node000008_Node000006"><a xlink:title=" ">
<path fill="none" stroke="#63b8ff" d="M241.46,-46.5C233.06,-46.5 224.48,-46.5 216.13,-46.5"/>
<polygon fill="#63b8ff" stroke="#63b8ff" points="241.58,-50 251.58,-46.5 241.58,-43 241.58,-50"/>
</a>
</g>
</g>
<!-- Node9&#45;&gt;Node6 -->
<g id="edge10_Node000009_Node000006" class="edge">
<title>Node9&#45;&gt;Node6</title>
<g id="a_edge10_Node000009_Node000006"><a xlink:title=" ">
<path fill="none" stroke="#63b8ff" d="M257.58,-21.41C244.29,-24.62 229.73,-28.12 215.83,-31.48"/>
<polygon fill="#63b8ff" stroke="#63b8ff" points="258.57,-24.77 267.47,-19.03 256.93,-17.97 258.57,-24.77"/>
</a>
</g>
</g>
</g>
</svg>
