<?xml version="1.0" encoding="UTF-8" standalone="no"?>
<!DOCTYPE svg PUBLIC "-//W3C//DTD SVG 1.1//EN"
 "http://www.w3.org/Graphics/SVG/1.1/DTD/svg11.dtd">
<!-- Generated by graphviz version 2.43.0 (0)
 -->
<!-- Title: s_get_viscous Pages: 1 -->
<svg width="542pt" height="137pt"
 viewBox="0.00 0.00 542.00 136.50" xmlns="http://www.w3.org/2000/svg" xmlns:xlink="http://www.w3.org/1999/xlink">
<g id="graph0" class="graph" transform="scale(1 1) rotate(0) translate(4 132.5)">
<title>s_get_viscous</title>
<!-- Node1 -->
<g id="Node000001" class="node">
<title>Node1</title>
<g id="a_Node000001"><a xlink:title="Computes viscous terms.">
<polygon fill="#999999" stroke="#666666" points="85,-80 0,-80 0,-61 85,-61 85,-80"/>
<text text-anchor="middle" x="42.5" y="-68" font-family="Helvetica,sans-Serif" font-size="10.00">s_get_viscous</text>
</a>
</g>
</g>
<!-- Node2 -->
<g id="Node000002" class="node">
<title>Node2</title>
<g id="a_Node000002"><a xlink:href="m__viscous_8fpp_8f90.html#aade42711c6dfbbd3bd3b47358ac2bd91" target="_top" xlink:title="The purpose of this subroutine is to employ the inputted left and right cell&#45;boundary integral&#45;averag...">
<polygon fill="white" stroke="#666666" points="269,-128.5 121,-128.5 121,-98.5 269,-98.5 269,-128.5"/>
<text text-anchor="start" x="129" y="-116.5" font-family="Helvetica,sans-Serif" font-size="10.00">s_apply_scalar_divergence</text>
<text text-anchor="middle" x="195" y="-105.5" font-family="Helvetica,sans-Serif" font-size="10.00">_theorem</text>
</a>
</g>
</g>
<!-- Node1&#45;&gt;Node2 -->
<g id="edge1_Node000001_Node000002" class="edge">
<title>Node1&#45;&gt;Node2</title>
<g id="a_edge1_Node000001_Node000002"><a xlink:title=" ">
<path fill="none" stroke="#63b8ff" d="M76.9,-80.04C93.05,-84.66 112.97,-90.35 131.77,-95.72"/>
<polygon fill="#63b8ff" stroke="#63b8ff" points="130.9,-99.11 141.48,-98.49 132.82,-92.38 130.9,-99.11"/>
</a>
</g>
</g>
<!-- Node3 -->
<g id="Node000003" class="node">
<title>Node3</title>
<g id="a_Node000003"><a xlink:href="m__viscous_8fpp_8f90.html#add30c5e0cfe85ee14359bb4e02c713c3" target="_top" xlink:title="Computes the scalar gradient fields via finite differences.">
<polygon fill="white" stroke="#666666" points="260.5,-80 129.5,-80 129.5,-61 260.5,-61 260.5,-80"/>
<text text-anchor="middle" x="195" y="-68" font-family="Helvetica,sans-Serif" font-size="10.00">s_compute_fd_gradient</text>
</a>
</g>
</g>
<!-- Node1&#45;&gt;Node3 -->
<g id="edge2_Node000001_Node000003" class="edge">
<title>Node1&#45;&gt;Node3</title>
<g id="a_edge2_Node000001_Node000003"><a xlink:title=" ">
<path fill="none" stroke="#63b8ff" d="M85.02,-70.5C95.66,-70.5 107.42,-70.5 119.17,-70.5"/>
<polygon fill="#63b8ff" stroke="#63b8ff" points="119.47,-74 129.47,-70.5 119.47,-67 119.47,-74"/>
</a>
</g>
</g>
<!-- Node4 -->
<g id="Node000004" class="node">
<title>Node4</title>
<g id="a_Node000004"><a xlink:href="m__viscous_8fpp_8f90.html#afb2cea3f273b947ff0fefe977e829244" target="_top" xlink:title=" ">
<polygon fill="white" stroke="#666666" points="260,-42.5 130,-42.5 130,-12.5 260,-12.5 260,-42.5"/>
<text text-anchor="start" x="138" y="-30.5" font-family="Helvetica,sans-Serif" font-size="10.00">s_reconstruct_cell</text>
<text text-anchor="middle" x="195" y="-19.5" font-family="Helvetica,sans-Serif" font-size="10.00">_boundary_values_visc</text>
</a>
</g>
</g>
<!-- Node1&#45;&gt;Node4 -->
<g id="edge3_Node000001_Node000004" class="edge">
<title>Node1&#45;&gt;Node4</title>
<g id="a_edge3_Node000001_Node000004"><a xlink:title=" ">
<path fill="none" stroke="#63b8ff" d="M76.9,-60.96C93.05,-56.34 112.97,-50.65 131.77,-45.28"/>
<polygon fill="#63b8ff" stroke="#63b8ff" points="132.82,-48.62 141.48,-42.51 130.9,-41.89 132.82,-48.62"/>
</a>
</g>
</g>
<!-- Node5 -->
<g id="Node000005" class="node">
<title>Node5</title>
<g id="a_Node000005"><a xlink:href="m__weno_8fpp_8f90.html#a8495f5eb3dca2bbde1088b568cf13288" target="_top" xlink:title=" ">
<polygon fill="white" stroke="#666666" points="358,-37 305,-37 305,-18 358,-18 358,-37"/>
<text text-anchor="middle" x="331.5" y="-25" font-family="Helvetica,sans-Serif" font-size="10.00">s_weno</text>
</a>
</g>
</g>
<!-- Node4&#45;&gt;Node5 -->
<g id="edge4_Node000004_Node000005" class="edge">
<title>Node4&#45;&gt;Node5</title>
<g id="a_edge4_Node000004_Node000005"><a xlink:title=" ">
<path fill="none" stroke="#63b8ff" d="M260.1,-27.5C271.97,-27.5 283.98,-27.5 294.63,-27.5"/>
<polygon fill="#63b8ff" stroke="#63b8ff" points="294.78,-31 304.78,-27.5 294.78,-24 294.78,-31"/>
</a>
</g>
</g>
<!-- Node6 -->
<g id="Node000006" class="node">
<title>Node6</title>
<g id="a_Node000006"><a xlink:href="m__weno_8fpp_8f90.html#abc4801fbf3acfd4db40d1ad294aa3e46" target="_top" xlink:title="The computation of parameters, the allocation of memory, the association of pointers and/or the execu...">
<polygon fill="white" stroke="#666666" points="514.5,-56 413.5,-56 413.5,-37 514.5,-37 514.5,-56"/>
<text text-anchor="middle" x="464" y="-44" font-family="Helvetica,sans-Serif" font-size="10.00">s_initialize_weno</text>
</a>
</g>
</g>
<!-- Node5&#45;&gt;Node6 -->
<g id="edge5_Node000005_Node000006" class="edge">
<title>Node5&#45;&gt;Node6</title>
<g id="a_edge5_Node000005_Node000006"><a xlink:title=" ">
<path fill="none" stroke="#63b8ff" d="M358.28,-31.25C371.2,-33.13 387.42,-35.5 403.22,-37.8"/>
<polygon fill="#63b8ff" stroke="#63b8ff" points="403.09,-41.32 413.49,-39.29 404.1,-34.39 403.09,-41.32"/>
</a>
</g>
</g>
<!-- Node7 -->
<g id="Node000007" class="node">
<title>Node7</title>
<g id="a_Node000007"><a xlink:href="m__weno_8fpp_8f90.html#ac6752752f34719dae452d0fe42e21682" target="_top" xlink:title="The goal of this subroutine is to ensure that the WENO reconstruction is monotonic....">
<polygon fill="white" stroke="#666666" points="534,-19 394,-19 394,0 534,0 534,-19"/>
<text text-anchor="middle" x="464" y="-7" font-family="Helvetica,sans-Serif" font-size="10.00">s_preserve_monotonicity</text>
</a>
</g>
</g>
<!-- Node5&#45;&gt;Node7 -->
<g id="edge6_Node000005_Node000007" class="edge">
<title>Node5&#45;&gt;Node7</title>
<g id="a_edge6_Node000005_Node000007"><a xlink:title=" ">
<path fill="none" stroke="#63b8ff" d="M358.28,-23.94C365.92,-22.89 374.71,-21.68 383.89,-20.41"/>
<polygon fill="#63b8ff" stroke="#63b8ff" points="384.53,-23.86 393.96,-19.02 383.57,-16.92 384.53,-23.86"/>
</a>
</g>
</g>
</g>
</svg>
