<?xml version="1.0" encoding="UTF-8" standalone="no"?>
<!DOCTYPE svg PUBLIC "-//W3C//DTD SVG 1.1//EN"
 "http://www.w3.org/Graphics/SVG/1.1/DTD/svg11.dtd">
<!-- Generated by graphviz version 2.43.0 (0)
 -->
<!-- Title: s_compute_pressure Pages: 1 -->
<svg width="919pt" height="347pt"
 viewBox="0.00 0.00 919.00 346.51" xmlns="http://www.w3.org/2000/svg" xmlns:xlink="http://www.w3.org/1999/xlink">
<g id="graph0" class="graph" transform="scale(1 1) rotate(0) translate(4 342.51)">
<title>s_compute_pressure</title>
<!-- Node1 -->
<g id="Node000001" class="node">
<title>Node1</title>
<g id="a_Node000001"><a xlink:title="This procedure conditionally calculates the appropriate pressure.">
<polygon fill="#999999" stroke="#666666" points="911,-201.51 794,-201.51 794,-182.51 911,-182.51 911,-201.51"/>
<text text-anchor="middle" x="852.5" y="-189.51" font-family="Helvetica,sans-Serif" font-size="10.00">s_compute_pressure</text>
</a>
</g>
</g>
<!-- Node2 -->
<g id="Node000002" class="node">
<title>Node2</title>
<g id="a_Node000002"><a xlink:href="m__variables__conversion_8fpp_8f90.html#a347ac5f0eb3158bfb1edcad667b6025c" target="_top" xlink:title=" ">
<polygon fill="white" stroke="#666666" points="570,-276.01 424,-276.01 424,-246.01 570,-246.01 570,-276.01"/>
<text text-anchor="start" x="432" y="-264.01" font-family="Helvetica,sans-Serif" font-size="10.00">__m_variables_conversion</text>
<text text-anchor="middle" x="497" y="-253.01" font-family="Helvetica,sans-Serif" font-size="10.00">_fpp_f90__</text>
</a>
</g>
</g>
<!-- Node1&#45;&gt;Node2 -->
<g id="edge1_Node000001_Node000002" class="edge">
<title>Node1&#45;&gt;Node2</title>
<g id="a_edge1_Node000001_Node000002"><a xlink:title=" ">
<path fill="none" stroke="#63b8ff" d="M828.85,-206.87C810.53,-218.07 783.67,-232.7 758,-240.01 696.26,-257.59 623.18,-262.14 570.24,-262.7"/>
<polygon fill="#63b8ff" stroke="#63b8ff" points="830.73,-209.82 837.35,-201.54 827.01,-203.89 830.73,-209.82"/>
</a>
</g>
</g>
<!-- Node3 -->
<g id="Node000003" class="node">
<title>Node3</title>
<g id="a_Node000003"><a xlink:href="m__variables__conversion_8fpp_8f90.html#a24725c6eb206c9a62e2ec70bf368836d" target="_top" xlink:title="The following procedure handles the conversion between the conservative variables and the primitive v...">
<polygon fill="white" stroke="#666666" points="748,-231.01 616,-231.01 616,-201.01 748,-201.01 748,-231.01"/>
<text text-anchor="start" x="624" y="-219.01" font-family="Helvetica,sans-Serif" font-size="10.00">s_convert_conservative</text>
<text text-anchor="middle" x="682" y="-208.01" font-family="Helvetica,sans-Serif" font-size="10.00">_to_primitive_variables</text>
</a>
</g>
</g>
<!-- Node1&#45;&gt;Node3 -->
<g id="edge2_Node000001_Node000003" class="edge">
<title>Node1&#45;&gt;Node3</title>
<g id="a_edge2_Node000001_Node000003"><a xlink:title=" ">
<path fill="none" stroke="#63b8ff" d="M783.77,-201.65C772,-203.33 759.78,-205.07 748.07,-206.74"/>
<polygon fill="#63b8ff" stroke="#63b8ff" points="784.58,-205.07 793.98,-200.2 783.59,-198.14 784.58,-205.07"/>
</a>
</g>
</g>
<!-- Node15 -->
<g id="Node000015" class="node">
<title>Node15</title>
<g id="a_Node000015"><a xlink:href="namespacem__start__up.html#a38182f7fcc92c1c687840339a20e85cd" target="_top" xlink:title="The purpose of this procedure is to initialize the values of the internal&#45;energy equations of each ph...">
<polygon fill="white" stroke="#666666" points="758,-59.01 606,-59.01 606,-29.01 758,-29.01 758,-59.01"/>
<text text-anchor="start" x="614" y="-47.01" font-family="Helvetica,sans-Serif" font-size="10.00">m_start_up::s_initialize</text>
<text text-anchor="middle" x="682" y="-36.01" font-family="Helvetica,sans-Serif" font-size="10.00">_internal_energy_equations</text>
</a>
</g>
</g>
<!-- Node1&#45;&gt;Node15 -->
<g id="edge20_Node000001_Node000015" class="edge">
<title>Node1&#45;&gt;Node15</title>
<g id="a_edge20_Node000001_Node000015"><a xlink:title=" ">
<path fill="none" stroke="#63b8ff" d="M832.88,-175.65C799.96,-146.74 732,-87.05 700.16,-59.08"/>
<polygon fill="#63b8ff" stroke="#63b8ff" points="830.62,-178.33 840.44,-182.3 835.24,-173.07 830.62,-178.33"/>
</a>
</g>
</g>
<!-- Node16 -->
<g id="Node000016" class="node">
<title>Node16</title>
<g id="a_Node000016"><a xlink:href="m__data__output_8fpp_8f90.html#aefc508a7157b96fe6611e3874c97ee0b" target="_top" xlink:title="This writes a formatted data file for the flow probe information.">
<polygon fill="white" stroke="#666666" points="552,-179.51 442,-179.51 442,-160.51 552,-160.51 552,-179.51"/>
<text text-anchor="middle" x="497" y="-167.51" font-family="Helvetica,sans-Serif" font-size="10.00">s_write_probe_files</text>
</a>
</g>
</g>
<!-- Node1&#45;&gt;Node16 -->
<g id="edge22_Node000001_Node000016" class="edge">
<title>Node1&#45;&gt;Node16</title>
<g id="a_edge22_Node000001_Node000016"><a xlink:title=" ">
<path fill="none" stroke="#63b8ff" d="M783.82,-187.8C716.41,-183.6 614.26,-177.24 552.08,-173.37"/>
<polygon fill="#63b8ff" stroke="#63b8ff" points="783.72,-191.3 793.92,-188.42 784.15,-184.31 783.72,-191.3"/>
</a>
</g>
</g>
<!-- Node3&#45;&gt;Node2 -->
<g id="edge3_Node000003_Node000002" class="edge">
<title>Node3&#45;&gt;Node2</title>
<g id="a_edge3_Node000003_Node000002"><a xlink:title=" ">
<path fill="none" stroke="#63b8ff" d="M610.05,-233.46C593.24,-237.59 575.46,-241.96 559.13,-245.97"/>
<polygon fill="#63b8ff" stroke="#63b8ff" points="610.93,-236.84 619.81,-231.05 609.26,-230.04 610.93,-236.84"/>
</a>
</g>
</g>
<!-- Node4 -->
<g id="Node000004" class="node">
<title>Node4</title>
<g id="a_Node000004"><a xlink:href="m__rhs_8fpp_8f90.html#a8522bdf311a42fe6ff7f2b433656573f" target="_top" xlink:title=" ">
<polygon fill="white" stroke="#666666" points="542,-227.51 452,-227.51 452,-208.51 542,-208.51 542,-227.51"/>
<text text-anchor="middle" x="497" y="-215.51" font-family="Helvetica,sans-Serif" font-size="10.00">s_compute_rhs</text>
</a>
</g>
</g>
<!-- Node3&#45;&gt;Node4 -->
<g id="edge4_Node000003_Node000004" class="edge">
<title>Node3&#45;&gt;Node4</title>
<g id="a_edge4_Node000003_Node000004"><a xlink:title=" ">
<path fill="none" stroke="#63b8ff" d="M605.8,-216.83C584.17,-217.07 561.28,-217.32 542.19,-217.52"/>
<polygon fill="#63b8ff" stroke="#63b8ff" points="606,-220.33 615.97,-216.72 605.93,-213.33 606,-220.33"/>
</a>
</g>
</g>
<!-- Node11 -->
<g id="Node000011" class="node">
<title>Node11</title>
<g id="a_Node000011"><a xlink:href="m__data__output_8fpp_8f90.html#a9bfd1f9d59388f2294e049bcabe09692" target="_top" xlink:title="The goal of this subroutine is to output the grid and conservative variables data files for given tim...">
<polygon fill="white" stroke="#666666" points="552.5,-76.01 441.5,-76.01 441.5,-46.01 552.5,-46.01 552.5,-76.01"/>
<text text-anchor="start" x="449.5" y="-64.01" font-family="Helvetica,sans-Serif" font-size="10.00">s_write_serial_data</text>
<text text-anchor="middle" x="497" y="-53.01" font-family="Helvetica,sans-Serif" font-size="10.00">_files</text>
</a>
</g>
</g>
<!-- Node3&#45;&gt;Node11 -->
<g id="edge13_Node000003_Node000011" class="edge">
<title>Node3&#45;&gt;Node11</title>
<g id="a_edge13_Node000003_Node000011"><a xlink:title=" ">
<path fill="none" stroke="#63b8ff" d="M655.14,-194.11C617.5,-162.22 548.53,-103.81 515.95,-76.21"/>
<polygon fill="#63b8ff" stroke="#63b8ff" points="653.23,-197.07 663.12,-200.86 657.75,-191.73 653.23,-197.07"/>
</a>
</g>
</g>
<!-- Node5 -->
<g id="Node000005" class="node">
<title>Node5</title>
<g id="a_Node000005"><a xlink:href="m__rhs_8fpp_8f90.html#a87616394067f1273cd06c4d299d10add" target="_top" xlink:title=" ">
<polygon fill="white" stroke="#666666" points="376.5,-227.51 266.5,-227.51 266.5,-208.51 376.5,-208.51 376.5,-227.51"/>
<text text-anchor="middle" x="321.5" y="-215.51" font-family="Helvetica,sans-Serif" font-size="10.00">__m_rhs_fpp_f90__</text>
</a>
</g>
</g>
<!-- Node4&#45;&gt;Node5 -->
<g id="edge5_Node000004_Node000005" class="edge">
<title>Node4&#45;&gt;Node5</title>
<g id="a_edge5_Node000004_Node000005"><a xlink:title=" ">
<path fill="none" stroke="#63b8ff" d="M441.54,-218.01C420.83,-218.01 397.25,-218.01 376.57,-218.01"/>
<polygon fill="#63b8ff" stroke="#63b8ff" points="441.77,-221.51 451.77,-218.01 441.77,-214.51 441.77,-221.51"/>
</a>
</g>
</g>
<!-- Node6 -->
<g id="Node000006" class="node">
<title>Node6</title>
<g id="a_Node000006"><a xlink:href="m__time__steppers_8fpp_8f90.html#af409df8df1b374744d8c379e7e7dba0b" target="_top" xlink:title="1st order TVD RK time&#45;stepping algorithm">
<polygon fill="white" stroke="#666666" points="376,-301.51 267,-301.51 267,-282.51 376,-282.51 376,-301.51"/>
<text text-anchor="middle" x="321.5" y="-289.51" font-family="Helvetica,sans-Serif" font-size="10.00">s_1st_order_tvd_rk</text>
</a>
</g>
</g>
<!-- Node4&#45;&gt;Node6 -->
<g id="edge6_Node000004_Node000006" class="edge">
<title>Node4&#45;&gt;Node6</title>
<g id="a_edge6_Node000004_Node000006"><a xlink:title=" ">
<path fill="none" stroke="#63b8ff" d="M441.96,-228.8C435.7,-231.05 429.57,-233.76 424,-237.01 404.19,-248.58 407.75,-262.34 388,-274.01 382.21,-277.43 375.76,-280.22 369.21,-282.49"/>
<polygon fill="#63b8ff" stroke="#63b8ff" points="443.4,-232.02 451.85,-225.63 441.26,-225.35 443.4,-232.02"/>
</a>
</g>
</g>
<!-- Node9 -->
<g id="Node000009" class="node">
<title>Node9</title>
<g id="a_Node000009"><a xlink:href="m__time__steppers_8fpp_8f90.html#a2847bfea6f3dc3fdae115a99009f7245" target="_top" xlink:title="2nd order TVD RK time&#45;stepping algorithm">
<polygon fill="white" stroke="#666666" points="377.5,-264.51 265.5,-264.51 265.5,-245.51 377.5,-245.51 377.5,-264.51"/>
<text text-anchor="middle" x="321.5" y="-252.51" font-family="Helvetica,sans-Serif" font-size="10.00">s_2nd_order_tvd_rk</text>
</a>
</g>
</g>
<!-- Node4&#45;&gt;Node9 -->
<g id="edge9_Node000004_Node000009" class="edge">
<title>Node4&#45;&gt;Node9</title>
<g id="a_edge9_Node000004_Node000009"><a xlink:title=" ">
<path fill="none" stroke="#63b8ff" d="M441.77,-229.57C417.82,-234.68 390,-240.61 367.25,-245.46"/>
<polygon fill="#63b8ff" stroke="#63b8ff" points="442.72,-232.95 451.77,-227.44 441.26,-226.1 442.72,-232.95"/>
</a>
</g>
</g>
<!-- Node10 -->
<g id="Node000010" class="node">
<title>Node10</title>
<g id="a_Node000010"><a xlink:href="m__time__steppers_8fpp_8f90.html#ad642c094881f0cffbb6158f9fa079a86" target="_top" xlink:title="3rd order TVD RK time&#45;stepping algorithm">
<polygon fill="white" stroke="#666666" points="376.5,-338.51 266.5,-338.51 266.5,-319.51 376.5,-319.51 376.5,-338.51"/>
<text text-anchor="middle" x="321.5" y="-326.51" font-family="Helvetica,sans-Serif" font-size="10.00">s_3rd_order_tvd_rk</text>
</a>
</g>
</g>
<!-- Node4&#45;&gt;Node10 -->
<g id="edge11_Node000004_Node000010" class="edge">
<title>Node4&#45;&gt;Node10</title>
<g id="a_edge11_Node000004_Node000010"><a xlink:title=" ">
<path fill="none" stroke="#63b8ff" d="M441.99,-226.68C435.5,-229.28 429.3,-232.65 424,-237.01 395.75,-260.23 416.14,-287.64 388,-311.01 383.92,-314.4 379.25,-317.15 374.32,-319.39"/>
<polygon fill="#63b8ff" stroke="#63b8ff" points="443.31,-229.93 451.65,-223.4 441.06,-223.3 443.31,-229.93"/>
</a>
</g>
</g>
<!-- Node7 -->
<g id="Node000007" class="node">
<title>Node7</title>
<g id="a_Node000007"><a xlink:href="namespacem__start__up.html#aaaeff91a52af5b8f17ed9efed8ac17bd" target="_top" xlink:title=" ">
<polygon fill="white" stroke="#666666" points="217.5,-270.01 90.5,-270.01 90.5,-240.01 217.5,-240.01 217.5,-270.01"/>
<text text-anchor="start" x="98.5" y="-258.01" font-family="Helvetica,sans-Serif" font-size="10.00">m_start_up::s_perform</text>
<text text-anchor="middle" x="154" y="-247.01" font-family="Helvetica,sans-Serif" font-size="10.00">_time_step</text>
</a>
</g>
</g>
<!-- Node6&#45;&gt;Node7 -->
<g id="edge7_Node000006_Node000007" class="edge">
<title>Node6&#45;&gt;Node7</title>
<g id="a_edge7_Node000006_Node000007"><a xlink:title=" ">
<path fill="none" stroke="#63b8ff" d="M267.71,-280.21C251.83,-276.65 234.23,-272.72 217.77,-269.04"/>
<polygon fill="#63b8ff" stroke="#63b8ff" points="267.36,-283.71 277.88,-282.48 268.88,-276.88 267.36,-283.71"/>
</a>
</g>
</g>
<!-- Node8 -->
<g id="Node000008" class="node">
<title>Node8</title>
<g id="a_Node000008"><a xlink:href="p__main_8fpp_8f90.html#aeec10ee8e2940c953967da3e374e1579" target="_top" xlink:title="Quasi&#45;conservative, shock&#45; and interface&#45; capturing finite&#45;volume scheme for the multicomponent Navie...">
<polygon fill="white" stroke="#666666" points="53,-135.51 0,-135.51 0,-116.51 53,-116.51 53,-135.51"/>
<text text-anchor="middle" x="26.5" y="-123.51" font-family="Helvetica,sans-Serif" font-size="10.00">p_main</text>
</a>
</g>
</g>
<!-- Node7&#45;&gt;Node8 -->
<g id="edge8_Node000007_Node000008" class="edge">
<title>Node7&#45;&gt;Node8</title>
<g id="a_edge8_Node000007_Node000008"><a xlink:title=" ">
<path fill="none" stroke="#63b8ff" d="M131.08,-232.48C103.4,-204.03 56.98,-156.3 37.05,-135.83"/>
<polygon fill="#63b8ff" stroke="#63b8ff" points="128.88,-235.23 138.36,-239.96 133.89,-230.35 128.88,-235.23"/>
</a>
</g>
</g>
<!-- Node9&#45;&gt;Node7 -->
<g id="edge10_Node000009_Node000007" class="edge">
<title>Node9&#45;&gt;Node7</title>
<g id="a_edge10_Node000009_Node000007"><a xlink:title=" ">
<path fill="none" stroke="#63b8ff" d="M255.15,-255.01C242.78,-255.01 229.87,-255.01 217.59,-255.01"/>
<polygon fill="#63b8ff" stroke="#63b8ff" points="255.39,-258.51 265.39,-255.01 255.39,-251.51 255.39,-258.51"/>
</a>
</g>
</g>
<!-- Node10&#45;&gt;Node7 -->
<g id="edge12_Node000010_Node000007" class="edge">
<title>Node10&#45;&gt;Node7</title>
<g id="a_edge12_Node000010_Node000007"><a xlink:title=" ">
<path fill="none" stroke="#63b8ff" d="M269.97,-316.46C264.86,-314.79 259.79,-312.97 255,-311.01 227.39,-299.68 197.8,-282.4 178.03,-270.03"/>
<polygon fill="#63b8ff" stroke="#63b8ff" points="269.22,-319.89 279.8,-319.47 271.27,-313.19 269.22,-319.89"/>
</a>
</g>
</g>
<!-- Node12 -->
<g id="Node000012" class="node">
<title>Node12</title>
<g id="a_Node000012"><a xlink:href="m__data__output_8fpp_8f90.html#a979b8a2cf4215a8122fc461c0512dbba" target="_top" xlink:title=" ">
<polygon fill="white" stroke="#666666" points="215,-98.01 93,-98.01 93,-68.01 215,-68.01 215,-98.01"/>
<text text-anchor="start" x="101" y="-86.01" font-family="Helvetica,sans-Serif" font-size="10.00">__m_data_output_fpp</text>
<text text-anchor="middle" x="154" y="-75.01" font-family="Helvetica,sans-Serif" font-size="10.00">_f90__</text>
</a>
</g>
</g>
<!-- Node11&#45;&gt;Node12 -->
<g id="edge14_Node000011_Node000012" class="edge">
<title>Node11&#45;&gt;Node12</title>
<g id="a_edge14_Node000011_Node000012"><a xlink:title=" ">
<path fill="none" stroke="#63b8ff" d="M431.12,-65.19C368.89,-69.21 275.69,-75.22 215.11,-79.13"/>
<polygon fill="#63b8ff" stroke="#63b8ff" points="431.46,-68.68 441.21,-64.54 431.01,-61.69 431.46,-68.68"/>
</a>
</g>
</g>
<!-- Node13 -->
<g id="Node000013" class="node">
<title>Node13</title>
<g id="a_Node000013"><a xlink:href="m__data__output_8fpp_8f90.html#a23f7e1c827800797a2fe2a1ea76ca16c" target="_top" xlink:title="The computation of parameters, the allocation of memory, the association of pointers and/or the execu...">
<polygon fill="white" stroke="#666666" points="388,-55.01 255,-55.01 255,-25.01 388,-25.01 388,-55.01"/>
<text text-anchor="start" x="263" y="-43.01" font-family="Helvetica,sans-Serif" font-size="10.00">s_initialize_data_output</text>
<text text-anchor="middle" x="321.5" y="-32.01" font-family="Helvetica,sans-Serif" font-size="10.00">_module</text>
</a>
</g>
</g>
<!-- Node11&#45;&gt;Node13 -->
<g id="edge15_Node000011_Node000013" class="edge">
<title>Node11&#45;&gt;Node13</title>
<g id="a_edge15_Node000011_Node000013"><a xlink:title=" ">
<path fill="none" stroke="#63b8ff" d="M431.08,-53.15C417.1,-51.46 402.3,-49.67 388.28,-47.97"/>
<polygon fill="#63b8ff" stroke="#63b8ff" points="430.76,-56.64 441.1,-54.36 431.6,-49.69 430.76,-56.64"/>
</a>
</g>
</g>
<!-- Node14 -->
<g id="Node000014" class="node">
<title>Node14</title>
<g id="a_Node000014"><a xlink:href="namespacem__start__up.html#a3745654d013067a8c4fd89f50598674c" target="_top" xlink:title=" ">
<polygon fill="white" stroke="#666666" points="219,-31.01 89,-31.01 89,-1.01 219,-1.01 219,-31.01"/>
<text text-anchor="start" x="97" y="-19.01" font-family="Helvetica,sans-Serif" font-size="10.00">m_start_up::s_initialize</text>
<text text-anchor="middle" x="154" y="-8.01" font-family="Helvetica,sans-Serif" font-size="10.00">_modules</text>
</a>
</g>
</g>
<!-- Node11&#45;&gt;Node14 -->
<g id="edge19_Node000011_Node000014" class="edge">
<title>Node11&#45;&gt;Node14</title>
<g id="a_edge19_Node000011_Node000014"><a xlink:title=" ">
<path fill="none" stroke="#63b8ff" d="M459.32,-41.47C438.94,-31.71 412.76,-20.96 388,-16.01 331.77,-4.76 266.38,-5.97 219.2,-9.29"/>
<polygon fill="#63b8ff" stroke="#63b8ff" points="458.02,-44.73 468.54,-46 461.11,-38.45 458.02,-44.73"/>
</a>
</g>
</g>
<!-- Node13&#45;&gt;Node12 -->
<g id="edge16_Node000013_Node000012" class="edge">
<title>Node13&#45;&gt;Node12</title>
<g id="a_edge16_Node000013_Node000012"><a xlink:title=" ">
<path fill="none" stroke="#63b8ff" d="M252.64,-57.64C239.43,-61.07 225.7,-64.64 212.85,-67.98"/>
<polygon fill="#63b8ff" stroke="#63b8ff" points="253.82,-60.95 262.62,-55.05 252.06,-54.17 253.82,-60.95"/>
</a>
</g>
</g>
<!-- Node13&#45;&gt;Node14 -->
<g id="edge17_Node000013_Node000014" class="edge">
<title>Node13&#45;&gt;Node14</title>
<g id="a_edge17_Node000013_Node000014"><a xlink:title=" ">
<path fill="none" stroke="#63b8ff" d="M244.64,-29.01C236.08,-27.77 227.43,-26.51 219.04,-25.29"/>
<polygon fill="#63b8ff" stroke="#63b8ff" points="244.22,-32.48 254.61,-30.45 245.22,-25.55 244.22,-32.48"/>
</a>
</g>
</g>
<!-- Node14&#45;&gt;Node8 -->
<g id="edge18_Node000014_Node000008" class="edge">
<title>Node14&#45;&gt;Node8</title>
<g id="a_edge18_Node000014_Node000008"><a xlink:title=" ">
<path fill="none" stroke="#63b8ff" d="M119.11,-36.62C109.06,-43.29 98.27,-51.05 89,-59.01 67.68,-77.32 46.28,-102.56 35.21,-116.24"/>
<polygon fill="#63b8ff" stroke="#63b8ff" points="121.22,-39.43 127.7,-31.05 117.41,-33.55 121.22,-39.43"/>
</a>
</g>
</g>
<!-- Node15&#45;&gt;Node14 -->
<g id="edge21_Node000015_Node000014" class="edge">
<title>Node15&#45;&gt;Node14</title>
<g id="a_edge21_Node000015_Node000014"><a xlink:title=" ">
<path fill="none" stroke="#63b8ff" d="M595.82,-28.9C537.53,-19.34 458.36,-7.91 388,-3.01 329.03,1.1 313.99,0.81 255,-3.01 243.38,-3.76 231.05,-5 219.16,-6.42"/>
<polygon fill="#63b8ff" stroke="#63b8ff" points="595.29,-32.36 605.72,-30.54 596.43,-25.45 595.29,-32.36"/>
</a>
</g>
</g>
<!-- Node16&#45;&gt;Node12 -->
<g id="edge23_Node000016_Node000012" class="edge">
<title>Node16&#45;&gt;Node12</title>
<g id="a_edge23_Node000016_Node000012"><a xlink:title=" ">
<path fill="none" stroke="#63b8ff" d="M452.87,-157.7C433.14,-152.15 409.42,-145.6 388,-140.01 329.58,-124.75 262.58,-108.49 215.48,-97.26"/>
<polygon fill="#63b8ff" stroke="#63b8ff" points="451.93,-161.07 462.51,-160.41 453.83,-154.33 451.93,-161.07"/>
</a>
</g>
</g>
<!-- Node17 -->
<g id="Node000017" class="node">
<title>Node17</title>
<g id="a_Node000017"><a xlink:href="namespacem__derived__variables.html#a516a9808b3446b7b45029f6451d02b3f" target="_top" xlink:title="Writes coherent body information, communication files, and probes.">
<polygon fill="white" stroke="#666666" points="381,-190.51 262,-190.51 262,-149.51 381,-149.51 381,-190.51"/>
<text text-anchor="start" x="270" y="-178.51" font-family="Helvetica,sans-Serif" font-size="10.00">m_derived_variables</text>
<text text-anchor="start" x="270" y="-167.51" font-family="Helvetica,sans-Serif" font-size="10.00">::s_compute_derived</text>
<text text-anchor="middle" x="321.5" y="-156.51" font-family="Helvetica,sans-Serif" font-size="10.00">_variables</text>
</a>
</g>
</g>
<!-- Node16&#45;&gt;Node17 -->
<g id="edge24_Node000016_Node000017" class="edge">
<title>Node16&#45;&gt;Node17</title>
<g id="a_edge24_Node000016_Node000017"><a xlink:title=" ">
<path fill="none" stroke="#63b8ff" d="M431.5,-170.01C415.02,-170.01 397.4,-170.01 381.24,-170.01"/>
<polygon fill="#63b8ff" stroke="#63b8ff" points="431.58,-173.51 441.58,-170.01 431.58,-166.51 431.58,-173.51"/>
</a>
</g>
</g>
<!-- Node17&#45;&gt;Node7 -->
<g id="edge25_Node000017_Node000007" class="edge">
<title>Node17&#45;&gt;Node7</title>
<g id="a_edge25_Node000017_Node000007"><a xlink:title=" ">
<path fill="none" stroke="#63b8ff" d="M263.44,-194.88C260.58,-196.25 257.75,-197.63 255,-199.01 229.19,-211.91 200.54,-228.16 180.54,-239.83"/>
<polygon fill="#63b8ff" stroke="#63b8ff" points="265.11,-197.97 272.68,-190.56 262.14,-191.63 265.11,-197.97"/>
</a>
</g>
</g>
</g>
</svg>
