<?xml version="1.0" encoding="UTF-8" standalone="no"?>
<!DOCTYPE svg PUBLIC "-//W3C//DTD SVG 1.1//EN"
 "http://www.w3.org/Graphics/SVG/1.1/DTD/svg11.dtd">
<!-- Generated by graphviz version 2.43.0 (0)
 -->
<!-- Title: s_finalize_viscous_module Pages: 1 -->
<svg width="368pt" height="76pt"
 viewBox="0.00 0.00 368.00 75.50" xmlns="http://www.w3.org/2000/svg" xmlns:xlink="http://www.w3.org/1999/xlink">
<g id="graph0" class="graph" transform="scale(1 1) rotate(0) translate(4 71.5)">
<title>s_finalize_viscous_module</title>
<!-- Node1 -->
<g id="Node000001" class="node">
<title>Node1</title>
<g id="a_Node000001"><a xlink:title=" ">
<polygon fill="#999999" stroke="#666666" points="360,-51 256,-51 256,-21 360,-21 360,-51"/>
<text text-anchor="start" x="264" y="-39" font-family="Helvetica,sans-Serif" font-size="10.00">s_finalize_viscous</text>
<text text-anchor="middle" x="308" y="-28" font-family="Helvetica,sans-Serif" font-size="10.00">_module</text>
</a>
</g>
</g>
<!-- Node2 -->
<g id="Node000002" class="node">
<title>Node2</title>
<g id="a_Node000002"><a xlink:href="m__viscous_8fpp_8f90.html#a24875bab9826f15c6be48956a235472d" target="_top" xlink:title=" ">
<polygon fill="white" stroke="#666666" points="220,-67.5 89,-67.5 89,-48.5 220,-48.5 220,-67.5"/>
<text text-anchor="middle" x="154.5" y="-55.5" font-family="Helvetica,sans-Serif" font-size="10.00">__m_viscous_fpp_f90__</text>
</a>
</g>
</g>
<!-- Node1&#45;&gt;Node2 -->
<g id="edge1_Node000001_Node000002" class="edge">
<title>Node1&#45;&gt;Node2</title>
<g id="a_edge1_Node000001_Node000002"><a xlink:title=" ">
<path fill="none" stroke="#63b8ff" d="M245.63,-44.91C237.24,-46.13 228.61,-47.38 220.17,-48.61"/>
<polygon fill="#63b8ff" stroke="#63b8ff" points="246.32,-48.35 255.71,-43.45 245.31,-41.42 246.32,-48.35"/>
</a>
</g>
</g>
<!-- Node3 -->
<g id="Node000003" class="node">
<title>Node3</title>
<g id="a_Node000003"><a xlink:href="namespacem__start__up.html#ab87c655bac9da3a86067890850caefba" target="_top" xlink:title=" ">
<polygon fill="white" stroke="#666666" points="216,-30 93,-30 93,0 216,0 216,-30"/>
<text text-anchor="start" x="101" y="-18" font-family="Helvetica,sans-Serif" font-size="10.00">m_start_up::s_finalize</text>
<text text-anchor="middle" x="154.5" y="-7" font-family="Helvetica,sans-Serif" font-size="10.00">_modules</text>
</a>
</g>
</g>
<!-- Node1&#45;&gt;Node3 -->
<g id="edge2_Node000001_Node000003" class="edge">
<title>Node1&#45;&gt;Node3</title>
<g id="a_edge2_Node000001_Node000003"><a xlink:title=" ">
<path fill="none" stroke="#63b8ff" d="M245.71,-27.5C235.96,-26.15 225.89,-24.76 216.17,-23.41"/>
<polygon fill="#63b8ff" stroke="#63b8ff" points="245.32,-30.98 255.71,-28.89 246.28,-24.05 245.32,-30.98"/>
</a>
</g>
</g>
<!-- Node4 -->
<g id="Node000004" class="node">
<title>Node4</title>
<g id="a_Node000004"><a xlink:href="p__main_8fpp_8f90.html#aeec10ee8e2940c953967da3e374e1579" target="_top" xlink:title="Quasi&#45;conservative, shock&#45; and interface&#45; capturing finite&#45;volume scheme for the multicomponent Navie...">
<polygon fill="white" stroke="#666666" points="53,-24.5 0,-24.5 0,-5.5 53,-5.5 53,-24.5"/>
<text text-anchor="middle" x="26.5" y="-12.5" font-family="Helvetica,sans-Serif" font-size="10.00">p_main</text>
</a>
</g>
</g>
<!-- Node3&#45;&gt;Node4 -->
<g id="edge3_Node000003_Node000004" class="edge">
<title>Node3&#45;&gt;Node4</title>
<g id="a_edge3_Node000003_Node000004"><a xlink:title=" ">
<path fill="none" stroke="#63b8ff" d="M82.58,-15C72.06,-15 61.84,-15 53.12,-15"/>
<polygon fill="#63b8ff" stroke="#63b8ff" points="82.71,-18.5 92.71,-15 82.71,-11.5 82.71,-18.5"/>
</a>
</g>
</g>
</g>
</svg>
