<?xml version="1.0" encoding="UTF-8" standalone="no"?>
<!DOCTYPE svg PUBLIC "-//W3C//DTD SVG 1.1//EN"
 "http://www.w3.org/Graphics/SVG/1.1/DTD/svg11.dtd">
<!-- Generated by graphviz version 2.43.0 (0)
 -->
<!-- Title: __m_viscous_fpp_f90__ Pages: 1 -->
<svg width="782pt" height="218pt"
 viewBox="0.00 0.00 782.00 218.00" xmlns="http://www.w3.org/2000/svg" xmlns:xlink="http://www.w3.org/1999/xlink">
<g id="graph0" class="graph" transform="scale(1 1) rotate(0) translate(4 214)">
<title>__m_viscous_fpp_f90__</title>
<!-- Node1 -->
<g id="Node000001" class="node">
<title>Node1</title>
<g id="a_Node000001"><a xlink:title=" ">
<polygon fill="#999999" stroke="#666666" points="131,-113.5 0,-113.5 0,-94.5 131,-94.5 131,-113.5"/>
<text text-anchor="middle" x="65.5" y="-101.5" font-family="Helvetica,sans-Serif" font-size="10.00">__m_viscous_fpp_f90__</text>
</a>
</g>
</g>
<!-- Node2 -->
<g id="Node000002" class="node">
<title>Node2</title>
<g id="a_Node000002"><a xlink:href="m__viscous_8fpp_8f90.html#a1110efee754c653e3a435b16a660a4d7" target="_top" xlink:title="The purpose of this subroutine is to compute the viscous.">
<polygon fill="white" stroke="#666666" points="313,-210 167,-210 167,-180 313,-180 313,-210"/>
<text text-anchor="start" x="175" y="-198" font-family="Helvetica,sans-Serif" font-size="10.00">s_compute_viscous_stress</text>
<text text-anchor="middle" x="240" y="-187" font-family="Helvetica,sans-Serif" font-size="10.00">_tensor</text>
</a>
</g>
</g>
<!-- Node1&#45;&gt;Node2 -->
<g id="edge1_Node000001_Node000002" class="edge">
<title>Node1&#45;&gt;Node2</title>
<g id="a_edge1_Node000001_Node000002"><a xlink:title=" ">
<path fill="none" stroke="#63b8ff" d="M78.54,-113.59C96.78,-127.74 132.9,-154.32 167,-171 170.73,-172.82 174.63,-174.56 178.6,-176.21"/>
<polygon fill="#63b8ff" stroke="#63b8ff" points="177.38,-179.49 187.97,-179.88 179.93,-172.97 177.38,-179.49"/>
</a>
</g>
</g>
<!-- Node3 -->
<g id="Node000003" class="node">
<title>Node3</title>
<g id="a_Node000003"><a xlink:href="m__viscous_8fpp_8f90.html#af6e985e68f4bbcb8f86c1dc6dd47e14a" target="_top" xlink:title=" ">
<polygon fill="white" stroke="#666666" points="292,-162 188,-162 188,-132 292,-132 292,-162"/>
<text text-anchor="start" x="196" y="-150" font-family="Helvetica,sans-Serif" font-size="10.00">s_finalize_viscous</text>
<text text-anchor="middle" x="240" y="-139" font-family="Helvetica,sans-Serif" font-size="10.00">_module</text>
</a>
</g>
</g>
<!-- Node1&#45;&gt;Node3 -->
<g id="edge2_Node000001_Node000003" class="edge">
<title>Node1&#45;&gt;Node3</title>
<g id="a_edge2_Node000001_Node000003"><a xlink:title=" ">
<path fill="none" stroke="#63b8ff" d="M104.78,-113.54C126.24,-118.89 153.51,-125.69 177.86,-131.76"/>
<polygon fill="#63b8ff" stroke="#63b8ff" points="177.18,-135.2 187.73,-134.22 178.88,-128.41 177.18,-135.2"/>
</a>
</g>
</g>
<!-- Node4 -->
<g id="Node000004" class="node">
<title>Node4</title>
<g id="a_Node000004"><a xlink:href="m__viscous_8fpp_8f90.html#a0f828f5ebe7c76e07c69a5d13ea74803" target="_top" xlink:title="Computes viscous terms.">
<polygon fill="white" stroke="#666666" points="282.5,-113.5 197.5,-113.5 197.5,-94.5 282.5,-94.5 282.5,-113.5"/>
<text text-anchor="middle" x="240" y="-101.5" font-family="Helvetica,sans-Serif" font-size="10.00">s_get_viscous</text>
</a>
</g>
</g>
<!-- Node1&#45;&gt;Node4 -->
<g id="edge3_Node000001_Node000004" class="edge">
<title>Node1&#45;&gt;Node4</title>
<g id="a_edge3_Node000001_Node000004"><a xlink:title=" ">
<path fill="none" stroke="#63b8ff" d="M131.22,-104C149.76,-104 169.72,-104 187.36,-104"/>
<polygon fill="#63b8ff" stroke="#63b8ff" points="187.46,-107.5 197.46,-104 187.46,-100.5 187.46,-107.5"/>
</a>
</g>
</g>
<!-- Node11 -->
<g id="Node000011" class="node">
<title>Node11</title>
<g id="a_Node000011"><a xlink:href="m__viscous_8fpp_8f90.html#aca3dab4a08b24a81376f67c23e00d46d" target="_top" xlink:title=" ">
<polygon fill="white" stroke="#666666" points="295.5,-76 184.5,-76 184.5,-46 295.5,-46 295.5,-76"/>
<text text-anchor="start" x="192.5" y="-64" font-family="Helvetica,sans-Serif" font-size="10.00">s_initialize_viscous</text>
<text text-anchor="middle" x="240" y="-53" font-family="Helvetica,sans-Serif" font-size="10.00">_module</text>
</a>
</g>
</g>
<!-- Node1&#45;&gt;Node11 -->
<g id="edge10_Node000001_Node000011" class="edge">
<title>Node1&#45;&gt;Node11</title>
<g id="a_edge10_Node000001_Node000011"><a xlink:title=" ">
<path fill="none" stroke="#63b8ff" d="M104.78,-94.46C125.28,-89.35 151.08,-82.92 174.56,-77.06"/>
<polygon fill="#63b8ff" stroke="#63b8ff" points="175.61,-80.41 184.46,-74.59 173.91,-73.62 175.61,-80.41"/>
</a>
</g>
</g>
<!-- Node12 -->
<g id="Node000012" class="node">
<title>Node12</title>
<g id="a_Node000012"><a xlink:href="m__viscous_8fpp_8f90.html#a7a5f067c7a738f8814f5cee205d2892d" target="_top" xlink:title=" ">
<polygon fill="white" stroke="#666666" points="509,-30 349,-30 349,0 509,0 509,-30"/>
<text text-anchor="start" x="357" y="-18" font-family="Helvetica,sans-Serif" font-size="10.00">s_reconstruct_cell</text>
<text text-anchor="middle" x="429" y="-7" font-family="Helvetica,sans-Serif" font-size="10.00">_boundary_values_visc_deriv</text>
</a>
</g>
</g>
<!-- Node1&#45;&gt;Node12 -->
<g id="edge11_Node000001_Node000012" class="edge">
<title>Node1&#45;&gt;Node12</title>
<g id="a_edge11_Node000001_Node000012"><a xlink:title=" ">
<path fill="none" stroke="#63b8ff" d="M76.95,-94.35C94.2,-79.09 130.38,-49.79 167,-37 221.94,-17.81 287.17,-12.31 338.67,-11.61"/>
<polygon fill="#63b8ff" stroke="#63b8ff" points="338.81,-15.1 348.79,-11.53 338.76,-8.1 338.81,-15.1"/>
</a>
</g>
</g>
<!-- Node5 -->
<g id="Node000005" class="node">
<title>Node5</title>
<g id="a_Node000005"><a xlink:href="m__viscous_8fpp_8f90.html#aade42711c6dfbbd3bd3b47358ac2bd91" target="_top" xlink:title="The purpose of this subroutine is to employ the inputted left and right cell&#45;boundary integral&#45;averag...">
<polygon fill="white" stroke="#666666" points="503,-164 355,-164 355,-134 503,-134 503,-164"/>
<text text-anchor="start" x="363" y="-152" font-family="Helvetica,sans-Serif" font-size="10.00">s_apply_scalar_divergence</text>
<text text-anchor="middle" x="429" y="-141" font-family="Helvetica,sans-Serif" font-size="10.00">_theorem</text>
</a>
</g>
</g>
<!-- Node4&#45;&gt;Node5 -->
<g id="edge4_Node000004_Node000005" class="edge">
<title>Node4&#45;&gt;Node5</title>
<g id="a_edge4_Node000004_Node000005"><a xlink:title=" ">
<path fill="none" stroke="#63b8ff" d="M280.66,-113.54C302.43,-118.78 330.1,-125.44 355.58,-131.57"/>
<polygon fill="#63b8ff" stroke="#63b8ff" points="355.04,-135.04 365.59,-133.98 356.68,-128.24 355.04,-135.04"/>
</a>
</g>
</g>
<!-- Node6 -->
<g id="Node000006" class="node">
<title>Node6</title>
<g id="a_Node000006"><a xlink:href="m__viscous_8fpp_8f90.html#add30c5e0cfe85ee14359bb4e02c713c3" target="_top" xlink:title="Computes the scalar gradient fields via finite differences.">
<polygon fill="white" stroke="#666666" points="494.5,-115.5 363.5,-115.5 363.5,-96.5 494.5,-96.5 494.5,-115.5"/>
<text text-anchor="middle" x="429" y="-103.5" font-family="Helvetica,sans-Serif" font-size="10.00">s_compute_fd_gradient</text>
</a>
</g>
</g>
<!-- Node4&#45;&gt;Node6 -->
<g id="edge5_Node000004_Node000006" class="edge">
<title>Node4&#45;&gt;Node6</title>
<g id="a_edge5_Node000004_Node000006"><a xlink:title=" ">
<path fill="none" stroke="#63b8ff" d="M282.5,-104.44C303.31,-104.67 329.15,-104.94 353.26,-105.2"/>
<polygon fill="#63b8ff" stroke="#63b8ff" points="353.43,-108.7 363.47,-105.31 353.51,-101.7 353.43,-108.7"/>
</a>
</g>
</g>
<!-- Node7 -->
<g id="Node000007" class="node">
<title>Node7</title>
<g id="a_Node000007"><a xlink:href="m__viscous_8fpp_8f90.html#afb2cea3f273b947ff0fefe977e829244" target="_top" xlink:title=" ">
<polygon fill="white" stroke="#666666" points="494,-78 364,-78 364,-48 494,-48 494,-78"/>
<text text-anchor="start" x="372" y="-66" font-family="Helvetica,sans-Serif" font-size="10.00">s_reconstruct_cell</text>
<text text-anchor="middle" x="429" y="-55" font-family="Helvetica,sans-Serif" font-size="10.00">_boundary_values_visc</text>
</a>
</g>
</g>
<!-- Node4&#45;&gt;Node7 -->
<g id="edge6_Node000004_Node000007" class="edge">
<title>Node4&#45;&gt;Node7</title>
<g id="a_edge6_Node000004_Node000007"><a xlink:title=" ">
<path fill="none" stroke="#63b8ff" d="M282.5,-94.9C303.5,-90.3 329.62,-84.57 353.91,-79.24"/>
<polygon fill="#63b8ff" stroke="#63b8ff" points="354.81,-82.63 363.83,-77.07 353.32,-75.79 354.81,-82.63"/>
</a>
</g>
</g>
<!-- Node8 -->
<g id="Node000008" class="node">
<title>Node8</title>
<g id="a_Node000008"><a xlink:href="m__weno_8fpp_8f90.html#a8495f5eb3dca2bbde1088b568cf13288" target="_top" xlink:title=" ">
<polygon fill="white" stroke="#666666" points="598,-48.5 545,-48.5 545,-29.5 598,-29.5 598,-48.5"/>
<text text-anchor="middle" x="571.5" y="-36.5" font-family="Helvetica,sans-Serif" font-size="10.00">s_weno</text>
</a>
</g>
</g>
<!-- Node7&#45;&gt;Node8 -->
<g id="edge7_Node000007_Node000008" class="edge">
<title>Node7&#45;&gt;Node8</title>
<g id="a_edge7_Node000007_Node000008"><a xlink:title=" ">
<path fill="none" stroke="#63b8ff" d="M494.08,-52.05C508.11,-49.66 522.46,-47.21 534.88,-45.08"/>
<polygon fill="#63b8ff" stroke="#63b8ff" points="535.55,-48.52 544.82,-43.39 534.37,-41.62 535.55,-48.52"/>
</a>
</g>
</g>
<!-- Node9 -->
<g id="Node000009" class="node">
<title>Node9</title>
<g id="a_Node000009"><a xlink:href="m__weno_8fpp_8f90.html#abc4801fbf3acfd4db40d1ad294aa3e46" target="_top" xlink:title="The computation of parameters, the allocation of memory, the association of pointers and/or the execu...">
<polygon fill="white" stroke="#666666" points="754.5,-67.5 653.5,-67.5 653.5,-48.5 754.5,-48.5 754.5,-67.5"/>
<text text-anchor="middle" x="704" y="-55.5" font-family="Helvetica,sans-Serif" font-size="10.00">s_initialize_weno</text>
</a>
</g>
</g>
<!-- Node8&#45;&gt;Node9 -->
<g id="edge8_Node000008_Node000009" class="edge">
<title>Node8&#45;&gt;Node9</title>
<g id="a_edge8_Node000008_Node000009"><a xlink:title=" ">
<path fill="none" stroke="#63b8ff" d="M598.28,-42.75C611.2,-44.63 627.42,-47 643.22,-49.3"/>
<polygon fill="#63b8ff" stroke="#63b8ff" points="643.09,-52.82 653.49,-50.79 644.1,-45.89 643.09,-52.82"/>
</a>
</g>
</g>
<!-- Node10 -->
<g id="Node000010" class="node">
<title>Node10</title>
<g id="a_Node000010"><a xlink:href="m__weno_8fpp_8f90.html#ac6752752f34719dae452d0fe42e21682" target="_top" xlink:title="The goal of this subroutine is to ensure that the WENO reconstruction is monotonic....">
<polygon fill="white" stroke="#666666" points="774,-30.5 634,-30.5 634,-11.5 774,-11.5 774,-30.5"/>
<text text-anchor="middle" x="704" y="-18.5" font-family="Helvetica,sans-Serif" font-size="10.00">s_preserve_monotonicity</text>
</a>
</g>
</g>
<!-- Node8&#45;&gt;Node10 -->
<g id="edge9_Node000008_Node000010" class="edge">
<title>Node8&#45;&gt;Node10</title>
<g id="a_edge9_Node000008_Node000010"><a xlink:title=" ">
<path fill="none" stroke="#63b8ff" d="M598.28,-35.44C605.92,-34.39 614.71,-33.18 623.89,-31.91"/>
<polygon fill="#63b8ff" stroke="#63b8ff" points="624.53,-35.36 633.96,-30.52 623.57,-28.42 624.53,-35.36"/>
</a>
</g>
</g>
<!-- Node12&#45;&gt;Node8 -->
<g id="edge12_Node000012_Node000008" class="edge">
<title>Node12&#45;&gt;Node8</title>
<g id="a_edge12_Node000012_Node000008"><a xlink:title=" ">
<path fill="none" stroke="#63b8ff" d="M509.28,-28.54C518.2,-30.07 526.92,-31.56 534.85,-32.91"/>
<polygon fill="#63b8ff" stroke="#63b8ff" points="534.33,-36.37 544.78,-34.61 535.51,-29.47 534.33,-36.37"/>
</a>
</g>
</g>
</g>
</svg>
