<?xml version="1.0" encoding="UTF-8" standalone="no"?>
<!DOCTYPE svg PUBLIC "-//W3C//DTD SVG 1.1//EN"
 "http://www.w3.org/Graphics/SVG/1.1/DTD/svg11.dtd">
<!-- Generated by graphviz version 2.43.0 (0)
 -->
<!-- Title: s_compute_pressure Pages: 1 -->
<!--zoomable 385 -->

<svg id="main" version="1.1" xmlns="http://www.w3.org/2000/svg" xmlns:xlink="http://www.w3.org/1999/xlink" xml:space="preserve" onload="init(evt)">
<style type="text/css"><![CDATA[
.node, .edge {opacity: 0.7;}
.node.selected, .edge.selected {opacity: 1;}
.edge:hover path { stroke: red; }
.edge:hover polygon { stroke: red; fill: red; }
]]></style>

<defs>
  <circle id="rim" cx="0" cy="0" r="7"/>
  <circle id="rim2" cx="0" cy="0" r="3.5"/>
  <g id="zoomPlus">
    <use xlink:href="#rim" fill="#404040"><set attributeName="fill" to="#808080" begin="zoomplus.mouseover" end="zoomplus.mouseout"/></use>
    <path d="M-4,0h8M0,-4v8" fill="none" stroke="white" stroke-width="1.5" pointer-events="none"/>
  </g>
  <g id="zoomMin">
    <use xlink:href="#rim" fill="#404040"><set attributeName="fill" to="#808080" begin="zoomminus.mouseover" end="zoomminus.mouseout"/></use>
    <path d="M-4,0h8" fill="none" stroke="white" stroke-width="1.5" pointer-events="none"/>
  </g>
  <g id="arrowUp" transform="translate(30 24)">
    <use xlink:href="#rim"/>
    <path pointer-events="none" fill="none" stroke="white" stroke-width="1.5" d="M0,-3.0v7 M-2.5,-0.5L0,-3.0L2.5,-0.5"/>
  </g>
  <g id="arrowRight" transform="rotate(90) translate(36 -43)">
    <use xlink:href="#rim"/>
    <path pointer-events="none" fill="none" stroke="white" stroke-width="1.5" d="M0,-3.0v7 M-2.5,-0.5L0,-3.0L2.5,-0.5"/>
  </g>
  <g id="arrowDown" transform="rotate(180) translate(-30 -48)">
    <use xlink:href="#rim"/>
    <path pointer-events="none" fill="none" stroke="white" stroke-width="1.5" d="M0,-3.0v7 M-2.5,-0.5L0,-3.0L2.5,-0.5"/>
  </g>
  <g id="arrowLeft" transform="rotate(270) translate(-36 17)">
    <use xlink:href="#rim"/>
    <path pointer-events="none" fill="none" stroke="white" stroke-width="1.5" d="M0,-3.0v7 M-2.5,-0.5L0,-3.0L2.5,-0.5"/>
  </g>
  <g id="resetDef">
    <use xlink:href="#rim2" fill="#404040"><set attributeName="fill" to="#808080" begin="reset.mouseover" end="reset.mouseout"/></use>
  </g>
</defs>
<script type="application/ecmascript">
var viewWidth = 822;
var viewHeight = 385;
var sectionId = 'dynsection-1';
</script>
<script type="application/ecmascript" xlink:href="svg.min.js"/>
<svg id="graph" class="graph">
<g id="viewport">
<title>s_compute_pressure</title>
<!-- Node1 -->
<g id="Node000001" class="node">
<title>Node1</title>
<g id="a_Node000001"><a xlink:title="This procedure conditionally calculates the appropriate pressure.">
<polygon fill="#999999" stroke="#666666" points="814,-274.78 697,-274.78 697,-255.78 814,-255.78 814,-274.78"/>
<text text-anchor="middle" x="755.5" y="-262.78" font-family="Helvetica,sans-Serif" font-size="10.00">s_compute_pressure</text>
</a>
</g>
</g>
<!-- Node2 -->
<g id="Node000002" class="node">
<title>Node2</title>
<g id="a_Node000002"><a xlink:href="m__variables__conversion_8fpp_8f90.html#a347ac5f0eb3158bfb1edcad667b6025c" target="_top" xlink:title=" ">
<polygon fill="white" stroke="#666666" points="473,-302.28 327,-302.28 327,-272.28 473,-272.28 473,-302.28"/>
<text text-anchor="start" x="335" y="-290.28" font-family="Helvetica,sans-Serif" font-size="10.00">__m_variables_conversion</text>
<text text-anchor="middle" x="400" y="-279.28" font-family="Helvetica,sans-Serif" font-size="10.00">_fpp_f90__</text>
</a>
</g>
</g>
<!-- Node1&#45;&gt;Node2 -->
<g id="edge1_Node000001_Node000002" class="edge">
<title>Node1&#45;&gt;Node2</title>
<g id="a_edge1_Node000001_Node000002"><a xlink:title=" ">
<path fill="none" stroke="#63b8ff" d="M686.6,-269.51C625.41,-273.32 535.73,-278.9 473.24,-282.79"/>
<polygon fill="#63b8ff" stroke="#63b8ff" points="687.15,-272.98 696.92,-268.87 686.72,-265.99 687.15,-272.98"/>
</a>
</g>
</g>
<!-- Node3 -->
<g id="Node000003" class="node">
<title>Node3</title>
<g id="a_Node000003"><a xlink:href="m__variables__conversion_8fpp_8f90.html#a24725c6eb206c9a62e2ec70bf368836d" target="_top" xlink:title="The following procedure handles the conversion between the conservative variables and the primitive v...">
<polygon fill="white" stroke="#666666" points="651,-259.28 519,-259.28 519,-229.28 651,-229.28 651,-259.28"/>
<text text-anchor="start" x="527" y="-247.28" font-family="Helvetica,sans-Serif" font-size="10.00">s_convert_conservative</text>
<text text-anchor="middle" x="585" y="-236.28" font-family="Helvetica,sans-Serif" font-size="10.00">_to_primitive_variables</text>
</a>
</g>
</g>
<!-- Node1&#45;&gt;Node3 -->
<g id="edge2_Node000001_Node000003" class="edge">
<title>Node1&#45;&gt;Node3</title>
<g id="a_edge2_Node000001_Node000003"><a xlink:title=" ">
<path fill="none" stroke="#63b8ff" d="M686.77,-256.84C675,-255.37 662.78,-253.85 651.07,-252.39"/>
<polygon fill="#63b8ff" stroke="#63b8ff" points="686.63,-260.35 696.98,-258.11 687.49,-253.4 686.63,-260.35"/>
</a>
</g>
</g>
<!-- Node13 -->
<g id="Node000013" class="node">
<title>Node13</title>
<g id="a_Node000013"><a xlink:href="namespacem__start__up.html#a38182f7fcc92c1c687840339a20e85cd" target="_top" xlink:title="The purpose of this procedure is to initialize the values of the internal&#45;energy equations of each ph...">
<polygon fill="white" stroke="#666666" points="661,-358.28 509,-358.28 509,-328.28 661,-328.28 661,-358.28"/>
<text text-anchor="start" x="517" y="-346.28" font-family="Helvetica,sans-Serif" font-size="10.00">m_start_up::s_initialize</text>
<text text-anchor="middle" x="585" y="-335.28" font-family="Helvetica,sans-Serif" font-size="10.00">_internal_energy_equations</text>
</a>
</g>
</g>
<!-- Node1&#45;&gt;Node13 -->
<g id="edge18_Node000001_Node000013" class="edge">
<title>Node1&#45;&gt;Node13</title>
<g id="a_edge18_Node000001_Node000013"><a xlink:title=" ">
<path fill="none" stroke="#63b8ff" d="M724.4,-279.22C694.66,-292.98 649.31,-313.98 618.7,-328.15"/>
<polygon fill="#63b8ff" stroke="#63b8ff" points="726.23,-282.22 733.84,-274.85 723.29,-275.87 726.23,-282.22"/>
</a>
</g>
</g>
<!-- Node14 -->
<g id="Node000014" class="node">
<title>Node14</title>
<g id="a_Node000014"><a xlink:href="m__data__output_8fpp_8f90.html#aefc508a7157b96fe6611e3874c97ee0b" target="_top" xlink:title="This writes a formatted data file for the flow probe information.">
<polygon fill="white" stroke="#666666" points="455,-81.78 345,-81.78 345,-62.78 455,-62.78 455,-81.78"/>
<text text-anchor="middle" x="400" y="-69.78" font-family="Helvetica,sans-Serif" font-size="10.00">s_write_probe_files</text>
</a>
</g>
</g>
<!-- Node1&#45;&gt;Node14 -->
<g id="edge20_Node000001_Node000014" class="edge">
<title>Node1&#45;&gt;Node14</title>
<g id="a_edge20_Node000001_Node000014"><a xlink:title=" ">
<path fill="none" stroke="#63b8ff" d="M728.05,-250.84C659.29,-213.3 476.27,-113.38 418.64,-81.91"/>
<polygon fill="#63b8ff" stroke="#63b8ff" points="726.52,-253.99 736.97,-255.71 729.87,-247.85 726.52,-253.99"/>
</a>
</g>
</g>
<!-- Node3&#45;&gt;Node2 -->
<g id="edge3_Node000003_Node000002" class="edge">
<title>Node3&#45;&gt;Node2</title>
<g id="a_edge3_Node000003_Node000002"><a xlink:title=" ">
<path fill="none" stroke="#63b8ff" d="M510.25,-261.61C495.25,-265.14 479.59,-268.82 464.97,-272.25"/>
<polygon fill="#63b8ff" stroke="#63b8ff" points="511.06,-265.02 520,-259.32 509.46,-258.2 511.06,-265.02"/>
</a>
</g>
</g>
<!-- Node4 -->
<g id="Node000004" class="node">
<title>Node4</title>
<g id="a_Node000004"><a xlink:href="m__rhs_8fpp_8f90.html#a8522bdf311a42fe6ff7f2b433656573f" target="_top" xlink:title=" ">
<polygon fill="white" stroke="#666666" points="445,-253.78 355,-253.78 355,-234.78 445,-234.78 445,-253.78"/>
<text text-anchor="middle" x="400" y="-241.78" font-family="Helvetica,sans-Serif" font-size="10.00">s_compute_rhs</text>
</a>
</g>
</g>
<!-- Node3&#45;&gt;Node4 -->
<g id="edge4_Node000003_Node000004" class="edge">
<title>Node3&#45;&gt;Node4</title>
<g id="a_edge4_Node000003_Node000004"><a xlink:title=" ">
<path fill="none" stroke="#63b8ff" d="M508.8,-244.28C487.17,-244.28 464.28,-244.28 445.19,-244.28"/>
<polygon fill="#63b8ff" stroke="#63b8ff" points="508.97,-247.78 518.97,-244.28 508.97,-240.78 508.97,-247.78"/>
</a>
</g>
</g>
<!-- Node10 -->
<g id="Node000010" class="node">
<title>Node10</title>
<g id="a_Node000010"><a xlink:href="m__data__output_8fpp_8f90.html#a9bfd1f9d59388f2294e049bcabe09692" target="_top" xlink:title="The goal of this subroutine is to output the grid and conservative variables data files for given tim...">
<polygon fill="white" stroke="#666666" points="455.5,-163.28 344.5,-163.28 344.5,-133.28 455.5,-133.28 455.5,-163.28"/>
<text text-anchor="start" x="352.5" y="-151.28" font-family="Helvetica,sans-Serif" font-size="10.00">s_write_serial_data</text>
<text text-anchor="middle" x="400" y="-140.28" font-family="Helvetica,sans-Serif" font-size="10.00">_files</text>
</a>
</g>
</g>
<!-- Node3&#45;&gt;Node10 -->
<g id="edge12_Node000003_Node000010" class="edge">
<title>Node3&#45;&gt;Node10</title>
<g id="a_edge12_Node000003_Node000010"><a xlink:title=" ">
<path fill="none" stroke="#63b8ff" d="M546.53,-224.63C511.91,-206.47 461.2,-179.86 429.69,-163.34"/>
<polygon fill="#63b8ff" stroke="#63b8ff" points="544.92,-227.74 555.41,-229.28 548.18,-221.54 544.92,-227.74"/>
</a>
</g>
</g>
<!-- Node5 -->
<g id="Node000005" class="node">
<title>Node5</title>
<g id="a_Node000005"><a xlink:href="m__rhs_8fpp_8f90.html#a87616394067f1273cd06c4d299d10add" target="_top" xlink:title=" ">
<polygon fill="white" stroke="#666666" points="279.5,-290.78 169.5,-290.78 169.5,-271.78 279.5,-271.78 279.5,-290.78"/>
<text text-anchor="middle" x="224.5" y="-278.78" font-family="Helvetica,sans-Serif" font-size="10.00">__m_rhs_fpp_f90__</text>
</a>
</g>
</g>
<!-- Node4&#45;&gt;Node5 -->
<g id="edge5_Node000004_Node000005" class="edge">
<title>Node4&#45;&gt;Node5</title>
<g id="a_edge5_Node000004_Node000005"><a xlink:title=" ">
<path fill="none" stroke="#63b8ff" d="M344.77,-255.85C320.82,-260.96 293,-266.89 270.25,-271.74"/>
<polygon fill="#63b8ff" stroke="#63b8ff" points="345.72,-259.22 354.77,-253.72 344.26,-252.38 345.72,-259.22"/>
</a>
</g>
</g>
<!-- Node6 -->
<g id="Node000006" class="node">
<title>Node6</title>
<g id="a_Node000006"><a xlink:href="m__time__steppers_8fpp_8f90.html#af409df8df1b374744d8c379e7e7dba0b" target="_top" xlink:title="1st order TVD RK time&#45;stepping algorithm">
<polygon fill="white" stroke="#666666" points="279,-216.78 170,-216.78 170,-197.78 279,-197.78 279,-216.78"/>
<text text-anchor="middle" x="224.5" y="-204.78" font-family="Helvetica,sans-Serif" font-size="10.00">s_1st_order_tvd_rk</text>
</a>
</g>
</g>
<!-- Node4&#45;&gt;Node6 -->
<g id="edge6_Node000004_Node000006" class="edge">
<title>Node4&#45;&gt;Node6</title>
<g id="a_edge6_Node000004_Node000006"><a xlink:title=" ">
<path fill="none" stroke="#63b8ff" d="M344.77,-232.72C320.82,-227.61 293,-221.68 270.25,-216.83"/>
<polygon fill="#63b8ff" stroke="#63b8ff" points="344.26,-236.19 354.77,-234.85 345.72,-229.34 344.26,-236.19"/>
</a>
</g>
</g>
<!-- Node8 -->
<g id="Node000008" class="node">
<title>Node8</title>
<g id="a_Node000008"><a xlink:href="m__time__steppers_8fpp_8f90.html#a2847bfea6f3dc3fdae115a99009f7245" target="_top" xlink:title="2nd order TVD RK time&#45;stepping algorithm">
<polygon fill="white" stroke="#666666" points="280.5,-327.78 168.5,-327.78 168.5,-308.78 280.5,-308.78 280.5,-327.78"/>
<text text-anchor="middle" x="224.5" y="-315.78" font-family="Helvetica,sans-Serif" font-size="10.00">s_2nd_order_tvd_rk</text>
</a>
</g>
</g>
<!-- Node4&#45;&gt;Node8 -->
<g id="edge8_Node000004_Node000008" class="edge">
<title>Node4&#45;&gt;Node8</title>
<g id="a_edge8_Node000004_Node000008"><a xlink:title=" ">
<path fill="none" stroke="#63b8ff" d="M345.01,-255.15C338.73,-257.39 332.59,-260.07 327,-263.28 307.38,-274.56 310.48,-287.77 291,-299.28 284.48,-303.14 277.12,-306.25 269.76,-308.76"/>
<polygon fill="#63b8ff" stroke="#63b8ff" points="346.44,-258.37 354.9,-251.99 344.31,-251.7 346.44,-258.37"/>
</a>
</g>
</g>
<!-- Node9 -->
<g id="Node000009" class="node">
<title>Node9</title>
<g id="a_Node000009"><a xlink:href="m__time__steppers_8fpp_8f90.html#ad642c094881f0cffbb6158f9fa079a86" target="_top" xlink:title="3rd order TVD RK time&#45;stepping algorithm">
<polygon fill="white" stroke="#666666" points="279.5,-253.78 169.5,-253.78 169.5,-234.78 279.5,-234.78 279.5,-253.78"/>
<text text-anchor="middle" x="224.5" y="-241.78" font-family="Helvetica,sans-Serif" font-size="10.00">s_3rd_order_tvd_rk</text>
</a>
</g>
</g>
<!-- Node4&#45;&gt;Node9 -->
<g id="edge10_Node000004_Node000009" class="edge">
<title>Node4&#45;&gt;Node9</title>
<g id="a_edge10_Node000004_Node000009"><a xlink:title=" ">
<path fill="none" stroke="#63b8ff" d="M344.54,-244.28C323.83,-244.28 300.25,-244.28 279.57,-244.28"/>
<polygon fill="#63b8ff" stroke="#63b8ff" points="344.77,-247.78 354.77,-244.28 344.77,-240.78 344.77,-247.78"/>
</a>
</g>
</g>
<!-- Node7 -->
<g id="Node000007" class="node">
<title>Node7</title>
<g id="a_Node000007"><a xlink:href="p__main_8fpp_8f90.html#aeec10ee8e2940c953967da3e374e1579" target="_top" xlink:title="Quasi&#45;conservative, shock&#45; and interface&#45; capturing finite&#45;volume scheme for the multicomponent Navie...">
<polygon fill="white" stroke="#666666" points="87.5,-216.78 34.5,-216.78 34.5,-197.78 87.5,-197.78 87.5,-216.78"/>
<text text-anchor="middle" x="61" y="-204.78" font-family="Helvetica,sans-Serif" font-size="10.00">p_main</text>
</a>
</g>
</g>
<!-- Node6&#45;&gt;Node7 -->
<g id="edge7_Node000006_Node000007" class="edge">
<title>Node6&#45;&gt;Node7</title>
<g id="a_edge7_Node000006_Node000007"><a xlink:title=" ">
<path fill="none" stroke="#63b8ff" d="M159.47,-207.28C134.29,-207.28 106.85,-207.28 87.51,-207.28"/>
<polygon fill="#63b8ff" stroke="#63b8ff" points="159.72,-210.78 169.72,-207.28 159.72,-203.78 159.72,-210.78"/>
</a>
</g>
</g>
<!-- Node8&#45;&gt;Node7 -->
<g id="edge9_Node000008_Node000007" class="edge">
<title>Node8&#45;&gt;Node7</title>
<g id="a_edge9_Node000008_Node000007"><a xlink:title=" ">
<path fill="none" stroke="#63b8ff" d="M170.24,-305.25C165.99,-303.49 161.85,-301.51 158,-299.28 119.21,-276.91 84.08,-235.61 69.34,-216.92"/>
<polygon fill="#63b8ff" stroke="#63b8ff" points="169.06,-308.54 179.66,-308.76 171.51,-301.99 169.06,-308.54"/>
</a>
</g>
</g>
<!-- Node9&#45;&gt;Node7 -->
<g id="edge11_Node000009_Node000007" class="edge">
<title>Node9&#45;&gt;Node7</title>
<g id="a_edge11_Node000009_Node000007"><a xlink:title=" ">
<path fill="none" stroke="#63b8ff" d="M171.85,-232.45C143.81,-226.03 110.36,-218.36 87.8,-213.19"/>
<polygon fill="#63b8ff" stroke="#63b8ff" points="171.38,-235.93 181.91,-234.75 172.94,-229.11 171.38,-235.93"/>
</a>
</g>
</g>
<!-- Node10&#45;&gt;Node7 -->
<g id="edge14_Node000010_Node000007" class="edge">
<title>Node10&#45;&gt;Node7</title>
<g id="a_edge14_Node000010_Node000007"><a xlink:title=" ">
<path fill="none" stroke="#63b8ff" d="M334.3,-158.46C285.72,-166.24 217.6,-177.44 158,-188.28 134.1,-192.63 106.94,-198.05 87.63,-201.99"/>
<polygon fill="#63b8ff" stroke="#63b8ff" points="335.04,-161.89 344.36,-156.86 333.93,-154.98 335.04,-161.89"/>
</a>
</g>
</g>
<!-- Node11 -->
<g id="Node000011" class="node">
<title>Node11</title>
<g id="a_Node000011"><a xlink:href="m__data__output_8fpp_8f90.html#a979b8a2cf4215a8122fc461c0512dbba" target="_top" xlink:title=" ">
<polygon fill="white" stroke="#666666" points="122,-38.28 0,-38.28 0,-8.28 122,-8.28 122,-38.28"/>
<text text-anchor="start" x="8" y="-26.28" font-family="Helvetica,sans-Serif" font-size="10.00">__m_data_output_fpp</text>
<text text-anchor="middle" x="61" y="-15.28" font-family="Helvetica,sans-Serif" font-size="10.00">_f90__</text>
</a>
</g>
</g>
<!-- Node10&#45;&gt;Node11 -->
<g id="edge13_Node000010_Node000011" class="edge">
<title>Node10&#45;&gt;Node11</title>
<g id="a_edge13_Node000010_Node000011"><a xlink:title=" ">
<path fill="none" stroke="#63b8ff" d="M369.24,-126.99C355.69,-116.64 339.84,-103.57 327,-90.28 308.47,-71.1 314.34,-55.19 291,-42.28 239.33,-13.72 170.86,-11.83 122.29,-15.32"/>
<polygon fill="#63b8ff" stroke="#63b8ff" points="367.24,-129.87 377.34,-133.07 371.44,-124.27 367.24,-129.87"/>
</a>
</g>
</g>
<!-- Node12 -->
<g id="Node000012" class="node">
<title>Node12</title>
<g id="a_Node000012"><a xlink:href="m__data__output_8fpp_8f90.html#a23f7e1c827800797a2fe2a1ea76ca16c" target="_top" xlink:title="The computation of parameters, the allocation of memory, the association of pointers and/or the execu...">
<polygon fill="white" stroke="#666666" points="291,-141.28 158,-141.28 158,-111.28 291,-111.28 291,-141.28"/>
<text text-anchor="start" x="166" y="-129.28" font-family="Helvetica,sans-Serif" font-size="10.00">s_initialize_data_output</text>
<text text-anchor="middle" x="224.5" y="-118.28" font-family="Helvetica,sans-Serif" font-size="10.00">_module</text>
</a>
</g>
</g>
<!-- Node10&#45;&gt;Node12 -->
<g id="edge15_Node000010_Node000012" class="edge">
<title>Node10&#45;&gt;Node12</title>
<g id="a_edge15_Node000010_Node000012"><a xlink:title=" ">
<path fill="none" stroke="#63b8ff" d="M334.08,-140.05C320.1,-138.28 305.3,-136.4 291.28,-134.62"/>
<polygon fill="#63b8ff" stroke="#63b8ff" points="333.74,-143.54 344.1,-141.32 334.62,-136.59 333.74,-143.54"/>
</a>
</g>
</g>
<!-- Node12&#45;&gt;Node7 -->
<g id="edge17_Node000012_Node000007" class="edge">
<title>Node12&#45;&gt;Node7</title>
<g id="a_edge17_Node000012_Node000007"><a xlink:title=" ">
<path fill="none" stroke="#63b8ff" d="M178.58,-145.6C171.64,-148.75 164.6,-152.04 158,-155.28 129.76,-169.16 97.78,-186.9 78.78,-197.66"/>
<polygon fill="#63b8ff" stroke="#63b8ff" points="180.21,-148.71 187.91,-141.42 177.35,-142.32 180.21,-148.71"/>
</a>
</g>
</g>
<!-- Node12&#45;&gt;Node11 -->
<g id="edge16_Node000012_Node000011" class="edge">
<title>Node12&#45;&gt;Node11</title>
<g id="a_edge16_Node000012_Node000011"><a xlink:title=" ">
<path fill="none" stroke="#63b8ff" d="M168.84,-106.96C165.11,-105.17 161.46,-103.28 158,-101.28 126.94,-83.36 95.55,-55.62 77.48,-38.51"/>
<polygon fill="#63b8ff" stroke="#63b8ff" points="167.67,-110.28 178.23,-111.18 170.54,-103.89 167.67,-110.28"/>
</a>
</g>
</g>
<!-- Node13&#45;&gt;Node7 -->
<g id="edge19_Node000013_Node000007" class="edge">
<title>Node13&#45;&gt;Node7</title>
<g id="a_edge19_Node000013_Node000007"><a xlink:title=" ">
<path fill="none" stroke="#63b8ff" d="M512.88,-360.3C424.38,-377.56 271.13,-394.28 158,-336.28 106.82,-310.05 75.85,-242.5 65.7,-217.12"/>
<polygon fill="#63b8ff" stroke="#63b8ff" points="513.7,-363.71 522.82,-358.31 512.32,-356.84 513.7,-363.71"/>
</a>
</g>
</g>
<!-- Node14&#45;&gt;Node11 -->
<g id="edge21_Node000014_Node000011" class="edge">
<title>Node14&#45;&gt;Node11</title>
<g id="a_edge21_Node000014_Node000011"><a xlink:title=" ">
<path fill="none" stroke="#63b8ff" d="M379.36,-56.46C358.76,-40.97 324.74,-18.4 291,-9.28 235.25,5.79 169.18,-0.7 122.38,-9.17"/>
<polygon fill="#63b8ff" stroke="#63b8ff" points="377.27,-59.27 387.33,-62.61 381.55,-53.73 377.27,-59.27"/>
</a>
</g>
</g>
<!-- Node15 -->
<g id="Node000015" class="node">
<title>Node15</title>
<g id="a_Node000015"><a xlink:href="namespacem__derived__variables.html#a516a9808b3446b7b45029f6451d02b3f" target="_top" xlink:title="Writes coherent body information, communication files, and probes.">
<polygon fill="white" stroke="#666666" points="284,-92.78 165,-92.78 165,-51.78 284,-51.78 284,-92.78"/>
<text text-anchor="start" x="173" y="-80.78" font-family="Helvetica,sans-Serif" font-size="10.00">m_derived_variables</text>
<text text-anchor="start" x="173" y="-69.78" font-family="Helvetica,sans-Serif" font-size="10.00">::s_compute_derived</text>
<text text-anchor="middle" x="224.5" y="-58.78" font-family="Helvetica,sans-Serif" font-size="10.00">_variables</text>
</a>
</g>
</g>
<!-- Node14&#45;&gt;Node15 -->
<g id="edge22_Node000014_Node000015" class="edge">
<title>Node14&#45;&gt;Node15</title>
<g id="a_edge22_Node000014_Node000015"><a xlink:title=" ">
<path fill="none" stroke="#63b8ff" d="M334.5,-72.28C318.02,-72.28 300.4,-72.28 284.24,-72.28"/>
<polygon fill="#63b8ff" stroke="#63b8ff" points="334.58,-75.78 344.58,-72.28 334.58,-68.78 334.58,-75.78"/>
</a>
</g>
</g>
<!-- Node15&#45;&gt;Node7 -->
<g id="edge23_Node000015_Node000007" class="edge">
<title>Node15&#45;&gt;Node7</title>
<g id="a_edge23_Node000015_Node000007"><a xlink:title=" ">
<path fill="none" stroke="#63b8ff" d="M164.33,-97.98C162.15,-99.37 160.03,-100.8 158,-102.28 118.68,-130.94 83.03,-177.67 68.68,-197.69"/>
<polygon fill="#63b8ff" stroke="#63b8ff" points="166.14,-100.98 172.97,-92.88 162.58,-94.95 166.14,-100.98"/>
</a>
</g>
</g>
</g>
</svg>

<g id="navigator" transform="translate(0 0)" fill="#404254">
  <rect fill="#f2f5e9" fill-opacity="0.5" stroke="#606060" stroke-width=".5" x="0" y="0" width="60" height="60"/>
  <use id="zoomplus" xlink:href="#zoomPlus" x="17" y="9" onmousedown="handleZoom(evt,'in')"/>
  <use id="zoomminus" xlink:href="#zoomMin" x="42" y="9" onmousedown="handleZoom(evt,'out')"/>
  <use id="reset" xlink:href="#resetDef" x="30" y="36" onmousedown="handleReset()"/>
   <use id="arrowup" xlink:href="#arrowUp" x="0" y="0" onmousedown="handlePan(0,-1)"/>
  <use id="arrowright" xlink:href="#arrowRight" x="0" y="0" onmousedown="handlePan(1,0)"/>
  <use id="arrowdown" xlink:href="#arrowDown" x="0" y="0" onmousedown="handlePan(0,1)"/>
  <use id="arrowleft" xlink:href="#arrowLeft" x="0" y="0" onmousedown="handlePan(-1,0)"/>
</g>
<svg viewBox="0 0 15 15" width="100%" height="30px" preserveAspectRatio="xMaxYMin meet">
 <g id="arrow_out" transform="scale(0.3 0.3)">
  <a xlink:href="m__variables__conversion_8fpp_8f90_ad31047dc31e7ee8fc14d8717c4d0c334_icgraph_org.svg" target="_base">
   <rect id="button" ry="5" rx="5" y="6" x="6" height="38" width="38"
        fill="#f2f5e9" fill-opacity="0.5" stroke="#606060" stroke-width="1.0"/>
   <path id="arrow"
     d="M 11.500037,31.436501 C 11.940474,20.09759 22.043105,11.32322 32.158766,21.979434 L 37.068811,17.246167 C 37.068811,17.246167 37.088388,32 37.088388,32 L 22.160133,31.978069 C 22.160133,31.978069 26.997745,27.140456 26.997745,27.140456 C 18.528582,18.264221 13.291696,25.230495 11.500037,31.436501 z"
     style="fill:#404040;"/>
  </a>
 </g>
</svg>

<style type='text/css'>
<![CDATA[
[data-mouse-over-selected='false'] { opacity: 0.7; }
[data-mouse-over-selected='true']  { opacity: 1.0; }
]]>
</style>
<script type="application/ecmascript"><![CDATA[
document.addEventListener('DOMContentLoaded', (event) => {
  highlightEdges();
  highlightAdjacentNodes();
});
]]></script>
</svg>
