<?xml version="1.0" encoding="UTF-8" standalone="no"?>
<!DOCTYPE svg PUBLIC "-//W3C//DTD SVG 1.1//EN"
 "http://www.w3.org/Graphics/SVG/1.1/DTD/svg11.dtd">
<!-- Generated by graphviz version 2.43.0 (0)
 -->
<!-- Title: s_convert_species_to_mixture_variables Pages: 1 -->
<svg width="480pt" height="164pt"
 viewBox="0.00 0.00 480.00 163.50" xmlns="http://www.w3.org/2000/svg" xmlns:xlink="http://www.w3.org/1999/xlink">
<g id="graph0" class="graph" transform="scale(1 1) rotate(0) translate(4 159.5)">
<title>s_convert_species_to_mixture_variables</title>
<!-- Node1 -->
<g id="Node000001" class="node">
<title>Node1</title>
<g id="a_Node000001"><a xlink:title="This subroutine is designed for the volume fraction model and provided a set of either conservative o...">
<polygon fill="#999999" stroke="#666666" points="472,-91.5 351,-91.5 351,-61.5 472,-61.5 472,-91.5"/>
<text text-anchor="start" x="359" y="-79.5" font-family="Helvetica,sans-Serif" font-size="10.00">s_convert_species_to</text>
<text text-anchor="middle" x="411.5" y="-68.5" font-family="Helvetica,sans-Serif" font-size="10.00">_mixture_variables</text>
</a>
</g>
</g>
<!-- Node2 -->
<g id="Node000002" class="node">
<title>Node2</title>
<g id="a_Node000002"><a xlink:href="m__variables__conversion_8fpp_8f90.html#a347ac5f0eb3158bfb1edcad667b6025c" target="_top" xlink:title=" ">
<polygon fill="white" stroke="#666666" points="146,-155.5 0,-155.5 0,-125.5 146,-125.5 146,-155.5"/>
<text text-anchor="start" x="8" y="-143.5" font-family="Helvetica,sans-Serif" font-size="10.00">__m_variables_conversion</text>
<text text-anchor="middle" x="73" y="-132.5" font-family="Helvetica,sans-Serif" font-size="10.00">_fpp_f90__</text>
</a>
</g>
</g>
<!-- Node1&#45;&gt;Node2 -->
<g id="edge1_Node000001_Node000002" class="edge">
<title>Node1&#45;&gt;Node2</title>
<g id="a_edge1_Node000001_Node000002"><a xlink:title=" ">
<path fill="none" stroke="#63b8ff" d="M378.36,-96.72C360.42,-106.94 337.26,-118.43 315,-124.5 259.67,-139.57 194.69,-143.11 146.15,-143.13"/>
<polygon fill="#63b8ff" stroke="#63b8ff" points="380.37,-99.6 387.23,-91.53 376.84,-93.56 380.37,-99.6"/>
</a>
</g>
</g>
<!-- Node3 -->
<g id="Node000003" class="node">
<title>Node3</title>
<g id="a_Node000003"><a xlink:href="m__data__output_8fpp_8f90.html#a23f7e1c827800797a2fe2a1ea76ca16c" target="_top" xlink:title="The computation of parameters, the allocation of memory, the association of pointers and/or the execu...">
<polygon fill="white" stroke="#666666" points="315,-67.5 182,-67.5 182,-37.5 315,-37.5 315,-67.5"/>
<text text-anchor="start" x="190" y="-55.5" font-family="Helvetica,sans-Serif" font-size="10.00">s_initialize_data_output</text>
<text text-anchor="middle" x="248.5" y="-44.5" font-family="Helvetica,sans-Serif" font-size="10.00">_module</text>
</a>
</g>
</g>
<!-- Node1&#45;&gt;Node3 -->
<g id="edge2_Node000001_Node000003" class="edge">
<title>Node1&#45;&gt;Node3</title>
<g id="a_edge2_Node000001_Node000003"><a xlink:title=" ">
<path fill="none" stroke="#63b8ff" d="M340.42,-66.05C332.04,-64.8 323.5,-63.53 315.18,-62.29"/>
<polygon fill="#63b8ff" stroke="#63b8ff" points="340.14,-69.55 350.55,-67.56 341.17,-62.63 340.14,-69.55"/>
</a>
</g>
</g>
<!-- Node6 -->
<g id="Node000006" class="node">
<title>Node6</title>
<g id="a_Node000006"><a xlink:href="m__rhs_8fpp_8f90.html#ae28e169ac4d1272cc2a8e73be34b8ccb" target="_top" xlink:title="The computation of parameters, the allocation of memory, the association of pointers and/or the execu...">
<polygon fill="white" stroke="#666666" points="314,-19 183,-19 183,0 314,0 314,-19"/>
<text text-anchor="middle" x="248.5" y="-7" font-family="Helvetica,sans-Serif" font-size="10.00">s_initialize_rhs_module</text>
</a>
</g>
</g>
<!-- Node1&#45;&gt;Node6 -->
<g id="edge5_Node000001_Node000006" class="edge">
<title>Node1&#45;&gt;Node6</title>
<g id="a_edge5_Node000001_Node000006"><a xlink:title=" ">
<path fill="none" stroke="#63b8ff" d="M375.1,-56.75C357.4,-47.39 335.45,-36.53 315,-28.5 306.07,-25 296.24,-21.81 286.96,-19.08"/>
<polygon fill="#63b8ff" stroke="#63b8ff" points="373.47,-59.85 383.94,-61.49 376.78,-53.68 373.47,-59.85"/>
</a>
</g>
</g>
<!-- Node8 -->
<g id="Node000008" class="node">
<title>Node8</title>
<g id="a_Node000008"><a xlink:href="m__variables__conversion_8fpp_8f90.html#ad5e4b4372f2626845645a4e03a83df65" target="_top" xlink:title="The computation of parameters, the allocation of memory, the association of pointers and/or the execu...">
<polygon fill="white" stroke="#666666" points="308,-115.5 189,-115.5 189,-85.5 308,-85.5 308,-115.5"/>
<text text-anchor="start" x="197" y="-103.5" font-family="Helvetica,sans-Serif" font-size="10.00">s_initialize_variables</text>
<text text-anchor="middle" x="248.5" y="-92.5" font-family="Helvetica,sans-Serif" font-size="10.00">_conversion_module</text>
</a>
</g>
</g>
<!-- Node1&#45;&gt;Node8 -->
<g id="edge8_Node000001_Node000008" class="edge">
<title>Node1&#45;&gt;Node8</title>
<g id="a_edge8_Node000001_Node000008"><a xlink:title=" ">
<path fill="none" stroke="#63b8ff" d="M340.35,-86.96C329.61,-88.56 318.62,-90.2 308.16,-91.76"/>
<polygon fill="#63b8ff" stroke="#63b8ff" points="341.17,-90.37 350.55,-85.44 340.14,-83.45 341.17,-90.37"/>
</a>
</g>
</g>
<!-- Node4 -->
<g id="Node000004" class="node">
<title>Node4</title>
<g id="a_Node000004"><a xlink:href="m__data__output_8fpp_8f90.html#a979b8a2cf4215a8122fc461c0512dbba" target="_top" xlink:title=" ">
<polygon fill="white" stroke="#666666" points="134,-67.5 12,-67.5 12,-37.5 134,-37.5 134,-67.5"/>
<text text-anchor="start" x="20" y="-55.5" font-family="Helvetica,sans-Serif" font-size="10.00">__m_data_output_fpp</text>
<text text-anchor="middle" x="73" y="-44.5" font-family="Helvetica,sans-Serif" font-size="10.00">_f90__</text>
</a>
</g>
</g>
<!-- Node3&#45;&gt;Node4 -->
<g id="edge3_Node000003_Node000004" class="edge">
<title>Node3&#45;&gt;Node4</title>
<g id="a_edge3_Node000003_Node000004"><a xlink:title=" ">
<path fill="none" stroke="#63b8ff" d="M171.9,-52.5C159.31,-52.5 146.4,-52.5 134.26,-52.5"/>
<polygon fill="#63b8ff" stroke="#63b8ff" points="171.91,-56 181.91,-52.5 171.91,-49 171.91,-56"/>
</a>
</g>
</g>
<!-- Node5 -->
<g id="Node000005" class="node">
<title>Node5</title>
<g id="a_Node000005"><a xlink:href="p__main_8fpp_8f90.html#aeec10ee8e2940c953967da3e374e1579" target="_top" xlink:title="Quasi&#45;conservative, shock&#45; and interface&#45; capturing finite&#45;volume scheme for the multicomponent Navie...">
<polygon fill="white" stroke="#666666" points="99.5,-105 46.5,-105 46.5,-86 99.5,-86 99.5,-105"/>
<text text-anchor="middle" x="73" y="-93" font-family="Helvetica,sans-Serif" font-size="10.00">p_main</text>
</a>
</g>
</g>
<!-- Node3&#45;&gt;Node5 -->
<g id="edge4_Node000003_Node000005" class="edge">
<title>Node3&#45;&gt;Node5</title>
<g id="a_edge4_Node000003_Node000005"><a xlink:title=" ">
<path fill="none" stroke="#63b8ff" d="M176.86,-70.01C149.52,-76.78 119.96,-84.11 99.57,-89.16"/>
<polygon fill="#63b8ff" stroke="#63b8ff" points="177.95,-73.34 186.82,-67.54 176.27,-66.55 177.95,-73.34"/>
</a>
</g>
</g>
<!-- Node6&#45;&gt;Node5 -->
<g id="edge7_Node000006_Node000005" class="edge">
<title>Node6&#45;&gt;Node5</title>
<g id="a_edge7_Node000006_Node000005"><a xlink:title=" ">
<path fill="none" stroke="#63b8ff" d="M191.29,-23.07C188.04,-24.68 184.91,-26.49 182,-28.5 160.06,-43.66 168.12,-61.61 146,-76.5 132.27,-85.74 114.27,-90.49 99.71,-92.93"/>
<polygon fill="#63b8ff" stroke="#63b8ff" points="192.91,-26.19 200.7,-19.01 190.13,-19.76 192.91,-26.19"/>
</a>
</g>
</g>
<!-- Node7 -->
<g id="Node000007" class="node">
<title>Node7</title>
<g id="a_Node000007"><a xlink:href="m__rhs_8fpp_8f90.html#a87616394067f1273cd06c4d299d10add" target="_top" xlink:title=" ">
<polygon fill="white" stroke="#666666" points="128,-19 18,-19 18,0 128,0 128,-19"/>
<text text-anchor="middle" x="73" y="-7" font-family="Helvetica,sans-Serif" font-size="10.00">__m_rhs_fpp_f90__</text>
</a>
</g>
</g>
<!-- Node6&#45;&gt;Node7 -->
<g id="edge6_Node000006_Node000007" class="edge">
<title>Node6&#45;&gt;Node7</title>
<g id="a_edge6_Node000006_Node000007"><a xlink:title=" ">
<path fill="none" stroke="#63b8ff" d="M172.64,-9.5C157.68,-9.5 142.24,-9.5 128.15,-9.5"/>
<polygon fill="#63b8ff" stroke="#63b8ff" points="172.9,-13 182.9,-9.5 172.89,-6 172.9,-13"/>
</a>
</g>
</g>
<!-- Node8&#45;&gt;Node2 -->
<g id="edge9_Node000008_Node000002" class="edge">
<title>Node8&#45;&gt;Node2</title>
<g id="a_edge9_Node000008_Node000002"><a xlink:title=" ">
<path fill="none" stroke="#63b8ff" d="M178.9,-116.32C165.84,-119.33 152.2,-122.47 139.24,-125.46"/>
<polygon fill="#63b8ff" stroke="#63b8ff" points="179.8,-119.7 188.76,-114.04 178.23,-112.88 179.8,-119.7"/>
</a>
</g>
</g>
<!-- Node8&#45;&gt;Node5 -->
<g id="edge10_Node000008_Node000005" class="edge">
<title>Node8&#45;&gt;Node5</title>
<g id="a_edge10_Node000008_Node000005"><a xlink:title=" ">
<path fill="none" stroke="#63b8ff" d="M178.66,-98.52C150.89,-97.72 120.55,-96.84 99.72,-96.24"/>
<polygon fill="#63b8ff" stroke="#63b8ff" points="178.66,-102.02 188.76,-98.81 178.87,-95.02 178.66,-102.02"/>
</a>
</g>
</g>
</g>
</svg>
