<?xml version="1.0" encoding="UTF-8" standalone="no"?>
<!DOCTYPE svg PUBLIC "-//W3C//DTD SVG 1.1//EN"
 "http://www.w3.org/Graphics/SVG/1.1/DTD/svg11.dtd">
<!-- Generated by graphviz version 2.43.0 (0)
 -->
<!-- Title: __m_weno_fpp_f90__ Pages: 1 -->
<svg width="507pt" height="140pt"
 viewBox="0.00 0.00 507.00 140.00" xmlns="http://www.w3.org/2000/svg" xmlns:xlink="http://www.w3.org/1999/xlink">
<g id="graph0" class="graph" transform="scale(1 1) rotate(0) translate(4 136)">
<title>__m_weno_fpp_f90__</title>
<!-- Node1 -->
<g id="Node000001" class="node">
<title>Node1</title>
<g id="a_Node000001"><a xlink:title=" ">
<polygon fill="#999999" stroke="#666666" points="121,-76 0,-76 0,-57 121,-57 121,-76"/>
<text text-anchor="middle" x="60.5" y="-64" font-family="Helvetica,sans-Serif" font-size="10.00">__m_weno_fpp_f90__</text>
</a>
</g>
</g>
<!-- Node2 -->
<g id="Node000002" class="node">
<title>Node2</title>
<g id="a_Node000002"><a xlink:href="m__weno_8fpp_8f90.html#a58db4ca1aba01851c9aca95c2b57be37" target="_top" xlink:title="Module deallocation and/or disassociation procedures.">
<polygon fill="white" stroke="#666666" points="296.5,-132 160.5,-132 160.5,-113 296.5,-113 296.5,-132"/>
<text text-anchor="middle" x="228.5" y="-120" font-family="Helvetica,sans-Serif" font-size="10.00">s_finalize_weno_module</text>
</a>
</g>
</g>
<!-- Node1&#45;&gt;Node2 -->
<g id="edge1_Node000001_Node000002" class="edge">
<title>Node1&#45;&gt;Node2</title>
<g id="a_edge1_Node000001_Node000002"><a xlink:title=" ">
<path fill="none" stroke="#63b8ff" d="M83.21,-76.07C102.37,-84.29 131.21,-96.11 157,-104.5 163.15,-106.5 169.66,-108.42 176.14,-110.21"/>
<polygon fill="#63b8ff" stroke="#63b8ff" points="175.67,-113.71 186.24,-112.91 177.48,-106.95 175.67,-113.71"/>
</a>
</g>
</g>
<!-- Node3 -->
<g id="Node000003" class="node">
<title>Node3</title>
<g id="a_Node000003"><a xlink:href="m__weno_8fpp_8f90.html#abc4801fbf3acfd4db40d1ad294aa3e46" target="_top" xlink:title="The computation of parameters, the allocation of memory, the association of pointers and/or the execu...">
<polygon fill="white" stroke="#666666" points="468,-57 367,-57 367,-38 468,-38 468,-57"/>
<text text-anchor="middle" x="417.5" y="-45" font-family="Helvetica,sans-Serif" font-size="10.00">s_initialize_weno</text>
</a>
</g>
</g>
<!-- Node1&#45;&gt;Node3 -->
<g id="edge2_Node000001_Node000003" class="edge">
<title>Node1&#45;&gt;Node3</title>
<g id="a_edge2_Node000001_Node000003"><a xlink:title=" ">
<path fill="none" stroke="#63b8ff" d="M121.32,-63.3C186.78,-59.79 291.11,-54.21 356.6,-50.71"/>
<polygon fill="#63b8ff" stroke="#63b8ff" points="356.97,-54.19 366.77,-50.16 356.59,-47.2 356.97,-54.19"/>
</a>
</g>
</g>
<!-- Node4 -->
<g id="Node000004" class="node">
<title>Node4</title>
<g id="a_Node000004"><a xlink:href="m__weno_8fpp_8f90.html#a136d3d4063cbcedaa960e3a34cf75b5c" target="_top" xlink:title="The computation of parameters, the allocation of memory, the association of pointers and/or the execu...">
<polygon fill="white" stroke="#666666" points="300,-95 157,-95 157,-76 300,-76 300,-95"/>
<text text-anchor="middle" x="228.5" y="-83" font-family="Helvetica,sans-Serif" font-size="10.00">s_initialize_weno_module</text>
</a>
</g>
</g>
<!-- Node1&#45;&gt;Node4 -->
<g id="edge3_Node000001_Node000004" class="edge">
<title>Node1&#45;&gt;Node4</title>
<g id="a_edge3_Node000001_Node000004"><a xlink:title=" ">
<path fill="none" stroke="#63b8ff" d="M121.43,-73.36C129.71,-74.31 138.32,-75.29 146.89,-76.27"/>
<polygon fill="#63b8ff" stroke="#63b8ff" points="146.59,-79.76 156.92,-77.42 147.38,-72.81 146.59,-79.76"/>
</a>
</g>
</g>
<!-- Node6 -->
<g id="Node000006" class="node">
<title>Node6</title>
<g id="a_Node000006"><a xlink:href="m__weno_8fpp_8f90.html#a8495f5eb3dca2bbde1088b568cf13288" target="_top" xlink:title=" ">
<polygon fill="white" stroke="#666666" points="255,-19 202,-19 202,0 255,0 255,-19"/>
<text text-anchor="middle" x="228.5" y="-7" font-family="Helvetica,sans-Serif" font-size="10.00">s_weno</text>
</a>
</g>
</g>
<!-- Node1&#45;&gt;Node6 -->
<g id="edge5_Node000001_Node000006" class="edge">
<title>Node1&#45;&gt;Node6</title>
<g id="a_edge5_Node000001_Node000006"><a xlink:title=" ">
<path fill="none" stroke="#63b8ff" d="M89.07,-56.94C108.14,-50.33 134.1,-41.35 157,-33.5 168.45,-29.57 180.94,-25.31 192.2,-21.48"/>
<polygon fill="#63b8ff" stroke="#63b8ff" points="193.37,-24.78 201.71,-18.25 191.11,-18.15 193.37,-24.78"/>
</a>
</g>
</g>
<!-- Node5 -->
<g id="Node000005" class="node">
<title>Node5</title>
<g id="a_Node000005"><a xlink:href="m__weno_8fpp_8f90.html#ab901fc61bffbbe39af35d3ccb92bfa75" target="_top" xlink:title="The purpose of this subroutine is to compute the grid dependent coefficients of the WENO polynomials,...">
<polygon fill="white" stroke="#666666" points="499,-95 336,-95 336,-76 499,-76 499,-95"/>
<text text-anchor="middle" x="417.5" y="-83" font-family="Helvetica,sans-Serif" font-size="10.00">s_compute_weno_coefficients</text>
</a>
</g>
</g>
<!-- Node4&#45;&gt;Node5 -->
<g id="edge4_Node000004_Node000005" class="edge">
<title>Node4&#45;&gt;Node5</title>
<g id="a_edge4_Node000004_Node000005"><a xlink:title=" ">
<path fill="none" stroke="#63b8ff" d="M300.2,-85.5C308.6,-85.5 317.26,-85.5 325.89,-85.5"/>
<polygon fill="#63b8ff" stroke="#63b8ff" points="325.98,-89 335.98,-85.5 325.98,-82 325.98,-89"/>
</a>
</g>
</g>
<!-- Node6&#45;&gt;Node3 -->
<g id="edge6_Node000006_Node000003" class="edge">
<title>Node6&#45;&gt;Node3</title>
<g id="a_edge6_Node000006_Node000003"><a xlink:title=" ">
<path fill="none" stroke="#63b8ff" d="M255.11,-14.7C281.88,-20.14 324.75,-28.85 359.58,-35.93"/>
<polygon fill="#63b8ff" stroke="#63b8ff" points="359.14,-39.41 369.63,-37.98 360.53,-32.56 359.14,-39.41"/>
</a>
</g>
</g>
<!-- Node7 -->
<g id="Node000007" class="node">
<title>Node7</title>
<g id="a_Node000007"><a xlink:href="m__weno_8fpp_8f90.html#ac6752752f34719dae452d0fe42e21682" target="_top" xlink:title="The goal of this subroutine is to ensure that the WENO reconstruction is monotonic....">
<polygon fill="white" stroke="#666666" points="487.5,-19 347.5,-19 347.5,0 487.5,0 487.5,-19"/>
<text text-anchor="middle" x="417.5" y="-7" font-family="Helvetica,sans-Serif" font-size="10.00">s_preserve_monotonicity</text>
</a>
</g>
</g>
<!-- Node6&#45;&gt;Node7 -->
<g id="edge7_Node000006_Node000007" class="edge">
<title>Node6&#45;&gt;Node7</title>
<g id="a_edge7_Node000006_Node000007"><a xlink:title=" ">
<path fill="none" stroke="#63b8ff" d="M255.11,-9.5C276.32,-9.5 307.63,-9.5 337.05,-9.5"/>
<polygon fill="#63b8ff" stroke="#63b8ff" points="337.35,-13 347.35,-9.5 337.35,-6 337.35,-13"/>
</a>
</g>
</g>
</g>
</svg>
