<?xml version="1.0" encoding="UTF-8" standalone="no"?>
<!DOCTYPE svg PUBLIC "-//W3C//DTD SVG 1.1//EN"
 "http://www.w3.org/Graphics/SVG/1.1/DTD/svg11.dtd">
<!-- Generated by graphviz version 2.43.0 (0)
 -->
<!-- Title: s_compute_weno_coefficients Pages: 1 -->
<svg width="605pt" height="76pt"
 viewBox="0.00 0.00 605.00 75.50" xmlns="http://www.w3.org/2000/svg" xmlns:xlink="http://www.w3.org/1999/xlink">
<g id="graph0" class="graph" transform="scale(1 1) rotate(0) translate(4 71.5)">
<title>s_compute_weno_coefficients</title>
<!-- Node1 -->
<g id="Node000001" class="node">
<title>Node1</title>
<g id="a_Node000001"><a xlink:title="The purpose of this subroutine is to compute the grid dependent coefficients of the WENO polynomials,...">
<polygon fill="#999999" stroke="#666666" points="597,-45.5 434,-45.5 434,-26.5 597,-26.5 597,-45.5"/>
<text text-anchor="middle" x="515.5" y="-33.5" font-family="Helvetica,sans-Serif" font-size="10.00">s_compute_weno_coefficients</text>
</a>
</g>
</g>
<!-- Node2 -->
<g id="Node000002" class="node">
<title>Node2</title>
<g id="a_Node000002"><a xlink:href="m__weno_8fpp_8f90.html#a136d3d4063cbcedaa960e3a34cf75b5c" target="_top" xlink:title="The computation of parameters, the allocation of memory, the association of pointers and/or the execu...">
<polygon fill="white" stroke="#666666" points="398,-45.5 255,-45.5 255,-26.5 398,-26.5 398,-45.5"/>
<text text-anchor="middle" x="326.5" y="-33.5" font-family="Helvetica,sans-Serif" font-size="10.00">s_initialize_weno_module</text>
</a>
</g>
</g>
<!-- Node1&#45;&gt;Node2 -->
<g id="edge1_Node000001_Node000002" class="edge">
<title>Node1&#45;&gt;Node2</title>
<g id="a_edge1_Node000001_Node000002"><a xlink:title=" ">
<path fill="none" stroke="#63b8ff" d="M423.78,-36C415.19,-36 406.56,-36 398.19,-36"/>
<polygon fill="#63b8ff" stroke="#63b8ff" points="423.84,-39.5 433.84,-36 423.84,-32.5 423.84,-39.5"/>
</a>
</g>
</g>
<!-- Node3 -->
<g id="Node000003" class="node">
<title>Node3</title>
<g id="a_Node000003"><a xlink:href="m__weno_8fpp_8f90.html#a8b89d4ee512abb6265f7209e3b8fadce" target="_top" xlink:title=" ">
<polygon fill="white" stroke="#666666" points="214.5,-67.5 93.5,-67.5 93.5,-48.5 214.5,-48.5 214.5,-67.5"/>
<text text-anchor="middle" x="154" y="-55.5" font-family="Helvetica,sans-Serif" font-size="10.00">__m_weno_fpp_f90__</text>
</a>
</g>
</g>
<!-- Node2&#45;&gt;Node3 -->
<g id="edge2_Node000002_Node000003" class="edge">
<title>Node2&#45;&gt;Node3</title>
<g id="a_edge2_Node000002_Node000003"><a xlink:title=" ">
<path fill="none" stroke="#63b8ff" d="M244.59,-46.44C234.45,-47.75 224.23,-49.07 214.5,-50.32"/>
<polygon fill="#63b8ff" stroke="#63b8ff" points="245.2,-49.89 254.67,-45.14 244.31,-42.95 245.2,-49.89"/>
</a>
</g>
</g>
<!-- Node4 -->
<g id="Node000004" class="node">
<title>Node4</title>
<g id="a_Node000004"><a xlink:href="namespacem__start__up.html#a3745654d013067a8c4fd89f50598674c" target="_top" xlink:title=" ">
<polygon fill="white" stroke="#666666" points="219,-30 89,-30 89,0 219,0 219,-30"/>
<text text-anchor="start" x="97" y="-18" font-family="Helvetica,sans-Serif" font-size="10.00">m_start_up::s_initialize</text>
<text text-anchor="middle" x="154" y="-7" font-family="Helvetica,sans-Serif" font-size="10.00">_modules</text>
</a>
</g>
</g>
<!-- Node2&#45;&gt;Node4 -->
<g id="edge3_Node000002_Node000004" class="edge">
<title>Node2&#45;&gt;Node4</title>
<g id="a_edge3_Node000002_Node000004"><a xlink:title=" ">
<path fill="none" stroke="#63b8ff" d="M244.65,-26.04C236.06,-24.98 227.42,-23.92 219.07,-22.89"/>
<polygon fill="#63b8ff" stroke="#63b8ff" points="244.32,-29.53 254.67,-27.28 245.18,-22.58 244.32,-29.53"/>
</a>
</g>
</g>
<!-- Node5 -->
<g id="Node000005" class="node">
<title>Node5</title>
<g id="a_Node000005"><a xlink:href="p__main_8fpp_8f90.html#aeec10ee8e2940c953967da3e374e1579" target="_top" xlink:title="Quasi&#45;conservative, shock&#45; and interface&#45; capturing finite&#45;volume scheme for the multicomponent Navie...">
<polygon fill="white" stroke="#666666" points="53,-24.5 0,-24.5 0,-5.5 53,-5.5 53,-24.5"/>
<text text-anchor="middle" x="26.5" y="-12.5" font-family="Helvetica,sans-Serif" font-size="10.00">p_main</text>
</a>
</g>
</g>
<!-- Node4&#45;&gt;Node5 -->
<g id="edge4_Node000004_Node000005" class="edge">
<title>Node4&#45;&gt;Node5</title>
<g id="a_edge4_Node000004_Node000005"><a xlink:title=" ">
<path fill="none" stroke="#63b8ff" d="M78.74,-15C69.58,-15 60.76,-15 53.09,-15"/>
<polygon fill="#63b8ff" stroke="#63b8ff" points="78.78,-18.5 88.78,-15 78.78,-11.5 78.78,-18.5"/>
</a>
</g>
</g>
</g>
</svg>
