<?xml version="1.0" encoding="UTF-8" standalone="no"?>
<!DOCTYPE svg PUBLIC "-//W3C//DTD SVG 1.1//EN"
 "http://www.w3.org/Graphics/SVG/1.1/DTD/svg11.dtd">
<!-- Generated by graphviz version 2.43.0 (0)
 -->
<!-- Title: m_mpi_proxy::s_mpi_allreduce_min Pages: 1 -->
<svg width="552pt" height="134pt"
 viewBox="0.00 0.00 552.00 134.00" xmlns="http://www.w3.org/2000/svg" xmlns:xlink="http://www.w3.org/1999/xlink">
<g id="graph0" class="graph" transform="scale(1 1) rotate(0) translate(4 130)">
<title>m_mpi_proxy::s_mpi_allreduce_min</title>
<!-- Node1 -->
<g id="node1" class="node">
<title>Node1</title>
<g id="a_node1"><a xlink:title="The following subroutine takes the input local variable from all processors and reduces to the minimu...">
<polygon fill="#999999" stroke="#666666" points="544,-78 426,-78 426,-48 544,-48 544,-78"/>
<text text-anchor="start" x="434" y="-66" font-family="Helvetica,sans-Serif" font-size="10.00">m_mpi_proxy::s_mpi</text>
<text text-anchor="middle" x="485" y="-55" font-family="Helvetica,sans-Serif" font-size="10.00">_allreduce_min</text>
</a>
</g>
</g>
<!-- Node2 -->
<g id="node2" class="node">
<title>Node2</title>
<g id="a_node2"><a xlink:href="namespacem__derived__variables.html#a1a849dc545128f9a6de155bed61035ff" target="_top" xlink:title="This subroutine is used together with the volume fraction model and when called upon,...">
<polygon fill="white" stroke="#666666" points="390,-126 244,-126 244,-96 390,-96 390,-126"/>
<text text-anchor="start" x="252" y="-114" font-family="Helvetica,sans-Serif" font-size="10.00">m_derived_variables</text>
<text text-anchor="middle" x="317" y="-103" font-family="Helvetica,sans-Serif" font-size="10.00">::s_derive_center_of_mass</text>
</a>
</g>
</g>
<!-- Node1&#45;&gt;Node2 -->
<g id="edge1" class="edge">
<title>Node1&#45;&gt;Node2</title>
<path fill="none" stroke="#63b8ff" d="M422,-80.93C404.84,-85.89 386.4,-91.22 369.88,-96"/>
<polygon fill="#63b8ff" stroke="#63b8ff" points="423.3,-84.2 431.93,-78.06 421.35,-77.47 423.3,-84.2"/>
</g>
<!-- Node5 -->
<g id="node5" class="node">
<title>Node5</title>
<g id="a_node5"><a xlink:href="namespacem__derived__variables.html#a976bfd341efaba6840dc23d6abc4f29e" target="_top" xlink:title="This subroutine is used together with the volume fraction model and when called upon,...">
<polygon fill="white" stroke="#666666" points="376.5,-78 257.5,-78 257.5,-48 376.5,-48 376.5,-78"/>
<text text-anchor="start" x="265.5" y="-66" font-family="Helvetica,sans-Serif" font-size="10.00">m_derived_variables</text>
<text text-anchor="middle" x="317" y="-55" font-family="Helvetica,sans-Serif" font-size="10.00">::s_derive_centerline</text>
</a>
</g>
</g>
<!-- Node1&#45;&gt;Node5 -->
<g id="edge4" class="edge">
<title>Node1&#45;&gt;Node5</title>
<path fill="none" stroke="#63b8ff" d="M415.67,-63C402.69,-63 389.23,-63 376.59,-63"/>
<polygon fill="#63b8ff" stroke="#63b8ff" points="415.94,-66.5 425.94,-63 415.94,-59.5 415.94,-66.5"/>
</g>
<!-- Node6 -->
<g id="node6" class="node">
<title>Node6</title>
<g id="a_node6"><a xlink:href="namespacem__derived__variables.html#abdf1859a7ad678848feb69bbe89a2f95" target="_top" xlink:title="This subroutine is used together with the volume fraction model and when called upon,...">
<polygon fill="white" stroke="#666666" points="382.5,-30 251.5,-30 251.5,0 382.5,0 382.5,-30"/>
<text text-anchor="start" x="259.5" y="-18" font-family="Helvetica,sans-Serif" font-size="10.00">m_derived_variables</text>
<text text-anchor="middle" x="317" y="-7" font-family="Helvetica,sans-Serif" font-size="10.00">::s_derive_fluid_bounds</text>
</a>
</g>
</g>
<!-- Node1&#45;&gt;Node6 -->
<g id="edge6" class="edge">
<title>Node1&#45;&gt;Node6</title>
<path fill="none" stroke="#63b8ff" d="M422,-45.07C404.84,-40.11 386.4,-34.78 369.88,-30"/>
<polygon fill="#63b8ff" stroke="#63b8ff" points="421.35,-48.53 431.93,-47.94 423.3,-41.8 421.35,-48.53"/>
</g>
<!-- Node3 -->
<g id="node3" class="node">
<title>Node3</title>
<g id="a_node3"><a xlink:href="namespacem__derived__variables.html#a516a9808b3446b7b45029f6451d02b3f" target="_top" xlink:title="Writes coherent body information, communication files, and probes.">
<polygon fill="white" stroke="#666666" points="208,-83.5 89,-83.5 89,-42.5 208,-42.5 208,-83.5"/>
<text text-anchor="start" x="97" y="-71.5" font-family="Helvetica,sans-Serif" font-size="10.00">m_derived_variables</text>
<text text-anchor="start" x="97" y="-60.5" font-family="Helvetica,sans-Serif" font-size="10.00">::s_compute_derived</text>
<text text-anchor="middle" x="148.5" y="-49.5" font-family="Helvetica,sans-Serif" font-size="10.00">_variables</text>
</a>
</g>
</g>
<!-- Node2&#45;&gt;Node3 -->
<g id="edge2" class="edge">
<title>Node2&#45;&gt;Node3</title>
<path fill="none" stroke="#63b8ff" d="M254.08,-93.15C239.07,-88.82 223.06,-84.21 208.21,-79.92"/>
<polygon fill="#63b8ff" stroke="#63b8ff" points="253.2,-96.54 263.78,-95.94 255.14,-89.81 253.2,-96.54"/>
</g>
<!-- Node4 -->
<g id="node4" class="node">
<title>Node4</title>
<g id="a_node4"><a xlink:href="p__main_8f90.html#aeec10ee8e2940c953967da3e374e1579" target="_top" xlink:title="Quasi&#45;conservative, shock&#45; and interface&#45; capturing finite&#45;volume scheme for the multicomponent Navie...">
<polygon fill="white" stroke="#666666" points="53,-72.5 0,-72.5 0,-53.5 53,-53.5 53,-72.5"/>
<text text-anchor="middle" x="26.5" y="-60.5" font-family="Helvetica,sans-Serif" font-size="10.00">p_main</text>
</a>
</g>
</g>
<!-- Node3&#45;&gt;Node4 -->
<g id="edge3" class="edge">
<title>Node3&#45;&gt;Node4</title>
<path fill="none" stroke="#63b8ff" d="M78.88,-63C69.7,-63 60.8,-63 53.05,-63"/>
<polygon fill="#63b8ff" stroke="#63b8ff" points="78.91,-66.5 88.91,-63 78.91,-59.5 78.91,-66.5"/>
</g>
<!-- Node5&#45;&gt;Node3 -->
<g id="edge5" class="edge">
<title>Node5&#45;&gt;Node3</title>
<path fill="none" stroke="#63b8ff" d="M247.08,-63C234.17,-63 220.79,-63 208.23,-63"/>
<polygon fill="#63b8ff" stroke="#63b8ff" points="247.3,-66.5 257.3,-63 247.3,-59.5 247.3,-66.5"/>
</g>
<!-- Node6&#45;&gt;Node3 -->
<g id="edge7" class="edge">
<title>Node6&#45;&gt;Node3</title>
<path fill="none" stroke="#63b8ff" d="M254.08,-32.85C239.07,-37.18 223.06,-41.79 208.21,-46.08"/>
<polygon fill="#63b8ff" stroke="#63b8ff" points="255.14,-36.19 263.78,-30.06 253.2,-29.46 255.14,-36.19"/>
</g>
</g>
</svg>
