<?xml version="1.0" encoding="UTF-8" standalone="no"?>
<!DOCTYPE svg PUBLIC "-//W3C//DTD SVG 1.1//EN"
 "http://www.w3.org/Graphics/SVG/1.1/DTD/svg11.dtd">
<!-- Generated by graphviz version 2.43.0 (0)
 -->
<!-- Title: m_cbc::s_cbc Pages: 1 -->
<svg width="472pt" height="666pt"
 viewBox="0.00 0.00 472.00 665.50" xmlns="http://www.w3.org/2000/svg" xmlns:xlink="http://www.w3.org/1999/xlink">
<g id="graph0" class="graph" transform="scale(1 1) rotate(0) translate(4 661.5)">
<title>m_cbc::s_cbc</title>
<!-- Node1 -->
<g id="node1" class="node">
<title>Node1</title>
<g id="a_node1"><a xlink:title="The following is the implementation of the CBC based on the work of Thompson (1987,...">
<polygon fill="#bfbfbf" stroke="black" points="0,-313.5 0,-332.5 81,-332.5 81,-313.5 0,-313.5"/>
<text text-anchor="middle" x="40.5" y="-320.5" font-family="Helvetica,sans-Serif" font-size="10.00">m_cbc::s_cbc</text>
</a>
</g>
</g>
<!-- Node2 -->
<g id="node2" class="node">
<title>Node2</title>
<g id="a_node2"><a xlink:href="namespacem__cbc.html#a76e19dea2a654c9a7f311baa16ef118c" target="_top" xlink:title=" ">
<polygon fill="none" stroke="black" points="132.5,-627 132.5,-657 277.5,-657 277.5,-627 132.5,-627"/>
<text text-anchor="start" x="140.5" y="-645" font-family="Helvetica,sans-Serif" font-size="10.00">m_cbc::s_associate</text>
<text text-anchor="middle" x="205" y="-634" font-family="Helvetica,sans-Serif" font-size="10.00">_cbc_coefficients_pointers</text>
</a>
</g>
</g>
<!-- Node1&#45;&gt;Node2 -->
<g id="edge1" class="edge">
<title>Node1&#45;&gt;Node2</title>
<path fill="none" stroke="midnightblue" d="M42.68,-332.75C48.47,-378.97 75.25,-575.46 117,-618 119.06,-620.1 121.28,-622.01 123.63,-623.77"/>
<polygon fill="midnightblue" stroke="midnightblue" points="121.77,-626.73 132.08,-629.13 125.51,-620.82 121.77,-626.73"/>
</g>
<!-- Node3 -->
<g id="node3" class="node">
<title>Node3</title>
<g id="a_node3"><a xlink:href="namespacem__cbc.html#a79259e746d1adcc5d34ce388d7acb450" target="_top" xlink:title="L variables for the constant pressure subsonic outflow CBC see pg. 455 Thompson (1990)....">
<polygon fill="none" stroke="black" points="124.5,-578 124.5,-608 285.5,-608 285.5,-578 124.5,-578"/>
<text text-anchor="start" x="132.5" y="-596" font-family="Helvetica,sans-Serif" font-size="10.00">m_cbc::s_compute_constant</text>
<text text-anchor="middle" x="205" y="-585" font-family="Helvetica,sans-Serif" font-size="10.00">_pressure_subsonic_outflow_l</text>
</a>
</g>
</g>
<!-- Node1&#45;&gt;Node3 -->
<g id="edge2" class="edge">
<title>Node1&#45;&gt;Node3</title>
<path fill="none" stroke="midnightblue" d="M41.38,-332.66C41.47,-369.26 46.84,-500.82 117,-569 118.09,-570.06 119.22,-571.07 120.39,-572.04"/>
<polygon fill="midnightblue" stroke="midnightblue" points="118.4,-574.92 128.59,-577.82 122.43,-569.2 118.4,-574.92"/>
</g>
<!-- Node4 -->
<g id="node4" class="node">
<title>Node4</title>
<g id="a_node4"><a xlink:href="namespacem__cbc.html#a1afe5efdaf01af0decaa06d4fc0fcf03" target="_top" xlink:title="The L variables for the force&#45;free subsonic outflow CBC, see pg. 454 of Thompson (1990)....">
<polygon fill="none" stroke="black" points="135.5,-529 135.5,-559 274.5,-559 274.5,-529 135.5,-529"/>
<text text-anchor="start" x="143.5" y="-547" font-family="Helvetica,sans-Serif" font-size="10.00">m_cbc::s_compute_force</text>
<text text-anchor="middle" x="205" y="-536" font-family="Helvetica,sans-Serif" font-size="10.00">_free_subsonic_outflow_l</text>
</a>
</g>
</g>
<!-- Node1&#45;&gt;Node4 -->
<g id="edge3" class="edge">
<title>Node1&#45;&gt;Node4</title>
<path fill="none" stroke="midnightblue" d="M42.24,-332.91C45.2,-365.05 58.96,-467.32 117,-520 119.84,-522.57 122.92,-524.87 126.19,-526.93"/>
<polygon fill="midnightblue" stroke="midnightblue" points="124.73,-530.12 135.19,-531.82 128.08,-523.97 124.73,-530.12"/>
</g>
<!-- Node5 -->
<g id="node5" class="node">
<title>Node5</title>
<g id="a_node5"><a xlink:href="namespacem__cbc.html#a087b846555b77387ef672a360ab62643" target="_top" xlink:title="The L variables for the nonreflecting subsonic buffer CBC see pg. 13 of Thompson (1987)....">
<polygon fill="none" stroke="black" points="117,-480 117,-510 293,-510 293,-480 117,-480"/>
<text text-anchor="start" x="125" y="-498" font-family="Helvetica,sans-Serif" font-size="10.00">m_cbc::s_compute_nonreflecting</text>
<text text-anchor="middle" x="205" y="-487" font-family="Helvetica,sans-Serif" font-size="10.00">_subsonic_buffer_l</text>
</a>
</g>
</g>
<!-- Node1&#45;&gt;Node5 -->
<g id="edge4" class="edge">
<title>Node1&#45;&gt;Node5</title>
<path fill="none" stroke="midnightblue" d="M43.56,-332.66C49.72,-359.08 70.5,-433.08 117,-471 118.59,-472.3 120.25,-473.53 121.97,-474.69"/>
<polygon fill="midnightblue" stroke="midnightblue" points="120.54,-477.92 130.94,-479.97 124.09,-471.88 120.54,-477.92"/>
</g>
<!-- Node6 -->
<g id="node6" class="node">
<title>Node6</title>
<g id="a_node6"><a xlink:href="namespacem__cbc.html#af1ca0a2d1b5dda3ea090b2ada1a669f9" target="_top" xlink:title="The L variables for the nonreflecting subsonic inflow CBC see pg. 455, Thompson (1990)....">
<polygon fill="none" stroke="black" points="117,-431 117,-461 293,-461 293,-431 117,-431"/>
<text text-anchor="start" x="125" y="-449" font-family="Helvetica,sans-Serif" font-size="10.00">m_cbc::s_compute_nonreflecting</text>
<text text-anchor="middle" x="205" y="-438" font-family="Helvetica,sans-Serif" font-size="10.00">_subsonic_inflow_l</text>
</a>
</g>
</g>
<!-- Node1&#45;&gt;Node6 -->
<g id="edge5" class="edge">
<title>Node1&#45;&gt;Node6</title>
<path fill="none" stroke="midnightblue" d="M46.06,-332.55C56.03,-352.39 81.72,-398.16 117,-422 119.29,-423.55 121.69,-425 124.15,-426.36"/>
<polygon fill="midnightblue" stroke="midnightblue" points="122.84,-429.61 133.36,-430.88 125.92,-423.33 122.84,-429.61"/>
</g>
<!-- Node7 -->
<g id="node7" class="node">
<title>Node7</title>
<g id="a_node7"><a xlink:href="namespacem__cbc.html#a7d91ecb6fff2a1937ec6981e103cd06b" target="_top" xlink:title="The L variables for the nonreflecting subsonic outflow CBC see pg. 454 of Thompson (1990)....">
<polygon fill="none" stroke="black" points="117,-382 117,-412 293,-412 293,-382 117,-382"/>
<text text-anchor="start" x="125" y="-400" font-family="Helvetica,sans-Serif" font-size="10.00">m_cbc::s_compute_nonreflecting</text>
<text text-anchor="middle" x="205" y="-389" font-family="Helvetica,sans-Serif" font-size="10.00">_subsonic_outflow_l</text>
</a>
</g>
</g>
<!-- Node1&#45;&gt;Node7 -->
<g id="edge6" class="edge">
<title>Node1&#45;&gt;Node7</title>
<path fill="none" stroke="midnightblue" d="M53.61,-332.78C67.96,-343.95 92.96,-362.06 117,-373 121.4,-375 126.01,-376.87 130.71,-378.61"/>
<polygon fill="midnightblue" stroke="midnightblue" points="129.84,-382.02 140.44,-382 132.14,-375.41 129.84,-382.02"/>
</g>
<!-- Node8 -->
<g id="node8" class="node">
<title>Node8</title>
<g id="a_node8"><a xlink:href="namespacem__cbc.html#af366acb35426d188d18fb261ed0fecc4" target="_top" xlink:title="The L variables for the slip wall CBC, see pg. 451 of Thompson (1990). At the slip wall (frictionless...">
<polygon fill="none" stroke="black" points="140,-333 140,-363 270,-363 270,-333 140,-333"/>
<text text-anchor="start" x="148" y="-351" font-family="Helvetica,sans-Serif" font-size="10.00">m_cbc::s_compute_slip</text>
<text text-anchor="middle" x="205" y="-340" font-family="Helvetica,sans-Serif" font-size="10.00">_wall_l</text>
</a>
</g>
</g>
<!-- Node1&#45;&gt;Node8 -->
<g id="edge7" class="edge">
<title>Node1&#45;&gt;Node8</title>
<path fill="none" stroke="midnightblue" d="M81.25,-329.12C95.88,-331.37 112.96,-333.99 129.65,-336.56"/>
<polygon fill="midnightblue" stroke="midnightblue" points="129.55,-340.09 139.97,-338.15 130.62,-333.17 129.55,-340.09"/>
</g>
<!-- Node9 -->
<g id="node9" class="node">
<title>Node9</title>
<g id="a_node9"><a xlink:href="namespacem__cbc.html#a7c2d6c2ca0a6e6308fd0b3339c8e23dd" target="_top" xlink:title="L variables for the supersonic inflow CBC, see pg. 453 Thompson (1990). The supersonic inflow CBC is ...">
<polygon fill="none" stroke="black" points="122.5,-284 122.5,-314 287.5,-314 287.5,-284 122.5,-284"/>
<text text-anchor="start" x="130.5" y="-302" font-family="Helvetica,sans-Serif" font-size="10.00">m_cbc::s_compute_supersonic</text>
<text text-anchor="middle" x="205" y="-291" font-family="Helvetica,sans-Serif" font-size="10.00">_inflow_l</text>
</a>
</g>
</g>
<!-- Node1&#45;&gt;Node9 -->
<g id="edge8" class="edge">
<title>Node1&#45;&gt;Node9</title>
<path fill="none" stroke="midnightblue" d="M81.25,-317.13C90.82,-315.72 101.44,-314.15 112.31,-312.54"/>
<polygon fill="midnightblue" stroke="midnightblue" points="112.96,-315.98 122.34,-311.06 111.94,-309.06 112.96,-315.98"/>
</g>
<!-- Node10 -->
<g id="node10" class="node">
<title>Node10</title>
<g id="a_node10"><a xlink:href="namespacem__cbc.html#aa2e13476498c9affe15f68d3eedbb726" target="_top" xlink:title="L variables for the supersonic outflow CBC, see pg. 453 of Thompson (1990). For the supersonic outflo...">
<polygon fill="none" stroke="black" points="122.5,-235 122.5,-265 287.5,-265 287.5,-235 122.5,-235"/>
<text text-anchor="start" x="130.5" y="-253" font-family="Helvetica,sans-Serif" font-size="10.00">m_cbc::s_compute_supersonic</text>
<text text-anchor="middle" x="205" y="-242" font-family="Helvetica,sans-Serif" font-size="10.00">_outflow_l</text>
</a>
</g>
</g>
<!-- Node1&#45;&gt;Node10 -->
<g id="edge9" class="edge">
<title>Node1&#45;&gt;Node10</title>
<path fill="none" stroke="midnightblue" d="M53.95,-313.49C68.43,-302.83 93.35,-285.65 117,-275 122.32,-272.6 127.94,-270.37 133.64,-268.32"/>
<polygon fill="midnightblue" stroke="midnightblue" points="134.96,-271.56 143.29,-265.02 132.69,-264.94 134.96,-271.56"/>
</g>
<!-- Node11 -->
<g id="node11" class="node">
<title>Node11</title>
<g id="a_node11"><a xlink:href="namespacem__variables__conversion.html#a8d829c8830b91c9a63f3752a43c2add4" target="_top" xlink:title="The following subroutine handles the conversion between the primitive variables and the Eulerian flux...">
<polygon fill="none" stroke="black" points="137.5,-174.5 137.5,-215.5 272.5,-215.5 272.5,-174.5 137.5,-174.5"/>
<text text-anchor="start" x="145.5" y="-203.5" font-family="Helvetica,sans-Serif" font-size="10.00">m_variables_conversion</text>
<text text-anchor="start" x="145.5" y="-192.5" font-family="Helvetica,sans-Serif" font-size="10.00">::s_convert_primitive</text>
<text text-anchor="middle" x="205" y="-181.5" font-family="Helvetica,sans-Serif" font-size="10.00">_to_flux_variables</text>
</a>
</g>
</g>
<!-- Node1&#45;&gt;Node11 -->
<g id="edge10" class="edge">
<title>Node1&#45;&gt;Node11</title>
<path fill="none" stroke="midnightblue" d="M46.57,-313.25C57.12,-293.9 83.27,-250.38 117,-226 120.61,-223.39 124.45,-220.99 128.45,-218.77"/>
<polygon fill="midnightblue" stroke="midnightblue" points="130.07,-221.87 137.38,-214.21 126.88,-215.64 130.07,-221.87"/>
</g>
<!-- Node12 -->
<g id="node12" class="node">
<title>Node12</title>
<g id="a_node12"><a xlink:href="namespacem__variables__conversion.html#a2469e5a2187755370e7d52628a780fd6" target="_top" xlink:title=" ">
<polygon fill="none" stroke="black" points="329,-149.5 329,-190.5 464,-190.5 464,-149.5 329,-149.5"/>
<text text-anchor="start" x="337" y="-178.5" font-family="Helvetica,sans-Serif" font-size="10.00">m_variables_conversion</text>
<text text-anchor="start" x="337" y="-167.5" font-family="Helvetica,sans-Serif" font-size="10.00">::s_convert_species_to</text>
<text text-anchor="middle" x="396.5" y="-156.5" font-family="Helvetica,sans-Serif" font-size="10.00">_mixture_variables_acc</text>
</a>
</g>
</g>
<!-- Node1&#45;&gt;Node12 -->
<g id="edge12" class="edge">
<title>Node1&#45;&gt;Node12</title>
<path fill="none" stroke="midnightblue" d="M42.65,-313.24C46.63,-284.36 62.74,-199.21 117,-165 176.84,-127.27 259.23,-134.29 318.86,-147.24"/>
<polygon fill="midnightblue" stroke="midnightblue" points="318.45,-150.74 328.97,-149.54 320,-143.91 318.45,-150.74"/>
</g>
<!-- Node13 -->
<g id="node13" class="node">
<title>Node13</title>
<g id="a_node13"><a xlink:href="namespacem__variables__conversion.html#acb81910f3c4223227f19333a919feb6c" target="_top" xlink:title=" ">
<polygon fill="none" stroke="black" points="117,-76.5 117,-117.5 293,-117.5 293,-76.5 117,-76.5"/>
<text text-anchor="start" x="125" y="-105.5" font-family="Helvetica,sans-Serif" font-size="10.00">m_variables_conversion</text>
<text text-anchor="start" x="125" y="-94.5" font-family="Helvetica,sans-Serif" font-size="10.00">::s_convert_species_to</text>
<text text-anchor="middle" x="205" y="-83.5" font-family="Helvetica,sans-Serif" font-size="10.00">_mixture_variables_bubbles_acc</text>
</a>
</g>
</g>
<!-- Node1&#45;&gt;Node13 -->
<g id="edge13" class="edge">
<title>Node1&#45;&gt;Node13</title>
<path fill="none" stroke="midnightblue" d="M42.64,-313.2C46.75,-282.32 63.46,-185.87 117,-132 120.25,-128.73 123.85,-125.75 127.67,-123.05"/>
<polygon fill="midnightblue" stroke="midnightblue" points="129.79,-125.85 136.37,-117.55 126.05,-119.93 129.79,-125.85"/>
</g>
<!-- Node14 -->
<g id="node14" class="node">
<title>Node14</title>
<g id="a_node14"><a xlink:href="namespacem__cbc.html#a3fcf7cde1a04a7ee72ced4aa62cf53d0" target="_top" xlink:title="Deallocation and/or the disassociation procedures that are necessary in order to finalize the CBC app...">
<polygon fill="none" stroke="black" points="144,-38.5 144,-57.5 266,-57.5 266,-38.5 144,-38.5"/>
<text text-anchor="middle" x="205" y="-45.5" font-family="Helvetica,sans-Serif" font-size="10.00">m_cbc::s_finalize_cbc</text>
</a>
</g>
</g>
<!-- Node1&#45;&gt;Node14 -->
<g id="edge14" class="edge">
<title>Node1&#45;&gt;Node14</title>
<path fill="none" stroke="midnightblue" d="M41.13,-313.36C40.25,-275.6 42.38,-136.45 117,-67 122.02,-62.33 127.91,-58.71 134.22,-55.91"/>
<polygon fill="midnightblue" stroke="midnightblue" points="135.56,-59.14 143.71,-52.37 133.12,-52.58 135.56,-59.14"/>
</g>
<!-- Node15 -->
<g id="node15" class="node">
<title>Node15</title>
<g id="a_node15"><a xlink:href="namespacem__cbc.html#a50fed863b4ee14bf81590ed80154b539" target="_top" xlink:title="The computation of parameters, the allocation of memory, the association of pointers and/or the execu...">
<polygon fill="none" stroke="black" points="141,-0.5 141,-19.5 269,-19.5 269,-0.5 141,-0.5"/>
<text text-anchor="middle" x="205" y="-7.5" font-family="Helvetica,sans-Serif" font-size="10.00">m_cbc::s_initialize_cbc</text>
</a>
</g>
</g>
<!-- Node1&#45;&gt;Node15 -->
<g id="edge15" class="edge">
<title>Node1&#45;&gt;Node15</title>
<path fill="none" stroke="midnightblue" d="M42.64,-313.23C48.23,-266.95 74.23,-70.24 117,-29 121.28,-24.88 126.23,-21.56 131.56,-18.91"/>
<polygon fill="midnightblue" stroke="midnightblue" points="132.96,-22.12 140.84,-15.04 130.26,-15.66 132.96,-22.12"/>
</g>
<!-- Node11&#45;&gt;Node12 -->
<g id="edge11" class="edge">
<title>Node11&#45;&gt;Node12</title>
<path fill="none" stroke="midnightblue" d="M272.54,-186.22C287.5,-184.25 303.5,-182.14 318.83,-180.11"/>
<polygon fill="midnightblue" stroke="midnightblue" points="319.34,-183.58 328.8,-178.8 318.42,-176.64 319.34,-183.58"/>
</g>
</g>
</svg>
