<?xml version="1.0" encoding="UTF-8" standalone="no"?>
<!DOCTYPE svg PUBLIC "-//W3C//DTD SVG 1.1//EN"
 "http://www.w3.org/Graphics/SVG/1.1/DTD/svg11.dtd">
<!-- Generated by graphviz version 2.43.0 (0)
 -->
<!-- Title: m_rhs::s_initialize_rhs_module Pages: 1 -->
<svg width="490pt" height="335pt"
 viewBox="0.00 0.00 490.00 335.00" xmlns="http://www.w3.org/2000/svg" xmlns:xlink="http://www.w3.org/1999/xlink">
<g id="graph0" class="graph" transform="scale(1 1) rotate(0) translate(4 331)">
<title>m_rhs::s_initialize_rhs_module</title>
<!-- Node1 -->
<g id="node1" class="node">
<title>Node1</title>
<g id="a_node1"><a xlink:title="The computation of parameters, the allocation of memory, the association of pointers and/or the execu...">
<polygon fill="#999999" stroke="#666666" points="105,-203.5 0,-203.5 0,-173.5 105,-173.5 105,-203.5"/>
<text text-anchor="start" x="8" y="-191.5" font-family="Helvetica,sans-Serif" font-size="10.00">m_rhs::s_initialize</text>
<text text-anchor="middle" x="52.5" y="-180.5" font-family="Helvetica,sans-Serif" font-size="10.00">_rhs_module</text>
</a>
</g>
</g>
<!-- Node2 -->
<g id="node2" class="node">
<title>Node2</title>
<g id="a_node2"><a xlink:href="namespacem__variables__conversion.html#a8b38265e762610c48cd08e6c2a833b38" target="_top" xlink:title="This subroutine is designed for the gamma/pi_inf model and provided a set of either conservative or p...">
<polygon fill="white" stroke="#666666" points="285.5,-327 150.5,-327 150.5,-286 285.5,-286 285.5,-327"/>
<text text-anchor="start" x="158.5" y="-315" font-family="Helvetica,sans-Serif" font-size="10.00">m_variables_conversion</text>
<text text-anchor="start" x="158.5" y="-304" font-family="Helvetica,sans-Serif" font-size="10.00">::s_convert_mixture_to</text>
<text text-anchor="middle" x="218" y="-293" font-family="Helvetica,sans-Serif" font-size="10.00">_mixture_variables</text>
</a>
</g>
</g>
<!-- Node1&#45;&gt;Node2 -->
<g id="edge1" class="edge">
<title>Node1&#45;&gt;Node2</title>
<path fill="none" stroke="#63b8ff" d="M64.97,-203.69C80.36,-223.16 109.45,-256.86 141,-277.5 142.87,-278.72 144.8,-279.91 146.78,-281.05"/>
<polygon fill="#63b8ff" stroke="#63b8ff" points="145.22,-284.19 155.69,-285.81 148.52,-278.01 145.22,-284.19"/>
</g>
<!-- Node3 -->
<g id="node3" class="node">
<title>Node3</title>
<g id="a_node3"><a xlink:href="namespacem__variables__conversion.html#a95ca46151b4f53187280645d71755bfa" target="_top" xlink:title="This subroutine is designed for the volume fraction model and provided a set of either conservative o...">
<polygon fill="white" stroke="#666666" points="285.5,-268 150.5,-268 150.5,-227 285.5,-227 285.5,-268"/>
<text text-anchor="start" x="158.5" y="-256" font-family="Helvetica,sans-Serif" font-size="10.00">m_variables_conversion</text>
<text text-anchor="start" x="158.5" y="-245" font-family="Helvetica,sans-Serif" font-size="10.00">::s_convert_species_to</text>
<text text-anchor="middle" x="218" y="-234" font-family="Helvetica,sans-Serif" font-size="10.00">_mixture_variables</text>
</a>
</g>
</g>
<!-- Node1&#45;&gt;Node3 -->
<g id="edge2" class="edge">
<title>Node1&#45;&gt;Node3</title>
<path fill="none" stroke="#63b8ff" d="M95.18,-203.54C111.94,-209.59 131.68,-216.71 150.34,-223.44"/>
<polygon fill="#63b8ff" stroke="#63b8ff" points="149.38,-226.82 159.97,-226.92 151.76,-220.24 149.38,-226.82"/>
</g>
<!-- Node4 -->
<g id="node4" class="node">
<title>Node4</title>
<g id="a_node4"><a xlink:href="namespacem__variables__conversion.html#ab3775ce10728f71d6da205e34cf50b77" target="_top" xlink:title="This procedure is used alongside with the gamma/pi_inf model to transfer the density,...">
<polygon fill="white" stroke="#666666" points="295,-209 141,-209 141,-168 295,-168 295,-209"/>
<text text-anchor="start" x="149" y="-197" font-family="Helvetica,sans-Serif" font-size="10.00">m_variables_conversion</text>
<text text-anchor="start" x="149" y="-186" font-family="Helvetica,sans-Serif" font-size="10.00">::s_convert_species_to</text>
<text text-anchor="middle" x="218" y="-175" font-family="Helvetica,sans-Serif" font-size="10.00">_mixture_variables_bubbles</text>
</a>
</g>
</g>
<!-- Node1&#45;&gt;Node4 -->
<g id="edge3" class="edge">
<title>Node1&#45;&gt;Node4</title>
<path fill="none" stroke="#63b8ff" d="M105.23,-188.5C113.37,-188.5 121.97,-188.5 130.63,-188.5"/>
<polygon fill="#63b8ff" stroke="#63b8ff" points="130.81,-192 140.81,-188.5 130.81,-185 130.81,-192"/>
</g>
<!-- Node5 -->
<g id="node5" class="node">
<title>Node5</title>
<g id="a_node5"><a xlink:href="namespacem__riemann__solvers.html#a1b018ebed82e499a0589925651bba7a7" target="_top" xlink:title=" ">
<polygon fill="white" stroke="#666666" points="278,-149.5 158,-149.5 158,-119.5 278,-119.5 278,-149.5"/>
<text text-anchor="start" x="166" y="-137.5" font-family="Helvetica,sans-Serif" font-size="10.00">m_riemann_solvers::</text>
<text text-anchor="middle" x="218" y="-126.5" font-family="Helvetica,sans-Serif" font-size="10.00">s_hll_riemann_solver</text>
</a>
</g>
</g>
<!-- Node1&#45;&gt;Node5 -->
<g id="edge4" class="edge">
<title>Node1&#45;&gt;Node5</title>
<path fill="none" stroke="#63b8ff" d="M98.91,-173.43C112.45,-168.94 127.32,-164.02 141,-159.5 147.56,-157.33 154.43,-155.07 161.26,-152.82"/>
<polygon fill="#63b8ff" stroke="#63b8ff" points="162.78,-156.01 171.18,-149.55 160.59,-149.36 162.78,-156.01"/>
</g>
<!-- Node9 -->
<g id="node9" class="node">
<title>Node9</title>
<g id="a_node9"><a xlink:href="namespacem__riemann__solvers.html#a6c9d70572e9b98586bab20b028557a5a" target="_top" xlink:title="This procedure is the implementation of the Harten, Lax, van Leer, and contact (HLLC) approximate Rie...">
<polygon fill="white" stroke="#666666" points="280.5,-101.5 155.5,-101.5 155.5,-71.5 280.5,-71.5 280.5,-101.5"/>
<text text-anchor="start" x="163.5" y="-89.5" font-family="Helvetica,sans-Serif" font-size="10.00">m_riemann_solvers::</text>
<text text-anchor="middle" x="218" y="-78.5" font-family="Helvetica,sans-Serif" font-size="10.00">s_hllc_riemann_solver</text>
</a>
</g>
</g>
<!-- Node1&#45;&gt;Node9 -->
<g id="edge8" class="edge">
<title>Node1&#45;&gt;Node9</title>
<path fill="none" stroke="#63b8ff" d="M66.59,-173.49C82.55,-156.05 111.1,-127.5 141,-110.5 144.04,-108.77 147.22,-107.15 150.48,-105.63"/>
<polygon fill="#63b8ff" stroke="#63b8ff" points="152.03,-108.78 159.85,-101.63 149.28,-102.34 152.03,-108.78"/>
</g>
<!-- Node6 -->
<g id="node6" class="node">
<title>Node6</title>
<g id="a_node6"><a xlink:href="namespacem__riemann__solvers.html#ab679d890c95c6cb1ee3dc5e5a9ae1c19" target="_top" xlink:title="Deallocation and/or disassociation procedures that are needed to finalize the selected Riemann proble...">
<polygon fill="white" stroke="#666666" points="478,-203.5 335,-203.5 335,-173.5 478,-173.5 478,-203.5"/>
<text text-anchor="start" x="343" y="-191.5" font-family="Helvetica,sans-Serif" font-size="10.00">m_riemann_solvers::</text>
<text text-anchor="middle" x="406.5" y="-180.5" font-family="Helvetica,sans-Serif" font-size="10.00">s_finalize_riemann_solver</text>
</a>
</g>
</g>
<!-- Node5&#45;&gt;Node6 -->
<g id="edge5" class="edge">
<title>Node5&#45;&gt;Node6</title>
<path fill="none" stroke="#63b8ff" d="M270.95,-149.54C293.49,-156.07 320.06,-163.76 343.62,-170.58"/>
<polygon fill="#63b8ff" stroke="#63b8ff" points="342.93,-174.03 353.5,-173.45 344.87,-167.3 342.93,-174.03"/>
</g>
<!-- Node7 -->
<g id="node7" class="node">
<title>Node7</title>
<g id="a_node7"><a xlink:href="namespacem__riemann__solvers.html#a3f244d4b1bc8e00f8c3c5b6f96aa5448" target="_top" xlink:title="The computation of parameters, the allocation of memory, the association of pointers and/or the execu...">
<polygon fill="white" stroke="#666666" points="466,-155 347,-155 347,-114 466,-114 466,-155"/>
<text text-anchor="start" x="355" y="-143" font-family="Helvetica,sans-Serif" font-size="10.00">m_riemann_solvers::</text>
<text text-anchor="start" x="355" y="-132" font-family="Helvetica,sans-Serif" font-size="10.00">s_initialize_riemann</text>
<text text-anchor="middle" x="406.5" y="-121" font-family="Helvetica,sans-Serif" font-size="10.00">_solver</text>
</a>
</g>
</g>
<!-- Node5&#45;&gt;Node7 -->
<g id="edge6" class="edge">
<title>Node5&#45;&gt;Node7</title>
<path fill="none" stroke="#63b8ff" d="M278.01,-134.5C296.64,-134.5 317.4,-134.5 336.66,-134.5"/>
<polygon fill="#63b8ff" stroke="#63b8ff" points="336.87,-138 346.87,-134.5 336.87,-131 336.87,-138"/>
</g>
<!-- Node8 -->
<g id="node8" class="node">
<title>Node8</title>
<g id="a_node8"><a xlink:href="namespacem__riemann__solvers.html#a2b90cc8425b57f4a7ea4dc0d839e9f75" target="_top" xlink:title="The purpose of this subroutine is to populate the buffers of the left and right Riemann states variab...">
<polygon fill="white" stroke="#666666" points="482,-96 331,-96 331,-55 482,-55 482,-96"/>
<text text-anchor="start" x="339" y="-84" font-family="Helvetica,sans-Serif" font-size="10.00">m_riemann_solvers::</text>
<text text-anchor="start" x="339" y="-73" font-family="Helvetica,sans-Serif" font-size="10.00">s_populate_riemann_states</text>
<text text-anchor="middle" x="406.5" y="-62" font-family="Helvetica,sans-Serif" font-size="10.00">_variables_buffers</text>
</a>
</g>
</g>
<!-- Node5&#45;&gt;Node8 -->
<g id="edge7" class="edge">
<title>Node5&#45;&gt;Node8</title>
<path fill="none" stroke="#63b8ff" d="M266.84,-119.4C276.18,-116.45 285.9,-113.38 295,-110.5 306.66,-106.81 319.01,-102.9 331.06,-99.09"/>
<polygon fill="#63b8ff" stroke="#63b8ff" points="332.17,-102.41 340.65,-96.05 330.06,-95.73 332.17,-102.41"/>
</g>
<!-- Node9&#45;&gt;Node6 -->
<g id="edge11" class="edge">
<title>Node9&#45;&gt;Node6</title>
<path fill="none" stroke="#63b8ff" d="M280.18,-101.64C285.43,-104.16 290.46,-107.09 295,-110.5 318.06,-127.83 307.99,-147.11 331,-164.5 332.85,-165.9 334.78,-167.22 336.78,-168.46"/>
<polygon fill="#63b8ff" stroke="#63b8ff" points="335.45,-171.72 345.9,-173.44 338.8,-165.58 335.45,-171.72"/>
</g>
<!-- Node9&#45;&gt;Node7 -->
<g id="edge12" class="edge">
<title>Node9&#45;&gt;Node7</title>
<path fill="none" stroke="#63b8ff" d="M277.5,-101.56C296.41,-106.42 317.56,-111.87 337.12,-116.9"/>
<polygon fill="#63b8ff" stroke="#63b8ff" points="336.33,-120.31 346.89,-119.42 338.08,-113.53 336.33,-120.31"/>
</g>
<!-- Node9&#45;&gt;Node8 -->
<g id="edge13" class="edge">
<title>Node9&#45;&gt;Node8</title>
<path fill="none" stroke="#63b8ff" d="M280.58,-82.87C293.44,-82.11 307.2,-81.3 320.72,-80.5"/>
<polygon fill="#63b8ff" stroke="#63b8ff" points="321.22,-83.98 330.99,-79.89 320.81,-76.99 321.22,-83.98"/>
</g>
<!-- Node10 -->
<g id="node10" class="node">
<title>Node10</title>
<g id="a_node10"><a xlink:href="namespacem__bubbles.html#a3b5690b07dda1b3660cb5539ec5fd920" target="_top" xlink:title="Function that computes the bubble wall pressure for Keller–Miksis bubbles.">
<polygon fill="white" stroke="#666666" points="472,-19 341,-19 341,0 472,0 472,-19"/>
<text text-anchor="middle" x="406.5" y="-7" font-family="Helvetica,sans-Serif" font-size="10.00">m_bubbles::f_cpbw_km</text>
</a>
</g>
</g>
<!-- Node9&#45;&gt;Node10 -->
<g id="edge9" class="edge">
<title>Node9&#45;&gt;Node10</title>
<path fill="none" stroke="#63b8ff" d="M255.4,-71.47C289.51,-57.39 340.01,-36.54 372.85,-22.98"/>
<polygon fill="#63b8ff" stroke="#63b8ff" points="374.52,-26.08 382.43,-19.02 371.85,-19.61 374.52,-26.08"/>
</g>
<!-- Node10&#45;&gt;Node10 -->
<g id="edge10" class="edge">
<title>Node10&#45;&gt;Node10</title>
<path fill="none" stroke="#63b8ff" d="M377.52,-19.08C363.43,-27.73 373.09,-37 406.5,-37 429.47,-37 441.22,-32.62 441.73,-27.07"/>
<polygon fill="#63b8ff" stroke="#63b8ff" points="444.4,-24.8 435.48,-19.08 438.89,-29.11 444.4,-24.8"/>
</g>
</g>
</svg>
