<?xml version="1.0" encoding="UTF-8" standalone="no"?>
<!DOCTYPE svg PUBLIC "-//W3C//DTD SVG 1.1//EN"
 "http://www.w3.org/Graphics/SVG/1.1/DTD/svg11.dtd">
<!-- Generated by graphviz version 2.43.0 (0)
 -->
<!-- Title: m_riemann_solvers::s_hll_riemann_solver Pages: 1 -->
<svg width="372pt" height="98pt"
 viewBox="0.00 0.00 372.00 97.50" xmlns="http://www.w3.org/2000/svg" xmlns:xlink="http://www.w3.org/1999/xlink">
<g id="graph0" class="graph" transform="scale(1 1) rotate(0) translate(4 93.5)">
<title>m_riemann_solvers::s_hll_riemann_solver</title>
<!-- Node1 -->
<g id="node1" class="node">
<title>Node1</title>
<g id="a_node1"><a xlink:title=" ">
<polygon fill="#999999" stroke="#666666" points="364,-62.5 244,-62.5 244,-32.5 364,-32.5 364,-62.5"/>
<text text-anchor="start" x="252" y="-50.5" font-family="Helvetica,sans-Serif" font-size="10.00">m_riemann_solvers::</text>
<text text-anchor="middle" x="304" y="-39.5" font-family="Helvetica,sans-Serif" font-size="10.00">s_hll_riemann_solver</text>
</a>
</g>
</g>
<!-- Node2 -->
<g id="node2" class="node">
<title>Node2</title>
<g id="a_node2"><a xlink:href="namespacem__rhs.html#ae6f7edb814859919c5d1f739574155bd" target="_top" xlink:title="The computation of parameters, the allocation of memory, the association of pointers and/or the execu...">
<polygon fill="white" stroke="#666666" points="201,-89.5 96,-89.5 96,-59.5 201,-59.5 201,-89.5"/>
<text text-anchor="start" x="104" y="-77.5" font-family="Helvetica,sans-Serif" font-size="10.00">m_rhs::s_initialize</text>
<text text-anchor="middle" x="148.5" y="-66.5" font-family="Helvetica,sans-Serif" font-size="10.00">_rhs_module</text>
</a>
</g>
</g>
<!-- Node1&#45;&gt;Node2 -->
<g id="edge1" class="edge">
<title>Node1&#45;&gt;Node2</title>
<path fill="none" stroke="#63b8ff" d="M233.7,-59.69C222.77,-61.61 211.63,-63.57 201.19,-65.41"/>
<polygon fill="#63b8ff" stroke="#63b8ff" points="234.41,-63.12 243.65,-57.94 233.2,-56.22 234.41,-63.12"/>
</g>
<!-- Node4 -->
<g id="node4" class="node">
<title>Node4</title>
<g id="a_node4"><a xlink:href="namespacem__riemann__solvers.html#aab7e6bf69b7d0b8b9d911f418b872130" target="_top" xlink:title="The computation of parameters, the allocation of memory, the association of pointers and/or the execu...">
<polygon fill="white" stroke="#666666" points="208,-41 89,-41 89,0 208,0 208,-41"/>
<text text-anchor="start" x="97" y="-29" font-family="Helvetica,sans-Serif" font-size="10.00">m_riemann_solvers::</text>
<text text-anchor="start" x="97" y="-18" font-family="Helvetica,sans-Serif" font-size="10.00">s_initialize_riemann</text>
<text text-anchor="middle" x="148.5" y="-7" font-family="Helvetica,sans-Serif" font-size="10.00">_solvers_module</text>
</a>
</g>
</g>
<!-- Node1&#45;&gt;Node4 -->
<g id="edge3" class="edge">
<title>Node1&#45;&gt;Node4</title>
<path fill="none" stroke="#63b8ff" d="M233.72,-35.31C225.19,-33.81 216.54,-32.29 208.18,-30.82"/>
<polygon fill="#63b8ff" stroke="#63b8ff" points="233.2,-38.78 243.65,-37.06 234.41,-31.88 233.2,-38.78"/>
</g>
<!-- Node3 -->
<g id="node3" class="node">
<title>Node3</title>
<g id="a_node3"><a xlink:href="p__main_8fpp_8f90.html#aeec10ee8e2940c953967da3e374e1579" target="_top" xlink:title="Quasi&#45;conservative, shock&#45; and interface&#45; capturing finite&#45;volume scheme for the multicomponent Navie...">
<polygon fill="white" stroke="#666666" points="53,-57 0,-57 0,-38 53,-38 53,-57"/>
<text text-anchor="middle" x="26.5" y="-45" font-family="Helvetica,sans-Serif" font-size="10.00">p_main</text>
</a>
</g>
</g>
<!-- Node2&#45;&gt;Node3 -->
<g id="edge2" class="edge">
<title>Node2&#45;&gt;Node3</title>
<path fill="none" stroke="#63b8ff" d="M85.83,-60.62C74.34,-58.04 62.92,-55.47 53.28,-53.3"/>
<polygon fill="#63b8ff" stroke="#63b8ff" points="85.39,-64.11 95.91,-62.89 86.92,-57.28 85.39,-64.11"/>
</g>
<!-- Node4&#45;&gt;Node3 -->
<g id="edge4" class="edge">
<title>Node4&#45;&gt;Node3</title>
<path fill="none" stroke="#63b8ff" d="M78.88,-35.94C69.7,-38 60.8,-40.01 53.05,-41.75"/>
<polygon fill="#63b8ff" stroke="#63b8ff" points="79.92,-39.29 88.91,-33.68 78.38,-32.46 79.92,-39.29"/>
</g>
</g>
</svg>
