<?xml version="1.0" encoding="UTF-8" standalone="no"?>
<!DOCTYPE svg PUBLIC "-//W3C//DTD SVG 1.1//EN"
 "http://www.w3.org/Graphics/SVG/1.1/DTD/svg11.dtd">
<!-- Generated by graphviz version 2.43.0 (0)
 -->
<!-- Title: m_derived_variables::s_initialize_derived_variables Pages: 1 -->
<svg width="317pt" height="76pt"
 viewBox="0.00 0.00 317.00 75.50" xmlns="http://www.w3.org/2000/svg" xmlns:xlink="http://www.w3.org/1999/xlink">
<g id="graph0" class="graph" transform="scale(1 1) rotate(0) translate(4 71.5)">
<title>m_derived_variables::s_initialize_derived_variables</title>
<!-- Node1 -->
<g id="Node000001" class="node">
<title>Node1</title>
<g id="a_Node000001"><a xlink:title="Allocate and open derived variables. Computing FD coefficients.">
<polygon fill="#999999" stroke="#666666" points="119,-51 0,-51 0,-10 119,-10 119,-51"/>
<text text-anchor="start" x="8" y="-39" font-family="Helvetica,sans-Serif" font-size="10.00">m_derived_variables</text>
<text text-anchor="start" x="8" y="-28" font-family="Helvetica,sans-Serif" font-size="10.00">::s_initialize_derived</text>
<text text-anchor="middle" x="59.5" y="-17" font-family="Helvetica,sans-Serif" font-size="10.00">_variables</text>
</a>
</g>
</g>
<!-- Node2 -->
<g id="Node000002" class="node">
<title>Node2</title>
<g id="a_Node000002"><a xlink:href="m__helper_8fpp_8f90.html#a397f792e51d5a7f74131b9c72b87e071" target="_top" xlink:title="The purpose of this subroutine is to compute the finite&#45; difference coefficients for the centered sch...">
<polygon fill="white" stroke="#666666" points="309,-67.5 155,-67.5 155,-37.5 309,-37.5 309,-67.5"/>
<text text-anchor="start" x="163" y="-55.5" font-family="Helvetica,sans-Serif" font-size="10.00">s_compute_finite_difference</text>
<text text-anchor="middle" x="232" y="-44.5" font-family="Helvetica,sans-Serif" font-size="10.00">_coefficients</text>
</a>
</g>
</g>
<!-- Node1&#45;&gt;Node2 -->
<g id="edge1_Node000001_Node000002" class="edge">
<title>Node1&#45;&gt;Node2</title>
<g id="a_edge1_Node000001_Node000002"><a xlink:title=" ">
<path fill="none" stroke="#63b8ff" d="M119.18,-38.07C127.42,-39.13 136.02,-40.24 144.64,-41.36"/>
<polygon fill="#63b8ff" stroke="#63b8ff" points="144.39,-44.85 154.75,-42.66 145.28,-37.91 144.39,-44.85"/>
</a>
</g>
</g>
<!-- Node3 -->
<g id="Node000003" class="node">
<title>Node3</title>
<g id="a_Node000003"><a xlink:href="m__data__output_8fpp_8f90.html#aa6aca87deeceb3560cabd797fac22899" target="_top" xlink:title="This opens a formatted data file where the root processor can write out flow probe information.">
<polygon fill="white" stroke="#666666" points="287,-19 177,-19 177,0 287,0 287,-19"/>
<text text-anchor="middle" x="232" y="-7" font-family="Helvetica,sans-Serif" font-size="10.00">s_open_probe_files</text>
</a>
</g>
</g>
<!-- Node1&#45;&gt;Node3 -->
<g id="edge2_Node000001_Node000003" class="edge">
<title>Node1&#45;&gt;Node3</title>
<g id="a_edge2_Node000001_Node000003"><a xlink:title=" ">
<path fill="none" stroke="#63b8ff" d="M119.18,-23.27C134.51,-21.38 151.11,-19.34 166.71,-17.42"/>
<polygon fill="#63b8ff" stroke="#63b8ff" points="167.3,-20.87 176.8,-16.18 166.45,-13.92 167.3,-20.87"/>
</a>
</g>
</g>
</g>
</svg>
