<?xml version="1.0" encoding="UTF-8" standalone="no"?>
<!DOCTYPE svg PUBLIC "-//W3C//DTD SVG 1.1//EN"
 "http://www.w3.org/Graphics/SVG/1.1/DTD/svg11.dtd">
<!-- Generated by graphviz version 2.43.0 (0)
 -->
<!-- Title: m_riemann_solvers::s_initialize_riemann_solvers_module Pages: 1 -->
<svg width="475pt" height="276pt"
 viewBox="0.00 0.00 475.00 276.00" xmlns="http://www.w3.org/2000/svg" xmlns:xlink="http://www.w3.org/1999/xlink">
<g id="graph0" class="graph" transform="scale(1 1) rotate(0) translate(4 272)">
<title>m_riemann_solvers::s_initialize_riemann_solvers_module</title>
<!-- Node1 -->
<g id="node1" class="node">
<title>Node1</title>
<g id="a_node1"><a xlink:title="The computation of parameters, the allocation of memory, the association of pointers and/or the execu...">
<polygon fill="#999999" stroke="#666666" points="119,-182 0,-182 0,-141 119,-141 119,-182"/>
<text text-anchor="start" x="8" y="-170" font-family="Helvetica,sans-Serif" font-size="10.00">m_riemann_solvers::</text>
<text text-anchor="start" x="8" y="-159" font-family="Helvetica,sans-Serif" font-size="10.00">s_initialize_riemann</text>
<text text-anchor="middle" x="59.5" y="-148" font-family="Helvetica,sans-Serif" font-size="10.00">_solvers_module</text>
</a>
</g>
</g>
<!-- Node2 -->
<g id="node2" class="node">
<title>Node2</title>
<g id="a_node2"><a xlink:href="namespacem__riemann__solvers.html#a67523a29805d4128431484ca49de1068" target="_top" xlink:title="The goal of this subroutine is to evaluate and account for the contribution of viscous stresses in th...">
<polygon fill="white" stroke="#666666" points="277.5,-268 157.5,-268 157.5,-227 277.5,-227 277.5,-268"/>
<text text-anchor="start" x="165.5" y="-256" font-family="Helvetica,sans-Serif" font-size="10.00">m_riemann_solvers::</text>
<text text-anchor="start" x="165.5" y="-245" font-family="Helvetica,sans-Serif" font-size="10.00">s_compute_cartesian</text>
<text text-anchor="middle" x="217.5" y="-234" font-family="Helvetica,sans-Serif" font-size="10.00">_viscous_source_flux</text>
</a>
</g>
</g>
<!-- Node1&#45;&gt;Node2 -->
<g id="edge1" class="edge">
<title>Node1&#45;&gt;Node2</title>
<path fill="none" stroke="#63b8ff" d="M92.83,-182.12C110.86,-193.34 133.89,-207.19 155,-218.5 157.4,-219.79 159.88,-221.08 162.38,-222.36"/>
<polygon fill="#63b8ff" stroke="#63b8ff" points="161.05,-225.61 171.56,-226.96 164.19,-219.35 161.05,-225.61"/>
</g>
<!-- Node3 -->
<g id="node3" class="node">
<title>Node3</title>
<g id="a_node3"><a xlink:href="namespacem__riemann__solvers.html#a225f72f7e466dad77766ea2fe27a7a05" target="_top" xlink:title="The goal of this subroutine is to evaluate and account for the contribution of viscous stresses in th...">
<polygon fill="white" stroke="#666666" points="280,-209 155,-209 155,-168 280,-168 280,-209"/>
<text text-anchor="start" x="163" y="-197" font-family="Helvetica,sans-Serif" font-size="10.00">m_riemann_solvers::</text>
<text text-anchor="start" x="163" y="-186" font-family="Helvetica,sans-Serif" font-size="10.00">s_compute_cylindrical</text>
<text text-anchor="middle" x="217.5" y="-175" font-family="Helvetica,sans-Serif" font-size="10.00">_viscous_source_flux</text>
</a>
</g>
</g>
<!-- Node1&#45;&gt;Node3 -->
<g id="edge2" class="edge">
<title>Node1&#45;&gt;Node3</title>
<path fill="none" stroke="#63b8ff" d="M119.03,-171.63C127.42,-173.08 136.13,-174.59 144.74,-176.08"/>
<polygon fill="#63b8ff" stroke="#63b8ff" points="144.32,-179.56 154.77,-177.82 145.52,-172.66 144.32,-179.56"/>
</g>
<!-- Node4 -->
<g id="node4" class="node">
<title>Node4</title>
<g id="a_node4"><a xlink:href="namespacem__riemann__solvers.html#a1b018ebed82e499a0589925651bba7a7" target="_top" xlink:title=" ">
<polygon fill="white" stroke="#666666" points="277.5,-149.5 157.5,-149.5 157.5,-119.5 277.5,-119.5 277.5,-149.5"/>
<text text-anchor="start" x="165.5" y="-137.5" font-family="Helvetica,sans-Serif" font-size="10.00">m_riemann_solvers::</text>
<text text-anchor="middle" x="217.5" y="-126.5" font-family="Helvetica,sans-Serif" font-size="10.00">s_hll_riemann_solver</text>
</a>
</g>
</g>
<!-- Node1&#45;&gt;Node4 -->
<g id="edge3" class="edge">
<title>Node1&#45;&gt;Node4</title>
<path fill="none" stroke="#63b8ff" d="M119.03,-151.37C128.24,-149.78 137.83,-148.12 147.25,-146.49"/>
<polygon fill="#63b8ff" stroke="#63b8ff" points="148.12,-149.89 157.38,-144.73 146.93,-142.99 148.12,-149.89"/>
</g>
<!-- Node8 -->
<g id="node8" class="node">
<title>Node8</title>
<g id="a_node8"><a xlink:href="namespacem__riemann__solvers.html#a6c9d70572e9b98586bab20b028557a5a" target="_top" xlink:title="This procedure is the implementation of the Harten, Lax, van Leer, and contact (HLLC) approximate Rie...">
<polygon fill="white" stroke="#666666" points="280,-101.5 155,-101.5 155,-71.5 280,-71.5 280,-101.5"/>
<text text-anchor="start" x="163" y="-89.5" font-family="Helvetica,sans-Serif" font-size="10.00">m_riemann_solvers::</text>
<text text-anchor="middle" x="217.5" y="-78.5" font-family="Helvetica,sans-Serif" font-size="10.00">s_hllc_riemann_solver</text>
</a>
</g>
</g>
<!-- Node1&#45;&gt;Node8 -->
<g id="edge7" class="edge">
<title>Node1&#45;&gt;Node8</title>
<path fill="none" stroke="#63b8ff" d="M96.32,-140.82C113.77,-131.1 135.21,-119.66 155,-110.5 158.64,-108.82 162.43,-107.14 166.27,-105.51"/>
<polygon fill="#63b8ff" stroke="#63b8ff" points="167.94,-108.61 175.84,-101.55 165.26,-102.14 167.94,-108.61"/>
</g>
<!-- Node5 -->
<g id="node5" class="node">
<title>Node5</title>
<g id="a_node5"><a xlink:href="namespacem__riemann__solvers.html#ab679d890c95c6cb1ee3dc5e5a9ae1c19" target="_top" xlink:title="Deallocation and/or disassociation procedures that are needed to finalize the selected Riemann proble...">
<polygon fill="white" stroke="#666666" points="463,-203.5 320,-203.5 320,-173.5 463,-173.5 463,-203.5"/>
<text text-anchor="start" x="328" y="-191.5" font-family="Helvetica,sans-Serif" font-size="10.00">m_riemann_solvers::</text>
<text text-anchor="middle" x="391.5" y="-180.5" font-family="Helvetica,sans-Serif" font-size="10.00">s_finalize_riemann_solver</text>
</a>
</g>
</g>
<!-- Node4&#45;&gt;Node5 -->
<g id="edge4" class="edge">
<title>Node4&#45;&gt;Node5</title>
<path fill="none" stroke="#63b8ff" d="M266.41,-149.54C287.01,-156.01 311.27,-163.63 332.85,-170.4"/>
<polygon fill="#63b8ff" stroke="#63b8ff" points="331.96,-173.79 342.55,-173.45 334.05,-167.11 331.96,-173.79"/>
</g>
<!-- Node6 -->
<g id="node6" class="node">
<title>Node6</title>
<g id="a_node6"><a xlink:href="namespacem__riemann__solvers.html#a3f244d4b1bc8e00f8c3c5b6f96aa5448" target="_top" xlink:title="The computation of parameters, the allocation of memory, the association of pointers and/or the execu...">
<polygon fill="white" stroke="#666666" points="451,-155 332,-155 332,-114 451,-114 451,-155"/>
<text text-anchor="start" x="340" y="-143" font-family="Helvetica,sans-Serif" font-size="10.00">m_riemann_solvers::</text>
<text text-anchor="start" x="340" y="-132" font-family="Helvetica,sans-Serif" font-size="10.00">s_initialize_riemann</text>
<text text-anchor="middle" x="391.5" y="-121" font-family="Helvetica,sans-Serif" font-size="10.00">_solver</text>
</a>
</g>
</g>
<!-- Node4&#45;&gt;Node6 -->
<g id="edge5" class="edge">
<title>Node4&#45;&gt;Node6</title>
<path fill="none" stroke="#63b8ff" d="M277.69,-134.5C291.77,-134.5 306.91,-134.5 321.38,-134.5"/>
<polygon fill="#63b8ff" stroke="#63b8ff" points="321.78,-138 331.78,-134.5 321.78,-131 321.78,-138"/>
</g>
<!-- Node7 -->
<g id="node7" class="node">
<title>Node7</title>
<g id="a_node7"><a xlink:href="namespacem__riemann__solvers.html#a2b90cc8425b57f4a7ea4dc0d839e9f75" target="_top" xlink:title="The purpose of this subroutine is to populate the buffers of the left and right Riemann states variab...">
<polygon fill="white" stroke="#666666" points="467,-96 316,-96 316,-55 467,-55 467,-96"/>
<text text-anchor="start" x="324" y="-84" font-family="Helvetica,sans-Serif" font-size="10.00">m_riemann_solvers::</text>
<text text-anchor="start" x="324" y="-73" font-family="Helvetica,sans-Serif" font-size="10.00">s_populate_riemann_states</text>
<text text-anchor="middle" x="391.5" y="-62" font-family="Helvetica,sans-Serif" font-size="10.00">_variables_buffers</text>
</a>
</g>
</g>
<!-- Node4&#45;&gt;Node7 -->
<g id="edge6" class="edge">
<title>Node4&#45;&gt;Node7</title>
<path fill="none" stroke="#63b8ff" d="M262.35,-119.46C280.14,-113.36 301.13,-106.16 320.91,-99.37"/>
<polygon fill="#63b8ff" stroke="#63b8ff" points="322.19,-102.63 330.51,-96.08 319.91,-96.01 322.19,-102.63"/>
</g>
<!-- Node8&#45;&gt;Node5 -->
<g id="edge10" class="edge">
<title>Node8&#45;&gt;Node5</title>
<path fill="none" stroke="#63b8ff" d="M266.15,-101.62C271.07,-104.18 275.8,-107.12 280,-110.5 302.48,-128.58 292.99,-147.11 316,-164.5 317.85,-165.9 319.78,-167.22 321.78,-168.46"/>
<polygon fill="#63b8ff" stroke="#63b8ff" points="320.45,-171.72 330.9,-173.44 323.8,-165.58 320.45,-171.72"/>
</g>
<!-- Node8&#45;&gt;Node6 -->
<g id="edge11" class="edge">
<title>Node8&#45;&gt;Node6</title>
<path fill="none" stroke="#63b8ff" d="M272.45,-101.56C288.26,-105.97 305.76,-110.85 322.34,-115.48"/>
<polygon fill="#63b8ff" stroke="#63b8ff" points="321.4,-118.85 331.97,-118.17 323.28,-112.11 321.4,-118.85"/>
</g>
<!-- Node8&#45;&gt;Node7 -->
<g id="edge12" class="edge">
<title>Node8&#45;&gt;Node7</title>
<path fill="none" stroke="#63b8ff" d="M280.11,-82.56C288.42,-82.03 297.07,-81.48 305.7,-80.92"/>
<polygon fill="#63b8ff" stroke="#63b8ff" points="306.04,-84.41 315.8,-80.28 305.6,-77.42 306.04,-84.41"/>
</g>
<!-- Node9 -->
<g id="node9" class="node">
<title>Node9</title>
<g id="a_node9"><a xlink:href="namespacem__bubbles.html#a3b5690b07dda1b3660cb5539ec5fd920" target="_top" xlink:title="Function that computes the bubble wall pressure for Keller–Miksis bubbles.">
<polygon fill="white" stroke="#666666" points="457,-19 326,-19 326,0 457,0 457,-19"/>
<text text-anchor="middle" x="391.5" y="-7" font-family="Helvetica,sans-Serif" font-size="10.00">m_bubbles::f_cpbw_km</text>
</a>
</g>
</g>
<!-- Node8&#45;&gt;Node9 -->
<g id="edge8" class="edge">
<title>Node8&#45;&gt;Node9</title>
<path fill="none" stroke="#63b8ff" d="M252.07,-71.47C283.3,-57.49 329.44,-36.83 359.74,-23.27"/>
<polygon fill="#63b8ff" stroke="#63b8ff" points="361.28,-26.42 368.98,-19.14 358.42,-20.03 361.28,-26.42"/>
</g>
<!-- Node9&#45;&gt;Node9 -->
<g id="edge9" class="edge">
<title>Node9&#45;&gt;Node9</title>
<path fill="none" stroke="#63b8ff" d="M364.68,-19.08C351.63,-27.73 360.57,-37 391.5,-37 412.28,-37 423.13,-32.82 424.06,-27.45"/>
<polygon fill="#63b8ff" stroke="#63b8ff" points="426.86,-25.35 418.32,-19.08 421.09,-29.31 426.86,-25.35"/>
</g>
</g>
</svg>
