<?xml version="1.0" encoding="UTF-8" standalone="no"?>
<!DOCTYPE svg PUBLIC "-//W3C//DTD SVG 1.1//EN"
 "http://www.w3.org/Graphics/SVG/1.1/DTD/svg11.dtd">
<!-- Generated by graphviz version 2.43.0 (0)
 -->
<!-- Title: m_rhs::s_compute_rhs Pages: 1 -->
<svg width="344pt" height="149pt"
 viewBox="0.00 0.00 344.00 148.50" xmlns="http://www.w3.org/2000/svg" xmlns:xlink="http://www.w3.org/1999/xlink">
<g id="graph0" class="graph" transform="scale(1 1) rotate(0) translate(4 144.5)">
<title>m_rhs::s_compute_rhs</title>
<!-- Node1 -->
<g id="node1" class="node">
<title>Node1</title>
<g id="a_node1"><a xlink:title=" ">
<polygon fill="#bfbfbf" stroke="black" points="0,-66.5 0,-85.5 126,-85.5 126,-66.5 0,-66.5"/>
<text text-anchor="middle" x="63" y="-73.5" font-family="Helvetica,sans-Serif" font-size="10.00">m_rhs::s_compute_rhs</text>
</a>
</g>
</g>
<!-- Node2 -->
<g id="node2" class="node">
<title>Node2</title>
<g id="a_node2"><a xlink:href="namespacem__rhs.html#a2647dbdf6b09315564ef060e1f49df0d" target="_top" xlink:title="The purpose of this procedure is to populate the buffers of the conservative variables,...">
<polygon fill="none" stroke="black" points="162,-110 162,-140 336,-140 336,-110 162,-110"/>
<text text-anchor="start" x="170" y="-128" font-family="Helvetica,sans-Serif" font-size="10.00">m_rhs::s_populate_conservative</text>
<text text-anchor="middle" x="249" y="-117" font-family="Helvetica,sans-Serif" font-size="10.00">_variables_buffers</text>
</a>
</g>
</g>
<!-- Node1&#45;&gt;Node2 -->
<g id="edge1" class="edge">
<title>Node1&#45;&gt;Node2</title>
<path fill="none" stroke="midnightblue" d="M99.91,-85.56C123.11,-91.74 153.99,-99.96 181.55,-107.3"/>
<polygon fill="midnightblue" stroke="midnightblue" points="180.97,-110.77 191.53,-109.96 182.77,-104.01 180.97,-110.77"/>
</g>
<!-- Node3 -->
<g id="node3" class="node">
<title>Node3</title>
<g id="a_node3"><a xlink:href="namespacem__rhs.html#aa93d7b4162d84118e54c739f626a2f16" target="_top" xlink:title="The purpose of this subroutine is to WENO&#45;reconstruct the left and the right cell&#45;boundary values,...">
<polygon fill="none" stroke="black" points="185,-61 185,-91 313,-91 313,-61 185,-61"/>
<text text-anchor="start" x="193" y="-79" font-family="Helvetica,sans-Serif" font-size="10.00">m_rhs::s_reconstruct</text>
<text text-anchor="middle" x="249" y="-68" font-family="Helvetica,sans-Serif" font-size="10.00">_cell_boundary_values</text>
</a>
</g>
</g>
<!-- Node1&#45;&gt;Node3 -->
<g id="edge2" class="edge">
<title>Node1&#45;&gt;Node3</title>
<path fill="none" stroke="midnightblue" d="M126.04,-76C141.61,-76 158.48,-76 174.55,-76"/>
<polygon fill="midnightblue" stroke="midnightblue" points="174.98,-79.5 184.98,-76 174.98,-72.5 174.98,-79.5"/>
</g>
<!-- Node4 -->
<g id="node4" class="node">
<title>Node4</title>
<g id="a_node4"><a xlink:href="namespacem__rhs.html#a632ecd6c105557ce459ab8bd686f9fd5" target="_top" xlink:title=" ">
<polygon fill="none" stroke="black" points="185,-0.5 185,-41.5 313,-41.5 313,-0.5 185,-0.5"/>
<text text-anchor="start" x="193" y="-29.5" font-family="Helvetica,sans-Serif" font-size="10.00">m_rhs::s_reconstruct</text>
<text text-anchor="start" x="193" y="-18.5" font-family="Helvetica,sans-Serif" font-size="10.00">_cell_boundary_values</text>
<text text-anchor="middle" x="249" y="-7.5" font-family="Helvetica,sans-Serif" font-size="10.00">_visc_deriv</text>
</a>
</g>
</g>
<!-- Node1&#45;&gt;Node4 -->
<g id="edge3" class="edge">
<title>Node1&#45;&gt;Node4</title>
<path fill="none" stroke="midnightblue" d="M96.05,-66.42C117.88,-59.89 147.68,-50.99 175.11,-42.79"/>
<polygon fill="midnightblue" stroke="midnightblue" points="176.12,-46.14 184.7,-39.92 174.12,-39.43 176.12,-46.14"/>
</g>
</g>
</svg>
