<?xml version="1.0" encoding="UTF-8" standalone="no"?>
<!DOCTYPE svg PUBLIC "-//W3C//DTD SVG 1.1//EN"
 "http://www.w3.org/Graphics/SVG/1.1/DTD/svg11.dtd">
<!-- Generated by graphviz version 2.43.0 (0)
 -->
<!-- Title: m_mpi_proxy::s_mpi_sendrecv_grid_variables_buffers Pages: 1 -->
<svg width="404pt" height="50pt"
 viewBox="0.00 0.00 404.00 50.00" xmlns="http://www.w3.org/2000/svg" xmlns:xlink="http://www.w3.org/1999/xlink">
<g id="graph0" class="graph" transform="scale(1 1) rotate(0) translate(4 46)">
<title>m_mpi_proxy::s_mpi_sendrecv_grid_variables_buffers</title>
<!-- Node1 -->
<g id="node1" class="node">
<title>Node1</title>
<g id="a_node1"><a xlink:title="The goal of this procedure is to populate the buffers of the grid variables by communicating with the...">
<polygon fill="#bfbfbf" stroke="black" points="256,-0.5 256,-41.5 396,-41.5 396,-0.5 256,-0.5"/>
<text text-anchor="start" x="264" y="-29.5" font-family="Helvetica,sans-Serif" font-size="10.00">m_mpi_proxy::s_mpi</text>
<text text-anchor="start" x="264" y="-18.5" font-family="Helvetica,sans-Serif" font-size="10.00">_sendrecv_grid_variables</text>
<text text-anchor="middle" x="326" y="-7.5" font-family="Helvetica,sans-Serif" font-size="10.00">_buffers</text>
</a>
</g>
</g>
<!-- Node2 -->
<g id="node2" class="node">
<title>Node2</title>
<g id="a_node2"><a xlink:href="namespacem__start__up.html#afd813d91357dc4664a58c690e935ccbd" target="_top" xlink:title="The purpose of this subroutine is to populate the buffers of the grid variables, which are constitute...">
<polygon fill="none" stroke="black" points="89,-6 89,-36 220,-36 220,-6 89,-6"/>
<text text-anchor="start" x="97" y="-24" font-family="Helvetica,sans-Serif" font-size="10.00">m_start_up::s_populate</text>
<text text-anchor="middle" x="154.5" y="-13" font-family="Helvetica,sans-Serif" font-size="10.00">_grid_variables_buffers</text>
</a>
</g>
</g>
<!-- Node1&#45;&gt;Node2 -->
<g id="edge1" class="edge">
<title>Node1&#45;&gt;Node2</title>
<path fill="none" stroke="midnightblue" d="M245.34,-21C236.91,-21 228.41,-21 220.19,-21"/>
<polygon fill="midnightblue" stroke="midnightblue" points="245.57,-24.5 255.57,-21 245.57,-17.5 245.57,-24.5"/>
</g>
<!-- Node3 -->
<g id="node3" class="node">
<title>Node3</title>
<g id="a_node3"><a xlink:href="p__main_8f90.html#aeec10ee8e2940c953967da3e374e1579" target="_top" xlink:title="Quasi&#45;conservative, shock&#45; and interface&#45; capturing finite&#45;volume scheme for the multicomponent Navie...">
<polygon fill="none" stroke="black" points="0,-11.5 0,-30.5 53,-30.5 53,-11.5 0,-11.5"/>
<text text-anchor="middle" x="26.5" y="-18.5" font-family="Helvetica,sans-Serif" font-size="10.00">p_main</text>
</a>
</g>
</g>
<!-- Node2&#45;&gt;Node3 -->
<g id="edge2" class="edge">
<title>Node2&#45;&gt;Node3</title>
<path fill="none" stroke="midnightblue" d="M78.62,-21C69.47,-21 60.66,-21 53.01,-21"/>
<polygon fill="midnightblue" stroke="midnightblue" points="78.65,-24.5 88.65,-21 78.65,-17.5 78.65,-24.5"/>
</g>
</g>
</svg>
