<?xml version="1.0" encoding="UTF-8" standalone="no"?>
<!DOCTYPE svg PUBLIC "-//W3C//DTD SVG 1.1//EN"
 "http://www.w3.org/Graphics/SVG/1.1/DTD/svg11.dtd">
<!-- Generated by graphviz version 2.43.0 (0)
 -->
<!-- Title: m_start_up::s_initialize_mpi_domain Pages: 1 -->
<svg width="645pt" height="266pt"
 viewBox="0.00 0.00 645.00 266.13" xmlns="http://www.w3.org/2000/svg" xmlns:xlink="http://www.w3.org/1999/xlink">
<g id="graph0" class="graph" transform="scale(1 1) rotate(0) translate(4 262.13)">
<title>m_start_up::s_initialize_mpi_domain</title>
<!-- Node1 -->
<g id="Node000001" class="node">
<title>Node1</title>
<g id="a_Node000001"><a xlink:title=" ">
<polygon fill="#999999" stroke="#666666" points="130,-130.13 0,-130.13 0,-100.13 130,-100.13 130,-130.13"/>
<text text-anchor="start" x="8" y="-118.13" font-family="Helvetica,sans-Serif" font-size="10.00">m_start_up::s_initialize</text>
<text text-anchor="middle" x="65" y="-107.13" font-family="Helvetica,sans-Serif" font-size="10.00">_mpi_domain</text>
</a>
</g>
</g>
<!-- Node2 -->
<g id="Node000002" class="node">
<title>Node2</title>
<g id="a_Node000002"><a xlink:href="m__global__parameters_8fpp_8f90.html#a54a1a3a24f26619094bc5c33f56baeb4" target="_top" xlink:title="Assigns default values to the user inputs before reading them in. This enables for an easier consiste...">
<polygon fill="white" stroke="#666666" points="303.5,-258.13 167.5,-258.13 167.5,-228.13 303.5,-228.13 303.5,-258.13"/>
<text text-anchor="start" x="175.5" y="-246.13" font-family="Helvetica,sans-Serif" font-size="10.00">s_assign_default_values</text>
<text text-anchor="middle" x="235.5" y="-235.13" font-family="Helvetica,sans-Serif" font-size="10.00">_to_user_inputs</text>
</a>
</g>
</g>
<!-- Node1&#45;&gt;Node2 -->
<g id="edge1_Node000001_Node000002" class="edge">
<title>Node1&#45;&gt;Node2</title>
<g id="a_edge1_Node000001_Node000002"><a xlink:title=" ">
<path fill="none" stroke="#63b8ff" d="M76.9,-130.37C93.66,-152.79 127.86,-194.63 166,-219.13 168.44,-220.7 170.98,-222.17 173.61,-223.57"/>
<polygon fill="#63b8ff" stroke="#63b8ff" points="172.23,-226.79 182.76,-227.98 175.27,-220.48 172.23,-226.79"/>
</a>
</g>
</g>
<!-- Node3 -->
<g id="Node000003" class="node">
<title>Node3</title>
<g id="a_Node000003"><a xlink:href="namespacem__start__up.html#ab5f7e03f1da1999ee699cec4f26370e0" target="_top" xlink:title="The goal of this procedure is to verify that each of the user provided inputs is valid and that their...">
<polygon fill="white" stroke="#666666" points="293.5,-210.13 177.5,-210.13 177.5,-180.13 293.5,-180.13 293.5,-210.13"/>
<text text-anchor="start" x="185.5" y="-198.13" font-family="Helvetica,sans-Serif" font-size="10.00">m_start_up::s_check</text>
<text text-anchor="middle" x="235.5" y="-187.13" font-family="Helvetica,sans-Serif" font-size="10.00">_input_file</text>
</a>
</g>
</g>
<!-- Node1&#45;&gt;Node3 -->
<g id="edge2_Node000001_Node000003" class="edge">
<title>Node1&#45;&gt;Node3</title>
<g id="a_edge2_Node000001_Node000003"><a xlink:title=" ">
<path fill="none" stroke="#63b8ff" d="M90.04,-130.16C109.93,-142.2 139.16,-159.03 166,-171.13 170.05,-172.96 174.29,-174.74 178.58,-176.45"/>
<polygon fill="#63b8ff" stroke="#63b8ff" points="177.42,-179.76 188.01,-180.07 179.93,-173.22 177.42,-179.76"/>
</a>
</g>
</g>
<!-- Node7 -->
<g id="Node000007" class="node">
<title>Node7</title>
<g id="a_Node000007"><a xlink:href="m__global__parameters_8fpp_8f90.html#add437ef6eec863e07d01561d73628a27" target="_top" xlink:title="Initializes parallel infrastructure.">
<polygon fill="white" stroke="#666666" points="298,-161.63 173,-161.63 173,-142.63 298,-142.63 298,-161.63"/>
<text text-anchor="middle" x="235.5" y="-149.63" font-family="Helvetica,sans-Serif" font-size="10.00">s_initialize_parallel_io</text>
</a>
</g>
</g>
<!-- Node1&#45;&gt;Node7 -->
<g id="edge7_Node000001_Node000007" class="edge">
<title>Node1&#45;&gt;Node7</title>
<g id="a_edge7_Node000001_Node000007"><a xlink:title=" ">
<path fill="none" stroke="#63b8ff" d="M130.18,-129.23C147.05,-132.93 165.06,-136.89 181.28,-140.45"/>
<polygon fill="#63b8ff" stroke="#63b8ff" points="180.61,-143.88 191.12,-142.61 182.11,-137.05 180.61,-143.88"/>
</a>
</g>
</g>
<!-- Node8 -->
<g id="Node000008" class="node">
<title>Node8</title>
<g id="a_Node000008"><a xlink:href="m__mpi__proxy_8fpp_8f90.html#a04e8355f80d32fea464fe0a99076d891" target="_top" xlink:title="Since only the processor with rank 0 reads and verifies the consistency of user inputs,...">
<polygon fill="white" stroke="#666666" points="305,-124.63 166,-124.63 166,-105.63 305,-105.63 305,-124.63"/>
<text text-anchor="middle" x="235.5" y="-112.63" font-family="Helvetica,sans-Serif" font-size="10.00">s_mpi_bcast_user_inputs</text>
</a>
</g>
</g>
<!-- Node1&#45;&gt;Node8 -->
<g id="edge8_Node000001_Node000008" class="edge">
<title>Node1&#45;&gt;Node8</title>
<g id="a_edge8_Node000001_Node000008"><a xlink:title=" ">
<path fill="none" stroke="#63b8ff" d="M130.18,-115.13C138.45,-115.13 146.99,-115.13 155.46,-115.13"/>
<polygon fill="#63b8ff" stroke="#63b8ff" points="155.73,-118.63 165.73,-115.13 155.73,-111.63 155.73,-118.63"/>
</a>
</g>
</g>
<!-- Node9 -->
<g id="Node000009" class="node">
<title>Node9</title>
<g id="a_Node000009"><a xlink:href="m__mpi__proxy_8fpp_8f90.html#ada41964cbc5982321a9421444a0f3d54" target="_top" xlink:title="The purpose of this procedure is to optimally decompose the computational domain among the available ...">
<polygon fill="white" stroke="#666666" points="524,-96.13 341,-96.13 341,-66.13 524,-66.13 524,-96.13"/>
<text text-anchor="start" x="349" y="-84.13" font-family="Helvetica,sans-Serif" font-size="10.00">s_mpi_decompose_computational</text>
<text text-anchor="middle" x="432.5" y="-73.13" font-family="Helvetica,sans-Serif" font-size="10.00">_domain</text>
</a>
</g>
</g>
<!-- Node1&#45;&gt;Node9 -->
<g id="edge9_Node000001_Node000009" class="edge">
<title>Node1&#45;&gt;Node9</title>
<g id="a_edge9_Node000001_Node000009"><a xlink:title=" ">
<path fill="none" stroke="#63b8ff" d="M130.12,-102.44C142.01,-100.41 154.35,-98.53 166,-97.13 220.26,-90.64 281.1,-86.73 330.83,-84.4"/>
<polygon fill="#63b8ff" stroke="#63b8ff" points="331.11,-87.89 340.94,-83.94 330.79,-80.9 331.11,-87.89"/>
</a>
</g>
</g>
<!-- Node10 -->
<g id="Node000010" class="node">
<title>Node10</title>
<g id="a_Node000010"><a xlink:href="m__mpi__common_8fpp_8f90.html#a543ff7b2129040e637c1db749aa1a12d" target="_top" xlink:title="The subroutine intializes the MPI execution environment and queries both the number of processors whi...">
<polygon fill="white" stroke="#666666" points="282,-48.63 189,-48.63 189,-29.63 282,-29.63 282,-48.63"/>
<text text-anchor="middle" x="235.5" y="-36.63" font-family="Helvetica,sans-Serif" font-size="10.00">s_mpi_initialize</text>
</a>
</g>
</g>
<!-- Node1&#45;&gt;Node10 -->
<g id="edge11_Node000001_Node000010" class="edge">
<title>Node1&#45;&gt;Node10</title>
<g id="a_edge11_Node000001_Node000010"><a xlink:title=" ">
<path fill="none" stroke="#63b8ff" d="M92.66,-99.95C112.52,-88.96 140.5,-74.17 166,-63.13 175.1,-59.2 185.07,-55.41 194.53,-52.06"/>
<polygon fill="#63b8ff" stroke="#63b8ff" points="195.83,-55.32 204.13,-48.74 193.54,-48.7 195.83,-55.32"/>
</a>
</g>
</g>
<!-- Node11 -->
<g id="Node000011" class="node">
<title>Node11</title>
<g id="a_Node000011"><a xlink:href="namespacem__start__up.html#ae0571e78c0179c22d3811df31c33c321" target="_top" xlink:title="The purpose of this procedure is to first verify that an input file has been made available by the us...">
<polygon fill="white" stroke="#666666" points="487.5,-34.13 377.5,-34.13 377.5,-4.13 487.5,-4.13 487.5,-34.13"/>
<text text-anchor="start" x="385.5" y="-22.13" font-family="Helvetica,sans-Serif" font-size="10.00">m_start_up::s_read</text>
<text text-anchor="middle" x="432.5" y="-11.13" font-family="Helvetica,sans-Serif" font-size="10.00">_input_file</text>
</a>
</g>
</g>
<!-- Node1&#45;&gt;Node11 -->
<g id="edge12_Node000001_Node000011" class="edge">
<title>Node1&#45;&gt;Node11</title>
<g id="a_edge12_Node000001_Node000011"><a xlink:title=" ">
<path fill="none" stroke="#63b8ff" d="M76.1,-99.98C92.07,-77.54 125.56,-36.37 166,-20.13 230.83,5.89 311.96,1.45 367.37,-6.5"/>
<polygon fill="#63b8ff" stroke="#63b8ff" points="366.99,-9.99 377.4,-8.02 368.04,-3.06 366.99,-9.99"/>
</a>
</g>
</g>
<!-- Node4 -->
<g id="Node000004" class="node">
<title>Node4</title>
<g id="a_Node000004"><a xlink:href="namespacem__checker.html#af3af1277501908ef5a97721ebf04061f" target="_top" xlink:title=" ">
<polygon fill="white" stroke="#666666" points="489.5,-206.13 375.5,-206.13 375.5,-176.13 489.5,-176.13 489.5,-206.13"/>
<text text-anchor="start" x="383.5" y="-194.13" font-family="Helvetica,sans-Serif" font-size="10.00">m_checker::s_check</text>
<text text-anchor="middle" x="432.5" y="-183.13" font-family="Helvetica,sans-Serif" font-size="10.00">_inputs</text>
</a>
</g>
</g>
<!-- Node3&#45;&gt;Node4 -->
<g id="edge3_Node000003_Node000004" class="edge">
<title>Node3&#45;&gt;Node4</title>
<g id="a_edge3_Node000003_Node000004"><a xlink:title=" ">
<path fill="none" stroke="#63b8ff" d="M293.69,-193.96C316.11,-193.5 341.98,-192.97 365.2,-192.49"/>
<polygon fill="#63b8ff" stroke="#63b8ff" points="365.4,-195.99 375.32,-192.29 365.25,-188.99 365.4,-195.99"/>
</a>
</g>
</g>
<!-- Node6 -->
<g id="Node000006" class="node">
<title>Node6</title>
<g id="a_Node000006"><a xlink:href="m__mpi__common_8fpp_8f90.html#ad9e1329e498b65ad4256658675d6f797" target="_top" xlink:title="The subroutine terminates the MPI execution environment.">
<polygon fill="white" stroke="#666666" points="637,-128.63 560,-128.63 560,-109.63 637,-109.63 637,-128.63"/>
<text text-anchor="middle" x="598.5" y="-116.63" font-family="Helvetica,sans-Serif" font-size="10.00">s_mpi_abort</text>
</a>
</g>
</g>
<!-- Node3&#45;&gt;Node6 -->
<g id="edge6_Node000003_Node000006" class="edge">
<title>Node3&#45;&gt;Node6</title>
<g id="a_edge6_Node000003_Node000006"><a xlink:title=" ">
<path fill="none" stroke="#63b8ff" d="M289.47,-180.1C305.91,-175.65 324.15,-170.96 341,-167.13 413.48,-150.67 498.41,-135.59 550.06,-126.89"/>
<polygon fill="#63b8ff" stroke="#63b8ff" points="550.65,-130.34 559.93,-125.23 549.49,-123.43 550.65,-130.34"/>
</a>
</g>
</g>
<!-- Node5 -->
<g id="Node000005" class="node">
<title>Node5</title>
<g id="a_Node000005"><a xlink:href="m__helper_8fpp_8f90.html#a8a0505b2bd4f3d8cb2bf3ce16cfe01e3" target="_top" xlink:title=" ">
<polygon fill="white" stroke="#666666" points="635,-200.63 562,-200.63 562,-181.63 635,-181.63 635,-200.63"/>
<text text-anchor="middle" x="598.5" y="-188.63" font-family="Helvetica,sans-Serif" font-size="10.00">s_int_to_str</text>
</a>
</g>
</g>
<!-- Node4&#45;&gt;Node5 -->
<g id="edge4_Node000004_Node000005" class="edge">
<title>Node4&#45;&gt;Node5</title>
<g id="a_edge4_Node000004_Node000005"><a xlink:title=" ">
<path fill="none" stroke="#63b8ff" d="M489.94,-191.13C510.2,-191.13 532.78,-191.13 552,-191.13"/>
<polygon fill="#63b8ff" stroke="#63b8ff" points="552,-194.63 562,-191.13 552,-187.63 552,-194.63"/>
</a>
</g>
</g>
<!-- Node4&#45;&gt;Node6 -->
<g id="edge5_Node000004_Node000006" class="edge">
<title>Node4&#45;&gt;Node6</title>
<g id="a_edge5_Node000004_Node000006"><a xlink:title=" ">
<path fill="none" stroke="#63b8ff" d="M471.57,-176.12C487.81,-169.58 506.92,-161.68 524,-154.13 538.98,-147.51 555.46,-139.71 569.01,-133.16"/>
<polygon fill="#63b8ff" stroke="#63b8ff" points="570.83,-136.17 578.29,-128.64 567.77,-129.87 570.83,-136.17"/>
</a>
</g>
</g>
<!-- Node9&#45;&gt;Node6 -->
<g id="edge10_Node000009_Node000006" class="edge">
<title>Node9&#45;&gt;Node6</title>
<g id="a_edge10_Node000009_Node000006"><a xlink:title=" ">
<path fill="none" stroke="#63b8ff" d="M498.32,-96.15C515.36,-100.1 533.43,-104.29 549.42,-107.99"/>
<polygon fill="#63b8ff" stroke="#63b8ff" points="549.06,-111.5 559.59,-110.35 550.64,-104.68 549.06,-111.5"/>
</a>
</g>
</g>
<!-- Node11&#45;&gt;Node6 -->
<g id="edge13_Node000011_Node000006" class="edge">
<title>Node11&#45;&gt;Node6</title>
<g id="a_edge13_Node000011_Node000006"><a xlink:title=" ">
<path fill="none" stroke="#63b8ff" d="M476.71,-34.18C492.14,-40.34 509.32,-48.15 524,-57.13 544.95,-69.95 566.1,-88.52 580.29,-101.99"/>
<polygon fill="#63b8ff" stroke="#63b8ff" points="578.18,-104.81 587.8,-109.25 583.04,-99.78 578.18,-104.81"/>
</a>
</g>
</g>
</g>
</svg>
