<?xml version="1.0" encoding="UTF-8" standalone="no"?>
<!DOCTYPE svg PUBLIC "-//W3C//DTD SVG 1.1//EN"
 "http://www.w3.org/Graphics/SVG/1.1/DTD/svg11.dtd">
<!-- Generated by graphviz version 2.43.0 (0)
 -->
<!-- Title: m_cbc::s_cbc Pages: 1 -->
<!--zoomable 727 -->

<svg id="main" version="1.1" xmlns="http://www.w3.org/2000/svg" xmlns:xlink="http://www.w3.org/1999/xlink" xml:space="preserve" onload="init(evt)">
<style type="text/css"><![CDATA[
.node, .edge {opacity: 0.7;}
.node.selected, .edge.selected {opacity: 1;}
.edge:hover path { stroke: red; }
.edge:hover polygon { stroke: red; fill: red; }
]]></style>

<defs>
  <circle id="rim" cx="0" cy="0" r="7"/>
  <circle id="rim2" cx="0" cy="0" r="3.5"/>
  <g id="zoomPlus">
    <use xlink:href="#rim" fill="#404040"><set attributeName="fill" to="#808080" begin="zoomplus.mouseover" end="zoomplus.mouseout"/></use>
    <path d="M-4,0h8M0,-4v8" fill="none" stroke="white" stroke-width="1.5" pointer-events="none"/>
  </g>
  <g id="zoomMin">
    <use xlink:href="#rim" fill="#404040"><set attributeName="fill" to="#808080" begin="zoomminus.mouseover" end="zoomminus.mouseout"/></use>
    <path d="M-4,0h8" fill="none" stroke="white" stroke-width="1.5" pointer-events="none"/>
  </g>
  <g id="arrowUp" transform="translate(30 24)">
    <use xlink:href="#rim"/>
    <path pointer-events="none" fill="none" stroke="white" stroke-width="1.5" d="M0,-3.0v7 M-2.5,-0.5L0,-3.0L2.5,-0.5"/>
  </g>
  <g id="arrowRight" transform="rotate(90) translate(36 -43)">
    <use xlink:href="#rim"/>
    <path pointer-events="none" fill="none" stroke="white" stroke-width="1.5" d="M0,-3.0v7 M-2.5,-0.5L0,-3.0L2.5,-0.5"/>
  </g>
  <g id="arrowDown" transform="rotate(180) translate(-30 -48)">
    <use xlink:href="#rim"/>
    <path pointer-events="none" fill="none" stroke="white" stroke-width="1.5" d="M0,-3.0v7 M-2.5,-0.5L0,-3.0L2.5,-0.5"/>
  </g>
  <g id="arrowLeft" transform="rotate(270) translate(-36 17)">
    <use xlink:href="#rim"/>
    <path pointer-events="none" fill="none" stroke="white" stroke-width="1.5" d="M0,-3.0v7 M-2.5,-0.5L0,-3.0L2.5,-0.5"/>
  </g>
  <g id="resetDef">
    <use xlink:href="#rim2" fill="#404040"><set attributeName="fill" to="#808080" begin="reset.mouseover" end="reset.mouseout"/></use>
  </g>
</defs>
<script type="application/ecmascript">
var viewWidth = 506;
var viewHeight = 727;
var sectionId = 'dynsection-1';
</script>
<script type="application/ecmascript" xlink:href="svg.min.js"/>
<svg id="graph" class="graph">
<g id="viewport">
<title>m_cbc::s_cbc</title>
<!-- Node1 -->
<g id="Node000001" class="node">
<title>Node1</title>
<g id="a_Node000001"><a xlink:title="The following is the implementation of the CBC based on the work of Thompson (1987,...">
<polygon fill="#999999" stroke="#666666" points="81,-331 0,-331 0,-312 81,-312 81,-331"/>
<text text-anchor="middle" x="40.5" y="-319" font-family="Helvetica,sans-Serif" font-size="10.00">m_cbc::s_cbc</text>
</a>
</g>
</g>
<!-- Node2 -->
<g id="Node000002" class="node">
<title>Node2</title>
<g id="a_Node000002"><a xlink:href="namespacem__cbc.html#a0860f3f0c146b497f05ed57e07e0d4d9" target="_top" xlink:title=" ">
<polygon fill="white" stroke="#666666" points="274,-718.5 129,-718.5 129,-688.5 274,-688.5 274,-718.5"/>
<text text-anchor="start" x="137" y="-706.5" font-family="Helvetica,sans-Serif" font-size="10.00">m_cbc::s_associate</text>
<text text-anchor="middle" x="201.5" y="-695.5" font-family="Helvetica,sans-Serif" font-size="10.00">_cbc_coefficients_pointers</text>
</a>
</g>
</g>
<!-- Node1&#45;&gt;Node2 -->
<g id="edge1_Node000001_Node000002" class="edge">
<title>Node1&#45;&gt;Node2</title>
<g id="a_edge1_Node000001_Node000002"><a xlink:title=" ">
<path fill="none" stroke="#63b8ff" d="M42.22,-331.17C46.23,-382.87 67.57,-626.37 117,-679.5 118.2,-680.79 119.47,-682.01 120.79,-683.17"/>
<polygon fill="#63b8ff" stroke="#63b8ff" points="118.77,-686.04 128.91,-689.13 122.91,-680.39 118.77,-686.04"/>
</a>
</g>
</g>
<!-- Node3 -->
<g id="Node000003" class="node">
<title>Node3</title>
<g id="a_Node000003"><a xlink:href="namespacem__compute__cbc.html#a8786f79b77186724789f238652a74a47" target="_top" xlink:title="L variables for the constant pressure subsonic outflow CBC see pg. 455 Thompson (1990)....">
<polygon fill="white" stroke="#666666" points="281,-670 122,-670 122,-629 281,-629 281,-670"/>
<text text-anchor="start" x="130" y="-658" font-family="Helvetica,sans-Serif" font-size="10.00">m_compute_cbc::s_compute</text>
<text text-anchor="start" x="130" y="-647" font-family="Helvetica,sans-Serif" font-size="10.00">_constant_pressure_subsonic</text>
<text text-anchor="middle" x="201.5" y="-636" font-family="Helvetica,sans-Serif" font-size="10.00">_outflow_l</text>
</a>
</g>
</g>
<!-- Node1&#45;&gt;Node3 -->
<g id="edge2_Node000001_Node000003" class="edge">
<title>Node1&#45;&gt;Node3</title>
<g id="a_edge2_Node000001_Node000003"><a xlink:title=" ">
<path fill="none" stroke="#63b8ff" d="M42.74,-331.28C48.78,-377.66 76.56,-574.94 117,-619.5 117.9,-620.49 118.84,-621.46 119.81,-622.39"/>
<polygon fill="#63b8ff" stroke="#63b8ff" points="117.85,-625.3 127.81,-628.91 122.27,-619.88 117.85,-625.3"/>
</a>
</g>
</g>
<!-- Node4 -->
<g id="Node000004" class="node">
<title>Node4</title>
<g id="a_Node000004"><a xlink:href="namespacem__compute__cbc.html#a464cdf8e82aee66a294c38f9d0190711" target="_top" xlink:title="The L variables for the force&#45;free subsonic outflow CBC, see pg. 454 of Thompson (1990)....">
<polygon fill="white" stroke="#666666" points="286,-610.5 117,-610.5 117,-580.5 286,-580.5 286,-610.5"/>
<text text-anchor="start" x="125" y="-598.5" font-family="Helvetica,sans-Serif" font-size="10.00">m_compute_cbc::s_compute</text>
<text text-anchor="middle" x="201.5" y="-587.5" font-family="Helvetica,sans-Serif" font-size="10.00">_force_free_subsonic_outflow_l</text>
</a>
</g>
</g>
<!-- Node1&#45;&gt;Node4 -->
<g id="edge3_Node000001_Node000004" class="edge">
<title>Node1&#45;&gt;Node4</title>
<g id="a_edge3_Node000001_Node000004"><a xlink:title=" ">
<path fill="none" stroke="#63b8ff" d="M41.35,-331.03C41.29,-367.78 46.16,-501.6 117,-571.5 117.97,-572.45 118.97,-573.37 120,-574.25"/>
<polygon fill="#63b8ff" stroke="#63b8ff" points="118.31,-577.34 128.48,-580.32 122.38,-571.65 118.31,-577.34"/>
</a>
</g>
</g>
<!-- Node5 -->
<g id="Node000005" class="node">
<title>Node5</title>
<g id="a_Node000005"><a xlink:href="namespacem__compute__cbc.html#a4413e05fc457a989abc1837a3e840fad" target="_top" xlink:title="The L variables for the nonreflecting subsonic buffer CBC see pg. 13 of Thompson (1987)....">
<polygon fill="white" stroke="#666666" points="279,-562 124,-562 124,-521 279,-521 279,-562"/>
<text text-anchor="start" x="132" y="-550" font-family="Helvetica,sans-Serif" font-size="10.00">m_compute_cbc::s_compute</text>
<text text-anchor="start" x="132" y="-539" font-family="Helvetica,sans-Serif" font-size="10.00">_nonreflecting_subsonic</text>
<text text-anchor="middle" x="201.5" y="-528" font-family="Helvetica,sans-Serif" font-size="10.00">_buffer_l</text>
</a>
</g>
</g>
<!-- Node1&#45;&gt;Node5 -->
<g id="edge4_Node000001_Node000005" class="edge">
<title>Node1&#45;&gt;Node5</title>
<g id="a_edge4_Node000001_Node000005"><a xlink:title=" ">
<path fill="none" stroke="#63b8ff" d="M42.53,-331.41C46.32,-362.62 62.18,-459.94 117,-512.5 117.8,-513.27 118.63,-514.02 119.47,-514.75"/>
<polygon fill="#63b8ff" stroke="#63b8ff" points="117.45,-517.61 127.55,-520.8 121.64,-512 117.45,-517.61"/>
</a>
</g>
</g>
<!-- Node6 -->
<g id="Node000006" class="node">
<title>Node6</title>
<g id="a_Node000006"><a xlink:href="namespacem__compute__cbc.html#a83da311a28959910c7bfa956c1f56b62" target="_top" xlink:title="The L variables for the nonreflecting subsonic inflow CBC see pg. 455, Thompson (1990)....">
<polygon fill="white" stroke="#666666" points="279,-503 124,-503 124,-462 279,-462 279,-503"/>
<text text-anchor="start" x="132" y="-491" font-family="Helvetica,sans-Serif" font-size="10.00">m_compute_cbc::s_compute</text>
<text text-anchor="start" x="132" y="-480" font-family="Helvetica,sans-Serif" font-size="10.00">_nonreflecting_subsonic</text>
<text text-anchor="middle" x="201.5" y="-469" font-family="Helvetica,sans-Serif" font-size="10.00">_inflow_l</text>
</a>
</g>
</g>
<!-- Node1&#45;&gt;Node6 -->
<g id="edge5_Node000001_Node000006" class="edge">
<title>Node1&#45;&gt;Node6</title>
<g id="a_edge5_Node000001_Node000006"><a xlink:title=" ">
<path fill="none" stroke="#63b8ff" d="M44.34,-331.01C51.99,-355.08 75.35,-418.94 117,-453.5 118.18,-454.48 119.4,-455.43 120.64,-456.34"/>
<polygon fill="#63b8ff" stroke="#63b8ff" points="118.98,-459.43 129.27,-461.95 122.79,-453.57 118.98,-459.43"/>
</a>
</g>
</g>
<!-- Node7 -->
<g id="Node000007" class="node">
<title>Node7</title>
<g id="a_Node000007"><a xlink:href="namespacem__compute__cbc.html#a1f0ea4a8b8cca03dcb25273ff4671ed1" target="_top" xlink:title="The L variables for the nonreflecting subsonic outflow CBC see pg. 454 of Thompson (1990)....">
<polygon fill="white" stroke="#666666" points="279,-444 124,-444 124,-403 279,-403 279,-444"/>
<text text-anchor="start" x="132" y="-432" font-family="Helvetica,sans-Serif" font-size="10.00">m_compute_cbc::s_compute</text>
<text text-anchor="start" x="132" y="-421" font-family="Helvetica,sans-Serif" font-size="10.00">_nonreflecting_subsonic</text>
<text text-anchor="middle" x="201.5" y="-410" font-family="Helvetica,sans-Serif" font-size="10.00">_outflow_l</text>
</a>
</g>
</g>
<!-- Node1&#45;&gt;Node7 -->
<g id="edge6_Node000001_Node000007" class="edge">
<title>Node1&#45;&gt;Node7</title>
<g id="a_edge6_Node000001_Node000007"><a xlink:title=" ">
<path fill="none" stroke="#63b8ff" d="M49.33,-331.23C62.05,-346.45 88.65,-375.99 117,-393.5 119.82,-395.24 122.75,-396.9 125.76,-398.48"/>
<polygon fill="#63b8ff" stroke="#63b8ff" points="124.46,-401.74 134.98,-402.98 127.53,-395.45 124.46,-401.74"/>
</a>
</g>
</g>
<!-- Node8 -->
<g id="Node000008" class="node">
<title>Node8</title>
<g id="a_Node000008"><a xlink:href="namespacem__compute__cbc.html#a8bc20ac103228a5f5854c78781f9a3cc" target="_top" xlink:title="The L variables for the slip wall CBC, see pg. 451 of Thompson (1990). At the slip wall (frictionless...">
<polygon fill="white" stroke="#666666" points="279,-384.5 124,-384.5 124,-354.5 279,-354.5 279,-384.5"/>
<text text-anchor="start" x="132" y="-372.5" font-family="Helvetica,sans-Serif" font-size="10.00">m_compute_cbc::s_compute</text>
<text text-anchor="middle" x="201.5" y="-361.5" font-family="Helvetica,sans-Serif" font-size="10.00">_slip_wall_l</text>
</a>
</g>
</g>
<!-- Node1&#45;&gt;Node8 -->
<g id="edge7_Node000001_Node000008" class="edge">
<title>Node1&#45;&gt;Node8</title>
<g id="a_edge7_Node000001_Node000008"><a xlink:title=" ">
<path fill="none" stroke="#63b8ff" d="M70.84,-331.04C84.8,-335.52 101.73,-340.88 117,-345.5 123.6,-347.5 130.5,-349.54 137.38,-351.56"/>
<polygon fill="#63b8ff" stroke="#63b8ff" points="136.85,-355.05 147.43,-354.49 138.81,-348.33 136.85,-355.05"/>
</a>
</g>
</g>
<!-- Node9 -->
<g id="Node000009" class="node">
<title>Node9</title>
<g id="a_Node000009"><a xlink:href="namespacem__cbc.html#ab28553bfffb2974f19d2dc68847ae8d4" target="_top" xlink:title=" ">
<polygon fill="white" stroke="#666666" points="272.5,-336.5 130.5,-336.5 130.5,-306.5 272.5,-306.5 272.5,-336.5"/>
<text text-anchor="start" x="138.5" y="-324.5" font-family="Helvetica,sans-Serif" font-size="10.00">m_cbc::s_compute_speed</text>
<text text-anchor="middle" x="201.5" y="-313.5" font-family="Helvetica,sans-Serif" font-size="10.00">_of_sound</text>
</a>
</g>
</g>
<!-- Node1&#45;&gt;Node9 -->
<g id="edge8_Node000001_Node000009" class="edge">
<title>Node1&#45;&gt;Node9</title>
<g id="a_edge8_Node000001_Node000009"><a xlink:title=" ">
<path fill="none" stroke="#63b8ff" d="M81.21,-321.5C93.09,-321.5 106.56,-321.5 120.06,-321.5"/>
<polygon fill="#63b8ff" stroke="#63b8ff" points="120.37,-325 130.37,-321.5 120.37,-318 120.37,-325"/>
</a>
</g>
</g>
<!-- Node10 -->
<g id="Node000010" class="node">
<title>Node10</title>
<g id="a_Node000010"><a xlink:href="namespacem__compute__cbc.html#a2eafc57dabbcb291bc86e9895d6fc918" target="_top" xlink:title="L variables for the supersonic inflow CBC, see pg. 453 Thompson (1990). The supersonic inflow CBC is ...">
<polygon fill="white" stroke="#666666" points="279,-288.5 124,-288.5 124,-258.5 279,-258.5 279,-288.5"/>
<text text-anchor="start" x="132" y="-276.5" font-family="Helvetica,sans-Serif" font-size="10.00">m_compute_cbc::s_compute</text>
<text text-anchor="middle" x="201.5" y="-265.5" font-family="Helvetica,sans-Serif" font-size="10.00">_supersonic_inflow_l</text>
</a>
</g>
</g>
<!-- Node1&#45;&gt;Node10 -->
<g id="edge9_Node000001_Node000010" class="edge">
<title>Node1&#45;&gt;Node10</title>
<g id="a_edge9_Node000001_Node000010"><a xlink:title=" ">
<path fill="none" stroke="#63b8ff" d="M70.84,-311.96C84.8,-307.48 101.73,-302.12 117,-297.5 123.6,-295.5 130.5,-293.46 137.38,-291.44"/>
<polygon fill="#63b8ff" stroke="#63b8ff" points="138.81,-294.67 147.43,-288.51 136.85,-287.95 138.81,-294.67"/>
</a>
</g>
</g>
<!-- Node11 -->
<g id="Node000011" class="node">
<title>Node11</title>
<g id="a_Node000011"><a xlink:href="namespacem__compute__cbc.html#a2540ddd993a9852241a2d40168608fd4" target="_top" xlink:title="L variables for the supersonic outflow CBC, see pg. 453 of Thompson (1990). For the supersonic outflo...">
<polygon fill="white" stroke="#666666" points="279,-240.5 124,-240.5 124,-210.5 279,-210.5 279,-240.5"/>
<text text-anchor="start" x="132" y="-228.5" font-family="Helvetica,sans-Serif" font-size="10.00">m_compute_cbc::s_compute</text>
<text text-anchor="middle" x="201.5" y="-217.5" font-family="Helvetica,sans-Serif" font-size="10.00">_supersonic_outflow_l</text>
</a>
</g>
</g>
<!-- Node1&#45;&gt;Node11 -->
<g id="edge10_Node000001_Node000011" class="edge">
<title>Node1&#45;&gt;Node11</title>
<g id="a_edge10_Node000001_Node000011"><a xlink:title=" ">
<path fill="none" stroke="#63b8ff" d="M49.2,-311.55C61.74,-296.02 88.09,-266.08 117,-249.5 120.04,-247.76 123.21,-246.14 126.46,-244.62"/>
<polygon fill="#63b8ff" stroke="#63b8ff" points="127.99,-247.78 135.83,-240.65 125.26,-241.33 127.99,-247.78"/>
</a>
</g>
</g>
<!-- Node12 -->
<g id="Node000012" class="node">
<title>Node12</title>
<g id="a_Node000012"><a xlink:href="namespacem__variables__conversion.html#a103ba56044f0a89e365ed91ca11eb38a" target="_top" xlink:title="The following subroutine handles the conversion between the primitive variables and the Eulerian flux...">
<polygon fill="white" stroke="#666666" points="269,-154 134,-154 134,-113 269,-113 269,-154"/>
<text text-anchor="start" x="142" y="-142" font-family="Helvetica,sans-Serif" font-size="10.00">m_variables_conversion</text>
<text text-anchor="start" x="142" y="-131" font-family="Helvetica,sans-Serif" font-size="10.00">::s_convert_primitive</text>
<text text-anchor="middle" x="201.5" y="-120" font-family="Helvetica,sans-Serif" font-size="10.00">_to_flux_variables</text>
</a>
</g>
</g>
<!-- Node1&#45;&gt;Node12 -->
<g id="edge11_Node000001_Node000012" class="edge">
<title>Node1&#45;&gt;Node12</title>
<g id="a_edge11_Node000001_Node000012"><a xlink:title=" ">
<path fill="none" stroke="#63b8ff" d="M43.73,-311.83C50.33,-285.33 72.12,-210.71 117,-168.5 120.54,-165.18 124.43,-162.14 128.55,-159.38"/>
<polygon fill="#63b8ff" stroke="#63b8ff" points="130.55,-162.27 137.28,-154.09 126.91,-156.28 130.55,-162.27"/>
</a>
</g>
</g>
<!-- Node13 -->
<g id="Node000013" class="node">
<title>Node13</title>
<g id="a_Node000013"><a xlink:href="namespacem__variables__conversion.html#a0e52444cc72f2fd0ea3a6d3543cfa32e" target="_top" xlink:title=" ">
<polygon fill="white" stroke="#666666" points="477.5,-193 342.5,-193 342.5,-152 477.5,-152 477.5,-193"/>
<text text-anchor="start" x="350.5" y="-181" font-family="Helvetica,sans-Serif" font-size="10.00">m_variables_conversion</text>
<text text-anchor="start" x="350.5" y="-170" font-family="Helvetica,sans-Serif" font-size="10.00">::s_convert_species_to</text>
<text text-anchor="middle" x="410" y="-159" font-family="Helvetica,sans-Serif" font-size="10.00">_mixture_variables_acc</text>
</a>
</g>
</g>
<!-- Node1&#45;&gt;Node13 -->
<g id="edge14_Node000001_Node000013" class="edge">
<title>Node1&#45;&gt;Node13</title>
<g id="a_edge14_Node000001_Node000013"><a xlink:title=" ">
<path fill="none" stroke="#63b8ff" d="M44.29,-311.93C51.71,-288.43 74.3,-227.92 117,-201.5 151.81,-179.96 257.97,-174.04 332.19,-172.61"/>
<polygon fill="#63b8ff" stroke="#63b8ff" points="332.5,-176.11 342.44,-172.44 332.38,-169.11 332.5,-176.11"/>
</a>
</g>
</g>
<!-- Node14 -->
<g id="Node000014" class="node">
<title>Node14</title>
<g id="a_Node000014"><a xlink:href="namespacem__variables__conversion.html#a8c5b7c732af2020216749229776452c3" target="_top" xlink:title=" ">
<polygon fill="white" stroke="#666666" points="498,-124 322,-124 322,-83 498,-83 498,-124"/>
<text text-anchor="start" x="330" y="-112" font-family="Helvetica,sans-Serif" font-size="10.00">m_variables_conversion</text>
<text text-anchor="start" x="330" y="-101" font-family="Helvetica,sans-Serif" font-size="10.00">::s_convert_species_to</text>
<text text-anchor="middle" x="410" y="-90" font-family="Helvetica,sans-Serif" font-size="10.00">_mixture_variables_bubbles_acc</text>
</a>
</g>
</g>
<!-- Node1&#45;&gt;Node14 -->
<g id="edge15_Node000001_Node000014" class="edge">
<title>Node1&#45;&gt;Node14</title>
<g id="a_edge15_Node000001_Node000014"><a xlink:title=" ">
<path fill="none" stroke="#63b8ff" d="M41.3,-311.86C41.13,-276.62 45.87,-154.14 117,-103.5 178.74,-59.54 267.95,-66.93 331.5,-80.68"/>
<polygon fill="#63b8ff" stroke="#63b8ff" points="330.94,-84.14 341.47,-82.93 332.49,-77.31 330.94,-84.14"/>
</a>
</g>
</g>
<!-- Node15 -->
<g id="Node000015" class="node">
<title>Node15</title>
<g id="a_Node000015"><a xlink:href="namespacem__cbc.html#a8d4bf0d35fea6a2aed9771ce39dc651c" target="_top" xlink:title="Deallocation and/or the disassociation procedures that are necessary in order to finalize the CBC app...">
<polygon fill="white" stroke="#666666" points="262.5,-56 140.5,-56 140.5,-37 262.5,-37 262.5,-56"/>
<text text-anchor="middle" x="201.5" y="-44" font-family="Helvetica,sans-Serif" font-size="10.00">m_cbc::s_finalize_cbc</text>
</a>
</g>
</g>
<!-- Node1&#45;&gt;Node15 -->
<g id="edge16_Node000001_Node000015" class="edge">
<title>Node1&#45;&gt;Node15</title>
<g id="a_edge16_Node000001_Node000015"><a xlink:title=" ">
<path fill="none" stroke="#63b8ff" d="M41.33,-311.93C41.23,-275.04 45.94,-140.69 117,-70.5 121.19,-66.36 126.05,-62.92 131.28,-60.07"/>
<polygon fill="#63b8ff" stroke="#63b8ff" points="132.79,-63.22 140.36,-55.81 129.82,-56.89 132.79,-63.22"/>
</a>
</g>
</g>
<!-- Node16 -->
<g id="Node000016" class="node">
<title>Node16</title>
<g id="a_Node000016"><a xlink:href="namespacem__cbc.html#ae32673f5dc3342969a7b48e4348271eb" target="_top" xlink:title="The computation of parameters, the allocation of memory, the association of pointers and/or the execu...">
<polygon fill="white" stroke="#666666" points="265.5,-19 137.5,-19 137.5,0 265.5,0 265.5,-19"/>
<text text-anchor="middle" x="201.5" y="-7" font-family="Helvetica,sans-Serif" font-size="10.00">m_cbc::s_initialize_cbc</text>
</a>
</g>
</g>
<!-- Node1&#45;&gt;Node16 -->
<g id="edge17_Node000001_Node000016" class="edge">
<title>Node1&#45;&gt;Node16</title>
<g id="a_edge17_Node000001_Node000016"><a xlink:title=" ">
<path fill="none" stroke="#63b8ff" d="M42.64,-311.73C48.21,-265.43 74.17,-68.69 117,-27.5 120.34,-24.29 124.1,-21.6 128.14,-19.34"/>
<polygon fill="#63b8ff" stroke="#63b8ff" points="129.76,-22.45 137.36,-15.07 126.82,-16.1 129.76,-22.45"/>
</a>
</g>
</g>
<!-- Node12&#45;&gt;Node13 -->
<g id="edge12_Node000012_Node000013" class="edge">
<title>Node12&#45;&gt;Node13</title>
<g id="a_edge12_Node000012_Node000013"><a xlink:title=" ">
<path fill="none" stroke="#63b8ff" d="M269.26,-146.11C289.41,-149.91 311.69,-154.12 332.43,-158.04"/>
<polygon fill="#63b8ff" stroke="#63b8ff" points="331.99,-161.52 342.47,-159.94 333.29,-154.64 331.99,-161.52"/>
</a>
</g>
</g>
<!-- Node12&#45;&gt;Node14 -->
<g id="edge13_Node000012_Node000014" class="edge">
<title>Node12&#45;&gt;Node14</title>
<g id="a_edge13_Node000012_Node000014"><a xlink:title=" ">
<path fill="none" stroke="#63b8ff" d="M269.26,-123.8C282.85,-121.83 297.42,-119.71 311.82,-117.62"/>
<polygon fill="#63b8ff" stroke="#63b8ff" points="312.37,-121.08 321.76,-116.17 311.36,-114.15 312.37,-121.08"/>
</a>
</g>
</g>
</g>
</svg>

<g id="navigator" transform="translate(0 0)" fill="#404254">
  <rect fill="#f2f5e9" fill-opacity="0.5" stroke="#606060" stroke-width=".5" x="0" y="0" width="60" height="60"/>
  <use id="zoomplus" xlink:href="#zoomPlus" x="17" y="9" onmousedown="handleZoom(evt,'in')"/>
  <use id="zoomminus" xlink:href="#zoomMin" x="42" y="9" onmousedown="handleZoom(evt,'out')"/>
  <use id="reset" xlink:href="#resetDef" x="30" y="36" onmousedown="handleReset()"/>
   <use id="arrowup" xlink:href="#arrowUp" x="0" y="0" onmousedown="handlePan(0,-1)"/>
  <use id="arrowright" xlink:href="#arrowRight" x="0" y="0" onmousedown="handlePan(1,0)"/>
  <use id="arrowdown" xlink:href="#arrowDown" x="0" y="0" onmousedown="handlePan(0,1)"/>
  <use id="arrowleft" xlink:href="#arrowLeft" x="0" y="0" onmousedown="handlePan(-1,0)"/>
</g>
<svg viewBox="0 0 15 15" width="100%" height="30px" preserveAspectRatio="xMaxYMin meet">
 <g id="arrow_out" transform="scale(0.3 0.3)">
  <a xlink:href="namespacem__cbc_a1463206b8a0492feba405c93fbdc1929_cgraph_org.svg" target="_base">
   <rect id="button" ry="5" rx="5" y="6" x="6" height="38" width="38"
        fill="#f2f5e9" fill-opacity="0.5" stroke="#606060" stroke-width="1.0"/>
   <path id="arrow"
     d="M 11.500037,31.436501 C 11.940474,20.09759 22.043105,11.32322 32.158766,21.979434 L 37.068811,17.246167 C 37.068811,17.246167 37.088388,32 37.088388,32 L 22.160133,31.978069 C 22.160133,31.978069 26.997745,27.140456 26.997745,27.140456 C 18.528582,18.264221 13.291696,25.230495 11.500037,31.436501 z"
     style="fill:#404040;"/>
  </a>
 </g>
</svg>

<style type='text/css'>
<![CDATA[
[data-mouse-over-selected='false'] { opacity: 0.7; }
[data-mouse-over-selected='true']  { opacity: 1.0; }
]]>
</style>
<script type="application/ecmascript"><![CDATA[
document.addEventListener('DOMContentLoaded', (event) => {
  highlightEdges();
  highlightAdjacentNodes();
});
]]></script>
</svg>
