<?xml version="1.0" encoding="UTF-8" standalone="no"?>
<!DOCTYPE svg PUBLIC "-//W3C//DTD SVG 1.1//EN"
 "http://www.w3.org/Graphics/SVG/1.1/DTD/svg11.dtd">
<!-- Generated by graphviz version 2.43.0 (0)
 -->
<!-- Title: m_data_output::s_write_run_time_information Pages: 1 -->
<svg width="315pt" height="146pt"
 viewBox="0.00 0.00 315.00 145.50" xmlns="http://www.w3.org/2000/svg" xmlns:xlink="http://www.w3.org/1999/xlink">
<g id="graph0" class="graph" transform="scale(1 1) rotate(0) translate(4 141.5)">
<title>m_data_output::s_write_run_time_information</title>
<!-- Node1 -->
<g id="node1" class="node">
<title>Node1</title>
<g id="a_node1"><a xlink:title="The goal of the procedure is to output to the run&#45;time information file the stability criteria extrem...">
<polygon fill="#999999" stroke="#666666" points="131,-89.5 0,-89.5 0,-59.5 131,-59.5 131,-89.5"/>
<text text-anchor="start" x="8" y="-77.5" font-family="Helvetica,sans-Serif" font-size="10.00">m_data_output::s_write</text>
<text text-anchor="middle" x="65.5" y="-66.5" font-family="Helvetica,sans-Serif" font-size="10.00">_run_time_information</text>
</a>
</g>
</g>
<!-- Node2 -->
<g id="node2" class="node">
<title>Node2</title>
<g id="a_node2"><a xlink:href="namespacem__mpi__proxy.html#a04ac565bad2b22dc045a5eeb4f516e2e" target="_top" xlink:title="The subroutine terminates the MPI execution environment.">
<polygon fill="white" stroke="#666666" points="296,-137.5 178,-137.5 178,-107.5 296,-107.5 296,-137.5"/>
<text text-anchor="start" x="186" y="-125.5" font-family="Helvetica,sans-Serif" font-size="10.00">m_mpi_proxy::s_mpi</text>
<text text-anchor="middle" x="237" y="-114.5" font-family="Helvetica,sans-Serif" font-size="10.00">_abort</text>
</a>
</g>
</g>
<!-- Node1&#45;&gt;Node2 -->
<g id="edge1" class="edge">
<title>Node1&#45;&gt;Node2</title>
<path fill="none" stroke="#63b8ff" d="M119.67,-89.56C136.7,-94.38 155.73,-99.77 173.38,-104.77"/>
<polygon fill="#63b8ff" stroke="#63b8ff" points="172.45,-108.14 183.02,-107.5 174.35,-101.41 172.45,-108.14"/>
</g>
<!-- Node3 -->
<g id="node3" class="node">
<title>Node3</title>
<g id="a_node3"><a xlink:href="namespacem__mpi__proxy.html#abfbc42cea69273bc9fa4a2d78f636eb1" target="_top" xlink:title="Halts all processes until all have reached barrier.">
<polygon fill="white" stroke="#666666" points="296,-89.5 178,-89.5 178,-59.5 296,-59.5 296,-89.5"/>
<text text-anchor="start" x="186" y="-77.5" font-family="Helvetica,sans-Serif" font-size="10.00">m_mpi_proxy::s_mpi</text>
<text text-anchor="middle" x="237" y="-66.5" font-family="Helvetica,sans-Serif" font-size="10.00">_barrier</text>
</a>
</g>
</g>
<!-- Node1&#45;&gt;Node3 -->
<g id="edge2" class="edge">
<title>Node1&#45;&gt;Node3</title>
<path fill="none" stroke="#63b8ff" d="M131.06,-74.5C143.05,-74.5 155.61,-74.5 167.7,-74.5"/>
<polygon fill="#63b8ff" stroke="#63b8ff" points="167.73,-78 177.73,-74.5 167.73,-71 167.73,-78"/>
</g>
<!-- Node4 -->
<g id="node4" class="node">
<title>Node4</title>
<g id="a_node4"><a xlink:href="namespacem__mpi__proxy.html#a05e935f1245bfa87c7618e2aa6948893" target="_top" xlink:title="The goal of this subroutine is to determine the global extrema of the stability criteria in the compu...">
<polygon fill="white" stroke="#666666" points="307,-41 167,-41 167,0 307,0 307,-41"/>
<text text-anchor="start" x="175" y="-29" font-family="Helvetica,sans-Serif" font-size="10.00">m_mpi_proxy::s_mpi</text>
<text text-anchor="start" x="175" y="-18" font-family="Helvetica,sans-Serif" font-size="10.00">_reduce_stability_criteria</text>
<text text-anchor="middle" x="237" y="-7" font-family="Helvetica,sans-Serif" font-size="10.00">_extrema</text>
</a>
</g>
</g>
<!-- Node1&#45;&gt;Node4 -->
<g id="edge3" class="edge">
<title>Node1&#45;&gt;Node4</title>
<path fill="none" stroke="#63b8ff" d="M113.72,-59.46C128.7,-54.68 145.65,-49.28 162.05,-44.06"/>
<polygon fill="#63b8ff" stroke="#63b8ff" points="163.15,-47.38 171.62,-41.01 161.03,-40.71 163.15,-47.38"/>
</g>
</g>
</svg>
