<?xml version="1.0" encoding="UTF-8" standalone="no"?>
<!DOCTYPE svg PUBLIC "-//W3C//DTD SVG 1.1//EN"
 "http://www.w3.org/Graphics/SVG/1.1/DTD/svg11.dtd">
<!-- Generated by graphviz version 2.43.0 (0)
 -->
<!-- Title: m_derived_variables::s_derive_higher_moments Pages: 1 -->
<svg width="511pt" height="134pt"
 viewBox="0.00 0.00 511.00 134.00" xmlns="http://www.w3.org/2000/svg" xmlns:xlink="http://www.w3.org/1999/xlink">
<g id="graph0" class="graph" transform="scale(1 1) rotate(0) translate(4 130)">
<title>m_derived_variables::s_derive_higher_moments</title>
<!-- Node1 -->
<g id="node1" class="node">
<title>Node1</title>
<g id="a_node1"><a xlink:title="Subroutine to compute the higher moments in an attempt to find the maximal size of the droplet.">
<polygon fill="#999999" stroke="#666666" points="152,-78 0,-78 0,-48 152,-48 152,-78"/>
<text text-anchor="start" x="8" y="-66" font-family="Helvetica,sans-Serif" font-size="10.00">m_derived_variables</text>
<text text-anchor="middle" x="76" y="-55" font-family="Helvetica,sans-Serif" font-size="10.00">::s_derive_higher_moments</text>
</a>
</g>
</g>
<!-- Node2 -->
<g id="node2" class="node">
<title>Node2</title>
<g id="a_node2"><a xlink:href="namespacem__mpi__proxy.html#a04ac565bad2b22dc045a5eeb4f516e2e" target="_top" xlink:title="The subroutine terminates the MPI execution environment.">
<polygon fill="white" stroke="#666666" points="327.5,-126 209.5,-126 209.5,-96 327.5,-96 327.5,-126"/>
<text text-anchor="start" x="217.5" y="-114" font-family="Helvetica,sans-Serif" font-size="10.00">m_mpi_proxy::s_mpi</text>
<text text-anchor="middle" x="268.5" y="-103" font-family="Helvetica,sans-Serif" font-size="10.00">_abort</text>
</a>
</g>
</g>
<!-- Node1&#45;&gt;Node2 -->
<g id="edge1" class="edge">
<title>Node1&#45;&gt;Node2</title>
<path fill="none" stroke="#63b8ff" d="M136.75,-78.06C156.63,-83.06 178.92,-88.68 199.38,-93.84"/>
<polygon fill="#63b8ff" stroke="#63b8ff" points="198.71,-97.28 209.26,-96.33 200.42,-90.49 198.71,-97.28"/>
</g>
<!-- Node3 -->
<g id="node3" class="node">
<title>Node3</title>
<g id="a_node3"><a xlink:href="namespacem__derived__variables.html#a2ee18c156bb444c6ab73d4762960ef67" target="_top" xlink:title="Compute non&#45;symmetric moments.">
<polygon fill="white" stroke="#666666" points="349,-78 188,-78 188,-48 349,-48 349,-78"/>
<text text-anchor="start" x="196" y="-66" font-family="Helvetica,sans-Serif" font-size="10.00">m_derived_variables</text>
<text text-anchor="middle" x="268.5" y="-55" font-family="Helvetica,sans-Serif" font-size="10.00">::s_non_symmetric_moments</text>
</a>
</g>
</g>
<!-- Node1&#45;&gt;Node3 -->
<g id="edge2" class="edge">
<title>Node1&#45;&gt;Node3</title>
<path fill="none" stroke="#63b8ff" d="M152.02,-63C160.47,-63 169.15,-63 177.77,-63"/>
<polygon fill="#63b8ff" stroke="#63b8ff" points="177.85,-66.5 187.85,-63 177.85,-59.5 177.85,-66.5"/>
</g>
<!-- Node5 -->
<g id="node5" class="node">
<title>Node5</title>
<g id="a_node5"><a xlink:href="namespacem__derived__variables.html#ade52fa354cc5b681c4d6ef6fc8b2c61b" target="_top" xlink:title="Compute symmetric moments.">
<polygon fill="white" stroke="#666666" points="337,-30 200,-30 200,0 337,0 337,-30"/>
<text text-anchor="start" x="208" y="-18" font-family="Helvetica,sans-Serif" font-size="10.00">m_derived_variables</text>
<text text-anchor="middle" x="268.5" y="-7" font-family="Helvetica,sans-Serif" font-size="10.00">::s_symmetric_moments</text>
</a>
</g>
</g>
<!-- Node1&#45;&gt;Node5 -->
<g id="edge4" class="edge">
<title>Node1&#45;&gt;Node5</title>
<path fill="none" stroke="#63b8ff" d="M136.75,-47.94C156.26,-43.03 178.08,-37.53 198.22,-32.46"/>
<polygon fill="#63b8ff" stroke="#63b8ff" points="199.12,-35.84 207.96,-30 197.41,-29.05 199.12,-35.84"/>
</g>
<!-- Node4 -->
<g id="node4" class="node">
<title>Node4</title>
<g id="a_node4"><a xlink:href="namespacem__mpi__proxy.html#a873520062481f3dabcfa77f9bd7728d3" target="_top" xlink:title="The following subroutine takes the input local variable from all processors and reduces to the sum of...">
<polygon fill="white" stroke="#666666" points="503,-54 385,-54 385,-24 503,-24 503,-54"/>
<text text-anchor="start" x="393" y="-42" font-family="Helvetica,sans-Serif" font-size="10.00">m_mpi_proxy::s_mpi</text>
<text text-anchor="middle" x="444" y="-31" font-family="Helvetica,sans-Serif" font-size="10.00">_allreduce_sum</text>
</a>
</g>
</g>
<!-- Node3&#45;&gt;Node4 -->
<g id="edge3" class="edge">
<title>Node3&#45;&gt;Node4</title>
<path fill="none" stroke="#63b8ff" d="M349.14,-51.98C357.69,-50.8 366.33,-49.61 374.73,-48.44"/>
<polygon fill="#63b8ff" stroke="#63b8ff" points="375.41,-51.88 384.84,-47.05 374.45,-44.95 375.41,-51.88"/>
</g>
<!-- Node5&#45;&gt;Node4 -->
<g id="edge5" class="edge">
<title>Node5&#45;&gt;Node4</title>
<path fill="none" stroke="#63b8ff" d="M337.08,-24.35C349.42,-26.05 362.3,-27.84 374.66,-29.55"/>
<polygon fill="#63b8ff" stroke="#63b8ff" points="374.51,-33.06 384.9,-30.96 375.47,-26.13 374.51,-33.06"/>
</g>
</g>
</svg>
