<?xml version="1.0" encoding="UTF-8" standalone="no"?>
<!DOCTYPE svg PUBLIC "-//W3C//DTD SVG 1.1//EN"
 "http://www.w3.org/Graphics/SVG/1.1/DTD/svg11.dtd">
<!-- Generated by graphviz version 2.43.0 (0)
 -->
<!-- Title: m_mpi_proxy::s_mpi_barrier Pages: 1 -->
<svg width="548pt" height="241pt"
 viewBox="0.00 0.00 548.00 240.89" xmlns="http://www.w3.org/2000/svg" xmlns:xlink="http://www.w3.org/1999/xlink">
<g id="graph0" class="graph" transform="scale(1 1) rotate(0) translate(4 236.89)">
<title>m_mpi_proxy::s_mpi_barrier</title>
<!-- Node1 -->
<g id="node1" class="node">
<title>Node1</title>
<g id="a_node1"><a xlink:title="Halts all processes until all have reached barrier.">
<polygon fill="#bfbfbf" stroke="black" points="422,-159.5 422,-189.5 540,-189.5 540,-159.5 422,-159.5"/>
<text text-anchor="start" x="430" y="-177.5" font-family="Helvetica,sans-Serif" font-size="10.00">m_mpi_proxy::s_mpi</text>
<text text-anchor="middle" x="481" y="-166.5" font-family="Helvetica,sans-Serif" font-size="10.00">_barrier</text>
</a>
</g>
</g>
<!-- Node2 -->
<g id="node2" class="node">
<title>Node2</title>
<g id="a_node2"><a xlink:href="p__main_8f90.html#aeec10ee8e2940c953967da3e374e1579" target="_top" xlink:title="Quasi&#45;conservative, shock&#45; and interface&#45; capturing finite&#45;volume scheme for the multicomponent Navie...">
<polygon fill="none" stroke="black" points="0,-128 0,-147 53,-147 53,-128 0,-128"/>
<text text-anchor="middle" x="26.5" y="-135" font-family="Helvetica,sans-Serif" font-size="10.00">p_main</text>
</a>
</g>
</g>
<!-- Node1&#45;&gt;Node2 -->
<g id="edge1" class="edge">
<title>Node1&#45;&gt;Node2</title>
<path fill="none" stroke="midnightblue" d="M432,-193.03C355.6,-219.42 203.34,-259.24 89,-207.5 61.29,-194.96 41.11,-163.09 32.35,-147.04"/>
<polygon fill="midnightblue" stroke="midnightblue" points="433.55,-196.19 441.82,-189.56 431.22,-189.59 433.55,-196.19"/>
</g>
<!-- Node3 -->
<g id="node3" class="node">
<title>Node3</title>
<g id="a_node3"><a xlink:href="namespacem__start__up.html#a45c8fef6680263063a1c7d2fa1748013" target="_top" xlink:title=" ">
<polygon fill="none" stroke="black" points="265,-159.5 265,-189.5 376,-189.5 376,-159.5 265,-159.5"/>
<text text-anchor="start" x="273" y="-177.5" font-family="Helvetica,sans-Serif" font-size="10.00">m_start_up::s_read</text>
<text text-anchor="middle" x="320.5" y="-166.5" font-family="Helvetica,sans-Serif" font-size="10.00">_parallel_data_files</text>
</a>
</g>
</g>
<!-- Node1&#45;&gt;Node3 -->
<g id="edge2" class="edge">
<title>Node1&#45;&gt;Node3</title>
<path fill="none" stroke="midnightblue" d="M411.59,-174.5C399.76,-174.5 387.6,-174.5 376.19,-174.5"/>
<polygon fill="midnightblue" stroke="midnightblue" points="411.88,-178 421.88,-174.5 411.88,-171 411.88,-178"/>
</g>
<!-- Node5 -->
<g id="node5" class="node">
<title>Node5</title>
<g id="a_node5"><a xlink:href="namespacem__data__output.html#a33a72559ec5cfdedf7162a8269d41201" target="_top" xlink:title="The goal of the procedure is to output to the run&#45;time information file the stability criteria extrem...">
<polygon fill="none" stroke="black" points="255,-86.5 255,-116.5 386,-116.5 386,-86.5 255,-86.5"/>
<text text-anchor="start" x="263" y="-104.5" font-family="Helvetica,sans-Serif" font-size="10.00">m_data_output::s_write</text>
<text text-anchor="middle" x="320.5" y="-93.5" font-family="Helvetica,sans-Serif" font-size="10.00">_run_time_information</text>
</a>
</g>
</g>
<!-- Node1&#45;&gt;Node5 -->
<g id="edge6" class="edge">
<title>Node1&#45;&gt;Node5</title>
<path fill="none" stroke="midnightblue" d="M437.86,-155.09C411.68,-143.03 378.52,-127.76 354.3,-116.61"/>
<polygon fill="midnightblue" stroke="midnightblue" points="436.61,-158.37 447.16,-159.37 439.54,-152.01 436.61,-158.37"/>
</g>
<!-- Node3&#45;&gt;Node2 -->
<g id="edge3" class="edge">
<title>Node3&#45;&gt;Node2</title>
<path fill="none" stroke="midnightblue" d="M254.9,-191.29C207.6,-200.48 142.6,-206.54 89,-187.5 66.44,-179.49 46.13,-159.27 35.44,-147.14"/>
<polygon fill="midnightblue" stroke="midnightblue" points="255.61,-194.72 264.71,-189.29 254.21,-187.86 255.61,-194.72"/>
</g>
<!-- Node4 -->
<g id="node4" class="node">
<title>Node4</title>
<g id="a_node4"><a xlink:href="namespacem__start__up.html#a37202711d89d04cd18f08170ba608aa1" target="_top" xlink:title=" ">
<polygon fill="none" stroke="black" points="89,-147.5 89,-177.5 219,-177.5 219,-147.5 89,-147.5"/>
<text text-anchor="start" x="97" y="-165.5" font-family="Helvetica,sans-Serif" font-size="10.00">m_start_up::s_initialize</text>
<text text-anchor="middle" x="154" y="-154.5" font-family="Helvetica,sans-Serif" font-size="10.00">_start_up_module</text>
</a>
</g>
</g>
<!-- Node3&#45;&gt;Node4 -->
<g id="edge4" class="edge">
<title>Node3&#45;&gt;Node4</title>
<path fill="none" stroke="midnightblue" d="M254.64,-169.77C242.99,-168.92 230.86,-168.03 219.23,-167.19"/>
<polygon fill="midnightblue" stroke="midnightblue" points="254.5,-173.27 264.72,-170.5 255.01,-166.29 254.5,-173.27"/>
</g>
<!-- Node4&#45;&gt;Node2 -->
<g id="edge5" class="edge">
<title>Node4&#45;&gt;Node2</title>
<path fill="none" stroke="midnightblue" d="M78.74,-147.71C69.58,-145.88 60.76,-144.12 53.09,-142.6"/>
<polygon fill="midnightblue" stroke="midnightblue" points="78.29,-151.19 88.78,-149.71 79.66,-144.32 78.29,-151.19"/>
</g>
<!-- Node6 -->
<g id="node6" class="node">
<title>Node6</title>
<g id="a_node6"><a xlink:href="namespacem__time__steppers.html#a8876606e6152b6c8f35272074a088142" target="_top" xlink:title="1st order TVD RK time&#45;stepping algorithm">
<polygon fill="none" stroke="black" points="97.5,-98.5 97.5,-128.5 210.5,-128.5 210.5,-98.5 97.5,-98.5"/>
<text text-anchor="start" x="105.5" y="-116.5" font-family="Helvetica,sans-Serif" font-size="10.00">m_time_steppers::s</text>
<text text-anchor="middle" x="154" y="-105.5" font-family="Helvetica,sans-Serif" font-size="10.00">_1st_order_tvd_rk</text>
</a>
</g>
</g>
<!-- Node5&#45;&gt;Node6 -->
<g id="edge7" class="edge">
<title>Node5&#45;&gt;Node6</title>
<path fill="none" stroke="midnightblue" d="M244.89,-106.94C233.34,-107.79 221.59,-108.64 210.56,-109.45"/>
<polygon fill="midnightblue" stroke="midnightblue" points="245.24,-110.43 254.96,-106.21 244.73,-103.45 245.24,-110.43"/>
</g>
<!-- Node7 -->
<g id="node7" class="node">
<title>Node7</title>
<g id="a_node7"><a xlink:href="namespacem__time__steppers.html#adb82b6c6041c825d0999e6890ed825cc" target="_top" xlink:title="2nd order TVD RK time&#45;stepping algorithm">
<polygon fill="none" stroke="black" points="97.5,-49.5 97.5,-79.5 210.5,-79.5 210.5,-49.5 97.5,-49.5"/>
<text text-anchor="start" x="105.5" y="-67.5" font-family="Helvetica,sans-Serif" font-size="10.00">m_time_steppers::s</text>
<text text-anchor="middle" x="154" y="-56.5" font-family="Helvetica,sans-Serif" font-size="10.00">_2nd_order_tvd_rk</text>
</a>
</g>
</g>
<!-- Node5&#45;&gt;Node7 -->
<g id="edge9" class="edge">
<title>Node5&#45;&gt;Node7</title>
<path fill="none" stroke="midnightblue" d="M244.89,-84.72C233.34,-82.12 221.59,-79.48 210.56,-77"/>
<polygon fill="midnightblue" stroke="midnightblue" points="244.43,-88.2 254.96,-86.98 245.97,-81.37 244.43,-88.2"/>
</g>
<!-- Node8 -->
<g id="node8" class="node">
<title>Node8</title>
<g id="a_node8"><a xlink:href="namespacem__time__steppers.html#ae08efa7df1f8efae0f726dd5114176a8" target="_top" xlink:title="3rd order TVD RK time&#45;stepping algorithm">
<polygon fill="none" stroke="black" points="97.5,-0.5 97.5,-30.5 210.5,-30.5 210.5,-0.5 97.5,-0.5"/>
<text text-anchor="start" x="105.5" y="-18.5" font-family="Helvetica,sans-Serif" font-size="10.00">m_time_steppers::s</text>
<text text-anchor="middle" x="154" y="-7.5" font-family="Helvetica,sans-Serif" font-size="10.00">_3rd_order_tvd_rk</text>
</a>
</g>
</g>
<!-- Node5&#45;&gt;Node8 -->
<g id="edge11" class="edge">
<title>Node5&#45;&gt;Node8</title>
<path fill="none" stroke="midnightblue" d="M289.39,-80.79C269.87,-67.9 243.58,-51.55 219,-39.5 212.5,-36.31 205.46,-33.28 198.52,-30.52"/>
<polygon fill="midnightblue" stroke="midnightblue" points="287.59,-83.79 297.85,-86.43 291.48,-77.97 287.59,-83.79"/>
</g>
<!-- Node6&#45;&gt;Node2 -->
<g id="edge8" class="edge">
<title>Node6&#45;&gt;Node2</title>
<path fill="none" stroke="midnightblue" d="M87.13,-126.1C75.11,-128.4 63.24,-130.67 53.3,-132.57"/>
<polygon fill="midnightblue" stroke="midnightblue" points="88.06,-129.48 97.22,-124.17 86.74,-122.61 88.06,-129.48"/>
</g>
<!-- Node7&#45;&gt;Node2 -->
<g id="edge10" class="edge">
<title>Node7&#45;&gt;Node2</title>
<path fill="none" stroke="midnightblue" d="M100.33,-83.63C96.43,-85.48 92.62,-87.44 89,-89.5 69.46,-100.62 49.4,-117.5 37.71,-128"/>
<polygon fill="midnightblue" stroke="midnightblue" points="101.83,-86.79 109.52,-79.51 98.96,-80.41 101.83,-86.79"/>
</g>
<!-- Node8&#45;&gt;Node2 -->
<g id="edge12" class="edge">
<title>Node8&#45;&gt;Node2</title>
<path fill="none" stroke="midnightblue" d="M93.86,-35.89C92.18,-37.03 90.55,-38.23 89,-39.5 58.5,-64.4 38.65,-108.62 31.03,-127.98"/>
<polygon fill="midnightblue" stroke="midnightblue" points="95.86,-38.77 102.67,-30.65 92.28,-32.75 95.86,-38.77"/>
</g>
</g>
</svg>
