<?xml version="1.0" encoding="UTF-8" standalone="no"?>
<!DOCTYPE svg PUBLIC "-//W3C//DTD SVG 1.1//EN"
 "http://www.w3.org/Graphics/SVG/1.1/DTD/svg11.dtd">
<!-- Generated by graphviz version 2.43.0 (0)
 -->
<!-- Title: m_riemann_solvers::s_hllc_riemann_solver Pages: 1 -->
<svg width="320pt" height="198pt"
 viewBox="0.00 0.00 320.00 198.00" xmlns="http://www.w3.org/2000/svg" xmlns:xlink="http://www.w3.org/1999/xlink">
<g id="graph0" class="graph" transform="scale(1 1) rotate(0) translate(4 194)">
<title>m_riemann_solvers::s_hllc_riemann_solver</title>
<!-- Node1 -->
<g id="node1" class="node">
<title>Node1</title>
<g id="a_node1"><a xlink:title="This procedure is the implementation of the Harten, Lax, van Leer, and contact (HLLC) approximate Rie...">
<polygon fill="#bfbfbf" stroke="black" points="0,-93 0,-123 125,-123 125,-93 0,-93"/>
<text text-anchor="start" x="8" y="-111" font-family="Helvetica,sans-Serif" font-size="10.00">m_riemann_solvers::</text>
<text text-anchor="middle" x="62.5" y="-100" font-family="Helvetica,sans-Serif" font-size="10.00">s_hllc_riemann_solver</text>
</a>
</g>
</g>
<!-- Node2 -->
<g id="node2" class="node">
<title>Node2</title>
<g id="a_node2"><a xlink:href="namespacem__bubbles.html#a633603e919fe31fc21ed8d3a4021ee7a" target="_top" xlink:title="Function that computes the bubble wall pressure for Keller–Miksis bubbles.">
<polygon fill="none" stroke="black" points="171,-170.5 171,-189.5 302,-189.5 302,-170.5 171,-170.5"/>
<text text-anchor="middle" x="236.5" y="-177.5" font-family="Helvetica,sans-Serif" font-size="10.00">m_bubbles::f_cpbw_km</text>
</a>
</g>
</g>
<!-- Node1&#45;&gt;Node2 -->
<g id="edge1" class="edge">
<title>Node1&#45;&gt;Node2</title>
<path fill="none" stroke="midnightblue" d="M87.14,-123.02C106.4,-134.72 134.63,-150.66 161,-161 167.26,-163.46 173.94,-165.68 180.64,-167.67"/>
<polygon fill="midnightblue" stroke="midnightblue" points="179.84,-171.08 190.41,-170.42 181.73,-164.34 179.84,-171.08"/>
</g>
<!-- Node3 -->
<g id="node3" class="node">
<title>Node3</title>
<g id="a_node3"><a xlink:href="namespacem__riemann__solvers.html#ab679d890c95c6cb1ee3dc5e5a9ae1c19" target="_top" xlink:title="Deallocation and/or disassociation procedures that are needed to finalize the selected Riemann proble...">
<polygon fill="none" stroke="black" points="165,-121 165,-151 308,-151 308,-121 165,-121"/>
<text text-anchor="start" x="173" y="-139" font-family="Helvetica,sans-Serif" font-size="10.00">m_riemann_solvers::</text>
<text text-anchor="middle" x="236.5" y="-128" font-family="Helvetica,sans-Serif" font-size="10.00">s_finalize_riemann_solver</text>
</a>
</g>
</g>
<!-- Node1&#45;&gt;Node3 -->
<g id="edge2" class="edge">
<title>Node1&#45;&gt;Node3</title>
<path fill="none" stroke="midnightblue" d="M125.11,-118.03C134.8,-119.61 144.94,-121.26 154.97,-122.89"/>
<polygon fill="midnightblue" stroke="midnightblue" points="154.52,-126.36 164.96,-124.52 155.65,-119.45 154.52,-126.36"/>
</g>
<!-- Node4 -->
<g id="node4" class="node">
<title>Node4</title>
<g id="a_node4"><a xlink:href="namespacem__riemann__solvers.html#a3f244d4b1bc8e00f8c3c5b6f96aa5448" target="_top" xlink:title="The computation of parameters, the allocation of memory, the association of pointers and/or the execu...">
<polygon fill="none" stroke="black" points="177,-60.5 177,-101.5 296,-101.5 296,-60.5 177,-60.5"/>
<text text-anchor="start" x="185" y="-89.5" font-family="Helvetica,sans-Serif" font-size="10.00">m_riemann_solvers::</text>
<text text-anchor="start" x="185" y="-78.5" font-family="Helvetica,sans-Serif" font-size="10.00">s_initialize_riemann</text>
<text text-anchor="middle" x="236.5" y="-67.5" font-family="Helvetica,sans-Serif" font-size="10.00">_solver</text>
</a>
</g>
</g>
<!-- Node1&#45;&gt;Node4 -->
<g id="edge3" class="edge">
<title>Node1&#45;&gt;Node4</title>
<path fill="none" stroke="midnightblue" d="M125.11,-98.33C138.68,-96.2 153.14,-93.93 166.97,-91.76"/>
<polygon fill="midnightblue" stroke="midnightblue" points="167.57,-95.21 176.91,-90.2 166.49,-88.29 167.57,-95.21"/>
</g>
<!-- Node5 -->
<g id="node5" class="node">
<title>Node5</title>
<g id="a_node5"><a xlink:href="namespacem__riemann__solvers.html#ac8be5b071ea02950e871d68a7f63edad" target="_top" xlink:title="The purpose of this subroutine is to populate the buffers of the left and right Riemann states variab...">
<polygon fill="none" stroke="black" points="161,-0.5 161,-41.5 312,-41.5 312,-0.5 161,-0.5"/>
<text text-anchor="start" x="169" y="-29.5" font-family="Helvetica,sans-Serif" font-size="10.00">m_riemann_solvers::</text>
<text text-anchor="start" x="169" y="-18.5" font-family="Helvetica,sans-Serif" font-size="10.00">s_populate_riemann_states</text>
<text text-anchor="middle" x="236.5" y="-7.5" font-family="Helvetica,sans-Serif" font-size="10.00">_variables_buffers</text>
</a>
</g>
</g>
<!-- Node1&#45;&gt;Node5 -->
<g id="edge4" class="edge">
<title>Node1&#45;&gt;Node5</title>
<path fill="none" stroke="midnightblue" d="M87.01,-92.95C106.43,-80.83 134.95,-63.78 161,-51 164.73,-49.17 168.61,-47.36 172.54,-45.59"/>
<polygon fill="midnightblue" stroke="midnightblue" points="174.02,-48.76 181.77,-41.54 171.21,-42.35 174.02,-48.76"/>
</g>
</g>
</svg>
