<?xml version="1.0" encoding="UTF-8" standalone="no"?>
<!DOCTYPE svg PUBLIC "-//W3C//DTD SVG 1.1//EN"
 "http://www.w3.org/Graphics/SVG/1.1/DTD/svg11.dtd">
<!-- Generated by graphviz version 2.43.0 (0)
 -->
<!-- Title: m_weno::s_weno Pages: 1 -->
<svg width="293pt" height="76pt"
 viewBox="0.00 0.00 293.00 75.50" xmlns="http://www.w3.org/2000/svg" xmlns:xlink="http://www.w3.org/1999/xlink">
<g id="graph0" class="graph" transform="scale(1 1) rotate(0) translate(4 71.5)">
<title>m_weno::s_weno</title>
<!-- Node1 -->
<g id="node1" class="node">
<title>Node1</title>
<g id="a_node1"><a xlink:title=" ">
<polygon fill="#999999" stroke="#666666" points="101,-45.5 0,-45.5 0,-26.5 101,-26.5 101,-45.5"/>
<text text-anchor="middle" x="50.5" y="-33.5" font-family="Helvetica,sans-Serif" font-size="10.00">m_weno::s_weno</text>
</a>
</g>
</g>
<!-- Node2 -->
<g id="node2" class="node">
<title>Node2</title>
<g id="a_node2"><a xlink:href="namespacem__weno.html#ac5c7a0754b0624a47b0152c759ee1789" target="_top" xlink:title="The computation of parameters, the allocation of memory, the association of pointers and/or the execu...">
<polygon fill="white" stroke="#666666" points="285,-67.5 137,-67.5 137,-48.5 285,-48.5 285,-67.5"/>
<text text-anchor="middle" x="211" y="-55.5" font-family="Helvetica,sans-Serif" font-size="10.00">m_weno::s_initialize_weno</text>
</a>
</g>
</g>
<!-- Node1&#45;&gt;Node2 -->
<g id="edge1" class="edge">
<title>Node1&#45;&gt;Node2</title>
<path fill="none" stroke="#63b8ff" d="M101.22,-42.9C110.75,-44.22 120.95,-45.64 131.14,-47.05"/>
<polygon fill="#63b8ff" stroke="#63b8ff" points="130.91,-50.56 141.3,-48.46 131.87,-43.62 130.91,-50.56"/>
</g>
<!-- Node3 -->
<g id="node3" class="node">
<title>Node3</title>
<g id="a_node3"><a xlink:href="namespacem__weno.html#a8c518e5d3cd83824f2d4c8cb76528555" target="_top" xlink:title="The goal of this subroutine is to ensure that the WENO reconstruction is monotonic....">
<polygon fill="white" stroke="#666666" points="269.5,-30 152.5,-30 152.5,0 269.5,0 269.5,-30"/>
<text text-anchor="start" x="160.5" y="-18" font-family="Helvetica,sans-Serif" font-size="10.00">m_weno::s_preserve</text>
<text text-anchor="middle" x="211" y="-7" font-family="Helvetica,sans-Serif" font-size="10.00">_monotonicity</text>
</a>
</g>
</g>
<!-- Node1&#45;&gt;Node3 -->
<g id="edge2" class="edge">
<title>Node1&#45;&gt;Node3</title>
<path fill="none" stroke="#63b8ff" d="M101.22,-29.41C114.29,-27.68 128.62,-25.78 142.46,-23.95"/>
<polygon fill="#63b8ff" stroke="#63b8ff" points="142.98,-27.41 152.43,-22.63 142.06,-20.47 142.98,-27.41"/>
</g>
</g>
</svg>
