<?xml version="1.0" encoding="UTF-8" standalone="no"?>
<!DOCTYPE svg PUBLIC "-//W3C//DTD SVG 1.1//EN"
 "http://www.w3.org/Graphics/SVG/1.1/DTD/svg11.dtd">
<!-- Generated by graphviz version 2.43.0 (0)
 -->
<!-- Title: m_rhs::s_reconstruct_cell_boundary_values Pages: 1 -->
<svg width="457pt" height="76pt"
 viewBox="0.00 0.00 457.00 75.50" xmlns="http://www.w3.org/2000/svg" xmlns:xlink="http://www.w3.org/1999/xlink">
<g id="graph0" class="graph" transform="scale(1 1) rotate(0) translate(4 71.5)">
<title>m_rhs::s_reconstruct_cell_boundary_values</title>
<!-- Node1 -->
<g id="Node000001" class="node">
<title>Node1</title>
<g id="a_Node000001"><a xlink:title="The purpose of this subroutine is to WENO&#45;reconstruct the left and the right cell&#45;boundary values,...">
<polygon fill="#999999" stroke="#666666" points="128,-51 0,-51 0,-21 128,-21 128,-51"/>
<text text-anchor="start" x="8" y="-39" font-family="Helvetica,sans-Serif" font-size="10.00">m_rhs::s_reconstruct</text>
<text text-anchor="middle" x="64" y="-28" font-family="Helvetica,sans-Serif" font-size="10.00">_cell_boundary_values</text>
</a>
</g>
</g>
<!-- Node2 -->
<g id="Node000002" class="node">
<title>Node2</title>
<g id="a_Node000002"><a xlink:href="namespacem__weno.html#abf60919ebaaf298c15e8a3a1167610e0" target="_top" xlink:title=" ">
<polygon fill="white" stroke="#666666" points="265,-45.5 164,-45.5 164,-26.5 265,-26.5 265,-45.5"/>
<text text-anchor="middle" x="214.5" y="-33.5" font-family="Helvetica,sans-Serif" font-size="10.00">m_weno::s_weno</text>
</a>
</g>
</g>
<!-- Node1&#45;&gt;Node2 -->
<g id="edge1_Node000001_Node000002" class="edge">
<title>Node1&#45;&gt;Node2</title>
<g id="a_edge1_Node000001_Node000002"><a xlink:title=" ">
<path fill="none" stroke="#63b8ff" d="M128.41,-36C136.81,-36 145.41,-36 153.75,-36"/>
<polygon fill="#63b8ff" stroke="#63b8ff" points="153.77,-39.5 163.77,-36 153.77,-32.5 153.77,-39.5"/>
</a>
</g>
</g>
<!-- Node3 -->
<g id="Node000003" class="node">
<title>Node3</title>
<g id="a_Node000003"><a xlink:href="namespacem__weno.html#ac5c7a0754b0624a47b0152c759ee1789" target="_top" xlink:title="The computation of parameters, the allocation of memory, the association of pointers and/or the execu...">
<polygon fill="white" stroke="#666666" points="449,-67.5 301,-67.5 301,-48.5 449,-48.5 449,-67.5"/>
<text text-anchor="middle" x="375" y="-55.5" font-family="Helvetica,sans-Serif" font-size="10.00">m_weno::s_initialize_weno</text>
</a>
</g>
</g>
<!-- Node2&#45;&gt;Node3 -->
<g id="edge2_Node000002_Node000003" class="edge">
<title>Node2&#45;&gt;Node3</title>
<g id="a_edge2_Node000002_Node000003"><a xlink:title=" ">
<path fill="none" stroke="#63b8ff" d="M265.22,-42.9C274.75,-44.22 284.95,-45.64 295.14,-47.05"/>
<polygon fill="#63b8ff" stroke="#63b8ff" points="294.91,-50.56 305.3,-48.46 295.87,-43.62 294.91,-50.56"/>
</a>
</g>
</g>
<!-- Node4 -->
<g id="Node000004" class="node">
<title>Node4</title>
<g id="a_Node000004"><a xlink:href="namespacem__weno.html#a8c518e5d3cd83824f2d4c8cb76528555" target="_top" xlink:title="The goal of this subroutine is to ensure that the WENO reconstruction is monotonic....">
<polygon fill="white" stroke="#666666" points="433.5,-30 316.5,-30 316.5,0 433.5,0 433.5,-30"/>
<text text-anchor="start" x="324.5" y="-18" font-family="Helvetica,sans-Serif" font-size="10.00">m_weno::s_preserve</text>
<text text-anchor="middle" x="375" y="-7" font-family="Helvetica,sans-Serif" font-size="10.00">_monotonicity</text>
</a>
</g>
</g>
<!-- Node2&#45;&gt;Node4 -->
<g id="edge3_Node000002_Node000004" class="edge">
<title>Node2&#45;&gt;Node4</title>
<g id="a_edge3_Node000002_Node000004"><a xlink:title=" ">
<path fill="none" stroke="#63b8ff" d="M265.22,-29.41C278.29,-27.68 292.62,-25.78 306.46,-23.95"/>
<polygon fill="#63b8ff" stroke="#63b8ff" points="306.98,-27.41 316.43,-22.63 306.06,-20.47 306.98,-27.41"/>
</a>
</g>
</g>
</g>
</svg>
