<?xml version="1.0" encoding="UTF-8" standalone="no"?>
<!DOCTYPE svg PUBLIC "-//W3C//DTD SVG 1.1//EN"
 "http://www.w3.org/Graphics/SVG/1.1/DTD/svg11.dtd">
<!-- Generated by graphviz version 2.43.0 (0)
 -->
<!-- Title: m_weno::s_weno Pages: 1 -->
<svg width="506pt" height="88pt"
 viewBox="0.00 0.00 506.00 88.00" xmlns="http://www.w3.org/2000/svg" xmlns:xlink="http://www.w3.org/1999/xlink">
<g id="graph0" class="graph" transform="scale(1 1) rotate(0) translate(4 84)">
<title>m_weno::s_weno</title>
<!-- Node1 -->
<g id="node1" class="node">
<title>Node1</title>
<g id="a_node1"><a xlink:title=" ">
<polygon fill="#bfbfbf" stroke="black" points="397,-30 397,-49 498,-49 498,-30 397,-30"/>
<text text-anchor="middle" x="447.5" y="-37" font-family="Helvetica,sans-Serif" font-size="10.00">m_weno::s_weno</text>
</a>
</g>
</g>
<!-- Node2 -->
<g id="node2" class="node">
<title>Node2</title>
<g id="a_node2"><a xlink:href="namespacem__viscous.html#a5444ae18cefee9f89a50427b2c0be45b" target="_top" xlink:title=" ">
<polygon fill="none" stroke="black" points="194,-49.5 194,-79.5 346,-79.5 346,-49.5 194,-49.5"/>
<text text-anchor="start" x="202" y="-67.5" font-family="Helvetica,sans-Serif" font-size="10.00">m_viscous::s_reconstruct</text>
<text text-anchor="middle" x="270" y="-56.5" font-family="Helvetica,sans-Serif" font-size="10.00">_cell_boundary_values_visc</text>
</a>
</g>
</g>
<!-- Node1&#45;&gt;Node2 -->
<g id="edge1" class="edge">
<title>Node1&#45;&gt;Node2</title>
<path fill="none" stroke="midnightblue" d="M386.5,-48.05C373.53,-49.9 359.66,-51.87 346.19,-53.79"/>
<polygon fill="midnightblue" stroke="midnightblue" points="387.27,-51.47 396.68,-46.6 386.28,-44.54 387.27,-51.47"/>
</g>
<!-- Node4 -->
<g id="node4" class="node">
<title>Node4</title>
<g id="a_node4"><a xlink:href="namespacem__viscous.html#a43537e37310e460ebbbc966628aaae0e" target="_top" xlink:title=" ">
<polygon fill="none" stroke="black" points="179,-0.5 179,-30.5 361,-30.5 361,-0.5 179,-0.5"/>
<text text-anchor="start" x="187" y="-18.5" font-family="Helvetica,sans-Serif" font-size="10.00">m_viscous::s_reconstruct</text>
<text text-anchor="middle" x="270" y="-7.5" font-family="Helvetica,sans-Serif" font-size="10.00">_cell_boundary_values_visc_deriv</text>
</a>
</g>
</g>
<!-- Node1&#45;&gt;Node4 -->
<g id="edge3" class="edge">
<title>Node1&#45;&gt;Node4</title>
<path fill="none" stroke="midnightblue" d="M386.51,-31.3C378.31,-30.17 369.74,-29 361.15,-27.83"/>
<polygon fill="midnightblue" stroke="midnightblue" points="386.3,-34.8 396.68,-32.69 387.24,-27.86 386.3,-34.8"/>
</g>
<!-- Node3 -->
<g id="node3" class="node">
<title>Node3</title>
<g id="a_node3"><a xlink:href="namespacem__viscous.html#af773354ab827db325ff69118c6e36423" target="_top" xlink:title="Computes viscous terms.">
<polygon fill="none" stroke="black" points="0,-55 0,-74 143,-74 143,-55 0,-55"/>
<text text-anchor="middle" x="71.5" y="-62" font-family="Helvetica,sans-Serif" font-size="10.00">m_viscous::s_get_viscous</text>
</a>
</g>
</g>
<!-- Node2&#45;&gt;Node3 -->
<g id="edge2" class="edge">
<title>Node2&#45;&gt;Node3</title>
<path fill="none" stroke="midnightblue" d="M183.6,-64.5C170.07,-64.5 156.21,-64.5 143.06,-64.5"/>
<polygon fill="midnightblue" stroke="midnightblue" points="183.87,-68 193.87,-64.5 183.87,-61 183.87,-68"/>
</g>
</g>
</svg>
