<?xml version="1.0" encoding="UTF-8" standalone="no"?>
<!DOCTYPE svg PUBLIC "-//W3C//DTD SVG 1.1//EN"
 "http://www.w3.org/Graphics/SVG/1.1/DTD/svg11.dtd">
<!-- Generated by graphviz version 2.43.0 (0)
 -->
<!-- Title: m_nvtx::nvtxstartrange Pages: 1 -->
<svg width="539pt" height="134pt"
 viewBox="0.00 0.00 539.00 134.00" xmlns="http://www.w3.org/2000/svg" xmlns:xlink="http://www.w3.org/1999/xlink">
<g id="graph0" class="graph" transform="scale(1 1) rotate(0) translate(4 130)">
<title>m_nvtx::nvtxstartrange</title>
<!-- Node1 -->
<g id="node1" class="node">
<title>Node1</title>
<g id="a_node1"><a xlink:title=" ">
<polygon fill="#999999" stroke="#666666" points="531,-72.5 400,-72.5 400,-53.5 531,-53.5 531,-72.5"/>
<text text-anchor="middle" x="465.5" y="-60.5" font-family="Helvetica,sans-Serif" font-size="10.00">m_nvtx::nvtxstartrange</text>
</a>
</g>
</g>
<!-- Node2 -->
<g id="node2" class="node">
<title>Node2</title>
<g id="a_node2"><a xlink:href="namespacem__time__steppers.html#a8876606e6152b6c8f35272074a088142" target="_top" xlink:title="1st order TVD RK time&#45;stepping algorithm">
<polygon fill="white" stroke="#666666" points="202,-126 89,-126 89,-96 202,-96 202,-126"/>
<text text-anchor="start" x="97" y="-114" font-family="Helvetica,sans-Serif" font-size="10.00">m_time_steppers::s</text>
<text text-anchor="middle" x="145.5" y="-103" font-family="Helvetica,sans-Serif" font-size="10.00">_1st_order_tvd_rk</text>
</a>
</g>
</g>
<!-- Node1&#45;&gt;Node2 -->
<g id="edge1" class="edge">
<title>Node1&#45;&gt;Node2</title>
<path fill="none" stroke="#63b8ff" d="M435.34,-76.83C415.66,-85.46 388.85,-95.87 364,-101 309.77,-112.2 246.38,-113.86 202.07,-113.23"/>
<polygon fill="#63b8ff" stroke="#63b8ff" points="436.97,-79.94 444.66,-72.65 434.1,-73.55 436.97,-79.94"/>
</g>
<!-- Node4 -->
<g id="node4" class="node">
<title>Node4</title>
<g id="a_node4"><a xlink:href="namespacem__time__steppers.html#adb82b6c6041c825d0999e6890ed825cc" target="_top" xlink:title="2nd order TVD RK time&#45;stepping algorithm">
<polygon fill="white" stroke="#666666" points="202,-78 89,-78 89,-48 202,-48 202,-78"/>
<text text-anchor="start" x="97" y="-66" font-family="Helvetica,sans-Serif" font-size="10.00">m_time_steppers::s</text>
<text text-anchor="middle" x="145.5" y="-55" font-family="Helvetica,sans-Serif" font-size="10.00">_2nd_order_tvd_rk</text>
</a>
</g>
</g>
<!-- Node1&#45;&gt;Node4 -->
<g id="edge3" class="edge">
<title>Node1&#45;&gt;Node4</title>
<path fill="none" stroke="#63b8ff" d="M389.65,-63C332.19,-63 254.13,-63 202.12,-63"/>
<polygon fill="#63b8ff" stroke="#63b8ff" points="389.76,-66.5 399.76,-63 389.76,-59.5 389.76,-66.5"/>
</g>
<!-- Node5 -->
<g id="node5" class="node">
<title>Node5</title>
<g id="a_node5"><a xlink:href="namespacem__time__steppers.html#ae08efa7df1f8efae0f726dd5114176a8" target="_top" xlink:title="3rd order TVD RK time&#45;stepping algorithm">
<polygon fill="white" stroke="#666666" points="202,-30 89,-30 89,0 202,0 202,-30"/>
<text text-anchor="start" x="97" y="-18" font-family="Helvetica,sans-Serif" font-size="10.00">m_time_steppers::s</text>
<text text-anchor="middle" x="145.5" y="-7" font-family="Helvetica,sans-Serif" font-size="10.00">_3rd_order_tvd_rk</text>
</a>
</g>
</g>
<!-- Node1&#45;&gt;Node5 -->
<g id="edge5" class="edge">
<title>Node1&#45;&gt;Node5</title>
<path fill="none" stroke="#63b8ff" d="M391.16,-51.93C333.57,-43.24 254.61,-31.32 202.15,-23.4"/>
<polygon fill="#63b8ff" stroke="#63b8ff" points="390.88,-55.43 401.29,-53.46 391.93,-48.51 390.88,-55.43"/>
</g>
<!-- Node6 -->
<g id="node6" class="node">
<title>Node6</title>
<g id="a_node6"><a xlink:href="namespacem__rhs.html#a361f0038973069452cc88430c49bcfe8" target="_top" xlink:title=" ">
<polygon fill="white" stroke="#666666" points="364,-91.5 238,-91.5 238,-72.5 364,-72.5 364,-91.5"/>
<text text-anchor="middle" x="301" y="-79.5" font-family="Helvetica,sans-Serif" font-size="10.00">m_rhs::s_compute_rhs</text>
</a>
</g>
</g>
<!-- Node1&#45;&gt;Node6 -->
<g id="edge7" class="edge">
<title>Node1&#45;&gt;Node6</title>
<path fill="none" stroke="#63b8ff" d="M389.78,-71.74C381.19,-72.74 372.49,-73.76 364.09,-74.74"/>
<polygon fill="#63b8ff" stroke="#63b8ff" points="390.28,-75.2 399.81,-70.56 389.47,-68.25 390.28,-75.2"/>
</g>
<!-- Node3 -->
<g id="node3" class="node">
<title>Node3</title>
<g id="a_node3"><a xlink:href="p__main_8fpp_8f90.html#aeec10ee8e2940c953967da3e374e1579" target="_top" xlink:title="Quasi&#45;conservative, shock&#45; and interface&#45; capturing finite&#45;volume scheme for the multicomponent Navie...">
<polygon fill="white" stroke="#666666" points="53,-72.5 0,-72.5 0,-53.5 53,-53.5 53,-72.5"/>
<text text-anchor="middle" x="26.5" y="-60.5" font-family="Helvetica,sans-Serif" font-size="10.00">p_main</text>
</a>
</g>
</g>
<!-- Node2&#45;&gt;Node3 -->
<g id="edge2" class="edge">
<title>Node2&#45;&gt;Node3</title>
<path fill="none" stroke="#63b8ff" d="M98.39,-92.08C82.08,-85.39 64.43,-78.15 50.81,-72.56"/>
<polygon fill="#63b8ff" stroke="#63b8ff" points="97.22,-95.39 107.8,-95.94 99.88,-88.91 97.22,-95.39"/>
</g>
<!-- Node4&#45;&gt;Node3 -->
<g id="edge4" class="edge">
<title>Node4&#45;&gt;Node3</title>
<path fill="none" stroke="#63b8ff" d="M78.51,-63C69.51,-63 60.74,-63 53.09,-63"/>
<polygon fill="#63b8ff" stroke="#63b8ff" points="78.74,-66.5 88.74,-63 78.74,-59.5 78.74,-66.5"/>
</g>
<!-- Node5&#45;&gt;Node3 -->
<g id="edge6" class="edge">
<title>Node5&#45;&gt;Node3</title>
<path fill="none" stroke="#63b8ff" d="M98.39,-33.92C82.08,-40.61 64.43,-47.85 50.81,-53.44"/>
<polygon fill="#63b8ff" stroke="#63b8ff" points="99.88,-37.09 107.8,-30.06 97.22,-30.61 99.88,-37.09"/>
</g>
<!-- Node6&#45;&gt;Node2 -->
<g id="edge8" class="edge">
<title>Node6&#45;&gt;Node2</title>
<path fill="none" stroke="#63b8ff" d="M239.21,-93.49C226.99,-95.79 214.2,-98.21 202.16,-100.48"/>
<polygon fill="#63b8ff" stroke="#63b8ff" points="240.14,-96.87 249.31,-91.58 238.84,-89.99 240.14,-96.87"/>
</g>
<!-- Node6&#45;&gt;Node4 -->
<g id="edge9" class="edge">
<title>Node6&#45;&gt;Node4</title>
<path fill="none" stroke="#63b8ff" d="M227.4,-73.01C219.02,-71.98 210.57,-70.93 202.46,-69.93"/>
<polygon fill="#63b8ff" stroke="#63b8ff" points="227.21,-76.52 237.57,-74.27 228.07,-69.57 227.21,-76.52"/>
</g>
<!-- Node6&#45;&gt;Node5 -->
<g id="edge10" class="edge">
<title>Node6&#45;&gt;Node5</title>
<path fill="none" stroke="#63b8ff" d="M269.01,-68.35C249.74,-59.88 224.44,-48.78 202,-39 195.36,-36.11 188.27,-33.03 181.45,-30.08"/>
<polygon fill="#63b8ff" stroke="#63b8ff" points="267.65,-71.58 278.22,-72.4 270.47,-65.17 267.65,-71.58"/>
</g>
</g>
</svg>
