<?xml version="1.0" encoding="UTF-8" standalone="no"?>
<!DOCTYPE svg PUBLIC "-//W3C//DTD SVG 1.1//EN"
 "http://www.w3.org/Graphics/SVG/1.1/DTD/svg11.dtd">
<!-- Generated by graphviz version 2.43.0 (0)
 -->
<!-- Title: m_cbc::s_cbc Pages: 1 -->
<svg width="506pt" height="715pt"
 viewBox="0.00 0.00 506.00 714.50" xmlns="http://www.w3.org/2000/svg" xmlns:xlink="http://www.w3.org/1999/xlink">
<g id="graph0" class="graph" transform="scale(1 1) rotate(0) translate(4 710.5)">
<title>m_cbc::s_cbc</title>
<!-- Node1 -->
<g id="Node000001" class="node">
<title>Node1</title>
<g id="a_Node000001"><a xlink:title="The following is the implementation of the CBC based on the work of Thompson (1987,...">
<polygon fill="#999999" stroke="#666666" points="81,-319 0,-319 0,-300 81,-300 81,-319"/>
<text text-anchor="middle" x="40.5" y="-307" font-family="Helvetica,sans-Serif" font-size="10.00">m_cbc::s_cbc</text>
</a>
</g>
</g>
<!-- Node2 -->
<g id="Node000002" class="node">
<title>Node2</title>
<g id="a_Node000002"><a xlink:href="namespacem__cbc.html#a0860f3f0c146b497f05ed57e07e0d4d9" target="_top" xlink:title=" ">
<polygon fill="white" stroke="#666666" points="274,-706.5 129,-706.5 129,-676.5 274,-676.5 274,-706.5"/>
<text text-anchor="start" x="137" y="-694.5" font-family="Helvetica,sans-Serif" font-size="10.00">m_cbc::s_associate</text>
<text text-anchor="middle" x="201.5" y="-683.5" font-family="Helvetica,sans-Serif" font-size="10.00">_cbc_coefficients_pointers</text>
</a>
</g>
</g>
<!-- Node1&#45;&gt;Node2 -->
<g id="edge1_Node000001_Node000002" class="edge">
<title>Node1&#45;&gt;Node2</title>
<g id="a_edge1_Node000001_Node000002"><a xlink:title=" ">
<path fill="none" stroke="#63b8ff" d="M42.22,-319.17C46.23,-370.87 67.57,-614.37 117,-667.5 118.2,-668.79 119.47,-670.01 120.79,-671.17"/>
<polygon fill="#63b8ff" stroke="#63b8ff" points="118.77,-674.04 128.91,-677.13 122.91,-668.39 118.77,-674.04"/>
</a>
</g>
</g>
<!-- Node3 -->
<g id="Node000003" class="node">
<title>Node3</title>
<g id="a_Node000003"><a xlink:href="namespacem__compute__cbc.html#a8786f79b77186724789f238652a74a47" target="_top" xlink:title="L variables for the constant pressure subsonic outflow CBC see pg. 455 Thompson (1990)....">
<polygon fill="white" stroke="#666666" points="281,-658 122,-658 122,-617 281,-617 281,-658"/>
<text text-anchor="start" x="130" y="-646" font-family="Helvetica,sans-Serif" font-size="10.00">m_compute_cbc::s_compute</text>
<text text-anchor="start" x="130" y="-635" font-family="Helvetica,sans-Serif" font-size="10.00">_constant_pressure_subsonic</text>
<text text-anchor="middle" x="201.5" y="-624" font-family="Helvetica,sans-Serif" font-size="10.00">_outflow_l</text>
</a>
</g>
</g>
<!-- Node1&#45;&gt;Node3 -->
<g id="edge2_Node000001_Node000003" class="edge">
<title>Node1&#45;&gt;Node3</title>
<g id="a_edge2_Node000001_Node000003"><a xlink:title=" ">
<path fill="none" stroke="#63b8ff" d="M42.74,-319.28C48.78,-365.66 76.56,-562.94 117,-607.5 117.9,-608.49 118.84,-609.46 119.81,-610.39"/>
<polygon fill="#63b8ff" stroke="#63b8ff" points="117.85,-613.3 127.81,-616.91 122.27,-607.88 117.85,-613.3"/>
</a>
</g>
</g>
<!-- Node4 -->
<g id="Node000004" class="node">
<title>Node4</title>
<g id="a_Node000004"><a xlink:href="namespacem__compute__cbc.html#a464cdf8e82aee66a294c38f9d0190711" target="_top" xlink:title="The L variables for the force&#45;free subsonic outflow CBC, see pg. 454 of Thompson (1990)....">
<polygon fill="white" stroke="#666666" points="286,-598.5 117,-598.5 117,-568.5 286,-568.5 286,-598.5"/>
<text text-anchor="start" x="125" y="-586.5" font-family="Helvetica,sans-Serif" font-size="10.00">m_compute_cbc::s_compute</text>
<text text-anchor="middle" x="201.5" y="-575.5" font-family="Helvetica,sans-Serif" font-size="10.00">_force_free_subsonic_outflow_l</text>
</a>
</g>
</g>
<!-- Node1&#45;&gt;Node4 -->
<g id="edge3_Node000001_Node000004" class="edge">
<title>Node1&#45;&gt;Node4</title>
<g id="a_edge3_Node000001_Node000004"><a xlink:title=" ">
<path fill="none" stroke="#63b8ff" d="M41.35,-319.03C41.29,-355.78 46.16,-489.6 117,-559.5 117.97,-560.45 118.97,-561.37 120,-562.25"/>
<polygon fill="#63b8ff" stroke="#63b8ff" points="118.31,-565.34 128.48,-568.32 122.38,-559.65 118.31,-565.34"/>
</a>
</g>
</g>
<!-- Node5 -->
<g id="Node000005" class="node">
<title>Node5</title>
<g id="a_Node000005"><a xlink:href="namespacem__compute__cbc.html#a4413e05fc457a989abc1837a3e840fad" target="_top" xlink:title="The L variables for the nonreflecting subsonic buffer CBC see pg. 13 of Thompson (1987)....">
<polygon fill="white" stroke="#666666" points="279,-550 124,-550 124,-509 279,-509 279,-550"/>
<text text-anchor="start" x="132" y="-538" font-family="Helvetica,sans-Serif" font-size="10.00">m_compute_cbc::s_compute</text>
<text text-anchor="start" x="132" y="-527" font-family="Helvetica,sans-Serif" font-size="10.00">_nonreflecting_subsonic</text>
<text text-anchor="middle" x="201.5" y="-516" font-family="Helvetica,sans-Serif" font-size="10.00">_buffer_l</text>
</a>
</g>
</g>
<!-- Node1&#45;&gt;Node5 -->
<g id="edge4_Node000001_Node000005" class="edge">
<title>Node1&#45;&gt;Node5</title>
<g id="a_edge4_Node000001_Node000005"><a xlink:title=" ">
<path fill="none" stroke="#63b8ff" d="M42.53,-319.41C46.32,-350.62 62.18,-447.94 117,-500.5 117.8,-501.27 118.63,-502.02 119.47,-502.75"/>
<polygon fill="#63b8ff" stroke="#63b8ff" points="117.45,-505.61 127.55,-508.8 121.64,-500 117.45,-505.61"/>
</a>
</g>
</g>
<!-- Node6 -->
<g id="Node000006" class="node">
<title>Node6</title>
<g id="a_Node000006"><a xlink:href="namespacem__compute__cbc.html#a83da311a28959910c7bfa956c1f56b62" target="_top" xlink:title="The L variables for the nonreflecting subsonic inflow CBC see pg. 455, Thompson (1990)....">
<polygon fill="white" stroke="#666666" points="279,-491 124,-491 124,-450 279,-450 279,-491"/>
<text text-anchor="start" x="132" y="-479" font-family="Helvetica,sans-Serif" font-size="10.00">m_compute_cbc::s_compute</text>
<text text-anchor="start" x="132" y="-468" font-family="Helvetica,sans-Serif" font-size="10.00">_nonreflecting_subsonic</text>
<text text-anchor="middle" x="201.5" y="-457" font-family="Helvetica,sans-Serif" font-size="10.00">_inflow_l</text>
</a>
</g>
</g>
<!-- Node1&#45;&gt;Node6 -->
<g id="edge5_Node000001_Node000006" class="edge">
<title>Node1&#45;&gt;Node6</title>
<g id="a_edge5_Node000001_Node000006"><a xlink:title=" ">
<path fill="none" stroke="#63b8ff" d="M44.34,-319.01C51.99,-343.08 75.35,-406.94 117,-441.5 118.18,-442.48 119.4,-443.43 120.64,-444.34"/>
<polygon fill="#63b8ff" stroke="#63b8ff" points="118.98,-447.43 129.27,-449.95 122.79,-441.57 118.98,-447.43"/>
</a>
</g>
</g>
<!-- Node7 -->
<g id="Node000007" class="node">
<title>Node7</title>
<g id="a_Node000007"><a xlink:href="namespacem__compute__cbc.html#a1f0ea4a8b8cca03dcb25273ff4671ed1" target="_top" xlink:title="The L variables for the nonreflecting subsonic outflow CBC see pg. 454 of Thompson (1990)....">
<polygon fill="white" stroke="#666666" points="279,-432 124,-432 124,-391 279,-391 279,-432"/>
<text text-anchor="start" x="132" y="-420" font-family="Helvetica,sans-Serif" font-size="10.00">m_compute_cbc::s_compute</text>
<text text-anchor="start" x="132" y="-409" font-family="Helvetica,sans-Serif" font-size="10.00">_nonreflecting_subsonic</text>
<text text-anchor="middle" x="201.5" y="-398" font-family="Helvetica,sans-Serif" font-size="10.00">_outflow_l</text>
</a>
</g>
</g>
<!-- Node1&#45;&gt;Node7 -->
<g id="edge6_Node000001_Node000007" class="edge">
<title>Node1&#45;&gt;Node7</title>
<g id="a_edge6_Node000001_Node000007"><a xlink:title=" ">
<path fill="none" stroke="#63b8ff" d="M49.33,-319.23C62.05,-334.45 88.65,-363.99 117,-381.5 119.82,-383.24 122.75,-384.9 125.76,-386.48"/>
<polygon fill="#63b8ff" stroke="#63b8ff" points="124.46,-389.74 134.98,-390.98 127.53,-383.45 124.46,-389.74"/>
</a>
</g>
</g>
<!-- Node8 -->
<g id="Node000008" class="node">
<title>Node8</title>
<g id="a_Node000008"><a xlink:href="namespacem__compute__cbc.html#a8bc20ac103228a5f5854c78781f9a3cc" target="_top" xlink:title="The L variables for the slip wall CBC, see pg. 451 of Thompson (1990). At the slip wall (frictionless...">
<polygon fill="white" stroke="#666666" points="279,-372.5 124,-372.5 124,-342.5 279,-342.5 279,-372.5"/>
<text text-anchor="start" x="132" y="-360.5" font-family="Helvetica,sans-Serif" font-size="10.00">m_compute_cbc::s_compute</text>
<text text-anchor="middle" x="201.5" y="-349.5" font-family="Helvetica,sans-Serif" font-size="10.00">_slip_wall_l</text>
</a>
</g>
</g>
<!-- Node1&#45;&gt;Node8 -->
<g id="edge7_Node000001_Node000008" class="edge">
<title>Node1&#45;&gt;Node8</title>
<g id="a_edge7_Node000001_Node000008"><a xlink:title=" ">
<path fill="none" stroke="#63b8ff" d="M70.84,-319.04C84.8,-323.52 101.73,-328.88 117,-333.5 123.6,-335.5 130.5,-337.54 137.38,-339.56"/>
<polygon fill="#63b8ff" stroke="#63b8ff" points="136.85,-343.05 147.43,-342.49 138.81,-336.33 136.85,-343.05"/>
</a>
</g>
</g>
<!-- Node9 -->
<g id="Node000009" class="node">
<title>Node9</title>
<g id="a_Node000009"><a xlink:href="namespacem__cbc.html#ab28553bfffb2974f19d2dc68847ae8d4" target="_top" xlink:title=" ">
<polygon fill="white" stroke="#666666" points="272.5,-324.5 130.5,-324.5 130.5,-294.5 272.5,-294.5 272.5,-324.5"/>
<text text-anchor="start" x="138.5" y="-312.5" font-family="Helvetica,sans-Serif" font-size="10.00">m_cbc::s_compute_speed</text>
<text text-anchor="middle" x="201.5" y="-301.5" font-family="Helvetica,sans-Serif" font-size="10.00">_of_sound</text>
</a>
</g>
</g>
<!-- Node1&#45;&gt;Node9 -->
<g id="edge8_Node000001_Node000009" class="edge">
<title>Node1&#45;&gt;Node9</title>
<g id="a_edge8_Node000001_Node000009"><a xlink:title=" ">
<path fill="none" stroke="#63b8ff" d="M81.21,-309.5C93.09,-309.5 106.56,-309.5 120.06,-309.5"/>
<polygon fill="#63b8ff" stroke="#63b8ff" points="120.37,-313 130.37,-309.5 120.37,-306 120.37,-313"/>
</a>
</g>
</g>
<!-- Node10 -->
<g id="Node000010" class="node">
<title>Node10</title>
<g id="a_Node000010"><a xlink:href="namespacem__compute__cbc.html#a2eafc57dabbcb291bc86e9895d6fc918" target="_top" xlink:title="L variables for the supersonic inflow CBC, see pg. 453 Thompson (1990). The supersonic inflow CBC is ...">
<polygon fill="white" stroke="#666666" points="279,-276.5 124,-276.5 124,-246.5 279,-246.5 279,-276.5"/>
<text text-anchor="start" x="132" y="-264.5" font-family="Helvetica,sans-Serif" font-size="10.00">m_compute_cbc::s_compute</text>
<text text-anchor="middle" x="201.5" y="-253.5" font-family="Helvetica,sans-Serif" font-size="10.00">_supersonic_inflow_l</text>
</a>
</g>
</g>
<!-- Node1&#45;&gt;Node10 -->
<g id="edge9_Node000001_Node000010" class="edge">
<title>Node1&#45;&gt;Node10</title>
<g id="a_edge9_Node000001_Node000010"><a xlink:title=" ">
<path fill="none" stroke="#63b8ff" d="M70.84,-299.96C84.8,-295.48 101.73,-290.12 117,-285.5 123.6,-283.5 130.5,-281.46 137.38,-279.44"/>
<polygon fill="#63b8ff" stroke="#63b8ff" points="138.81,-282.67 147.43,-276.51 136.85,-275.95 138.81,-282.67"/>
</a>
</g>
</g>
<!-- Node11 -->
<g id="Node000011" class="node">
<title>Node11</title>
<g id="a_Node000011"><a xlink:href="namespacem__compute__cbc.html#a2540ddd993a9852241a2d40168608fd4" target="_top" xlink:title="L variables for the supersonic outflow CBC, see pg. 453 of Thompson (1990). For the supersonic outflo...">
<polygon fill="white" stroke="#666666" points="279,-228.5 124,-228.5 124,-198.5 279,-198.5 279,-228.5"/>
<text text-anchor="start" x="132" y="-216.5" font-family="Helvetica,sans-Serif" font-size="10.00">m_compute_cbc::s_compute</text>
<text text-anchor="middle" x="201.5" y="-205.5" font-family="Helvetica,sans-Serif" font-size="10.00">_supersonic_outflow_l</text>
</a>
</g>
</g>
<!-- Node1&#45;&gt;Node11 -->
<g id="edge10_Node000001_Node000011" class="edge">
<title>Node1&#45;&gt;Node11</title>
<g id="a_edge10_Node000001_Node000011"><a xlink:title=" ">
<path fill="none" stroke="#63b8ff" d="M49.2,-299.55C61.74,-284.02 88.09,-254.08 117,-237.5 120.04,-235.76 123.21,-234.14 126.46,-232.62"/>
<polygon fill="#63b8ff" stroke="#63b8ff" points="127.99,-235.78 135.83,-228.65 125.26,-229.33 127.99,-235.78"/>
</a>
</g>
</g>
<!-- Node12 -->
<g id="Node000012" class="node">
<title>Node12</title>
<g id="a_Node000012"><a xlink:href="m__variables__conversion_8fpp_8f90.html#a372d7e72401e01311cda4b4b0b8c3d29" target="_top" xlink:title="The following subroutine handles the conversion between the primitive variables and the Eulerian flux...">
<polygon fill="white" stroke="#666666" points="258,-142.5 145,-142.5 145,-112.5 258,-112.5 258,-142.5"/>
<text text-anchor="start" x="153" y="-130.5" font-family="Helvetica,sans-Serif" font-size="10.00">s_convert_primitive</text>
<text text-anchor="middle" x="201.5" y="-119.5" font-family="Helvetica,sans-Serif" font-size="10.00">_to_flux_variables</text>
</a>
</g>
</g>
<!-- Node1&#45;&gt;Node12 -->
<g id="edge11_Node000001_Node000012" class="edge">
<title>Node1&#45;&gt;Node12</title>
<g id="a_edge11_Node000001_Node000012"><a xlink:title=" ">
<path fill="none" stroke="#63b8ff" d="M43.6,-299.68C49.84,-272.8 70.82,-197.28 117,-156.5 122.46,-151.68 128.76,-147.65 135.4,-144.29"/>
<polygon fill="#63b8ff" stroke="#63b8ff" points="136.98,-147.42 144.63,-140.1 134.08,-141.04 136.98,-147.42"/>
</a>
</g>
</g>
<!-- Node13 -->
<g id="Node000013" class="node">
<title>Node13</title>
<g id="a_Node000013"><a xlink:href="m__variables__conversion_8fpp_8f90.html#a429dacb6b48479f387786642eb79900d" target="_top" xlink:title=" ">
<polygon fill="white" stroke="#666666" points="476,-175.5 344,-175.5 344,-145.5 476,-145.5 476,-175.5"/>
<text text-anchor="start" x="352" y="-163.5" font-family="Helvetica,sans-Serif" font-size="10.00">s_convert_species_to</text>
<text text-anchor="middle" x="410" y="-152.5" font-family="Helvetica,sans-Serif" font-size="10.00">_mixture_variables_acc</text>
</a>
</g>
</g>
<!-- Node1&#45;&gt;Node13 -->
<g id="edge14_Node000001_Node000013" class="edge">
<title>Node1&#45;&gt;Node13</title>
<g id="a_edge14_Node000001_Node000013"><a xlink:title=" ">
<path fill="none" stroke="#63b8ff" d="M44.29,-299.93C51.71,-276.43 74.3,-215.92 117,-189.5 152.01,-167.83 259.23,-161.97 333.51,-160.59"/>
<polygon fill="#63b8ff" stroke="#63b8ff" points="333.82,-164.08 343.76,-160.42 333.71,-157.08 333.82,-164.08"/>
</a>
</g>
</g>
<!-- Node14 -->
<g id="Node000014" class="node">
<title>Node14</title>
<g id="a_Node000014"><a xlink:href="m__variables__conversion_8fpp_8f90.html#ab5ef0fb6705f3250d70ca1d9d750952c" target="_top" xlink:title=" ">
<polygon fill="white" stroke="#666666" points="498,-118.5 322,-118.5 322,-88.5 498,-88.5 498,-118.5"/>
<text text-anchor="start" x="330" y="-106.5" font-family="Helvetica,sans-Serif" font-size="10.00">s_convert_species_to</text>
<text text-anchor="middle" x="410" y="-95.5" font-family="Helvetica,sans-Serif" font-size="10.00">_mixture_variables_bubbles_acc</text>
</a>
</g>
</g>
<!-- Node1&#45;&gt;Node14 -->
<g id="edge15_Node000001_Node000014" class="edge">
<title>Node1&#45;&gt;Node14</title>
<g id="a_edge15_Node000001_Node000014"><a xlink:title=" ">
<path fill="none" stroke="#63b8ff" d="M41.5,-299.91C42.11,-265.94 49.24,-150.83 117,-103.5 186.33,-55.07 289.3,-69.76 352.63,-85.87"/>
<polygon fill="#63b8ff" stroke="#63b8ff" points="351.88,-89.29 362.44,-88.46 353.66,-82.52 351.88,-89.29"/>
</a>
</g>
</g>
<!-- Node15 -->
<g id="Node000015" class="node">
<title>Node15</title>
<g id="a_Node000015"><a xlink:href="namespacem__cbc.html#a8d4bf0d35fea6a2aed9771ce39dc651c" target="_top" xlink:title="Deallocation and/or the disassociation procedures that are necessary in order to finalize the CBC app...">
<polygon fill="white" stroke="#666666" points="262.5,-56 140.5,-56 140.5,-37 262.5,-37 262.5,-56"/>
<text text-anchor="middle" x="201.5" y="-44" font-family="Helvetica,sans-Serif" font-size="10.00">m_cbc::s_finalize_cbc</text>
</a>
</g>
</g>
<!-- Node1&#45;&gt;Node15 -->
<g id="edge16_Node000001_Node000015" class="edge">
<title>Node1&#45;&gt;Node15</title>
<g id="a_edge16_Node000001_Node000015"><a xlink:title=" ">
<path fill="none" stroke="#63b8ff" d="M41.51,-299.64C42.08,-263.46 49.05,-136.7 117,-70.5 121.22,-66.39 126.1,-62.97 131.34,-60.13"/>
<polygon fill="#63b8ff" stroke="#63b8ff" points="132.85,-63.29 140.44,-55.89 129.89,-56.94 132.85,-63.29"/>
</a>
</g>
</g>
<!-- Node16 -->
<g id="Node000016" class="node">
<title>Node16</title>
<g id="a_Node000016"><a xlink:href="namespacem__cbc.html#ae32673f5dc3342969a7b48e4348271eb" target="_top" xlink:title="The computation of parameters, the allocation of memory, the association of pointers and/or the execu...">
<polygon fill="white" stroke="#666666" points="265.5,-19 137.5,-19 137.5,0 265.5,0 265.5,-19"/>
<text text-anchor="middle" x="201.5" y="-7" font-family="Helvetica,sans-Serif" font-size="10.00">m_cbc::s_initialize_cbc</text>
</a>
</g>
</g>
<!-- Node1&#45;&gt;Node16 -->
<g id="edge17_Node000001_Node000016" class="edge">
<title>Node1&#45;&gt;Node16</title>
<g id="a_edge17_Node000001_Node000016"><a xlink:title=" ">
<path fill="none" stroke="#63b8ff" d="M42.74,-299.83C48.68,-254.86 75.7,-66.81 117,-27.5 120.35,-24.31 124.13,-21.63 128.18,-19.38"/>
<polygon fill="#63b8ff" stroke="#63b8ff" points="129.8,-22.49 137.41,-15.12 126.87,-16.13 129.8,-22.49"/>
</a>
</g>
</g>
<!-- Node12&#45;&gt;Node13 -->
<g id="edge12_Node000012_Node000013" class="edge">
<title>Node12&#45;&gt;Node13</title>
<g id="a_edge12_Node000012_Node000013"><a xlink:title=" ">
<path fill="none" stroke="#63b8ff" d="M258.11,-136.39C281.31,-140.09 308.63,-144.46 333.59,-148.45"/>
<polygon fill="#63b8ff" stroke="#63b8ff" points="333.34,-151.95 343.76,-150.07 334.44,-145.04 333.34,-151.95"/>
</a>
</g>
</g>
<!-- Node12&#45;&gt;Node14 -->
<g id="edge13_Node000012_Node000014" class="edge">
<title>Node12&#45;&gt;Node14</title>
<g id="a_edge13_Node000012_Node000014"><a xlink:title=" ">
<path fill="none" stroke="#63b8ff" d="M258.11,-121.04C274.64,-119.12 293.26,-116.95 311.62,-114.82"/>
<polygon fill="#63b8ff" stroke="#63b8ff" points="312.26,-118.27 321.79,-113.64 311.45,-111.31 312.26,-118.27"/>
</a>
</g>
</g>
</g>
</svg>
