<?xml version="1.0" encoding="UTF-8" standalone="no"?>
<!DOCTYPE svg PUBLIC "-//W3C//DTD SVG 1.1//EN"
 "http://www.w3.org/Graphics/SVG/1.1/DTD/svg11.dtd">
<!-- Generated by graphviz version 2.43.0 (0)
 -->
<!-- Title: m_riemann_solvers::s_finalize_riemann_solver Pages: 1 -->
<svg width="556pt" height="100pt"
 viewBox="0.00 0.00 556.00 99.50" xmlns="http://www.w3.org/2000/svg" xmlns:xlink="http://www.w3.org/1999/xlink">
<g id="graph0" class="graph" transform="scale(1 1) rotate(0) translate(4 95.5)">
<title>m_riemann_solvers::s_finalize_riemann_solver</title>
<!-- Node1 -->
<g id="node1" class="node">
<title>Node1</title>
<g id="a_node1"><a xlink:title="Deallocation and/or disassociation procedures that are needed to finalize the selected Riemann proble...">
<polygon fill="#bfbfbf" stroke="black" points="405,-33 405,-63 548,-63 548,-33 405,-33"/>
<text text-anchor="start" x="413" y="-51" font-family="Helvetica,sans-Serif" font-size="10.00">m_riemann_solvers::</text>
<text text-anchor="middle" x="476.5" y="-40" font-family="Helvetica,sans-Serif" font-size="10.00">s_finalize_riemann_solver</text>
</a>
</g>
</g>
<!-- Node2 -->
<g id="node2" class="node">
<title>Node2</title>
<g id="a_node2"><a xlink:href="namespacem__riemann__solvers.html#acc528a5919a3541742f3be994d0f7fa3" target="_top" xlink:title=" ">
<polygon fill="none" stroke="black" points="246.5,-58 246.5,-88 366.5,-88 366.5,-58 246.5,-58"/>
<text text-anchor="start" x="254.5" y="-76" font-family="Helvetica,sans-Serif" font-size="10.00">m_riemann_solvers::</text>
<text text-anchor="middle" x="306.5" y="-65" font-family="Helvetica,sans-Serif" font-size="10.00">s_hll_riemann_solver</text>
</a>
</g>
</g>
<!-- Node1&#45;&gt;Node2 -->
<g id="edge1" class="edge">
<title>Node1&#45;&gt;Node2</title>
<path fill="none" stroke="midnightblue" d="M394.6,-60.04C385.22,-61.44 375.78,-62.84 366.76,-64.18"/>
<polygon fill="midnightblue" stroke="midnightblue" points="395.36,-63.46 404.74,-58.53 394.33,-56.54 395.36,-63.46"/>
</g>
<!-- Node6 -->
<g id="node6" class="node">
<title>Node6</title>
<g id="a_node6"><a xlink:href="namespacem__riemann__solvers.html#a3da800253dd6fd31393f21ba9f2595f3" target="_top" xlink:title="This procedure is the implementation of the Harten, Lax, van Leer, and contact (HLLC) approximate Rie...">
<polygon fill="none" stroke="black" points="244,-9 244,-39 369,-39 369,-9 244,-9"/>
<text text-anchor="start" x="252" y="-27" font-family="Helvetica,sans-Serif" font-size="10.00">m_riemann_solvers::</text>
<text text-anchor="middle" x="306.5" y="-16" font-family="Helvetica,sans-Serif" font-size="10.00">s_hllc_riemann_solver</text>
</a>
</g>
</g>
<!-- Node1&#45;&gt;Node6 -->
<g id="edge6" class="edge">
<title>Node1&#45;&gt;Node6</title>
<path fill="none" stroke="midnightblue" d="M394.69,-36.46C386.09,-35.23 377.45,-33.99 369.12,-32.8"/>
<polygon fill="midnightblue" stroke="midnightblue" points="394.35,-39.94 404.74,-37.89 395.34,-33.01 394.35,-39.94"/>
</g>
<!-- Node3 -->
<g id="node3" class="node">
<title>Node3</title>
<g id="a_node3"><a xlink:href="namespacem__rhs.html#ae6f7edb814859919c5d1f739574155bd" target="_top" xlink:title="The computation of parameters, the allocation of memory, the association of pointers and/or the execu...">
<polygon fill="none" stroke="black" points="96,-61 96,-91 201,-91 201,-61 96,-61"/>
<text text-anchor="start" x="104" y="-79" font-family="Helvetica,sans-Serif" font-size="10.00">m_rhs::s_initialize</text>
<text text-anchor="middle" x="148.5" y="-68" font-family="Helvetica,sans-Serif" font-size="10.00">_rhs_module</text>
</a>
</g>
</g>
<!-- Node2&#45;&gt;Node3 -->
<g id="edge2" class="edge">
<title>Node2&#45;&gt;Node3</title>
<path fill="none" stroke="midnightblue" d="M235.89,-74.34C224.2,-74.56 212.25,-74.79 201.11,-75.01"/>
<polygon fill="midnightblue" stroke="midnightblue" points="236.15,-77.83 246.08,-74.14 236.01,-70.84 236.15,-77.83"/>
</g>
<!-- Node5 -->
<g id="node5" class="node">
<title>Node5</title>
<g id="a_node5"><a xlink:href="namespacem__riemann__solvers.html#aab7e6bf69b7d0b8b9d911f418b872130" target="_top" xlink:title="The computation of parameters, the allocation of memory, the association of pointers and/or the execu...">
<polygon fill="none" stroke="black" points="89,-0.5 89,-41.5 208,-41.5 208,-0.5 89,-0.5"/>
<text text-anchor="start" x="97" y="-29.5" font-family="Helvetica,sans-Serif" font-size="10.00">m_riemann_solvers::</text>
<text text-anchor="start" x="97" y="-18.5" font-family="Helvetica,sans-Serif" font-size="10.00">s_initialize_riemann</text>
<text text-anchor="middle" x="148.5" y="-7.5" font-family="Helvetica,sans-Serif" font-size="10.00">_solvers_module</text>
</a>
</g>
</g>
<!-- Node2&#45;&gt;Node5 -->
<g id="edge4" class="edge">
<title>Node2&#45;&gt;Node5</title>
<path fill="none" stroke="midnightblue" d="M250.59,-54.7C236.87,-50.12 222.09,-45.2 208.18,-40.56"/>
<polygon fill="midnightblue" stroke="midnightblue" points="249.78,-58.12 260.38,-57.96 252,-51.48 249.78,-58.12"/>
</g>
<!-- Node4 -->
<g id="node4" class="node">
<title>Node4</title>
<g id="a_node4"><a xlink:href="p__main_8f90.html#aeec10ee8e2940c953967da3e374e1579" target="_top" xlink:title="Quasi&#45;conservative, shock&#45; and interface&#45; capturing finite&#45;volume scheme for the multicomponent Navie...">
<polygon fill="none" stroke="black" points="0,-38.5 0,-57.5 53,-57.5 53,-38.5 0,-38.5"/>
<text text-anchor="middle" x="26.5" y="-45.5" font-family="Helvetica,sans-Serif" font-size="10.00">p_main</text>
</a>
</g>
</g>
<!-- Node3&#45;&gt;Node4 -->
<g id="edge3" class="edge">
<title>Node3&#45;&gt;Node4</title>
<path fill="none" stroke="midnightblue" d="M85.83,-61.61C74.34,-58.93 62.92,-56.27 53.28,-54.02"/>
<polygon fill="midnightblue" stroke="midnightblue" points="85.38,-65.1 95.91,-63.96 86.97,-58.28 85.38,-65.1"/>
</g>
<!-- Node5&#45;&gt;Node4 -->
<g id="edge5" class="edge">
<title>Node5&#45;&gt;Node4</title>
<path fill="none" stroke="midnightblue" d="M78.88,-36.44C69.7,-38.5 60.8,-40.51 53.05,-42.25"/>
<polygon fill="midnightblue" stroke="midnightblue" points="79.92,-39.79 88.91,-34.18 78.38,-32.96 79.92,-39.79"/>
</g>
<!-- Node6&#45;&gt;Node3 -->
<g id="edge7" class="edge">
<title>Node6&#45;&gt;Node3</title>
<path fill="none" stroke="midnightblue" d="M250.68,-42.27C232.31,-48.4 212.05,-55.15 194.52,-60.99"/>
<polygon fill="midnightblue" stroke="midnightblue" points="252,-45.52 260.38,-39.04 249.78,-38.88 252,-45.52"/>
</g>
<!-- Node6&#45;&gt;Node5 -->
<g id="edge8" class="edge">
<title>Node6&#45;&gt;Node5</title>
<path fill="none" stroke="midnightblue" d="M233.83,-22.62C225.24,-22.46 216.54,-22.29 208.16,-22.13"/>
<polygon fill="midnightblue" stroke="midnightblue" points="233.78,-26.12 243.84,-22.81 233.91,-19.12 233.78,-26.12"/>
</g>
</g>
</svg>
