<?xml version="1.0" encoding="UTF-8" standalone="no"?>
<!DOCTYPE svg PUBLIC "-//W3C//DTD SVG 1.1//EN"
 "http://www.w3.org/Graphics/SVG/1.1/DTD/svg11.dtd">
<!-- Generated by graphviz version 2.43.0 (0)
 -->
<!-- Title: m_bubbles::f_cpbw_km Pages: 1 -->
<svg width="710pt" height="242pt"
 viewBox="0.00 0.00 710.00 241.50" xmlns="http://www.w3.org/2000/svg" xmlns:xlink="http://www.w3.org/1999/xlink">
<g id="graph0" class="graph" transform="scale(1 1) rotate(0) translate(4 237.5)">
<title>m_bubbles::f_cpbw_km</title>
<!-- Node1 -->
<g id="node1" class="node">
<title>Node1</title>
<g id="a_node1"><a xlink:title="Function that computes the bubble wall pressure for Keller–Miksis bubbles.">
<polygon fill="#999999" stroke="#666666" points="702,-107 571,-107 571,-88 702,-88 702,-107"/>
<text text-anchor="middle" x="636.5" y="-95" font-family="Helvetica,sans-Serif" font-size="10.00">m_bubbles::f_cpbw_km</text>
</a>
</g>
</g>
<!-- Node1&#45;&gt;Node1 -->
<g id="edge1" class="edge">
<title>Node1&#45;&gt;Node1</title>
<path fill="none" stroke="#63b8ff" d="M667.49,-115.82C666.19,-121.01 655.86,-125 636.5,-125 607,-125 598.47,-115.73 610.91,-107.08"/>
<polygon fill="#63b8ff" stroke="#63b8ff" points="670.32,-113.75 662.09,-107.08 664.37,-117.43 670.32,-113.75"/>
</g>
<!-- Node2 -->
<g id="node2" class="node">
<title>Node2</title>
<g id="a_node2"><a xlink:href="namespacem__bubbles.html#af8d5471266acbaf1013d691290362308" target="_top" xlink:title=" ">
<polygon fill="white" stroke="#666666" points="535,-135.5 406,-135.5 406,-105.5 535,-105.5 535,-135.5"/>
<text text-anchor="start" x="414" y="-123.5" font-family="Helvetica,sans-Serif" font-size="10.00">m_bubbles::s_compute</text>
<text text-anchor="middle" x="470.5" y="-112.5" font-family="Helvetica,sans-Serif" font-size="10.00">_bubble_source</text>
</a>
</g>
</g>
<!-- Node1&#45;&gt;Node2 -->
<g id="edge2" class="edge">
<title>Node1&#45;&gt;Node2</title>
<path fill="none" stroke="#63b8ff" d="M560.69,-107.99C552.12,-109.19 543.45,-110.41 535.04,-111.59"/>
<polygon fill="#63b8ff" stroke="#63b8ff" points="561.27,-111.45 570.68,-106.59 560.29,-104.51 561.27,-111.45"/>
</g>
<!-- Node8 -->
<g id="node8" class="node">
<title>Node8</title>
<g id="a_node8"><a xlink:href="namespacem__riemann__solvers.html#a6c9d70572e9b98586bab20b028557a5a" target="_top" xlink:title="This procedure is the implementation of the Harten, Lax, van Leer, and contact (HLLC) approximate Rie...">
<polygon fill="white" stroke="#666666" points="369.5,-89.5 244.5,-89.5 244.5,-59.5 369.5,-59.5 369.5,-89.5"/>
<text text-anchor="start" x="252.5" y="-77.5" font-family="Helvetica,sans-Serif" font-size="10.00">m_riemann_solvers::</text>
<text text-anchor="middle" x="307" y="-66.5" font-family="Helvetica,sans-Serif" font-size="10.00">s_hllc_riemann_solver</text>
</a>
</g>
</g>
<!-- Node1&#45;&gt;Node8 -->
<g id="edge10" class="edge">
<title>Node1&#45;&gt;Node8</title>
<path fill="none" stroke="#63b8ff" d="M560.62,-92.24C502.77,-88.18 423.7,-82.63 369.52,-78.82"/>
<polygon fill="#63b8ff" stroke="#63b8ff" points="560.58,-95.75 570.8,-92.96 561.07,-88.76 560.58,-95.75"/>
</g>
<!-- Node3 -->
<g id="node3" class="node">
<title>Node3</title>
<g id="a_node3"><a xlink:href="namespacem__rhs.html#a361f0038973069452cc88430c49bcfe8" target="_top" xlink:title=" ">
<polygon fill="white" stroke="#666666" points="370,-156 244,-156 244,-137 370,-137 370,-156"/>
<text text-anchor="middle" x="307" y="-144" font-family="Helvetica,sans-Serif" font-size="10.00">m_rhs::s_compute_rhs</text>
</a>
</g>
</g>
<!-- Node2&#45;&gt;Node3 -->
<g id="edge3" class="edge">
<title>Node2&#45;&gt;Node3</title>
<path fill="none" stroke="#63b8ff" d="M395.76,-132.37C386.18,-133.91 376.46,-135.48 367.16,-136.98"/>
<polygon fill="#63b8ff" stroke="#63b8ff" points="396.35,-135.82 405.67,-130.78 395.24,-128.91 396.35,-135.82"/>
</g>
<!-- Node4 -->
<g id="node4" class="node">
<title>Node4</title>
<g id="a_node4"><a xlink:href="namespacem__time__steppers.html#a8876606e6152b6c8f35272074a088142" target="_top" xlink:title="1st order TVD RK time&#45;stepping algorithm">
<polygon fill="white" stroke="#666666" points="205,-233.5 92,-233.5 92,-203.5 205,-203.5 205,-233.5"/>
<text text-anchor="start" x="100" y="-221.5" font-family="Helvetica,sans-Serif" font-size="10.00">m_time_steppers::s</text>
<text text-anchor="middle" x="148.5" y="-210.5" font-family="Helvetica,sans-Serif" font-size="10.00">_1st_order_tvd_rk</text>
</a>
</g>
</g>
<!-- Node3&#45;&gt;Node4 -->
<g id="edge4" class="edge">
<title>Node3&#45;&gt;Node4</title>
<path fill="none" stroke="#63b8ff" d="M278.44,-160.6C258.93,-170.44 232.06,-183.69 208,-194.5 201.39,-197.47 194.3,-200.5 187.42,-203.37"/>
<polygon fill="#63b8ff" stroke="#63b8ff" points="280.05,-163.71 287.39,-156.07 276.88,-157.47 280.05,-163.71"/>
</g>
<!-- Node6 -->
<g id="node6" class="node">
<title>Node6</title>
<g id="a_node6"><a xlink:href="namespacem__time__steppers.html#adb82b6c6041c825d0999e6890ed825cc" target="_top" xlink:title="2nd order TVD RK time&#45;stepping algorithm">
<polygon fill="white" stroke="#666666" points="205,-185.5 92,-185.5 92,-155.5 205,-155.5 205,-185.5"/>
<text text-anchor="start" x="100" y="-173.5" font-family="Helvetica,sans-Serif" font-size="10.00">m_time_steppers::s</text>
<text text-anchor="middle" x="148.5" y="-162.5" font-family="Helvetica,sans-Serif" font-size="10.00">_2nd_order_tvd_rk</text>
</a>
</g>
</g>
<!-- Node3&#45;&gt;Node6 -->
<g id="edge6" class="edge">
<title>Node3&#45;&gt;Node6</title>
<path fill="none" stroke="#63b8ff" d="M233.71,-157.59C224.07,-159.06 214.3,-160.56 205,-161.99"/>
<polygon fill="#63b8ff" stroke="#63b8ff" points="234.34,-161.03 243.7,-156.05 233.28,-154.11 234.34,-161.03"/>
</g>
<!-- Node7 -->
<g id="node7" class="node">
<title>Node7</title>
<g id="a_node7"><a xlink:href="namespacem__time__steppers.html#ae08efa7df1f8efae0f726dd5114176a8" target="_top" xlink:title="3rd order TVD RK time&#45;stepping algorithm">
<polygon fill="white" stroke="#666666" points="205,-137.5 92,-137.5 92,-107.5 205,-107.5 205,-137.5"/>
<text text-anchor="start" x="100" y="-125.5" font-family="Helvetica,sans-Serif" font-size="10.00">m_time_steppers::s</text>
<text text-anchor="middle" x="148.5" y="-114.5" font-family="Helvetica,sans-Serif" font-size="10.00">_3rd_order_tvd_rk</text>
</a>
</g>
</g>
<!-- Node3&#45;&gt;Node7 -->
<g id="edge8" class="edge">
<title>Node3&#45;&gt;Node7</title>
<path fill="none" stroke="#63b8ff" d="M233.71,-135.41C224.07,-133.94 214.3,-132.44 205,-131.01"/>
<polygon fill="#63b8ff" stroke="#63b8ff" points="233.28,-138.89 243.7,-136.95 234.34,-131.97 233.28,-138.89"/>
</g>
<!-- Node5 -->
<g id="node5" class="node">
<title>Node5</title>
<g id="a_node5"><a xlink:href="p__main_8fpp_8f90.html#aeec10ee8e2940c953967da3e374e1579" target="_top" xlink:title="Quasi&#45;conservative, shock&#45; and interface&#45; capturing finite&#45;volume scheme for the multicomponent Navie...">
<polygon fill="white" stroke="#666666" points="53,-132 0,-132 0,-113 53,-113 53,-132"/>
<text text-anchor="middle" x="26.5" y="-120" font-family="Helvetica,sans-Serif" font-size="10.00">p_main</text>
</a>
</g>
</g>
<!-- Node4&#45;&gt;Node5 -->
<g id="edge5" class="edge">
<title>Node4&#45;&gt;Node5</title>
<path fill="none" stroke="#63b8ff" d="M94.87,-198.4C92.85,-197.16 90.88,-195.86 89,-194.5 64.5,-176.76 43.45,-147.33 33.54,-132.17"/>
<polygon fill="#63b8ff" stroke="#63b8ff" points="93.62,-201.7 104.07,-203.45 96.99,-195.57 93.62,-201.7"/>
</g>
<!-- Node6&#45;&gt;Node5 -->
<g id="edge7" class="edge">
<title>Node6&#45;&gt;Node5</title>
<path fill="none" stroke="#63b8ff" d="M100.21,-151.58C83.48,-144.89 65.37,-137.65 51.41,-132.06"/>
<polygon fill="#63b8ff" stroke="#63b8ff" points="99.28,-154.98 109.86,-155.44 101.88,-148.48 99.28,-154.98"/>
</g>
<!-- Node7&#45;&gt;Node5 -->
<g id="edge9" class="edge">
<title>Node7&#45;&gt;Node5</title>
<path fill="none" stroke="#63b8ff" d="M81.61,-122.5C71.53,-122.5 61.67,-122.5 53.2,-122.5"/>
<polygon fill="#63b8ff" stroke="#63b8ff" points="81.72,-126 91.72,-122.5 81.72,-119 81.72,-126"/>
</g>
<!-- Node9 -->
<g id="node9" class="node">
<title>Node9</title>
<g id="a_node9"><a xlink:href="namespacem__rhs.html#ae6f7edb814859919c5d1f739574155bd" target="_top" xlink:title="The computation of parameters, the allocation of memory, the association of pointers and/or the execu...">
<polygon fill="white" stroke="#666666" points="201,-89.5 96,-89.5 96,-59.5 201,-59.5 201,-89.5"/>
<text text-anchor="start" x="104" y="-77.5" font-family="Helvetica,sans-Serif" font-size="10.00">m_rhs::s_initialize</text>
<text text-anchor="middle" x="148.5" y="-66.5" font-family="Helvetica,sans-Serif" font-size="10.00">_rhs_module</text>
</a>
</g>
</g>
<!-- Node8&#45;&gt;Node9 -->
<g id="edge11" class="edge">
<title>Node8&#45;&gt;Node9</title>
<path fill="none" stroke="#63b8ff" d="M234.08,-74.5C223.03,-74.5 211.82,-74.5 201.32,-74.5"/>
<polygon fill="#63b8ff" stroke="#63b8ff" points="234.15,-78 244.15,-74.5 234.15,-71 234.15,-78"/>
</g>
<!-- Node10 -->
<g id="node10" class="node">
<title>Node10</title>
<g id="a_node10"><a xlink:href="namespacem__riemann__solvers.html#aab7e6bf69b7d0b8b9d911f418b872130" target="_top" xlink:title="The computation of parameters, the allocation of memory, the association of pointers and/or the execu...">
<polygon fill="white" stroke="#666666" points="208,-41 89,-41 89,0 208,0 208,-41"/>
<text text-anchor="start" x="97" y="-29" font-family="Helvetica,sans-Serif" font-size="10.00">m_riemann_solvers::</text>
<text text-anchor="start" x="97" y="-18" font-family="Helvetica,sans-Serif" font-size="10.00">s_initialize_riemann</text>
<text text-anchor="middle" x="148.5" y="-7" font-family="Helvetica,sans-Serif" font-size="10.00">_solvers_module</text>
</a>
</g>
</g>
<!-- Node8&#45;&gt;Node10 -->
<g id="edge13" class="edge">
<title>Node8&#45;&gt;Node10</title>
<path fill="none" stroke="#63b8ff" d="M252.69,-56.1C238.32,-51.15 222.71,-45.76 208.07,-40.71"/>
<polygon fill="#63b8ff" stroke="#63b8ff" points="251.81,-59.5 262.41,-59.46 254.09,-52.89 251.81,-59.5"/>
</g>
<!-- Node9&#45;&gt;Node5 -->
<g id="edge12" class="edge">
<title>Node9&#45;&gt;Node5</title>
<path fill="none" stroke="#63b8ff" d="M100.21,-93.42C83.48,-100.11 65.37,-107.35 51.41,-112.94"/>
<polygon fill="#63b8ff" stroke="#63b8ff" points="101.88,-96.52 109.86,-89.56 99.28,-90.02 101.88,-96.52"/>
</g>
<!-- Node10&#45;&gt;Node5 -->
<g id="edge14" class="edge">
<title>Node10&#45;&gt;Node5</title>
<path fill="none" stroke="#63b8ff" d="M94.44,-46.47C92.57,-47.78 90.75,-49.12 89,-50.5 65.53,-69.05 44.35,-97.62 34.06,-112.58"/>
<polygon fill="#63b8ff" stroke="#63b8ff" points="96.41,-49.37 102.91,-41 92.61,-43.48 96.41,-49.37"/>
</g>
</g>
</svg>
