<?xml version="1.0" encoding="UTF-8" standalone="no"?>
<!DOCTYPE svg PUBLIC "-//W3C//DTD SVG 1.1//EN"
 "http://www.w3.org/Graphics/SVG/1.1/DTD/svg11.dtd">
<!-- Generated by graphviz version 2.43.0 (0)
 -->
<!-- Title: m_qbmm::s_mom_inv Pages: 1 -->
<svg width="456pt" height="142pt"
 viewBox="0.00 0.00 456.00 142.00" xmlns="http://www.w3.org/2000/svg" xmlns:xlink="http://www.w3.org/1999/xlink">
<g id="graph0" class="graph" transform="scale(1 1) rotate(0) translate(4 138)">
<title>m_qbmm::s_mom_inv</title>
<!-- Node1 -->
<g id="node1" class="node">
<title>Node1</title>
<g id="a_node1"><a xlink:title=" ">
<polygon fill="#bfbfbf" stroke="black" points="0,-57.5 0,-76.5 125,-76.5 125,-57.5 0,-57.5"/>
<text text-anchor="middle" x="62.5" y="-64.5" font-family="Helvetica,sans-Serif" font-size="10.00">m_qbmm::s_mom_inv</text>
</a>
</g>
</g>
<!-- Node2 -->
<g id="node2" class="node">
<title>Node2</title>
<g id="a_node2"><a xlink:href="namespacem__qbmm.html#ab75dc85e5db9855e807348c9de346425" target="_top" xlink:title=" ">
<polygon fill="none" stroke="black" points="174,-114.5 174,-133.5 276,-133.5 276,-114.5 174,-114.5"/>
<text text-anchor="middle" x="225" y="-121.5" font-family="Helvetica,sans-Serif" font-size="10.00">m_qbmm::f_quad</text>
</a>
</g>
</g>
<!-- Node1&#45;&gt;Node2 -->
<g id="edge1" class="edge">
<title>Node1&#45;&gt;Node2</title>
<path fill="none" stroke="midnightblue" d="M86.56,-76.58C106.19,-84.59 135.24,-96.11 161,-105 167.39,-107.2 174.18,-109.4 180.86,-111.48"/>
<polygon fill="midnightblue" stroke="midnightblue" points="179.91,-114.85 190.49,-114.43 181.95,-108.16 179.91,-114.85"/>
</g>
<!-- Node3 -->
<g id="node3" class="node">
<title>Node3</title>
<g id="a_node3"><a xlink:href="namespacem__qbmm.html#a0b39e0a696825544e036c4f8beeacfa1" target="_top" xlink:title=" ">
<polygon fill="none" stroke="black" points="168,-76.5 168,-95.5 282,-95.5 282,-76.5 168,-76.5"/>
<text text-anchor="middle" x="225" y="-83.5" font-family="Helvetica,sans-Serif" font-size="10.00">m_qbmm::f_quad2d</text>
</a>
</g>
</g>
<!-- Node1&#45;&gt;Node3 -->
<g id="edge2" class="edge">
<title>Node1&#45;&gt;Node3</title>
<path fill="none" stroke="midnightblue" d="M125.09,-74.29C135.75,-75.55 146.86,-76.87 157.63,-78.14"/>
<polygon fill="midnightblue" stroke="midnightblue" points="157.49,-81.65 167.83,-79.35 158.31,-74.7 157.49,-81.65"/>
</g>
<!-- Node4 -->
<g id="node4" class="node">
<title>Node4</title>
<g id="a_node4"><a xlink:href="namespacem__qbmm.html#a1d24dcdb5e6067a3d275258c341325da" target="_top" xlink:title=" ">
<polygon fill="none" stroke="black" points="161,-38.5 161,-57.5 289,-57.5 289,-38.5 161,-38.5"/>
<text text-anchor="middle" x="225" y="-45.5" font-family="Helvetica,sans-Serif" font-size="10.00">m_qbmm::s_chyqmom</text>
</a>
</g>
</g>
<!-- Node1&#45;&gt;Node4 -->
<g id="edge3" class="edge">
<title>Node1&#45;&gt;Node4</title>
<path fill="none" stroke="midnightblue" d="M125.09,-59.71C133.55,-58.71 142.29,-57.67 150.92,-56.65"/>
<polygon fill="midnightblue" stroke="midnightblue" points="151.46,-60.11 160.98,-55.46 150.63,-53.16 151.46,-60.11"/>
</g>
<!-- Node6 -->
<g id="node6" class="node">
<title>Node6</title>
<g id="a_node6"><a xlink:href="namespacem__qbmm.html#ad9cdf4bbd8165d785faec51d38d14e82" target="_top" xlink:title=" ">
<polygon fill="none" stroke="black" points="173,-0.5 173,-19.5 277,-19.5 277,-0.5 173,-0.5"/>
<text text-anchor="middle" x="225" y="-7.5" font-family="Helvetica,sans-Serif" font-size="10.00">m_qbmm::s_coeff</text>
</a>
</g>
</g>
<!-- Node1&#45;&gt;Node6 -->
<g id="edge5" class="edge">
<title>Node1&#45;&gt;Node6</title>
<path fill="none" stroke="midnightblue" d="M86.56,-57.42C106.19,-49.41 135.24,-37.89 161,-29 167.39,-26.8 174.18,-24.6 180.86,-22.52"/>
<polygon fill="midnightblue" stroke="midnightblue" points="181.95,-25.84 190.49,-19.57 179.91,-19.15 181.95,-25.84"/>
</g>
<!-- Node5 -->
<g id="node5" class="node">
<title>Node5</title>
<g id="a_node5"><a xlink:href="namespacem__qbmm.html#a879ca427353c45ca833d0ecb8a13f05b" target="_top" xlink:title=" ">
<polygon fill="none" stroke="black" points="325,-38.5 325,-57.5 448,-57.5 448,-38.5 325,-38.5"/>
<text text-anchor="middle" x="386.5" y="-45.5" font-family="Helvetica,sans-Serif" font-size="10.00">m_qbmm::s_hyqmom</text>
</a>
</g>
</g>
<!-- Node4&#45;&gt;Node5 -->
<g id="edge4" class="edge">
<title>Node4&#45;&gt;Node5</title>
<path fill="none" stroke="midnightblue" d="M289.04,-48C297.4,-48 306.01,-48 314.49,-48"/>
<polygon fill="midnightblue" stroke="midnightblue" points="314.74,-51.5 324.74,-48 314.74,-44.5 314.74,-51.5"/>
</g>
</g>
</svg>
