<?xml version="1.0" encoding="UTF-8" standalone="no"?>
<!DOCTYPE svg PUBLIC "-//W3C//DTD SVG 1.1//EN"
 "http://www.w3.org/Graphics/SVG/1.1/DTD/svg11.dtd">
<!-- Generated by graphviz version 2.43.0 (0)
 -->
<!-- Title: m_riemann_solvers::s_hll_riemann_solver Pages: 1 -->
<svg width="318pt" height="205pt"
 viewBox="0.00 0.00 318.00 204.50" xmlns="http://www.w3.org/2000/svg" xmlns:xlink="http://www.w3.org/1999/xlink">
<g id="graph0" class="graph" transform="scale(1 1) rotate(0) translate(4 200.5)">
<title>m_riemann_solvers::s_hll_riemann_solver</title>
<!-- Node1 -->
<g id="node1" class="node">
<title>Node1</title>
<g id="a_node1"><a xlink:title=" ">
<polygon fill="#999999" stroke="#666666" points="120,-121.5 0,-121.5 0,-91.5 120,-91.5 120,-121.5"/>
<text text-anchor="start" x="8" y="-109.5" font-family="Helvetica,sans-Serif" font-size="10.00">m_riemann_solvers::</text>
<text text-anchor="middle" x="60" y="-98.5" font-family="Helvetica,sans-Serif" font-size="10.00">s_hll_riemann_solver</text>
</a>
</g>
</g>
<!-- Node2 -->
<g id="node2" class="node">
<title>Node2</title>
<g id="a_node2"><a xlink:href="namespacem__riemann__solvers.html#a1f08e0b3e2808819c1331e41c99f5bbf" target="_top" xlink:title=" ">
<polygon fill="white" stroke="#666666" points="310,-196.5 156,-196.5 156,-166.5 310,-166.5 310,-196.5"/>
<text text-anchor="start" x="164" y="-184.5" font-family="Helvetica,sans-Serif" font-size="10.00">m_riemann_solvers::</text>
<text text-anchor="middle" x="233" y="-173.5" font-family="Helvetica,sans-Serif" font-size="10.00">s_compute_speed_of_sound</text>
</a>
</g>
</g>
<!-- Node1&#45;&gt;Node2 -->
<g id="edge1" class="edge">
<title>Node1&#45;&gt;Node2</title>
<path fill="none" stroke="#63b8ff" d="M86.17,-121.69C104.96,-132.6 131.51,-147.17 156,-157.5 160.47,-159.38 165.13,-161.2 169.86,-162.94"/>
<polygon fill="#63b8ff" stroke="#63b8ff" points="169.02,-166.35 179.61,-166.37 171.34,-159.75 169.02,-166.35"/>
</g>
<!-- Node3 -->
<g id="node3" class="node">
<title>Node3</title>
<g id="a_node3"><a xlink:href="namespacem__riemann__solvers.html#ab679d890c95c6cb1ee3dc5e5a9ae1c19" target="_top" xlink:title="Deallocation and/or disassociation procedures that are needed to finalize the selected Riemann proble...">
<polygon fill="white" stroke="#666666" points="304.5,-148.5 161.5,-148.5 161.5,-118.5 304.5,-118.5 304.5,-148.5"/>
<text text-anchor="start" x="169.5" y="-136.5" font-family="Helvetica,sans-Serif" font-size="10.00">m_riemann_solvers::</text>
<text text-anchor="middle" x="233" y="-125.5" font-family="Helvetica,sans-Serif" font-size="10.00">s_finalize_riemann_solver</text>
</a>
</g>
</g>
<!-- Node1&#45;&gt;Node3 -->
<g id="edge2" class="edge">
<title>Node1&#45;&gt;Node3</title>
<path fill="none" stroke="#63b8ff" d="M120.33,-115.87C130.34,-117.45 140.89,-119.11 151.34,-120.76"/>
<polygon fill="#63b8ff" stroke="#63b8ff" points="150.88,-124.23 161.3,-122.34 151.97,-117.32 150.88,-124.23"/>
</g>
<!-- Node4 -->
<g id="node4" class="node">
<title>Node4</title>
<g id="a_node4"><a xlink:href="namespacem__riemann__solvers.html#a3f244d4b1bc8e00f8c3c5b6f96aa5448" target="_top" xlink:title="The computation of parameters, the allocation of memory, the association of pointers and/or the execu...">
<polygon fill="white" stroke="#666666" points="292.5,-100 173.5,-100 173.5,-59 292.5,-59 292.5,-100"/>
<text text-anchor="start" x="181.5" y="-88" font-family="Helvetica,sans-Serif" font-size="10.00">m_riemann_solvers::</text>
<text text-anchor="start" x="181.5" y="-77" font-family="Helvetica,sans-Serif" font-size="10.00">s_initialize_riemann</text>
<text text-anchor="middle" x="233" y="-66" font-family="Helvetica,sans-Serif" font-size="10.00">_solver</text>
</a>
</g>
</g>
<!-- Node1&#45;&gt;Node4 -->
<g id="edge3" class="edge">
<title>Node1&#45;&gt;Node4</title>
<path fill="none" stroke="#63b8ff" d="M120.33,-97.13C134.14,-94.95 148.97,-92.61 163.16,-90.37"/>
<polygon fill="#63b8ff" stroke="#63b8ff" points="164.02,-93.78 173.36,-88.76 162.93,-86.86 164.02,-93.78"/>
</g>
<!-- Node5 -->
<g id="node5" class="node">
<title>Node5</title>
<g id="a_node5"><a xlink:href="namespacem__riemann__solvers.html#a2b90cc8425b57f4a7ea4dc0d839e9f75" target="_top" xlink:title="The purpose of this subroutine is to populate the buffers of the left and right Riemann states variab...">
<polygon fill="white" stroke="#666666" points="308.5,-41 157.5,-41 157.5,0 308.5,0 308.5,-41"/>
<text text-anchor="start" x="165.5" y="-29" font-family="Helvetica,sans-Serif" font-size="10.00">m_riemann_solvers::</text>
<text text-anchor="start" x="165.5" y="-18" font-family="Helvetica,sans-Serif" font-size="10.00">s_populate_riemann_states</text>
<text text-anchor="middle" x="233" y="-7" font-family="Helvetica,sans-Serif" font-size="10.00">_variables_buffers</text>
</a>
</g>
</g>
<!-- Node1&#45;&gt;Node5 -->
<g id="edge4" class="edge">
<title>Node1&#45;&gt;Node5</title>
<path fill="none" stroke="#63b8ff" d="M84.25,-91.41C103.14,-79.48 130.71,-62.85 156,-50.5 159.73,-48.68 163.6,-46.88 167.52,-45.13"/>
<polygon fill="#63b8ff" stroke="#63b8ff" points="168.98,-48.31 176.76,-41.12 166.19,-41.89 168.98,-48.31"/>
</g>
</g>
</svg>
