<?xml version="1.0" encoding="UTF-8" standalone="no"?>
<!DOCTYPE svg PUBLIC "-//W3C//DTD SVG 1.1//EN"
 "http://www.w3.org/Graphics/SVG/1.1/DTD/svg11.dtd">
<!-- Generated by graphviz version 2.43.0 (0)
 -->
<!-- Title: m_data_output::s_write_serial_data_files Pages: 1 -->
<svg width="525pt" height="205pt"
 viewBox="0.00 0.00 525.00 204.50" xmlns="http://www.w3.org/2000/svg" xmlns:xlink="http://www.w3.org/1999/xlink">
<g id="graph0" class="graph" transform="scale(1 1) rotate(0) translate(4 200.5)">
<title>m_data_output::s_write_serial_data_files</title>
<!-- Node1 -->
<g id="node1" class="node">
<title>Node1</title>
<g id="a_node1"><a xlink:title="The goal of this subroutine is to output the grid and conservative variables data files for given tim...">
<polygon fill="#999999" stroke="#666666" points="131,-121.5 0,-121.5 0,-91.5 131,-91.5 131,-121.5"/>
<text text-anchor="start" x="8" y="-109.5" font-family="Helvetica,sans-Serif" font-size="10.00">m_data_output::s_write</text>
<text text-anchor="middle" x="65.5" y="-98.5" font-family="Helvetica,sans-Serif" font-size="10.00">_serial_data_files</text>
</a>
</g>
</g>
<!-- Node2 -->
<g id="node2" class="node">
<title>Node2</title>
<g id="a_node2"><a xlink:href="namespacem__variables__conversion.html#a86ac76fa70eabaede1b0f3a4af740560" target="_top" xlink:title="The following procedure handles the conversion between the conservative variables and the primitive v...">
<polygon fill="white" stroke="#666666" points="305,-127 167,-127 167,-86 305,-86 305,-127"/>
<text text-anchor="start" x="175" y="-115" font-family="Helvetica,sans-Serif" font-size="10.00">m_variables_conversion</text>
<text text-anchor="start" x="175" y="-104" font-family="Helvetica,sans-Serif" font-size="10.00">::s_convert_conservative</text>
<text text-anchor="middle" x="236" y="-93" font-family="Helvetica,sans-Serif" font-size="10.00">_to_primitive_variables</text>
</a>
</g>
</g>
<!-- Node1&#45;&gt;Node2 -->
<g id="edge1" class="edge">
<title>Node1&#45;&gt;Node2</title>
<path fill="none" stroke="#63b8ff" d="M131.16,-106.5C139.57,-106.5 148.25,-106.5 156.85,-106.5"/>
<polygon fill="#63b8ff" stroke="#63b8ff" points="156.87,-110 166.87,-106.5 156.87,-103 156.87,-110"/>
</g>
<!-- Node3 -->
<g id="node3" class="node">
<title>Node3</title>
<g id="a_node3"><a xlink:href="namespacem__global__parameters.html#ad6c69097a0e9f5acf637c6b49e0bd1ea" target="_top" xlink:title="Computes the bubble number density n from the conservative variables .">
<polygon fill="white" stroke="#666666" points="493,-196.5 365,-196.5 365,-166.5 493,-166.5 493,-196.5"/>
<text text-anchor="start" x="373" y="-184.5" font-family="Helvetica,sans-Serif" font-size="10.00">m_global_parameters</text>
<text text-anchor="middle" x="429" y="-173.5" font-family="Helvetica,sans-Serif" font-size="10.00">::s_comp_n_from_cons</text>
</a>
</g>
</g>
<!-- Node2&#45;&gt;Node3 -->
<g id="edge2" class="edge">
<title>Node2&#45;&gt;Node3</title>
<path fill="none" stroke="#63b8ff" d="M274.77,-127.14C294.18,-137.2 318.44,-148.94 341,-157.5 346.44,-159.56 352.14,-161.54 357.9,-163.4"/>
<polygon fill="#63b8ff" stroke="#63b8ff" points="357.03,-166.79 367.62,-166.42 359.11,-160.11 357.03,-166.79"/>
</g>
<!-- Node4 -->
<g id="node4" class="node">
<title>Node4</title>
<g id="a_node4"><a xlink:href="namespacem__variables__conversion.html#a1be52cb9db2d49f8f256b226d72b8d4c" target="_top" xlink:title="This procedure conditionally calculates the appropriate pressure.">
<polygon fill="white" stroke="#666666" points="496.5,-148.5 361.5,-148.5 361.5,-118.5 496.5,-118.5 496.5,-148.5"/>
<text text-anchor="start" x="369.5" y="-136.5" font-family="Helvetica,sans-Serif" font-size="10.00">m_variables_conversion</text>
<text text-anchor="middle" x="429" y="-125.5" font-family="Helvetica,sans-Serif" font-size="10.00">::s_compute_pressure</text>
</a>
</g>
</g>
<!-- Node2&#45;&gt;Node4 -->
<g id="edge3" class="edge">
<title>Node2&#45;&gt;Node4</title>
<path fill="none" stroke="#63b8ff" d="M305.15,-116.13C320.17,-118.26 336.19,-120.52 351.52,-122.69"/>
<polygon fill="#63b8ff" stroke="#63b8ff" points="351.09,-126.16 361.48,-124.1 352.07,-119.23 351.09,-126.16"/>
</g>
<!-- Node5 -->
<g id="node5" class="node">
<title>Node5</title>
<g id="a_node5"><a xlink:href="namespacem__variables__conversion.html#a0e52444cc72f2fd0ea3a6d3543cfa32e" target="_top" xlink:title=" ">
<polygon fill="white" stroke="#666666" points="496.5,-100 361.5,-100 361.5,-59 496.5,-59 496.5,-100"/>
<text text-anchor="start" x="369.5" y="-88" font-family="Helvetica,sans-Serif" font-size="10.00">m_variables_conversion</text>
<text text-anchor="start" x="369.5" y="-77" font-family="Helvetica,sans-Serif" font-size="10.00">::s_convert_species_to</text>
<text text-anchor="middle" x="429" y="-66" font-family="Helvetica,sans-Serif" font-size="10.00">_mixture_variables_acc</text>
</a>
</g>
</g>
<!-- Node2&#45;&gt;Node5 -->
<g id="edge4" class="edge">
<title>Node2&#45;&gt;Node5</title>
<path fill="none" stroke="#63b8ff" d="M305.15,-96.87C320.17,-94.74 336.19,-92.48 351.52,-90.31"/>
<polygon fill="#63b8ff" stroke="#63b8ff" points="352.07,-93.77 361.48,-88.9 351.09,-86.84 352.07,-93.77"/>
</g>
<!-- Node6 -->
<g id="node6" class="node">
<title>Node6</title>
<g id="a_node6"><a xlink:href="namespacem__variables__conversion.html#a915eb0e3917fc09375124cf3df2c6df6" target="_top" xlink:title=" ">
<polygon fill="white" stroke="#666666" points="517,-41 341,-41 341,0 517,0 517,-41"/>
<text text-anchor="start" x="349" y="-29" font-family="Helvetica,sans-Serif" font-size="10.00">m_variables_conversion</text>
<text text-anchor="start" x="349" y="-18" font-family="Helvetica,sans-Serif" font-size="10.00">::s_convert_species_to</text>
<text text-anchor="middle" x="429" y="-7" font-family="Helvetica,sans-Serif" font-size="10.00">_mixture_variables_bubbles_acc</text>
</a>
</g>
</g>
<!-- Node2&#45;&gt;Node6 -->
<g id="edge5" class="edge">
<title>Node2&#45;&gt;Node6</title>
<path fill="none" stroke="#63b8ff" d="M271.91,-85.87C291.77,-74.6 317.33,-60.87 341,-50.5 345.43,-48.56 350.03,-46.66 354.7,-44.81"/>
<polygon fill="#63b8ff" stroke="#63b8ff" points="356.26,-47.96 364.34,-41.11 353.75,-41.43 356.26,-47.96"/>
</g>
</g>
</svg>
