<?xml version="1.0" encoding="UTF-8" standalone="no"?>
<!DOCTYPE svg PUBLIC "-//W3C//DTD SVG 1.1//EN"
 "http://www.w3.org/Graphics/SVG/1.1/DTD/svg11.dtd">
<!-- Generated by graphviz version 2.43.0 (0)
 -->
<!-- Title: m_derived_variables::s_non_symmetric_moments Pages: 1 -->
<svg width="601pt" height="49pt"
 viewBox="0.00 0.00 601.00 49.00" xmlns="http://www.w3.org/2000/svg" xmlns:xlink="http://www.w3.org/1999/xlink">
<g id="graph0" class="graph" transform="scale(1 1) rotate(0) translate(4 45)">
<title>m_derived_variables::s_non_symmetric_moments</title>
<!-- Node1 -->
<g id="node1" class="node">
<title>Node1</title>
<g id="a_node1"><a xlink:title="Compute non&#45;symmetric moments.">
<polygon fill="#999999" stroke="#666666" points="593,-35.5 432,-35.5 432,-5.5 593,-5.5 593,-35.5"/>
<text text-anchor="start" x="440" y="-23.5" font-family="Helvetica,sans-Serif" font-size="10.00">m_derived_variables</text>
<text text-anchor="middle" x="512.5" y="-12.5" font-family="Helvetica,sans-Serif" font-size="10.00">::s_non_symmetric_moments</text>
</a>
</g>
</g>
<!-- Node2 -->
<g id="node2" class="node">
<title>Node2</title>
<g id="a_node2"><a xlink:href="namespacem__derived__variables.html#ab28af564606ca901d3953e6012e9a452" target="_top" xlink:title="Subroutine to compute the higher moments in an attempt to find the maximal size of the droplet.">
<polygon fill="white" stroke="#666666" points="396,-35.5 244,-35.5 244,-5.5 396,-5.5 396,-35.5"/>
<text text-anchor="start" x="252" y="-23.5" font-family="Helvetica,sans-Serif" font-size="10.00">m_derived_variables</text>
<text text-anchor="middle" x="320" y="-12.5" font-family="Helvetica,sans-Serif" font-size="10.00">::s_derive_higher_moments</text>
</a>
</g>
</g>
<!-- Node1&#45;&gt;Node2 -->
<g id="edge1" class="edge">
<title>Node1&#45;&gt;Node2</title>
<path fill="none" stroke="#63b8ff" d="M421.77,-20.5C413.18,-20.5 404.53,-20.5 396.1,-20.5"/>
<polygon fill="#63b8ff" stroke="#63b8ff" points="421.81,-24 431.81,-20.5 421.81,-17 421.81,-24"/>
</g>
<!-- Node3 -->
<g id="node3" class="node">
<title>Node3</title>
<g id="a_node3"><a xlink:href="namespacem__derived__variables.html#a516a9808b3446b7b45029f6451d02b3f" target="_top" xlink:title="Writes coherent body information, communication files, and probes.">
<polygon fill="white" stroke="#666666" points="208,-41 89,-41 89,0 208,0 208,-41"/>
<text text-anchor="start" x="97" y="-29" font-family="Helvetica,sans-Serif" font-size="10.00">m_derived_variables</text>
<text text-anchor="start" x="97" y="-18" font-family="Helvetica,sans-Serif" font-size="10.00">::s_compute_derived</text>
<text text-anchor="middle" x="148.5" y="-7" font-family="Helvetica,sans-Serif" font-size="10.00">_variables</text>
</a>
</g>
</g>
<!-- Node2&#45;&gt;Node3 -->
<g id="edge2" class="edge">
<title>Node2&#45;&gt;Node3</title>
<path fill="none" stroke="#63b8ff" d="M233.56,-20.5C224.93,-20.5 216.31,-20.5 208.06,-20.5"/>
<polygon fill="#63b8ff" stroke="#63b8ff" points="233.67,-24 243.67,-20.5 233.67,-17 233.67,-24"/>
</g>
<!-- Node4 -->
<g id="node4" class="node">
<title>Node4</title>
<g id="a_node4"><a xlink:href="p__main_8f90.html#aeec10ee8e2940c953967da3e374e1579" target="_top" xlink:title="Quasi&#45;conservative, shock&#45; and interface&#45; capturing finite&#45;volume scheme for the multicomponent Navie...">
<polygon fill="white" stroke="#666666" points="53,-30 0,-30 0,-11 53,-11 53,-30"/>
<text text-anchor="middle" x="26.5" y="-18" font-family="Helvetica,sans-Serif" font-size="10.00">p_main</text>
</a>
</g>
</g>
<!-- Node3&#45;&gt;Node4 -->
<g id="edge3" class="edge">
<title>Node3&#45;&gt;Node4</title>
<path fill="none" stroke="#63b8ff" d="M78.88,-20.5C69.7,-20.5 60.8,-20.5 53.05,-20.5"/>
<polygon fill="#63b8ff" stroke="#63b8ff" points="78.91,-24 88.91,-20.5 78.91,-17 78.91,-24"/>
</g>
</g>
</svg>
