<?xml version="1.0" encoding="UTF-8" standalone="no"?>
<!DOCTYPE svg PUBLIC "-//W3C//DTD SVG 1.1//EN"
 "http://www.w3.org/Graphics/SVG/1.1/DTD/svg11.dtd">
<!-- Generated by graphviz version 2.43.0 (0)
 -->
<!-- Title: m_mpi_proxy::s_mpi_allreduce_max Pages: 1 -->
<svg width="552pt" height="186pt"
 viewBox="0.00 0.00 552.00 186.00" xmlns="http://www.w3.org/2000/svg" xmlns:xlink="http://www.w3.org/1999/xlink">
<g id="graph0" class="graph" transform="scale(1 1) rotate(0) translate(4 182)">
<title>m_mpi_proxy::s_mpi_allreduce_max</title>
<!-- Node1 -->
<g id="node1" class="node">
<title>Node1</title>
<g id="a_node1"><a xlink:title="The following subroutine takes the input local variable from all processors and reduces to the maximu...">
<polygon fill="#bfbfbf" stroke="black" points="426,-73.5 426,-103.5 544,-103.5 544,-73.5 426,-73.5"/>
<text text-anchor="start" x="434" y="-91.5" font-family="Helvetica,sans-Serif" font-size="10.00">m_mpi_proxy::s_mpi</text>
<text text-anchor="middle" x="485" y="-80.5" font-family="Helvetica,sans-Serif" font-size="10.00">_allreduce_max</text>
</a>
</g>
</g>
<!-- Node2 -->
<g id="node2" class="node">
<title>Node2</title>
<g id="a_node2"><a xlink:href="namespacem__derived__variables.html#a1a849dc545128f9a6de155bed61035ff" target="_top" xlink:title="This subroutine is used together with the volume fraction model and when called upon,...">
<polygon fill="none" stroke="black" points="244,-147.5 244,-177.5 390,-177.5 390,-147.5 244,-147.5"/>
<text text-anchor="start" x="252" y="-165.5" font-family="Helvetica,sans-Serif" font-size="10.00">m_derived_variables</text>
<text text-anchor="middle" x="317" y="-154.5" font-family="Helvetica,sans-Serif" font-size="10.00">::s_derive_center_of_mass</text>
</a>
</g>
</g>
<!-- Node1&#45;&gt;Node2 -->
<g id="edge1" class="edge">
<title>Node1&#45;&gt;Node2</title>
<path fill="none" stroke="midnightblue" d="M449.52,-108.63C432.03,-118.37 410.25,-129.81 390,-138.5 382.61,-141.67 374.66,-144.69 366.83,-147.45"/>
<polygon fill="midnightblue" stroke="midnightblue" points="451.25,-111.67 458.24,-103.71 447.81,-105.57 451.25,-111.67"/>
</g>
<!-- Node5 -->
<g id="node5" class="node">
<title>Node5</title>
<g id="a_node5"><a xlink:href="namespacem__derived__variables.html#a976bfd341efaba6840dc23d6abc4f29e" target="_top" xlink:title="This subroutine is used together with the volume fraction model and when called upon,...">
<polygon fill="none" stroke="black" points="257.5,-98.5 257.5,-128.5 376.5,-128.5 376.5,-98.5 257.5,-98.5"/>
<text text-anchor="start" x="265.5" y="-116.5" font-family="Helvetica,sans-Serif" font-size="10.00">m_derived_variables</text>
<text text-anchor="middle" x="317" y="-105.5" font-family="Helvetica,sans-Serif" font-size="10.00">::s_derive_centerline</text>
</a>
</g>
</g>
<!-- Node1&#45;&gt;Node5 -->
<g id="edge4" class="edge">
<title>Node1&#45;&gt;Node5</title>
<path fill="none" stroke="midnightblue" d="M415.67,-98.79C402.69,-100.74 389.23,-102.77 376.59,-104.68"/>
<polygon fill="midnightblue" stroke="midnightblue" points="416.57,-102.19 425.94,-97.24 415.53,-95.27 416.57,-102.19"/>
</g>
<!-- Node6 -->
<g id="node6" class="node">
<title>Node6</title>
<g id="a_node6"><a xlink:href="namespacem__derived__variables.html#abdf1859a7ad678848feb69bbe89a2f95" target="_top" xlink:title="This subroutine is used together with the volume fraction model and when called upon,...">
<polygon fill="none" stroke="black" points="251.5,-49.5 251.5,-79.5 382.5,-79.5 382.5,-49.5 251.5,-49.5"/>
<text text-anchor="start" x="259.5" y="-67.5" font-family="Helvetica,sans-Serif" font-size="10.00">m_derived_variables</text>
<text text-anchor="middle" x="317" y="-56.5" font-family="Helvetica,sans-Serif" font-size="10.00">::s_derive_fluid_bounds</text>
</a>
</g>
</g>
<!-- Node1&#45;&gt;Node6 -->
<g id="edge6" class="edge">
<title>Node1&#45;&gt;Node6</title>
<path fill="none" stroke="midnightblue" d="M415.93,-78.66C404.89,-77.06 393.49,-75.41 382.54,-73.83"/>
<polygon fill="midnightblue" stroke="midnightblue" points="415.54,-82.14 425.94,-80.11 416.55,-75.21 415.54,-82.14"/>
</g>
<!-- Node7 -->
<g id="node7" class="node">
<title>Node7</title>
<g id="a_node7"><a xlink:href="namespacem__data__output.html#a29f34883bc8e9d895dbb4232493397a1" target="_top" xlink:title="This writes a formatted data file for the flow probe information.">
<polygon fill="none" stroke="black" points="251.5,-0.5 251.5,-30.5 382.5,-30.5 382.5,-0.5 251.5,-0.5"/>
<text text-anchor="start" x="259.5" y="-18.5" font-family="Helvetica,sans-Serif" font-size="10.00">m_data_output::s_write</text>
<text text-anchor="middle" x="317" y="-7.5" font-family="Helvetica,sans-Serif" font-size="10.00">_probe_files</text>
</a>
</g>
</g>
<!-- Node1&#45;&gt;Node7 -->
<g id="edge8" class="edge">
<title>Node1&#45;&gt;Node7</title>
<path fill="none" stroke="midnightblue" d="M447.77,-68.52C430.54,-59.4 409.48,-48.81 390,-40.5 381.85,-37.02 373.03,-33.65 364.45,-30.57"/>
<polygon fill="midnightblue" stroke="midnightblue" points="446.45,-71.78 456.92,-73.41 449.75,-65.61 446.45,-71.78"/>
</g>
<!-- Node3 -->
<g id="node3" class="node">
<title>Node3</title>
<g id="a_node3"><a xlink:href="namespacem__derived__variables.html#a516a9808b3446b7b45029f6451d02b3f" target="_top" xlink:title="Writes coherent body information, communication files, and probes.">
<polygon fill="none" stroke="black" points="89,-68 89,-109 208,-109 208,-68 89,-68"/>
<text text-anchor="start" x="97" y="-97" font-family="Helvetica,sans-Serif" font-size="10.00">m_derived_variables</text>
<text text-anchor="start" x="97" y="-86" font-family="Helvetica,sans-Serif" font-size="10.00">::s_compute_derived</text>
<text text-anchor="middle" x="148.5" y="-75" font-family="Helvetica,sans-Serif" font-size="10.00">_variables</text>
</a>
</g>
</g>
<!-- Node2&#45;&gt;Node3 -->
<g id="edge2" class="edge">
<title>Node2&#45;&gt;Node3</title>
<path fill="none" stroke="midnightblue" d="M257.62,-143.96C252.97,-142.2 248.39,-140.38 244,-138.5 224.03,-129.96 202.58,-118.78 185.17,-109.16"/>
<polygon fill="midnightblue" stroke="midnightblue" points="256.58,-147.3 267.18,-147.44 258.98,-140.73 256.58,-147.3"/>
</g>
<!-- Node4 -->
<g id="node4" class="node">
<title>Node4</title>
<g id="a_node4"><a xlink:href="p__main_8f90.html#aeec10ee8e2940c953967da3e374e1579" target="_top" xlink:title="Quasi&#45;conservative, shock&#45; and interface&#45; capturing finite&#45;volume scheme for the multicomponent Navie...">
<polygon fill="none" stroke="black" points="0,-79 0,-98 53,-98 53,-79 0,-79"/>
<text text-anchor="middle" x="26.5" y="-86" font-family="Helvetica,sans-Serif" font-size="10.00">p_main</text>
</a>
</g>
</g>
<!-- Node3&#45;&gt;Node4 -->
<g id="edge3" class="edge">
<title>Node3&#45;&gt;Node4</title>
<path fill="none" stroke="midnightblue" d="M78.88,-88.5C69.7,-88.5 60.8,-88.5 53.05,-88.5"/>
<polygon fill="midnightblue" stroke="midnightblue" points="78.91,-92 88.91,-88.5 78.91,-85 78.91,-92"/>
</g>
<!-- Node5&#45;&gt;Node3 -->
<g id="edge5" class="edge">
<title>Node5&#45;&gt;Node3</title>
<path fill="none" stroke="midnightblue" d="M247.08,-103.15C234.17,-101.21 220.79,-99.2 208.23,-97.32"/>
<polygon fill="midnightblue" stroke="midnightblue" points="246.89,-106.66 257.3,-104.69 247.93,-99.74 246.89,-106.66"/>
</g>
<!-- Node6&#45;&gt;Node3 -->
<g id="edge7" class="edge">
<title>Node6&#45;&gt;Node3</title>
<path fill="none" stroke="midnightblue" d="M241.1,-75.3C230.07,-76.89 218.84,-78.51 208.2,-80.04"/>
<polygon fill="midnightblue" stroke="midnightblue" points="241.75,-78.74 251.15,-73.85 240.75,-71.81 241.75,-78.74"/>
</g>
<!-- Node7&#45;&gt;Node3 -->
<g id="edge9" class="edge">
<title>Node7&#45;&gt;Node3</title>
<path fill="none" stroke="midnightblue" d="M259.85,-34.16C254.46,-36.2 249.1,-38.33 244,-40.5 224.86,-48.64 204.21,-58.94 187.11,-67.92"/>
<polygon fill="midnightblue" stroke="midnightblue" points="261.38,-37.33 269.55,-30.59 258.96,-30.76 261.38,-37.33"/>
</g>
</g>
</svg>
