<?xml version="1.0" encoding="UTF-8" standalone="no"?>
<!DOCTYPE svg PUBLIC "-//W3C//DTD SVG 1.1//EN"
 "http://www.w3.org/Graphics/SVG/1.1/DTD/svg11.dtd">
<!-- Generated by graphviz version 2.43.0 (0)
 -->
<!-- Title: m_derived_variables::s_initialize_derived_variables Pages: 1 -->
<svg width="323pt" height="198pt"
 viewBox="0.00 0.00 323.00 197.50" xmlns="http://www.w3.org/2000/svg" xmlns:xlink="http://www.w3.org/1999/xlink">
<g id="graph0" class="graph" transform="scale(1 1) rotate(0) translate(4 193.5)">
<title>m_derived_variables::s_initialize_derived_variables</title>
<!-- Node1 -->
<g id="node1" class="node">
<title>Node1</title>
<g id="a_node1"><a xlink:title="Allocate and open derived variables. Computing FD coefficients.">
<polygon fill="#bfbfbf" stroke="black" points="0,-68 0,-109 119,-109 119,-68 0,-68"/>
<text text-anchor="start" x="8" y="-97" font-family="Helvetica,sans-Serif" font-size="10.00">m_derived_variables</text>
<text text-anchor="start" x="8" y="-86" font-family="Helvetica,sans-Serif" font-size="10.00">::s_initialize_derived</text>
<text text-anchor="middle" x="59.5" y="-75" font-family="Helvetica,sans-Serif" font-size="10.00">_variables</text>
</a>
</g>
</g>
<!-- Node2 -->
<g id="node2" class="node">
<title>Node2</title>
<g id="a_node2"><a xlink:href="namespacem__derived__variables.html#a908281ae7fe786ef19397e268ede0ece" target="_top" xlink:title="The purpose of this subroutine is to compute the finite&#45; difference coefficients for the centered sch...">
<polygon fill="none" stroke="black" points="155,-148 155,-189 315,-189 315,-148 155,-148"/>
<text text-anchor="start" x="163" y="-177" font-family="Helvetica,sans-Serif" font-size="10.00">m_derived_variables</text>
<text text-anchor="start" x="163" y="-166" font-family="Helvetica,sans-Serif" font-size="10.00">::s_compute_finite_difference</text>
<text text-anchor="middle" x="235" y="-155" font-family="Helvetica,sans-Serif" font-size="10.00">_coefficients</text>
</a>
</g>
</g>
<!-- Node1&#45;&gt;Node2 -->
<g id="edge1" class="edge">
<title>Node1&#45;&gt;Node2</title>
<path fill="none" stroke="midnightblue" d="M96.77,-109.04C114.14,-118.53 135.38,-129.63 155,-138.5 159.1,-140.35 163.34,-142.19 167.65,-143.99"/>
<polygon fill="midnightblue" stroke="midnightblue" points="166.54,-147.32 177.12,-147.87 169.19,-140.84 166.54,-147.32"/>
</g>
<!-- Node3 -->
<g id="node3" class="node">
<title>Node3</title>
<g id="a_node3"><a xlink:href="namespacem__data__output.html#a411af1336ca1bc899d3b7352d9383a81" target="_top" xlink:title="This opens a formatted data file where the root processor can write out the coherent body (cb) inform...">
<polygon fill="none" stroke="black" points="169.5,-98.5 169.5,-128.5 300.5,-128.5 300.5,-98.5 169.5,-98.5"/>
<text text-anchor="start" x="177.5" y="-116.5" font-family="Helvetica,sans-Serif" font-size="10.00">m_data_output::s_open</text>
<text text-anchor="middle" x="235" y="-105.5" font-family="Helvetica,sans-Serif" font-size="10.00">_cb_files</text>
</a>
</g>
</g>
<!-- Node1&#45;&gt;Node3 -->
<g id="edge2" class="edge">
<title>Node1&#45;&gt;Node3</title>
<path fill="none" stroke="midnightblue" d="M119.24,-96.96C132.09,-98.82 145.85,-100.8 159.23,-102.73"/>
<polygon fill="midnightblue" stroke="midnightblue" points="158.97,-106.22 169.36,-104.19 159.97,-99.3 158.97,-106.22"/>
</g>
<!-- Node4 -->
<g id="node4" class="node">
<title>Node4</title>
<g id="a_node4"><a xlink:href="namespacem__data__output.html#a36714d4cf746d5beb2736752fdd6d747" target="_top" xlink:title="This opens a formatted data file where the root processor can write out the CoM information.">
<polygon fill="none" stroke="black" points="169.5,-49.5 169.5,-79.5 300.5,-79.5 300.5,-49.5 169.5,-49.5"/>
<text text-anchor="start" x="177.5" y="-67.5" font-family="Helvetica,sans-Serif" font-size="10.00">m_data_output::s_open</text>
<text text-anchor="middle" x="235" y="-56.5" font-family="Helvetica,sans-Serif" font-size="10.00">_com_files</text>
</a>
</g>
</g>
<!-- Node1&#45;&gt;Node4 -->
<g id="edge3" class="edge">
<title>Node1&#45;&gt;Node4</title>
<path fill="none" stroke="midnightblue" d="M119.24,-80.37C132.09,-78.6 145.85,-76.69 159.23,-74.84"/>
<polygon fill="midnightblue" stroke="midnightblue" points="159.94,-78.28 169.36,-73.44 158.98,-71.34 159.94,-78.28"/>
</g>
<!-- Node5 -->
<g id="node5" class="node">
<title>Node5</title>
<g id="a_node5"><a xlink:href="namespacem__data__output.html#af469c3d867d96eb1ca255832e586ec97" target="_top" xlink:title="This opens a formatted data file where the root processor can write out flow probe information.">
<polygon fill="none" stroke="black" points="169.5,-0.5 169.5,-30.5 300.5,-30.5 300.5,-0.5 169.5,-0.5"/>
<text text-anchor="start" x="177.5" y="-18.5" font-family="Helvetica,sans-Serif" font-size="10.00">m_data_output::s_open</text>
<text text-anchor="middle" x="235" y="-7.5" font-family="Helvetica,sans-Serif" font-size="10.00">_probe_files</text>
</a>
</g>
</g>
<!-- Node1&#45;&gt;Node5 -->
<g id="edge4" class="edge">
<title>Node1&#45;&gt;Node5</title>
<path fill="none" stroke="midnightblue" d="M97.55,-67.91C114.72,-58.83 135.58,-48.44 155,-40.5 160.68,-38.18 166.66,-35.93 172.68,-33.81"/>
<polygon fill="midnightblue" stroke="midnightblue" points="173.82,-37.12 182.15,-30.57 171.55,-30.5 173.82,-37.12"/>
</g>
</g>
</svg>
