<?xml version="1.0" encoding="UTF-8" standalone="no"?>
<!DOCTYPE svg PUBLIC "-//W3C//DTD SVG 1.1//EN"
 "http://www.w3.org/Graphics/SVG/1.1/DTD/svg11.dtd">
<!-- Generated by graphviz version 2.43.0 (0)
 -->
<!-- Title: m_bubbles::f_cpbw_km Pages: 1 -->
<!--zoomable 242 -->

<svg id="main" version="1.1" xmlns="http://www.w3.org/2000/svg" xmlns:xlink="http://www.w3.org/1999/xlink" xml:space="preserve" onload="init(evt)">
<style type="text/css"><![CDATA[
.node, .edge {opacity: 0.7;}
.node.selected, .edge.selected {opacity: 1;}
.edge:hover path { stroke: red; }
.edge:hover polygon { stroke: red; fill: red; }
]]></style>

<defs>
  <circle id="rim" cx="0" cy="0" r="7"/>
  <circle id="rim2" cx="0" cy="0" r="3.5"/>
  <g id="zoomPlus">
    <use xlink:href="#rim" fill="#404040"><set attributeName="fill" to="#808080" begin="zoomplus.mouseover" end="zoomplus.mouseout"/></use>
    <path d="M-4,0h8M0,-4v8" fill="none" stroke="white" stroke-width="1.5" pointer-events="none"/>
  </g>
  <g id="zoomMin">
    <use xlink:href="#rim" fill="#404040"><set attributeName="fill" to="#808080" begin="zoomminus.mouseover" end="zoomminus.mouseout"/></use>
    <path d="M-4,0h8" fill="none" stroke="white" stroke-width="1.5" pointer-events="none"/>
  </g>
  <g id="arrowUp" transform="translate(30 24)">
    <use xlink:href="#rim"/>
    <path pointer-events="none" fill="none" stroke="white" stroke-width="1.5" d="M0,-3.0v7 M-2.5,-0.5L0,-3.0L2.5,-0.5"/>
  </g>
  <g id="arrowRight" transform="rotate(90) translate(36 -43)">
    <use xlink:href="#rim"/>
    <path pointer-events="none" fill="none" stroke="white" stroke-width="1.5" d="M0,-3.0v7 M-2.5,-0.5L0,-3.0L2.5,-0.5"/>
  </g>
  <g id="arrowDown" transform="rotate(180) translate(-30 -48)">
    <use xlink:href="#rim"/>
    <path pointer-events="none" fill="none" stroke="white" stroke-width="1.5" d="M0,-3.0v7 M-2.5,-0.5L0,-3.0L2.5,-0.5"/>
  </g>
  <g id="arrowLeft" transform="rotate(270) translate(-36 17)">
    <use xlink:href="#rim"/>
    <path pointer-events="none" fill="none" stroke="white" stroke-width="1.5" d="M0,-3.0v7 M-2.5,-0.5L0,-3.0L2.5,-0.5"/>
  </g>
  <g id="resetDef">
    <use xlink:href="#rim2" fill="#404040"><set attributeName="fill" to="#808080" begin="reset.mouseover" end="reset.mouseout"/></use>
  </g>
</defs>
<script type="application/ecmascript">
var viewWidth = 710;
var viewHeight = 242;
var sectionId = 'dynsection-7';
</script>
<script type="application/ecmascript" xlink:href="svg.min.js"/>
<svg id="graph" class="graph">
<g id="viewport">
<title>m_bubbles::f_cpbw_km</title>
<!-- Node1 -->
<g id="Node000001" class="node">
<title>Node1</title>
<g id="a_Node000001"><a xlink:title="Function that computes the bubble wall pressure for Keller–Miksis bubbles.">
<polygon fill="#999999" stroke="#666666" points="702,-107 571,-107 571,-88 702,-88 702,-107"/>
<text text-anchor="middle" x="636.5" y="-95" font-family="Helvetica,sans-Serif" font-size="10.00">m_bubbles::f_cpbw_km</text>
</a>
</g>
</g>
<!-- Node1&#45;&gt;Node1 -->
<g id="edge1_Node000001_Node000001" class="edge">
<title>Node1&#45;&gt;Node1</title>
<g id="a_edge1_Node000001_Node000001"><a xlink:title=" ">
<path fill="none" stroke="#63b8ff" d="M667.49,-115.82C666.19,-121.01 655.86,-125 636.5,-125 607,-125 598.47,-115.73 610.91,-107.08"/>
<polygon fill="#63b8ff" stroke="#63b8ff" points="670.32,-113.75 662.09,-107.08 664.37,-117.43 670.32,-113.75"/>
</a>
</g>
</g>
<!-- Node2 -->
<g id="Node000002" class="node">
<title>Node2</title>
<g id="a_Node000002"><a xlink:href="namespacem__bubbles.html#af8d5471266acbaf1013d691290362308" target="_top" xlink:title=" ">
<polygon fill="white" stroke="#666666" points="535,-135.5 406,-135.5 406,-105.5 535,-105.5 535,-135.5"/>
<text text-anchor="start" x="414" y="-123.5" font-family="Helvetica,sans-Serif" font-size="10.00">m_bubbles::s_compute</text>
<text text-anchor="middle" x="470.5" y="-112.5" font-family="Helvetica,sans-Serif" font-size="10.00">_bubble_source</text>
</a>
</g>
</g>
<!-- Node1&#45;&gt;Node2 -->
<g id="edge2_Node000001_Node000002" class="edge">
<title>Node1&#45;&gt;Node2</title>
<g id="a_edge2_Node000001_Node000002"><a xlink:title=" ">
<path fill="none" stroke="#63b8ff" d="M560.69,-107.99C552.12,-109.19 543.45,-110.41 535.04,-111.59"/>
<polygon fill="#63b8ff" stroke="#63b8ff" points="561.27,-111.45 570.68,-106.59 560.29,-104.51 561.27,-111.45"/>
</a>
</g>
</g>
<!-- Node8 -->
<g id="Node000008" class="node">
<title>Node8</title>
<g id="a_Node000008"><a xlink:href="namespacem__riemann__solvers.html#a6c9d70572e9b98586bab20b028557a5a" target="_top" xlink:title="This procedure is the implementation of the Harten, Lax, van Leer, and contact (HLLC) approximate Rie...">
<polygon fill="white" stroke="#666666" points="369.5,-89.5 244.5,-89.5 244.5,-59.5 369.5,-59.5 369.5,-89.5"/>
<text text-anchor="start" x="252.5" y="-77.5" font-family="Helvetica,sans-Serif" font-size="10.00">m_riemann_solvers::</text>
<text text-anchor="middle" x="307" y="-66.5" font-family="Helvetica,sans-Serif" font-size="10.00">s_hllc_riemann_solver</text>
</a>
</g>
</g>
<!-- Node1&#45;&gt;Node8 -->
<g id="edge10_Node000001_Node000008" class="edge">
<title>Node1&#45;&gt;Node8</title>
<g id="a_edge10_Node000001_Node000008"><a xlink:title=" ">
<path fill="none" stroke="#63b8ff" d="M560.62,-92.24C502.77,-88.18 423.7,-82.63 369.52,-78.82"/>
<polygon fill="#63b8ff" stroke="#63b8ff" points="560.58,-95.75 570.8,-92.96 561.07,-88.76 560.58,-95.75"/>
</a>
</g>
</g>
<!-- Node3 -->
<g id="Node000003" class="node">
<title>Node3</title>
<g id="a_Node000003"><a xlink:href="namespacem__rhs.html#a361f0038973069452cc88430c49bcfe8" target="_top" xlink:title=" ">
<polygon fill="white" stroke="#666666" points="370,-156 244,-156 244,-137 370,-137 370,-156"/>
<text text-anchor="middle" x="307" y="-144" font-family="Helvetica,sans-Serif" font-size="10.00">m_rhs::s_compute_rhs</text>
</a>
</g>
</g>
<!-- Node2&#45;&gt;Node3 -->
<g id="edge3_Node000002_Node000003" class="edge">
<title>Node2&#45;&gt;Node3</title>
<g id="a_edge3_Node000002_Node000003"><a xlink:title=" ">
<path fill="none" stroke="#63b8ff" d="M395.76,-132.37C386.18,-133.91 376.46,-135.48 367.16,-136.98"/>
<polygon fill="#63b8ff" stroke="#63b8ff" points="396.35,-135.82 405.67,-130.78 395.24,-128.91 396.35,-135.82"/>
</a>
</g>
</g>
<!-- Node4 -->
<g id="Node000004" class="node">
<title>Node4</title>
<g id="a_Node000004"><a xlink:href="namespacem__time__steppers.html#a8876606e6152b6c8f35272074a088142" target="_top" xlink:title="1st order TVD RK time&#45;stepping algorithm">
<polygon fill="white" stroke="#666666" points="205,-233.5 92,-233.5 92,-203.5 205,-203.5 205,-233.5"/>
<text text-anchor="start" x="100" y="-221.5" font-family="Helvetica,sans-Serif" font-size="10.00">m_time_steppers::s</text>
<text text-anchor="middle" x="148.5" y="-210.5" font-family="Helvetica,sans-Serif" font-size="10.00">_1st_order_tvd_rk</text>
</a>
</g>
</g>
<!-- Node3&#45;&gt;Node4 -->
<g id="edge4_Node000003_Node000004" class="edge">
<title>Node3&#45;&gt;Node4</title>
<g id="a_edge4_Node000003_Node000004"><a xlink:title=" ">
<path fill="none" stroke="#63b8ff" d="M278.44,-160.6C258.93,-170.44 232.06,-183.69 208,-194.5 201.39,-197.47 194.3,-200.5 187.42,-203.37"/>
<polygon fill="#63b8ff" stroke="#63b8ff" points="280.05,-163.71 287.39,-156.07 276.88,-157.47 280.05,-163.71"/>
</a>
</g>
</g>
<!-- Node6 -->
<g id="Node000006" class="node">
<title>Node6</title>
<g id="a_Node000006"><a xlink:href="namespacem__time__steppers.html#adb82b6c6041c825d0999e6890ed825cc" target="_top" xlink:title="2nd order TVD RK time&#45;stepping algorithm">
<polygon fill="white" stroke="#666666" points="205,-185.5 92,-185.5 92,-155.5 205,-155.5 205,-185.5"/>
<text text-anchor="start" x="100" y="-173.5" font-family="Helvetica,sans-Serif" font-size="10.00">m_time_steppers::s</text>
<text text-anchor="middle" x="148.5" y="-162.5" font-family="Helvetica,sans-Serif" font-size="10.00">_2nd_order_tvd_rk</text>
</a>
</g>
</g>
<!-- Node3&#45;&gt;Node6 -->
<g id="edge6_Node000003_Node000006" class="edge">
<title>Node3&#45;&gt;Node6</title>
<g id="a_edge6_Node000003_Node000006"><a xlink:title=" ">
<path fill="none" stroke="#63b8ff" d="M233.71,-157.59C224.07,-159.06 214.3,-160.56 205,-161.99"/>
<polygon fill="#63b8ff" stroke="#63b8ff" points="234.34,-161.03 243.7,-156.05 233.28,-154.11 234.34,-161.03"/>
</a>
</g>
</g>
<!-- Node7 -->
<g id="Node000007" class="node">
<title>Node7</title>
<g id="a_Node000007"><a xlink:href="namespacem__time__steppers.html#ae08efa7df1f8efae0f726dd5114176a8" target="_top" xlink:title="3rd order TVD RK time&#45;stepping algorithm">
<polygon fill="white" stroke="#666666" points="205,-137.5 92,-137.5 92,-107.5 205,-107.5 205,-137.5"/>
<text text-anchor="start" x="100" y="-125.5" font-family="Helvetica,sans-Serif" font-size="10.00">m_time_steppers::s</text>
<text text-anchor="middle" x="148.5" y="-114.5" font-family="Helvetica,sans-Serif" font-size="10.00">_3rd_order_tvd_rk</text>
</a>
</g>
</g>
<!-- Node3&#45;&gt;Node7 -->
<g id="edge8_Node000003_Node000007" class="edge">
<title>Node3&#45;&gt;Node7</title>
<g id="a_edge8_Node000003_Node000007"><a xlink:title=" ">
<path fill="none" stroke="#63b8ff" d="M233.71,-135.41C224.07,-133.94 214.3,-132.44 205,-131.01"/>
<polygon fill="#63b8ff" stroke="#63b8ff" points="233.28,-138.89 243.7,-136.95 234.34,-131.97 233.28,-138.89"/>
</a>
</g>
</g>
<!-- Node5 -->
<g id="Node000005" class="node">
<title>Node5</title>
<g id="a_Node000005"><a xlink:href="p__main_8fpp_8f90.html#aeec10ee8e2940c953967da3e374e1579" target="_top" xlink:title="Quasi&#45;conservative, shock&#45; and interface&#45; capturing finite&#45;volume scheme for the multicomponent Navie...">
<polygon fill="white" stroke="#666666" points="53,-132 0,-132 0,-113 53,-113 53,-132"/>
<text text-anchor="middle" x="26.5" y="-120" font-family="Helvetica,sans-Serif" font-size="10.00">p_main</text>
</a>
</g>
</g>
<!-- Node4&#45;&gt;Node5 -->
<g id="edge5_Node000004_Node000005" class="edge">
<title>Node4&#45;&gt;Node5</title>
<g id="a_edge5_Node000004_Node000005"><a xlink:title=" ">
<path fill="none" stroke="#63b8ff" d="M94.87,-198.4C92.85,-197.16 90.88,-195.86 89,-194.5 64.5,-176.76 43.45,-147.33 33.54,-132.17"/>
<polygon fill="#63b8ff" stroke="#63b8ff" points="93.62,-201.7 104.07,-203.45 96.99,-195.57 93.62,-201.7"/>
</a>
</g>
</g>
<!-- Node6&#45;&gt;Node5 -->
<g id="edge7_Node000006_Node000005" class="edge">
<title>Node6&#45;&gt;Node5</title>
<g id="a_edge7_Node000006_Node000005"><a xlink:title=" ">
<path fill="none" stroke="#63b8ff" d="M100.21,-151.58C83.48,-144.89 65.37,-137.65 51.41,-132.06"/>
<polygon fill="#63b8ff" stroke="#63b8ff" points="99.28,-154.98 109.86,-155.44 101.88,-148.48 99.28,-154.98"/>
</a>
</g>
</g>
<!-- Node7&#45;&gt;Node5 -->
<g id="edge9_Node000007_Node000005" class="edge">
<title>Node7&#45;&gt;Node5</title>
<g id="a_edge9_Node000007_Node000005"><a xlink:title=" ">
<path fill="none" stroke="#63b8ff" d="M81.61,-122.5C71.53,-122.5 61.67,-122.5 53.2,-122.5"/>
<polygon fill="#63b8ff" stroke="#63b8ff" points="81.72,-126 91.72,-122.5 81.72,-119 81.72,-126"/>
</a>
</g>
</g>
<!-- Node9 -->
<g id="Node000009" class="node">
<title>Node9</title>
<g id="a_Node000009"><a xlink:href="namespacem__rhs.html#ae6f7edb814859919c5d1f739574155bd" target="_top" xlink:title="The computation of parameters, the allocation of memory, the association of pointers and/or the execu...">
<polygon fill="white" stroke="#666666" points="201,-89.5 96,-89.5 96,-59.5 201,-59.5 201,-89.5"/>
<text text-anchor="start" x="104" y="-77.5" font-family="Helvetica,sans-Serif" font-size="10.00">m_rhs::s_initialize</text>
<text text-anchor="middle" x="148.5" y="-66.5" font-family="Helvetica,sans-Serif" font-size="10.00">_rhs_module</text>
</a>
</g>
</g>
<!-- Node8&#45;&gt;Node9 -->
<g id="edge11_Node000008_Node000009" class="edge">
<title>Node8&#45;&gt;Node9</title>
<g id="a_edge11_Node000008_Node000009"><a xlink:title=" ">
<path fill="none" stroke="#63b8ff" d="M234.08,-74.5C223.03,-74.5 211.82,-74.5 201.32,-74.5"/>
<polygon fill="#63b8ff" stroke="#63b8ff" points="234.15,-78 244.15,-74.5 234.15,-71 234.15,-78"/>
</a>
</g>
</g>
<!-- Node10 -->
<g id="Node000010" class="node">
<title>Node10</title>
<g id="a_Node000010"><a xlink:href="namespacem__riemann__solvers.html#aab7e6bf69b7d0b8b9d911f418b872130" target="_top" xlink:title="The computation of parameters, the allocation of memory, the association of pointers and/or the execu...">
<polygon fill="white" stroke="#666666" points="208,-41 89,-41 89,0 208,0 208,-41"/>
<text text-anchor="start" x="97" y="-29" font-family="Helvetica,sans-Serif" font-size="10.00">m_riemann_solvers::</text>
<text text-anchor="start" x="97" y="-18" font-family="Helvetica,sans-Serif" font-size="10.00">s_initialize_riemann</text>
<text text-anchor="middle" x="148.5" y="-7" font-family="Helvetica,sans-Serif" font-size="10.00">_solvers_module</text>
</a>
</g>
</g>
<!-- Node8&#45;&gt;Node10 -->
<g id="edge13_Node000008_Node000010" class="edge">
<title>Node8&#45;&gt;Node10</title>
<g id="a_edge13_Node000008_Node000010"><a xlink:title=" ">
<path fill="none" stroke="#63b8ff" d="M252.69,-56.1C238.32,-51.15 222.71,-45.76 208.07,-40.71"/>
<polygon fill="#63b8ff" stroke="#63b8ff" points="251.81,-59.5 262.41,-59.46 254.09,-52.89 251.81,-59.5"/>
</a>
</g>
</g>
<!-- Node9&#45;&gt;Node5 -->
<g id="edge12_Node000009_Node000005" class="edge">
<title>Node9&#45;&gt;Node5</title>
<g id="a_edge12_Node000009_Node000005"><a xlink:title=" ">
<path fill="none" stroke="#63b8ff" d="M100.21,-93.42C83.48,-100.11 65.37,-107.35 51.41,-112.94"/>
<polygon fill="#63b8ff" stroke="#63b8ff" points="101.88,-96.52 109.86,-89.56 99.28,-90.02 101.88,-96.52"/>
</a>
</g>
</g>
<!-- Node10&#45;&gt;Node5 -->
<g id="edge14_Node000010_Node000005" class="edge">
<title>Node10&#45;&gt;Node5</title>
<g id="a_edge14_Node000010_Node000005"><a xlink:title=" ">
<path fill="none" stroke="#63b8ff" d="M94.44,-46.47C92.57,-47.78 90.75,-49.12 89,-50.5 65.53,-69.05 44.35,-97.62 34.06,-112.58"/>
<polygon fill="#63b8ff" stroke="#63b8ff" points="96.41,-49.37 102.91,-41 92.61,-43.48 96.41,-49.37"/>
</a>
</g>
</g>
</g>
</svg>

<g id="navigator" transform="translate(0 0)" fill="#404254">
  <rect fill="#f2f5e9" fill-opacity="0.5" stroke="#606060" stroke-width=".5" x="0" y="0" width="60" height="60"/>
  <use id="zoomplus" xlink:href="#zoomPlus" x="17" y="9" onmousedown="handleZoom(evt,'in')"/>
  <use id="zoomminus" xlink:href="#zoomMin" x="42" y="9" onmousedown="handleZoom(evt,'out')"/>
  <use id="reset" xlink:href="#resetDef" x="30" y="36" onmousedown="handleReset()"/>
   <use id="arrowup" xlink:href="#arrowUp" x="0" y="0" onmousedown="handlePan(0,-1)"/>
  <use id="arrowright" xlink:href="#arrowRight" x="0" y="0" onmousedown="handlePan(1,0)"/>
  <use id="arrowdown" xlink:href="#arrowDown" x="0" y="0" onmousedown="handlePan(0,1)"/>
  <use id="arrowleft" xlink:href="#arrowLeft" x="0" y="0" onmousedown="handlePan(-1,0)"/>
</g>
<svg viewBox="0 0 15 15" width="100%" height="30px" preserveAspectRatio="xMaxYMin meet">
 <g id="arrow_out" transform="scale(0.3 0.3)">
  <a xlink:href="namespacem__bubbles_a3b5690b07dda1b3660cb5539ec5fd920_icgraph_org.svg" target="_base">
   <rect id="button" ry="5" rx="5" y="6" x="6" height="38" width="38"
        fill="#f2f5e9" fill-opacity="0.5" stroke="#606060" stroke-width="1.0"/>
   <path id="arrow"
     d="M 11.500037,31.436501 C 11.940474,20.09759 22.043105,11.32322 32.158766,21.979434 L 37.068811,17.246167 C 37.068811,17.246167 37.088388,32 37.088388,32 L 22.160133,31.978069 C 22.160133,31.978069 26.997745,27.140456 26.997745,27.140456 C 18.528582,18.264221 13.291696,25.230495 11.500037,31.436501 z"
     style="fill:#404040;"/>
  </a>
 </g>
</svg>

<style type='text/css'>
<![CDATA[
[data-mouse-over-selected='false'] { opacity: 0.7; }
[data-mouse-over-selected='true']  { opacity: 1.0; }
]]>
</style>
<script type="application/ecmascript"><![CDATA[
document.addEventListener('DOMContentLoaded', (event) => {
  highlightEdges();
  highlightAdjacentNodes();
});
]]></script>
</svg>
