<?xml version="1.0" encoding="UTF-8" standalone="no"?>
<!DOCTYPE svg PUBLIC "-//W3C//DTD SVG 1.1//EN"
 "http://www.w3.org/Graphics/SVG/1.1/DTD/svg11.dtd">
<!-- Generated by graphviz version 2.43.0 (0)
 -->
<!-- Title: m_viscous::s_reconstruct_cell_boundary_values_visc_deriv Pages: 1 -->
<svg width="590pt" height="134pt"
 viewBox="0.00 0.00 590.00 134.00" xmlns="http://www.w3.org/2000/svg" xmlns:xlink="http://www.w3.org/1999/xlink">
<g id="graph0" class="graph" transform="scale(1 1) rotate(0) translate(4 130)">
<title>m_viscous::s_reconstruct_cell_boundary_values_visc_deriv</title>
<!-- Node1 -->
<g id="node1" class="node">
<title>Node1</title>
<g id="a_node1"><a xlink:title=" ">
<polygon fill="#999999" stroke="#666666" points="582,-78 400,-78 400,-48 582,-48 582,-78"/>
<text text-anchor="start" x="408" y="-66" font-family="Helvetica,sans-Serif" font-size="10.00">m_viscous::s_reconstruct</text>
<text text-anchor="middle" x="491" y="-55" font-family="Helvetica,sans-Serif" font-size="10.00">_cell_boundary_values_visc_deriv</text>
</a>
</g>
</g>
<!-- Node2 -->
<g id="node2" class="node">
<title>Node2</title>
<g id="a_node2"><a xlink:href="namespacem__rhs.html#a361f0038973069452cc88430c49bcfe8" target="_top" xlink:title=" ">
<polygon fill="white" stroke="#666666" points="364,-72.5 238,-72.5 238,-53.5 364,-53.5 364,-72.5"/>
<text text-anchor="middle" x="301" y="-60.5" font-family="Helvetica,sans-Serif" font-size="10.00">m_rhs::s_compute_rhs</text>
</a>
</g>
</g>
<!-- Node1&#45;&gt;Node2 -->
<g id="edge1" class="edge">
<title>Node1&#45;&gt;Node2</title>
<path fill="none" stroke="#63b8ff" d="M389.67,-63C381.02,-63 372.43,-63 364.21,-63"/>
<polygon fill="#63b8ff" stroke="#63b8ff" points="389.85,-66.5 399.85,-63 389.85,-59.5 389.85,-66.5"/>
</g>
<!-- Node3 -->
<g id="node3" class="node">
<title>Node3</title>
<g id="a_node3"><a xlink:href="namespacem__time__steppers.html#a8876606e6152b6c8f35272074a088142" target="_top" xlink:title="1st order TVD RK time&#45;stepping algorithm">
<polygon fill="white" stroke="#666666" points="202,-126 89,-126 89,-96 202,-96 202,-126"/>
<text text-anchor="start" x="97" y="-114" font-family="Helvetica,sans-Serif" font-size="10.00">m_time_steppers::s</text>
<text text-anchor="middle" x="145.5" y="-103" font-family="Helvetica,sans-Serif" font-size="10.00">_1st_order_tvd_rk</text>
</a>
</g>
</g>
<!-- Node2&#45;&gt;Node3 -->
<g id="edge2" class="edge">
<title>Node2&#45;&gt;Node3</title>
<path fill="none" stroke="#63b8ff" d="M259.61,-75.63C239.7,-81.86 215.54,-89.41 194.67,-95.94"/>
<polygon fill="#63b8ff" stroke="#63b8ff" points="260.81,-78.92 269.31,-72.6 258.72,-72.24 260.81,-78.92"/>
</g>
<!-- Node5 -->
<g id="node5" class="node">
<title>Node5</title>
<g id="a_node5"><a xlink:href="namespacem__time__steppers.html#adb82b6c6041c825d0999e6890ed825cc" target="_top" xlink:title="2nd order TVD RK time&#45;stepping algorithm">
<polygon fill="white" stroke="#666666" points="202,-78 89,-78 89,-48 202,-48 202,-78"/>
<text text-anchor="start" x="97" y="-66" font-family="Helvetica,sans-Serif" font-size="10.00">m_time_steppers::s</text>
<text text-anchor="middle" x="145.5" y="-55" font-family="Helvetica,sans-Serif" font-size="10.00">_2nd_order_tvd_rk</text>
</a>
</g>
</g>
<!-- Node2&#45;&gt;Node5 -->
<g id="edge4" class="edge">
<title>Node2&#45;&gt;Node5</title>
<path fill="none" stroke="#63b8ff" d="M227.4,-63C219.02,-63 210.57,-63 202.46,-63"/>
<polygon fill="#63b8ff" stroke="#63b8ff" points="227.57,-66.5 237.57,-63 227.57,-59.5 227.57,-66.5"/>
</g>
<!-- Node6 -->
<g id="node6" class="node">
<title>Node6</title>
<g id="a_node6"><a xlink:href="namespacem__time__steppers.html#ae08efa7df1f8efae0f726dd5114176a8" target="_top" xlink:title="3rd order TVD RK time&#45;stepping algorithm">
<polygon fill="white" stroke="#666666" points="202,-30 89,-30 89,0 202,0 202,-30"/>
<text text-anchor="start" x="97" y="-18" font-family="Helvetica,sans-Serif" font-size="10.00">m_time_steppers::s</text>
<text text-anchor="middle" x="145.5" y="-7" font-family="Helvetica,sans-Serif" font-size="10.00">_3rd_order_tvd_rk</text>
</a>
</g>
</g>
<!-- Node2&#45;&gt;Node6 -->
<g id="edge6" class="edge">
<title>Node2&#45;&gt;Node6</title>
<path fill="none" stroke="#63b8ff" d="M259.61,-50.37C239.7,-44.14 215.54,-36.59 194.67,-30.06"/>
<polygon fill="#63b8ff" stroke="#63b8ff" points="258.72,-53.76 269.31,-53.4 260.81,-47.08 258.72,-53.76"/>
</g>
<!-- Node4 -->
<g id="node4" class="node">
<title>Node4</title>
<g id="a_node4"><a xlink:href="p__main_8fpp_8f90.html#aeec10ee8e2940c953967da3e374e1579" target="_top" xlink:title="Quasi&#45;conservative, shock&#45; and interface&#45; capturing finite&#45;volume scheme for the multicomponent Navie...">
<polygon fill="white" stroke="#666666" points="53,-72.5 0,-72.5 0,-53.5 53,-53.5 53,-72.5"/>
<text text-anchor="middle" x="26.5" y="-60.5" font-family="Helvetica,sans-Serif" font-size="10.00">p_main</text>
</a>
</g>
</g>
<!-- Node3&#45;&gt;Node4 -->
<g id="edge3" class="edge">
<title>Node3&#45;&gt;Node4</title>
<path fill="none" stroke="#63b8ff" d="M98.39,-92.08C82.08,-85.39 64.43,-78.15 50.81,-72.56"/>
<polygon fill="#63b8ff" stroke="#63b8ff" points="97.22,-95.39 107.8,-95.94 99.88,-88.91 97.22,-95.39"/>
</g>
<!-- Node5&#45;&gt;Node4 -->
<g id="edge5" class="edge">
<title>Node5&#45;&gt;Node4</title>
<path fill="none" stroke="#63b8ff" d="M78.51,-63C69.51,-63 60.74,-63 53.09,-63"/>
<polygon fill="#63b8ff" stroke="#63b8ff" points="78.74,-66.5 88.74,-63 78.74,-59.5 78.74,-66.5"/>
</g>
<!-- Node6&#45;&gt;Node4 -->
<g id="edge7" class="edge">
<title>Node6&#45;&gt;Node4</title>
<path fill="none" stroke="#63b8ff" d="M98.39,-33.92C82.08,-40.61 64.43,-47.85 50.81,-53.44"/>
<polygon fill="#63b8ff" stroke="#63b8ff" points="99.88,-37.09 107.8,-30.06 97.22,-30.61 99.88,-37.09"/>
</g>
</g>
</svg>
