<?xml version="1.0" encoding="UTF-8" standalone="no"?>
<!DOCTYPE svg PUBLIC "-//W3C//DTD SVG 1.1//EN"
 "http://www.w3.org/Graphics/SVG/1.1/DTD/svg11.dtd">
<!-- Generated by graphviz version 2.43.0 (0)
 -->
<!-- Title: m_data_output::s_write_parallel_data_files Pages: 1 -->
<svg width="413pt" height="59pt"
 viewBox="0.00 0.00 413.00 59.00" xmlns="http://www.w3.org/2000/svg" xmlns:xlink="http://www.w3.org/1999/xlink">
<g id="graph0" class="graph" transform="scale(1 1) rotate(0) translate(4 55)">
<title>m_data_output::s_write_parallel_data_files</title>
<!-- Node1 -->
<g id="node1" class="node">
<title>Node1</title>
<g id="a_node1"><a xlink:title="The goal of this subroutine is to output the grid and conservative variables data files for given tim...">
<polygon fill="#999999" stroke="#666666" points="405,-51 274,-51 274,-21 405,-21 405,-51"/>
<text text-anchor="start" x="282" y="-39" font-family="Helvetica,sans-Serif" font-size="10.00">m_data_output::s_write</text>
<text text-anchor="middle" x="339.5" y="-28" font-family="Helvetica,sans-Serif" font-size="10.00">_parallel_data_files</text>
</a>
</g>
</g>
<!-- Node2 -->
<g id="node2" class="node">
<title>Node2</title>
<g id="a_node2"><a xlink:href="p__main_8fpp_8f90.html#aeec10ee8e2940c953967da3e374e1579" target="_top" xlink:title="Quasi&#45;conservative, shock&#45; and interface&#45; capturing finite&#45;volume scheme for the multicomponent Navie...">
<polygon fill="white" stroke="#666666" points="53,-45.5 0,-45.5 0,-26.5 53,-26.5 53,-45.5"/>
<text text-anchor="middle" x="26.5" y="-33.5" font-family="Helvetica,sans-Serif" font-size="10.00">p_main</text>
</a>
</g>
</g>
<!-- Node1&#45;&gt;Node2 -->
<g id="edge1" class="edge">
<title>Node1&#45;&gt;Node2</title>
<path fill="none" stroke="#63b8ff" d="M263.76,-38.48C255.07,-38.69 246.34,-38.88 238,-39 171.79,-39.99 155.2,-40.61 89,-39 77.24,-38.71 64.24,-38.12 53.22,-37.53"/>
<polygon fill="#63b8ff" stroke="#63b8ff" points="264,-41.97 273.9,-38.21 263.81,-34.98 264,-41.97"/>
</g>
<!-- Node3 -->
<g id="node3" class="node">
<title>Node3</title>
<g id="a_node3"><a xlink:href="namespacem__data__output.html#ab65b312ef83adb104cafafada9c998b6" target="_top" xlink:title="The computation of parameters, the allocation of memory, the association of pointers and/or the execu...">
<polygon fill="white" stroke="#666666" points="238,-30 89,-30 89,0 238,0 238,-30"/>
<text text-anchor="start" x="97" y="-18" font-family="Helvetica,sans-Serif" font-size="10.00">m_data_output::s_initialize</text>
<text text-anchor="middle" x="163.5" y="-7" font-family="Helvetica,sans-Serif" font-size="10.00">_data_output_module</text>
</a>
</g>
</g>
<!-- Node1&#45;&gt;Node3 -->
<g id="edge2" class="edge">
<title>Node1&#45;&gt;Node3</title>
<path fill="none" stroke="#63b8ff" d="M263.53,-26.95C255.11,-25.94 246.54,-24.9 238.13,-23.89"/>
<polygon fill="#63b8ff" stroke="#63b8ff" points="263.36,-30.46 273.71,-28.18 264.2,-23.51 263.36,-30.46"/>
</g>
<!-- Node3&#45;&gt;Node2 -->
<g id="edge3" class="edge">
<title>Node3&#45;&gt;Node2</title>
<path fill="none" stroke="#63b8ff" d="M78.58,-28.05C69.39,-29.48 60.64,-30.85 53.05,-32.03"/>
<polygon fill="#63b8ff" stroke="#63b8ff" points="79.34,-31.48 88.68,-26.48 78.26,-24.56 79.34,-31.48"/>
</g>
</g>
</svg>
