<?xml version="1.0" encoding="UTF-8" standalone="no"?>
<!DOCTYPE svg PUBLIC "-//W3C//DTD SVG 1.1//EN"
 "http://www.w3.org/Graphics/SVG/1.1/DTD/svg11.dtd">
<!-- Generated by graphviz version 2.43.0 (0)
 -->
<!-- Title: m_variables_conversion::s_convert_species_to_mixture_variables_bubbles_acc Pages: 1 -->
<svg width="763pt" height="156pt"
 viewBox="0.00 0.00 763.00 155.50" xmlns="http://www.w3.org/2000/svg" xmlns:xlink="http://www.w3.org/1999/xlink">
<g id="graph0" class="graph" transform="scale(1 1) rotate(0) translate(4 151.5)">
<title>m_variables_conversion::s_convert_species_to_mixture_variables_bubbles_acc</title>
<!-- Node1 -->
<g id="node1" class="node">
<title>Node1</title>
<g id="a_node1"><a xlink:title=" ">
<polygon fill="#999999" stroke="#666666" points="755,-99.5 579,-99.5 579,-58.5 755,-58.5 755,-99.5"/>
<text text-anchor="start" x="587" y="-87.5" font-family="Helvetica,sans-Serif" font-size="10.00">m_variables_conversion</text>
<text text-anchor="start" x="587" y="-76.5" font-family="Helvetica,sans-Serif" font-size="10.00">::s_convert_species_to</text>
<text text-anchor="middle" x="667" y="-65.5" font-family="Helvetica,sans-Serif" font-size="10.00">_mixture_variables_bubbles_acc</text>
</a>
</g>
</g>
<!-- Node2 -->
<g id="node2" class="node">
<title>Node2</title>
<g id="a_node2"><a xlink:href="namespacem__cbc.html#a72cc3ba5a0de327fae70742734e77492" target="_top" xlink:title="The following is the implementation of the CBC based on the work of Thompson (1987,...">
<polygon fill="white" stroke="#666666" points="514.5,-88.5 433.5,-88.5 433.5,-69.5 514.5,-69.5 514.5,-88.5"/>
<text text-anchor="middle" x="474" y="-76.5" font-family="Helvetica,sans-Serif" font-size="10.00">m_cbc::s_cbc</text>
</a>
</g>
</g>
<!-- Node1&#45;&gt;Node2 -->
<g id="edge1" class="edge">
<title>Node1&#45;&gt;Node2</title>
<path fill="none" stroke="#63b8ff" d="M568.87,-79C549.7,-79 530.63,-79 514.72,-79"/>
<polygon fill="#63b8ff" stroke="#63b8ff" points="568.88,-82.5 578.88,-79 568.88,-75.5 568.88,-82.5"/>
</g>
<!-- Node8 -->
<g id="node8" class="node">
<title>Node8</title>
<g id="a_node8"><a xlink:href="namespacem__variables__conversion.html#a86ac76fa70eabaede1b0f3a4af740560" target="_top" xlink:title="The following procedure handles the conversion between the conservative variables and the primitive v...">
<polygon fill="white" stroke="#666666" points="543,-147.5 405,-147.5 405,-106.5 543,-106.5 543,-147.5"/>
<text text-anchor="start" x="413" y="-135.5" font-family="Helvetica,sans-Serif" font-size="10.00">m_variables_conversion</text>
<text text-anchor="start" x="413" y="-124.5" font-family="Helvetica,sans-Serif" font-size="10.00">::s_convert_conservative</text>
<text text-anchor="middle" x="474" y="-113.5" font-family="Helvetica,sans-Serif" font-size="10.00">_to_primitive_variables</text>
</a>
</g>
</g>
<!-- Node1&#45;&gt;Node8 -->
<g id="edge9" class="edge">
<title>Node1&#45;&gt;Node8</title>
<path fill="none" stroke="#63b8ff" d="M574.19,-102.07C563.74,-104.7 553.23,-107.34 543.17,-109.87"/>
<polygon fill="#63b8ff" stroke="#63b8ff" points="575.32,-105.4 584.17,-99.57 573.62,-98.61 575.32,-105.4"/>
</g>
<!-- Node9 -->
<g id="node9" class="node">
<title>Node9</title>
<g id="a_node9"><a xlink:href="namespacem__data__output.html#a33a72559ec5cfdedf7162a8269d41201" target="_top" xlink:title="The goal of the procedure is to output to the run&#45;time information file the stability criteria extrem...">
<polygon fill="white" stroke="#666666" points="369,-56 238,-56 238,-26 369,-26 369,-56"/>
<text text-anchor="start" x="246" y="-44" font-family="Helvetica,sans-Serif" font-size="10.00">m_data_output::s_write</text>
<text text-anchor="middle" x="303.5" y="-33" font-family="Helvetica,sans-Serif" font-size="10.00">_run_time_information</text>
</a>
</g>
</g>
<!-- Node1&#45;&gt;Node9 -->
<g id="edge11" class="edge">
<title>Node1&#45;&gt;Node9</title>
<path fill="none" stroke="#63b8ff" d="M568.59,-64.18C559.95,-63.04 551.32,-61.96 543,-61 484.28,-54.25 417.18,-48.82 369.14,-45.34"/>
<polygon fill="#63b8ff" stroke="#63b8ff" points="568.36,-67.68 578.74,-65.55 569.29,-60.74 568.36,-67.68"/>
</g>
<!-- Node3 -->
<g id="node3" class="node">
<title>Node3</title>
<g id="a_node3"><a xlink:href="namespacem__rhs.html#a361f0038973069452cc88430c49bcfe8" target="_top" xlink:title=" ">
<polygon fill="white" stroke="#666666" points="366.5,-93.5 240.5,-93.5 240.5,-74.5 366.5,-74.5 366.5,-93.5"/>
<text text-anchor="middle" x="303.5" y="-81.5" font-family="Helvetica,sans-Serif" font-size="10.00">m_rhs::s_compute_rhs</text>
</a>
</g>
</g>
<!-- Node2&#45;&gt;Node3 -->
<g id="edge2" class="edge">
<title>Node2&#45;&gt;Node3</title>
<path fill="none" stroke="#63b8ff" d="M423.33,-80.47C405.53,-81 385.23,-81.6 366.51,-82.16"/>
<polygon fill="#63b8ff" stroke="#63b8ff" points="423.6,-83.97 433.49,-80.17 423.39,-76.97 423.6,-83.97"/>
</g>
<!-- Node4 -->
<g id="node4" class="node">
<title>Node4</title>
<g id="a_node4"><a xlink:href="namespacem__time__steppers.html#a8876606e6152b6c8f35272074a088142" target="_top" xlink:title="1st order TVD RK time&#45;stepping algorithm">
<polygon fill="white" stroke="#666666" points="202,-126 89,-126 89,-96 202,-96 202,-126"/>
<text text-anchor="start" x="97" y="-114" font-family="Helvetica,sans-Serif" font-size="10.00">m_time_steppers::s</text>
<text text-anchor="middle" x="145.5" y="-103" font-family="Helvetica,sans-Serif" font-size="10.00">_1st_order_tvd_rk</text>
</a>
</g>
</g>
<!-- Node3&#45;&gt;Node4 -->
<g id="edge3" class="edge">
<title>Node3&#45;&gt;Node4</title>
<path fill="none" stroke="#63b8ff" d="M237.33,-95.28C225.6,-97.31 213.48,-99.41 202.06,-101.38"/>
<polygon fill="#63b8ff" stroke="#63b8ff" points="238.24,-98.67 247.5,-93.52 237.05,-91.78 238.24,-98.67"/>
</g>
<!-- Node6 -->
<g id="node6" class="node">
<title>Node6</title>
<g id="a_node6"><a xlink:href="namespacem__time__steppers.html#adb82b6c6041c825d0999e6890ed825cc" target="_top" xlink:title="2nd order TVD RK time&#45;stepping algorithm">
<polygon fill="white" stroke="#666666" points="202,-78 89,-78 89,-48 202,-48 202,-78"/>
<text text-anchor="start" x="97" y="-66" font-family="Helvetica,sans-Serif" font-size="10.00">m_time_steppers::s</text>
<text text-anchor="middle" x="145.5" y="-55" font-family="Helvetica,sans-Serif" font-size="10.00">_2nd_order_tvd_rk</text>
</a>
</g>
</g>
<!-- Node3&#45;&gt;Node6 -->
<g id="edge5" class="edge">
<title>Node3&#45;&gt;Node6</title>
<path fill="none" stroke="#63b8ff" d="M230.28,-74.28C220.89,-73.01 211.39,-71.74 202.33,-70.52"/>
<polygon fill="#63b8ff" stroke="#63b8ff" points="230.02,-77.77 240.4,-75.64 230.95,-70.84 230.02,-77.77"/>
</g>
<!-- Node7 -->
<g id="node7" class="node">
<title>Node7</title>
<g id="a_node7"><a xlink:href="namespacem__time__steppers.html#ae08efa7df1f8efae0f726dd5114176a8" target="_top" xlink:title="3rd order TVD RK time&#45;stepping algorithm">
<polygon fill="white" stroke="#666666" points="202,-30 89,-30 89,0 202,0 202,-30"/>
<text text-anchor="start" x="97" y="-18" font-family="Helvetica,sans-Serif" font-size="10.00">m_time_steppers::s</text>
<text text-anchor="middle" x="145.5" y="-7" font-family="Helvetica,sans-Serif" font-size="10.00">_3rd_order_tvd_rk</text>
</a>
</g>
</g>
<!-- Node3&#45;&gt;Node7 -->
<g id="edge7" class="edge">
<title>Node3&#45;&gt;Node7</title>
<path fill="none" stroke="#63b8ff" d="M252.51,-71.13C247.52,-69.3 242.6,-67.26 238,-65 220.28,-56.31 219.16,-48.75 202,-39 196.43,-35.84 190.37,-32.82 184.36,-30.05"/>
<polygon fill="#63b8ff" stroke="#63b8ff" points="251.54,-74.5 262.13,-74.4 253.79,-67.87 251.54,-74.5"/>
</g>
<!-- Node5 -->
<g id="node5" class="node">
<title>Node5</title>
<g id="a_node5"><a xlink:href="p__main_8f90.html#aeec10ee8e2940c953967da3e374e1579" target="_top" xlink:title="Quasi&#45;conservative, shock&#45; and interface&#45; capturing finite&#45;volume scheme for the multicomponent Navie...">
<polygon fill="white" stroke="#666666" points="53,-72.5 0,-72.5 0,-53.5 53,-53.5 53,-72.5"/>
<text text-anchor="middle" x="26.5" y="-60.5" font-family="Helvetica,sans-Serif" font-size="10.00">p_main</text>
</a>
</g>
</g>
<!-- Node4&#45;&gt;Node5 -->
<g id="edge4" class="edge">
<title>Node4&#45;&gt;Node5</title>
<path fill="none" stroke="#63b8ff" d="M98.39,-92.08C82.08,-85.39 64.43,-78.15 50.81,-72.56"/>
<polygon fill="#63b8ff" stroke="#63b8ff" points="97.22,-95.39 107.8,-95.94 99.88,-88.91 97.22,-95.39"/>
</g>
<!-- Node6&#45;&gt;Node5 -->
<g id="edge6" class="edge">
<title>Node6&#45;&gt;Node5</title>
<path fill="none" stroke="#63b8ff" d="M78.51,-63C69.51,-63 60.74,-63 53.09,-63"/>
<polygon fill="#63b8ff" stroke="#63b8ff" points="78.74,-66.5 88.74,-63 78.74,-59.5 78.74,-66.5"/>
</g>
<!-- Node7&#45;&gt;Node5 -->
<g id="edge8" class="edge">
<title>Node7&#45;&gt;Node5</title>
<path fill="none" stroke="#63b8ff" d="M98.39,-33.92C82.08,-40.61 64.43,-47.85 50.81,-53.44"/>
<polygon fill="#63b8ff" stroke="#63b8ff" points="99.88,-37.09 107.8,-30.06 97.22,-30.61 99.88,-37.09"/>
</g>
<!-- Node8&#45;&gt;Node3 -->
<g id="edge10" class="edge">
<title>Node8&#45;&gt;Node3</title>
<path fill="none" stroke="#63b8ff" d="M395.02,-107.1C376.48,-102.37 357.54,-97.54 341.81,-93.52"/>
<polygon fill="#63b8ff" stroke="#63b8ff" points="394.4,-110.55 404.95,-109.63 396.13,-103.77 394.4,-110.55"/>
</g>
<!-- Node9&#45;&gt;Node4 -->
<g id="edge12" class="edge">
<title>Node9&#45;&gt;Node4</title>
<path fill="none" stroke="#63b8ff" d="M251.4,-59.94C246.83,-61.89 242.3,-63.93 238,-66 221.31,-74.04 218.53,-78.64 202,-87 195.91,-90.08 189.34,-93.14 182.91,-96"/>
<polygon fill="#63b8ff" stroke="#63b8ff" points="252.89,-63.11 260.8,-56.05 250.22,-56.64 252.89,-63.11"/>
</g>
<!-- Node9&#45;&gt;Node6 -->
<g id="edge13" class="edge">
<title>Node9&#45;&gt;Node6</title>
<path fill="none" stroke="#63b8ff" d="M227.74,-51.54C219.21,-52.75 210.63,-53.96 202.41,-55.12"/>
<polygon fill="#63b8ff" stroke="#63b8ff" points="228.28,-55 237.7,-50.14 227.31,-48.07 228.28,-55"/>
</g>
<!-- Node9&#45;&gt;Node7 -->
<g id="edge14" class="edge">
<title>Node9&#45;&gt;Node7</title>
<path fill="none" stroke="#63b8ff" d="M227.74,-28.54C219.21,-27.12 210.63,-25.69 202.41,-24.32"/>
<polygon fill="#63b8ff" stroke="#63b8ff" points="227.26,-32.01 237.7,-30.2 228.41,-25.1 227.26,-32.01"/>
</g>
</g>
</svg>
