<?xml version="1.0" encoding="UTF-8" standalone="no"?>
<!DOCTYPE svg PUBLIC "-//W3C//DTD SVG 1.1//EN"
 "http://www.w3.org/Graphics/SVG/1.1/DTD/svg11.dtd">
<!-- Generated by graphviz version 2.43.0 (0)
 -->
<!-- Title: m_weno::s_initialize_weno Pages: 1 -->
<svg width="660pt" height="39pt"
 viewBox="0.00 0.00 660.00 39.00" xmlns="http://www.w3.org/2000/svg" xmlns:xlink="http://www.w3.org/1999/xlink">
<g id="graph0" class="graph" transform="scale(1 1) rotate(0) translate(4 35)">
<title>m_weno::s_initialize_weno</title>
<!-- Node1 -->
<g id="node1" class="node">
<title>Node1</title>
<g id="a_node1"><a xlink:title="The computation of parameters, the allocation of memory, the association of pointers and/or the execu...">
<polygon fill="#bfbfbf" stroke="black" points="504,-6 504,-25 652,-25 652,-6 504,-6"/>
<text text-anchor="middle" x="578" y="-13" font-family="Helvetica,sans-Serif" font-size="10.00">m_weno::s_initialize_weno</text>
</a>
</g>
</g>
<!-- Node2 -->
<g id="node2" class="node">
<title>Node2</title>
<g id="a_node2"><a xlink:href="namespacem__weno.html#a3fa127f5914f106740f72aa4af745bef" target="_top" xlink:title=" ">
<polygon fill="none" stroke="black" points="367,-6 367,-25 468,-25 468,-6 367,-6"/>
<text text-anchor="middle" x="417.5" y="-13" font-family="Helvetica,sans-Serif" font-size="10.00">m_weno::s_weno</text>
</a>
</g>
</g>
<!-- Node1&#45;&gt;Node2 -->
<g id="edge1" class="edge">
<title>Node1&#45;&gt;Node2</title>
<path fill="none" stroke="midnightblue" d="M493.63,-15.5C484.99,-15.5 476.42,-15.5 468.32,-15.5"/>
<polygon fill="midnightblue" stroke="midnightblue" points="493.78,-19 503.78,-15.5 493.78,-12 493.78,-19"/>
</g>
<!-- Node3 -->
<g id="node3" class="node">
<title>Node3</title>
<g id="a_node3"><a xlink:href="namespacem__viscous.html#a5444ae18cefee9f89a50427b2c0be45b" target="_top" xlink:title=" ">
<polygon fill="none" stroke="black" points="179,-0.5 179,-30.5 331,-30.5 331,-0.5 179,-0.5"/>
<text text-anchor="start" x="187" y="-18.5" font-family="Helvetica,sans-Serif" font-size="10.00">m_viscous::s_reconstruct</text>
<text text-anchor="middle" x="255" y="-7.5" font-family="Helvetica,sans-Serif" font-size="10.00">_cell_boundary_values_visc</text>
</a>
</g>
</g>
<!-- Node2&#45;&gt;Node3 -->
<g id="edge2" class="edge">
<title>Node2&#45;&gt;Node3</title>
<path fill="none" stroke="midnightblue" d="M356.38,-15.5C348.17,-15.5 339.65,-15.5 331.21,-15.5"/>
<polygon fill="midnightblue" stroke="midnightblue" points="356.6,-19 366.6,-15.5 356.6,-12 356.6,-19"/>
</g>
<!-- Node4 -->
<g id="node4" class="node">
<title>Node4</title>
<g id="a_node4"><a xlink:href="namespacem__viscous.html#af773354ab827db325ff69118c6e36423" target="_top" xlink:title="Computes viscous terms.">
<polygon fill="none" stroke="black" points="0,-6 0,-25 143,-25 143,-6 0,-6"/>
<text text-anchor="middle" x="71.5" y="-13" font-family="Helvetica,sans-Serif" font-size="10.00">m_viscous::s_get_viscous</text>
</a>
</g>
</g>
<!-- Node3&#45;&gt;Node4 -->
<g id="edge3" class="edge">
<title>Node3&#45;&gt;Node4</title>
<path fill="none" stroke="midnightblue" d="M168.84,-15.5C160.26,-15.5 151.61,-15.5 143.21,-15.5"/>
<polygon fill="midnightblue" stroke="midnightblue" points="168.87,-19 178.87,-15.5 168.87,-12 168.87,-19"/>
</g>
</g>
</svg>
