<?xml version="1.0" encoding="UTF-8" standalone="no"?>
<!DOCTYPE svg PUBLIC "-//W3C//DTD SVG 1.1//EN"
 "http://www.w3.org/Graphics/SVG/1.1/DTD/svg11.dtd">
<!-- Generated by graphviz version 2.43.0 (0)
 -->
<!-- Title: m_data_output::s_initialize_data_output_module Pages: 1 -->
<svg width="524pt" height="264pt"
 viewBox="0.00 0.00 524.00 263.50" xmlns="http://www.w3.org/2000/svg" xmlns:xlink="http://www.w3.org/1999/xlink">
<g id="graph0" class="graph" transform="scale(1 1) rotate(0) translate(4 259.5)">
<title>m_data_output::s_initialize_data_output_module</title>
<!-- Node1 -->
<g id="node1" class="node">
<title>Node1</title>
<g id="a_node1"><a xlink:title="The computation of parameters, the allocation of memory, the association of pointers and/or the execu...">
<polygon fill="#999999" stroke="#666666" points="149,-132 0,-132 0,-102 149,-102 149,-132"/>
<text text-anchor="start" x="8" y="-120" font-family="Helvetica,sans-Serif" font-size="10.00">m_data_output::s_initialize</text>
<text text-anchor="middle" x="74.5" y="-109" font-family="Helvetica,sans-Serif" font-size="10.00">_data_output_module</text>
</a>
</g>
</g>
<!-- Node2 -->
<g id="node2" class="node">
<title>Node2</title>
<g id="a_node2"><a xlink:href="namespacem__variables__conversion.html#adc8e92da3f26b52445fe96b43bc1ad34" target="_top" xlink:title="This procedure is used alongside with the gamma/pi_inf model to transfer the density,...">
<polygon fill="white" stroke="#666666" points="329.5,-255.5 194.5,-255.5 194.5,-214.5 329.5,-214.5 329.5,-255.5"/>
<text text-anchor="start" x="202.5" y="-243.5" font-family="Helvetica,sans-Serif" font-size="10.00">m_variables_conversion</text>
<text text-anchor="start" x="202.5" y="-232.5" font-family="Helvetica,sans-Serif" font-size="10.00">::s_convert_mixture_to</text>
<text text-anchor="middle" x="262" y="-221.5" font-family="Helvetica,sans-Serif" font-size="10.00">_mixture_variables</text>
</a>
</g>
</g>
<!-- Node1&#45;&gt;Node2 -->
<g id="edge1" class="edge">
<title>Node1&#45;&gt;Node2</title>
<path fill="none" stroke="#63b8ff" d="M90.99,-132.32C111.19,-151.62 148.29,-184.81 185,-206 187.47,-207.42 190.01,-208.8 192.62,-210.13"/>
<polygon fill="#63b8ff" stroke="#63b8ff" points="191.11,-213.29 201.64,-214.48 194.15,-206.99 191.11,-213.29"/>
</g>
<!-- Node3 -->
<g id="node3" class="node">
<title>Node3</title>
<g id="a_node3"><a xlink:href="namespacem__variables__conversion.html#a087d0446a1b6c73a105a4922ee9966c4" target="_top" xlink:title="This subroutine is designed for the volume fraction model and provided a set of either conservative o...">
<polygon fill="white" stroke="#666666" points="329.5,-196.5 194.5,-196.5 194.5,-155.5 329.5,-155.5 329.5,-196.5"/>
<text text-anchor="start" x="202.5" y="-184.5" font-family="Helvetica,sans-Serif" font-size="10.00">m_variables_conversion</text>
<text text-anchor="start" x="202.5" y="-173.5" font-family="Helvetica,sans-Serif" font-size="10.00">::s_convert_species_to</text>
<text text-anchor="middle" x="262" y="-162.5" font-family="Helvetica,sans-Serif" font-size="10.00">_mixture_variables</text>
</a>
</g>
</g>
<!-- Node1&#45;&gt;Node3 -->
<g id="edge2" class="edge">
<title>Node1&#45;&gt;Node3</title>
<path fill="none" stroke="#63b8ff" d="M122.79,-132.04C142.15,-138.2 165.02,-145.47 186.53,-152.31"/>
<polygon fill="#63b8ff" stroke="#63b8ff" points="185.71,-155.73 196.3,-155.42 187.83,-149.06 185.71,-155.73"/>
</g>
<!-- Node4 -->
<g id="node4" class="node">
<title>Node4</title>
<g id="a_node4"><a xlink:href="namespacem__variables__conversion.html#af706a9e3a74f8b78a4dda1035ee7a492" target="_top" xlink:title="This procedure is used alongside with the gamma/pi_inf model to transfer the density,...">
<polygon fill="white" stroke="#666666" points="339,-137.5 185,-137.5 185,-96.5 339,-96.5 339,-137.5"/>
<text text-anchor="start" x="193" y="-125.5" font-family="Helvetica,sans-Serif" font-size="10.00">m_variables_conversion</text>
<text text-anchor="start" x="193" y="-114.5" font-family="Helvetica,sans-Serif" font-size="10.00">::s_convert_species_to</text>
<text text-anchor="middle" x="262" y="-103.5" font-family="Helvetica,sans-Serif" font-size="10.00">_mixture_variables_bubbles</text>
</a>
</g>
</g>
<!-- Node1&#45;&gt;Node4 -->
<g id="edge3" class="edge">
<title>Node1&#45;&gt;Node4</title>
<path fill="none" stroke="#63b8ff" d="M149.08,-117C157.51,-117 166.17,-117 174.75,-117"/>
<polygon fill="#63b8ff" stroke="#63b8ff" points="174.77,-120.5 184.77,-117 174.77,-113.5 174.77,-120.5"/>
</g>
<!-- Node5 -->
<g id="node5" class="node">
<title>Node5</title>
<g id="a_node5"><a xlink:href="namespacem__data__output.html#a9c1271b2c588c1ae3275791d41550f75" target="_top" xlink:title="The goal of this subroutine is to output the grid and conservative variables data files for given tim...">
<polygon fill="white" stroke="#666666" points="327.5,-78 196.5,-78 196.5,-48 327.5,-48 327.5,-78"/>
<text text-anchor="start" x="204.5" y="-66" font-family="Helvetica,sans-Serif" font-size="10.00">m_data_output::s_write</text>
<text text-anchor="middle" x="262" y="-55" font-family="Helvetica,sans-Serif" font-size="10.00">_parallel_data_files</text>
</a>
</g>
</g>
<!-- Node1&#45;&gt;Node5 -->
<g id="edge4" class="edge">
<title>Node1&#45;&gt;Node5</title>
<path fill="none" stroke="#63b8ff" d="M127.17,-101.96C149.59,-95.43 176.02,-87.74 199.45,-80.92"/>
<polygon fill="#63b8ff" stroke="#63b8ff" points="200.66,-84.21 209.28,-78.05 198.7,-77.49 200.66,-84.21"/>
</g>
<!-- Node7 -->
<g id="node7" class="node">
<title>Node7</title>
<g id="a_node7"><a xlink:href="namespacem__data__output.html#a04c6b0f01b8561e248a740b017fc4f7d" target="_top" xlink:title="The goal of this subroutine is to output the grid and conservative variables data files for given tim...">
<polygon fill="white" stroke="#666666" points="327.5,-30 196.5,-30 196.5,0 327.5,0 327.5,-30"/>
<text text-anchor="start" x="204.5" y="-18" font-family="Helvetica,sans-Serif" font-size="10.00">m_data_output::s_write</text>
<text text-anchor="middle" x="262" y="-7" font-family="Helvetica,sans-Serif" font-size="10.00">_serial_data_files</text>
</a>
</g>
</g>
<!-- Node1&#45;&gt;Node7 -->
<g id="edge6" class="edge">
<title>Node1&#45;&gt;Node7</title>
<path fill="none" stroke="#63b8ff" d="M92.98,-101.89C113.72,-84.62 149.91,-56.49 185,-39 188.76,-37.13 192.7,-35.36 196.72,-33.7"/>
<polygon fill="#63b8ff" stroke="#63b8ff" points="198.15,-36.9 206.21,-30.02 195.62,-30.37 198.15,-36.9"/>
</g>
<!-- Node6 -->
<g id="node6" class="node">
<title>Node6</title>
<g id="a_node6"><a xlink:href="namespacem__mpi__proxy.html#a2ff35ede51e90c483969e44c31303415" target="_top" xlink:title="The subroutine that initializes MPI data structures.">
<polygon fill="white" stroke="#666666" points="516,-78 375,-78 375,-48 516,-48 516,-78"/>
<text text-anchor="start" x="383" y="-66" font-family="Helvetica,sans-Serif" font-size="10.00">m_mpi_proxy::s_initialize</text>
<text text-anchor="middle" x="445.5" y="-55" font-family="Helvetica,sans-Serif" font-size="10.00">_mpi_data</text>
</a>
</g>
</g>
<!-- Node5&#45;&gt;Node6 -->
<g id="edge5" class="edge">
<title>Node5&#45;&gt;Node6</title>
<path fill="none" stroke="#63b8ff" d="M327.5,-63C339.52,-63 352.21,-63 364.63,-63"/>
<polygon fill="#63b8ff" stroke="#63b8ff" points="364.97,-66.5 374.97,-63 364.97,-59.5 364.97,-66.5"/>
</g>
</g>
</svg>
