<?xml version="1.0" encoding="UTF-8" standalone="no"?>
<!DOCTYPE svg PUBLIC "-//W3C//DTD SVG 1.1//EN"
 "http://www.w3.org/Graphics/SVG/1.1/DTD/svg11.dtd">
<!-- Generated by graphviz version 2.43.0 (0)
 -->
<!-- Title: m_start_up::s_read_parallel_data_files Pages: 1 -->
<svg width="296pt" height="134pt"
 viewBox="0.00 0.00 296.00 134.00" xmlns="http://www.w3.org/2000/svg" xmlns:xlink="http://www.w3.org/1999/xlink">
<g id="graph0" class="graph" transform="scale(1 1) rotate(0) translate(4 130)">
<title>m_start_up::s_read_parallel_data_files</title>
<!-- Node1 -->
<g id="node1" class="node">
<title>Node1</title>
<g id="a_node1"><a xlink:title=" ">
<polygon fill="#999999" stroke="#666666" points="111,-78 0,-78 0,-48 111,-48 111,-78"/>
<text text-anchor="start" x="8" y="-66" font-family="Helvetica,sans-Serif" font-size="10.00">m_start_up::s_read</text>
<text text-anchor="middle" x="55.5" y="-55" font-family="Helvetica,sans-Serif" font-size="10.00">_parallel_data_files</text>
</a>
</g>
</g>
<!-- Node2 -->
<g id="node2" class="node">
<title>Node2</title>
<g id="a_node2"><a xlink:href="namespacem__mpi__proxy.html#a2ff35ede51e90c483969e44c31303415" target="_top" xlink:title="The subroutine that initializes MPI data structures.">
<polygon fill="white" stroke="#666666" points="288,-126 147,-126 147,-96 288,-96 288,-126"/>
<text text-anchor="start" x="155" y="-114" font-family="Helvetica,sans-Serif" font-size="10.00">m_mpi_proxy::s_initialize</text>
<text text-anchor="middle" x="217.5" y="-103" font-family="Helvetica,sans-Serif" font-size="10.00">_mpi_data</text>
</a>
</g>
</g>
<!-- Node1&#45;&gt;Node2 -->
<g id="edge1" class="edge">
<title>Node1&#45;&gt;Node2</title>
<path fill="none" stroke="#63b8ff" d="M106.69,-78.06C122.47,-82.79 140.07,-88.07 156.46,-92.99"/>
<polygon fill="#63b8ff" stroke="#63b8ff" points="155.91,-96.48 166.49,-96 157.92,-89.77 155.91,-96.48"/>
</g>
<!-- Node3 -->
<g id="node3" class="node">
<title>Node3</title>
<g id="a_node3"><a xlink:href="namespacem__mpi__proxy.html#a04ac565bad2b22dc045a5eeb4f516e2e" target="_top" xlink:title="The subroutine terminates the MPI execution environment.">
<polygon fill="white" stroke="#666666" points="276.5,-78 158.5,-78 158.5,-48 276.5,-48 276.5,-78"/>
<text text-anchor="start" x="166.5" y="-66" font-family="Helvetica,sans-Serif" font-size="10.00">m_mpi_proxy::s_mpi</text>
<text text-anchor="middle" x="217.5" y="-55" font-family="Helvetica,sans-Serif" font-size="10.00">_abort</text>
</a>
</g>
</g>
<!-- Node1&#45;&gt;Node3 -->
<g id="edge2" class="edge">
<title>Node1&#45;&gt;Node3</title>
<path fill="none" stroke="#63b8ff" d="M111.12,-63C123,-63 135.71,-63 148.05,-63"/>
<polygon fill="#63b8ff" stroke="#63b8ff" points="148.3,-66.5 158.3,-63 148.3,-59.5 148.3,-66.5"/>
</g>
<!-- Node4 -->
<g id="node4" class="node">
<title>Node4</title>
<g id="a_node4"><a xlink:href="namespacem__mpi__proxy.html#abfbc42cea69273bc9fa4a2d78f636eb1" target="_top" xlink:title="Halts all processes until all have reached barrier.">
<polygon fill="white" stroke="#666666" points="276.5,-30 158.5,-30 158.5,0 276.5,0 276.5,-30"/>
<text text-anchor="start" x="166.5" y="-18" font-family="Helvetica,sans-Serif" font-size="10.00">m_mpi_proxy::s_mpi</text>
<text text-anchor="middle" x="217.5" y="-7" font-family="Helvetica,sans-Serif" font-size="10.00">_barrier</text>
</a>
</g>
</g>
<!-- Node1&#45;&gt;Node4 -->
<g id="edge3" class="edge">
<title>Node1&#45;&gt;Node4</title>
<path fill="none" stroke="#63b8ff" d="M106.69,-47.94C122.47,-43.21 140.07,-37.93 156.46,-33.01"/>
<polygon fill="#63b8ff" stroke="#63b8ff" points="157.92,-36.23 166.49,-30 155.91,-29.52 157.92,-36.23"/>
</g>
</g>
</svg>
