<?xml version="1.0" encoding="UTF-8" standalone="no"?>
<!DOCTYPE svg PUBLIC "-//W3C//DTD SVG 1.1//EN"
 "http://www.w3.org/Graphics/SVG/1.1/DTD/svg11.dtd">
<!-- Generated by graphviz version 2.43.0 (0)
 -->
<!-- Title: m_cbc::s_cbc Pages: 1 -->
<!--zoomable 497 -->
<svg id="main" version="1.1" xmlns="http://www.w3.org/2000/svg" xmlns:xlink="http://www.w3.org/1999/xlink" xml:space="preserve" onload="init(evt)">
<style type="text/css"><![CDATA[
.edge:hover path { stroke: red; }
.edge:hover polygon { stroke: red; fill: red; }
]]></style>
<script type="text/javascript"><![CDATA[
var edges = document.getElementsByTagName('g');
if (edges && edges.length) {
  for (var i=0;i<edges.length;i++) {
    if (edges[i].id.substr(0,4)=='edge') {
      edges[i].setAttribute('class','edge');
    }
  }
}
]]></script>
        <defs>
                <circle id="rim" cx="0" cy="0" r="7"/>
                <circle id="rim2" cx="0" cy="0" r="3.5"/>
                <g id="zoomPlus">
                        <use xlink:href="#rim" fill="#404040">
                                <set attributeName="fill" to="#808080" begin="zoomplus.mouseover" end="zoomplus.mouseout"/>
                        </use>
                        <path d="M-4,0h8M0,-4v8" fill="none" stroke="white" stroke-width="1.5" pointer-events="none"/>
                </g>
                <g id="zoomMin">
                        <use xlink:href="#rim" fill="#404040">
                                <set attributeName="fill" to="#808080" begin="zoomminus.mouseover" end="zoomminus.mouseout"/>
                        </use>
                        <path d="M-4,0h8" fill="none" stroke="white" stroke-width="1.5" pointer-events="none"/>
                </g>
                <g id="dirArrow">
                        <path fill="none" stroke="white" stroke-width="1.5" d="M0,-3.0v7 M-2.5,-0.5L0,-3.0L2.5,-0.5"/>
                </g>
               <g id="resetDef">
                       <use xlink:href="#rim2" fill="#404040">
                               <set attributeName="fill" to="#808080" begin="reset.mouseover" end="reset.mouseout"/>
                       </use>
               </g>
        </defs>

<script type="text/javascript">
var viewWidth = 301;
var viewHeight = 497;
var sectionId = 'dynsection-1';
</script>
<script xlink:href="svgpan.js"/>
<svg id="graph" class="graph">
<g id="viewport">
<title>m_cbc::s_cbc</title>
<!-- Node1 -->
<g id="node1" class="node">
<title>Node1</title>
<g id="a_node1"><a xlink:title="The following is the implementation of the CBC based on the work of Thompson (1987,...">
<polygon fill="#999999" stroke="#666666" points="81,-243 0,-243 0,-224 81,-224 81,-243"/>
<text text-anchor="middle" x="40.5" y="-231" font-family="Helvetica,sans-Serif" font-size="10.00">m_cbc::s_cbc</text>
</a>
</g>
</g>
<!-- Node2 -->
<g id="node2" class="node">
<title>Node2</title>
<g id="a_node2"><a xlink:href="namespacem__cbc.html#a76e19dea2a654c9a7f311baa16ef118c" target="_top" xlink:title=" ">
<polygon fill="white" stroke="#666666" points="277.5,-488.5 132.5,-488.5 132.5,-458.5 277.5,-458.5 277.5,-488.5"/>
<text text-anchor="start" x="140.5" y="-476.5" font-family="Helvetica,sans-Serif" font-size="10.00">m_cbc::s_associate</text>
<text text-anchor="middle" x="205" y="-465.5" font-family="Helvetica,sans-Serif" font-size="10.00">_cbc_coefficients_pointers</text>
</a>
</g>
</g>
<!-- Node1&#45;&gt;Node2 -->
<g id="edge1" class="edge">
<title>Node1&#45;&gt;Node2</title>
<path fill="none" stroke="#63b8ff" d="M41.86,-243.38C43.66,-277.41 54.33,-390.9 117,-449.5 119.15,-451.51 121.44,-453.35 123.86,-455.04"/>
<polygon fill="#63b8ff" stroke="#63b8ff" points="122.11,-458.07 132.49,-460.22 125.71,-452.07 122.11,-458.07"/>
</g>
<!-- Node3 -->
<g id="node3" class="node">
<title>Node3</title>
<g id="a_node3"><a xlink:href="namespacem__cbc.html#ad8fcd08114ca6e64be4e37c1bab117c2" target="_top" xlink:title="L variables for the constant pressure subsonic outflow CBC see pg. 455 Thompson (1990)....">
<polygon fill="white" stroke="#666666" points="285.5,-440.5 124.5,-440.5 124.5,-410.5 285.5,-410.5 285.5,-440.5"/>
<text text-anchor="start" x="132.5" y="-428.5" font-family="Helvetica,sans-Serif" font-size="10.00">m_cbc::s_compute_constant</text>
<text text-anchor="middle" x="205" y="-417.5" font-family="Helvetica,sans-Serif" font-size="10.00">_pressure_subsonic_outflow_l</text>
</a>
</g>
</g>
<!-- Node1&#45;&gt;Node3 -->
<g id="edge2" class="edge">
<title>Node1&#45;&gt;Node3</title>
<path fill="none" stroke="#63b8ff" d="M42.93,-243.18C47.7,-271.93 65.78,-357.58 117,-401.5 118.52,-402.8 120.1,-404.03 121.73,-405.19"/>
<polygon fill="#63b8ff" stroke="#63b8ff" points="119.97,-408.22 130.32,-410.48 123.64,-402.26 119.97,-408.22"/>
</g>
<!-- Node4 -->
<g id="node4" class="node">
<title>Node4</title>
<g id="a_node4"><a xlink:href="namespacem__cbc.html#a18d823e26d7b8b8fdfadb0e7988aef98" target="_top" xlink:title="The L variables for the force&#45;free subsonic outflow CBC, see pg. 454 of Thompson (1990)....">
<polygon fill="white" stroke="#666666" points="274.5,-392.5 135.5,-392.5 135.5,-362.5 274.5,-362.5 274.5,-392.5"/>
<text text-anchor="start" x="143.5" y="-380.5" font-family="Helvetica,sans-Serif" font-size="10.00">m_cbc::s_compute_force</text>
<text text-anchor="middle" x="205" y="-369.5" font-family="Helvetica,sans-Serif" font-size="10.00">_free_subsonic_outflow_l</text>
</a>
</g>
</g>
<!-- Node1&#45;&gt;Node4 -->
<g id="edge3" class="edge">
<title>Node1&#45;&gt;Node4</title>
<path fill="none" stroke="#63b8ff" d="M44.83,-243.31C53.16,-266.27 77.1,-323.84 117,-353.5 119.85,-355.62 122.88,-357.55 126.04,-359.32"/>
<polygon fill="#63b8ff" stroke="#63b8ff" points="124.69,-362.56 135.21,-363.84 127.79,-356.28 124.69,-362.56"/>
</g>
<!-- Node5 -->
<g id="node5" class="node">
<title>Node5</title>
<g id="a_node5"><a xlink:href="namespacem__cbc.html#a384c9ad99c8e549c83d3e6d2d4966fd4" target="_top" xlink:title="The L variables for the nonreflecting subsonic buffer CBC see pg. 13 of Thompson (1987)....">
<polygon fill="white" stroke="#666666" points="293,-344.5 117,-344.5 117,-314.5 293,-314.5 293,-344.5"/>
<text text-anchor="start" x="125" y="-332.5" font-family="Helvetica,sans-Serif" font-size="10.00">m_cbc::s_compute_nonreflecting</text>
<text text-anchor="middle" x="205" y="-321.5" font-family="Helvetica,sans-Serif" font-size="10.00">_subsonic_buffer_l</text>
</a>
</g>
</g>
<!-- Node1&#45;&gt;Node5 -->
<g id="edge4" class="edge">
<title>Node1&#45;&gt;Node5</title>
<path fill="none" stroke="#63b8ff" d="M49.18,-243.48C61.69,-259.06 88,-289.07 117,-305.5 120.09,-307.25 123.32,-308.88 126.64,-310.4"/>
<polygon fill="#63b8ff" stroke="#63b8ff" points="125.59,-313.75 136.17,-314.37 128.29,-307.29 125.59,-313.75"/>
</g>
<!-- Node6 -->
<g id="node6" class="node">
<title>Node6</title>
<g id="a_node6"><a xlink:href="namespacem__cbc.html#a1ae81f8dc6b690e6c02fb4a5959c05bd" target="_top" xlink:title="The L variables for the nonreflecting subsonic inflow CBC see pg. 455, Thompson (1990)....">
<polygon fill="white" stroke="#666666" points="293,-296.5 117,-296.5 117,-266.5 293,-266.5 293,-296.5"/>
<text text-anchor="start" x="125" y="-284.5" font-family="Helvetica,sans-Serif" font-size="10.00">m_cbc::s_compute_nonreflecting</text>
<text text-anchor="middle" x="205" y="-273.5" font-family="Helvetica,sans-Serif" font-size="10.00">_subsonic_inflow_l</text>
</a>
</g>
</g>
<!-- Node1&#45;&gt;Node6 -->
<g id="edge5" class="edge">
<title>Node1&#45;&gt;Node6</title>
<path fill="none" stroke="#63b8ff" d="M70.82,-243.11C84.77,-247.61 101.7,-252.96 117,-257.5 123.92,-259.55 131.16,-261.64 138.4,-263.69"/>
<polygon fill="#63b8ff" stroke="#63b8ff" points="137.64,-267.12 148.21,-266.45 139.54,-260.38 137.64,-267.12"/>
</g>
<!-- Node7 -->
<g id="node7" class="node">
<title>Node7</title>
<g id="a_node7"><a xlink:href="namespacem__cbc.html#a6593a73287a3070feda85f3bda95874c" target="_top" xlink:title="The L variables for the nonreflecting subsonic outflow CBC see pg. 454 of Thompson (1990)....">
<polygon fill="white" stroke="#666666" points="293,-248.5 117,-248.5 117,-218.5 293,-218.5 293,-248.5"/>
<text text-anchor="start" x="125" y="-236.5" font-family="Helvetica,sans-Serif" font-size="10.00">m_cbc::s_compute_nonreflecting</text>
<text text-anchor="middle" x="205" y="-225.5" font-family="Helvetica,sans-Serif" font-size="10.00">_subsonic_outflow_l</text>
</a>
</g>
</g>
<!-- Node1&#45;&gt;Node7 -->
<g id="edge6" class="edge">
<title>Node1&#45;&gt;Node7</title>
<path fill="none" stroke="#63b8ff" d="M81.25,-233.5C89.17,-233.5 97.81,-233.5 106.71,-233.5"/>
<polygon fill="#63b8ff" stroke="#63b8ff" points="106.86,-237 116.86,-233.5 106.86,-230 106.86,-237"/>
</g>
<!-- Node8 -->
<g id="node8" class="node">
<title>Node8</title>
<g id="a_node8"><a xlink:href="namespacem__cbc.html#a1b93131a7db68e57ac83a34fdc9ab8f3" target="_top" xlink:title="The L variables for the slip wall CBC, see pg. 451 of Thompson (1990). At the slip wall (frictionless...">
<polygon fill="white" stroke="#666666" points="270,-200.5 140,-200.5 140,-170.5 270,-170.5 270,-200.5"/>
<text text-anchor="start" x="148" y="-188.5" font-family="Helvetica,sans-Serif" font-size="10.00">m_cbc::s_compute_slip</text>
<text text-anchor="middle" x="205" y="-177.5" font-family="Helvetica,sans-Serif" font-size="10.00">_wall_l</text>
</a>
</g>
</g>
<!-- Node1&#45;&gt;Node8 -->
<g id="edge7" class="edge">
<title>Node1&#45;&gt;Node8</title>
<path fill="none" stroke="#63b8ff" d="M70.82,-223.89C84.77,-219.39 101.7,-214.04 117,-209.5 123.92,-207.45 131.16,-205.36 138.4,-203.31"/>
<polygon fill="#63b8ff" stroke="#63b8ff" points="139.54,-206.62 148.21,-200.55 137.64,-199.88 139.54,-206.62"/>
</g>
<!-- Node9 -->
<g id="node9" class="node">
<title>Node9</title>
<g id="a_node9"><a xlink:href="namespacem__cbc.html#a742d36b1db502ee5ca3d5a4faa1e3ac5" target="_top" xlink:title="L variables for the supersonic inflow CBC, see pg. 453 Thompson (1990). The supersonic inflow CBC is ...">
<polygon fill="white" stroke="#666666" points="287.5,-152.5 122.5,-152.5 122.5,-122.5 287.5,-122.5 287.5,-152.5"/>
<text text-anchor="start" x="130.5" y="-140.5" font-family="Helvetica,sans-Serif" font-size="10.00">m_cbc::s_compute_supersonic</text>
<text text-anchor="middle" x="205" y="-129.5" font-family="Helvetica,sans-Serif" font-size="10.00">_inflow_l</text>
</a>
</g>
</g>
<!-- Node1&#45;&gt;Node9 -->
<g id="edge8" class="edge">
<title>Node1&#45;&gt;Node9</title>
<path fill="none" stroke="#63b8ff" d="M49.18,-223.52C61.69,-207.94 88,-177.93 117,-161.5 120.09,-159.75 123.32,-158.12 126.64,-156.6"/>
<polygon fill="#63b8ff" stroke="#63b8ff" points="128.29,-159.71 136.17,-152.63 125.59,-153.25 128.29,-159.71"/>
</g>
<!-- Node10 -->
<g id="node10" class="node">
<title>Node10</title>
<g id="a_node10"><a xlink:href="namespacem__cbc.html#a3073f3308365f0c6c425a33237d825f8" target="_top" xlink:title="L variables for the supersonic outflow CBC, see pg. 453 of Thompson (1990). For the supersonic outflo...">
<polygon fill="white" stroke="#666666" points="287.5,-104.5 122.5,-104.5 122.5,-74.5 287.5,-74.5 287.5,-104.5"/>
<text text-anchor="start" x="130.5" y="-92.5" font-family="Helvetica,sans-Serif" font-size="10.00">m_cbc::s_compute_supersonic</text>
<text text-anchor="middle" x="205" y="-81.5" font-family="Helvetica,sans-Serif" font-size="10.00">_outflow_l</text>
</a>
</g>
</g>
<!-- Node1&#45;&gt;Node10 -->
<g id="edge9" class="edge">
<title>Node1&#45;&gt;Node10</title>
<path fill="none" stroke="#63b8ff" d="M44.83,-223.69C53.16,-200.73 77.1,-143.16 117,-113.5 118.89,-112.1 120.86,-110.77 122.89,-109.53"/>
<polygon fill="#63b8ff" stroke="#63b8ff" points="124.99,-112.37 132.14,-104.55 121.68,-106.2 124.99,-112.37"/>
</g>
<!-- Node11 -->
<g id="node11" class="node">
<title>Node11</title>
<g id="a_node11"><a xlink:href="namespacem__cbc.html#a3fcf7cde1a04a7ee72ced4aa62cf53d0" target="_top" xlink:title="Deallocation and/or the disassociation procedures that are necessary in order to finalize the CBC app...">
<polygon fill="white" stroke="#666666" points="266,-56 144,-56 144,-37 266,-37 266,-56"/>
<text text-anchor="middle" x="205" y="-44" font-family="Helvetica,sans-Serif" font-size="10.00">m_cbc::s_finalize_cbc</text>
</a>
</g>
</g>
<!-- Node1&#45;&gt;Node11 -->
<g id="edge10" class="edge">
<title>Node1&#45;&gt;Node11</title>
<path fill="none" stroke="#63b8ff" d="M42.82,-223.69C47.29,-194.58 64.61,-108.02 117,-65.5 122.04,-61.41 127.77,-58.15 133.83,-55.56"/>
<polygon fill="#63b8ff" stroke="#63b8ff" points="135.36,-58.72 143.56,-52.01 132.96,-52.14 135.36,-58.72"/>
</g>
<!-- Node12 -->
<g id="node12" class="node">
<title>Node12</title>
<g id="a_node12"><a xlink:href="namespacem__cbc.html#a50fed863b4ee14bf81590ed80154b539" target="_top" xlink:title="The computation of parameters, the allocation of memory, the association of pointers and/or the execu...">
<polygon fill="white" stroke="#666666" points="269,-19 141,-19 141,0 269,0 269,-19"/>
<text text-anchor="middle" x="205" y="-7" font-family="Helvetica,sans-Serif" font-size="10.00">m_cbc::s_initialize_cbc</text>
</a>
</g>
</g>
<!-- Node1&#45;&gt;Node12 -->
<g id="edge11" class="edge">
<title>Node1&#45;&gt;Node12</title>
<path fill="none" stroke="#63b8ff" d="M41.93,-223.99C43.94,-191.26 55.22,-82.3 117,-28.5 121.3,-24.76 126.17,-21.7 131.34,-19.2"/>
<polygon fill="#63b8ff" stroke="#63b8ff" points="133.01,-22.3 140.95,-15.3 130.37,-15.82 133.01,-22.3"/>
</g>
</g>
</svg>
        <g id="navigator" transform="translate(0 0)" fill="#404254">
                <rect fill="#f2f5e9" fill-opacity="0.5" stroke="#606060" stroke-width=".5" x="0" y="0" width="60" height="60"/>
                <use id="zoomplus" xlink:href="#zoomPlus" x="17" y="9" onmousedown="handleZoom(evt,'in')"/>
                <use id="zoomminus" xlink:href="#zoomMin" x="42" y="9" onmousedown="handleZoom(evt,'out')"/>
                <use id="reset" xlink:href="#resetDef" x="30" y="36" onmousedown="handleReset()"/>
                <g id="arrowUp" xlink:href="#dirArrow" transform="translate(30 24)" onmousedown="handlePan(0,-1)">
                  <use xlink:href="#rim" fill="#404040">
                        <set attributeName="fill" to="#808080" begin="arrowUp.mouseover" end="arrowUp.mouseout"/>
                  </use>
                  <path fill="none" stroke="white" stroke-width="1.5" d="M0,-3.0v7 M-2.5,-0.5L0,-3.0L2.5,-0.5"/>
                </g>
                <g id="arrowRight" xlink:href="#dirArrow" transform="rotate(90) translate(36 -43)" onmousedown="handlePan(1,0)">
                  <use xlink:href="#rim" fill="#404040">
                        <set attributeName="fill" to="#808080" begin="arrowRight.mouseover" end="arrowRight.mouseout"/>
                  </use>
                  <path fill="none" stroke="white" stroke-width="1.5" d="M0,-3.0v7 M-2.5,-0.5L0,-3.0L2.5,-0.5"/>
                </g>
                <g id="arrowDown" xlink:href="#dirArrow" transform="rotate(180) translate(-30 -48)" onmousedown="handlePan(0,1)">
                  <use xlink:href="#rim" fill="#404040">
                        <set attributeName="fill" to="#808080" begin="arrowDown.mouseover" end="arrowDown.mouseout"/>
                  </use>
                  <path fill="none" stroke="white" stroke-width="1.5" d="M0,-3.0v7 M-2.5,-0.5L0,-3.0L2.5,-0.5"/>
                </g>
                <g id="arrowLeft" xlink:href="#dirArrow" transform="rotate(270) translate(-36 17)" onmousedown="handlePan(-1,0)">
                  <use xlink:href="#rim" fill="#404040">
                        <set attributeName="fill" to="#808080" begin="arrowLeft.mouseover" end="arrowLeft.mouseout"/>
                  </use>
                  <path fill="none" stroke="white" stroke-width="1.5" d="M0,-3.0v7 M-2.5,-0.5L0,-3.0L2.5,-0.5"/>
                </g>
        </g>
        <svg viewBox="0 0 15 15" width="100%" height="30px" preserveAspectRatio="xMaxYMin meet">
         <g id="arrow_out" transform="scale(0.3 0.3)">
          <a xlink:href="namespacem__cbc_a72cc3ba5a0de327fae70742734e77492_cgraph_org.svg" target="_base">
           <rect id="button" ry="5" rx="5" y="6" x="6" height="38" width="38"
                fill="#f2f5e9" fill-opacity="0.5" stroke="#606060" stroke-width="1.0"/>
           <path id="arrow"
             d="M 11.500037,31.436501 C 11.940474,20.09759 22.043105,11.32322 32.158766,21.979434 L 37.068811,17.246167 C 37.068811,17.246167 37.088388,32 37.088388,32 L 22.160133,31.978069 C 22.160133,31.978069 26.997745,27.140456 26.997745,27.140456 C 18.528582,18.264221 13.291696,25.230495 11.500037,31.436501 z"
             style="fill:#404040;"/>
          </a>
         </g>
        </svg>
</svg>
