<?xml version="1.0" encoding="UTF-8" standalone="no"?>
<!DOCTYPE svg PUBLIC "-//W3C//DTD SVG 1.1//EN"
 "http://www.w3.org/Graphics/SVG/1.1/DTD/svg11.dtd">
<!-- Generated by graphviz version 2.43.0 (0)
 -->
<!-- Title: m_rhs::s_reconstruct_cell_boundary_values Pages: 1 -->
<svg width="457pt" height="38pt"
 viewBox="0.00 0.00 457.00 38.00" xmlns="http://www.w3.org/2000/svg" xmlns:xlink="http://www.w3.org/1999/xlink">
<g id="graph0" class="graph" transform="scale(1 1) rotate(0) translate(4 34)">
<title>m_rhs::s_reconstruct_cell_boundary_values</title>
<!-- Node1 -->
<g id="node1" class="node">
<title>Node1</title>
<g id="a_node1"><a xlink:title="The purpose of this subroutine is to WENO&#45;reconstruct the left and the right cell&#45;boundary values,...">
<polygon fill="#999999" stroke="#666666" points="128,-30 0,-30 0,0 128,0 128,-30"/>
<text text-anchor="start" x="8" y="-18" font-family="Helvetica,sans-Serif" font-size="10.00">m_rhs::s_reconstruct</text>
<text text-anchor="middle" x="64" y="-7" font-family="Helvetica,sans-Serif" font-size="10.00">_cell_boundary_values</text>
</a>
</g>
</g>
<!-- Node2 -->
<g id="node2" class="node">
<title>Node2</title>
<g id="a_node2"><a xlink:href="namespacem__weno.html#abf60919ebaaf298c15e8a3a1167610e0" target="_top" xlink:title=" ">
<polygon fill="white" stroke="#666666" points="265,-24.5 164,-24.5 164,-5.5 265,-5.5 265,-24.5"/>
<text text-anchor="middle" x="214.5" y="-12.5" font-family="Helvetica,sans-Serif" font-size="10.00">m_weno::s_weno</text>
</a>
</g>
</g>
<!-- Node1&#45;&gt;Node2 -->
<g id="edge1" class="edge">
<title>Node1&#45;&gt;Node2</title>
<path fill="none" stroke="#63b8ff" d="M128.41,-15C136.81,-15 145.41,-15 153.75,-15"/>
<polygon fill="#63b8ff" stroke="#63b8ff" points="153.77,-18.5 163.77,-15 153.77,-11.5 153.77,-18.5"/>
</g>
<!-- Node3 -->
<g id="node3" class="node">
<title>Node3</title>
<g id="a_node3"><a xlink:href="namespacem__weno.html#ac5c7a0754b0624a47b0152c759ee1789" target="_top" xlink:title="The computation of parameters, the allocation of memory, the association of pointers and/or the execu...">
<polygon fill="white" stroke="#666666" points="449,-24.5 301,-24.5 301,-5.5 449,-5.5 449,-24.5"/>
<text text-anchor="middle" x="375" y="-12.5" font-family="Helvetica,sans-Serif" font-size="10.00">m_weno::s_initialize_weno</text>
</a>
</g>
</g>
<!-- Node2&#45;&gt;Node3 -->
<g id="edge2" class="edge">
<title>Node2&#45;&gt;Node3</title>
<path fill="none" stroke="#63b8ff" d="M265.22,-15C273.37,-15 282.02,-15 290.72,-15"/>
<polygon fill="#63b8ff" stroke="#63b8ff" points="290.95,-18.5 300.95,-15 290.95,-11.5 290.95,-18.5"/>
</g>
</g>
</svg>
