<?xml version="1.0" encoding="UTF-8" standalone="no"?>
<!DOCTYPE svg PUBLIC "-//W3C//DTD SVG 1.1//EN"
 "http://www.w3.org/Graphics/SVG/1.1/DTD/svg11.dtd">
<!-- Generated by graphviz version 2.43.0 (0)
 -->
<!-- Title: m_derived_variables::s_compute_derived_variables Pages: 1 -->
<svg width="666pt" height="433pt"
 viewBox="0.00 0.00 666.00 432.50" xmlns="http://www.w3.org/2000/svg" xmlns:xlink="http://www.w3.org/1999/xlink">
<g id="graph0" class="graph" transform="scale(1 1) rotate(0) translate(4 428.5)">
<title>m_derived_variables::s_compute_derived_variables</title>
<!-- Node1 -->
<g id="node1" class="node">
<title>Node1</title>
<g id="a_node1"><a xlink:title="Writes coherent body information, communication files, and probes.">
<polygon fill="#bfbfbf" stroke="black" points="0,-181 0,-222 119,-222 119,-181 0,-181"/>
<text text-anchor="start" x="8" y="-210" font-family="Helvetica,sans-Serif" font-size="10.00">m_derived_variables</text>
<text text-anchor="start" x="8" y="-199" font-family="Helvetica,sans-Serif" font-size="10.00">::s_compute_derived</text>
<text text-anchor="middle" x="59.5" y="-188" font-family="Helvetica,sans-Serif" font-size="10.00">_variables</text>
</a>
</g>
</g>
<!-- Node2 -->
<g id="node2" class="node">
<title>Node2</title>
<g id="a_node2"><a xlink:href="namespacem__derived__variables.html#a5c6df8a69a463ae2c56fb2c2bb8c59a7" target="_top" xlink:title="This subroutine receives as inputs the indicator of the component of the acceleration that should be ...">
<polygon fill="none" stroke="black" points="166.5,-383 166.5,-424 295.5,-424 295.5,-383 166.5,-383"/>
<text text-anchor="start" x="174.5" y="-412" font-family="Helvetica,sans-Serif" font-size="10.00">m_derived_variables</text>
<text text-anchor="start" x="174.5" y="-401" font-family="Helvetica,sans-Serif" font-size="10.00">::s_derive_acceleration</text>
<text text-anchor="middle" x="231" y="-390" font-family="Helvetica,sans-Serif" font-size="10.00">_component</text>
</a>
</g>
</g>
<!-- Node1&#45;&gt;Node2 -->
<g id="edge1" class="edge">
<title>Node1&#45;&gt;Node2</title>
<path fill="none" stroke="midnightblue" d="M66.71,-222.19C78.4,-257.8 106.9,-330.94 155,-373.5 156.5,-374.82 158.06,-376.09 159.67,-377.31"/>
<polygon fill="midnightblue" stroke="midnightblue" points="157.89,-380.33 168.15,-382.97 161.78,-374.51 157.89,-380.33"/>
</g>
<!-- Node3 -->
<g id="node3" class="node">
<title>Node3</title>
<g id="a_node3"><a xlink:href="namespacem__derived__variables.html#a1a849dc545128f9a6de155bed61035ff" target="_top" xlink:title="This subroutine is used together with the volume fraction model and when called upon,...">
<polygon fill="none" stroke="black" points="158,-235.5 158,-265.5 304,-265.5 304,-235.5 158,-235.5"/>
<text text-anchor="start" x="166" y="-253.5" font-family="Helvetica,sans-Serif" font-size="10.00">m_derived_variables</text>
<text text-anchor="middle" x="231" y="-242.5" font-family="Helvetica,sans-Serif" font-size="10.00">::s_derive_center_of_mass</text>
</a>
</g>
</g>
<!-- Node1&#45;&gt;Node3 -->
<g id="edge2" class="edge">
<title>Node1&#45;&gt;Node3</title>
<path fill="none" stroke="midnightblue" d="M119.31,-218.5C135.14,-223.08 152.32,-228.04 168.31,-232.67"/>
<polygon fill="midnightblue" stroke="midnightblue" points="167.51,-236.08 178.09,-235.49 169.45,-229.35 167.51,-236.08"/>
</g>
<!-- Node7 -->
<g id="node7" class="node">
<title>Node7</title>
<g id="a_node7"><a xlink:href="namespacem__derived__variables.html#a976bfd341efaba6840dc23d6abc4f29e" target="_top" xlink:title="This subroutine is used together with the volume fraction model and when called upon,...">
<polygon fill="none" stroke="black" points="171.5,-284.5 171.5,-314.5 290.5,-314.5 290.5,-284.5 171.5,-284.5"/>
<text text-anchor="start" x="179.5" y="-302.5" font-family="Helvetica,sans-Serif" font-size="10.00">m_derived_variables</text>
<text text-anchor="middle" x="231" y="-291.5" font-family="Helvetica,sans-Serif" font-size="10.00">::s_derive_centerline</text>
</a>
</g>
</g>
<!-- Node1&#45;&gt;Node7 -->
<g id="edge6" class="edge">
<title>Node1&#45;&gt;Node7</title>
<path fill="none" stroke="midnightblue" d="M82.21,-222.19C100.42,-238.59 127.75,-261.07 155,-275.5 158.44,-277.32 162.03,-279.03 165.72,-280.64"/>
<polygon fill="midnightblue" stroke="midnightblue" points="164.41,-283.88 174.99,-284.41 167.05,-277.4 164.41,-283.88"/>
</g>
<!-- Node8 -->
<g id="node8" class="node">
<title>Node8</title>
<g id="a_node8"><a xlink:href="namespacem__derived__variables.html#a2472e46739cdedf315aefa209a08f211" target="_top" xlink:title="This subroutine is used together with the volume fraction model and when called upon,...">
<polygon fill="none" stroke="black" points="353,-9.5 353,-39.5 494,-39.5 494,-9.5 353,-9.5"/>
<text text-anchor="start" x="361" y="-27.5" font-family="Helvetica,sans-Serif" font-size="10.00">m_derived_variables</text>
<text text-anchor="middle" x="423.5" y="-16.5" font-family="Helvetica,sans-Serif" font-size="10.00">::s_derive_coherent_body</text>
</a>
</g>
</g>
<!-- Node1&#45;&gt;Node8 -->
<g id="edge9" class="edge">
<title>Node1&#45;&gt;Node8</title>
<path fill="none" stroke="midnightblue" d="M82.07,-180.72C100.19,-164.33 127.47,-142.05 155,-128.5 217.67,-97.64 247.36,-124.87 307,-88.5 327.42,-76.05 322.81,-61.32 343,-48.5 345.59,-46.85 348.31,-45.31 351.1,-43.88"/>
<polygon fill="midnightblue" stroke="midnightblue" points="352.66,-47.01 360.26,-39.62 349.71,-40.66 352.66,-47.01"/>
</g>
<!-- Node9 -->
<g id="node9" class="node">
<title>Node9</title>
<g id="a_node9"><a xlink:href="namespacem__derived__variables.html#abdf1859a7ad678848feb69bbe89a2f95" target="_top" xlink:title="This subroutine is used together with the volume fraction model and when called upon,...">
<polygon fill="none" stroke="black" points="165.5,-333.5 165.5,-363.5 296.5,-363.5 296.5,-333.5 165.5,-333.5"/>
<text text-anchor="start" x="173.5" y="-351.5" font-family="Helvetica,sans-Serif" font-size="10.00">m_derived_variables</text>
<text text-anchor="middle" x="231" y="-340.5" font-family="Helvetica,sans-Serif" font-size="10.00">::s_derive_fluid_bounds</text>
</a>
</g>
</g>
<!-- Node1&#45;&gt;Node9 -->
<g id="edge11" class="edge">
<title>Node1&#45;&gt;Node9</title>
<path fill="none" stroke="midnightblue" d="M71.06,-222.04C86.1,-249.33 116.23,-297.24 155,-324.5 157.1,-325.98 159.3,-327.37 161.57,-328.68"/>
<polygon fill="midnightblue" stroke="midnightblue" points="160.13,-331.87 170.63,-333.32 163.33,-325.64 160.13,-331.87"/>
</g>
<!-- Node10 -->
<g id="node10" class="node">
<title>Node10</title>
<g id="a_node10"><a xlink:href="namespacem__derived__variables.html#ab28af564606ca901d3953e6012e9a452" target="_top" xlink:title="Subroutine to compute the higher moments in an attempt to find the maximal size of the droplet.">
<polygon fill="none" stroke="black" points="155,-137.5 155,-167.5 307,-167.5 307,-137.5 155,-137.5"/>
<text text-anchor="start" x="163" y="-155.5" font-family="Helvetica,sans-Serif" font-size="10.00">m_derived_variables</text>
<text text-anchor="middle" x="231" y="-144.5" font-family="Helvetica,sans-Serif" font-size="10.00">::s_derive_higher_moments</text>
</a>
</g>
</g>
<!-- Node1&#45;&gt;Node10 -->
<g id="edge14" class="edge">
<title>Node1&#45;&gt;Node10</title>
<path fill="none" stroke="midnightblue" d="M119.31,-184.5C135.14,-179.92 152.32,-174.96 168.31,-170.33"/>
<polygon fill="midnightblue" stroke="midnightblue" points="169.45,-173.65 178.09,-167.51 167.51,-166.92 169.45,-173.65"/>
</g>
<!-- Node14 -->
<g id="node14" class="node">
<title>Node14</title>
<g id="a_node14"><a xlink:href="namespacem__data__output.html#a40724c992117a24479573d9fbcdfa21b" target="_top" xlink:title="The goal of this subroutine is to output coherent body information.">
<polygon fill="none" stroke="black" points="165.5,-49.5 165.5,-79.5 296.5,-79.5 296.5,-49.5 165.5,-49.5"/>
<text text-anchor="start" x="173.5" y="-67.5" font-family="Helvetica,sans-Serif" font-size="10.00">m_data_output::s_write</text>
<text text-anchor="middle" x="231" y="-56.5" font-family="Helvetica,sans-Serif" font-size="10.00">_cb_files</text>
</a>
</g>
</g>
<!-- Node1&#45;&gt;Node14 -->
<g id="edge20" class="edge">
<title>Node1&#45;&gt;Node14</title>
<path fill="none" stroke="midnightblue" d="M74.26,-180.76C90.9,-157.07 120.97,-118.49 155,-94.5 160.62,-90.54 166.84,-86.99 173.23,-83.85"/>
<polygon fill="midnightblue" stroke="midnightblue" points="175.01,-86.88 182.65,-79.53 172.1,-80.52 175.01,-86.88"/>
</g>
<!-- Node15 -->
<g id="node15" class="node">
<title>Node15</title>
<g id="a_node15"><a xlink:href="namespacem__data__output.html#a6be3381410dd028014de2c1d02b05139" target="_top" xlink:title="This writes a formatted data file where the root processor can write out the CoM information.">
<polygon fill="none" stroke="black" points="165.5,-0.5 165.5,-30.5 296.5,-30.5 296.5,-0.5 165.5,-0.5"/>
<text text-anchor="start" x="173.5" y="-18.5" font-family="Helvetica,sans-Serif" font-size="10.00">m_data_output::s_write</text>
<text text-anchor="middle" x="231" y="-7.5" font-family="Helvetica,sans-Serif" font-size="10.00">_com_files</text>
</a>
</g>
</g>
<!-- Node1&#45;&gt;Node15 -->
<g id="edge21" class="edge">
<title>Node1&#45;&gt;Node15</title>
<path fill="none" stroke="midnightblue" d="M67.04,-180.84C78.98,-146.48 107.51,-77.61 155,-39.5 156.6,-38.22 158.27,-37 159.99,-35.85"/>
<polygon fill="midnightblue" stroke="midnightblue" points="162.13,-38.66 169.03,-30.62 158.62,-32.6 162.13,-38.66"/>
</g>
<!-- Node16 -->
<g id="node16" class="node">
<title>Node16</title>
<g id="a_node16"><a xlink:href="namespacem__data__output.html#a29f34883bc8e9d895dbb4232493397a1" target="_top" xlink:title="This writes a formatted data file for the flow probe information.">
<polygon fill="none" stroke="black" points="165.5,-186.5 165.5,-216.5 296.5,-216.5 296.5,-186.5 165.5,-186.5"/>
<text text-anchor="start" x="173.5" y="-204.5" font-family="Helvetica,sans-Serif" font-size="10.00">m_data_output::s_write</text>
<text text-anchor="middle" x="231" y="-193.5" font-family="Helvetica,sans-Serif" font-size="10.00">_probe_files</text>
</a>
</g>
</g>
<!-- Node1&#45;&gt;Node16 -->
<g id="edge22" class="edge">
<title>Node1&#45;&gt;Node16</title>
<path fill="none" stroke="midnightblue" d="M119.31,-201.5C130.89,-201.5 143.18,-201.5 155.2,-201.5"/>
<polygon fill="midnightblue" stroke="midnightblue" points="155.22,-205 165.22,-201.5 155.22,-198 155.22,-205"/>
</g>
<!-- Node4 -->
<g id="node4" class="node">
<title>Node4</title>
<g id="a_node4"><a xlink:href="namespacem__mpi__proxy.html#aff7286de058c49b2a5d7a84be1983e8f" target="_top" xlink:title="The following subroutine takes the input local variable from all processors and reduces to the maximu...">
<polygon fill="none" stroke="black" points="364.5,-282.5 364.5,-312.5 482.5,-312.5 482.5,-282.5 364.5,-282.5"/>
<text text-anchor="start" x="372.5" y="-300.5" font-family="Helvetica,sans-Serif" font-size="10.00">m_mpi_proxy::s_mpi</text>
<text text-anchor="middle" x="423.5" y="-289.5" font-family="Helvetica,sans-Serif" font-size="10.00">_allreduce_max</text>
</a>
</g>
</g>
<!-- Node3&#45;&gt;Node4 -->
<g id="edge3" class="edge">
<title>Node3&#45;&gt;Node4</title>
<path fill="none" stroke="midnightblue" d="M292.8,-265.5C312.45,-270.35 334.36,-275.75 354.5,-280.72"/>
<polygon fill="midnightblue" stroke="midnightblue" points="353.68,-284.13 364.23,-283.12 355.36,-277.33 353.68,-284.13"/>
</g>
<!-- Node5 -->
<g id="node5" class="node">
<title>Node5</title>
<g id="a_node5"><a xlink:href="namespacem__mpi__proxy.html#a398a372625502c0430a64e0bb23e2342" target="_top" xlink:title="The following subroutine takes the input local variable from all processors and reduces to the minimu...">
<polygon fill="none" stroke="black" points="364.5,-331.5 364.5,-361.5 482.5,-361.5 482.5,-331.5 364.5,-331.5"/>
<text text-anchor="start" x="372.5" y="-349.5" font-family="Helvetica,sans-Serif" font-size="10.00">m_mpi_proxy::s_mpi</text>
<text text-anchor="middle" x="423.5" y="-338.5" font-family="Helvetica,sans-Serif" font-size="10.00">_allreduce_min</text>
</a>
</g>
</g>
<!-- Node3&#45;&gt;Node5 -->
<g id="edge4" class="edge">
<title>Node3&#45;&gt;Node5</title>
<path fill="none" stroke="midnightblue" d="M289.46,-265.62C295.65,-268.41 301.64,-271.68 307,-275.5 328.42,-290.78 321.36,-307.53 343,-322.5 346.77,-325.11 350.83,-327.44 355.05,-329.52"/>
<polygon fill="midnightblue" stroke="midnightblue" points="353.93,-332.85 364.49,-333.69 356.76,-326.45 353.93,-332.85"/>
</g>
<!-- Node6 -->
<g id="node6" class="node">
<title>Node6</title>
<g id="a_node6"><a xlink:href="namespacem__mpi__proxy.html#a873520062481f3dabcfa77f9bd7728d3" target="_top" xlink:title="The following subroutine takes the input local variable from all processors and reduces to the sum of...">
<polygon fill="none" stroke="black" points="540,-107.5 540,-137.5 658,-137.5 658,-107.5 540,-107.5"/>
<text text-anchor="start" x="548" y="-125.5" font-family="Helvetica,sans-Serif" font-size="10.00">m_mpi_proxy::s_mpi</text>
<text text-anchor="middle" x="599" y="-114.5" font-family="Helvetica,sans-Serif" font-size="10.00">_allreduce_sum</text>
</a>
</g>
</g>
<!-- Node3&#45;&gt;Node6 -->
<g id="edge5" class="edge">
<title>Node3&#45;&gt;Node6</title>
<path fill="none" stroke="midnightblue" d="M304.14,-255.21C361.21,-255.97 441.42,-250.29 504,-219.5 537.77,-202.88 566.14,-168.98 582.61,-145.99"/>
<polygon fill="midnightblue" stroke="midnightblue" points="585.49,-147.98 588.33,-137.77 579.75,-143.98 585.49,-147.98"/>
</g>
<!-- Node7&#45;&gt;Node4 -->
<g id="edge7" class="edge">
<title>Node7&#45;&gt;Node4</title>
<path fill="none" stroke="midnightblue" d="M290.71,-298.88C310.82,-298.67 333.48,-298.43 354.27,-298.22"/>
<polygon fill="midnightblue" stroke="midnightblue" points="354.35,-301.72 364.31,-298.11 354.27,-294.72 354.35,-301.72"/>
</g>
<!-- Node7&#45;&gt;Node5 -->
<g id="edge8" class="edge">
<title>Node7&#45;&gt;Node5</title>
<path fill="none" stroke="midnightblue" d="M290.71,-313.99C310.91,-318.97 333.69,-324.59 354.56,-329.74"/>
<polygon fill="midnightblue" stroke="midnightblue" points="353.76,-333.15 364.31,-332.14 355.44,-326.35 353.76,-333.15"/>
</g>
<!-- Node8&#45;&gt;Node6 -->
<g id="edge10" class="edge">
<title>Node8&#45;&gt;Node6</title>
<path fill="none" stroke="midnightblue" d="M483.67,-39.64C490.68,-42.23 497.61,-45.17 504,-48.5 530.52,-62.31 556.94,-83.99 574.98,-100.32"/>
<polygon fill="midnightblue" stroke="midnightblue" points="572.93,-103.19 582.65,-107.4 577.68,-98.04 572.93,-103.19"/>
</g>
<!-- Node9&#45;&gt;Node4 -->
<g id="edge12" class="edge">
<title>Node9&#45;&gt;Node4</title>
<path fill="none" stroke="midnightblue" d="M288.13,-333.47C309.64,-327.72 334.37,-321.09 356.71,-315.11"/>
<polygon fill="midnightblue" stroke="midnightblue" points="357.69,-318.47 366.45,-312.51 355.88,-311.71 357.69,-318.47"/>
</g>
<!-- Node9&#45;&gt;Node5 -->
<g id="edge13" class="edge">
<title>Node9&#45;&gt;Node5</title>
<path fill="none" stroke="midnightblue" d="M296.76,-347.82C315.24,-347.63 335.42,-347.41 354.11,-347.22"/>
<polygon fill="midnightblue" stroke="midnightblue" points="354.35,-350.72 364.31,-347.11 354.27,-343.72 354.35,-350.72"/>
</g>
<!-- Node11 -->
<g id="node11" class="node">
<title>Node11</title>
<g id="a_node11"><a xlink:href="namespacem__mpi__proxy.html#a04ac565bad2b22dc045a5eeb4f516e2e" target="_top" xlink:title="The subroutine terminates the MPI execution environment.">
<polygon fill="none" stroke="black" points="364.5,-156.5 364.5,-186.5 482.5,-186.5 482.5,-156.5 364.5,-156.5"/>
<text text-anchor="start" x="372.5" y="-174.5" font-family="Helvetica,sans-Serif" font-size="10.00">m_mpi_proxy::s_mpi</text>
<text text-anchor="middle" x="423.5" y="-163.5" font-family="Helvetica,sans-Serif" font-size="10.00">_abort</text>
</a>
</g>
</g>
<!-- Node10&#45;&gt;Node11 -->
<g id="edge15" class="edge">
<title>Node10&#45;&gt;Node11</title>
<path fill="none" stroke="midnightblue" d="M307.02,-159.98C322.5,-161.53 338.73,-163.14 353.96,-164.66"/>
<polygon fill="midnightblue" stroke="midnightblue" points="354.03,-168.19 364.33,-165.7 354.73,-161.22 354.03,-168.19"/>
</g>
<!-- Node12 -->
<g id="node12" class="node">
<title>Node12</title>
<g id="a_node12"><a xlink:href="namespacem__derived__variables.html#a2ee18c156bb444c6ab73d4762960ef67" target="_top" xlink:title="Compute non&#45;symmetric moments.">
<polygon fill="none" stroke="black" points="343,-107.5 343,-137.5 504,-137.5 504,-107.5 343,-107.5"/>
<text text-anchor="start" x="351" y="-125.5" font-family="Helvetica,sans-Serif" font-size="10.00">m_derived_variables</text>
<text text-anchor="middle" x="423.5" y="-114.5" font-family="Helvetica,sans-Serif" font-size="10.00">::s_non_symmetric_moments</text>
</a>
</g>
</g>
<!-- Node10&#45;&gt;Node12 -->
<g id="edge16" class="edge">
<title>Node10&#45;&gt;Node12</title>
<path fill="none" stroke="midnightblue" d="M307.02,-140.69C315.47,-139.35 324.15,-137.99 332.77,-136.63"/>
<polygon fill="midnightblue" stroke="midnightblue" points="333.51,-140.06 342.85,-135.04 332.42,-133.14 333.51,-140.06"/>
</g>
<!-- Node13 -->
<g id="node13" class="node">
<title>Node13</title>
<g id="a_node13"><a xlink:href="namespacem__derived__variables.html#ade52fa354cc5b681c4d6ef6fc8b2c61b" target="_top" xlink:title="Compute symmetric moments.">
<polygon fill="none" stroke="black" points="355,-58.5 355,-88.5 492,-88.5 492,-58.5 355,-58.5"/>
<text text-anchor="start" x="363" y="-76.5" font-family="Helvetica,sans-Serif" font-size="10.00">m_derived_variables</text>
<text text-anchor="middle" x="423.5" y="-65.5" font-family="Helvetica,sans-Serif" font-size="10.00">::s_symmetric_moments</text>
</a>
</g>
</g>
<!-- Node10&#45;&gt;Node13 -->
<g id="edge18" class="edge">
<title>Node10&#45;&gt;Node13</title>
<path fill="none" stroke="midnightblue" d="M274.42,-137.47C285.26,-133.11 296.75,-128.02 307,-122.5 324.15,-113.27 325.46,-105.97 343,-97.5 346.98,-95.58 351.14,-93.77 355.39,-92.08"/>
<polygon fill="midnightblue" stroke="midnightblue" points="356.65,-95.35 364.79,-88.57 354.2,-88.79 356.65,-95.35"/>
</g>
<!-- Node12&#45;&gt;Node6 -->
<g id="edge17" class="edge">
<title>Node12&#45;&gt;Node6</title>
<path fill="none" stroke="midnightblue" d="M504.14,-122.5C512.69,-122.5 521.33,-122.5 529.73,-122.5"/>
<polygon fill="midnightblue" stroke="midnightblue" points="529.84,-126 539.84,-122.5 529.84,-119 529.84,-126"/>
</g>
<!-- Node13&#45;&gt;Node6 -->
<g id="edge19" class="edge">
<title>Node13&#45;&gt;Node6</title>
<path fill="none" stroke="midnightblue" d="M477.97,-88.6C496.03,-93.7 516.36,-99.44 535.08,-104.73"/>
<polygon fill="midnightblue" stroke="midnightblue" points="534.13,-108.1 544.71,-107.45 536.03,-101.36 534.13,-108.1"/>
</g>
<!-- Node16&#45;&gt;Node4 -->
<g id="edge24" class="edge">
<title>Node16&#45;&gt;Node4</title>
<path fill="none" stroke="midnightblue" d="M282.65,-216.61C290.91,-219.58 299.29,-222.9 307,-226.5 337.51,-240.73 369.98,-261.22 392.69,-276.53"/>
<polygon fill="midnightblue" stroke="midnightblue" points="390.96,-279.59 401.2,-282.33 394.91,-273.81 390.96,-279.59"/>
</g>
<!-- Node16&#45;&gt;Node6 -->
<g id="edge25" class="edge">
<title>Node16&#45;&gt;Node6</title>
<path fill="none" stroke="midnightblue" d="M296.72,-211.64C353.17,-217.86 436.38,-220.62 504,-196.5 533.01,-186.15 559.95,-162.96 577.49,-145.28"/>
<polygon fill="midnightblue" stroke="midnightblue" points="580.45,-147.25 584.86,-137.61 575.4,-142.4 580.45,-147.25"/>
</g>
<!-- Node16&#45;&gt;Node11 -->
<g id="edge23" class="edge">
<title>Node16&#45;&gt;Node11</title>
<path fill="none" stroke="midnightblue" d="M296.76,-191.3C315.32,-188.38 335.61,-185.18 354.37,-182.23"/>
<polygon fill="midnightblue" stroke="midnightblue" points="354.98,-185.68 364.31,-180.66 353.89,-178.76 354.98,-185.68"/>
</g>
</g>
</svg>
