<?xml version="1.0" encoding="UTF-8" standalone="no"?>
<!DOCTYPE svg PUBLIC "-//W3C//DTD SVG 1.1//EN"
 "http://www.w3.org/Graphics/SVG/1.1/DTD/svg11.dtd">
<!-- Generated by graphviz version 2.43.0 (0)
 -->
<!-- Title: m_weno::s_initialize_weno Pages: 1 -->
<!--zoomable 134 -->
<svg id="main" version="1.1" xmlns="http://www.w3.org/2000/svg" xmlns:xlink="http://www.w3.org/1999/xlink" xml:space="preserve" onload="init(evt)">
<style type="text/css"><![CDATA[
.edge:hover path { stroke: red; }
.edge:hover polygon { stroke: red; fill: red; }
]]></style>
<script type="text/javascript"><![CDATA[
var edges = document.getElementsByTagName('g');
if (edges && edges.length) {
  for (var i=0;i<edges.length;i++) {
    if (edges[i].id.substr(0,4)=='edge') {
      edges[i].setAttribute('class','edge');
    }
  }
}
]]></script>
        <defs>
                <circle id="rim" cx="0" cy="0" r="7"/>
                <circle id="rim2" cx="0" cy="0" r="3.5"/>
                <g id="zoomPlus">
                        <use xlink:href="#rim" fill="#404040">
                                <set attributeName="fill" to="#808080" begin="zoomplus.mouseover" end="zoomplus.mouseout"/>
                        </use>
                        <path d="M-4,0h8M0,-4v8" fill="none" stroke="white" stroke-width="1.5" pointer-events="none"/>
                </g>
                <g id="zoomMin">
                        <use xlink:href="#rim" fill="#404040">
                                <set attributeName="fill" to="#808080" begin="zoomminus.mouseover" end="zoomminus.mouseout"/>
                        </use>
                        <path d="M-4,0h8" fill="none" stroke="white" stroke-width="1.5" pointer-events="none"/>
                </g>
                <g id="dirArrow">
                        <path fill="none" stroke="white" stroke-width="1.5" d="M0,-3.0v7 M-2.5,-0.5L0,-3.0L2.5,-0.5"/>
                </g>
               <g id="resetDef">
                       <use xlink:href="#rim2" fill="#404040">
                               <set attributeName="fill" to="#808080" begin="reset.mouseover" end="reset.mouseout"/>
                       </use>
               </g>
        </defs>

<script type="text/javascript">
var viewWidth = 1090;
var viewHeight = 134;
var sectionId = 'dynsection-2';
</script>
<script xlink:href="svgpan.js"/>
<svg id="graph" class="graph">
<g id="viewport">
<title>m_weno::s_initialize_weno</title>
<!-- Node1 -->
<g id="node1" class="node">
<title>Node1</title>
<g id="a_node1"><a xlink:title="The computation of parameters, the allocation of memory, the association of pointers and/or the execu...">
<polygon fill="#999999" stroke="#666666" points="1082,-72.5 934,-72.5 934,-53.5 1082,-53.5 1082,-72.5"/>
<text text-anchor="middle" x="1008" y="-60.5" font-family="Helvetica,sans-Serif" font-size="10.00">m_weno::s_initialize_weno</text>
</a>
</g>
</g>
<!-- Node2 -->
<g id="node2" class="node">
<title>Node2</title>
<g id="a_node2"><a xlink:href="namespacem__weno.html#abf60919ebaaf298c15e8a3a1167610e0" target="_top" xlink:title=" ">
<polygon fill="white" stroke="#666666" points="898,-72.5 797,-72.5 797,-53.5 898,-53.5 898,-72.5"/>
<text text-anchor="middle" x="847.5" y="-60.5" font-family="Helvetica,sans-Serif" font-size="10.00">m_weno::s_weno</text>
</a>
</g>
</g>
<!-- Node1&#45;&gt;Node2 -->
<g id="edge1" class="edge">
<title>Node1&#45;&gt;Node2</title>
<path fill="none" stroke="#63b8ff" d="M923.63,-63C914.99,-63 906.42,-63 898.32,-63"/>
<polygon fill="#63b8ff" stroke="#63b8ff" points="923.78,-66.5 933.78,-63 923.78,-59.5 923.78,-66.5"/>
</g>
<!-- Node3 -->
<g id="node3" class="node">
<title>Node3</title>
<g id="a_node3"><a xlink:href="namespacem__rhs.html#a48c0b3313ccec916c5cb2652f8cad5b0" target="_top" xlink:title="The purpose of this subroutine is to WENO&#45;reconstruct the left and the right cell&#45;boundary values,...">
<polygon fill="white" stroke="#666666" points="535.5,-121 407.5,-121 407.5,-91 535.5,-91 535.5,-121"/>
<text text-anchor="start" x="415.5" y="-109" font-family="Helvetica,sans-Serif" font-size="10.00">m_rhs::s_reconstruct</text>
<text text-anchor="middle" x="471.5" y="-98" font-family="Helvetica,sans-Serif" font-size="10.00">_cell_boundary_values</text>
</a>
</g>
</g>
<!-- Node2&#45;&gt;Node3 -->
<g id="edge2" class="edge">
<title>Node2&#45;&gt;Node3</title>
<path fill="none" stroke="#63b8ff" d="M808.58,-75.47C793.88,-79.82 776.8,-84.29 761,-87 684.19,-100.16 594.44,-104.35 535.69,-105.6"/>
<polygon fill="#63b8ff" stroke="#63b8ff" points="809.79,-78.76 818.34,-72.5 807.75,-72.07 809.79,-78.76"/>
</g>
<!-- Node9 -->
<g id="node9" class="node">
<title>Node9</title>
<g id="a_node9"><a xlink:href="namespacem__viscous.html#a057da8ef357307243a56ea3f94fbb907" target="_top" xlink:title=" ">
<polygon fill="white" stroke="#666666" points="746,-78 594,-78 594,-48 746,-48 746,-78"/>
<text text-anchor="start" x="602" y="-66" font-family="Helvetica,sans-Serif" font-size="10.00">m_viscous::s_reconstruct</text>
<text text-anchor="middle" x="670" y="-55" font-family="Helvetica,sans-Serif" font-size="10.00">_cell_boundary_values_visc</text>
</a>
</g>
</g>
<!-- Node2&#45;&gt;Node9 -->
<g id="edge10" class="edge">
<title>Node2&#45;&gt;Node9</title>
<path fill="none" stroke="#63b8ff" d="M786.5,-63C773.53,-63 759.66,-63 746.19,-63"/>
<polygon fill="#63b8ff" stroke="#63b8ff" points="786.68,-66.5 796.68,-63 786.68,-59.5 786.68,-66.5"/>
</g>
<!-- Node11 -->
<g id="node11" class="node">
<title>Node11</title>
<g id="a_node11"><a xlink:href="namespacem__viscous.html#a35048d96fa6ee17f1b9ffc11252ef2b5" target="_top" xlink:title=" ">
<polygon fill="white" stroke="#666666" points="761,-30 579,-30 579,0 761,0 761,-30"/>
<text text-anchor="start" x="587" y="-18" font-family="Helvetica,sans-Serif" font-size="10.00">m_viscous::s_reconstruct</text>
<text text-anchor="middle" x="670" y="-7" font-family="Helvetica,sans-Serif" font-size="10.00">_cell_boundary_values_visc_deriv</text>
</a>
</g>
</g>
<!-- Node2&#45;&gt;Node11 -->
<g id="edge13" class="edge">
<title>Node2&#45;&gt;Node11</title>
<path fill="none" stroke="#63b8ff" d="M802.88,-50.64C789.45,-46.86 774.63,-42.73 761,-39 750.39,-36.1 739.07,-33.04 728.16,-30.12"/>
<polygon fill="#63b8ff" stroke="#63b8ff" points="802.25,-54.1 812.82,-53.44 804.15,-47.36 802.25,-54.1"/>
</g>
<!-- Node4 -->
<g id="node4" class="node">
<title>Node4</title>
<g id="a_node4"><a xlink:href="namespacem__rhs.html#a361f0038973069452cc88430c49bcfe8" target="_top" xlink:title=" ">
<polygon fill="white" stroke="#666666" points="364,-72.5 238,-72.5 238,-53.5 364,-53.5 364,-72.5"/>
<text text-anchor="middle" x="301" y="-60.5" font-family="Helvetica,sans-Serif" font-size="10.00">m_rhs::s_compute_rhs</text>
</a>
</g>
</g>
<!-- Node3&#45;&gt;Node4 -->
<g id="edge3" class="edge">
<title>Node3&#45;&gt;Node4</title>
<path fill="none" stroke="#63b8ff" d="M401.86,-88.48C380.48,-83.03 357.7,-77.22 339.31,-72.52"/>
<polygon fill="#63b8ff" stroke="#63b8ff" points="401.01,-91.88 411.57,-90.96 402.74,-85.1 401.01,-91.88"/>
</g>
<!-- Node5 -->
<g id="node5" class="node">
<title>Node5</title>
<g id="a_node5"><a xlink:href="namespacem__time__steppers.html#a8876606e6152b6c8f35272074a088142" target="_top" xlink:title="1st order TVD RK time&#45;stepping algorithm">
<polygon fill="white" stroke="#666666" points="202,-126 89,-126 89,-96 202,-96 202,-126"/>
<text text-anchor="start" x="97" y="-114" font-family="Helvetica,sans-Serif" font-size="10.00">m_time_steppers::s</text>
<text text-anchor="middle" x="145.5" y="-103" font-family="Helvetica,sans-Serif" font-size="10.00">_1st_order_tvd_rk</text>
</a>
</g>
</g>
<!-- Node4&#45;&gt;Node5 -->
<g id="edge4" class="edge">
<title>Node4&#45;&gt;Node5</title>
<path fill="none" stroke="#63b8ff" d="M259.61,-75.63C239.7,-81.86 215.54,-89.41 194.67,-95.94"/>
<polygon fill="#63b8ff" stroke="#63b8ff" points="260.81,-78.92 269.31,-72.6 258.72,-72.24 260.81,-78.92"/>
</g>
<!-- Node7 -->
<g id="node7" class="node">
<title>Node7</title>
<g id="a_node7"><a xlink:href="namespacem__time__steppers.html#adb82b6c6041c825d0999e6890ed825cc" target="_top" xlink:title="2nd order TVD RK time&#45;stepping algorithm">
<polygon fill="white" stroke="#666666" points="202,-78 89,-78 89,-48 202,-48 202,-78"/>
<text text-anchor="start" x="97" y="-66" font-family="Helvetica,sans-Serif" font-size="10.00">m_time_steppers::s</text>
<text text-anchor="middle" x="145.5" y="-55" font-family="Helvetica,sans-Serif" font-size="10.00">_2nd_order_tvd_rk</text>
</a>
</g>
</g>
<!-- Node4&#45;&gt;Node7 -->
<g id="edge6" class="edge">
<title>Node4&#45;&gt;Node7</title>
<path fill="none" stroke="#63b8ff" d="M227.4,-63C219.02,-63 210.57,-63 202.46,-63"/>
<polygon fill="#63b8ff" stroke="#63b8ff" points="227.57,-66.5 237.57,-63 227.57,-59.5 227.57,-66.5"/>
</g>
<!-- Node8 -->
<g id="node8" class="node">
<title>Node8</title>
<g id="a_node8"><a xlink:href="namespacem__time__steppers.html#ae08efa7df1f8efae0f726dd5114176a8" target="_top" xlink:title="3rd order TVD RK time&#45;stepping algorithm">
<polygon fill="white" stroke="#666666" points="202,-30 89,-30 89,0 202,0 202,-30"/>
<text text-anchor="start" x="97" y="-18" font-family="Helvetica,sans-Serif" font-size="10.00">m_time_steppers::s</text>
<text text-anchor="middle" x="145.5" y="-7" font-family="Helvetica,sans-Serif" font-size="10.00">_3rd_order_tvd_rk</text>
</a>
</g>
</g>
<!-- Node4&#45;&gt;Node8 -->
<g id="edge8" class="edge">
<title>Node4&#45;&gt;Node8</title>
<path fill="none" stroke="#63b8ff" d="M259.61,-50.37C239.7,-44.14 215.54,-36.59 194.67,-30.06"/>
<polygon fill="#63b8ff" stroke="#63b8ff" points="258.72,-53.76 269.31,-53.4 260.81,-47.08 258.72,-53.76"/>
</g>
<!-- Node6 -->
<g id="node6" class="node">
<title>Node6</title>
<g id="a_node6"><a xlink:href="p__main_8fpp_8f90.html#aeec10ee8e2940c953967da3e374e1579" target="_top" xlink:title="Quasi&#45;conservative, shock&#45; and interface&#45; capturing finite&#45;volume scheme for the multicomponent Navie...">
<polygon fill="white" stroke="#666666" points="53,-72.5 0,-72.5 0,-53.5 53,-53.5 53,-72.5"/>
<text text-anchor="middle" x="26.5" y="-60.5" font-family="Helvetica,sans-Serif" font-size="10.00">p_main</text>
</a>
</g>
</g>
<!-- Node5&#45;&gt;Node6 -->
<g id="edge5" class="edge">
<title>Node5&#45;&gt;Node6</title>
<path fill="none" stroke="#63b8ff" d="M98.39,-92.08C82.08,-85.39 64.43,-78.15 50.81,-72.56"/>
<polygon fill="#63b8ff" stroke="#63b8ff" points="97.22,-95.39 107.8,-95.94 99.88,-88.91 97.22,-95.39"/>
</g>
<!-- Node7&#45;&gt;Node6 -->
<g id="edge7" class="edge">
<title>Node7&#45;&gt;Node6</title>
<path fill="none" stroke="#63b8ff" d="M78.51,-63C69.51,-63 60.74,-63 53.09,-63"/>
<polygon fill="#63b8ff" stroke="#63b8ff" points="78.74,-66.5 88.74,-63 78.74,-59.5 78.74,-66.5"/>
</g>
<!-- Node8&#45;&gt;Node6 -->
<g id="edge9" class="edge">
<title>Node8&#45;&gt;Node6</title>
<path fill="none" stroke="#63b8ff" d="M98.39,-33.92C82.08,-40.61 64.43,-47.85 50.81,-53.44"/>
<polygon fill="#63b8ff" stroke="#63b8ff" points="99.88,-37.09 107.8,-30.06 97.22,-30.61 99.88,-37.09"/>
</g>
<!-- Node10 -->
<g id="node10" class="node">
<title>Node10</title>
<g id="a_node10"><a xlink:href="namespacem__viscous.html#a0b6f51a421b47b8b28de584ec6d2cd49" target="_top" xlink:title="Computes viscous terms.">
<polygon fill="white" stroke="#666666" points="543,-72.5 400,-72.5 400,-53.5 543,-53.5 543,-72.5"/>
<text text-anchor="middle" x="471.5" y="-60.5" font-family="Helvetica,sans-Serif" font-size="10.00">m_viscous::s_get_viscous</text>
</a>
</g>
</g>
<!-- Node9&#45;&gt;Node10 -->
<g id="edge11" class="edge">
<title>Node9&#45;&gt;Node10</title>
<path fill="none" stroke="#63b8ff" d="M583.6,-63C570.07,-63 556.21,-63 543.06,-63"/>
<polygon fill="#63b8ff" stroke="#63b8ff" points="583.87,-66.5 593.87,-63 583.87,-59.5 583.87,-66.5"/>
</g>
<!-- Node10&#45;&gt;Node4 -->
<g id="edge12" class="edge">
<title>Node10&#45;&gt;Node4</title>
<path fill="none" stroke="#63b8ff" d="M389.52,-63C380.97,-63 372.36,-63 364.07,-63"/>
<polygon fill="#63b8ff" stroke="#63b8ff" points="389.53,-66.5 399.53,-63 389.53,-59.5 389.53,-66.5"/>
</g>
<!-- Node11&#45;&gt;Node4 -->
<g id="edge14" class="edge">
<title>Node11&#45;&gt;Node4</title>
<path fill="none" stroke="#63b8ff" d="M568.8,-23.78C518.08,-28.74 455.63,-35.62 400,-44 382.69,-46.61 363.79,-50.11 347.24,-53.4"/>
<polygon fill="#63b8ff" stroke="#63b8ff" points="569.17,-27.26 578.78,-22.82 568.49,-20.29 569.17,-27.26"/>
</g>
</g>
</svg>
        <g id="navigator" transform="translate(0 0)" fill="#404254">
                <rect fill="#f2f5e9" fill-opacity="0.5" stroke="#606060" stroke-width=".5" x="0" y="0" width="60" height="60"/>
                <use id="zoomplus" xlink:href="#zoomPlus" x="17" y="9" onmousedown="handleZoom(evt,'in')"/>
                <use id="zoomminus" xlink:href="#zoomMin" x="42" y="9" onmousedown="handleZoom(evt,'out')"/>
                <use id="reset" xlink:href="#resetDef" x="30" y="36" onmousedown="handleReset()"/>
                <g id="arrowUp" xlink:href="#dirArrow" transform="translate(30 24)" onmousedown="handlePan(0,-1)">
                  <use xlink:href="#rim" fill="#404040">
                        <set attributeName="fill" to="#808080" begin="arrowUp.mouseover" end="arrowUp.mouseout"/>
                  </use>
                  <path fill="none" stroke="white" stroke-width="1.5" d="M0,-3.0v7 M-2.5,-0.5L0,-3.0L2.5,-0.5"/>
                </g>
                <g id="arrowRight" xlink:href="#dirArrow" transform="rotate(90) translate(36 -43)" onmousedown="handlePan(1,0)">
                  <use xlink:href="#rim" fill="#404040">
                        <set attributeName="fill" to="#808080" begin="arrowRight.mouseover" end="arrowRight.mouseout"/>
                  </use>
                  <path fill="none" stroke="white" stroke-width="1.5" d="M0,-3.0v7 M-2.5,-0.5L0,-3.0L2.5,-0.5"/>
                </g>
                <g id="arrowDown" xlink:href="#dirArrow" transform="rotate(180) translate(-30 -48)" onmousedown="handlePan(0,1)">
                  <use xlink:href="#rim" fill="#404040">
                        <set attributeName="fill" to="#808080" begin="arrowDown.mouseover" end="arrowDown.mouseout"/>
                  </use>
                  <path fill="none" stroke="white" stroke-width="1.5" d="M0,-3.0v7 M-2.5,-0.5L0,-3.0L2.5,-0.5"/>
                </g>
                <g id="arrowLeft" xlink:href="#dirArrow" transform="rotate(270) translate(-36 17)" onmousedown="handlePan(-1,0)">
                  <use xlink:href="#rim" fill="#404040">
                        <set attributeName="fill" to="#808080" begin="arrowLeft.mouseover" end="arrowLeft.mouseout"/>
                  </use>
                  <path fill="none" stroke="white" stroke-width="1.5" d="M0,-3.0v7 M-2.5,-0.5L0,-3.0L2.5,-0.5"/>
                </g>
        </g>
        <svg viewBox="0 0 15 15" width="100%" height="30px" preserveAspectRatio="xMaxYMin meet">
         <g id="arrow_out" transform="scale(0.3 0.3)">
          <a xlink:href="namespacem__weno_ac5c7a0754b0624a47b0152c759ee1789_icgraph_org.svg" target="_base">
           <rect id="button" ry="5" rx="5" y="6" x="6" height="38" width="38"
                fill="#f2f5e9" fill-opacity="0.5" stroke="#606060" stroke-width="1.0"/>
           <path id="arrow"
             d="M 11.500037,31.436501 C 11.940474,20.09759 22.043105,11.32322 32.158766,21.979434 L 37.068811,17.246167 C 37.068811,17.246167 37.088388,32 37.088388,32 L 22.160133,31.978069 C 22.160133,31.978069 26.997745,27.140456 26.997745,27.140456 C 18.528582,18.264221 13.291696,25.230495 11.500037,31.436501 z"
             style="fill:#404040;"/>
          </a>
         </g>
        </svg>
</svg>
