<?xml version="1.0" encoding="UTF-8" standalone="no"?>
<!DOCTYPE svg PUBLIC "-//W3C//DTD SVG 1.1//EN"
 "http://www.w3.org/Graphics/SVG/1.1/DTD/svg11.dtd">
<!-- Generated by graphviz version 2.43.0 (0)
 -->
<!-- Title: m_start_up::s_read_parallel_data_files Pages: 1 -->
<svg width="296pt" height="137pt"
 viewBox="0.00 0.00 296.00 137.00" xmlns="http://www.w3.org/2000/svg" xmlns:xlink="http://www.w3.org/1999/xlink">
<g id="graph0" class="graph" transform="scale(1 1) rotate(0) translate(4 133)">
<title>m_start_up::s_read_parallel_data_files</title>
<!-- Node1 -->
<g id="node1" class="node">
<title>Node1</title>
<g id="a_node1"><a xlink:title=" ">
<polygon fill="#bfbfbf" stroke="black" points="0,-49.5 0,-79.5 111,-79.5 111,-49.5 0,-49.5"/>
<text text-anchor="start" x="8" y="-67.5" font-family="Helvetica,sans-Serif" font-size="10.00">m_start_up::s_read</text>
<text text-anchor="middle" x="55.5" y="-56.5" font-family="Helvetica,sans-Serif" font-size="10.00">_parallel_data_files</text>
</a>
</g>
</g>
<!-- Node2 -->
<g id="node2" class="node">
<title>Node2</title>
<g id="a_node2"><a xlink:href="namespacem__mpi__proxy.html#a2ff35ede51e90c483969e44c31303415" target="_top" xlink:title="The subroutine that initializes MPI data structures.">
<polygon fill="none" stroke="black" points="147,-98.5 147,-128.5 288,-128.5 288,-98.5 147,-98.5"/>
<text text-anchor="start" x="155" y="-116.5" font-family="Helvetica,sans-Serif" font-size="10.00">m_mpi_proxy::s_initialize</text>
<text text-anchor="middle" x="217.5" y="-105.5" font-family="Helvetica,sans-Serif" font-size="10.00">_mpi_data</text>
</a>
</g>
</g>
<!-- Node1&#45;&gt;Node2 -->
<g id="edge1" class="edge">
<title>Node1&#45;&gt;Node2</title>
<path fill="none" stroke="midnightblue" d="M105.81,-79.6C122.16,-84.61 140.52,-90.23 157.53,-95.44"/>
<polygon fill="midnightblue" stroke="midnightblue" points="156.77,-98.87 167.35,-98.45 158.82,-92.17 156.77,-98.87"/>
</g>
<!-- Node3 -->
<g id="node3" class="node">
<title>Node3</title>
<g id="a_node3"><a xlink:href="namespacem__mpi__proxy.html#a04ac565bad2b22dc045a5eeb4f516e2e" target="_top" xlink:title="The subroutine terminates the MPI execution environment.">
<polygon fill="none" stroke="black" points="158.5,-49.5 158.5,-79.5 276.5,-79.5 276.5,-49.5 158.5,-49.5"/>
<text text-anchor="start" x="166.5" y="-67.5" font-family="Helvetica,sans-Serif" font-size="10.00">m_mpi_proxy::s_mpi</text>
<text text-anchor="middle" x="217.5" y="-56.5" font-family="Helvetica,sans-Serif" font-size="10.00">_abort</text>
</a>
</g>
</g>
<!-- Node1&#45;&gt;Node3 -->
<g id="edge2" class="edge">
<title>Node1&#45;&gt;Node3</title>
<path fill="none" stroke="midnightblue" d="M111.12,-64.5C123,-64.5 135.71,-64.5 148.05,-64.5"/>
<polygon fill="midnightblue" stroke="midnightblue" points="148.3,-68 158.3,-64.5 148.3,-61 148.3,-68"/>
</g>
<!-- Node4 -->
<g id="node4" class="node">
<title>Node4</title>
<g id="a_node4"><a xlink:href="namespacem__mpi__proxy.html#abfbc42cea69273bc9fa4a2d78f636eb1" target="_top" xlink:title="Halts all processes until all have reached barrier.">
<polygon fill="none" stroke="black" points="158.5,-0.5 158.5,-30.5 276.5,-30.5 276.5,-0.5 158.5,-0.5"/>
<text text-anchor="start" x="166.5" y="-18.5" font-family="Helvetica,sans-Serif" font-size="10.00">m_mpi_proxy::s_mpi</text>
<text text-anchor="middle" x="217.5" y="-7.5" font-family="Helvetica,sans-Serif" font-size="10.00">_barrier</text>
</a>
</g>
</g>
<!-- Node1&#45;&gt;Node4 -->
<g id="edge3" class="edge">
<title>Node1&#45;&gt;Node4</title>
<path fill="none" stroke="midnightblue" d="M105.81,-49.4C122.16,-44.39 140.52,-38.77 157.53,-33.56"/>
<polygon fill="midnightblue" stroke="midnightblue" points="158.82,-36.83 167.35,-30.55 156.77,-30.13 158.82,-36.83"/>
</g>
</g>
</svg>
