<?xml version="1.0" encoding="UTF-8" standalone="no"?>
<!DOCTYPE svg PUBLIC "-//W3C//DTD SVG 1.1//EN"
 "http://www.w3.org/Graphics/SVG/1.1/DTD/svg11.dtd">
<!-- Generated by graphviz version 2.43.0 (0)
 -->
<!-- Title: m_viscous::s_reconstruct_cell_boundary_values_visc Pages: 1 -->
<svg width="481pt" height="76pt"
 viewBox="0.00 0.00 481.00 75.50" xmlns="http://www.w3.org/2000/svg" xmlns:xlink="http://www.w3.org/1999/xlink">
<g id="graph0" class="graph" transform="scale(1 1) rotate(0) translate(4 71.5)">
<title>m_viscous::s_reconstruct_cell_boundary_values_visc</title>
<!-- Node1 -->
<g id="Node000001" class="node">
<title>Node1</title>
<g id="a_Node000001"><a xlink:title=" ">
<polygon fill="#999999" stroke="#666666" points="152,-51 0,-51 0,-21 152,-21 152,-51"/>
<text text-anchor="start" x="8" y="-39" font-family="Helvetica,sans-Serif" font-size="10.00">m_viscous::s_reconstruct</text>
<text text-anchor="middle" x="76" y="-28" font-family="Helvetica,sans-Serif" font-size="10.00">_cell_boundary_values_visc</text>
</a>
</g>
</g>
<!-- Node2 -->
<g id="Node000002" class="node">
<title>Node2</title>
<g id="a_Node000002"><a xlink:href="namespacem__weno.html#abf60919ebaaf298c15e8a3a1167610e0" target="_top" xlink:title=" ">
<polygon fill="white" stroke="#666666" points="289,-45.5 188,-45.5 188,-26.5 289,-26.5 289,-45.5"/>
<text text-anchor="middle" x="238.5" y="-33.5" font-family="Helvetica,sans-Serif" font-size="10.00">m_weno::s_weno</text>
</a>
</g>
</g>
<!-- Node1&#45;&gt;Node2 -->
<g id="edge1_Node000001_Node000002" class="edge">
<title>Node1&#45;&gt;Node2</title>
<g id="a_edge1_Node000001_Node000002"><a xlink:title=" ">
<path fill="none" stroke="#63b8ff" d="M152.08,-36C160.57,-36 169.14,-36 177.4,-36"/>
<polygon fill="#63b8ff" stroke="#63b8ff" points="177.68,-39.5 187.68,-36 177.68,-32.5 177.68,-39.5"/>
</a>
</g>
</g>
<!-- Node3 -->
<g id="Node000003" class="node">
<title>Node3</title>
<g id="a_Node000003"><a xlink:href="namespacem__weno.html#ac5c7a0754b0624a47b0152c759ee1789" target="_top" xlink:title="The computation of parameters, the allocation of memory, the association of pointers and/or the execu...">
<polygon fill="white" stroke="#666666" points="473,-67.5 325,-67.5 325,-48.5 473,-48.5 473,-67.5"/>
<text text-anchor="middle" x="399" y="-55.5" font-family="Helvetica,sans-Serif" font-size="10.00">m_weno::s_initialize_weno</text>
</a>
</g>
</g>
<!-- Node2&#45;&gt;Node3 -->
<g id="edge2_Node000002_Node000003" class="edge">
<title>Node2&#45;&gt;Node3</title>
<g id="a_edge2_Node000002_Node000003"><a xlink:title=" ">
<path fill="none" stroke="#63b8ff" d="M289.22,-42.9C298.75,-44.22 308.95,-45.64 319.14,-47.05"/>
<polygon fill="#63b8ff" stroke="#63b8ff" points="318.91,-50.56 329.3,-48.46 319.87,-43.62 318.91,-50.56"/>
</a>
</g>
</g>
<!-- Node4 -->
<g id="Node000004" class="node">
<title>Node4</title>
<g id="a_Node000004"><a xlink:href="namespacem__weno.html#a8c518e5d3cd83824f2d4c8cb76528555" target="_top" xlink:title="The goal of this subroutine is to ensure that the WENO reconstruction is monotonic....">
<polygon fill="white" stroke="#666666" points="457.5,-30 340.5,-30 340.5,0 457.5,0 457.5,-30"/>
<text text-anchor="start" x="348.5" y="-18" font-family="Helvetica,sans-Serif" font-size="10.00">m_weno::s_preserve</text>
<text text-anchor="middle" x="399" y="-7" font-family="Helvetica,sans-Serif" font-size="10.00">_monotonicity</text>
</a>
</g>
</g>
<!-- Node2&#45;&gt;Node4 -->
<g id="edge3_Node000002_Node000004" class="edge">
<title>Node2&#45;&gt;Node4</title>
<g id="a_edge3_Node000002_Node000004"><a xlink:title=" ">
<path fill="none" stroke="#63b8ff" d="M289.22,-29.41C302.29,-27.68 316.62,-25.78 330.46,-23.95"/>
<polygon fill="#63b8ff" stroke="#63b8ff" points="330.98,-27.41 340.43,-22.63 330.06,-20.47 330.98,-27.41"/>
</a>
</g>
</g>
</g>
</svg>
