<?xml version="1.0" encoding="UTF-8" standalone="no"?>
<!DOCTYPE svg PUBLIC "-//W3C//DTD SVG 1.1//EN"
 "http://www.w3.org/Graphics/SVG/1.1/DTD/svg11.dtd">
<!-- Generated by graphviz version 2.43.0 (0)
 -->
<!-- Title: m_variables_conversion::s_convert_conservative_to_primitive_variables Pages: 1 -->
<svg width="587pt" height="220pt"
 viewBox="0.00 0.00 587.00 220.00" xmlns="http://www.w3.org/2000/svg" xmlns:xlink="http://www.w3.org/1999/xlink">
<g id="graph0" class="graph" transform="scale(1 1) rotate(0) translate(4 216)">
<title>m_variables_conversion::s_convert_conservative_to_primitive_variables</title>
<!-- Node1 -->
<g id="node1" class="node">
<title>Node1</title>
<g id="a_node1"><a xlink:title="The following procedure handles the conversion between the conservative variables and the primitive v...">
<polygon fill="#999999" stroke="#666666" points="579,-99.5 441,-99.5 441,-58.5 579,-58.5 579,-99.5"/>
<text text-anchor="start" x="449" y="-87.5" font-family="Helvetica,sans-Serif" font-size="10.00">m_variables_conversion</text>
<text text-anchor="start" x="449" y="-76.5" font-family="Helvetica,sans-Serif" font-size="10.00">::s_convert_conservative</text>
<text text-anchor="middle" x="510" y="-65.5" font-family="Helvetica,sans-Serif" font-size="10.00">_to_primitive_variables</text>
</a>
</g>
</g>
<!-- Node2 -->
<g id="node2" class="node">
<title>Node2</title>
<g id="a_node2"><a xlink:href="namespacem__rhs.html#a361f0038973069452cc88430c49bcfe8" target="_top" xlink:title=" ">
<polygon fill="white" stroke="#666666" points="402.5,-134.5 276.5,-134.5 276.5,-115.5 402.5,-115.5 402.5,-134.5"/>
<text text-anchor="middle" x="339.5" y="-122.5" font-family="Helvetica,sans-Serif" font-size="10.00">m_rhs::s_compute_rhs</text>
</a>
</g>
</g>
<!-- Node1&#45;&gt;Node2 -->
<g id="edge1" class="edge">
<title>Node1&#45;&gt;Node2</title>
<path fill="none" stroke="#63b8ff" d="M431.13,-100.26C411.63,-105.58 391.68,-111.03 375.47,-115.45"/>
<polygon fill="#63b8ff" stroke="#63b8ff" points="432.23,-103.59 440.95,-97.58 430.38,-96.83 432.23,-103.59"/>
</g>
<!-- Node7 -->
<g id="node7" class="node">
<title>Node7</title>
<g id="a_node7"><a xlink:href="namespacem__data__output.html#a2f7a43312f3d62d4765afe87f114dba4" target="_top" xlink:title="The goal of this subroutine is to output the grid and conservative variables data files for given tim...">
<polygon fill="white" stroke="#666666" points="405,-73 274,-73 274,-43 405,-43 405,-73"/>
<text text-anchor="start" x="282" y="-61" font-family="Helvetica,sans-Serif" font-size="10.00">m_data_output::s_write</text>
<text text-anchor="middle" x="339.5" y="-50" font-family="Helvetica,sans-Serif" font-size="10.00">_serial_data_files</text>
</a>
</g>
</g>
<!-- Node1&#45;&gt;Node7 -->
<g id="edge8" class="edge">
<title>Node1&#45;&gt;Node7</title>
<path fill="none" stroke="#63b8ff" d="M430.93,-69.27C422.33,-68.2 413.66,-67.12 405.25,-66.07"/>
<polygon fill="#63b8ff" stroke="#63b8ff" points="430.59,-72.76 440.95,-70.52 431.46,-65.81 430.59,-72.76"/>
</g>
<!-- Node3 -->
<g id="node3" class="node">
<title>Node3</title>
<g id="a_node3"><a xlink:href="namespacem__time__steppers.html#a8876606e6152b6c8f35272074a088142" target="_top" xlink:title="1st order TVD RK time&#45;stepping algorithm">
<polygon fill="white" stroke="#666666" points="220,-212 107,-212 107,-182 220,-182 220,-212"/>
<text text-anchor="start" x="115" y="-200" font-family="Helvetica,sans-Serif" font-size="10.00">m_time_steppers::s</text>
<text text-anchor="middle" x="163.5" y="-189" font-family="Helvetica,sans-Serif" font-size="10.00">_1st_order_tvd_rk</text>
</a>
</g>
</g>
<!-- Node2&#45;&gt;Node3 -->
<g id="edge2" class="edge">
<title>Node2&#45;&gt;Node3</title>
<path fill="none" stroke="#63b8ff" d="M311.18,-139.24C291.2,-149.35 263.3,-162.88 238,-173 230.27,-176.09 221.98,-179.09 213.84,-181.87"/>
<polygon fill="#63b8ff" stroke="#63b8ff" points="312.99,-142.24 320.3,-134.58 309.8,-136.01 312.99,-142.24"/>
</g>
<!-- Node5 -->
<g id="node5" class="node">
<title>Node5</title>
<g id="a_node5"><a xlink:href="namespacem__time__steppers.html#adb82b6c6041c825d0999e6890ed825cc" target="_top" xlink:title="2nd order TVD RK time&#45;stepping algorithm">
<polygon fill="white" stroke="#666666" points="220,-164 107,-164 107,-134 220,-134 220,-164"/>
<text text-anchor="start" x="115" y="-152" font-family="Helvetica,sans-Serif" font-size="10.00">m_time_steppers::s</text>
<text text-anchor="middle" x="163.5" y="-141" font-family="Helvetica,sans-Serif" font-size="10.00">_2nd_order_tvd_rk</text>
</a>
</g>
</g>
<!-- Node2&#45;&gt;Node5 -->
<g id="edge4" class="edge">
<title>Node2&#45;&gt;Node5</title>
<path fill="none" stroke="#63b8ff" d="M266.16,-134.98C250.75,-137.1 234.7,-139.32 220.04,-141.34"/>
<polygon fill="#63b8ff" stroke="#63b8ff" points="266.75,-138.43 276.17,-133.6 265.79,-131.5 266.75,-138.43"/>
</g>
<!-- Node6 -->
<g id="node6" class="node">
<title>Node6</title>
<g id="a_node6"><a xlink:href="namespacem__time__steppers.html#ae08efa7df1f8efae0f726dd5114176a8" target="_top" xlink:title="3rd order TVD RK time&#45;stepping algorithm">
<polygon fill="white" stroke="#666666" points="220,-116 107,-116 107,-86 220,-86 220,-116"/>
<text text-anchor="start" x="115" y="-104" font-family="Helvetica,sans-Serif" font-size="10.00">m_time_steppers::s</text>
<text text-anchor="middle" x="163.5" y="-93" font-family="Helvetica,sans-Serif" font-size="10.00">_3rd_order_tvd_rk</text>
</a>
</g>
</g>
<!-- Node2&#45;&gt;Node6 -->
<g id="edge6" class="edge">
<title>Node2&#45;&gt;Node6</title>
<path fill="none" stroke="#63b8ff" d="M266.16,-115.02C250.75,-112.9 234.7,-110.68 220.04,-108.66"/>
<polygon fill="#63b8ff" stroke="#63b8ff" points="265.79,-118.5 276.17,-116.4 266.75,-111.57 265.79,-118.5"/>
</g>
<!-- Node4 -->
<g id="node4" class="node">
<title>Node4</title>
<g id="a_node4"><a xlink:href="p__main_8fpp_8f90.html#aeec10ee8e2940c953967da3e374e1579" target="_top" xlink:title="Quasi&#45;conservative, shock&#45; and interface&#45; capturing finite&#45;volume scheme for the multicomponent Navie...">
<polygon fill="white" stroke="#666666" points="53,-110.5 0,-110.5 0,-91.5 53,-91.5 53,-110.5"/>
<text text-anchor="middle" x="26.5" y="-98.5" font-family="Helvetica,sans-Serif" font-size="10.00">p_main</text>
</a>
</g>
</g>
<!-- Node3&#45;&gt;Node4 -->
<g id="edge3" class="edge">
<title>Node3&#45;&gt;Node4</title>
<path fill="none" stroke="#63b8ff" d="M97.6,-178.1C94.62,-176.53 91.73,-174.83 89,-173 63.86,-156.18 43.09,-126.34 33.39,-110.89"/>
<polygon fill="#63b8ff" stroke="#63b8ff" points="96.24,-181.33 106.77,-182.48 99.25,-175.01 96.24,-181.33"/>
</g>
<!-- Node5&#45;&gt;Node4 -->
<g id="edge5" class="edge">
<title>Node5&#45;&gt;Node4</title>
<path fill="none" stroke="#63b8ff" d="M105.12,-130.61C99.65,-128.75 94.21,-126.87 89,-125 76.38,-120.48 62.44,-115.08 51.04,-110.54"/>
<polygon fill="#63b8ff" stroke="#63b8ff" points="104.33,-134.04 114.92,-133.9 106.55,-127.4 104.33,-134.04"/>
</g>
<!-- Node6&#45;&gt;Node4 -->
<g id="edge7" class="edge">
<title>Node6&#45;&gt;Node4</title>
<path fill="none" stroke="#63b8ff" d="M96.7,-101C81.24,-101 65.66,-101 53.21,-101"/>
<polygon fill="#63b8ff" stroke="#63b8ff" points="96.81,-104.5 106.81,-101 96.81,-97.5 96.81,-104.5"/>
</g>
<!-- Node7&#45;&gt;Node4 -->
<g id="edge9" class="edge">
<title>Node7&#45;&gt;Node4</title>
<path fill="none" stroke="#63b8ff" d="M263.79,-57.95C213.77,-59.31 146.75,-63.84 89,-77 74.7,-80.26 59.32,-86.26 47.52,-91.44"/>
<polygon fill="#63b8ff" stroke="#63b8ff" points="263.97,-61.44 273.88,-57.71 263.8,-54.45 263.97,-61.44"/>
</g>
<!-- Node8 -->
<g id="node8" class="node">
<title>Node8</title>
<g id="a_node8"><a xlink:href="namespacem__data__output.html#ab65b312ef83adb104cafafada9c998b6" target="_top" xlink:title="The computation of parameters, the allocation of memory, the association of pointers and/or the execu...">
<polygon fill="white" stroke="#666666" points="238,-30 89,-30 89,0 238,0 238,-30"/>
<text text-anchor="start" x="97" y="-18" font-family="Helvetica,sans-Serif" font-size="10.00">m_data_output::s_initialize</text>
<text text-anchor="middle" x="163.5" y="-7" font-family="Helvetica,sans-Serif" font-size="10.00">_data_output_module</text>
</a>
</g>
</g>
<!-- Node7&#45;&gt;Node8 -->
<g id="edge10" class="edge">
<title>Node7&#45;&gt;Node8</title>
<path fill="none" stroke="#63b8ff" d="M267.56,-40.47C253.55,-37.01 238.96,-33.4 225.32,-30.03"/>
<polygon fill="#63b8ff" stroke="#63b8ff" points="267.1,-43.96 277.64,-42.96 268.77,-37.16 267.1,-43.96"/>
</g>
<!-- Node8&#45;&gt;Node4 -->
<g id="edge11" class="edge">
<title>Node8&#45;&gt;Node4</title>
<path fill="none" stroke="#63b8ff" d="M107.22,-34.19C100.91,-37.14 94.69,-40.42 89,-44 67.56,-57.49 46.85,-78.97 35.79,-91.35"/>
<polygon fill="#63b8ff" stroke="#63b8ff" points="108.78,-37.33 116.51,-30.09 105.95,-30.93 108.78,-37.33"/>
</g>
</g>
</svg>
