<?xml version="1.0" encoding="UTF-8" standalone="no"?>
<!DOCTYPE svg PUBLIC "-//W3C//DTD SVG 1.1//EN"
 "http://www.w3.org/Graphics/SVG/1.1/DTD/svg11.dtd">
<!-- Generated by graphviz version 2.43.0 (0)
 -->
<!-- Title: m_variables_conversion::s_convert_species_to_mixture_variables_bubbles_acc Pages: 1 -->
<svg width="596pt" height="187pt"
 viewBox="0.00 0.00 596.00 186.50" xmlns="http://www.w3.org/2000/svg" xmlns:xlink="http://www.w3.org/1999/xlink">
<g id="graph0" class="graph" transform="scale(1 1) rotate(0) translate(4 182.5)">
<title>m_variables_conversion::s_convert_species_to_mixture_variables_bubbles_acc</title>
<!-- Node1 -->
<g id="node1" class="node">
<title>Node1</title>
<g id="a_node1"><a xlink:title=" ">
<polygon fill="#bfbfbf" stroke="black" points="412,-99 412,-140 588,-140 588,-99 412,-99"/>
<text text-anchor="start" x="420" y="-128" font-family="Helvetica,sans-Serif" font-size="10.00">m_variables_conversion</text>
<text text-anchor="start" x="420" y="-117" font-family="Helvetica,sans-Serif" font-size="10.00">::s_convert_species_to</text>
<text text-anchor="middle" x="500" y="-106" font-family="Helvetica,sans-Serif" font-size="10.00">_mixture_variables_bubbles_acc</text>
</a>
</g>
</g>
<!-- Node2 -->
<g id="node2" class="node">
<title>Node2</title>
<g id="a_node2"><a xlink:href="namespacem__cbc.html#a72cc3ba5a0de327fae70742734e77492" target="_top" xlink:title="The following is the implementation of the CBC based on the work of Thompson (1987,...">
<polygon fill="none" stroke="black" points="266.5,-159 266.5,-178 347.5,-178 347.5,-159 266.5,-159"/>
<text text-anchor="middle" x="307" y="-166" font-family="Helvetica,sans-Serif" font-size="10.00">m_cbc::s_cbc</text>
</a>
</g>
</g>
<!-- Node1&#45;&gt;Node2 -->
<g id="edge1" class="edge">
<title>Node1&#45;&gt;Node2</title>
<path fill="none" stroke="midnightblue" d="M408.86,-142.62C386.31,-148.41 363.36,-154.3 345.06,-158.99"/>
<polygon fill="midnightblue" stroke="midnightblue" points="410.01,-145.94 418.83,-140.07 408.27,-139.16 410.01,-145.94"/>
</g>
<!-- Node3 -->
<g id="node3" class="node">
<title>Node3</title>
<g id="a_node3"><a xlink:href="namespacem__variables__conversion.html#a4b22f555477e0d617f5cf53fd4e2fa38" target="_top" xlink:title="The following procedure handles the conversion between the conservative variables and the primitive v...">
<polygon fill="none" stroke="black" points="238,-99 238,-140 376,-140 376,-99 238,-99"/>
<text text-anchor="start" x="246" y="-128" font-family="Helvetica,sans-Serif" font-size="10.00">m_variables_conversion</text>
<text text-anchor="start" x="246" y="-117" font-family="Helvetica,sans-Serif" font-size="10.00">::s_convert_conservative</text>
<text text-anchor="middle" x="307" y="-106" font-family="Helvetica,sans-Serif" font-size="10.00">_to_primitive_variables</text>
</a>
</g>
</g>
<!-- Node1&#45;&gt;Node3 -->
<g id="edge2" class="edge">
<title>Node1&#45;&gt;Node3</title>
<path fill="none" stroke="midnightblue" d="M401.73,-119.5C393.08,-119.5 384.44,-119.5 376.11,-119.5"/>
<polygon fill="midnightblue" stroke="midnightblue" points="401.88,-123 411.88,-119.5 401.88,-116 401.88,-123"/>
</g>
<!-- Node4 -->
<g id="node4" class="node">
<title>Node4</title>
<g id="a_node4"><a xlink:href="namespacem__data__output.html#a33a72559ec5cfdedf7162a8269d41201" target="_top" xlink:title="The goal of the procedure is to output to the run&#45;time information file the stability criteria extrem...">
<polygon fill="none" stroke="black" points="241.5,-49.5 241.5,-79.5 372.5,-79.5 372.5,-49.5 241.5,-49.5"/>
<text text-anchor="start" x="249.5" y="-67.5" font-family="Helvetica,sans-Serif" font-size="10.00">m_data_output::s_write</text>
<text text-anchor="middle" x="307" y="-56.5" font-family="Helvetica,sans-Serif" font-size="10.00">_run_time_information</text>
</a>
</g>
</g>
<!-- Node1&#45;&gt;Node4 -->
<g id="edge3" class="edge">
<title>Node1&#45;&gt;Node4</title>
<path fill="none" stroke="midnightblue" d="M417.81,-96.12C398.31,-90.51 378,-84.66 360.23,-79.54"/>
<polygon fill="midnightblue" stroke="midnightblue" points="417.03,-99.54 427.61,-98.94 418.97,-92.81 417.03,-99.54"/>
</g>
<!-- Node5 -->
<g id="node5" class="node">
<title>Node5</title>
<g id="a_node5"><a xlink:href="namespacem__time__steppers.html#a8876606e6152b6c8f35272074a088142" target="_top" xlink:title="1st order TVD RK time&#45;stepping algorithm">
<polygon fill="none" stroke="black" points="89,-98.5 89,-128.5 202,-128.5 202,-98.5 89,-98.5"/>
<text text-anchor="start" x="97" y="-116.5" font-family="Helvetica,sans-Serif" font-size="10.00">m_time_steppers::s</text>
<text text-anchor="middle" x="145.5" y="-105.5" font-family="Helvetica,sans-Serif" font-size="10.00">_1st_order_tvd_rk</text>
</a>
</g>
</g>
<!-- Node4&#45;&gt;Node5 -->
<g id="edge4" class="edge">
<title>Node4&#45;&gt;Node5</title>
<path fill="none" stroke="midnightblue" d="M247.04,-82.61C230.08,-87.82 211.78,-93.45 195.49,-98.45"/>
<polygon fill="midnightblue" stroke="midnightblue" points="248.31,-85.88 256.84,-79.6 246.26,-79.19 248.31,-85.88"/>
</g>
<!-- Node7 -->
<g id="node7" class="node">
<title>Node7</title>
<g id="a_node7"><a xlink:href="namespacem__time__steppers.html#adb82b6c6041c825d0999e6890ed825cc" target="_top" xlink:title="2nd order TVD RK time&#45;stepping algorithm">
<polygon fill="none" stroke="black" points="89,-49.5 89,-79.5 202,-79.5 202,-49.5 89,-49.5"/>
<text text-anchor="start" x="97" y="-67.5" font-family="Helvetica,sans-Serif" font-size="10.00">m_time_steppers::s</text>
<text text-anchor="middle" x="145.5" y="-56.5" font-family="Helvetica,sans-Serif" font-size="10.00">_2nd_order_tvd_rk</text>
</a>
</g>
</g>
<!-- Node4&#45;&gt;Node7 -->
<g id="edge6" class="edge">
<title>Node4&#45;&gt;Node7</title>
<path fill="none" stroke="midnightblue" d="M231.04,-64.5C221.3,-64.5 211.46,-64.5 202.12,-64.5"/>
<polygon fill="midnightblue" stroke="midnightblue" points="231.13,-68 241.13,-64.5 231.13,-61 231.13,-68"/>
</g>
<!-- Node8 -->
<g id="node8" class="node">
<title>Node8</title>
<g id="a_node8"><a xlink:href="namespacem__time__steppers.html#ae08efa7df1f8efae0f726dd5114176a8" target="_top" xlink:title="3rd order TVD RK time&#45;stepping algorithm">
<polygon fill="none" stroke="black" points="89,-0.5 89,-30.5 202,-30.5 202,-0.5 89,-0.5"/>
<text text-anchor="start" x="97" y="-18.5" font-family="Helvetica,sans-Serif" font-size="10.00">m_time_steppers::s</text>
<text text-anchor="middle" x="145.5" y="-7.5" font-family="Helvetica,sans-Serif" font-size="10.00">_3rd_order_tvd_rk</text>
</a>
</g>
</g>
<!-- Node4&#45;&gt;Node8 -->
<g id="edge8" class="edge">
<title>Node4&#45;&gt;Node8</title>
<path fill="none" stroke="midnightblue" d="M247.04,-46.39C230.08,-41.18 211.78,-35.55 195.49,-30.55"/>
<polygon fill="midnightblue" stroke="midnightblue" points="246.26,-49.81 256.84,-49.4 248.31,-43.12 246.26,-49.81"/>
</g>
<!-- Node6 -->
<g id="node6" class="node">
<title>Node6</title>
<g id="a_node6"><a xlink:href="p__main_8f90.html#aeec10ee8e2940c953967da3e374e1579" target="_top" xlink:title="Quasi&#45;conservative, shock&#45; and interface&#45; capturing finite&#45;volume scheme for the multicomponent Navie...">
<polygon fill="none" stroke="black" points="0,-55 0,-74 53,-74 53,-55 0,-55"/>
<text text-anchor="middle" x="26.5" y="-62" font-family="Helvetica,sans-Serif" font-size="10.00">p_main</text>
</a>
</g>
</g>
<!-- Node5&#45;&gt;Node6 -->
<g id="edge5" class="edge">
<title>Node5&#45;&gt;Node6</title>
<path fill="none" stroke="midnightblue" d="M98.87,-94.39C82.25,-87.43 64.17,-79.86 50.36,-74.08"/>
<polygon fill="midnightblue" stroke="midnightblue" points="97.87,-97.76 108.44,-98.4 100.57,-91.31 97.87,-97.76"/>
</g>
<!-- Node7&#45;&gt;Node6 -->
<g id="edge7" class="edge">
<title>Node7&#45;&gt;Node6</title>
<path fill="none" stroke="midnightblue" d="M78.51,-64.5C69.51,-64.5 60.74,-64.5 53.09,-64.5"/>
<polygon fill="midnightblue" stroke="midnightblue" points="78.74,-68 88.74,-64.5 78.74,-61 78.74,-68"/>
</g>
<!-- Node8&#45;&gt;Node6 -->
<g id="edge9" class="edge">
<title>Node8&#45;&gt;Node6</title>
<path fill="none" stroke="midnightblue" d="M98.87,-34.61C82.25,-41.57 64.17,-49.14 50.36,-54.92"/>
<polygon fill="midnightblue" stroke="midnightblue" points="100.57,-37.69 108.44,-30.6 97.87,-31.24 100.57,-37.69"/>
</g>
</g>
</svg>
