<?xml version="1.0" encoding="UTF-8" standalone="no"?>
<!DOCTYPE svg PUBLIC "-//W3C//DTD SVG 1.1//EN"
 "http://www.w3.org/Graphics/SVG/1.1/DTD/svg11.dtd">
<!-- Generated by graphviz version 2.43.0 (0)
 -->
<!-- Title: m_data_output::s_write_probe_files Pages: 1 -->
<svg width="293pt" height="137pt"
 viewBox="0.00 0.00 293.00 137.00" xmlns="http://www.w3.org/2000/svg" xmlns:xlink="http://www.w3.org/1999/xlink">
<g id="graph0" class="graph" transform="scale(1 1) rotate(0) translate(4 133)">
<title>m_data_output::s_write_probe_files</title>
<!-- Node1 -->
<g id="node1" class="node">
<title>Node1</title>
<g id="a_node1"><a xlink:title="This writes a formatted data file for the flow probe information.">
<polygon fill="#bfbfbf" stroke="black" points="0,-49.5 0,-79.5 131,-79.5 131,-49.5 0,-49.5"/>
<text text-anchor="start" x="8" y="-67.5" font-family="Helvetica,sans-Serif" font-size="10.00">m_data_output::s_write</text>
<text text-anchor="middle" x="65.5" y="-56.5" font-family="Helvetica,sans-Serif" font-size="10.00">_probe_files</text>
</a>
</g>
</g>
<!-- Node2 -->
<g id="node2" class="node">
<title>Node2</title>
<g id="a_node2"><a xlink:href="namespacem__mpi__proxy.html#a04ac565bad2b22dc045a5eeb4f516e2e" target="_top" xlink:title="The subroutine terminates the MPI execution environment.">
<polygon fill="none" stroke="black" points="167,-98.5 167,-128.5 285,-128.5 285,-98.5 167,-98.5"/>
<text text-anchor="start" x="175" y="-116.5" font-family="Helvetica,sans-Serif" font-size="10.00">m_mpi_proxy::s_mpi</text>
<text text-anchor="middle" x="226" y="-105.5" font-family="Helvetica,sans-Serif" font-size="10.00">_abort</text>
</a>
</g>
</g>
<!-- Node1&#45;&gt;Node2 -->
<g id="edge1" class="edge">
<title>Node1&#45;&gt;Node2</title>
<path fill="none" stroke="midnightblue" d="M115.35,-79.6C131.54,-84.61 149.74,-90.23 166.58,-95.44"/>
<polygon fill="midnightblue" stroke="midnightblue" points="165.73,-98.84 176.31,-98.45 167.79,-92.15 165.73,-98.84"/>
</g>
<!-- Node3 -->
<g id="node3" class="node">
<title>Node3</title>
<g id="a_node3"><a xlink:href="namespacem__mpi__proxy.html#aff7286de058c49b2a5d7a84be1983e8f" target="_top" xlink:title="The following subroutine takes the input local variable from all processors and reduces to the maximu...">
<polygon fill="none" stroke="black" points="167,-49.5 167,-79.5 285,-79.5 285,-49.5 167,-49.5"/>
<text text-anchor="start" x="175" y="-67.5" font-family="Helvetica,sans-Serif" font-size="10.00">m_mpi_proxy::s_mpi</text>
<text text-anchor="middle" x="226" y="-56.5" font-family="Helvetica,sans-Serif" font-size="10.00">_allreduce_max</text>
</a>
</g>
</g>
<!-- Node1&#45;&gt;Node3 -->
<g id="edge2" class="edge">
<title>Node1&#45;&gt;Node3</title>
<path fill="none" stroke="midnightblue" d="M131.43,-64.5C139.75,-64.5 148.3,-64.5 156.68,-64.5"/>
<polygon fill="midnightblue" stroke="midnightblue" points="156.79,-68 166.79,-64.5 156.79,-61 156.79,-68"/>
</g>
<!-- Node4 -->
<g id="node4" class="node">
<title>Node4</title>
<g id="a_node4"><a xlink:href="namespacem__mpi__proxy.html#a873520062481f3dabcfa77f9bd7728d3" target="_top" xlink:title="The following subroutine takes the input local variable from all processors and reduces to the sum of...">
<polygon fill="none" stroke="black" points="167,-0.5 167,-30.5 285,-30.5 285,-0.5 167,-0.5"/>
<text text-anchor="start" x="175" y="-18.5" font-family="Helvetica,sans-Serif" font-size="10.00">m_mpi_proxy::s_mpi</text>
<text text-anchor="middle" x="226" y="-7.5" font-family="Helvetica,sans-Serif" font-size="10.00">_allreduce_sum</text>
</a>
</g>
</g>
<!-- Node1&#45;&gt;Node4 -->
<g id="edge3" class="edge">
<title>Node1&#45;&gt;Node4</title>
<path fill="none" stroke="midnightblue" d="M115.35,-49.4C131.54,-44.39 149.74,-38.77 166.58,-33.56"/>
<polygon fill="midnightblue" stroke="midnightblue" points="167.79,-36.85 176.31,-30.55 165.73,-30.16 167.79,-36.85"/>
</g>
</g>
</svg>
