<?xml version="1.0" encoding="UTF-8" standalone="no"?>
<!DOCTYPE svg PUBLIC "-//W3C//DTD SVG 1.1//EN"
 "http://www.w3.org/Graphics/SVG/1.1/DTD/svg11.dtd">
<!-- Generated by graphviz version 2.43.0 (0)
 -->
<!-- Title: m_riemann_solvers::s_initialize_riemann_solvers_module Pages: 1 -->
<!--zoomable 496 -->
<svg id="main" version="1.1" xmlns="http://www.w3.org/2000/svg" xmlns:xlink="http://www.w3.org/1999/xlink" xml:space="preserve" onload="init(evt)">
<style type="text/css"><![CDATA[
.edge:hover path { stroke: red; }
.edge:hover polygon { stroke: red; fill: red; }
]]></style>
<script type="text/javascript"><![CDATA[
var edges = document.getElementsByTagName('g');
if (edges && edges.length) {
  for (var i=0;i<edges.length;i++) {
    if (edges[i].id.substr(0,4)=='edge') {
      edges[i].setAttribute('class','edge');
    }
  }
}
]]></script>
        <defs>
                <circle id="rim" cx="0" cy="0" r="7"/>
                <circle id="rim2" cx="0" cy="0" r="3.5"/>
                <g id="zoomPlus">
                        <use xlink:href="#rim" fill="#404040">
                                <set attributeName="fill" to="#808080" begin="zoomplus.mouseover" end="zoomplus.mouseout"/>
                        </use>
                        <path d="M-4,0h8M0,-4v8" fill="none" stroke="white" stroke-width="1.5" pointer-events="none"/>
                </g>
                <g id="zoomMin">
                        <use xlink:href="#rim" fill="#404040">
                                <set attributeName="fill" to="#808080" begin="zoomminus.mouseover" end="zoomminus.mouseout"/>
                        </use>
                        <path d="M-4,0h8" fill="none" stroke="white" stroke-width="1.5" pointer-events="none"/>
                </g>
                <g id="dirArrow">
                        <path fill="none" stroke="white" stroke-width="1.5" d="M0,-3.0v7 M-2.5,-0.5L0,-3.0L2.5,-0.5"/>
                </g>
               <g id="resetDef">
                       <use xlink:href="#rim2" fill="#404040">
                               <set attributeName="fill" to="#808080" begin="reset.mouseover" end="reset.mouseout"/>
                       </use>
               </g>
        </defs>

<script type="text/javascript">
var viewWidth = 507;
var viewHeight = 496;
var sectionId = 'dynsection-10';
</script>
<script xlink:href="svgpan.js"/>
<svg id="graph" class="graph">
<g id="viewport">
<title>m_riemann_solvers::s_initialize_riemann_solvers_module</title>
<!-- Node1 -->
<g id="node1" class="node">
<title>Node1</title>
<g id="a_node1"><a xlink:title="The computation of parameters, the allocation of memory, the association of pointers and/or the execu...">
<polygon fill="#999999" stroke="#666666" points="119,-311 0,-311 0,-270 119,-270 119,-311"/>
<text text-anchor="start" x="8" y="-299" font-family="Helvetica,sans-Serif" font-size="10.00">m_riemann_solvers::</text>
<text text-anchor="start" x="8" y="-288" font-family="Helvetica,sans-Serif" font-size="10.00">s_initialize_riemann</text>
<text text-anchor="middle" x="59.5" y="-277" font-family="Helvetica,sans-Serif" font-size="10.00">_solvers_module</text>
</a>
</g>
</g>
<!-- Node2 -->
<g id="node2" class="node">
<title>Node2</title>
<g id="a_node2"><a xlink:href="namespacem__riemann__solvers.html#a67523a29805d4128431484ca49de1068" target="_top" xlink:title="The goal of this subroutine is to evaluate and account for the contribution of viscous stresses in th...">
<polygon fill="white" stroke="#666666" points="292,-488 172,-488 172,-447 292,-447 292,-488"/>
<text text-anchor="start" x="180" y="-476" font-family="Helvetica,sans-Serif" font-size="10.00">m_riemann_solvers::</text>
<text text-anchor="start" x="180" y="-465" font-family="Helvetica,sans-Serif" font-size="10.00">s_compute_cartesian</text>
<text text-anchor="middle" x="232" y="-454" font-family="Helvetica,sans-Serif" font-size="10.00">_viscous_source_flux</text>
</a>
</g>
</g>
<!-- Node1&#45;&gt;Node2 -->
<g id="edge1" class="edge">
<title>Node1&#45;&gt;Node2</title>
<path fill="none" stroke="#63b8ff" d="M68.62,-311.15C82.04,-342.78 111.74,-403.27 155,-438.5 157.44,-440.49 160.03,-442.35 162.73,-444.09"/>
<polygon fill="#63b8ff" stroke="#63b8ff" points="161.24,-447.27 171.65,-449.25 164.75,-441.22 161.24,-447.27"/>
</g>
<!-- Node3 -->
<g id="node3" class="node">
<title>Node3</title>
<g id="a_node3"><a xlink:href="namespacem__riemann__solvers.html#a225f72f7e466dad77766ea2fe27a7a05" target="_top" xlink:title="The goal of this subroutine is to evaluate and account for the contribution of viscous stresses in th...">
<polygon fill="white" stroke="#666666" points="294.5,-429 169.5,-429 169.5,-388 294.5,-388 294.5,-429"/>
<text text-anchor="start" x="177.5" y="-417" font-family="Helvetica,sans-Serif" font-size="10.00">m_riemann_solvers::</text>
<text text-anchor="start" x="177.5" y="-406" font-family="Helvetica,sans-Serif" font-size="10.00">s_compute_cylindrical</text>
<text text-anchor="middle" x="232" y="-395" font-family="Helvetica,sans-Serif" font-size="10.00">_viscous_source_flux</text>
</a>
</g>
</g>
<!-- Node1&#45;&gt;Node3 -->
<g id="edge2" class="edge">
<title>Node1&#45;&gt;Node3</title>
<path fill="none" stroke="#63b8ff" d="M78.18,-311.33C95.9,-331.12 124.83,-360.59 155,-379.5 156.94,-380.72 158.95,-381.9 161,-383.04"/>
<polygon fill="#63b8ff" stroke="#63b8ff" points="159.72,-386.32 170.21,-387.81 162.94,-380.11 159.72,-386.32"/>
</g>
<!-- Node4 -->
<g id="node4" class="node">
<title>Node4</title>
<g id="a_node4"><a xlink:href="namespacem__variables__conversion.html#a8b38265e762610c48cd08e6c2a833b38" target="_top" xlink:title="This subroutine is designed for the gamma/pi_inf model and provided a set of either conservative or p...">
<polygon fill="white" stroke="#666666" points="299.5,-370 164.5,-370 164.5,-329 299.5,-329 299.5,-370"/>
<text text-anchor="start" x="172.5" y="-358" font-family="Helvetica,sans-Serif" font-size="10.00">m_variables_conversion</text>
<text text-anchor="start" x="172.5" y="-347" font-family="Helvetica,sans-Serif" font-size="10.00">::s_convert_mixture_to</text>
<text text-anchor="middle" x="232" y="-336" font-family="Helvetica,sans-Serif" font-size="10.00">_mixture_variables</text>
</a>
</g>
</g>
<!-- Node1&#45;&gt;Node4 -->
<g id="edge3" class="edge">
<title>Node1&#45;&gt;Node4</title>
<path fill="none" stroke="#63b8ff" d="M119.18,-310.8C132.95,-315.57 147.75,-320.69 161.94,-325.6"/>
<polygon fill="#63b8ff" stroke="#63b8ff" points="161.04,-329 171.64,-328.96 163.33,-322.38 161.04,-329"/>
</g>
<!-- Node5 -->
<g id="node5" class="node">
<title>Node5</title>
<g id="a_node5"><a xlink:href="namespacem__variables__conversion.html#a95ca46151b4f53187280645d71755bfa" target="_top" xlink:title="This subroutine is designed for the volume fraction model and provided a set of either conservative o...">
<polygon fill="white" stroke="#666666" points="299.5,-311 164.5,-311 164.5,-270 299.5,-270 299.5,-311"/>
<text text-anchor="start" x="172.5" y="-299" font-family="Helvetica,sans-Serif" font-size="10.00">m_variables_conversion</text>
<text text-anchor="start" x="172.5" y="-288" font-family="Helvetica,sans-Serif" font-size="10.00">::s_convert_species_to</text>
<text text-anchor="middle" x="232" y="-277" font-family="Helvetica,sans-Serif" font-size="10.00">_mixture_variables</text>
</a>
</g>
</g>
<!-- Node1&#45;&gt;Node5 -->
<g id="edge4" class="edge">
<title>Node1&#45;&gt;Node5</title>
<path fill="none" stroke="#63b8ff" d="M119.18,-290.5C130.43,-290.5 142.36,-290.5 154.09,-290.5"/>
<polygon fill="#63b8ff" stroke="#63b8ff" points="154.31,-294 164.31,-290.5 154.31,-287 154.31,-294"/>
</g>
<!-- Node6 -->
<g id="node6" class="node">
<title>Node6</title>
<g id="a_node6"><a xlink:href="namespacem__variables__conversion.html#ab3775ce10728f71d6da205e34cf50b77" target="_top" xlink:title="This procedure is used alongside with the gamma/pi_inf model to transfer the density,...">
<polygon fill="white" stroke="#666666" points="309,-252 155,-252 155,-211 309,-211 309,-252"/>
<text text-anchor="start" x="163" y="-240" font-family="Helvetica,sans-Serif" font-size="10.00">m_variables_conversion</text>
<text text-anchor="start" x="163" y="-229" font-family="Helvetica,sans-Serif" font-size="10.00">::s_convert_species_to</text>
<text text-anchor="middle" x="232" y="-218" font-family="Helvetica,sans-Serif" font-size="10.00">_mixture_variables_bubbles</text>
</a>
</g>
</g>
<!-- Node1&#45;&gt;Node6 -->
<g id="edge5" class="edge">
<title>Node1&#45;&gt;Node6</title>
<path fill="none" stroke="#63b8ff" d="M119.18,-270.2C132.95,-265.43 147.75,-260.31 161.94,-255.4"/>
<polygon fill="#63b8ff" stroke="#63b8ff" points="163.33,-258.62 171.64,-252.04 161.04,-252 163.33,-258.62"/>
</g>
<!-- Node7 -->
<g id="node7" class="node">
<title>Node7</title>
<g id="a_node7"><a xlink:href="namespacem__riemann__solvers.html#a1b018ebed82e499a0589925651bba7a7" target="_top" xlink:title=" ">
<polygon fill="white" stroke="#666666" points="292,-192.5 172,-192.5 172,-162.5 292,-162.5 292,-192.5"/>
<text text-anchor="start" x="180" y="-180.5" font-family="Helvetica,sans-Serif" font-size="10.00">m_riemann_solvers::</text>
<text text-anchor="middle" x="232" y="-169.5" font-family="Helvetica,sans-Serif" font-size="10.00">s_hll_riemann_solver</text>
</a>
</g>
</g>
<!-- Node1&#45;&gt;Node7 -->
<g id="edge6" class="edge">
<title>Node1&#45;&gt;Node7</title>
<path fill="none" stroke="#63b8ff" d="M77.7,-269.98C95.29,-250.19 124.31,-220.64 155,-202.5 158.63,-200.35 162.47,-198.36 166.42,-196.53"/>
<polygon fill="#63b8ff" stroke="#63b8ff" points="167.97,-199.67 175.78,-192.5 165.21,-193.24 167.97,-199.67"/>
</g>
<!-- Node12 -->
<g id="node12" class="node">
<title>Node12</title>
<g id="a_node12"><a xlink:href="namespacem__riemann__solvers.html#a6c9d70572e9b98586bab20b028557a5a" target="_top" xlink:title="This procedure is the implementation of the Harten, Lax, van Leer, and contact (HLLC) approximate Rie...">
<polygon fill="white" stroke="#666666" points="294.5,-144.5 169.5,-144.5 169.5,-114.5 294.5,-114.5 294.5,-144.5"/>
<text text-anchor="start" x="177.5" y="-132.5" font-family="Helvetica,sans-Serif" font-size="10.00">m_riemann_solvers::</text>
<text text-anchor="middle" x="232" y="-121.5" font-family="Helvetica,sans-Serif" font-size="10.00">s_hllc_riemann_solver</text>
</a>
</g>
</g>
<!-- Node1&#45;&gt;Node12 -->
<g id="edge11" class="edge">
<title>Node1&#45;&gt;Node12</title>
<path fill="none" stroke="#63b8ff" d="M69.48,-269.62C83.45,-239.58 113.17,-184.41 155,-153.5 157.04,-151.99 159.19,-150.57 161.4,-149.24"/>
<polygon fill="#63b8ff" stroke="#63b8ff" points="163.08,-152.32 170.26,-144.53 159.79,-146.13 163.08,-152.32"/>
</g>
<!-- Node8 -->
<g id="node8" class="node">
<title>Node8</title>
<g id="a_node8"><a xlink:href="namespacem__riemann__solvers.html#a1f08e0b3e2808819c1331e41c99f5bbf" target="_top" xlink:title=" ">
<polygon fill="white" stroke="#666666" points="499,-192.5 345,-192.5 345,-162.5 499,-162.5 499,-192.5"/>
<text text-anchor="start" x="353" y="-180.5" font-family="Helvetica,sans-Serif" font-size="10.00">m_riemann_solvers::</text>
<text text-anchor="middle" x="422" y="-169.5" font-family="Helvetica,sans-Serif" font-size="10.00">s_compute_speed_of_sound</text>
</a>
</g>
</g>
<!-- Node7&#45;&gt;Node8 -->
<g id="edge7" class="edge">
<title>Node7&#45;&gt;Node8</title>
<path fill="none" stroke="#63b8ff" d="M292.23,-177.5C305.65,-177.5 320.18,-177.5 334.47,-177.5"/>
<polygon fill="#63b8ff" stroke="#63b8ff" points="334.82,-181 344.82,-177.5 334.82,-174 334.82,-181"/>
</g>
<!-- Node9 -->
<g id="node9" class="node">
<title>Node9</title>
<g id="a_node9"><a xlink:href="namespacem__riemann__solvers.html#ab679d890c95c6cb1ee3dc5e5a9ae1c19" target="_top" xlink:title="Deallocation and/or disassociation procedures that are needed to finalize the selected Riemann proble...">
<polygon fill="white" stroke="#666666" points="493.5,-144.5 350.5,-144.5 350.5,-114.5 493.5,-114.5 493.5,-144.5"/>
<text text-anchor="start" x="358.5" y="-132.5" font-family="Helvetica,sans-Serif" font-size="10.00">m_riemann_solvers::</text>
<text text-anchor="middle" x="422" y="-121.5" font-family="Helvetica,sans-Serif" font-size="10.00">s_finalize_riemann_solver</text>
</a>
</g>
</g>
<!-- Node7&#45;&gt;Node9 -->
<g id="edge8" class="edge">
<title>Node7&#45;&gt;Node9</title>
<path fill="none" stroke="#63b8ff" d="M291.97,-162.44C311.13,-157.55 332.56,-152.08 352.36,-147.02"/>
<polygon fill="#63b8ff" stroke="#63b8ff" points="353.42,-150.37 362.24,-144.5 351.69,-143.59 353.42,-150.37"/>
</g>
<!-- Node10 -->
<g id="node10" class="node">
<title>Node10</title>
<g id="a_node10"><a xlink:href="namespacem__riemann__solvers.html#a3f244d4b1bc8e00f8c3c5b6f96aa5448" target="_top" xlink:title="The computation of parameters, the allocation of memory, the association of pointers and/or the execu...">
<polygon fill="white" stroke="#666666" points="481.5,-96 362.5,-96 362.5,-55 481.5,-55 481.5,-96"/>
<text text-anchor="start" x="370.5" y="-84" font-family="Helvetica,sans-Serif" font-size="10.00">m_riemann_solvers::</text>
<text text-anchor="start" x="370.5" y="-73" font-family="Helvetica,sans-Serif" font-size="10.00">s_initialize_riemann</text>
<text text-anchor="middle" x="422" y="-62" font-family="Helvetica,sans-Serif" font-size="10.00">_solver</text>
</a>
</g>
</g>
<!-- Node7&#45;&gt;Node10 -->
<g id="edge9" class="edge">
<title>Node7&#45;&gt;Node10</title>
<path fill="none" stroke="#63b8ff" d="M292.04,-162.98C298.03,-160.31 303.81,-157.18 309,-153.5 330.76,-138.08 323.8,-121.67 345,-105.5 347.65,-103.48 350.45,-101.57 353.36,-99.79"/>
<polygon fill="#63b8ff" stroke="#63b8ff" points="355.33,-102.69 362.34,-94.75 351.91,-96.59 355.33,-102.69"/>
</g>
<!-- Node11 -->
<g id="node11" class="node">
<title>Node11</title>
<g id="a_node11"><a xlink:href="namespacem__riemann__solvers.html#a2b90cc8425b57f4a7ea4dc0d839e9f75" target="_top" xlink:title="The purpose of this subroutine is to populate the buffers of the left and right Riemann states variab...">
<polygon fill="white" stroke="#666666" points="497.5,-252 346.5,-252 346.5,-211 497.5,-211 497.5,-252"/>
<text text-anchor="start" x="354.5" y="-240" font-family="Helvetica,sans-Serif" font-size="10.00">m_riemann_solvers::</text>
<text text-anchor="start" x="354.5" y="-229" font-family="Helvetica,sans-Serif" font-size="10.00">s_populate_riemann_states</text>
<text text-anchor="middle" x="422" y="-218" font-family="Helvetica,sans-Serif" font-size="10.00">_variables_buffers</text>
</a>
</g>
</g>
<!-- Node7&#45;&gt;Node11 -->
<g id="edge10" class="edge">
<title>Node7&#45;&gt;Node11</title>
<path fill="none" stroke="#63b8ff" d="M285.37,-192.54C302.22,-197.38 321.31,-202.87 339.74,-208.16"/>
<polygon fill="#63b8ff" stroke="#63b8ff" points="339.01,-211.59 349.59,-210.99 340.95,-204.86 339.01,-211.59"/>
</g>
<!-- Node12&#45;&gt;Node8 -->
<g id="edge14" class="edge">
<title>Node12&#45;&gt;Node8</title>
<path fill="none" stroke="#63b8ff" d="M291.97,-144.56C311.13,-149.45 332.56,-154.92 352.36,-159.98"/>
<polygon fill="#63b8ff" stroke="#63b8ff" points="351.69,-163.41 362.24,-162.5 353.42,-156.63 351.69,-163.41"/>
</g>
<!-- Node12&#45;&gt;Node9 -->
<g id="edge15" class="edge">
<title>Node12&#45;&gt;Node9</title>
<path fill="none" stroke="#63b8ff" d="M294.56,-129.5C309.23,-129.5 325.1,-129.5 340.48,-129.5"/>
<polygon fill="#63b8ff" stroke="#63b8ff" points="340.5,-133 350.5,-129.5 340.5,-126 340.5,-133"/>
</g>
<!-- Node12&#45;&gt;Node10 -->
<g id="edge16" class="edge">
<title>Node12&#45;&gt;Node10</title>
<path fill="none" stroke="#63b8ff" d="M285.37,-114.46C306.19,-108.48 330.43,-101.52 352.6,-95.15"/>
<polygon fill="#63b8ff" stroke="#63b8ff" points="353.65,-98.49 362.3,-92.36 351.72,-91.76 353.65,-98.49"/>
</g>
<!-- Node12&#45;&gt;Node11 -->
<g id="edge17" class="edge">
<title>Node12&#45;&gt;Node11</title>
<path fill="none" stroke="#63b8ff" d="M293.21,-144.55C298.78,-147.1 304.15,-150.06 309,-153.5 330.76,-168.92 323.8,-185.33 345,-201.5 346.83,-202.9 348.74,-204.24 350.7,-205.53"/>
<polygon fill="#63b8ff" stroke="#63b8ff" points="349.24,-208.73 359.62,-210.82 352.81,-202.71 349.24,-208.73"/>
</g>
<!-- Node13 -->
<g id="node13" class="node">
<title>Node13</title>
<g id="a_node13"><a xlink:href="namespacem__bubbles.html#a3b5690b07dda1b3660cb5539ec5fd920" target="_top" xlink:title="Function that computes the bubble wall pressure for Keller–Miksis bubbles.">
<polygon fill="white" stroke="#666666" points="487.5,-19 356.5,-19 356.5,0 487.5,0 487.5,-19"/>
<text text-anchor="middle" x="422" y="-7" font-family="Helvetica,sans-Serif" font-size="10.00">m_bubbles::f_cpbw_km</text>
</a>
</g>
</g>
<!-- Node12&#45;&gt;Node13 -->
<g id="edge12" class="edge">
<title>Node12&#45;&gt;Node13</title>
<path fill="none" stroke="#63b8ff" d="M250.83,-114.34C272.29,-96.53 309.83,-66.72 345,-45.5 358.68,-37.25 374.55,-29.47 388.24,-23.27"/>
<polygon fill="#63b8ff" stroke="#63b8ff" points="390.04,-26.3 397.76,-19.05 387.2,-19.9 390.04,-26.3"/>
</g>
<!-- Node13&#45;&gt;Node13 -->
<g id="edge13" class="edge">
<title>Node13&#45;&gt;Node13</title>
<path fill="none" stroke="#63b8ff" d="M392.72,-19.08C378.47,-27.73 388.23,-37 422,-37 445.22,-37 457.09,-32.62 457.61,-27.07"/>
<polygon fill="#63b8ff" stroke="#63b8ff" points="460.23,-24.75 451.28,-19.08 454.75,-29.1 460.23,-24.75"/>
</g>
</g>
</svg>
        <g id="navigator" transform="translate(0 0)" fill="#404254">
                <rect fill="#f2f5e9" fill-opacity="0.5" stroke="#606060" stroke-width=".5" x="0" y="0" width="60" height="60"/>
                <use id="zoomplus" xlink:href="#zoomPlus" x="17" y="9" onmousedown="handleZoom(evt,'in')"/>
                <use id="zoomminus" xlink:href="#zoomMin" x="42" y="9" onmousedown="handleZoom(evt,'out')"/>
                <use id="reset" xlink:href="#resetDef" x="30" y="36" onmousedown="handleReset()"/>
                <g id="arrowUp" xlink:href="#dirArrow" transform="translate(30 24)" onmousedown="handlePan(0,-1)">
                  <use xlink:href="#rim" fill="#404040">
                        <set attributeName="fill" to="#808080" begin="arrowUp.mouseover" end="arrowUp.mouseout"/>
                  </use>
                  <path fill="none" stroke="white" stroke-width="1.5" d="M0,-3.0v7 M-2.5,-0.5L0,-3.0L2.5,-0.5"/>
                </g>
                <g id="arrowRight" xlink:href="#dirArrow" transform="rotate(90) translate(36 -43)" onmousedown="handlePan(1,0)">
                  <use xlink:href="#rim" fill="#404040">
                        <set attributeName="fill" to="#808080" begin="arrowRight.mouseover" end="arrowRight.mouseout"/>
                  </use>
                  <path fill="none" stroke="white" stroke-width="1.5" d="M0,-3.0v7 M-2.5,-0.5L0,-3.0L2.5,-0.5"/>
                </g>
                <g id="arrowDown" xlink:href="#dirArrow" transform="rotate(180) translate(-30 -48)" onmousedown="handlePan(0,1)">
                  <use xlink:href="#rim" fill="#404040">
                        <set attributeName="fill" to="#808080" begin="arrowDown.mouseover" end="arrowDown.mouseout"/>
                  </use>
                  <path fill="none" stroke="white" stroke-width="1.5" d="M0,-3.0v7 M-2.5,-0.5L0,-3.0L2.5,-0.5"/>
                </g>
                <g id="arrowLeft" xlink:href="#dirArrow" transform="rotate(270) translate(-36 17)" onmousedown="handlePan(-1,0)">
                  <use xlink:href="#rim" fill="#404040">
                        <set attributeName="fill" to="#808080" begin="arrowLeft.mouseover" end="arrowLeft.mouseout"/>
                  </use>
                  <path fill="none" stroke="white" stroke-width="1.5" d="M0,-3.0v7 M-2.5,-0.5L0,-3.0L2.5,-0.5"/>
                </g>
        </g>
        <svg viewBox="0 0 15 15" width="100%" height="30px" preserveAspectRatio="xMaxYMin meet">
         <g id="arrow_out" transform="scale(0.3 0.3)">
          <a xlink:href="namespacem__riemann__solvers_aab7e6bf69b7d0b8b9d911f418b872130_cgraph_org.svg" target="_base">
           <rect id="button" ry="5" rx="5" y="6" x="6" height="38" width="38"
                fill="#f2f5e9" fill-opacity="0.5" stroke="#606060" stroke-width="1.0"/>
           <path id="arrow"
             d="M 11.500037,31.436501 C 11.940474,20.09759 22.043105,11.32322 32.158766,21.979434 L 37.068811,17.246167 C 37.068811,17.246167 37.088388,32 37.088388,32 L 22.160133,31.978069 C 22.160133,31.978069 26.997745,27.140456 26.997745,27.140456 C 18.528582,18.264221 13.291696,25.230495 11.500037,31.436501 z"
             style="fill:#404040;"/>
          </a>
         </g>
        </svg>
</svg>
