<?xml version="1.0" encoding="UTF-8" standalone="no"?>
<!DOCTYPE svg PUBLIC "-//W3C//DTD SVG 1.1//EN"
 "http://www.w3.org/Graphics/SVG/1.1/DTD/svg11.dtd">
<!-- Generated by graphviz version 2.43.0 (0)
 -->
<!-- Title: m_riemann_solvers::s_initialize_riemann_solvers_module Pages: 1 -->
<svg width="475pt" height="319pt"
 viewBox="0.00 0.00 475.00 319.00" xmlns="http://www.w3.org/2000/svg" xmlns:xlink="http://www.w3.org/1999/xlink">
<g id="graph0" class="graph" transform="scale(1 1) rotate(0) translate(4 315)">
<title>m_riemann_solvers::s_initialize_riemann_solvers_module</title>
<!-- Node1 -->
<g id="Node000001" class="node">
<title>Node1</title>
<g id="a_Node000001"><a xlink:title="The computation of parameters, the allocation of memory, the association of pointers and/or the execu...">
<polygon fill="#999999" stroke="#666666" points="119,-225 0,-225 0,-184 119,-184 119,-225"/>
<text text-anchor="start" x="8" y="-213" font-family="Helvetica,sans-Serif" font-size="10.00">m_riemann_solvers::</text>
<text text-anchor="start" x="8" y="-202" font-family="Helvetica,sans-Serif" font-size="10.00">s_initialize_riemann</text>
<text text-anchor="middle" x="59.5" y="-191" font-family="Helvetica,sans-Serif" font-size="10.00">_solvers_module</text>
</a>
</g>
</g>
<!-- Node2 -->
<g id="Node000002" class="node">
<title>Node2</title>
<g id="a_Node000002"><a xlink:href="namespacem__riemann__solvers.html#a67523a29805d4128431484ca49de1068" target="_top" xlink:title="The goal of this subroutine is to evaluate and account for the contribution of viscous stresses in th...">
<polygon fill="white" stroke="#666666" points="277.5,-311 157.5,-311 157.5,-270 277.5,-270 277.5,-311"/>
<text text-anchor="start" x="165.5" y="-299" font-family="Helvetica,sans-Serif" font-size="10.00">m_riemann_solvers::</text>
<text text-anchor="start" x="165.5" y="-288" font-family="Helvetica,sans-Serif" font-size="10.00">s_compute_cartesian</text>
<text text-anchor="middle" x="217.5" y="-277" font-family="Helvetica,sans-Serif" font-size="10.00">_viscous_source_flux</text>
</a>
</g>
</g>
<!-- Node1&#45;&gt;Node2 -->
<g id="edge1_Node000001_Node000002" class="edge">
<title>Node1&#45;&gt;Node2</title>
<g id="a_edge1_Node000001_Node000002"><a xlink:title=" ">
<path fill="none" stroke="#63b8ff" d="M92.83,-225.12C110.86,-236.34 133.89,-250.19 155,-261.5 157.4,-262.79 159.88,-264.08 162.38,-265.36"/>
<polygon fill="#63b8ff" stroke="#63b8ff" points="161.05,-268.61 171.56,-269.96 164.19,-262.35 161.05,-268.61"/>
</a>
</g>
</g>
<!-- Node3 -->
<g id="Node000003" class="node">
<title>Node3</title>
<g id="a_Node000003"><a xlink:href="namespacem__riemann__solvers.html#a225f72f7e466dad77766ea2fe27a7a05" target="_top" xlink:title="The goal of this subroutine is to evaluate and account for the contribution of viscous stresses in th...">
<polygon fill="white" stroke="#666666" points="280,-252 155,-252 155,-211 280,-211 280,-252"/>
<text text-anchor="start" x="163" y="-240" font-family="Helvetica,sans-Serif" font-size="10.00">m_riemann_solvers::</text>
<text text-anchor="start" x="163" y="-229" font-family="Helvetica,sans-Serif" font-size="10.00">s_compute_cylindrical</text>
<text text-anchor="middle" x="217.5" y="-218" font-family="Helvetica,sans-Serif" font-size="10.00">_viscous_source_flux</text>
</a>
</g>
</g>
<!-- Node1&#45;&gt;Node3 -->
<g id="edge2_Node000001_Node000003" class="edge">
<title>Node1&#45;&gt;Node3</title>
<g id="a_edge2_Node000001_Node000003"><a xlink:title=" ">
<path fill="none" stroke="#63b8ff" d="M119.03,-214.63C127.42,-216.08 136.13,-217.59 144.74,-219.08"/>
<polygon fill="#63b8ff" stroke="#63b8ff" points="144.32,-222.56 154.77,-220.82 145.52,-215.66 144.32,-222.56"/>
</a>
</g>
</g>
<!-- Node4 -->
<g id="Node000004" class="node">
<title>Node4</title>
<g id="a_Node000004"><a xlink:href="namespacem__riemann__solvers.html#a1b018ebed82e499a0589925651bba7a7" target="_top" xlink:title=" ">
<polygon fill="white" stroke="#666666" points="277.5,-192.5 157.5,-192.5 157.5,-162.5 277.5,-162.5 277.5,-192.5"/>
<text text-anchor="start" x="165.5" y="-180.5" font-family="Helvetica,sans-Serif" font-size="10.00">m_riemann_solvers::</text>
<text text-anchor="middle" x="217.5" y="-169.5" font-family="Helvetica,sans-Serif" font-size="10.00">s_hll_riemann_solver</text>
</a>
</g>
</g>
<!-- Node1&#45;&gt;Node4 -->
<g id="edge3_Node000001_Node000004" class="edge">
<title>Node1&#45;&gt;Node4</title>
<g id="a_edge3_Node000001_Node000004"><a xlink:title=" ">
<path fill="none" stroke="#63b8ff" d="M119.03,-194.37C128.24,-192.78 137.83,-191.12 147.25,-189.49"/>
<polygon fill="#63b8ff" stroke="#63b8ff" points="148.12,-192.89 157.38,-187.73 146.93,-185.99 148.12,-192.89"/>
</a>
</g>
</g>
<!-- Node9 -->
<g id="Node000009" class="node">
<title>Node9</title>
<g id="a_Node000009"><a xlink:href="namespacem__riemann__solvers.html#a6c9d70572e9b98586bab20b028557a5a" target="_top" xlink:title="This procedure is the implementation of the Harten, Lax, van Leer, and contact (HLLC) approximate Rie...">
<polygon fill="white" stroke="#666666" points="280,-144.5 155,-144.5 155,-114.5 280,-114.5 280,-144.5"/>
<text text-anchor="start" x="163" y="-132.5" font-family="Helvetica,sans-Serif" font-size="10.00">m_riemann_solvers::</text>
<text text-anchor="middle" x="217.5" y="-121.5" font-family="Helvetica,sans-Serif" font-size="10.00">s_hllc_riemann_solver</text>
</a>
</g>
</g>
<!-- Node1&#45;&gt;Node9 -->
<g id="edge8_Node000001_Node000009" class="edge">
<title>Node1&#45;&gt;Node9</title>
<g id="a_edge8_Node000001_Node000009"><a xlink:title=" ">
<path fill="none" stroke="#63b8ff" d="M96.32,-183.82C113.77,-174.1 135.21,-162.66 155,-153.5 158.64,-151.82 162.43,-150.14 166.27,-148.51"/>
<polygon fill="#63b8ff" stroke="#63b8ff" points="167.94,-151.61 175.84,-144.55 165.26,-145.14 167.94,-151.61"/>
</a>
</g>
</g>
<!-- Node5 -->
<g id="Node000005" class="node">
<title>Node5</title>
<g id="a_Node000005"><a xlink:href="m__data__output_8fpp_8f90.html#ae249d3380b38c2174721a676b9c062cc" target="_top" xlink:title=" ">
<polygon fill="white" stroke="#666666" points="451,-192.5 332,-192.5 332,-162.5 451,-162.5 451,-192.5"/>
<text text-anchor="start" x="340" y="-180.5" font-family="Helvetica,sans-Serif" font-size="10.00">s_compute_speed_of</text>
<text text-anchor="middle" x="391.5" y="-169.5" font-family="Helvetica,sans-Serif" font-size="10.00">_sound</text>
</a>
</g>
</g>
<!-- Node4&#45;&gt;Node5 -->
<g id="edge4_Node000004_Node000005" class="edge">
<title>Node4&#45;&gt;Node5</title>
<g id="a_edge4_Node000004_Node000005"><a xlink:title=" ">
<path fill="none" stroke="#63b8ff" d="M277.69,-177.5C291.77,-177.5 306.91,-177.5 321.38,-177.5"/>
<polygon fill="#63b8ff" stroke="#63b8ff" points="321.78,-181 331.78,-177.5 321.78,-174 321.78,-181"/>
</a>
</g>
</g>
<!-- Node6 -->
<g id="Node000006" class="node">
<title>Node6</title>
<g id="a_Node000006"><a xlink:href="namespacem__riemann__solvers.html#ab679d890c95c6cb1ee3dc5e5a9ae1c19" target="_top" xlink:title="Deallocation and/or disassociation procedures that are needed to finalize the selected Riemann proble...">
<polygon fill="white" stroke="#666666" points="463,-144.5 320,-144.5 320,-114.5 463,-114.5 463,-144.5"/>
<text text-anchor="start" x="328" y="-132.5" font-family="Helvetica,sans-Serif" font-size="10.00">m_riemann_solvers::</text>
<text text-anchor="middle" x="391.5" y="-121.5" font-family="Helvetica,sans-Serif" font-size="10.00">s_finalize_riemann_solver</text>
</a>
</g>
</g>
<!-- Node4&#45;&gt;Node6 -->
<g id="edge5_Node000004_Node000006" class="edge">
<title>Node4&#45;&gt;Node6</title>
<g id="a_edge5_Node000004_Node000006"><a xlink:title=" ">
<path fill="none" stroke="#63b8ff" d="M272.45,-162.44C289.74,-157.62 309.05,-152.23 326.96,-147.23"/>
<polygon fill="#63b8ff" stroke="#63b8ff" points="328.05,-150.56 336.74,-144.5 326.17,-143.82 328.05,-150.56"/>
</a>
</g>
</g>
<!-- Node7 -->
<g id="Node000007" class="node">
<title>Node7</title>
<g id="a_Node000007"><a xlink:href="namespacem__riemann__solvers.html#a3f244d4b1bc8e00f8c3c5b6f96aa5448" target="_top" xlink:title="The computation of parameters, the allocation of memory, the association of pointers and/or the execu...">
<polygon fill="white" stroke="#666666" points="451,-96 332,-96 332,-55 451,-55 451,-96"/>
<text text-anchor="start" x="340" y="-84" font-family="Helvetica,sans-Serif" font-size="10.00">m_riemann_solvers::</text>
<text text-anchor="start" x="340" y="-73" font-family="Helvetica,sans-Serif" font-size="10.00">s_initialize_riemann</text>
<text text-anchor="middle" x="391.5" y="-62" font-family="Helvetica,sans-Serif" font-size="10.00">_solver</text>
</a>
</g>
</g>
<!-- Node4&#45;&gt;Node7 -->
<g id="edge6_Node000004_Node000007" class="edge">
<title>Node4&#45;&gt;Node7</title>
<g id="a_edge6_Node000004_Node000007"><a xlink:title=" ">
<path fill="none" stroke="#63b8ff" d="M265.33,-162.46C270.51,-159.87 275.53,-156.9 280,-153.5 301.23,-137.37 294.85,-121.75 316,-105.5 318.28,-103.75 320.68,-102.08 323.16,-100.5"/>
<polygon fill="#63b8ff" stroke="#63b8ff" points="324.96,-103.5 331.86,-95.46 321.45,-97.45 324.96,-103.5"/>
</a>
</g>
</g>
<!-- Node8 -->
<g id="Node000008" class="node">
<title>Node8</title>
<g id="a_Node000008"><a xlink:href="namespacem__riemann__solvers.html#a2b90cc8425b57f4a7ea4dc0d839e9f75" target="_top" xlink:title="The purpose of this subroutine is to populate the buffers of the left and right Riemann states variab...">
<polygon fill="white" stroke="#666666" points="467,-252 316,-252 316,-211 467,-211 467,-252"/>
<text text-anchor="start" x="324" y="-240" font-family="Helvetica,sans-Serif" font-size="10.00">m_riemann_solvers::</text>
<text text-anchor="start" x="324" y="-229" font-family="Helvetica,sans-Serif" font-size="10.00">s_populate_riemann_states</text>
<text text-anchor="middle" x="391.5" y="-218" font-family="Helvetica,sans-Serif" font-size="10.00">_variables_buffers</text>
</a>
</g>
</g>
<!-- Node4&#45;&gt;Node8 -->
<g id="edge7_Node000004_Node000008" class="edge">
<title>Node4&#45;&gt;Node8</title>
<g id="a_edge7_Node000004_Node000008"><a xlink:title=" ">
<path fill="none" stroke="#63b8ff" d="M266.41,-192.54C281.62,-197.32 298.81,-202.72 315.46,-207.94"/>
<polygon fill="#63b8ff" stroke="#63b8ff" points="314.58,-211.33 325.17,-210.99 316.68,-204.65 314.58,-211.33"/>
</a>
</g>
</g>
<!-- Node9&#45;&gt;Node5 -->
<g id="edge11_Node000009_Node000005" class="edge">
<title>Node9&#45;&gt;Node5</title>
<g id="a_edge11_Node000009_Node000005"><a xlink:title=" ">
<path fill="none" stroke="#63b8ff" d="M272.45,-144.56C289.74,-149.38 309.05,-154.77 326.96,-159.77"/>
<polygon fill="#63b8ff" stroke="#63b8ff" points="326.17,-163.18 336.74,-162.5 328.05,-156.44 326.17,-163.18"/>
</a>
</g>
</g>
<!-- Node9&#45;&gt;Node6 -->
<g id="edge12_Node000009_Node000006" class="edge">
<title>Node9&#45;&gt;Node6</title>
<g id="a_edge12_Node000009_Node000006"><a xlink:title=" ">
<path fill="none" stroke="#63b8ff" d="M280.11,-129.5C289.7,-129.5 299.72,-129.5 309.66,-129.5"/>
<polygon fill="#63b8ff" stroke="#63b8ff" points="309.96,-133 319.96,-129.5 309.96,-126 309.96,-133"/>
</a>
</g>
</g>
<!-- Node9&#45;&gt;Node7 -->
<g id="edge13_Node000009_Node000007" class="edge">
<title>Node9&#45;&gt;Node7</title>
<g id="a_edge13_Node000009_Node000007"><a xlink:title=" ">
<path fill="none" stroke="#63b8ff" d="M266.41,-114.46C283.68,-109.04 303.51,-102.81 322.19,-96.95"/>
<polygon fill="#63b8ff" stroke="#63b8ff" points="323.33,-100.26 331.83,-93.92 321.24,-93.58 323.33,-100.26"/>
</a>
</g>
</g>
<!-- Node9&#45;&gt;Node8 -->
<g id="edge14_Node000009_Node000008" class="edge">
<title>Node9&#45;&gt;Node8</title>
<g id="a_edge14_Node000009_Node000008"><a xlink:title=" ">
<path fill="none" stroke="#63b8ff" d="M265.33,-144.54C270.51,-147.13 275.53,-150.1 280,-153.5 301.23,-169.63 294.85,-185.25 316,-201.5 317.84,-202.91 319.76,-204.27 321.73,-205.57"/>
<polygon fill="#63b8ff" stroke="#63b8ff" points="320.33,-208.81 330.71,-210.93 323.92,-202.8 320.33,-208.81"/>
</a>
</g>
</g>
<!-- Node10 -->
<g id="Node000010" class="node">
<title>Node10</title>
<g id="a_Node000010"><a xlink:href="m__bubbles_8fpp_8f90.html#ab5cad916879a4c85674fcadd46ac3acd" target="_top" xlink:title="Function that computes the bubble wall pressure for Keller–Miksis bubbles.">
<polygon fill="white" stroke="#666666" points="427.5,-19 355.5,-19 355.5,0 427.5,0 427.5,-19"/>
<text text-anchor="middle" x="391.5" y="-7" font-family="Helvetica,sans-Serif" font-size="10.00">f_cpbw_km</text>
</a>
</g>
</g>
<!-- Node9&#45;&gt;Node10 -->
<g id="edge9_Node000009_Node000010" class="edge">
<title>Node9&#45;&gt;Node10</title>
<g id="a_edge9_Node000009_Node000010"><a xlink:title=" ">
<path fill="none" stroke="#63b8ff" d="M233.37,-114.48C251.67,-96.54 284.24,-66.34 316,-45.5 328.95,-37 344.21,-29.28 357.53,-23.18"/>
<polygon fill="#63b8ff" stroke="#63b8ff" points="359.12,-26.3 366.83,-19.04 356.27,-19.91 359.12,-26.3"/>
</a>
</g>
</g>
<!-- Node10&#45;&gt;Node10 -->
<g id="edge10_Node000010_Node000010" class="edge">
<title>Node10&#45;&gt;Node10</title>
<g id="a_edge10_Node000010_Node000010"><a xlink:title=" ">
<path fill="none" stroke="#63b8ff" d="M364.68,-19.08C351.63,-27.73 360.57,-37 391.5,-37 412.28,-37 423.13,-32.82 424.06,-27.45"/>
<polygon fill="#63b8ff" stroke="#63b8ff" points="426.86,-25.35 418.32,-19.08 421.09,-29.31 426.86,-25.35"/>
</a>
</g>
</g>
</g>
</svg>
