<?xml version="1.0" encoding="UTF-8" standalone="no"?>
<!DOCTYPE svg PUBLIC "-//W3C//DTD SVG 1.1//EN"
 "http://www.w3.org/Graphics/SVG/1.1/DTD/svg11.dtd">
<!-- Generated by graphviz version 2.43.0 (0)
 -->
<!-- Title: m_cbc::s_cbc Pages: 1 -->
<svg width="472pt" height="748pt"
 viewBox="0.00 0.00 472.00 747.50" xmlns="http://www.w3.org/2000/svg" xmlns:xlink="http://www.w3.org/1999/xlink">
<g id="graph0" class="graph" transform="scale(1 1) rotate(0) translate(4 743.5)">
<title>m_cbc::s_cbc</title>
<!-- Node1 -->
<g id="node1" class="node">
<title>Node1</title>
<g id="a_node1"><a xlink:title="The following is the implementation of the CBC based on the work of Thompson (1987,...">
<polygon fill="#999999" stroke="#666666" points="81,-352 0,-352 0,-333 81,-333 81,-352"/>
<text text-anchor="middle" x="40.5" y="-340" font-family="Helvetica,sans-Serif" font-size="10.00">m_cbc::s_cbc</text>
</a>
</g>
</g>
<!-- Node2 -->
<g id="node2" class="node">
<title>Node2</title>
<g id="a_node2"><a xlink:href="namespacem__cbc.html#a76e19dea2a654c9a7f311baa16ef118c" target="_top" xlink:title=" ">
<polygon fill="white" stroke="#666666" points="277.5,-739.5 132.5,-739.5 132.5,-709.5 277.5,-709.5 277.5,-739.5"/>
<text text-anchor="start" x="140.5" y="-727.5" font-family="Helvetica,sans-Serif" font-size="10.00">m_cbc::s_associate</text>
<text text-anchor="middle" x="205" y="-716.5" font-family="Helvetica,sans-Serif" font-size="10.00">_cbc_coefficients_pointers</text>
</a>
</g>
</g>
<!-- Node1&#45;&gt;Node2 -->
<g id="edge1" class="edge">
<title>Node1&#45;&gt;Node2</title>
<path fill="none" stroke="#63b8ff" d="M42.21,-352.18C46.17,-403.93 67.28,-647.64 117,-700.5 119.06,-702.69 121.31,-704.69 123.69,-706.52"/>
<polygon fill="#63b8ff" stroke="#63b8ff" points="121.99,-709.58 132.29,-712.05 125.78,-703.7 121.99,-709.58"/>
</g>
<!-- Node3 -->
<g id="node3" class="node">
<title>Node3</title>
<g id="a_node3"><a xlink:href="namespacem__compute__cbc.html#a89ae3c53a30f581fa783a21220420a30" target="_top" xlink:title="L variables for the constant pressure subsonic outflow CBC see pg. 455 Thompson (1990)....">
<polygon fill="white" stroke="#666666" points="284.5,-691 125.5,-691 125.5,-650 284.5,-650 284.5,-691"/>
<text text-anchor="start" x="133.5" y="-679" font-family="Helvetica,sans-Serif" font-size="10.00">m_compute_cbc::s_compute</text>
<text text-anchor="start" x="133.5" y="-668" font-family="Helvetica,sans-Serif" font-size="10.00">_constant_pressure_subsonic</text>
<text text-anchor="middle" x="205" y="-657" font-family="Helvetica,sans-Serif" font-size="10.00">_outflow_l</text>
</a>
</g>
</g>
<!-- Node1&#45;&gt;Node3 -->
<g id="edge2" class="edge">
<title>Node1&#45;&gt;Node3</title>
<path fill="none" stroke="#63b8ff" d="M42.73,-352.3C48.71,-398.72 76.27,-596.2 117,-640.5 117.91,-641.49 118.86,-642.45 119.84,-643.38"/>
<polygon fill="#63b8ff" stroke="#63b8ff" points="117.91,-646.32 127.89,-649.89 122.31,-640.88 117.91,-646.32"/>
</g>
<!-- Node4 -->
<g id="node4" class="node">
<title>Node4</title>
<g id="a_node4"><a xlink:href="namespacem__compute__cbc.html#abc270e72f7a6ec00358853f535901c53" target="_top" xlink:title="The L variables for the force&#45;free subsonic outflow CBC, see pg. 454 of Thompson (1990)....">
<polygon fill="white" stroke="#666666" points="289.5,-631.5 120.5,-631.5 120.5,-601.5 289.5,-601.5 289.5,-631.5"/>
<text text-anchor="start" x="128.5" y="-619.5" font-family="Helvetica,sans-Serif" font-size="10.00">m_compute_cbc::s_compute</text>
<text text-anchor="middle" x="205" y="-608.5" font-family="Helvetica,sans-Serif" font-size="10.00">_force_free_subsonic_outflow_l</text>
</a>
</g>
</g>
<!-- Node1&#45;&gt;Node4 -->
<g id="edge3" class="edge">
<title>Node1&#45;&gt;Node4</title>
<path fill="none" stroke="#63b8ff" d="M41.32,-352.06C41.19,-388.88 45.79,-522.98 117,-592.5 118.09,-593.56 119.21,-594.57 120.38,-595.55"/>
<polygon fill="#63b8ff" stroke="#63b8ff" points="118.39,-598.42 128.57,-601.33 122.43,-592.7 118.39,-598.42"/>
</g>
<!-- Node5 -->
<g id="node5" class="node">
<title>Node5</title>
<g id="a_node5"><a xlink:href="namespacem__compute__cbc.html#a778791b2a83bd729c4439d14a8cdf440" target="_top" xlink:title="The L variables for the nonreflecting subsonic buffer CBC see pg. 13 of Thompson (1987)....">
<polygon fill="white" stroke="#666666" points="282.5,-583 127.5,-583 127.5,-542 282.5,-542 282.5,-583"/>
<text text-anchor="start" x="135.5" y="-571" font-family="Helvetica,sans-Serif" font-size="10.00">m_compute_cbc::s_compute</text>
<text text-anchor="start" x="135.5" y="-560" font-family="Helvetica,sans-Serif" font-size="10.00">_nonreflecting_subsonic</text>
<text text-anchor="middle" x="205" y="-549" font-family="Helvetica,sans-Serif" font-size="10.00">_buffer_l</text>
</a>
</g>
</g>
<!-- Node1&#45;&gt;Node5 -->
<g id="edge4" class="edge">
<title>Node1&#45;&gt;Node5</title>
<path fill="none" stroke="#63b8ff" d="M42.46,-352C46.06,-382.82 61.59,-481.04 117,-533.5 117.81,-534.27 118.64,-535.01 119.49,-535.74"/>
<polygon fill="#63b8ff" stroke="#63b8ff" points="117.48,-538.61 127.6,-541.76 121.65,-532.99 117.48,-538.61"/>
</g>
<!-- Node6 -->
<g id="node6" class="node">
<title>Node6</title>
<g id="a_node6"><a xlink:href="namespacem__compute__cbc.html#a7d00c6b7ed8473b242e7f12cd99f2165" target="_top" xlink:title="The L variables for the nonreflecting subsonic inflow CBC see pg. 455, Thompson (1990)....">
<polygon fill="white" stroke="#666666" points="282.5,-524 127.5,-524 127.5,-483 282.5,-483 282.5,-524"/>
<text text-anchor="start" x="135.5" y="-512" font-family="Helvetica,sans-Serif" font-size="10.00">m_compute_cbc::s_compute</text>
<text text-anchor="start" x="135.5" y="-501" font-family="Helvetica,sans-Serif" font-size="10.00">_nonreflecting_subsonic</text>
<text text-anchor="middle" x="205" y="-490" font-family="Helvetica,sans-Serif" font-size="10.00">_inflow_l</text>
</a>
</g>
</g>
<!-- Node1&#45;&gt;Node6 -->
<g id="edge5" class="edge">
<title>Node1&#45;&gt;Node6</title>
<path fill="none" stroke="#63b8ff" d="M44.31,-352.04C51.91,-376.19 75.14,-440.2 117,-474.5 118.19,-475.48 119.42,-476.42 120.68,-477.34"/>
<polygon fill="#63b8ff" stroke="#63b8ff" points="119.06,-480.46 129.37,-482.92 122.85,-474.57 119.06,-480.46"/>
</g>
<!-- Node7 -->
<g id="node7" class="node">
<title>Node7</title>
<g id="a_node7"><a xlink:href="namespacem__compute__cbc.html#a3eb78f39f1676fad772073e1cdb33eb3" target="_top" xlink:title="The L variables for the nonreflecting subsonic outflow CBC see pg. 454 of Thompson (1990)....">
<polygon fill="white" stroke="#666666" points="282.5,-465 127.5,-465 127.5,-424 282.5,-424 282.5,-465"/>
<text text-anchor="start" x="135.5" y="-453" font-family="Helvetica,sans-Serif" font-size="10.00">m_compute_cbc::s_compute</text>
<text text-anchor="start" x="135.5" y="-442" font-family="Helvetica,sans-Serif" font-size="10.00">_nonreflecting_subsonic</text>
<text text-anchor="middle" x="205" y="-431" font-family="Helvetica,sans-Serif" font-size="10.00">_outflow_l</text>
</a>
</g>
</g>
<!-- Node1&#45;&gt;Node7 -->
<g id="edge6" class="edge">
<title>Node1&#45;&gt;Node7</title>
<path fill="none" stroke="#63b8ff" d="M49.3,-352.27C61.98,-367.56 88.53,-397.17 117,-414.5 119.96,-416.3 123.03,-418.01 126.19,-419.63"/>
<polygon fill="#63b8ff" stroke="#63b8ff" points="124.74,-422.82 135.27,-423.97 127.76,-416.5 124.74,-422.82"/>
</g>
<!-- Node8 -->
<g id="node8" class="node">
<title>Node8</title>
<g id="a_node8"><a xlink:href="namespacem__compute__cbc.html#a0292a4935087ef5f9447a259f03e8808" target="_top" xlink:title="The L variables for the slip wall CBC, see pg. 451 of Thompson (1990). At the slip wall (frictionless...">
<polygon fill="white" stroke="#666666" points="282.5,-405.5 127.5,-405.5 127.5,-375.5 282.5,-375.5 282.5,-405.5"/>
<text text-anchor="start" x="135.5" y="-393.5" font-family="Helvetica,sans-Serif" font-size="10.00">m_compute_cbc::s_compute</text>
<text text-anchor="middle" x="205" y="-382.5" font-family="Helvetica,sans-Serif" font-size="10.00">_slip_wall_l</text>
</a>
</g>
</g>
<!-- Node1&#45;&gt;Node8 -->
<g id="edge7" class="edge">
<title>Node1&#45;&gt;Node8</title>
<path fill="none" stroke="#63b8ff" d="M70.82,-352.11C84.77,-356.61 101.7,-361.96 117,-366.5 123.92,-368.55 131.16,-370.64 138.4,-372.69"/>
<polygon fill="#63b8ff" stroke="#63b8ff" points="137.64,-376.12 148.21,-375.45 139.54,-369.38 137.64,-376.12"/>
</g>
<!-- Node9 -->
<g id="node9" class="node">
<title>Node9</title>
<g id="a_node9"><a xlink:href="namespacem__cbc.html#ab28553bfffb2974f19d2dc68847ae8d4" target="_top" xlink:title=" ">
<polygon fill="white" stroke="#666666" points="276,-357.5 134,-357.5 134,-327.5 276,-327.5 276,-357.5"/>
<text text-anchor="start" x="142" y="-345.5" font-family="Helvetica,sans-Serif" font-size="10.00">m_cbc::s_compute_speed</text>
<text text-anchor="middle" x="205" y="-334.5" font-family="Helvetica,sans-Serif" font-size="10.00">_of_sound</text>
</a>
</g>
</g>
<!-- Node1&#45;&gt;Node9 -->
<g id="edge8" class="edge">
<title>Node1&#45;&gt;Node9</title>
<path fill="none" stroke="#63b8ff" d="M81.25,-342.5C94.15,-342.5 108.96,-342.5 123.73,-342.5"/>
<polygon fill="#63b8ff" stroke="#63b8ff" points="123.92,-346 133.92,-342.5 123.92,-339 123.92,-346"/>
</g>
<!-- Node10 -->
<g id="node10" class="node">
<title>Node10</title>
<g id="a_node10"><a xlink:href="namespacem__compute__cbc.html#ab1169cfc4fc2fcfd9e354608cad022cc" target="_top" xlink:title="L variables for the supersonic inflow CBC, see pg. 453 Thompson (1990). The supersonic inflow CBC is ...">
<polygon fill="white" stroke="#666666" points="282.5,-309.5 127.5,-309.5 127.5,-279.5 282.5,-279.5 282.5,-309.5"/>
<text text-anchor="start" x="135.5" y="-297.5" font-family="Helvetica,sans-Serif" font-size="10.00">m_compute_cbc::s_compute</text>
<text text-anchor="middle" x="205" y="-286.5" font-family="Helvetica,sans-Serif" font-size="10.00">_supersonic_inflow_l</text>
</a>
</g>
</g>
<!-- Node1&#45;&gt;Node10 -->
<g id="edge9" class="edge">
<title>Node1&#45;&gt;Node10</title>
<path fill="none" stroke="#63b8ff" d="M70.82,-332.89C84.77,-328.39 101.7,-323.04 117,-318.5 123.92,-316.45 131.16,-314.36 138.4,-312.31"/>
<polygon fill="#63b8ff" stroke="#63b8ff" points="139.54,-315.62 148.21,-309.55 137.64,-308.88 139.54,-315.62"/>
</g>
<!-- Node11 -->
<g id="node11" class="node">
<title>Node11</title>
<g id="a_node11"><a xlink:href="namespacem__compute__cbc.html#a6502e68cf521676a802baf99653afe40" target="_top" xlink:title="L variables for the supersonic outflow CBC, see pg. 453 of Thompson (1990). For the supersonic outflo...">
<polygon fill="white" stroke="#666666" points="282.5,-261.5 127.5,-261.5 127.5,-231.5 282.5,-231.5 282.5,-261.5"/>
<text text-anchor="start" x="135.5" y="-249.5" font-family="Helvetica,sans-Serif" font-size="10.00">m_compute_cbc::s_compute</text>
<text text-anchor="middle" x="205" y="-238.5" font-family="Helvetica,sans-Serif" font-size="10.00">_supersonic_outflow_l</text>
</a>
</g>
</g>
<!-- Node1&#45;&gt;Node11 -->
<g id="edge10" class="edge">
<title>Node1&#45;&gt;Node11</title>
<path fill="none" stroke="#63b8ff" d="M49.18,-332.52C61.69,-316.94 88,-286.93 117,-270.5 120.09,-268.75 123.32,-267.12 126.64,-265.6"/>
<polygon fill="#63b8ff" stroke="#63b8ff" points="128.29,-268.71 136.17,-261.63 125.59,-262.25 128.29,-268.71"/>
</g>
<!-- Node12 -->
<g id="node12" class="node">
<title>Node12</title>
<g id="a_node12"><a xlink:href="namespacem__variables__conversion.html#a103ba56044f0a89e365ed91ca11eb38a" target="_top" xlink:title="The following subroutine handles the conversion between the primitive variables and the Eulerian flux...">
<polygon fill="white" stroke="#666666" points="272.5,-213 137.5,-213 137.5,-172 272.5,-172 272.5,-213"/>
<text text-anchor="start" x="145.5" y="-201" font-family="Helvetica,sans-Serif" font-size="10.00">m_variables_conversion</text>
<text text-anchor="start" x="145.5" y="-190" font-family="Helvetica,sans-Serif" font-size="10.00">::s_convert_primitive</text>
<text text-anchor="middle" x="205" y="-179" font-family="Helvetica,sans-Serif" font-size="10.00">_to_flux_variables</text>
</a>
</g>
</g>
<!-- Node1&#45;&gt;Node12 -->
<g id="edge11" class="edge">
<title>Node1&#45;&gt;Node12</title>
<path fill="none" stroke="#63b8ff" d="M44.96,-332.86C53.56,-310.25 78.05,-253.4 117,-222.5 120.55,-219.69 124.37,-217.13 128.37,-214.81"/>
<polygon fill="#63b8ff" stroke="#63b8ff" points="130.15,-217.83 137.37,-210.08 126.89,-211.63 130.15,-217.83"/>
</g>
<!-- Node13 -->
<g id="node13" class="node">
<title>Node13</title>
<g id="a_node13"><a xlink:href="namespacem__variables__conversion.html#a0e52444cc72f2fd0ea3a6d3543cfa32e" target="_top" xlink:title=" ">
<polygon fill="white" stroke="#666666" points="464,-188 329,-188 329,-147 464,-147 464,-188"/>
<text text-anchor="start" x="337" y="-176" font-family="Helvetica,sans-Serif" font-size="10.00">m_variables_conversion</text>
<text text-anchor="start" x="337" y="-165" font-family="Helvetica,sans-Serif" font-size="10.00">::s_convert_species_to</text>
<text text-anchor="middle" x="396.5" y="-154" font-family="Helvetica,sans-Serif" font-size="10.00">_mixture_variables_acc</text>
</a>
</g>
</g>
<!-- Node1&#45;&gt;Node13 -->
<g id="edge13" class="edge">
<title>Node1&#45;&gt;Node13</title>
<path fill="none" stroke="#63b8ff" d="M42.07,-332.85C44.51,-301.68 56.86,-203.41 117,-163.5 176.45,-124.06 259.87,-131.4 319.9,-144.71"/>
<polygon fill="#63b8ff" stroke="#63b8ff" points="319.16,-148.14 329.7,-146.98 320.74,-141.32 319.16,-148.14"/>
</g>
<!-- Node14 -->
<g id="node14" class="node">
<title>Node14</title>
<g id="a_node14"><a xlink:href="namespacem__variables__conversion.html#a915eb0e3917fc09375124cf3df2c6df6" target="_top" xlink:title=" ">
<polygon fill="white" stroke="#666666" points="293,-115 117,-115 117,-74 293,-74 293,-115"/>
<text text-anchor="start" x="125" y="-103" font-family="Helvetica,sans-Serif" font-size="10.00">m_variables_conversion</text>
<text text-anchor="start" x="125" y="-92" font-family="Helvetica,sans-Serif" font-size="10.00">::s_convert_species_to</text>
<text text-anchor="middle" x="205" y="-81" font-family="Helvetica,sans-Serif" font-size="10.00">_mixture_variables_bubbles_acc</text>
</a>
</g>
</g>
<!-- Node1&#45;&gt;Node14 -->
<g id="edge14" class="edge">
<title>Node1&#45;&gt;Node14</title>
<path fill="none" stroke="#63b8ff" d="M42.2,-332.54C45.05,-299.24 58.61,-190.38 117,-129.5 120.13,-126.24 123.6,-123.27 127.3,-120.58"/>
<polygon fill="#63b8ff" stroke="#63b8ff" points="129.26,-123.48 135.74,-115.1 125.45,-117.61 129.26,-123.48"/>
</g>
<!-- Node15 -->
<g id="node15" class="node">
<title>Node15</title>
<g id="a_node15"><a xlink:href="namespacem__cbc.html#a8d4bf0d35fea6a2aed9771ce39dc651c" target="_top" xlink:title="Deallocation and/or the disassociation procedures that are necessary in order to finalize the CBC app...">
<polygon fill="white" stroke="#666666" points="266,-56 144,-56 144,-37 266,-37 266,-56"/>
<text text-anchor="middle" x="205" y="-44" font-family="Helvetica,sans-Serif" font-size="10.00">m_cbc::s_finalize_cbc</text>
</a>
</g>
</g>
<!-- Node1&#45;&gt;Node15 -->
<g id="edge15" class="edge">
<title>Node1&#45;&gt;Node15</title>
<path fill="none" stroke="#63b8ff" d="M42.76,-333C48.83,-288.83 76.35,-104.13 117,-65.5 121.97,-60.78 127.83,-57.12 134.12,-54.3"/>
<polygon fill="#63b8ff" stroke="#63b8ff" points="135.46,-57.54 143.59,-50.75 133,-50.99 135.46,-57.54"/>
</g>
<!-- Node16 -->
<g id="node16" class="node">
<title>Node16</title>
<g id="a_node16"><a xlink:href="namespacem__cbc.html#ae32673f5dc3342969a7b48e4348271eb" target="_top" xlink:title="The computation of parameters, the allocation of memory, the association of pointers and/or the execu...">
<polygon fill="white" stroke="#666666" points="269,-19 141,-19 141,0 269,0 269,-19"/>
<text text-anchor="middle" x="205" y="-7" font-family="Helvetica,sans-Serif" font-size="10.00">m_cbc::s_initialize_cbc</text>
</a>
</g>
</g>
<!-- Node1&#45;&gt;Node16 -->
<g id="edge16" class="edge">
<title>Node1&#45;&gt;Node16</title>
<path fill="none" stroke="#63b8ff" d="M42.47,-332.72C47.44,-284.54 71.63,-72.93 117,-28.5 121.25,-24.34 126.18,-21 131.49,-18.33"/>
<polygon fill="#63b8ff" stroke="#63b8ff" points="132.89,-21.55 140.75,-14.44 130.18,-15.09 132.89,-21.55"/>
</g>
<!-- Node12&#45;&gt;Node13 -->
<g id="edge12" class="edge">
<title>Node12&#45;&gt;Node13</title>
<path fill="none" stroke="#63b8ff" d="M272.54,-183.72C287.5,-181.75 303.5,-179.64 318.83,-177.61"/>
<polygon fill="#63b8ff" stroke="#63b8ff" points="319.34,-181.08 328.8,-176.3 318.42,-174.14 319.34,-181.08"/>
</g>
</g>
</svg>
