<?xml version="1.0" encoding="UTF-8" standalone="no"?>
<!DOCTYPE svg PUBLIC "-//W3C//DTD SVG 1.1//EN"
 "http://www.w3.org/Graphics/SVG/1.1/DTD/svg11.dtd">
<!-- Generated by graphviz version 2.43.0 (0)
 -->
<!-- Title: m_variables_conversion::s_convert_species_to_mixture_variables_bubbles_acc Pages: 1 -->
<svg width="970pt" height="220pt"
 viewBox="0.00 0.00 970.00 220.00" xmlns="http://www.w3.org/2000/svg" xmlns:xlink="http://www.w3.org/1999/xlink">
<g id="graph0" class="graph" transform="scale(1 1) rotate(0) translate(4 216)">
<title>m_variables_conversion::s_convert_species_to_mixture_variables_bubbles_acc</title>
<!-- Node1 -->
<g id="Node000001" class="node">
<title>Node1</title>
<g id="a_Node000001"><a xlink:title=" ">
<polygon fill="#999999" stroke="#666666" points="962,-106.5 786,-106.5 786,-65.5 962,-65.5 962,-106.5"/>
<text text-anchor="start" x="794" y="-94.5" font-family="Helvetica,sans-Serif" font-size="10.00">m_variables_conversion</text>
<text text-anchor="start" x="794" y="-83.5" font-family="Helvetica,sans-Serif" font-size="10.00">::s_convert_species_to</text>
<text text-anchor="middle" x="874" y="-72.5" font-family="Helvetica,sans-Serif" font-size="10.00">_mixture_variables_bubbles_acc</text>
</a>
</g>
</g>
<!-- Node2 -->
<g id="Node000002" class="node">
<title>Node2</title>
<g id="a_Node000002"><a xlink:href="namespacem__cbc.html#a1463206b8a0492feba405c93fbdc1929" target="_top" xlink:title="The following is the implementation of the CBC based on the work of Thompson (1987,...">
<polygon fill="white" stroke="#666666" points="550.5,-120.5 469.5,-120.5 469.5,-101.5 550.5,-101.5 550.5,-120.5"/>
<text text-anchor="middle" x="510" y="-108.5" font-family="Helvetica,sans-Serif" font-size="10.00">m_cbc::s_cbc</text>
</a>
</g>
</g>
<!-- Node1&#45;&gt;Node2 -->
<g id="edge1_Node000001_Node000002" class="edge">
<title>Node1&#45;&gt;Node2</title>
<g id="a_edge1_Node000001_Node000002"><a xlink:title=" ">
<path fill="none" stroke="#63b8ff" d="M775.55,-77.57C727.08,-75.13 667.73,-74.79 615,-82 588.07,-85.68 558.28,-94.5 537.51,-101.45"/>
<polygon fill="#63b8ff" stroke="#63b8ff" points="775.55,-81.07 785.72,-78.12 775.93,-74.08 775.55,-81.07"/>
</a>
</g>
</g>
<!-- Node8 -->
<g id="Node000008" class="node">
<title>Node8</title>
<g id="a_Node000008"><a xlink:href="namespacem__variables__conversion.html#a86ac76fa70eabaede1b0f3a4af740560" target="_top" xlink:title="The following procedure handles the conversion between the conservative variables and the primitive v...">
<polygon fill="white" stroke="#666666" points="579,-54.5 441,-54.5 441,-13.5 579,-13.5 579,-54.5"/>
<text text-anchor="start" x="449" y="-42.5" font-family="Helvetica,sans-Serif" font-size="10.00">m_variables_conversion</text>
<text text-anchor="start" x="449" y="-31.5" font-family="Helvetica,sans-Serif" font-size="10.00">::s_convert_conservative</text>
<text text-anchor="middle" x="510" y="-20.5" font-family="Helvetica,sans-Serif" font-size="10.00">_to_primitive_variables</text>
</a>
</g>
</g>
<!-- Node1&#45;&gt;Node8 -->
<g id="edge9_Node000001_Node000008" class="edge">
<title>Node1&#45;&gt;Node8</title>
<g id="a_edge9_Node000001_Node000008"><a xlink:title=" ">
<path fill="none" stroke="#63b8ff" d="M775.62,-72.01C713.47,-63.08 634.46,-51.73 579.02,-43.77"/>
<polygon fill="#63b8ff" stroke="#63b8ff" points="775.44,-75.52 785.83,-73.48 776.43,-68.59 775.44,-75.52"/>
</a>
</g>
</g>
<!-- Node11 -->
<g id="Node000011" class="node">
<title>Node11</title>
<g id="a_Node000011"><a xlink:href="namespacem__variables__conversion.html#a103ba56044f0a89e365ed91ca11eb38a" target="_top" xlink:title="The following subroutine handles the conversion between the primitive variables and the Eulerian flux...">
<polygon fill="white" stroke="#666666" points="750,-131.5 615,-131.5 615,-90.5 750,-90.5 750,-131.5"/>
<text text-anchor="start" x="623" y="-119.5" font-family="Helvetica,sans-Serif" font-size="10.00">m_variables_conversion</text>
<text text-anchor="start" x="623" y="-108.5" font-family="Helvetica,sans-Serif" font-size="10.00">::s_convert_primitive</text>
<text text-anchor="middle" x="682.5" y="-97.5" font-family="Helvetica,sans-Serif" font-size="10.00">_to_flux_variables</text>
</a>
</g>
</g>
<!-- Node1&#45;&gt;Node11 -->
<g id="edge15_Node000001_Node000011" class="edge">
<title>Node1&#45;&gt;Node11</title>
<g id="a_edge15_Node000001_Node000011"><a xlink:title=" ">
<path fill="none" stroke="#63b8ff" d="M775.64,-98.84C767.03,-99.98 758.45,-101.11 750.18,-102.2"/>
<polygon fill="#63b8ff" stroke="#63b8ff" points="776.28,-102.29 785.74,-97.51 775.37,-95.35 776.28,-102.29"/>
</a>
</g>
</g>
<!-- Node12 -->
<g id="Node000012" class="node">
<title>Node12</title>
<g id="a_Node000012"><a xlink:href="namespacem__data__output.html#a33a72559ec5cfdedf7162a8269d41201" target="_top" xlink:title="The goal of the procedure is to output to the run&#45;time information file the stability criteria extrem...">
<polygon fill="white" stroke="#666666" points="405,-172 274,-172 274,-142 405,-142 405,-172"/>
<text text-anchor="start" x="282" y="-160" font-family="Helvetica,sans-Serif" font-size="10.00">m_data_output::s_write</text>
<text text-anchor="middle" x="339.5" y="-149" font-family="Helvetica,sans-Serif" font-size="10.00">_run_time_information</text>
</a>
</g>
</g>
<!-- Node1&#45;&gt;Node12 -->
<g id="edge17_Node000001_Node000012" class="edge">
<title>Node1&#45;&gt;Node12</title>
<g id="a_edge17_Node000001_Node000012"><a xlink:title=" ">
<path fill="none" stroke="#63b8ff" d="M827.86,-111.17C805.21,-122.49 776.93,-134.7 750,-141 630.84,-168.87 486.95,-166.51 405.35,-161.96"/>
<polygon fill="#63b8ff" stroke="#63b8ff" points="829.57,-114.23 836.88,-106.56 826.39,-108 829.57,-114.23"/>
</a>
</g>
</g>
<!-- Node3 -->
<g id="Node000003" class="node">
<title>Node3</title>
<g id="a_Node000003"><a xlink:href="namespacem__rhs.html#a361f0038973069452cc88430c49bcfe8" target="_top" xlink:title=" ">
<polygon fill="white" stroke="#666666" points="402.5,-120.5 276.5,-120.5 276.5,-101.5 402.5,-101.5 402.5,-120.5"/>
<text text-anchor="middle" x="339.5" y="-108.5" font-family="Helvetica,sans-Serif" font-size="10.00">m_rhs::s_compute_rhs</text>
</a>
</g>
</g>
<!-- Node2&#45;&gt;Node3 -->
<g id="edge2_Node000002_Node000003" class="edge">
<title>Node2&#45;&gt;Node3</title>
<g id="a_edge2_Node000002_Node000003"><a xlink:title=" ">
<path fill="none" stroke="#63b8ff" d="M459.33,-111C441.53,-111 421.23,-111 402.51,-111"/>
<polygon fill="#63b8ff" stroke="#63b8ff" points="459.49,-114.5 469.49,-111 459.49,-107.5 459.49,-114.5"/>
</a>
</g>
</g>
<!-- Node4 -->
<g id="Node000004" class="node">
<title>Node4</title>
<g id="a_Node000004"><a xlink:href="namespacem__time__steppers.html#a8876606e6152b6c8f35272074a088142" target="_top" xlink:title="1st order TVD RK time&#45;stepping algorithm">
<polygon fill="white" stroke="#666666" points="220,-164 107,-164 107,-134 220,-134 220,-164"/>
<text text-anchor="start" x="115" y="-152" font-family="Helvetica,sans-Serif" font-size="10.00">m_time_steppers::s</text>
<text text-anchor="middle" x="163.5" y="-141" font-family="Helvetica,sans-Serif" font-size="10.00">_1st_order_tvd_rk</text>
</a>
</g>
</g>
<!-- Node3&#45;&gt;Node4 -->
<g id="edge3_Node000003_Node000004" class="edge">
<title>Node3&#45;&gt;Node4</title>
<g id="a_edge3_Node000003_Node000004"><a xlink:title=" ">
<path fill="none" stroke="#63b8ff" d="M284.8,-122.73C264.32,-127.2 240.94,-132.31 220.27,-136.82"/>
<polygon fill="#63b8ff" stroke="#63b8ff" points="285.57,-126.14 294.59,-120.59 284.08,-119.3 285.57,-126.14"/>
</a>
</g>
</g>
<!-- Node6 -->
<g id="Node000006" class="node">
<title>Node6</title>
<g id="a_Node000006"><a xlink:href="namespacem__time__steppers.html#adb82b6c6041c825d0999e6890ed825cc" target="_top" xlink:title="2nd order TVD RK time&#45;stepping algorithm">
<polygon fill="white" stroke="#666666" points="220,-116 107,-116 107,-86 220,-86 220,-116"/>
<text text-anchor="start" x="115" y="-104" font-family="Helvetica,sans-Serif" font-size="10.00">m_time_steppers::s</text>
<text text-anchor="middle" x="163.5" y="-93" font-family="Helvetica,sans-Serif" font-size="10.00">_2nd_order_tvd_rk</text>
</a>
</g>
</g>
<!-- Node3&#45;&gt;Node6 -->
<g id="edge5_Node000003_Node000006" class="edge">
<title>Node3&#45;&gt;Node6</title>
<g id="a_edge5_Node000003_Node000006"><a xlink:title=" ">
<path fill="none" stroke="#63b8ff" d="M266.16,-106.84C250.75,-105.96 234.7,-105.03 220.04,-104.19"/>
<polygon fill="#63b8ff" stroke="#63b8ff" points="265.99,-110.34 276.17,-107.42 266.39,-103.35 265.99,-110.34"/>
</a>
</g>
</g>
<!-- Node7 -->
<g id="Node000007" class="node">
<title>Node7</title>
<g id="a_Node000007"><a xlink:href="namespacem__time__steppers.html#ae08efa7df1f8efae0f726dd5114176a8" target="_top" xlink:title="3rd order TVD RK time&#45;stepping algorithm">
<polygon fill="white" stroke="#666666" points="220,-212 107,-212 107,-182 220,-182 220,-212"/>
<text text-anchor="start" x="115" y="-200" font-family="Helvetica,sans-Serif" font-size="10.00">m_time_steppers::s</text>
<text text-anchor="middle" x="163.5" y="-189" font-family="Helvetica,sans-Serif" font-size="10.00">_3rd_order_tvd_rk</text>
</a>
</g>
</g>
<!-- Node3&#45;&gt;Node7 -->
<g id="edge7_Node000003_Node000007" class="edge">
<title>Node3&#45;&gt;Node7</title>
<g id="a_edge7_Node000003_Node000007"><a xlink:title=" ">
<path fill="none" stroke="#63b8ff" d="M290.43,-124.3C284.68,-126.78 279.06,-129.66 274,-133 254.04,-146.17 258.05,-159.96 238,-173 232.49,-176.59 226.39,-179.68 220.14,-182.34"/>
<polygon fill="#63b8ff" stroke="#63b8ff" points="292.12,-127.4 300.16,-120.5 289.57,-120.88 292.12,-127.4"/>
</a>
</g>
</g>
<!-- Node5 -->
<g id="Node000005" class="node">
<title>Node5</title>
<g id="a_Node000005"><a xlink:href="p__main_8fpp_8f90.html#aeec10ee8e2940c953967da3e374e1579" target="_top" xlink:title="Quasi&#45;conservative, shock&#45; and interface&#45; capturing finite&#45;volume scheme for the multicomponent Navie...">
<polygon fill="white" stroke="#666666" points="53,-110.5 0,-110.5 0,-91.5 53,-91.5 53,-110.5"/>
<text text-anchor="middle" x="26.5" y="-98.5" font-family="Helvetica,sans-Serif" font-size="10.00">p_main</text>
</a>
</g>
</g>
<!-- Node4&#45;&gt;Node5 -->
<g id="edge4_Node000004_Node000005" class="edge">
<title>Node4&#45;&gt;Node5</title>
<g id="a_edge4_Node000004_Node000005"><a xlink:title=" ">
<path fill="none" stroke="#63b8ff" d="M105.12,-130.61C99.65,-128.75 94.21,-126.87 89,-125 76.38,-120.48 62.44,-115.08 51.04,-110.54"/>
<polygon fill="#63b8ff" stroke="#63b8ff" points="104.33,-134.04 114.92,-133.9 106.55,-127.4 104.33,-134.04"/>
</a>
</g>
</g>
<!-- Node6&#45;&gt;Node5 -->
<g id="edge6_Node000006_Node000005" class="edge">
<title>Node6&#45;&gt;Node5</title>
<g id="a_edge6_Node000006_Node000005"><a xlink:title=" ">
<path fill="none" stroke="#63b8ff" d="M96.7,-101C81.24,-101 65.66,-101 53.21,-101"/>
<polygon fill="#63b8ff" stroke="#63b8ff" points="96.81,-104.5 106.81,-101 96.81,-97.5 96.81,-104.5"/>
</a>
</g>
</g>
<!-- Node7&#45;&gt;Node5 -->
<g id="edge8_Node000007_Node000005" class="edge">
<title>Node7&#45;&gt;Node5</title>
<g id="a_edge8_Node000007_Node000005"><a xlink:title=" ">
<path fill="none" stroke="#63b8ff" d="M97.6,-178.1C94.62,-176.53 91.73,-174.83 89,-173 63.86,-156.18 43.09,-126.34 33.39,-110.89"/>
<polygon fill="#63b8ff" stroke="#63b8ff" points="96.24,-181.33 106.77,-182.48 99.25,-175.01 96.24,-181.33"/>
</a>
</g>
</g>
<!-- Node8&#45;&gt;Node3 -->
<g id="edge10_Node000008_Node000003" class="edge">
<title>Node8&#45;&gt;Node3</title>
<g id="a_edge10_Node000008_Node000003"><a xlink:title=" ">
<path fill="none" stroke="#63b8ff" d="M454.68,-58.82C423.03,-73.29 384.89,-90.71 361.69,-101.32"/>
<polygon fill="#63b8ff" stroke="#63b8ff" points="456.2,-61.97 463.85,-54.63 453.3,-55.61 456.2,-61.97"/>
</a>
</g>
</g>
<!-- Node9 -->
<g id="Node000009" class="node">
<title>Node9</title>
<g id="a_Node000009"><a xlink:href="namespacem__data__output.html#a2f7a43312f3d62d4765afe87f114dba4" target="_top" xlink:title="The goal of this subroutine is to output the grid and conservative variables data files for given tim...">
<polygon fill="white" stroke="#666666" points="405,-49 274,-49 274,-19 405,-19 405,-49"/>
<text text-anchor="start" x="282" y="-37" font-family="Helvetica,sans-Serif" font-size="10.00">m_data_output::s_write</text>
<text text-anchor="middle" x="339.5" y="-26" font-family="Helvetica,sans-Serif" font-size="10.00">_serial_data_files</text>
</a>
</g>
</g>
<!-- Node8&#45;&gt;Node9 -->
<g id="edge11_Node000008_Node000009" class="edge">
<title>Node8&#45;&gt;Node9</title>
<g id="a_edge11_Node000008_Node000009"><a xlink:title=" ">
<path fill="none" stroke="#63b8ff" d="M430.93,-34C422.33,-34 413.66,-34 405.25,-34"/>
<polygon fill="#63b8ff" stroke="#63b8ff" points="430.95,-37.5 440.95,-34 430.95,-30.5 430.95,-37.5"/>
</a>
</g>
</g>
<!-- Node9&#45;&gt;Node5 -->
<g id="edge12_Node000009_Node000005" class="edge">
<title>Node9&#45;&gt;Node5</title>
<g id="a_edge12_Node000009_Node000005"><a xlink:title=" ">
<path fill="none" stroke="#63b8ff" d="M263.78,-42.87C213.76,-49.78 146.74,-60.93 89,-77 75.31,-80.81 60.45,-86.56 48.77,-91.48"/>
<polygon fill="#63b8ff" stroke="#63b8ff" points="264.44,-46.31 273.87,-41.5 263.49,-39.38 264.44,-46.31"/>
</a>
</g>
</g>
<!-- Node10 -->
<g id="Node000010" class="node">
<title>Node10</title>
<g id="a_Node000010"><a xlink:href="namespacem__data__output.html#ab65b312ef83adb104cafafada9c998b6" target="_top" xlink:title="The computation of parameters, the allocation of memory, the association of pointers and/or the execu...">
<polygon fill="white" stroke="#666666" points="238,-30 89,-30 89,0 238,0 238,-30"/>
<text text-anchor="start" x="97" y="-18" font-family="Helvetica,sans-Serif" font-size="10.00">m_data_output::s_initialize</text>
<text text-anchor="middle" x="163.5" y="-7" font-family="Helvetica,sans-Serif" font-size="10.00">_data_output_module</text>
</a>
</g>
</g>
<!-- Node9&#45;&gt;Node10 -->
<g id="edge13_Node000009_Node000010" class="edge">
<title>Node9&#45;&gt;Node10</title>
<g id="a_edge13_Node000009_Node000010"><a xlink:title=" ">
<path fill="none" stroke="#63b8ff" d="M263.53,-25.81C255.11,-24.89 246.54,-23.96 238.13,-23.04"/>
<polygon fill="#63b8ff" stroke="#63b8ff" points="263.39,-29.32 273.71,-26.93 264.15,-22.36 263.39,-29.32"/>
</a>
</g>
</g>
<!-- Node10&#45;&gt;Node5 -->
<g id="edge14_Node000010_Node000005" class="edge">
<title>Node10&#45;&gt;Node5</title>
<g id="a_edge14_Node000010_Node000005"><a xlink:title=" ">
<path fill="none" stroke="#63b8ff" d="M107.22,-34.19C100.91,-37.14 94.69,-40.42 89,-44 67.56,-57.49 46.85,-78.97 35.79,-91.35"/>
<polygon fill="#63b8ff" stroke="#63b8ff" points="108.78,-37.33 116.51,-30.09 105.95,-30.93 108.78,-37.33"/>
</a>
</g>
</g>
<!-- Node11&#45;&gt;Node2 -->
<g id="edge16_Node000011_Node000002" class="edge">
<title>Node11&#45;&gt;Node2</title>
<g id="a_edge16_Node000011_Node000002"><a xlink:title=" ">
<path fill="none" stroke="#63b8ff" d="M604.36,-111C585.78,-111 566.69,-111 550.65,-111"/>
<polygon fill="#63b8ff" stroke="#63b8ff" points="604.6,-114.5 614.6,-111 604.6,-107.5 604.6,-114.5"/>
</a>
</g>
</g>
<!-- Node12&#45;&gt;Node4 -->
<g id="edge18_Node000012_Node000004" class="edge">
<title>Node12&#45;&gt;Node4</title>
<g id="a_edge18_Node000012_Node000004"><a xlink:title=" ">
<path fill="none" stroke="#63b8ff" d="M263.7,-153.56C249.11,-152.89 234.05,-152.2 220.21,-151.56"/>
<polygon fill="#63b8ff" stroke="#63b8ff" points="263.56,-157.06 273.71,-154.02 263.88,-150.07 263.56,-157.06"/>
</a>
</g>
</g>
<!-- Node12&#45;&gt;Node6 -->
<g id="edge19_Node000012_Node000006" class="edge">
<title>Node12&#45;&gt;Node6</title>
<g id="a_edge19_Node000012_Node000006"><a xlink:title=" ">
<path fill="none" stroke="#63b8ff" d="M282.26,-138.9C259.33,-131.52 233.12,-123.08 211.26,-116.05"/>
<polygon fill="#63b8ff" stroke="#63b8ff" points="281.28,-142.26 291.87,-141.99 283.42,-135.6 281.28,-142.26"/>
</a>
</g>
</g>
<!-- Node12&#45;&gt;Node7 -->
<g id="edge20_Node000012_Node000007" class="edge">
<title>Node12&#45;&gt;Node7</title>
<g id="a_edge20_Node000012_Node000007"><a xlink:title=" ">
<path fill="none" stroke="#63b8ff" d="M263.7,-174.2C249.11,-177.55 234.05,-181.01 220.21,-184.19"/>
<polygon fill="#63b8ff" stroke="#63b8ff" points="264.75,-177.55 273.71,-171.89 263.18,-170.72 264.75,-177.55"/>
</a>
</g>
</g>
</g>
</svg>
