<?xml version="1.0" encoding="UTF-8" standalone="no"?>
<!DOCTYPE svg PUBLIC "-//W3C//DTD SVG 1.1//EN"
 "http://www.w3.org/Graphics/SVG/1.1/DTD/svg11.dtd">
<!-- Generated by graphviz version 2.43.0 (0)
 -->
<!-- Title: m_time_steppers::s_1st_order_tvd_rk Pages: 1 -->
<!--zoomable 471 -->
<svg id="main" version="1.1" xmlns="http://www.w3.org/2000/svg" xmlns:xlink="http://www.w3.org/1999/xlink" xml:space="preserve" onload="init(evt)">
<style type="text/css"><![CDATA[
.edge:hover path { stroke: red; }
.edge:hover polygon { stroke: red; fill: red; }
]]></style>
<script type="text/javascript"><![CDATA[
var edges = document.getElementsByTagName('g');
if (edges && edges.length) {
  for (var i=0;i<edges.length;i++) {
    if (edges[i].id.substr(0,4)=='edge') {
      edges[i].setAttribute('class','edge');
    }
  }
}
]]></script>
        <defs>
                <circle id="rim" cx="0" cy="0" r="7"/>
                <circle id="rim2" cx="0" cy="0" r="3.5"/>
                <g id="zoomPlus">
                        <use xlink:href="#rim" fill="#404040">
                                <set attributeName="fill" to="#808080" begin="zoomplus.mouseover" end="zoomplus.mouseout"/>
                        </use>
                        <path d="M-4,0h8M0,-4v8" fill="none" stroke="white" stroke-width="1.5" pointer-events="none"/>
                </g>
                <g id="zoomMin">
                        <use xlink:href="#rim" fill="#404040">
                                <set attributeName="fill" to="#808080" begin="zoomminus.mouseover" end="zoomminus.mouseout"/>
                        </use>
                        <path d="M-4,0h8" fill="none" stroke="white" stroke-width="1.5" pointer-events="none"/>
                </g>
                <g id="dirArrow">
                        <path fill="none" stroke="white" stroke-width="1.5" d="M0,-3.0v7 M-2.5,-0.5L0,-3.0L2.5,-0.5"/>
                </g>
               <g id="resetDef">
                       <use xlink:href="#rim2" fill="#404040">
                               <set attributeName="fill" to="#808080" begin="reset.mouseover" end="reset.mouseout"/>
                       </use>
               </g>
        </defs>

<script type="text/javascript">
var viewWidth = 500;
var viewHeight = 471;
var sectionId = 'dynsection-0';
</script>
<script xlink:href="svgpan.js"/>
<svg id="graph" class="graph">
<g id="viewport">
<title>m_time_steppers::s_1st_order_tvd_rk</title>
<!-- Node1 -->
<g id="node1" class="node">
<title>Node1</title>
<g id="a_node1"><a xlink:title="1st order TVD RK time&#45;stepping algorithm">
<polygon fill="#bfbfbf" stroke="black" points="0,-334 0,-364 113,-364 113,-334 0,-334"/>
<text text-anchor="start" x="8" y="-352" font-family="Helvetica,sans-Serif" font-size="10.00">m_time_steppers::s</text>
<text text-anchor="middle" x="56.5" y="-341" font-family="Helvetica,sans-Serif" font-size="10.00">_1st_order_tvd_rk</text>
</a>
</g>
</g>
<!-- Node2 -->
<g id="node2" class="node">
<title>Node2</title>
<g id="a_node2"><a xlink:href="namespacem__nvtx.html#acb0ad47c439f074b02a3cfc88817b9c7" target="_top" xlink:title=" ">
<polygon fill="none" stroke="black" points="151.5,-443.5 151.5,-462.5 277.5,-462.5 277.5,-443.5 151.5,-443.5"/>
<text text-anchor="middle" x="214.5" y="-450.5" font-family="Helvetica,sans-Serif" font-size="10.00">m_nvtx::nvtxendrange</text>
</a>
</g>
</g>
<!-- Node1&#45;&gt;Node2 -->
<g id="edge1" class="edge">
<title>Node1&#45;&gt;Node2</title>
<path fill="none" stroke="midnightblue" d="M69.84,-364.16C86.08,-383.15 116.4,-415.44 149,-434 152.87,-436.2 157.02,-438.17 161.28,-439.93"/>
<polygon fill="midnightblue" stroke="midnightblue" points="160.12,-443.23 170.72,-443.44 162.56,-436.67 160.12,-443.23"/>
</g>
<!-- Node3 -->
<g id="node3" class="node">
<title>Node3</title>
<g id="a_node3"><a xlink:href="namespacem__nvtx.html#a9b922c5d5c93c41e0abcd4cf8c382861" target="_top" xlink:title=" ">
<polygon fill="none" stroke="black" points="149,-405.5 149,-424.5 280,-424.5 280,-405.5 149,-405.5"/>
<text text-anchor="middle" x="214.5" y="-412.5" font-family="Helvetica,sans-Serif" font-size="10.00">m_nvtx::nvtxstartrange</text>
</a>
</g>
</g>
<!-- Node1&#45;&gt;Node3 -->
<g id="edge2" class="edge">
<title>Node1&#45;&gt;Node3</title>
<path fill="none" stroke="midnightblue" d="M83.71,-364.14C101.68,-374.09 126.28,-386.91 149,-396 154.76,-398.3 160.91,-400.47 167.04,-402.46"/>
<polygon fill="midnightblue" stroke="midnightblue" points="166.01,-405.8 176.59,-405.43 168.08,-399.12 166.01,-405.8"/>
</g>
<!-- Node4 -->
<g id="node4" class="node">
<title>Node4</title>
<g id="a_node4"><a xlink:href="namespacem__fftw.html#ada93950a5527dfe2a35cc4f4ba77cb96" target="_top" xlink:title="The purpose of this subroutine is to apply a Fourier low&#45; pass filter to the flow variables in the az...">
<polygon fill="none" stroke="black" points="149,-356 149,-386 280,-386 280,-356 149,-356"/>
<text text-anchor="start" x="157" y="-374" font-family="Helvetica,sans-Serif" font-size="10.00">m_fftw::s_apply_fourier</text>
<text text-anchor="middle" x="214.5" y="-363" font-family="Helvetica,sans-Serif" font-size="10.00">_filter</text>
</a>
</g>
</g>
<!-- Node1&#45;&gt;Node4 -->
<g id="edge3" class="edge">
<title>Node1&#45;&gt;Node4</title>
<path fill="none" stroke="midnightblue" d="M113.38,-356.88C121.67,-358.05 130.33,-359.27 138.93,-360.48"/>
<polygon fill="midnightblue" stroke="midnightblue" points="138.59,-363.97 148.98,-361.9 139.57,-357.04 138.59,-363.97"/>
</g>
<!-- Node5 -->
<g id="node5" class="node">
<title>Node5</title>
<g id="a_node5"><a xlink:href="namespacem__rhs.html#a361f0038973069452cc88430c49bcfe8" target="_top" xlink:title=" ">
<polygon fill="none" stroke="black" points="151.5,-317.5 151.5,-336.5 277.5,-336.5 277.5,-317.5 151.5,-317.5"/>
<text text-anchor="middle" x="214.5" y="-324.5" font-family="Helvetica,sans-Serif" font-size="10.00">m_rhs::s_compute_rhs</text>
</a>
</g>
</g>
<!-- Node1&#45;&gt;Node5 -->
<g id="edge4" class="edge">
<title>Node1&#45;&gt;Node5</title>
<path fill="none" stroke="midnightblue" d="M113.38,-341.12C122.43,-339.84 131.92,-338.51 141.29,-337.18"/>
<polygon fill="midnightblue" stroke="midnightblue" points="141.98,-340.62 151.39,-335.76 141,-333.69 141.98,-340.62"/>
</g>
<!-- Node9 -->
<g id="node9" class="node">
<title>Node9</title>
<g id="a_node9"><a xlink:href="namespacem__time__steppers.html#a575aa7f95bf96994f49d81d71d19c192" target="_top" xlink:title="This subroutine saves the temporary q_prim_vf vector into the q_prim_ts vector that is then used in p...">
<polygon fill="none" stroke="black" points="158,-268 158,-298 271,-298 271,-268 158,-268"/>
<text text-anchor="start" x="166" y="-286" font-family="Helvetica,sans-Serif" font-size="10.00">m_time_steppers::s</text>
<text text-anchor="middle" x="214.5" y="-275" font-family="Helvetica,sans-Serif" font-size="10.00">_time_step_cycling</text>
</a>
</g>
</g>
<!-- Node1&#45;&gt;Node9 -->
<g id="edge8" class="edge">
<title>Node1&#45;&gt;Node9</title>
<path fill="none" stroke="midnightblue" d="M89.93,-333.98C107.35,-326.04 129.24,-316.25 149,-308 153.99,-305.92 159.21,-303.8 164.44,-301.71"/>
<polygon fill="midnightblue" stroke="midnightblue" points="165.79,-304.94 173.8,-298.02 163.22,-298.43 165.79,-304.94"/>
</g>
<!-- Node10 -->
<g id="node10" class="node">
<title>Node10</title>
<g id="a_node10"><a xlink:href="namespacem__data__output.html#a33a72559ec5cfdedf7162a8269d41201" target="_top" xlink:title="The goal of the procedure is to output to the run&#45;time information file the stability criteria extrem...">
<polygon fill="none" stroke="black" points="149,-138 149,-168 280,-168 280,-138 149,-138"/>
<text text-anchor="start" x="157" y="-156" font-family="Helvetica,sans-Serif" font-size="10.00">m_data_output::s_write</text>
<text text-anchor="middle" x="214.5" y="-145" font-family="Helvetica,sans-Serif" font-size="10.00">_run_time_information</text>
</a>
</g>
</g>
<!-- Node1&#45;&gt;Node10 -->
<g id="edge9" class="edge">
<title>Node1&#45;&gt;Node10</title>
<path fill="none" stroke="midnightblue" d="M69.48,-333.95C96.59,-299.88 162.78,-216.72 195.12,-176.1"/>
<polygon fill="midnightblue" stroke="midnightblue" points="197.99,-178.11 201.48,-168.11 192.51,-173.75 197.99,-178.11"/>
</g>
<!-- Node6 -->
<g id="node6" class="node">
<title>Node6</title>
<g id="a_node6"><a xlink:href="namespacem__rhs.html#a2647dbdf6b09315564ef060e1f49df0d" target="_top" xlink:title="The purpose of this procedure is to populate the buffers of the conservative variables,...">
<polygon fill="none" stroke="black" points="317,-389 317,-419 491,-419 491,-389 317,-389"/>
<text text-anchor="start" x="325" y="-407" font-family="Helvetica,sans-Serif" font-size="10.00">m_rhs::s_populate_conservative</text>
<text text-anchor="middle" x="404" y="-396" font-family="Helvetica,sans-Serif" font-size="10.00">_variables_buffers</text>
</a>
</g>
</g>
<!-- Node5&#45;&gt;Node6 -->
<g id="edge5" class="edge">
<title>Node5&#45;&gt;Node6</title>
<path fill="none" stroke="midnightblue" d="M255.88,-336.51C264.14,-339.28 272.58,-342.74 280,-347 298.82,-357.81 297.01,-369.49 316,-380 319.28,-381.81 322.7,-383.5 326.22,-385.06"/>
<polygon fill="midnightblue" stroke="midnightblue" points="325.11,-388.39 335.69,-388.92 327.75,-381.91 325.11,-388.39"/>
</g>
<!-- Node7 -->
<g id="node7" class="node">
<title>Node7</title>
<g id="a_node7"><a xlink:href="namespacem__rhs.html#aa93d7b4162d84118e54c739f626a2f16" target="_top" xlink:title="The purpose of this subroutine is to WENO&#45;reconstruct the left and the right cell&#45;boundary values,...">
<polygon fill="none" stroke="black" points="340,-340 340,-370 468,-370 468,-340 340,-340"/>
<text text-anchor="start" x="348" y="-358" font-family="Helvetica,sans-Serif" font-size="10.00">m_rhs::s_reconstruct</text>
<text text-anchor="middle" x="404" y="-347" font-family="Helvetica,sans-Serif" font-size="10.00">_cell_boundary_values</text>
</a>
</g>
</g>
<!-- Node5&#45;&gt;Node7 -->
<g id="edge6" class="edge">
<title>Node5&#45;&gt;Node7</title>
<path fill="none" stroke="midnightblue" d="M277.67,-336.28C294.34,-338.77 312.51,-341.49 329.71,-344.06"/>
<polygon fill="midnightblue" stroke="midnightblue" points="329.31,-347.53 339.71,-345.55 330.34,-340.61 329.31,-347.53"/>
</g>
<!-- Node8 -->
<g id="node8" class="node">
<title>Node8</title>
<g id="a_node8"><a xlink:href="namespacem__rhs.html#a632ecd6c105557ce459ab8bd686f9fd5" target="_top" xlink:title=" ">
<polygon fill="none" stroke="black" points="340,-279.5 340,-320.5 468,-320.5 468,-279.5 340,-279.5"/>
<text text-anchor="start" x="348" y="-308.5" font-family="Helvetica,sans-Serif" font-size="10.00">m_rhs::s_reconstruct</text>
<text text-anchor="start" x="348" y="-297.5" font-family="Helvetica,sans-Serif" font-size="10.00">_cell_boundary_values</text>
<text text-anchor="middle" x="404" y="-286.5" font-family="Helvetica,sans-Serif" font-size="10.00">_visc_deriv</text>
</a>
</g>
</g>
<!-- Node5&#45;&gt;Node8 -->
<g id="edge7" class="edge">
<title>Node5&#45;&gt;Node8</title>
<path fill="none" stroke="midnightblue" d="M277.67,-318.05C294.34,-315.65 312.51,-313.03 329.71,-310.55"/>
<polygon fill="midnightblue" stroke="midnightblue" points="330.31,-314 339.71,-309.11 329.32,-307.07 330.31,-314"/>
</g>
<!-- Node11 -->
<g id="node11" class="node">
<title>Node11</title>
<g id="a_node11"><a xlink:href="namespacem__variables__conversion.html#a2469e5a2187755370e7d52628a780fd6" target="_top" xlink:title=" ">
<polygon fill="none" stroke="black" points="336.5,-219.5 336.5,-260.5 471.5,-260.5 471.5,-219.5 336.5,-219.5"/>
<text text-anchor="start" x="344.5" y="-248.5" font-family="Helvetica,sans-Serif" font-size="10.00">m_variables_conversion</text>
<text text-anchor="start" x="344.5" y="-237.5" font-family="Helvetica,sans-Serif" font-size="10.00">::s_convert_species_to</text>
<text text-anchor="middle" x="404" y="-226.5" font-family="Helvetica,sans-Serif" font-size="10.00">_mixture_variables_acc</text>
</a>
</g>
</g>
<!-- Node10&#45;&gt;Node11 -->
<g id="edge10" class="edge">
<title>Node10&#45;&gt;Node11</title>
<path fill="none" stroke="midnightblue" d="M239.22,-168.11C259.18,-180.41 288.76,-197.7 316,-210 320.32,-211.95 324.81,-213.85 329.37,-215.69"/>
<polygon fill="midnightblue" stroke="midnightblue" points="328.22,-219 338.8,-219.37 330.76,-212.48 328.22,-219"/>
</g>
<!-- Node12 -->
<g id="node12" class="node">
<title>Node12</title>
<g id="a_node12"><a xlink:href="namespacem__variables__conversion.html#acb81910f3c4223227f19333a919feb6c" target="_top" xlink:title=" ">
<polygon fill="none" stroke="black" points="316,-159.5 316,-200.5 492,-200.5 492,-159.5 316,-159.5"/>
<text text-anchor="start" x="324" y="-188.5" font-family="Helvetica,sans-Serif" font-size="10.00">m_variables_conversion</text>
<text text-anchor="start" x="324" y="-177.5" font-family="Helvetica,sans-Serif" font-size="10.00">::s_convert_species_to</text>
<text text-anchor="middle" x="404" y="-166.5" font-family="Helvetica,sans-Serif" font-size="10.00">_mixture_variables_bubbles_acc</text>
</a>
</g>
</g>
<!-- Node10&#45;&gt;Node12 -->
<g id="edge11" class="edge">
<title>Node10&#45;&gt;Node12</title>
<path fill="none" stroke="midnightblue" d="M280.03,-162.29C288.42,-163.5 297.15,-164.76 305.93,-166.02"/>
<polygon fill="midnightblue" stroke="midnightblue" points="305.44,-169.49 315.83,-167.45 306.44,-162.56 305.44,-169.49"/>
</g>
<!-- Node13 -->
<g id="node13" class="node">
<title>Node13</title>
<g id="a_node13"><a xlink:href="namespacem__mpi__proxy.html#a04ac565bad2b22dc045a5eeb4f516e2e" target="_top" xlink:title="The subroutine terminates the MPI execution environment.">
<polygon fill="none" stroke="black" points="345,-110 345,-140 463,-140 463,-110 345,-110"/>
<text text-anchor="start" x="353" y="-128" font-family="Helvetica,sans-Serif" font-size="10.00">m_mpi_proxy::s_mpi</text>
<text text-anchor="middle" x="404" y="-117" font-family="Helvetica,sans-Serif" font-size="10.00">_abort</text>
</a>
</g>
</g>
<!-- Node10&#45;&gt;Node13 -->
<g id="edge12" class="edge">
<title>Node10&#45;&gt;Node13</title>
<path fill="none" stroke="midnightblue" d="M280.03,-143.36C297.73,-140.72 316.98,-137.85 334.88,-135.17"/>
<polygon fill="midnightblue" stroke="midnightblue" points="335.58,-138.61 344.95,-133.67 334.54,-131.68 335.58,-138.61"/>
</g>
<!-- Node14 -->
<g id="node14" class="node">
<title>Node14</title>
<g id="a_node14"><a xlink:href="namespacem__mpi__proxy.html#abfbc42cea69273bc9fa4a2d78f636eb1" target="_top" xlink:title="Halts all processes until all have reached barrier.">
<polygon fill="none" stroke="black" points="345,-61 345,-91 463,-91 463,-61 345,-61"/>
<text text-anchor="start" x="353" y="-79" font-family="Helvetica,sans-Serif" font-size="10.00">m_mpi_proxy::s_mpi</text>
<text text-anchor="middle" x="404" y="-68" font-family="Helvetica,sans-Serif" font-size="10.00">_barrier</text>
</a>
</g>
</g>
<!-- Node10&#45;&gt;Node14 -->
<g id="edge13" class="edge">
<title>Node10&#45;&gt;Node14</title>
<path fill="none" stroke="midnightblue" d="M241.28,-137.85C261.2,-126.6 289.71,-111.46 316,-101 322.18,-98.54 328.7,-96.21 335.27,-94.04"/>
<polygon fill="midnightblue" stroke="midnightblue" points="336.44,-97.34 344.9,-90.96 334.31,-90.67 336.44,-97.34"/>
</g>
<!-- Node15 -->
<g id="node15" class="node">
<title>Node15</title>
<g id="a_node15"><a xlink:href="namespacem__mpi__proxy.html#a340a2c9b1688582ee485dd5d9bbcc864" target="_top" xlink:title="The goal of this subroutine is to determine the global extrema of the stability criteria in the compu...">
<polygon fill="none" stroke="black" points="334,-0.5 334,-41.5 474,-41.5 474,-0.5 334,-0.5"/>
<text text-anchor="start" x="342" y="-29.5" font-family="Helvetica,sans-Serif" font-size="10.00">m_mpi_proxy::s_mpi</text>
<text text-anchor="start" x="342" y="-18.5" font-family="Helvetica,sans-Serif" font-size="10.00">_reduce_stability_criteria</text>
<text text-anchor="middle" x="404" y="-7.5" font-family="Helvetica,sans-Serif" font-size="10.00">_extrema</text>
</a>
</g>
</g>
<!-- Node10&#45;&gt;Node15 -->
<g id="edge14" class="edge">
<title>Node10&#45;&gt;Node15</title>
<path fill="none" stroke="midnightblue" d="M226.8,-137.68C243.84,-115.6 278.15,-74.86 316,-51 318.77,-49.25 321.66,-47.59 324.62,-46.02"/>
<polygon fill="midnightblue" stroke="midnightblue" points="326.28,-49.1 333.71,-41.55 323.19,-42.82 326.28,-49.1"/>
</g>
</g>
</svg>
        <g id="navigator" transform="translate(0 0)" fill="#404254">
                <rect fill="#f2f5e9" fill-opacity="0.5" stroke="#606060" stroke-width=".5" x="0" y="0" width="60" height="60"/>
                <use id="zoomplus" xlink:href="#zoomPlus" x="17" y="9" onmousedown="handleZoom(evt,'in')"/>
                <use id="zoomminus" xlink:href="#zoomMin" x="42" y="9" onmousedown="handleZoom(evt,'out')"/>
                <use id="reset" xlink:href="#resetDef" x="30" y="36" onmousedown="handleReset()"/>
                <g id="arrowUp" xlink:href="#dirArrow" transform="translate(30 24)" onmousedown="handlePan(0,-1)">
                  <use xlink:href="#rim" fill="#404040">
                        <set attributeName="fill" to="#808080" begin="arrowUp.mouseover" end="arrowUp.mouseout"/>
                  </use>
                  <path fill="none" stroke="white" stroke-width="1.5" d="M0,-3.0v7 M-2.5,-0.5L0,-3.0L2.5,-0.5"/>
                </g>
                <g id="arrowRight" xlink:href="#dirArrow" transform="rotate(90) translate(36 -43)" onmousedown="handlePan(1,0)">
                  <use xlink:href="#rim" fill="#404040">
                        <set attributeName="fill" to="#808080" begin="arrowRight.mouseover" end="arrowRight.mouseout"/>
                  </use>
                  <path fill="none" stroke="white" stroke-width="1.5" d="M0,-3.0v7 M-2.5,-0.5L0,-3.0L2.5,-0.5"/>
                </g>
                <g id="arrowDown" xlink:href="#dirArrow" transform="rotate(180) translate(-30 -48)" onmousedown="handlePan(0,1)">
                  <use xlink:href="#rim" fill="#404040">
                        <set attributeName="fill" to="#808080" begin="arrowDown.mouseover" end="arrowDown.mouseout"/>
                  </use>
                  <path fill="none" stroke="white" stroke-width="1.5" d="M0,-3.0v7 M-2.5,-0.5L0,-3.0L2.5,-0.5"/>
                </g>
                <g id="arrowLeft" xlink:href="#dirArrow" transform="rotate(270) translate(-36 17)" onmousedown="handlePan(-1,0)">
                  <use xlink:href="#rim" fill="#404040">
                        <set attributeName="fill" to="#808080" begin="arrowLeft.mouseover" end="arrowLeft.mouseout"/>
                  </use>
                  <path fill="none" stroke="white" stroke-width="1.5" d="M0,-3.0v7 M-2.5,-0.5L0,-3.0L2.5,-0.5"/>
                </g>
        </g>
        <svg viewBox="0 0 15 15" width="100%" height="30px" preserveAspectRatio="xMaxYMin meet">
         <g id="arrow_out" transform="scale(0.3 0.3)">
          <a xlink:href="namespacem__time__steppers_a8876606e6152b6c8f35272074a088142_cgraph_org.svg" target="_base">
           <rect id="button" ry="5" rx="5" y="6" x="6" height="38" width="38"
                fill="#f2f5e9" fill-opacity="0.5" stroke="#606060" stroke-width="1.0"/>
           <path id="arrow"
             d="M 11.500037,31.436501 C 11.940474,20.09759 22.043105,11.32322 32.158766,21.979434 L 37.068811,17.246167 C 37.068811,17.246167 37.088388,32 37.088388,32 L 22.160133,31.978069 C 22.160133,31.978069 26.997745,27.140456 26.997745,27.140456 C 18.528582,18.264221 13.291696,25.230495 11.500037,31.436501 z"
             style="fill:#404040;"/>
          </a>
         </g>
        </svg>
</svg>
