<?xml version="1.0" encoding="UTF-8" standalone="no"?>
<!DOCTYPE svg PUBLIC "-//W3C//DTD SVG 1.1//EN"
 "http://www.w3.org/Graphics/SVG/1.1/DTD/svg11.dtd">
<!-- Generated by graphviz version 2.43.0 (0)
 -->
<!-- Title: m_rhs::s_get_viscous Pages: 1 -->
<svg width="317pt" height="137pt"
 viewBox="0.00 0.00 317.00 137.00" xmlns="http://www.w3.org/2000/svg" xmlns:xlink="http://www.w3.org/1999/xlink">
<g id="graph0" class="graph" transform="scale(1 1) rotate(0) translate(4 133)">
<title>m_rhs::s_get_viscous</title>
<!-- Node1 -->
<g id="node1" class="node">
<title>Node1</title>
<g id="a_node1"><a xlink:title="This subroutine compute the TVD flux function.">
<polygon fill="#bfbfbf" stroke="black" points="0,-55 0,-74 121,-74 121,-55 0,-55"/>
<text text-anchor="middle" x="60.5" y="-62" font-family="Helvetica,sans-Serif" font-size="10.00">m_rhs::s_get_viscous</text>
</a>
</g>
</g>
<!-- Node2 -->
<g id="node2" class="node">
<title>Node2</title>
<g id="a_node2"><a xlink:href="namespacem__rhs.html#ac7d49938e97f8843c84f335ff0f6cceb" target="_top" xlink:title="The purpose of this subroutine is to employ the inputted left and right cell&#45;boundary integral&#45;averag...">
<polygon fill="none" stroke="black" points="170.5,-98.5 170.5,-128.5 295.5,-128.5 295.5,-98.5 170.5,-98.5"/>
<text text-anchor="start" x="178.5" y="-116.5" font-family="Helvetica,sans-Serif" font-size="10.00">m_rhs::s_apply_scalar</text>
<text text-anchor="middle" x="233" y="-105.5" font-family="Helvetica,sans-Serif" font-size="10.00">_divergence_theorem</text>
</a>
</g>
</g>
<!-- Node1&#45;&gt;Node2 -->
<g id="edge1" class="edge">
<title>Node1&#45;&gt;Node2</title>
<path fill="none" stroke="midnightblue" d="M94.78,-74.06C116.08,-80.19 144.39,-88.32 169.75,-95.61"/>
<polygon fill="midnightblue" stroke="midnightblue" points="169.1,-99.06 179.68,-98.46 171.03,-92.34 169.1,-99.06"/>
</g>
<!-- Node3 -->
<g id="node3" class="node">
<title>Node3</title>
<g id="a_node3"><a xlink:href="namespacem__rhs.html#abf11c6f8bb16f3c74cc0205b16d31e96" target="_top" xlink:title="Computes the scalar gradient fields via finite differences.">
<polygon fill="none" stroke="black" points="172.5,-49.5 172.5,-79.5 293.5,-79.5 293.5,-49.5 172.5,-49.5"/>
<text text-anchor="start" x="180.5" y="-67.5" font-family="Helvetica,sans-Serif" font-size="10.00">m_rhs::s_compute_fd</text>
<text text-anchor="middle" x="233" y="-56.5" font-family="Helvetica,sans-Serif" font-size="10.00">_gradient</text>
</a>
</g>
</g>
<!-- Node1&#45;&gt;Node3 -->
<g id="edge2" class="edge">
<title>Node1&#45;&gt;Node3</title>
<path fill="none" stroke="midnightblue" d="M121.13,-64.5C134.37,-64.5 148.52,-64.5 162.13,-64.5"/>
<polygon fill="midnightblue" stroke="midnightblue" points="162.4,-68 172.4,-64.5 162.4,-61 162.4,-68"/>
</g>
<!-- Node4 -->
<g id="node4" class="node">
<title>Node4</title>
<g id="a_node4"><a xlink:href="namespacem__rhs.html#a7c15c57e0519165ffc491b7cd81cebb4" target="_top" xlink:title=" ">
<polygon fill="none" stroke="black" points="157,-0.5 157,-30.5 309,-30.5 309,-0.5 157,-0.5"/>
<text text-anchor="start" x="165" y="-18.5" font-family="Helvetica,sans-Serif" font-size="10.00">m_rhs::s_reconstruct</text>
<text text-anchor="middle" x="233" y="-7.5" font-family="Helvetica,sans-Serif" font-size="10.00">_cell_boundary_values_visc</text>
</a>
</g>
</g>
<!-- Node1&#45;&gt;Node4 -->
<g id="edge3" class="edge">
<title>Node1&#45;&gt;Node4</title>
<path fill="none" stroke="midnightblue" d="M94.78,-54.94C116.08,-48.81 144.39,-40.68 169.75,-33.39"/>
<polygon fill="midnightblue" stroke="midnightblue" points="171.03,-36.66 179.68,-30.54 169.1,-29.94 171.03,-36.66"/>
</g>
</g>
</svg>
