<?xml version="1.0" encoding="UTF-8" standalone="no"?>
<!DOCTYPE svg PUBLIC "-//W3C//DTD SVG 1.1//EN"
 "http://www.w3.org/Graphics/SVG/1.1/DTD/svg11.dtd">
<!-- Generated by graphviz version 2.43.0 (0)
 -->
<!-- Title: m_cbc::s_cbc Pages: 1 -->
<svg width="513pt" height="644pt"
 viewBox="0.00 0.00 513.00 643.50" xmlns="http://www.w3.org/2000/svg" xmlns:xlink="http://www.w3.org/1999/xlink">
<g id="graph0" class="graph" transform="scale(1 1) rotate(0) translate(4 639.5)">
<title>m_cbc::s_cbc</title>
<!-- Node1 -->
<g id="node1" class="node">
<title>Node1</title>
<g id="a_node1"><a xlink:title="The following is the implementation of the CBC based on the work of Thompson (1987,...">
<polygon fill="#bfbfbf" stroke="black" points="0,-291.5 0,-310.5 81,-310.5 81,-291.5 0,-291.5"/>
<text text-anchor="middle" x="40.5" y="-298.5" font-family="Helvetica,sans-Serif" font-size="10.00">m_cbc::s_cbc</text>
</a>
</g>
</g>
<!-- Node2 -->
<g id="node2" class="node">
<title>Node2</title>
<g id="a_node2"><a xlink:href="namespacem__cbc.html#a76e19dea2a654c9a7f311baa16ef118c" target="_top" xlink:title=" ">
<polygon fill="none" stroke="black" points="132.5,-605 132.5,-635 277.5,-635 277.5,-605 132.5,-605"/>
<text text-anchor="start" x="140.5" y="-623" font-family="Helvetica,sans-Serif" font-size="10.00">m_cbc::s_associate</text>
<text text-anchor="middle" x="205" y="-612" font-family="Helvetica,sans-Serif" font-size="10.00">_cbc_coefficients_pointers</text>
</a>
</g>
</g>
<!-- Node1&#45;&gt;Node2 -->
<g id="edge1" class="edge">
<title>Node1&#45;&gt;Node2</title>
<path fill="none" stroke="midnightblue" d="M42.68,-310.75C48.47,-356.97 75.25,-553.46 117,-596 119.06,-598.1 121.28,-600.01 123.63,-601.77"/>
<polygon fill="midnightblue" stroke="midnightblue" points="121.77,-604.73 132.08,-607.13 125.51,-598.82 121.77,-604.73"/>
</g>
<!-- Node3 -->
<g id="node3" class="node">
<title>Node3</title>
<g id="a_node3"><a xlink:href="namespacem__cbc.html#a79259e746d1adcc5d34ce388d7acb450" target="_top" xlink:title="L variables for the constant pressure subsonic outflow CBC see pg. 455 Thompson (1990)....">
<polygon fill="none" stroke="black" points="124.5,-556 124.5,-586 285.5,-586 285.5,-556 124.5,-556"/>
<text text-anchor="start" x="132.5" y="-574" font-family="Helvetica,sans-Serif" font-size="10.00">m_cbc::s_compute_constant</text>
<text text-anchor="middle" x="205" y="-563" font-family="Helvetica,sans-Serif" font-size="10.00">_pressure_subsonic_outflow_l</text>
</a>
</g>
</g>
<!-- Node1&#45;&gt;Node3 -->
<g id="edge2" class="edge">
<title>Node1&#45;&gt;Node3</title>
<path fill="none" stroke="midnightblue" d="M41.38,-310.66C41.47,-347.26 46.84,-478.82 117,-547 118.09,-548.06 119.22,-549.07 120.39,-550.04"/>
<polygon fill="midnightblue" stroke="midnightblue" points="118.4,-552.92 128.59,-555.82 122.43,-547.2 118.4,-552.92"/>
</g>
<!-- Node4 -->
<g id="node4" class="node">
<title>Node4</title>
<g id="a_node4"><a xlink:href="namespacem__cbc.html#a1afe5efdaf01af0decaa06d4fc0fcf03" target="_top" xlink:title="The L variables for the force&#45;free subsonic outflow CBC, see pg. 454 of Thompson (1990)....">
<polygon fill="none" stroke="black" points="135.5,-507 135.5,-537 274.5,-537 274.5,-507 135.5,-507"/>
<text text-anchor="start" x="143.5" y="-525" font-family="Helvetica,sans-Serif" font-size="10.00">m_cbc::s_compute_force</text>
<text text-anchor="middle" x="205" y="-514" font-family="Helvetica,sans-Serif" font-size="10.00">_free_subsonic_outflow_l</text>
</a>
</g>
</g>
<!-- Node1&#45;&gt;Node4 -->
<g id="edge3" class="edge">
<title>Node1&#45;&gt;Node4</title>
<path fill="none" stroke="midnightblue" d="M42.24,-310.91C45.2,-343.05 58.96,-445.32 117,-498 119.84,-500.57 122.92,-502.87 126.19,-504.93"/>
<polygon fill="midnightblue" stroke="midnightblue" points="124.73,-508.12 135.19,-509.82 128.08,-501.97 124.73,-508.12"/>
</g>
<!-- Node5 -->
<g id="node5" class="node">
<title>Node5</title>
<g id="a_node5"><a xlink:href="namespacem__cbc.html#a087b846555b77387ef672a360ab62643" target="_top" xlink:title="The L variables for the nonreflecting subsonic buffer CBC see pg. 13 of Thompson (1987)....">
<polygon fill="none" stroke="black" points="117,-458 117,-488 293,-488 293,-458 117,-458"/>
<text text-anchor="start" x="125" y="-476" font-family="Helvetica,sans-Serif" font-size="10.00">m_cbc::s_compute_nonreflecting</text>
<text text-anchor="middle" x="205" y="-465" font-family="Helvetica,sans-Serif" font-size="10.00">_subsonic_buffer_l</text>
</a>
</g>
</g>
<!-- Node1&#45;&gt;Node5 -->
<g id="edge4" class="edge">
<title>Node1&#45;&gt;Node5</title>
<path fill="none" stroke="midnightblue" d="M43.56,-310.66C49.72,-337.08 70.5,-411.08 117,-449 118.59,-450.3 120.25,-451.53 121.97,-452.69"/>
<polygon fill="midnightblue" stroke="midnightblue" points="120.54,-455.92 130.94,-457.97 124.09,-449.88 120.54,-455.92"/>
</g>
<!-- Node6 -->
<g id="node6" class="node">
<title>Node6</title>
<g id="a_node6"><a xlink:href="namespacem__cbc.html#af1ca0a2d1b5dda3ea090b2ada1a669f9" target="_top" xlink:title="The L variables for the nonreflecting subsonic inflow CBC see pg. 455, Thompson (1990)....">
<polygon fill="none" stroke="black" points="117,-409 117,-439 293,-439 293,-409 117,-409"/>
<text text-anchor="start" x="125" y="-427" font-family="Helvetica,sans-Serif" font-size="10.00">m_cbc::s_compute_nonreflecting</text>
<text text-anchor="middle" x="205" y="-416" font-family="Helvetica,sans-Serif" font-size="10.00">_subsonic_inflow_l</text>
</a>
</g>
</g>
<!-- Node1&#45;&gt;Node6 -->
<g id="edge5" class="edge">
<title>Node1&#45;&gt;Node6</title>
<path fill="none" stroke="midnightblue" d="M46.06,-310.55C56.03,-330.39 81.72,-376.16 117,-400 119.29,-401.55 121.69,-403 124.15,-404.36"/>
<polygon fill="midnightblue" stroke="midnightblue" points="122.84,-407.61 133.36,-408.88 125.92,-401.33 122.84,-407.61"/>
</g>
<!-- Node7 -->
<g id="node7" class="node">
<title>Node7</title>
<g id="a_node7"><a xlink:href="namespacem__cbc.html#a7d91ecb6fff2a1937ec6981e103cd06b" target="_top" xlink:title="The L variables for the nonreflecting subsonic outflow CBC see pg. 454 of Thompson (1990)....">
<polygon fill="none" stroke="black" points="117,-360 117,-390 293,-390 293,-360 117,-360"/>
<text text-anchor="start" x="125" y="-378" font-family="Helvetica,sans-Serif" font-size="10.00">m_cbc::s_compute_nonreflecting</text>
<text text-anchor="middle" x="205" y="-367" font-family="Helvetica,sans-Serif" font-size="10.00">_subsonic_outflow_l</text>
</a>
</g>
</g>
<!-- Node1&#45;&gt;Node7 -->
<g id="edge6" class="edge">
<title>Node1&#45;&gt;Node7</title>
<path fill="none" stroke="midnightblue" d="M53.61,-310.78C67.96,-321.95 92.96,-340.06 117,-351 121.4,-353 126.01,-354.87 130.71,-356.61"/>
<polygon fill="midnightblue" stroke="midnightblue" points="129.84,-360.02 140.44,-360 132.14,-353.41 129.84,-360.02"/>
</g>
<!-- Node8 -->
<g id="node8" class="node">
<title>Node8</title>
<g id="a_node8"><a xlink:href="namespacem__cbc.html#af366acb35426d188d18fb261ed0fecc4" target="_top" xlink:title="The L variables for the slip wall CBC, see pg. 451 of Thompson (1990). At the slip wall (frictionless...">
<polygon fill="none" stroke="black" points="140,-311 140,-341 270,-341 270,-311 140,-311"/>
<text text-anchor="start" x="148" y="-329" font-family="Helvetica,sans-Serif" font-size="10.00">m_cbc::s_compute_slip</text>
<text text-anchor="middle" x="205" y="-318" font-family="Helvetica,sans-Serif" font-size="10.00">_wall_l</text>
</a>
</g>
</g>
<!-- Node1&#45;&gt;Node8 -->
<g id="edge7" class="edge">
<title>Node1&#45;&gt;Node8</title>
<path fill="none" stroke="midnightblue" d="M81.25,-307.12C95.88,-309.37 112.96,-311.99 129.65,-314.56"/>
<polygon fill="midnightblue" stroke="midnightblue" points="129.55,-318.09 139.97,-316.15 130.62,-311.17 129.55,-318.09"/>
</g>
<!-- Node9 -->
<g id="node9" class="node">
<title>Node9</title>
<g id="a_node9"><a xlink:href="namespacem__cbc.html#a7c2d6c2ca0a6e6308fd0b3339c8e23dd" target="_top" xlink:title="L variables for the supersonic inflow CBC, see pg. 453 Thompson (1990). The supersonic inflow CBC is ...">
<polygon fill="none" stroke="black" points="122.5,-262 122.5,-292 287.5,-292 287.5,-262 122.5,-262"/>
<text text-anchor="start" x="130.5" y="-280" font-family="Helvetica,sans-Serif" font-size="10.00">m_cbc::s_compute_supersonic</text>
<text text-anchor="middle" x="205" y="-269" font-family="Helvetica,sans-Serif" font-size="10.00">_inflow_l</text>
</a>
</g>
</g>
<!-- Node1&#45;&gt;Node9 -->
<g id="edge8" class="edge">
<title>Node1&#45;&gt;Node9</title>
<path fill="none" stroke="midnightblue" d="M81.25,-295.13C90.82,-293.72 101.44,-292.15 112.31,-290.54"/>
<polygon fill="midnightblue" stroke="midnightblue" points="112.96,-293.98 122.34,-289.06 111.94,-287.06 112.96,-293.98"/>
</g>
<!-- Node10 -->
<g id="node10" class="node">
<title>Node10</title>
<g id="a_node10"><a xlink:href="namespacem__cbc.html#aa2e13476498c9affe15f68d3eedbb726" target="_top" xlink:title="L variables for the supersonic outflow CBC, see pg. 453 of Thompson (1990). For the supersonic outflo...">
<polygon fill="none" stroke="black" points="122.5,-213 122.5,-243 287.5,-243 287.5,-213 122.5,-213"/>
<text text-anchor="start" x="130.5" y="-231" font-family="Helvetica,sans-Serif" font-size="10.00">m_cbc::s_compute_supersonic</text>
<text text-anchor="middle" x="205" y="-220" font-family="Helvetica,sans-Serif" font-size="10.00">_outflow_l</text>
</a>
</g>
</g>
<!-- Node1&#45;&gt;Node10 -->
<g id="edge9" class="edge">
<title>Node1&#45;&gt;Node10</title>
<path fill="none" stroke="midnightblue" d="M53.95,-291.49C68.43,-280.83 93.35,-263.65 117,-253 122.32,-250.6 127.94,-248.37 133.64,-246.32"/>
<polygon fill="midnightblue" stroke="midnightblue" points="134.96,-249.56 143.29,-243.02 132.69,-242.94 134.96,-249.56"/>
</g>
<!-- Node11 -->
<g id="node11" class="node">
<title>Node11</title>
<g id="a_node11"><a xlink:href="namespacem__variables__conversion.html#a8d829c8830b91c9a63f3752a43c2add4" target="_top" xlink:title="The following subroutine handles the conversion between the primitive variables and the Eulerian flux...">
<polygon fill="none" stroke="black" points="137.5,-114.5 137.5,-155.5 272.5,-155.5 272.5,-114.5 137.5,-114.5"/>
<text text-anchor="start" x="145.5" y="-143.5" font-family="Helvetica,sans-Serif" font-size="10.00">m_variables_conversion</text>
<text text-anchor="start" x="145.5" y="-132.5" font-family="Helvetica,sans-Serif" font-size="10.00">::s_convert_primitive</text>
<text text-anchor="middle" x="205" y="-121.5" font-family="Helvetica,sans-Serif" font-size="10.00">_to_flux_variables</text>
</a>
</g>
</g>
<!-- Node1&#45;&gt;Node11 -->
<g id="edge10" class="edge">
<title>Node1&#45;&gt;Node11</title>
<path fill="none" stroke="midnightblue" d="M44.58,-291.33C52.63,-267.45 76.57,-205.12 117,-170 120.89,-166.62 125.16,-163.53 129.64,-160.73"/>
<polygon fill="midnightblue" stroke="midnightblue" points="131.54,-163.68 138.49,-155.68 128.07,-157.6 131.54,-163.68"/>
</g>
<!-- Node12 -->
<g id="node12" class="node">
<title>Node12</title>
<g id="a_node12"><a xlink:href="namespacem__variables__conversion.html#a90c79f2c458ee4af542e11361f23c3c4" target="_top" xlink:title=" ">
<polygon fill="none" stroke="black" points="349.5,-153.5 349.5,-194.5 484.5,-194.5 484.5,-153.5 349.5,-153.5"/>
<text text-anchor="start" x="357.5" y="-182.5" font-family="Helvetica,sans-Serif" font-size="10.00">m_variables_conversion</text>
<text text-anchor="start" x="357.5" y="-171.5" font-family="Helvetica,sans-Serif" font-size="10.00">::s_convert_species_to</text>
<text text-anchor="middle" x="417" y="-160.5" font-family="Helvetica,sans-Serif" font-size="10.00">_mixture_variables_acc</text>
</a>
</g>
</g>
<!-- Node1&#45;&gt;Node12 -->
<g id="edge13" class="edge">
<title>Node1&#45;&gt;Node12</title>
<path fill="none" stroke="midnightblue" d="M45.67,-291.47C55.08,-271.28 80.01,-224.43 117,-204 153.85,-183.64 263.1,-177.03 338.8,-174.92"/>
<polygon fill="midnightblue" stroke="midnightblue" points="339.34,-178.41 349.24,-174.65 339.16,-171.41 339.34,-178.41"/>
</g>
<!-- Node13 -->
<g id="node13" class="node">
<title>Node13</title>
<g id="a_node13"><a xlink:href="namespacem__variables__conversion.html#acb81910f3c4223227f19333a919feb6c" target="_top" xlink:title=" ">
<polygon fill="none" stroke="black" points="329,-84.5 329,-125.5 505,-125.5 505,-84.5 329,-84.5"/>
<text text-anchor="start" x="337" y="-113.5" font-family="Helvetica,sans-Serif" font-size="10.00">m_variables_conversion</text>
<text text-anchor="start" x="337" y="-102.5" font-family="Helvetica,sans-Serif" font-size="10.00">::s_convert_species_to</text>
<text text-anchor="middle" x="417" y="-91.5" font-family="Helvetica,sans-Serif" font-size="10.00">_mixture_variables_bubbles_acc</text>
</a>
</g>
</g>
<!-- Node1&#45;&gt;Node13 -->
<g id="edge14" class="edge">
<title>Node1&#45;&gt;Node13</title>
<path fill="none" stroke="midnightblue" d="M41.7,-291.4C42.96,-258.46 52.06,-149.57 117,-105 181.11,-60.99 272.58,-68.49 337.44,-82.28"/>
<polygon fill="midnightblue" stroke="midnightblue" points="336.68,-85.7 347.2,-84.45 338.2,-78.87 336.68,-85.7"/>
</g>
<!-- Node14 -->
<g id="node14" class="node">
<title>Node14</title>
<g id="a_node14"><a xlink:href="namespacem__cbc.html#a3fcf7cde1a04a7ee72ced4aa62cf53d0" target="_top" xlink:title="Deallocation and/or the disassociation procedures that are necessary in order to finalize the CBC app...">
<polygon fill="none" stroke="black" points="144,-38.5 144,-57.5 266,-57.5 266,-38.5 144,-38.5"/>
<text text-anchor="middle" x="205" y="-45.5" font-family="Helvetica,sans-Serif" font-size="10.00">m_cbc::s_finalize_cbc</text>
</a>
</g>
</g>
<!-- Node1&#45;&gt;Node14 -->
<g id="edge15" class="edge">
<title>Node1&#45;&gt;Node14</title>
<path fill="none" stroke="midnightblue" d="M41.64,-291.04C42.7,-255.62 51.2,-134.63 117,-72 122.03,-67.21 127.93,-63.36 134.25,-60.27"/>
<polygon fill="midnightblue" stroke="midnightblue" points="135.89,-63.37 143.74,-56.25 133.17,-56.92 135.89,-63.37"/>
</g>
<!-- Node15 -->
<g id="node15" class="node">
<title>Node15</title>
<g id="a_node15"><a xlink:href="namespacem__cbc.html#a50fed863b4ee14bf81590ed80154b539" target="_top" xlink:title="The computation of parameters, the allocation of memory, the association of pointers and/or the execu...">
<polygon fill="none" stroke="black" points="141,-0.5 141,-19.5 269,-19.5 269,-0.5 141,-0.5"/>
<text text-anchor="middle" x="205" y="-7.5" font-family="Helvetica,sans-Serif" font-size="10.00">m_cbc::s_initialize_cbc</text>
</a>
</g>
</g>
<!-- Node1&#45;&gt;Node15 -->
<g id="edge16" class="edge">
<title>Node1&#45;&gt;Node15</title>
<path fill="none" stroke="midnightblue" d="M42.83,-291.38C49.1,-247.48 77.03,-66.8 117,-29 121.32,-24.92 126.3,-21.63 131.65,-19"/>
<polygon fill="midnightblue" stroke="midnightblue" points="133.05,-22.21 140.95,-15.15 130.37,-15.74 133.05,-22.21"/>
</g>
<!-- Node11&#45;&gt;Node12 -->
<g id="edge11" class="edge">
<title>Node11&#45;&gt;Node12</title>
<path fill="none" stroke="midnightblue" d="M272.73,-147.39C293.98,-151.34 317.65,-155.73 339.53,-159.8"/>
<polygon fill="midnightblue" stroke="midnightblue" points="338.97,-163.25 349.44,-161.64 340.25,-156.37 338.97,-163.25"/>
</g>
<!-- Node11&#45;&gt;Node13 -->
<g id="edge12" class="edge">
<title>Node11&#45;&gt;Node13</title>
<path fill="none" stroke="midnightblue" d="M272.73,-125.47C287.31,-123.38 303.04,-121.14 318.54,-118.92"/>
<polygon fill="midnightblue" stroke="midnightblue" points="319.27,-122.35 328.68,-117.47 318.28,-115.42 319.27,-122.35"/>
</g>
</g>
</svg>
