<?xml version="1.0" encoding="UTF-8" standalone="no"?>
<!DOCTYPE svg PUBLIC "-//W3C//DTD SVG 1.1//EN"
 "http://www.w3.org/Graphics/SVG/1.1/DTD/svg11.dtd">
<!-- Generated by graphviz version 2.43.0 (0)
 -->
<!-- Title: m_viscous::s_reconstruct_cell_boundary_values_visc Pages: 1 -->
<svg width="481pt" height="38pt"
 viewBox="0.00 0.00 481.00 38.00" xmlns="http://www.w3.org/2000/svg" xmlns:xlink="http://www.w3.org/1999/xlink">
<g id="graph0" class="graph" transform="scale(1 1) rotate(0) translate(4 34)">
<title>m_viscous::s_reconstruct_cell_boundary_values_visc</title>
<!-- Node1 -->
<g id="node1" class="node">
<title>Node1</title>
<g id="a_node1"><a xlink:title=" ">
<polygon fill="#999999" stroke="#666666" points="152,-30 0,-30 0,0 152,0 152,-30"/>
<text text-anchor="start" x="8" y="-18" font-family="Helvetica,sans-Serif" font-size="10.00">m_viscous::s_reconstruct</text>
<text text-anchor="middle" x="76" y="-7" font-family="Helvetica,sans-Serif" font-size="10.00">_cell_boundary_values_visc</text>
</a>
</g>
</g>
<!-- Node2 -->
<g id="node2" class="node">
<title>Node2</title>
<g id="a_node2"><a xlink:href="namespacem__weno.html#abf60919ebaaf298c15e8a3a1167610e0" target="_top" xlink:title=" ">
<polygon fill="white" stroke="#666666" points="289,-24.5 188,-24.5 188,-5.5 289,-5.5 289,-24.5"/>
<text text-anchor="middle" x="238.5" y="-12.5" font-family="Helvetica,sans-Serif" font-size="10.00">m_weno::s_weno</text>
</a>
</g>
</g>
<!-- Node1&#45;&gt;Node2 -->
<g id="edge1" class="edge">
<title>Node1&#45;&gt;Node2</title>
<path fill="none" stroke="#63b8ff" d="M152.08,-15C160.57,-15 169.14,-15 177.4,-15"/>
<polygon fill="#63b8ff" stroke="#63b8ff" points="177.68,-18.5 187.68,-15 177.68,-11.5 177.68,-18.5"/>
</g>
<!-- Node3 -->
<g id="node3" class="node">
<title>Node3</title>
<g id="a_node3"><a xlink:href="namespacem__weno.html#ac5c7a0754b0624a47b0152c759ee1789" target="_top" xlink:title="The computation of parameters, the allocation of memory, the association of pointers and/or the execu...">
<polygon fill="white" stroke="#666666" points="473,-24.5 325,-24.5 325,-5.5 473,-5.5 473,-24.5"/>
<text text-anchor="middle" x="399" y="-12.5" font-family="Helvetica,sans-Serif" font-size="10.00">m_weno::s_initialize_weno</text>
</a>
</g>
</g>
<!-- Node2&#45;&gt;Node3 -->
<g id="edge2" class="edge">
<title>Node2&#45;&gt;Node3</title>
<path fill="none" stroke="#63b8ff" d="M289.22,-15C297.37,-15 306.02,-15 314.72,-15"/>
<polygon fill="#63b8ff" stroke="#63b8ff" points="314.95,-18.5 324.95,-15 314.95,-11.5 314.95,-18.5"/>
</g>
</g>
</svg>
