<?xml version="1.0" encoding="UTF-8" standalone="no"?>
<!DOCTYPE svg PUBLIC "-//W3C//DTD SVG 1.1//EN"
 "http://www.w3.org/Graphics/SVG/1.1/DTD/svg11.dtd">
<!-- Generated by graphviz version 2.43.0 (0)
 -->
<!-- Title: m_cbc::s_initialize_cbc_module Pages: 1 -->
<svg width="461pt" height="38pt"
 viewBox="0.00 0.00 461.00 38.00" xmlns="http://www.w3.org/2000/svg" xmlns:xlink="http://www.w3.org/1999/xlink">
<g id="graph0" class="graph" transform="scale(1 1) rotate(0) translate(4 34)">
<title>m_cbc::s_initialize_cbc_module</title>
<!-- Node1 -->
<g id="Node000001" class="node">
<title>Node1</title>
<g id="a_Node000001"><a xlink:title="The computation of parameters, the allocation of memory, the association of pointers and/or the execu...">
<polygon fill="#999999" stroke="#666666" points="107,-30 0,-30 0,0 107,0 107,-30"/>
<text text-anchor="start" x="8" y="-18" font-family="Helvetica,sans-Serif" font-size="10.00">m_cbc::s_initialize</text>
<text text-anchor="middle" x="53.5" y="-7" font-family="Helvetica,sans-Serif" font-size="10.00">_cbc_module</text>
</a>
</g>
</g>
<!-- Node2 -->
<g id="Node000002" class="node">
<title>Node2</title>
<g id="a_Node000002"><a xlink:href="namespacem__cbc.html#a460b0f51b92de710648d9088801b1cde" target="_top" xlink:title="Compute CBC coefficients.">
<polygon fill="white" stroke="#666666" points="272,-30 143,-30 143,0 272,0 272,-30"/>
<text text-anchor="start" x="151" y="-18" font-family="Helvetica,sans-Serif" font-size="10.00">m_cbc::s_compute_cbc</text>
<text text-anchor="middle" x="207.5" y="-7" font-family="Helvetica,sans-Serif" font-size="10.00">_coefficients</text>
</a>
</g>
</g>
<!-- Node1&#45;&gt;Node2 -->
<g id="edge1_Node000001_Node000002" class="edge">
<title>Node1&#45;&gt;Node2</title>
<g id="a_edge1_Node000001_Node000002"><a xlink:title=" ">
<path fill="none" stroke="#63b8ff" d="M107.24,-15C115.49,-15 124.16,-15 132.78,-15"/>
<polygon fill="#63b8ff" stroke="#63b8ff" points="132.86,-18.5 142.86,-15 132.86,-11.5 132.86,-18.5"/>
</a>
</g>
</g>
<!-- Node3 -->
<g id="Node000003" class="node">
<title>Node3</title>
<g id="a_Node000003"><a xlink:href="namespacem__cbc.html#a0860f3f0c146b497f05ed57e07e0d4d9" target="_top" xlink:title=" ">
<polygon fill="white" stroke="#666666" points="453,-30 308,-30 308,0 453,0 453,-30"/>
<text text-anchor="start" x="316" y="-18" font-family="Helvetica,sans-Serif" font-size="10.00">m_cbc::s_associate</text>
<text text-anchor="middle" x="380.5" y="-7" font-family="Helvetica,sans-Serif" font-size="10.00">_cbc_coefficients_pointers</text>
</a>
</g>
</g>
<!-- Node2&#45;&gt;Node3 -->
<g id="edge2_Node000002_Node000003" class="edge">
<title>Node2&#45;&gt;Node3</title>
<g id="a_edge2_Node000002_Node000003"><a xlink:title=" ">
<path fill="none" stroke="#63b8ff" d="M272.17,-15C280.5,-15 289.12,-15 297.7,-15"/>
<polygon fill="#63b8ff" stroke="#63b8ff" points="297.72,-18.5 307.72,-15 297.72,-11.5 297.72,-18.5"/>
</a>
</g>
</g>
</g>
</svg>
