<?xml version="1.0" encoding="UTF-8" standalone="no"?>
<!DOCTYPE svg PUBLIC "-//W3C//DTD SVG 1.1//EN"
 "http://www.w3.org/Graphics/SVG/1.1/DTD/svg11.dtd">
<!-- Generated by graphviz version 2.43.0 (0)
 -->
<!-- Title: m_derived_variables::s_compute_derived_variables Pages: 1 -->
<svg width="479pt" height="122pt"
 viewBox="0.00 0.00 479.00 121.50" xmlns="http://www.w3.org/2000/svg" xmlns:xlink="http://www.w3.org/1999/xlink">
<g id="graph0" class="graph" transform="scale(1 1) rotate(0) translate(4 117.5)">
<title>m_derived_variables::s_compute_derived_variables</title>
<!-- Node1 -->
<g id="Node000001" class="node">
<title>Node1</title>
<g id="a_Node000001"><a xlink:title="Writes coherent body information, communication files, and probes.">
<polygon fill="#999999" stroke="#666666" points="119,-86.5 0,-86.5 0,-45.5 119,-45.5 119,-86.5"/>
<text text-anchor="start" x="8" y="-74.5" font-family="Helvetica,sans-Serif" font-size="10.00">m_derived_variables</text>
<text text-anchor="start" x="8" y="-63.5" font-family="Helvetica,sans-Serif" font-size="10.00">::s_compute_derived</text>
<text text-anchor="middle" x="59.5" y="-52.5" font-family="Helvetica,sans-Serif" font-size="10.00">_variables</text>
</a>
</g>
</g>
<!-- Node2 -->
<g id="Node000002" class="node">
<title>Node2</title>
<g id="a_Node000002"><a xlink:href="namespacem__derived__variables.html#aeafec81c1b2cb37f1cea824b9fff4d9b" target="_top" xlink:title="This subroutine receives as inputs the indicator of the component of the acceleration that should be ...">
<polygon fill="white" stroke="#666666" points="285,-113.5 156,-113.5 156,-72.5 285,-72.5 285,-113.5"/>
<text text-anchor="start" x="164" y="-101.5" font-family="Helvetica,sans-Serif" font-size="10.00">m_derived_variables</text>
<text text-anchor="start" x="164" y="-90.5" font-family="Helvetica,sans-Serif" font-size="10.00">::s_derive_acceleration</text>
<text text-anchor="middle" x="220.5" y="-79.5" font-family="Helvetica,sans-Serif" font-size="10.00">_component</text>
</a>
</g>
</g>
<!-- Node1&#45;&gt;Node2 -->
<g id="edge1_Node000001_Node000002" class="edge">
<title>Node1&#45;&gt;Node2</title>
<g id="a_edge1_Node000001_Node000002"><a xlink:title=" ">
<path fill="none" stroke="#63b8ff" d="M119.25,-75.98C127.93,-77.45 136.96,-78.98 145.89,-80.5"/>
<polygon fill="#63b8ff" stroke="#63b8ff" points="145.47,-83.98 155.91,-82.2 146.64,-77.08 145.47,-83.98"/>
</a>
</g>
</g>
<!-- Node3 -->
<g id="Node000003" class="node">
<title>Node3</title>
<g id="a_Node000003"><a xlink:href="namespacem__data__output.html#a29f34883bc8e9d895dbb4232493397a1" target="_top" xlink:title="This writes a formatted data file for the flow probe information.">
<polygon fill="white" stroke="#666666" points="286,-54 155,-54 155,-24 286,-24 286,-54"/>
<text text-anchor="start" x="163" y="-42" font-family="Helvetica,sans-Serif" font-size="10.00">m_data_output::s_write</text>
<text text-anchor="middle" x="220.5" y="-31" font-family="Helvetica,sans-Serif" font-size="10.00">_probe_files</text>
</a>
</g>
</g>
<!-- Node1&#45;&gt;Node3 -->
<g id="edge2_Node000001_Node000003" class="edge">
<title>Node1&#45;&gt;Node3</title>
<g id="a_edge2_Node000001_Node000003"><a xlink:title=" ">
<path fill="none" stroke="#63b8ff" d="M119.25,-56.02C127.58,-54.61 136.24,-53.14 144.82,-51.68"/>
<polygon fill="#63b8ff" stroke="#63b8ff" points="145.56,-55.11 154.83,-49.98 144.39,-48.2 145.56,-55.11"/>
</a>
</g>
</g>
<!-- Node4 -->
<g id="Node000004" class="node">
<title>Node4</title>
<g id="a_Node000004"><a xlink:href="namespacem__variables__conversion.html#a1be52cb9db2d49f8f256b226d72b8d4c" target="_top" xlink:title="This procedure conditionally calculates the appropriate pressure.">
<polygon fill="white" stroke="#666666" points="464,-78 329,-78 329,-48 464,-48 464,-78"/>
<text text-anchor="start" x="337" y="-66" font-family="Helvetica,sans-Serif" font-size="10.00">m_variables_conversion</text>
<text text-anchor="middle" x="396.5" y="-55" font-family="Helvetica,sans-Serif" font-size="10.00">::s_compute_pressure</text>
</a>
</g>
</g>
<!-- Node3&#45;&gt;Node4 -->
<g id="edge3_Node000003_Node000004" class="edge">
<title>Node3&#45;&gt;Node4</title>
<g id="a_edge3_Node000003_Node000004"><a xlink:title=" ">
<path fill="none" stroke="#63b8ff" d="M286.29,-47.94C296.94,-49.41 308.07,-50.94 318.98,-52.45"/>
<polygon fill="#63b8ff" stroke="#63b8ff" points="318.53,-55.92 328.91,-53.82 319.48,-48.98 318.53,-55.92"/>
</a>
</g>
</g>
<!-- Node5 -->
<g id="Node000005" class="node">
<title>Node5</title>
<g id="a_Node000005"><a xlink:href="namespacem__data__output.html#abbc9b3b285171712d268ae3f77c79381" target="_top" xlink:title=" ">
<polygon fill="white" stroke="#666666" points="471,-30 322,-30 322,0 471,0 471,-30"/>
<text text-anchor="start" x="330" y="-18" font-family="Helvetica,sans-Serif" font-size="10.00">m_data_output::s_compute</text>
<text text-anchor="middle" x="396.5" y="-7" font-family="Helvetica,sans-Serif" font-size="10.00">_speed_of_sound</text>
</a>
</g>
</g>
<!-- Node3&#45;&gt;Node5 -->
<g id="edge4_Node000003_Node000005" class="edge">
<title>Node3&#45;&gt;Node5</title>
<g id="a_edge4_Node000003_Node000005"><a xlink:title=" ">
<path fill="none" stroke="#63b8ff" d="M286.29,-30.06C294.62,-28.91 303.25,-27.72 311.83,-26.54"/>
<polygon fill="#63b8ff" stroke="#63b8ff" points="312.44,-29.99 321.87,-25.16 311.48,-23.06 312.44,-29.99"/>
</a>
</g>
</g>
</g>
</svg>
