<?xml version="1.0" encoding="UTF-8" standalone="no"?>
<!DOCTYPE svg PUBLIC "-//W3C//DTD SVG 1.1//EN"
 "http://www.w3.org/Graphics/SVG/1.1/DTD/svg11.dtd">
<!-- Generated by graphviz version 2.43.0 (0)
 -->
<!-- Title: m_derived_variables::s_derive_higher_moments Pages: 1 -->
<svg width="357pt" height="86pt"
 viewBox="0.00 0.00 357.00 86.00" xmlns="http://www.w3.org/2000/svg" xmlns:xlink="http://www.w3.org/1999/xlink">
<g id="graph0" class="graph" transform="scale(1 1) rotate(0) translate(4 82)">
<title>m_derived_variables::s_derive_higher_moments</title>
<!-- Node1 -->
<g id="node1" class="node">
<title>Node1</title>
<g id="a_node1"><a xlink:title="Subroutine to compute the higher moments in an attempt to find the maximal size of the droplet.">
<polygon fill="#999999" stroke="#666666" points="152,-54 0,-54 0,-24 152,-24 152,-54"/>
<text text-anchor="start" x="8" y="-42" font-family="Helvetica,sans-Serif" font-size="10.00">m_derived_variables</text>
<text text-anchor="middle" x="76" y="-31" font-family="Helvetica,sans-Serif" font-size="10.00">::s_derive_higher_moments</text>
</a>
</g>
</g>
<!-- Node2 -->
<g id="node2" class="node">
<title>Node2</title>
<g id="a_node2"><a xlink:href="namespacem__derived__variables.html#a2ee18c156bb444c6ab73d4762960ef67" target="_top" xlink:title="Compute non&#45;symmetric moments.">
<polygon fill="white" stroke="#666666" points="349,-78 188,-78 188,-48 349,-48 349,-78"/>
<text text-anchor="start" x="196" y="-66" font-family="Helvetica,sans-Serif" font-size="10.00">m_derived_variables</text>
<text text-anchor="middle" x="268.5" y="-55" font-family="Helvetica,sans-Serif" font-size="10.00">::s_non_symmetric_moments</text>
</a>
</g>
</g>
<!-- Node1&#45;&gt;Node2 -->
<g id="edge1" class="edge">
<title>Node1&#45;&gt;Node2</title>
<path fill="none" stroke="#63b8ff" d="M152.02,-48.45C160.47,-49.52 169.15,-50.61 177.77,-51.7"/>
<polygon fill="#63b8ff" stroke="#63b8ff" points="177.49,-55.19 187.85,-52.96 178.36,-48.24 177.49,-55.19"/>
</g>
<!-- Node3 -->
<g id="node3" class="node">
<title>Node3</title>
<g id="a_node3"><a xlink:href="namespacem__derived__variables.html#ade52fa354cc5b681c4d6ef6fc8b2c61b" target="_top" xlink:title="Compute symmetric moments.">
<polygon fill="white" stroke="#666666" points="337,-30 200,-30 200,0 337,0 337,-30"/>
<text text-anchor="start" x="208" y="-18" font-family="Helvetica,sans-Serif" font-size="10.00">m_derived_variables</text>
<text text-anchor="middle" x="268.5" y="-7" font-family="Helvetica,sans-Serif" font-size="10.00">::s_symmetric_moments</text>
</a>
</g>
</g>
<!-- Node1&#45;&gt;Node3 -->
<g id="edge2" class="edge">
<title>Node1&#45;&gt;Node3</title>
<path fill="none" stroke="#63b8ff" d="M152.02,-29.55C164.5,-27.98 177.48,-26.34 190.03,-24.76"/>
<polygon fill="#63b8ff" stroke="#63b8ff" points="190.5,-28.23 199.98,-23.51 189.62,-21.28 190.5,-28.23"/>
</g>
</g>
</svg>
