<?xml version="1.0" encoding="UTF-8" standalone="no"?>
<!DOCTYPE svg PUBLIC "-//W3C//DTD SVG 1.1//EN"
 "http://www.w3.org/Graphics/SVG/1.1/DTD/svg11.dtd">
<!-- Generated by graphviz version 2.43.0 (0)
 -->
<!-- Title: m_variables_conversion::s_convert_mixture_to_mixture_variables Pages: 1 -->
<svg width="417pt" height="209pt"
 viewBox="0.00 0.00 417.00 208.50" xmlns="http://www.w3.org/2000/svg" xmlns:xlink="http://www.w3.org/1999/xlink">
<g id="graph0" class="graph" transform="scale(1 1) rotate(0) translate(4 204.5)">
<title>m_variables_conversion::s_convert_mixture_to_mixture_variables</title>
<!-- Node1 -->
<g id="node1" class="node">
<title>Node1</title>
<g id="a_node1"><a xlink:title="This procedure is used alongside with the gamma/pi_inf model to transfer the density,...">
<polygon fill="#bfbfbf" stroke="black" points="274,-87.5 274,-128.5 409,-128.5 409,-87.5 274,-87.5"/>
<text text-anchor="start" x="282" y="-116.5" font-family="Helvetica,sans-Serif" font-size="10.00">m_variables_conversion</text>
<text text-anchor="start" x="282" y="-105.5" font-family="Helvetica,sans-Serif" font-size="10.00">::s_convert_mixture_to</text>
<text text-anchor="middle" x="341.5" y="-94.5" font-family="Helvetica,sans-Serif" font-size="10.00">_mixture_variables</text>
</a>
</g>
</g>
<!-- Node2 -->
<g id="node2" class="node">
<title>Node2</title>
<g id="a_node2"><a xlink:href="namespacem__data__output.html#ab65b312ef83adb104cafafada9c998b6" target="_top" xlink:title="The computation of parameters, the allocation of memory, the association of pointers and/or the execu...">
<polygon fill="none" stroke="black" points="89,-170 89,-200 238,-200 238,-170 89,-170"/>
<text text-anchor="start" x="97" y="-188" font-family="Helvetica,sans-Serif" font-size="10.00">m_data_output::s_initialize</text>
<text text-anchor="middle" x="163.5" y="-177" font-family="Helvetica,sans-Serif" font-size="10.00">_data_output_module</text>
</a>
</g>
</g>
<!-- Node1&#45;&gt;Node2 -->
<g id="edge1" class="edge">
<title>Node1&#45;&gt;Node2</title>
<path fill="none" stroke="midnightblue" d="M295.28,-133.39C277.7,-142.72 257.2,-152.96 238,-161 230.45,-164.16 222.32,-167.18 214.32,-169.94"/>
<polygon fill="midnightblue" stroke="midnightblue" points="297.03,-136.42 304.18,-128.61 293.71,-130.25 297.03,-136.42"/>
</g>
<!-- Node4 -->
<g id="node4" class="node">
<title>Node4</title>
<g id="a_node4"><a xlink:href="namespacem__rhs.html#ae6f7edb814859919c5d1f739574155bd" target="_top" xlink:title="The computation of parameters, the allocation of memory, the association of pointers and/or the execu...">
<polygon fill="none" stroke="black" points="111,-121 111,-151 216,-151 216,-121 111,-121"/>
<text text-anchor="start" x="119" y="-139" font-family="Helvetica,sans-Serif" font-size="10.00">m_rhs::s_initialize</text>
<text text-anchor="middle" x="163.5" y="-128" font-family="Helvetica,sans-Serif" font-size="10.00">_rhs_module</text>
</a>
</g>
</g>
<!-- Node1&#45;&gt;Node4 -->
<g id="edge3" class="edge">
<title>Node1&#45;&gt;Node4</title>
<path fill="none" stroke="midnightblue" d="M263.97,-120.18C247.77,-122.75 231.05,-125.41 216.04,-127.8"/>
<polygon fill="midnightblue" stroke="midnightblue" points="264.64,-123.61 273.96,-118.59 263.54,-116.7 264.64,-123.61"/>
</g>
<!-- Node5 -->
<g id="node5" class="node">
<title>Node5</title>
<g id="a_node5"><a xlink:href="namespacem__riemann__solvers.html#aab7e6bf69b7d0b8b9d911f418b872130" target="_top" xlink:title="The computation of parameters, the allocation of memory, the association of pointers and/or the execu...">
<polygon fill="none" stroke="black" points="104,-60.5 104,-101.5 223,-101.5 223,-60.5 104,-60.5"/>
<text text-anchor="start" x="112" y="-89.5" font-family="Helvetica,sans-Serif" font-size="10.00">m_riemann_solvers::</text>
<text text-anchor="start" x="112" y="-78.5" font-family="Helvetica,sans-Serif" font-size="10.00">s_initialize_riemann</text>
<text text-anchor="middle" x="163.5" y="-67.5" font-family="Helvetica,sans-Serif" font-size="10.00">_solvers_module</text>
</a>
</g>
</g>
<!-- Node1&#45;&gt;Node5 -->
<g id="edge5" class="edge">
<title>Node1&#45;&gt;Node5</title>
<path fill="none" stroke="midnightblue" d="M264.04,-96.27C250.31,-94.16 236.18,-92 223.05,-89.98"/>
<polygon fill="midnightblue" stroke="midnightblue" points="263.55,-99.74 273.96,-97.79 264.61,-92.82 263.55,-99.74"/>
</g>
<!-- Node6 -->
<g id="node6" class="node">
<title>Node6</title>
<g id="a_node6"><a xlink:href="namespacem__variables__conversion.html#ac006af9a5403b2fdad7f81ce0a67ecec" target="_top" xlink:title="The computation of parameters, the allocation of memory, the association of pointers and/or the execu...">
<polygon fill="none" stroke="black" points="96,-0.5 96,-41.5 231,-41.5 231,-0.5 96,-0.5"/>
<text text-anchor="start" x="104" y="-29.5" font-family="Helvetica,sans-Serif" font-size="10.00">m_variables_conversion</text>
<text text-anchor="start" x="104" y="-18.5" font-family="Helvetica,sans-Serif" font-size="10.00">::s_initialize_variables</text>
<text text-anchor="middle" x="163.5" y="-7.5" font-family="Helvetica,sans-Serif" font-size="10.00">_conversion_module</text>
</a>
</g>
</g>
<!-- Node1&#45;&gt;Node6 -->
<g id="edge7" class="edge">
<title>Node1&#45;&gt;Node6</title>
<path fill="none" stroke="midnightblue" d="M296.86,-82.22C278.89,-72 257.7,-60.45 238,-51 231.29,-47.78 224.14,-44.58 217.04,-41.54"/>
<polygon fill="midnightblue" stroke="midnightblue" points="295.53,-85.48 305.94,-87.42 299.01,-79.41 295.53,-85.48"/>
</g>
<!-- Node3 -->
<g id="node3" class="node">
<title>Node3</title>
<g id="a_node3"><a xlink:href="p__main_8f90.html#aeec10ee8e2940c953967da3e374e1579" target="_top" xlink:title="Quasi&#45;conservative, shock&#45; and interface&#45; capturing finite&#45;volume scheme for the multicomponent Navie...">
<polygon fill="none" stroke="black" points="0,-98.5 0,-117.5 53,-117.5 53,-98.5 0,-98.5"/>
<text text-anchor="middle" x="26.5" y="-105.5" font-family="Helvetica,sans-Serif" font-size="10.00">p_main</text>
</a>
</g>
</g>
<!-- Node2&#45;&gt;Node3 -->
<g id="edge2" class="edge">
<title>Node2&#45;&gt;Node3</title>
<path fill="none" stroke="midnightblue" d="M98.59,-165.9C95.29,-164.36 92.07,-162.73 89,-161 67.88,-149.09 47.38,-129.26 36.2,-117.53"/>
<polygon fill="midnightblue" stroke="midnightblue" points="97.49,-169.23 108.06,-169.95 100.24,-162.79 97.49,-169.23"/>
</g>
<!-- Node4&#45;&gt;Node3 -->
<g id="edge4" class="edge">
<title>Node4&#45;&gt;Node3</title>
<path fill="none" stroke="midnightblue" d="M100.44,-123.13C83.83,-119.68 66.77,-116.14 53.33,-113.36"/>
<polygon fill="midnightblue" stroke="midnightblue" points="100.19,-126.65 110.69,-125.25 101.61,-119.8 100.19,-126.65"/>
</g>
<!-- Node5&#45;&gt;Node3 -->
<g id="edge6" class="edge">
<title>Node5&#45;&gt;Node3</title>
<path fill="none" stroke="midnightblue" d="M93.72,-94.76C79.29,-97.64 64.95,-100.51 53.32,-102.84"/>
<polygon fill="midnightblue" stroke="midnightblue" points="94.56,-98.16 103.68,-92.76 93.19,-91.29 94.56,-98.16"/>
</g>
<!-- Node6&#45;&gt;Node3 -->
<g id="edge8" class="edge">
<title>Node6&#45;&gt;Node3</title>
<path fill="none" stroke="midnightblue" d="M97.05,-46.23C94.29,-47.76 91.59,-49.35 89,-51 67.64,-64.62 46.9,-86.05 35.81,-98.39"/>
<polygon fill="midnightblue" stroke="midnightblue" points="98.79,-49.27 106.06,-41.56 95.57,-43.05 98.79,-49.27"/>
</g>
</g>
</svg>
