<?xml version="1.0" encoding="UTF-8" standalone="no"?>
<!DOCTYPE svg PUBLIC "-//W3C//DTD SVG 1.1//EN"
 "http://www.w3.org/Graphics/SVG/1.1/DTD/svg11.dtd">
<!-- Generated by graphviz version 2.43.0 (0)
 -->
<!-- Title: m_derived_variables::s_initialize_derived_variables Pages: 1 -->
<svg width="323pt" height="194pt"
 viewBox="0.00 0.00 323.00 193.50" xmlns="http://www.w3.org/2000/svg" xmlns:xlink="http://www.w3.org/1999/xlink">
<g id="graph0" class="graph" transform="scale(1 1) rotate(0) translate(4 189.5)">
<title>m_derived_variables::s_initialize_derived_variables</title>
<!-- Node1 -->
<g id="node1" class="node">
<title>Node1</title>
<g id="a_node1"><a xlink:title="Allocate and open derived variables. Computing FD coefficients.">
<polygon fill="#999999" stroke="#666666" points="119,-107.5 0,-107.5 0,-66.5 119,-66.5 119,-107.5"/>
<text text-anchor="start" x="8" y="-95.5" font-family="Helvetica,sans-Serif" font-size="10.00">m_derived_variables</text>
<text text-anchor="start" x="8" y="-84.5" font-family="Helvetica,sans-Serif" font-size="10.00">::s_initialize_derived</text>
<text text-anchor="middle" x="59.5" y="-73.5" font-family="Helvetica,sans-Serif" font-size="10.00">_variables</text>
</a>
</g>
</g>
<!-- Node2 -->
<g id="node2" class="node">
<title>Node2</title>
<g id="a_node2"><a xlink:href="namespacem__derived__variables.html#a908281ae7fe786ef19397e268ede0ece" target="_top" xlink:title="The purpose of this subroutine is to compute the finite&#45; difference coefficients for the centered sch...">
<polygon fill="white" stroke="#666666" points="315,-185.5 155,-185.5 155,-144.5 315,-144.5 315,-185.5"/>
<text text-anchor="start" x="163" y="-173.5" font-family="Helvetica,sans-Serif" font-size="10.00">m_derived_variables</text>
<text text-anchor="start" x="163" y="-162.5" font-family="Helvetica,sans-Serif" font-size="10.00">::s_compute_finite_difference</text>
<text text-anchor="middle" x="235" y="-151.5" font-family="Helvetica,sans-Serif" font-size="10.00">_coefficients</text>
</a>
</g>
</g>
<!-- Node1&#45;&gt;Node2 -->
<g id="edge1" class="edge">
<title>Node1&#45;&gt;Node2</title>
<path fill="none" stroke="#63b8ff" d="M98.67,-107.56C115.71,-116.43 136.15,-126.66 155,-135 159.3,-136.9 163.77,-138.8 168.28,-140.66"/>
<polygon fill="#63b8ff" stroke="#63b8ff" points="167.01,-143.92 177.6,-144.43 169.64,-137.43 167.01,-143.92"/>
</g>
<!-- Node3 -->
<g id="node3" class="node">
<title>Node3</title>
<g id="a_node3"><a xlink:href="namespacem__data__output.html#a411af1336ca1bc899d3b7352d9383a81" target="_top" xlink:title="This opens a formatted data file where the root processor can write out the coherent body (cb) inform...">
<polygon fill="white" stroke="#666666" points="300.5,-126 169.5,-126 169.5,-96 300.5,-96 300.5,-126"/>
<text text-anchor="start" x="177.5" y="-114" font-family="Helvetica,sans-Serif" font-size="10.00">m_data_output::s_open</text>
<text text-anchor="middle" x="235" y="-103" font-family="Helvetica,sans-Serif" font-size="10.00">_cb_files</text>
</a>
</g>
</g>
<!-- Node1&#45;&gt;Node3 -->
<g id="edge2" class="edge">
<title>Node1&#45;&gt;Node3</title>
<path fill="none" stroke="#63b8ff" d="M119.24,-95.13C132.09,-96.9 145.85,-98.81 159.23,-100.66"/>
<polygon fill="#63b8ff" stroke="#63b8ff" points="158.98,-104.16 169.36,-102.06 159.94,-97.22 158.98,-104.16"/>
</g>
<!-- Node4 -->
<g id="node4" class="node">
<title>Node4</title>
<g id="a_node4"><a xlink:href="namespacem__data__output.html#a36714d4cf746d5beb2736752fdd6d747" target="_top" xlink:title="This opens a formatted data file where the root processor can write out the CoM information.">
<polygon fill="white" stroke="#666666" points="300.5,-78 169.5,-78 169.5,-48 300.5,-48 300.5,-78"/>
<text text-anchor="start" x="177.5" y="-66" font-family="Helvetica,sans-Serif" font-size="10.00">m_data_output::s_open</text>
<text text-anchor="middle" x="235" y="-55" font-family="Helvetica,sans-Serif" font-size="10.00">_com_files</text>
</a>
</g>
</g>
<!-- Node1&#45;&gt;Node4 -->
<g id="edge3" class="edge">
<title>Node1&#45;&gt;Node4</title>
<path fill="none" stroke="#63b8ff" d="M119.24,-78.87C132.09,-77.1 145.85,-75.19 159.23,-73.34"/>
<polygon fill="#63b8ff" stroke="#63b8ff" points="159.94,-76.78 169.36,-71.94 158.98,-69.84 159.94,-76.78"/>
</g>
<!-- Node5 -->
<g id="node5" class="node">
<title>Node5</title>
<g id="a_node5"><a xlink:href="namespacem__data__output.html#af469c3d867d96eb1ca255832e586ec97" target="_top" xlink:title="This opens a formatted data file where the root processor can write out flow probe information.">
<polygon fill="white" stroke="#666666" points="300.5,-30 169.5,-30 169.5,0 300.5,0 300.5,-30"/>
<text text-anchor="start" x="177.5" y="-18" font-family="Helvetica,sans-Serif" font-size="10.00">m_data_output::s_open</text>
<text text-anchor="middle" x="235" y="-7" font-family="Helvetica,sans-Serif" font-size="10.00">_probe_files</text>
</a>
</g>
</g>
<!-- Node1&#45;&gt;Node5 -->
<g id="edge4" class="edge">
<title>Node1&#45;&gt;Node5</title>
<path fill="none" stroke="#63b8ff" d="M97.51,-66.3C114.67,-57.2 135.54,-46.83 155,-39 159.99,-36.99 165.21,-35.06 170.49,-33.22"/>
<polygon fill="#63b8ff" stroke="#63b8ff" points="171.65,-36.52 180.02,-30.02 169.42,-29.89 171.65,-36.52"/>
</g>
</g>
</svg>
