<?xml version="1.0" encoding="UTF-8" standalone="no"?>
<!DOCTYPE svg PUBLIC "-//W3C//DTD SVG 1.1//EN"
 "http://www.w3.org/Graphics/SVG/1.1/DTD/svg11.dtd">
<!-- Generated by graphviz version 2.43.0 (0)
 -->
<!-- Title: m_derived_variables::s_compute_derived_variables Pages: 1 -->
<svg width="465pt" height="98pt"
 viewBox="0.00 0.00 465.00 97.50" xmlns="http://www.w3.org/2000/svg" xmlns:xlink="http://www.w3.org/1999/xlink">
<g id="graph0" class="graph" transform="scale(1 1) rotate(0) translate(4 93.5)">
<title>m_derived_variables::s_compute_derived_variables</title>
<!-- Node1 -->
<g id="node1" class="node">
<title>Node1</title>
<g id="a_node1"><a xlink:title="Writes coherent body information, communication files, and probes.">
<polygon fill="#999999" stroke="#666666" points="119,-62.5 0,-62.5 0,-21.5 119,-21.5 119,-62.5"/>
<text text-anchor="start" x="8" y="-50.5" font-family="Helvetica,sans-Serif" font-size="10.00">m_derived_variables</text>
<text text-anchor="start" x="8" y="-39.5" font-family="Helvetica,sans-Serif" font-size="10.00">::s_compute_derived</text>
<text text-anchor="middle" x="59.5" y="-28.5" font-family="Helvetica,sans-Serif" font-size="10.00">_variables</text>
</a>
</g>
</g>
<!-- Node2 -->
<g id="node2" class="node">
<title>Node2</title>
<g id="a_node2"><a xlink:href="namespacem__derived__variables.html#a5c6df8a69a463ae2c56fb2c2bb8c59a7" target="_top" xlink:title="This subroutine receives as inputs the indicator of the component of the acceleration that should be ...">
<polygon fill="white" stroke="#666666" points="285,-89.5 156,-89.5 156,-48.5 285,-48.5 285,-89.5"/>
<text text-anchor="start" x="164" y="-77.5" font-family="Helvetica,sans-Serif" font-size="10.00">m_derived_variables</text>
<text text-anchor="start" x="164" y="-66.5" font-family="Helvetica,sans-Serif" font-size="10.00">::s_derive_acceleration</text>
<text text-anchor="middle" x="220.5" y="-55.5" font-family="Helvetica,sans-Serif" font-size="10.00">_component</text>
</a>
</g>
</g>
<!-- Node1&#45;&gt;Node2 -->
<g id="edge1" class="edge">
<title>Node1&#45;&gt;Node2</title>
<path fill="none" stroke="#63b8ff" d="M119.25,-51.98C127.93,-53.45 136.96,-54.98 145.89,-56.5"/>
<polygon fill="#63b8ff" stroke="#63b8ff" points="145.47,-59.98 155.91,-58.2 146.64,-53.08 145.47,-59.98"/>
</g>
<!-- Node3 -->
<g id="node3" class="node">
<title>Node3</title>
<g id="a_node3"><a xlink:href="namespacem__data__output.html#a29f34883bc8e9d895dbb4232493397a1" target="_top" xlink:title="This writes a formatted data file for the flow probe information.">
<polygon fill="white" stroke="#666666" points="286,-30 155,-30 155,0 286,0 286,-30"/>
<text text-anchor="start" x="163" y="-18" font-family="Helvetica,sans-Serif" font-size="10.00">m_data_output::s_write</text>
<text text-anchor="middle" x="220.5" y="-7" font-family="Helvetica,sans-Serif" font-size="10.00">_probe_files</text>
</a>
</g>
</g>
<!-- Node1&#45;&gt;Node3 -->
<g id="edge2" class="edge">
<title>Node1&#45;&gt;Node3</title>
<path fill="none" stroke="#63b8ff" d="M119.25,-32.02C127.58,-30.61 136.24,-29.14 144.82,-27.68"/>
<polygon fill="#63b8ff" stroke="#63b8ff" points="145.56,-31.11 154.83,-25.98 144.39,-24.2 145.56,-31.11"/>
</g>
<!-- Node4 -->
<g id="node4" class="node">
<title>Node4</title>
<g id="a_node4"><a xlink:href="namespacem__variables__conversion.html#a0d8355cfe5f7428da40115584f9eb3bd" target="_top" xlink:title="This procedure conditionally calculates the appropriate pressure.">
<polygon fill="white" stroke="#666666" points="457,-30 322,-30 322,0 457,0 457,-30"/>
<text text-anchor="start" x="330" y="-18" font-family="Helvetica,sans-Serif" font-size="10.00">m_variables_conversion</text>
<text text-anchor="middle" x="389.5" y="-7" font-family="Helvetica,sans-Serif" font-size="10.00">::s_compute_pressure</text>
</a>
</g>
</g>
<!-- Node3&#45;&gt;Node4 -->
<g id="edge3" class="edge">
<title>Node3&#45;&gt;Node4</title>
<path fill="none" stroke="#63b8ff" d="M286.07,-15C294.51,-15 303.23,-15 311.85,-15"/>
<polygon fill="#63b8ff" stroke="#63b8ff" points="311.9,-18.5 321.9,-15 311.9,-11.5 311.9,-18.5"/>
</g>
</g>
</svg>
