<?xml version="1.0" encoding="UTF-8" standalone="no"?>
<!DOCTYPE svg PUBLIC "-//W3C//DTD SVG 1.1//EN"
 "http://www.w3.org/Graphics/SVG/1.1/DTD/svg11.dtd">
<!-- Generated by graphviz version 2.43.0 (0)
 -->
<!-- Title: m_derived_variables::s_derive_acceleration_component Pages: 1 -->
<svg width="381pt" height="49pt"
 viewBox="0.00 0.00 381.00 49.00" xmlns="http://www.w3.org/2000/svg" xmlns:xlink="http://www.w3.org/1999/xlink">
<g id="graph0" class="graph" transform="scale(1 1) rotate(0) translate(4 45)">
<title>m_derived_variables::s_derive_acceleration_component</title>
<!-- Node1 -->
<g id="Node000001" class="node">
<title>Node1</title>
<g id="a_Node000001"><a xlink:title="This subroutine receives as inputs the indicator of the component of the acceleration that should be ...">
<polygon fill="#999999" stroke="#666666" points="373,-41 244,-41 244,0 373,0 373,-41"/>
<text text-anchor="start" x="252" y="-29" font-family="Helvetica,sans-Serif" font-size="10.00">m_derived_variables</text>
<text text-anchor="start" x="252" y="-18" font-family="Helvetica,sans-Serif" font-size="10.00">::s_derive_acceleration</text>
<text text-anchor="middle" x="308.5" y="-7" font-family="Helvetica,sans-Serif" font-size="10.00">_component</text>
</a>
</g>
</g>
<!-- Node2 -->
<g id="Node000002" class="node">
<title>Node2</title>
<g id="a_Node000002"><a xlink:href="namespacem__derived__variables.html#a516a9808b3446b7b45029f6451d02b3f" target="_top" xlink:title="Writes coherent body information, communication files, and probes.">
<polygon fill="white" stroke="#666666" points="208,-41 89,-41 89,0 208,0 208,-41"/>
<text text-anchor="start" x="97" y="-29" font-family="Helvetica,sans-Serif" font-size="10.00">m_derived_variables</text>
<text text-anchor="start" x="97" y="-18" font-family="Helvetica,sans-Serif" font-size="10.00">::s_compute_derived</text>
<text text-anchor="middle" x="148.5" y="-7" font-family="Helvetica,sans-Serif" font-size="10.00">_variables</text>
</a>
</g>
</g>
<!-- Node1&#45;&gt;Node2 -->
<g id="edge1_Node000001_Node000002" class="edge">
<title>Node1&#45;&gt;Node2</title>
<g id="a_edge1_Node000001_Node000002"><a xlink:title=" ">
<path fill="none" stroke="#63b8ff" d="M233.43,-20.5C224.96,-20.5 216.41,-20.5 208.19,-20.5"/>
<polygon fill="#63b8ff" stroke="#63b8ff" points="233.69,-24 243.69,-20.5 233.69,-17 233.69,-24"/>
</a>
</g>
</g>
<!-- Node3 -->
<g id="Node000003" class="node">
<title>Node3</title>
<g id="a_Node000003"><a xlink:href="p__main_8fpp_8f90.html#aeec10ee8e2940c953967da3e374e1579" target="_top" xlink:title="Quasi&#45;conservative, shock&#45; and interface&#45; capturing finite&#45;volume scheme for the multicomponent Navie...">
<polygon fill="white" stroke="#666666" points="53,-30 0,-30 0,-11 53,-11 53,-30"/>
<text text-anchor="middle" x="26.5" y="-18" font-family="Helvetica,sans-Serif" font-size="10.00">p_main</text>
</a>
</g>
</g>
<!-- Node2&#45;&gt;Node3 -->
<g id="edge2_Node000002_Node000003" class="edge">
<title>Node2&#45;&gt;Node3</title>
<g id="a_edge2_Node000002_Node000003"><a xlink:title=" ">
<path fill="none" stroke="#63b8ff" d="M78.88,-20.5C69.7,-20.5 60.8,-20.5 53.05,-20.5"/>
<polygon fill="#63b8ff" stroke="#63b8ff" points="78.91,-24 88.91,-20.5 78.91,-17 78.91,-24"/>
</a>
</g>
</g>
</g>
</svg>
