<?xml version="1.0" encoding="UTF-8" standalone="no"?>
<!DOCTYPE svg PUBLIC "-//W3C//DTD SVG 1.1//EN"
 "http://www.w3.org/Graphics/SVG/1.1/DTD/svg11.dtd">
<!-- Generated by graphviz version 2.43.0 (0)
 -->
<!-- Title: m_riemann_solvers::s_hll_riemann_solver Pages: 1 -->
<svg width="315pt" height="205pt"
 viewBox="0.00 0.00 315.00 204.50" xmlns="http://www.w3.org/2000/svg" xmlns:xlink="http://www.w3.org/1999/xlink">
<g id="graph0" class="graph" transform="scale(1 1) rotate(0) translate(4 200.5)">
<title>m_riemann_solvers::s_hll_riemann_solver</title>
<!-- Node1 -->
<g id="Node000001" class="node">
<title>Node1</title>
<g id="a_Node000001"><a xlink:title=" ">
<polygon fill="#999999" stroke="#666666" points="120,-121.5 0,-121.5 0,-91.5 120,-91.5 120,-121.5"/>
<text text-anchor="start" x="8" y="-109.5" font-family="Helvetica,sans-Serif" font-size="10.00">m_riemann_solvers::</text>
<text text-anchor="middle" x="60" y="-98.5" font-family="Helvetica,sans-Serif" font-size="10.00">s_hll_riemann_solver</text>
</a>
</g>
</g>
<!-- Node2 -->
<g id="Node000002" class="node">
<title>Node2</title>
<g id="a_Node000002"><a xlink:href="m__data__output_8fpp_8f90.html#ae249d3380b38c2174721a676b9c062cc" target="_top" xlink:title=" ">
<polygon fill="white" stroke="#666666" points="291,-196.5 172,-196.5 172,-166.5 291,-166.5 291,-196.5"/>
<text text-anchor="start" x="180" y="-184.5" font-family="Helvetica,sans-Serif" font-size="10.00">s_compute_speed_of</text>
<text text-anchor="middle" x="231.5" y="-173.5" font-family="Helvetica,sans-Serif" font-size="10.00">_sound</text>
</a>
</g>
</g>
<!-- Node1&#45;&gt;Node2 -->
<g id="edge1_Node000001_Node000002" class="edge">
<title>Node1&#45;&gt;Node2</title>
<g id="a_edge1_Node000001_Node000002"><a xlink:title=" ">
<path fill="none" stroke="#63b8ff" d="M86.19,-121.64C104.99,-132.54 131.54,-147.1 156,-157.5 160.45,-159.39 165.11,-161.23 169.83,-162.98"/>
<polygon fill="#63b8ff" stroke="#63b8ff" points="168.96,-166.38 179.55,-166.45 171.31,-159.79 168.96,-166.38"/>
</a>
</g>
</g>
<!-- Node3 -->
<g id="Node000003" class="node">
<title>Node3</title>
<g id="a_Node000003"><a xlink:href="namespacem__riemann__solvers.html#ab679d890c95c6cb1ee3dc5e5a9ae1c19" target="_top" xlink:title="Deallocation and/or disassociation procedures that are needed to finalize the selected Riemann proble...">
<polygon fill="white" stroke="#666666" points="303,-148.5 160,-148.5 160,-118.5 303,-118.5 303,-148.5"/>
<text text-anchor="start" x="168" y="-136.5" font-family="Helvetica,sans-Serif" font-size="10.00">m_riemann_solvers::</text>
<text text-anchor="middle" x="231.5" y="-125.5" font-family="Helvetica,sans-Serif" font-size="10.00">s_finalize_riemann_solver</text>
</a>
</g>
</g>
<!-- Node1&#45;&gt;Node3 -->
<g id="edge2_Node000001_Node000003" class="edge">
<title>Node1&#45;&gt;Node3</title>
<g id="a_edge2_Node000001_Node000003"><a xlink:title=" ">
<path fill="none" stroke="#63b8ff" d="M120.28,-115.94C129.88,-117.47 139.95,-119.08 149.95,-120.67"/>
<polygon fill="#63b8ff" stroke="#63b8ff" points="149.47,-124.14 159.9,-122.25 150.57,-117.22 149.47,-124.14"/>
</a>
</g>
</g>
<!-- Node4 -->
<g id="Node000004" class="node">
<title>Node4</title>
<g id="a_Node000004"><a xlink:href="namespacem__riemann__solvers.html#a3f244d4b1bc8e00f8c3c5b6f96aa5448" target="_top" xlink:title="The computation of parameters, the allocation of memory, the association of pointers and/or the execu...">
<polygon fill="white" stroke="#666666" points="291,-100 172,-100 172,-59 291,-59 291,-100"/>
<text text-anchor="start" x="180" y="-88" font-family="Helvetica,sans-Serif" font-size="10.00">m_riemann_solvers::</text>
<text text-anchor="start" x="180" y="-77" font-family="Helvetica,sans-Serif" font-size="10.00">s_initialize_riemann</text>
<text text-anchor="middle" x="231.5" y="-66" font-family="Helvetica,sans-Serif" font-size="10.00">_solver</text>
</a>
</g>
</g>
<!-- Node1&#45;&gt;Node4 -->
<g id="edge3_Node000001_Node000004" class="edge">
<title>Node1&#45;&gt;Node4</title>
<g id="a_edge3_Node000001_Node000004"><a xlink:title=" ">
<path fill="none" stroke="#63b8ff" d="M120.28,-97.06C133.73,-94.92 148.11,-92.62 161.91,-90.43"/>
<polygon fill="#63b8ff" stroke="#63b8ff" points="162.5,-93.88 171.82,-88.85 161.4,-86.96 162.5,-93.88"/>
</a>
</g>
</g>
<!-- Node5 -->
<g id="Node000005" class="node">
<title>Node5</title>
<g id="a_Node000005"><a xlink:href="namespacem__riemann__solvers.html#a2b90cc8425b57f4a7ea4dc0d839e9f75" target="_top" xlink:title="The purpose of this subroutine is to populate the buffers of the left and right Riemann states variab...">
<polygon fill="white" stroke="#666666" points="307,-41 156,-41 156,0 307,0 307,-41"/>
<text text-anchor="start" x="164" y="-29" font-family="Helvetica,sans-Serif" font-size="10.00">m_riemann_solvers::</text>
<text text-anchor="start" x="164" y="-18" font-family="Helvetica,sans-Serif" font-size="10.00">s_populate_riemann_states</text>
<text text-anchor="middle" x="231.5" y="-7" font-family="Helvetica,sans-Serif" font-size="10.00">_variables_buffers</text>
</a>
</g>
</g>
<!-- Node1&#45;&gt;Node5 -->
<g id="edge4_Node000001_Node000005" class="edge">
<title>Node1&#45;&gt;Node5</title>
<g id="a_edge4_Node000001_Node000005"><a xlink:title=" ">
<path fill="none" stroke="#63b8ff" d="M84.27,-91.45C103.18,-79.56 130.75,-62.94 156,-50.5 159.73,-48.66 163.6,-46.85 167.53,-45.07"/>
<polygon fill="#63b8ff" stroke="#63b8ff" points="169.02,-48.24 176.76,-41.01 166.2,-41.83 169.02,-48.24"/>
</a>
</g>
</g>
</g>
</svg>
