<?xml version="1.0" encoding="UTF-8" standalone="no"?>
<!DOCTYPE svg PUBLIC "-//W3C//DTD SVG 1.1//EN"
 "http://www.w3.org/Graphics/SVG/1.1/DTD/svg11.dtd">
<!-- Generated by graphviz version 2.43.0 (0)
 -->
<!-- Title: m_riemann_solvers::s_initialize_riemann_solver Pages: 1 -->
<svg width="532pt" height="88pt"
 viewBox="0.00 0.00 532.00 88.00" xmlns="http://www.w3.org/2000/svg" xmlns:xlink="http://www.w3.org/1999/xlink">
<g id="graph0" class="graph" transform="scale(1 1) rotate(0) translate(4 84)">
<title>m_riemann_solvers::s_initialize_riemann_solver</title>
<!-- Node1 -->
<g id="node1" class="node">
<title>Node1</title>
<g id="a_node1"><a xlink:title="The computation of parameters, the allocation of memory, the association of pointers and/or the execu...">
<polygon fill="#bfbfbf" stroke="black" points="405,-19 405,-60 524,-60 524,-19 405,-19"/>
<text text-anchor="start" x="413" y="-48" font-family="Helvetica,sans-Serif" font-size="10.00">m_riemann_solvers::</text>
<text text-anchor="start" x="413" y="-37" font-family="Helvetica,sans-Serif" font-size="10.00">s_initialize_riemann</text>
<text text-anchor="middle" x="464.5" y="-26" font-family="Helvetica,sans-Serif" font-size="10.00">_solver</text>
</a>
</g>
</g>
<!-- Node2 -->
<g id="node2" class="node">
<title>Node2</title>
<g id="a_node2"><a xlink:href="namespacem__riemann__solvers.html#ad64fb6fcacf050f696e7d4bfd4bbacbd" target="_top" xlink:title=" ">
<polygon fill="none" stroke="black" points="246.5,-49.5 246.5,-79.5 366.5,-79.5 366.5,-49.5 246.5,-49.5"/>
<text text-anchor="start" x="254.5" y="-67.5" font-family="Helvetica,sans-Serif" font-size="10.00">m_riemann_solvers::</text>
<text text-anchor="middle" x="306.5" y="-56.5" font-family="Helvetica,sans-Serif" font-size="10.00">s_hll_riemann_solver</text>
</a>
</g>
</g>
<!-- Node1&#45;&gt;Node2 -->
<g id="edge1" class="edge">
<title>Node1&#45;&gt;Node2</title>
<path fill="none" stroke="midnightblue" d="M394.85,-50.5C385.44,-52.01 375.84,-53.55 366.62,-55.03"/>
<polygon fill="midnightblue" stroke="midnightblue" points="395.65,-53.92 404.97,-48.88 394.54,-47.01 395.65,-53.92"/>
</g>
<!-- Node5 -->
<g id="node5" class="node">
<title>Node5</title>
<g id="a_node5"><a xlink:href="namespacem__riemann__solvers.html#a54a115acbc7b83bee002e1da31ba8a09" target="_top" xlink:title="This procedure is the implementation of the Harten, Lax, van Leer, and contact (HLLC) approximate Rie...">
<polygon fill="none" stroke="black" points="244,-0.5 244,-30.5 369,-30.5 369,-0.5 244,-0.5"/>
<text text-anchor="start" x="252" y="-18.5" font-family="Helvetica,sans-Serif" font-size="10.00">m_riemann_solvers::</text>
<text text-anchor="middle" x="306.5" y="-7.5" font-family="Helvetica,sans-Serif" font-size="10.00">s_hllc_riemann_solver</text>
</a>
</g>
</g>
<!-- Node1&#45;&gt;Node5 -->
<g id="edge4" class="edge">
<title>Node1&#45;&gt;Node5</title>
<path fill="none" stroke="midnightblue" d="M395,-28.96C386.42,-27.64 377.69,-26.3 369.23,-25"/>
<polygon fill="midnightblue" stroke="midnightblue" points="394.55,-32.43 404.97,-30.5 395.62,-25.52 394.55,-32.43"/>
</g>
<!-- Node3 -->
<g id="node3" class="node">
<title>Node3</title>
<g id="a_node3"><a xlink:href="namespacem__riemann__solvers.html#aab7e6bf69b7d0b8b9d911f418b872130" target="_top" xlink:title="The computation of parameters, the allocation of memory, the association of pointers and/or the execu...">
<polygon fill="none" stroke="black" points="89,-19 89,-60 208,-60 208,-19 89,-19"/>
<text text-anchor="start" x="97" y="-48" font-family="Helvetica,sans-Serif" font-size="10.00">m_riemann_solvers::</text>
<text text-anchor="start" x="97" y="-37" font-family="Helvetica,sans-Serif" font-size="10.00">s_initialize_riemann</text>
<text text-anchor="middle" x="148.5" y="-26" font-family="Helvetica,sans-Serif" font-size="10.00">_solvers_module</text>
</a>
</g>
</g>
<!-- Node2&#45;&gt;Node3 -->
<g id="edge2" class="edge">
<title>Node2&#45;&gt;Node3</title>
<path fill="none" stroke="midnightblue" d="M236.08,-53.38C226.79,-51.89 217.33,-50.37 208.24,-48.91"/>
<polygon fill="midnightblue" stroke="midnightblue" points="235.65,-56.85 246.08,-54.98 236.76,-49.94 235.65,-56.85"/>
</g>
<!-- Node4 -->
<g id="node4" class="node">
<title>Node4</title>
<g id="a_node4"><a xlink:href="p__main_8f90.html#aeec10ee8e2940c953967da3e374e1579" target="_top" xlink:title="Quasi&#45;conservative, shock&#45; and interface&#45; capturing finite&#45;volume scheme for the multicomponent Navie...">
<polygon fill="none" stroke="black" points="0,-30 0,-49 53,-49 53,-30 0,-30"/>
<text text-anchor="middle" x="26.5" y="-37" font-family="Helvetica,sans-Serif" font-size="10.00">p_main</text>
</a>
</g>
</g>
<!-- Node3&#45;&gt;Node4 -->
<g id="edge3" class="edge">
<title>Node3&#45;&gt;Node4</title>
<path fill="none" stroke="midnightblue" d="M78.88,-39.5C69.7,-39.5 60.8,-39.5 53.05,-39.5"/>
<polygon fill="midnightblue" stroke="midnightblue" points="78.91,-43 88.91,-39.5 78.91,-36 78.91,-43"/>
</g>
<!-- Node5&#45;&gt;Node3 -->
<g id="edge5" class="edge">
<title>Node5&#45;&gt;Node3</title>
<path fill="none" stroke="midnightblue" d="M233.83,-26.53C225.24,-27.85 216.54,-29.19 208.16,-30.47"/>
<polygon fill="midnightblue" stroke="midnightblue" points="234.49,-29.97 243.84,-24.99 233.43,-23.05 234.49,-29.97"/>
</g>
</g>
</svg>
