<?xml version="1.0" encoding="UTF-8" standalone="no"?>
<!DOCTYPE svg PUBLIC "-//W3C//DTD SVG 1.1//EN"
 "http://www.w3.org/Graphics/SVG/1.1/DTD/svg11.dtd">
<!-- Generated by graphviz version 2.43.0 (0)
 -->
<!-- Title: m_bubbles::s_compute_bubble_source Pages: 1 -->
<svg width="315pt" height="632pt"
 viewBox="0.00 0.00 315.00 632.00" xmlns="http://www.w3.org/2000/svg" xmlns:xlink="http://www.w3.org/1999/xlink">
<g id="graph0" class="graph" transform="scale(1 1) rotate(0) translate(4 628)">
<title>m_bubbles::s_compute_bubble_source</title>
<!-- Node1 -->
<g id="node1" class="node">
<title>Node1</title>
<g id="a_node1"><a xlink:title=" ">
<polygon fill="#999999" stroke="#666666" points="129,-308.5 0,-308.5 0,-278.5 129,-278.5 129,-308.5"/>
<text text-anchor="start" x="8" y="-296.5" font-family="Helvetica,sans-Serif" font-size="10.00">m_bubbles::s_compute</text>
<text text-anchor="middle" x="64.5" y="-285.5" font-family="Helvetica,sans-Serif" font-size="10.00">_bubble_source</text>
</a>
</g>
</g>
<!-- Node2 -->
<g id="node2" class="node">
<title>Node2</title>
<g id="a_node2"><a xlink:href="namespacem__bubbles.html#a72fb89c8208c4b41dc359c32b3571ee3" target="_top" xlink:title="Function that computes the time derivative of the internal bubble pressure.">
<polygon fill="white" stroke="#666666" points="302.5,-606 169.5,-606 169.5,-587 302.5,-587 302.5,-606"/>
<text text-anchor="middle" x="236" y="-594" font-family="Helvetica,sans-Serif" font-size="10.00">m_bubbles::f_bpres_dot</text>
</a>
</g>
</g>
<!-- Node1&#45;&gt;Node2 -->
<g id="edge1" class="edge">
<title>Node1&#45;&gt;Node2</title>
<path fill="none" stroke="#63b8ff" d="M66.02,-308.53C68.51,-355.82 82.81,-502.96 165,-578.5 166.15,-579.56 167.36,-580.56 168.62,-581.51"/>
<polygon fill="#63b8ff" stroke="#63b8ff" points="167.13,-584.7 177.49,-586.94 170.79,-578.73 167.13,-584.7"/>
</g>
<!-- Node3 -->
<g id="node3" class="node">
<title>Node3</title>
<g id="a_node3"><a xlink:href="namespacem__bubbles.html#a81cb346f2ae0e0c90219e1196f481456" target="_top" xlink:title="Function that computes the sound speed for the bubble.">
<polygon fill="white" stroke="#666666" points="289.5,-551 182.5,-551 182.5,-532 289.5,-532 289.5,-551"/>
<text text-anchor="middle" x="236" y="-539" font-family="Helvetica,sans-Serif" font-size="10.00">m_bubbles::f_cgas</text>
</a>
</g>
</g>
<!-- Node1&#45;&gt;Node3 -->
<g id="edge3" class="edge">
<title>Node1&#45;&gt;Node3</title>
<path fill="none" stroke="#63b8ff" d="M67.43,-308.53C73.51,-349.62 96.2,-464.71 165,-523.5 167.53,-525.66 170.28,-527.57 173.19,-529.25"/>
<polygon fill="#63b8ff" stroke="#63b8ff" points="171.77,-532.45 182.3,-533.64 174.81,-526.14 171.77,-532.45"/>
</g>
<!-- Node4 -->
<g id="node4" class="node">
<title>Node4</title>
<g id="a_node4"><a xlink:href="namespacem__bubbles.html#a0d4adb894043511bdf7c6520f07e9f7d" target="_top" xlink:title="Function that computes that bubble wall pressure for Gilmore bubbles.">
<polygon fill="white" stroke="#666666" points="291,-496 181,-496 181,-477 291,-477 291,-496"/>
<text text-anchor="middle" x="236" y="-484" font-family="Helvetica,sans-Serif" font-size="10.00">m_bubbles::f_cpbw</text>
</a>
</g>
</g>
<!-- Node1&#45;&gt;Node4 -->
<g id="edge5" class="edge">
<title>Node1&#45;&gt;Node4</title>
<path fill="none" stroke="#63b8ff" d="M69.65,-308.61C79.83,-342.7 109.33,-425.94 165,-468.5 167.09,-470.1 169.31,-471.56 171.63,-472.89"/>
<polygon fill="#63b8ff" stroke="#63b8ff" points="170.41,-476.19 180.94,-477.41 173.47,-469.89 170.41,-476.19"/>
</g>
<!-- Node5 -->
<g id="node5" class="node">
<title>Node5</title>
<g id="a_node5"><a xlink:href="namespacem__bubbles.html#a3b5690b07dda1b3660cb5539ec5fd920" target="_top" xlink:title="Function that computes the bubble wall pressure for Keller–Miksis bubbles.">
<polygon fill="white" stroke="#666666" points="301.5,-441 170.5,-441 170.5,-422 301.5,-422 301.5,-441"/>
<text text-anchor="middle" x="236" y="-429" font-family="Helvetica,sans-Serif" font-size="10.00">m_bubbles::f_cpbw_km</text>
</a>
</g>
</g>
<!-- Node1&#45;&gt;Node5 -->
<g id="edge7" class="edge">
<title>Node1&#45;&gt;Node5</title>
<path fill="none" stroke="#63b8ff" d="M73.74,-308.64C88.51,-334.31 122.03,-386.25 165,-413.5 167.62,-415.16 170.38,-416.67 173.24,-418.04"/>
<polygon fill="#63b8ff" stroke="#63b8ff" points="172.05,-421.33 182.62,-421.95 174.74,-414.87 172.05,-421.33"/>
</g>
<!-- Node6 -->
<g id="node6" class="node">
<title>Node6</title>
<g id="a_node6"><a xlink:href="namespacem__bubbles.html#a0e9bc22d189d831ac91a316c623a2feb" target="_top" xlink:title="Function that computes the time derivative of the driving pressure.">
<polygon fill="white" stroke="#666666" points="298.5,-386 173.5,-386 173.5,-367 298.5,-367 298.5,-386"/>
<text text-anchor="middle" x="236" y="-374" font-family="Helvetica,sans-Serif" font-size="10.00">m_bubbles::f_cpinfdot</text>
</a>
</g>
</g>
<!-- Node1&#45;&gt;Node6 -->
<g id="edge9" class="edge">
<title>Node1&#45;&gt;Node6</title>
<path fill="none" stroke="#63b8ff" d="M84.6,-308.72C103.87,-323.4 134.98,-345.27 165,-358.5 169.62,-360.54 174.51,-362.38 179.48,-364.03"/>
<polygon fill="#63b8ff" stroke="#63b8ff" points="178.49,-367.39 189.08,-366.99 180.56,-360.7 178.49,-367.39"/>
</g>
<!-- Node7 -->
<g id="node7" class="node">
<title>Node7</title>
<g id="a_node7"><a xlink:href="namespacem__bubbles.html#ad41c0b4da52277dce20b3e43eddc78fc" target="_top" xlink:title="Function that computes the bubble enthalpy.">
<polygon fill="white" stroke="#666666" points="281.5,-331 190.5,-331 190.5,-312 281.5,-312 281.5,-331"/>
<text text-anchor="middle" x="236" y="-319" font-family="Helvetica,sans-Serif" font-size="10.00">m_bubbles::f_h</text>
</a>
</g>
</g>
<!-- Node1&#45;&gt;Node7 -->
<g id="edge11" class="edge">
<title>Node1&#45;&gt;Node7</title>
<path fill="none" stroke="#63b8ff" d="M129.1,-304.01C145.98,-306.79 164.06,-309.78 180.41,-312.48"/>
<polygon fill="#63b8ff" stroke="#63b8ff" points="179.91,-315.95 190.34,-314.12 181.05,-309.04 179.91,-315.95"/>
</g>
<!-- Node8 -->
<g id="node8" class="node">
<title>Node8</title>
<g id="a_node8"><a xlink:href="namespacem__bubbles.html#a1ec957437a9b3c599baac8c3ccc3ce0b" target="_top" xlink:title="Function that computes the time derivative of the enthalpy.">
<polygon fill="white" stroke="#666666" points="289.5,-276 182.5,-276 182.5,-257 289.5,-257 289.5,-276"/>
<text text-anchor="middle" x="236" y="-264" font-family="Helvetica,sans-Serif" font-size="10.00">m_bubbles::f_hdot</text>
</a>
</g>
</g>
<!-- Node1&#45;&gt;Node8 -->
<g id="edge13" class="edge">
<title>Node1&#45;&gt;Node8</title>
<path fill="none" stroke="#63b8ff" d="M129.1,-283.37C143.23,-281.12 158.21,-278.73 172.31,-276.49"/>
<polygon fill="#63b8ff" stroke="#63b8ff" points="173.07,-279.91 182.39,-274.88 171.97,-273 173.07,-279.91"/>
</g>
<!-- Node9 -->
<g id="node9" class="node">
<title>Node9</title>
<g id="a_node9"><a xlink:href="namespacem__bubbles.html#a2e92bf3d7990dbf5cfd48541311006c1" target="_top" xlink:title="Function that computes the bubble radial acceleration.">
<polygon fill="white" stroke="#666666" points="291,-221 181,-221 181,-202 291,-202 291,-221"/>
<text text-anchor="middle" x="236" y="-209" font-family="Helvetica,sans-Serif" font-size="10.00">m_bubbles::f_rddot</text>
</a>
</g>
</g>
<!-- Node1&#45;&gt;Node9 -->
<g id="edge15" class="edge">
<title>Node1&#45;&gt;Node9</title>
<path fill="none" stroke="#63b8ff" d="M96.59,-278.46C127.81,-263.36 175.53,-240.27 205.99,-225.53"/>
<polygon fill="#63b8ff" stroke="#63b8ff" points="207.75,-228.57 215.23,-221.06 204.7,-222.27 207.75,-228.57"/>
</g>
<!-- Node10 -->
<g id="node10" class="node">
<title>Node10</title>
<g id="a_node10"><a xlink:href="namespacem__bubbles.html#acfb77ea808337db0ffb43389ea2128b4" target="_top" xlink:title="Function that computes the bubble radial acceleration for Keller–Miksis bubbles.">
<polygon fill="white" stroke="#666666" points="301.5,-166 170.5,-166 170.5,-147 301.5,-147 301.5,-166"/>
<text text-anchor="middle" x="236" y="-154" font-family="Helvetica,sans-Serif" font-size="10.00">m_bubbles::f_rddot_km</text>
</a>
</g>
</g>
<!-- Node1&#45;&gt;Node10 -->
<g id="edge17" class="edge">
<title>Node1&#45;&gt;Node10</title>
<path fill="none" stroke="#63b8ff" d="M78.12,-278.18C95.93,-257.22 130.15,-219.29 165,-193.5 176.89,-184.7 191.14,-176.77 203.68,-170.52"/>
<polygon fill="#63b8ff" stroke="#63b8ff" points="205.38,-173.59 212.87,-166.09 202.34,-167.28 205.38,-173.59"/>
</g>
<!-- Node11 -->
<g id="node11" class="node">
<title>Node11</title>
<g id="a_node11"><a xlink:href="namespacem__bubbles.html#a24d9a4649a22feeb7958b123edf4a379" target="_top" xlink:title="Function that computes the bubble radial acceleration for Rayleigh&#45;Plesset bubbles.">
<polygon fill="white" stroke="#666666" points="298.5,-111 173.5,-111 173.5,-92 298.5,-92 298.5,-111"/>
<text text-anchor="middle" x="236" y="-99" font-family="Helvetica,sans-Serif" font-size="10.00">m_bubbles::f_rddot_rp</text>
</a>
</g>
</g>
<!-- Node1&#45;&gt;Node11 -->
<g id="edge19" class="edge">
<title>Node1&#45;&gt;Node11</title>
<path fill="none" stroke="#63b8ff" d="M71.94,-278.48C85.39,-248.54 119.09,-180.69 165,-138.5 175.22,-129.11 188.27,-121.37 200.33,-115.44"/>
<polygon fill="#63b8ff" stroke="#63b8ff" points="202.13,-118.46 209.72,-111.07 199.17,-112.11 202.13,-118.46"/>
</g>
<!-- Node12 -->
<g id="node12" class="node">
<title>Node12</title>
<g id="a_node12"><a xlink:href="namespacem__bubbles.html#a564093eeea024ad535bda26e6c5f5037" target="_top" xlink:title="Function that computes the vapour flux.">
<polygon fill="white" stroke="#666666" points="290.5,-56 181.5,-56 181.5,-37 290.5,-37 290.5,-56"/>
<text text-anchor="middle" x="236" y="-44" font-family="Helvetica,sans-Serif" font-size="10.00">m_bubbles::f_vflux</text>
</a>
</g>
</g>
<!-- Node1&#45;&gt;Node12 -->
<g id="edge21" class="edge">
<title>Node1&#45;&gt;Node12</title>
<path fill="none" stroke="#63b8ff" d="M69.1,-278.39C78.7,-241.01 108.09,-142.96 165,-83.5 174.3,-73.78 186.72,-66.09 198.51,-60.29"/>
<polygon fill="#63b8ff" stroke="#63b8ff" points="200.13,-63.4 207.76,-56.05 197.21,-57.04 200.13,-63.4"/>
</g>
<!-- Node13 -->
<g id="node13" class="node">
<title>Node13</title>
<g id="a_node13"><a xlink:href="namespacem__bubbles.html#a0364f07e472fa9444fc140d772bec3bb" target="_top" xlink:title="Subroutine that computes bubble wall properties for vapor bubbles.">
<polygon fill="white" stroke="#666666" points="307,-19 165,-19 165,0 307,0 307,-19"/>
<text text-anchor="middle" x="236" y="-7" font-family="Helvetica,sans-Serif" font-size="10.00">m_bubbles::s_bwproperty</text>
</a>
</g>
</g>
<!-- Node1&#45;&gt;Node13 -->
<g id="edge23" class="edge">
<title>Node1&#45;&gt;Node13</title>
<path fill="none" stroke="#63b8ff" d="M66.53,-278.28C70.44,-233.06 88.31,-98.29 165,-28.5 166.74,-26.92 168.6,-25.46 170.55,-24.13"/>
<polygon fill="#63b8ff" stroke="#63b8ff" points="172.63,-26.97 179.62,-19.01 169.19,-20.88 172.63,-26.97"/>
</g>
<!-- Node2&#45;&gt;Node2 -->
<g id="edge2" class="edge">
<title>Node2&#45;&gt;Node2</title>
<path fill="none" stroke="#63b8ff" d="M209.8,-606.08C197.05,-614.73 205.79,-624 236,-624 256.3,-624 266.9,-619.82 267.81,-614.45"/>
<polygon fill="#63b8ff" stroke="#63b8ff" points="270.68,-612.44 262.2,-606.08 264.86,-616.34 270.68,-612.44"/>
</g>
<!-- Node3&#45;&gt;Node3 -->
<g id="edge4" class="edge">
<title>Node3&#45;&gt;Node3</title>
<path fill="none" stroke="#63b8ff" d="M209.8,-551.08C197.05,-559.73 205.79,-569 236,-569 256.3,-569 266.9,-564.82 267.81,-559.45"/>
<polygon fill="#63b8ff" stroke="#63b8ff" points="270.68,-557.44 262.2,-551.08 264.86,-561.34 270.68,-557.44"/>
</g>
<!-- Node4&#45;&gt;Node4 -->
<g id="edge6" class="edge">
<title>Node4&#45;&gt;Node4</title>
<path fill="none" stroke="#63b8ff" d="M209.8,-496.08C197.05,-504.73 205.79,-514 236,-514 256.3,-514 266.9,-509.82 267.81,-504.45"/>
<polygon fill="#63b8ff" stroke="#63b8ff" points="270.68,-502.44 262.2,-496.08 264.86,-506.34 270.68,-502.44"/>
</g>
<!-- Node5&#45;&gt;Node5 -->
<g id="edge8" class="edge">
<title>Node5&#45;&gt;Node5</title>
<path fill="none" stroke="#63b8ff" d="M209.8,-441.08C197.05,-449.73 205.79,-459 236,-459 256.3,-459 266.9,-454.82 267.81,-449.45"/>
<polygon fill="#63b8ff" stroke="#63b8ff" points="270.68,-447.44 262.2,-441.08 264.86,-451.34 270.68,-447.44"/>
</g>
<!-- Node6&#45;&gt;Node6 -->
<g id="edge10" class="edge">
<title>Node6&#45;&gt;Node6</title>
<path fill="none" stroke="#63b8ff" d="M209.8,-386.08C197.05,-394.73 205.79,-404 236,-404 256.3,-404 266.9,-399.82 267.81,-394.45"/>
<polygon fill="#63b8ff" stroke="#63b8ff" points="270.68,-392.44 262.2,-386.08 264.86,-396.34 270.68,-392.44"/>
</g>
<!-- Node7&#45;&gt;Node7 -->
<g id="edge12" class="edge">
<title>Node7&#45;&gt;Node7</title>
<path fill="none" stroke="#63b8ff" d="M209.8,-331.08C197.05,-339.73 205.79,-349 236,-349 256.3,-349 266.9,-344.82 267.81,-339.45"/>
<polygon fill="#63b8ff" stroke="#63b8ff" points="270.68,-337.44 262.2,-331.08 264.86,-341.34 270.68,-337.44"/>
</g>
<!-- Node8&#45;&gt;Node8 -->
<g id="edge14" class="edge">
<title>Node8&#45;&gt;Node8</title>
<path fill="none" stroke="#63b8ff" d="M209.8,-276.08C197.05,-284.73 205.79,-294 236,-294 256.3,-294 266.9,-289.82 267.81,-284.45"/>
<polygon fill="#63b8ff" stroke="#63b8ff" points="270.68,-282.44 262.2,-276.08 264.86,-286.34 270.68,-282.44"/>
</g>
<!-- Node9&#45;&gt;Node9 -->
<g id="edge16" class="edge">
<title>Node9&#45;&gt;Node9</title>
<path fill="none" stroke="#63b8ff" d="M209.8,-221.08C197.05,-229.73 205.79,-239 236,-239 256.3,-239 266.9,-234.82 267.81,-229.45"/>
<polygon fill="#63b8ff" stroke="#63b8ff" points="270.68,-227.44 262.2,-221.08 264.86,-231.34 270.68,-227.44"/>
</g>
<!-- Node10&#45;&gt;Node10 -->
<g id="edge18" class="edge">
<title>Node10&#45;&gt;Node10</title>
<path fill="none" stroke="#63b8ff" d="M209.8,-166.08C197.05,-174.73 205.79,-184 236,-184 256.3,-184 266.9,-179.82 267.81,-174.45"/>
<polygon fill="#63b8ff" stroke="#63b8ff" points="270.68,-172.44 262.2,-166.08 264.86,-176.34 270.68,-172.44"/>
</g>
<!-- Node11&#45;&gt;Node11 -->
<g id="edge20" class="edge">
<title>Node11&#45;&gt;Node11</title>
<path fill="none" stroke="#63b8ff" d="M209.8,-111.08C197.05,-119.73 205.79,-129 236,-129 256.3,-129 266.9,-124.82 267.81,-119.45"/>
<polygon fill="#63b8ff" stroke="#63b8ff" points="270.68,-117.44 262.2,-111.08 264.86,-121.34 270.68,-117.44"/>
</g>
<!-- Node12&#45;&gt;Node12 -->
<g id="edge22" class="edge">
<title>Node12&#45;&gt;Node12</title>
<path fill="none" stroke="#63b8ff" d="M209.8,-56.08C197.05,-64.73 205.79,-74 236,-74 256.3,-74 266.9,-69.82 267.81,-64.45"/>
<polygon fill="#63b8ff" stroke="#63b8ff" points="270.68,-62.44 262.2,-56.08 264.86,-66.34 270.68,-62.44"/>
</g>
</g>
</svg>
