<?xml version="1.0" encoding="UTF-8" standalone="no"?>
<!DOCTYPE svg PUBLIC "-//W3C//DTD SVG 1.1//EN"
 "http://www.w3.org/Graphics/SVG/1.1/DTD/svg11.dtd">
<!-- Generated by graphviz version 2.43.0 (0)
 -->
<!-- Title: m_mpi_proxy::s_mpi_abort Pages: 1 -->
<svg width="593pt" height="516pt"
 viewBox="0.00 0.00 593.00 515.64" xmlns="http://www.w3.org/2000/svg" xmlns:xlink="http://www.w3.org/1999/xlink">
<g id="graph0" class="graph" transform="scale(1 1) rotate(0) translate(4 511.64)">
<title>m_mpi_proxy::s_mpi_abort</title>
<!-- Node1 -->
<g id="node1" class="node">
<title>Node1</title>
<g id="a_node1"><a xlink:title="The subroutine terminates the MPI execution environment.">
<polygon fill="#999999" stroke="#666666" points="585,-322 467,-322 467,-292 585,-292 585,-322"/>
<text text-anchor="start" x="475" y="-310" font-family="Helvetica,sans-Serif" font-size="10.00">m_mpi_proxy::s_mpi</text>
<text text-anchor="middle" x="526" y="-299" font-family="Helvetica,sans-Serif" font-size="10.00">_abort</text>
</a>
</g>
</g>
<!-- Node2 -->
<g id="node2" class="node">
<title>Node2</title>
<g id="a_node2"><a xlink:href="namespacem__start__up.html#ab5f7e03f1da1999ee699cec4f26370e0" target="_top" xlink:title="The goal of this procedure is to verify that each of the user provided inputs is valid and that their...">
<polygon fill="white" stroke="#666666" points="224,-492 108,-492 108,-462 224,-462 224,-492"/>
<text text-anchor="start" x="116" y="-480" font-family="Helvetica,sans-Serif" font-size="10.00">m_start_up::s_check</text>
<text text-anchor="middle" x="166" y="-469" font-family="Helvetica,sans-Serif" font-size="10.00">_input_file</text>
</a>
</g>
</g>
<!-- Node1&#45;&gt;Node2 -->
<g id="edge1" class="edge">
<title>Node1&#45;&gt;Node2</title>
<path fill="none" stroke="#63b8ff" d="M520.03,-332.04C510.59,-372.04 485.9,-449.17 431,-482 364.51,-521.76 270.75,-506.85 214.71,-492.12"/>
<polygon fill="#63b8ff" stroke="#63b8ff" points="523.5,-332.56 522.25,-322.04 516.67,-331.04 523.5,-332.56"/>
</g>
<!-- Node4 -->
<g id="node4" class="node">
<title>Node4</title>
<g id="a_node4"><a xlink:href="namespacem__variables__conversion.html#a883414e2da0ae8ff39a29056ad3c7b59" target="_top" xlink:title="The following procedure handles the conversion between the primitive variables and the conservative v...">
<polygon fill="white" stroke="#666666" points="430,-472.5 280,-472.5 280,-431.5 430,-431.5 430,-472.5"/>
<text text-anchor="start" x="288" y="-460.5" font-family="Helvetica,sans-Serif" font-size="10.00">m_variables_conversion</text>
<text text-anchor="start" x="288" y="-449.5" font-family="Helvetica,sans-Serif" font-size="10.00">::s_convert_primitive</text>
<text text-anchor="middle" x="355" y="-438.5" font-family="Helvetica,sans-Serif" font-size="10.00">_to_conservative_variables</text>
</a>
</g>
</g>
<!-- Node1&#45;&gt;Node4 -->
<g id="edge3" class="edge">
<title>Node1&#45;&gt;Node4</title>
<path fill="none" stroke="#63b8ff" d="M510.75,-330.83C494.35,-356.45 465.25,-396.87 431,-422 426.25,-425.48 421.04,-428.63 415.65,-431.46"/>
<polygon fill="#63b8ff" stroke="#63b8ff" points="513.86,-332.45 516.19,-322.12 507.92,-328.74 513.86,-332.45"/>
</g>
<!-- Node5 -->
<g id="node5" class="node">
<title>Node5</title>
<g id="a_node5"><a xlink:href="namespacem__derived__variables.html#ab28af564606ca901d3953e6012e9a452" target="_top" xlink:title="Subroutine to compute the higher moments in an attempt to find the maximal size of the droplet.">
<polygon fill="white" stroke="#666666" points="431,-413 279,-413 279,-383 431,-383 431,-413"/>
<text text-anchor="start" x="287" y="-401" font-family="Helvetica,sans-Serif" font-size="10.00">m_derived_variables</text>
<text text-anchor="middle" x="355" y="-390" font-family="Helvetica,sans-Serif" font-size="10.00">::s_derive_higher_moments</text>
</a>
</g>
</g>
<!-- Node1&#45;&gt;Node5 -->
<g id="edge4" class="edge">
<title>Node1&#45;&gt;Node5</title>
<path fill="none" stroke="#63b8ff" d="M499.55,-328.45C481.39,-342.91 455.86,-361.54 431,-374 424.4,-377.31 417.25,-380.29 410.07,-382.93"/>
<polygon fill="#63b8ff" stroke="#63b8ff" points="501.78,-331.15 507.35,-322.14 497.38,-325.71 501.78,-331.15"/>
</g>
<!-- Node7 -->
<g id="node7" class="node">
<title>Node7</title>
<g id="a_node7"><a xlink:href="namespacem__mpi__proxy.html#a80c5e235786545276fe6ffa06965017f" target="_top" xlink:title="The purpose of this procedure is to optimally decompose the computational domain among the available ...">
<polygon fill="white" stroke="#666666" points="243,-347.5 89,-347.5 89,-306.5 243,-306.5 243,-347.5"/>
<text text-anchor="start" x="97" y="-335.5" font-family="Helvetica,sans-Serif" font-size="10.00">m_mpi_proxy::s_mpi</text>
<text text-anchor="start" x="97" y="-324.5" font-family="Helvetica,sans-Serif" font-size="10.00">_decompose_computational</text>
<text text-anchor="middle" x="166" y="-313.5" font-family="Helvetica,sans-Serif" font-size="10.00">_domain</text>
</a>
</g>
</g>
<!-- Node1&#45;&gt;Node7 -->
<g id="edge7" class="edge">
<title>Node1&#45;&gt;Node7</title>
<path fill="none" stroke="#63b8ff" d="M456.39,-310.83C395.36,-314.24 306.26,-319.22 243.08,-322.75"/>
<polygon fill="#63b8ff" stroke="#63b8ff" points="456.9,-314.31 466.68,-310.26 456.5,-307.32 456.9,-314.31"/>
</g>
<!-- Node8 -->
<g id="node8" class="node">
<title>Node8</title>
<g id="a_node8"><a xlink:href="namespacem__start__up.html#ae0571e78c0179c22d3811df31c33c321" target="_top" xlink:title="The purpose of this procedure is to first verify that an input file has been made available by the us...">
<polygon fill="white" stroke="#666666" points="410,-279 300,-279 300,-249 410,-249 410,-279"/>
<text text-anchor="start" x="308" y="-267" font-family="Helvetica,sans-Serif" font-size="10.00">m_start_up::s_read</text>
<text text-anchor="middle" x="355" y="-256" font-family="Helvetica,sans-Serif" font-size="10.00">_input_file</text>
</a>
</g>
</g>
<!-- Node1&#45;&gt;Node8 -->
<g id="edge9" class="edge">
<title>Node1&#45;&gt;Node8</title>
<path fill="none" stroke="#63b8ff" d="M456.75,-289.63C441.19,-285.68 424.87,-281.52 410,-277.74"/>
<polygon fill="#63b8ff" stroke="#63b8ff" points="456.29,-293.13 466.84,-292.2 458.01,-286.34 456.29,-293.13"/>
</g>
<!-- Node9 -->
<g id="node9" class="node">
<title>Node9</title>
<g id="a_node9"><a xlink:href="namespacem__start__up.html#a45c8fef6680263063a1c7d2fa1748013" target="_top" xlink:title=" ">
<polygon fill="white" stroke="#666666" points="410.5,-231 299.5,-231 299.5,-201 410.5,-201 410.5,-231"/>
<text text-anchor="start" x="307.5" y="-219" font-family="Helvetica,sans-Serif" font-size="10.00">m_start_up::s_read</text>
<text text-anchor="middle" x="355" y="-208" font-family="Helvetica,sans-Serif" font-size="10.00">_parallel_data_files</text>
</a>
</g>
</g>
<!-- Node1&#45;&gt;Node9 -->
<g id="edge11" class="edge">
<title>Node1&#45;&gt;Node9</title>
<path fill="none" stroke="#63b8ff" d="M499.55,-285.55C481.39,-271.09 455.86,-252.46 431,-240 424.4,-236.69 417.25,-233.71 410.07,-231.07"/>
<polygon fill="#63b8ff" stroke="#63b8ff" points="497.38,-288.29 507.35,-291.86 501.78,-282.85 497.38,-288.29"/>
</g>
<!-- Node11 -->
<g id="node11" class="node">
<title>Node11</title>
<g id="a_node11"><a xlink:href="namespacem__start__up.html#abd3c3fd9fbb80ef2ddaf82945c1c1af9" target="_top" xlink:title=" ">
<polygon fill="white" stroke="#666666" points="410,-183 300,-183 300,-153 410,-153 410,-183"/>
<text text-anchor="start" x="308" y="-171" font-family="Helvetica,sans-Serif" font-size="10.00">m_start_up::s_read</text>
<text text-anchor="middle" x="355" y="-160" font-family="Helvetica,sans-Serif" font-size="10.00">_serial_data_files</text>
</a>
</g>
</g>
<!-- Node1&#45;&gt;Node11 -->
<g id="edge15" class="edge">
<title>Node1&#45;&gt;Node11</title>
<path fill="none" stroke="#63b8ff" d="M511.34,-283.12C495.28,-257.12 466.31,-216.04 431,-192 424.67,-187.69 417.52,-184.12 410.21,-181.17"/>
<polygon fill="#63b8ff" stroke="#63b8ff" points="508.5,-285.2 516.65,-291.96 514.5,-281.59 508.5,-285.2"/>
</g>
<!-- Node12 -->
<g id="node12" class="node">
<title>Node12</title>
<g id="a_node12"><a xlink:href="namespacem__data__output.html#a29f34883bc8e9d895dbb4232493397a1" target="_top" xlink:title="This writes a formatted data file for the flow probe information.">
<polygon fill="white" stroke="#666666" points="420.5,-365 289.5,-365 289.5,-335 420.5,-335 420.5,-365"/>
<text text-anchor="start" x="297.5" y="-353" font-family="Helvetica,sans-Serif" font-size="10.00">m_data_output::s_write</text>
<text text-anchor="middle" x="355" y="-342" font-family="Helvetica,sans-Serif" font-size="10.00">_probe_files</text>
</a>
</g>
</g>
<!-- Node1&#45;&gt;Node12 -->
<g id="edge18" class="edge">
<title>Node1&#45;&gt;Node12</title>
<path fill="none" stroke="#63b8ff" d="M456.9,-324.33C443.06,-327.85 428.62,-331.52 415.13,-334.96"/>
<polygon fill="#63b8ff" stroke="#63b8ff" points="458.01,-327.66 466.84,-321.8 456.29,-320.87 458.01,-327.66"/>
</g>
<!-- Node13 -->
<g id="node13" class="node">
<title>Node13</title>
<g id="a_node13"><a xlink:href="namespacem__data__output.html#a33a72559ec5cfdedf7162a8269d41201" target="_top" xlink:title="The goal of the procedure is to output to the run&#45;time information file the stability criteria extrem...">
<polygon fill="white" stroke="#666666" points="420.5,-113 289.5,-113 289.5,-83 420.5,-83 420.5,-113"/>
<text text-anchor="start" x="297.5" y="-101" font-family="Helvetica,sans-Serif" font-size="10.00">m_data_output::s_write</text>
<text text-anchor="middle" x="355" y="-90" font-family="Helvetica,sans-Serif" font-size="10.00">_run_time_information</text>
</a>
</g>
</g>
<!-- Node1&#45;&gt;Node13 -->
<g id="edge20" class="edge">
<title>Node1&#45;&gt;Node13</title>
<path fill="none" stroke="#63b8ff" d="M515.34,-282.21C501.03,-247.93 471.47,-185.58 431,-144 418.75,-131.41 402.37,-120.85 388.04,-113.04"/>
<polygon fill="#63b8ff" stroke="#63b8ff" points="512.27,-283.96 519.29,-291.9 518.76,-281.32 512.27,-283.96"/>
</g>
<!-- Node3 -->
<g id="node3" class="node">
<title>Node3</title>
<g id="a_node3"><a xlink:href="p__main_8f90.html#aeec10ee8e2940c953967da3e374e1579" target="_top" xlink:title="Quasi&#45;conservative, shock&#45; and interface&#45; capturing finite&#45;volume scheme for the multicomponent Navie...">
<polygon fill="white" stroke="#666666" points="53,-227.5 0,-227.5 0,-208.5 53,-208.5 53,-227.5"/>
<text text-anchor="middle" x="26.5" y="-215.5" font-family="Helvetica,sans-Serif" font-size="10.00">p_main</text>
</a>
</g>
</g>
<!-- Node2&#45;&gt;Node3 -->
<g id="edge2" class="edge">
<title>Node2&#45;&gt;Node3</title>
<path fill="none" stroke="#63b8ff" d="M130.69,-456.15C116.02,-445.71 99.83,-431.9 89,-416 45.85,-352.63 31.93,-257.64 28.47,-227.52"/>
<polygon fill="#63b8ff" stroke="#63b8ff" points="128.86,-459.14 139.09,-461.89 132.82,-453.36 128.86,-459.14"/>
</g>
<!-- Node6 -->
<g id="node6" class="node">
<title>Node6</title>
<g id="a_node6"><a xlink:href="namespacem__derived__variables.html#a516a9808b3446b7b45029f6451d02b3f" target="_top" xlink:title="Writes coherent body information, communication files, and probes.">
<polygon fill="white" stroke="#666666" points="225.5,-406.5 106.5,-406.5 106.5,-365.5 225.5,-365.5 225.5,-406.5"/>
<text text-anchor="start" x="114.5" y="-394.5" font-family="Helvetica,sans-Serif" font-size="10.00">m_derived_variables</text>
<text text-anchor="start" x="114.5" y="-383.5" font-family="Helvetica,sans-Serif" font-size="10.00">::s_compute_derived</text>
<text text-anchor="middle" x="166" y="-372.5" font-family="Helvetica,sans-Serif" font-size="10.00">_variables</text>
</a>
</g>
</g>
<!-- Node5&#45;&gt;Node6 -->
<g id="edge5" class="edge">
<title>Node5&#45;&gt;Node6</title>
<path fill="none" stroke="#63b8ff" d="M268.74,-392.53C254.19,-391.6 239.37,-390.64 225.71,-389.77"/>
<polygon fill="#63b8ff" stroke="#63b8ff" points="268.54,-396.02 278.75,-393.17 268.99,-389.04 268.54,-396.02"/>
</g>
<!-- Node6&#45;&gt;Node3 -->
<g id="edge6" class="edge">
<title>Node6&#45;&gt;Node3</title>
<path fill="none" stroke="#63b8ff" d="M97.38,-363.78C94.41,-361.71 91.59,-359.46 89,-357 49.57,-319.57 33.78,-252.38 29.11,-227.55"/>
<polygon fill="#63b8ff" stroke="#63b8ff" points="95.77,-366.9 106.13,-369.13 99.42,-360.92 95.77,-366.9"/>
</g>
<!-- Node7&#45;&gt;Node3 -->
<g id="edge8" class="edge">
<title>Node7&#45;&gt;Node3</title>
<path fill="none" stroke="#63b8ff" d="M103.1,-301.42C98.16,-298.51 93.39,-295.37 89,-292 64.61,-273.29 43.51,-243.25 33.57,-227.83"/>
<polygon fill="#63b8ff" stroke="#63b8ff" points="101.68,-304.64 112.13,-306.4 105.06,-298.51 101.68,-304.64"/>
</g>
<!-- Node8&#45;&gt;Node3 -->
<g id="edge10" class="edge">
<title>Node8&#45;&gt;Node3</title>
<path fill="none" stroke="#63b8ff" d="M289.71,-259.87C235.78,-255.71 156.9,-248.01 89,-235 77.03,-232.71 63.99,-229.25 53.02,-226.04"/>
<polygon fill="#63b8ff" stroke="#63b8ff" points="289.59,-263.37 299.82,-260.63 290.11,-256.39 289.59,-263.37"/>
</g>
<!-- Node9&#45;&gt;Node3 -->
<g id="edge12" class="edge">
<title>Node9&#45;&gt;Node3</title>
<path fill="none" stroke="#63b8ff" d="M288.98,-219.42C273.89,-220.08 257.89,-220.66 243,-221 174.57,-222.54 157.42,-222.67 89,-221 77.24,-220.71 64.24,-220.12 53.22,-219.53"/>
<polygon fill="#63b8ff" stroke="#63b8ff" points="289.42,-222.9 299.25,-218.96 289.1,-215.91 289.42,-222.9"/>
</g>
<!-- Node10 -->
<g id="node10" class="node">
<title>Node10</title>
<g id="a_node10"><a xlink:href="namespacem__start__up.html#a37202711d89d04cd18f08170ba608aa1" target="_top" xlink:title=" ">
<polygon fill="white" stroke="#666666" points="231,-212 101,-212 101,-182 231,-182 231,-212"/>
<text text-anchor="start" x="109" y="-200" font-family="Helvetica,sans-Serif" font-size="10.00">m_start_up::s_initialize</text>
<text text-anchor="middle" x="166" y="-189" font-family="Helvetica,sans-Serif" font-size="10.00">_start_up_module</text>
</a>
</g>
</g>
<!-- Node9&#45;&gt;Node10 -->
<g id="edge13" class="edge">
<title>Node9&#45;&gt;Node10</title>
<path fill="none" stroke="#63b8ff" d="M289.44,-209.44C270.61,-207.53 250.05,-205.44 231.23,-203.53"/>
<polygon fill="#63b8ff" stroke="#63b8ff" points="289.11,-212.92 299.41,-210.45 289.81,-205.96 289.11,-212.92"/>
</g>
<!-- Node10&#45;&gt;Node3 -->
<g id="edge14" class="edge">
<title>Node10&#45;&gt;Node3</title>
<path fill="none" stroke="#63b8ff" d="M90.45,-208.39C77.1,-210.43 64.04,-212.42 53.31,-214.06"/>
<polygon fill="#63b8ff" stroke="#63b8ff" points="91.32,-211.79 100.68,-206.82 90.26,-204.87 91.32,-211.79"/>
</g>
<!-- Node11&#45;&gt;Node3 -->
<g id="edge16" class="edge">
<title>Node11&#45;&gt;Node3</title>
<path fill="none" stroke="#63b8ff" d="M289.56,-158.58C234.72,-153.03 154.64,-150.86 89,-173 67.94,-180.1 48.03,-197.26 36.84,-208.22"/>
<polygon fill="#63b8ff" stroke="#63b8ff" points="289.52,-162.09 299.84,-159.69 290.27,-155.13 289.52,-162.09"/>
</g>
<!-- Node11&#45;&gt;Node10 -->
<g id="edge17" class="edge">
<title>Node11&#45;&gt;Node10</title>
<path fill="none" stroke="#63b8ff" d="M289.89,-177.94C270.93,-180.88 250.18,-184.1 231.22,-187.04"/>
<polygon fill="#63b8ff" stroke="#63b8ff" points="290.57,-181.38 299.91,-176.39 289.49,-174.46 290.57,-181.38"/>
</g>
<!-- Node12&#45;&gt;Node6 -->
<g id="edge19" class="edge">
<title>Node12&#45;&gt;Node6</title>
<path fill="none" stroke="#63b8ff" d="M279.55,-364.33C261.63,-367.78 242.74,-371.42 225.66,-374.71"/>
<polygon fill="#63b8ff" stroke="#63b8ff" points="280.23,-367.77 289.38,-362.44 278.9,-360.89 280.23,-367.77"/>
</g>
<!-- Node14 -->
<g id="node14" class="node">
<title>Node14</title>
<g id="a_node14"><a xlink:href="namespacem__time__steppers.html#a8876606e6152b6c8f35272074a088142" target="_top" xlink:title="1st order TVD RK time&#45;stepping algorithm">
<polygon fill="white" stroke="#666666" points="222.5,-126 109.5,-126 109.5,-96 222.5,-96 222.5,-126"/>
<text text-anchor="start" x="117.5" y="-114" font-family="Helvetica,sans-Serif" font-size="10.00">m_time_steppers::s</text>
<text text-anchor="middle" x="166" y="-103" font-family="Helvetica,sans-Serif" font-size="10.00">_1st_order_tvd_rk</text>
</a>
</g>
</g>
<!-- Node13&#45;&gt;Node14 -->
<g id="edge21" class="edge">
<title>Node13&#45;&gt;Node14</title>
<path fill="none" stroke="#63b8ff" d="M279.3,-103.19C260.38,-104.51 240.38,-105.9 222.59,-107.14"/>
<polygon fill="#63b8ff" stroke="#63b8ff" points="279.65,-106.68 289.38,-102.49 279.16,-99.69 279.65,-106.68"/>
</g>
<!-- Node15 -->
<g id="node15" class="node">
<title>Node15</title>
<g id="a_node15"><a xlink:href="namespacem__time__steppers.html#adb82b6c6041c825d0999e6890ed825cc" target="_top" xlink:title="2nd order TVD RK time&#45;stepping algorithm">
<polygon fill="white" stroke="#666666" points="222.5,-78 109.5,-78 109.5,-48 222.5,-48 222.5,-78"/>
<text text-anchor="start" x="117.5" y="-66" font-family="Helvetica,sans-Serif" font-size="10.00">m_time_steppers::s</text>
<text text-anchor="middle" x="166" y="-55" font-family="Helvetica,sans-Serif" font-size="10.00">_2nd_order_tvd_rk</text>
</a>
</g>
</g>
<!-- Node13&#45;&gt;Node15 -->
<g id="edge23" class="edge">
<title>Node13&#45;&gt;Node15</title>
<path fill="none" stroke="#63b8ff" d="M279.3,-84.02C260.38,-80.48 240.38,-76.73 222.59,-73.4"/>
<polygon fill="#63b8ff" stroke="#63b8ff" points="278.91,-87.51 289.38,-85.91 280.2,-80.63 278.91,-87.51"/>
</g>
<!-- Node16 -->
<g id="node16" class="node">
<title>Node16</title>
<g id="a_node16"><a xlink:href="namespacem__time__steppers.html#ae08efa7df1f8efae0f726dd5114176a8" target="_top" xlink:title="3rd order TVD RK time&#45;stepping algorithm">
<polygon fill="white" stroke="#666666" points="222.5,-30 109.5,-30 109.5,0 222.5,0 222.5,-30"/>
<text text-anchor="start" x="117.5" y="-18" font-family="Helvetica,sans-Serif" font-size="10.00">m_time_steppers::s</text>
<text text-anchor="middle" x="166" y="-7" font-family="Helvetica,sans-Serif" font-size="10.00">_3rd_order_tvd_rk</text>
</a>
</g>
</g>
<!-- Node13&#45;&gt;Node16 -->
<g id="edge25" class="edge">
<title>Node13&#45;&gt;Node16</title>
<path fill="none" stroke="#63b8ff" d="M319.86,-77.76C298.3,-65.51 269.59,-50.15 243,-39 235.34,-35.79 227.1,-32.76 218.97,-30.02"/>
<polygon fill="#63b8ff" stroke="#63b8ff" points="318.22,-80.86 328.63,-82.8 321.71,-74.78 318.22,-80.86"/>
</g>
<!-- Node14&#45;&gt;Node3 -->
<g id="edge22" class="edge">
<title>Node14&#45;&gt;Node3</title>
<path fill="none" stroke="#63b8ff" d="M104.59,-130.49C99.11,-133.3 93.81,-136.46 89,-140 62.88,-159.2 41.95,-192.27 32.68,-208.48"/>
<polygon fill="#63b8ff" stroke="#63b8ff" points="106.4,-133.51 113.96,-126.09 103.42,-127.18 106.4,-133.51"/>
</g>
<!-- Node15&#45;&gt;Node3 -->
<g id="edge24" class="edge">
<title>Node15&#45;&gt;Node3</title>
<path fill="none" stroke="#63b8ff" d="M100.27,-79.07C96.24,-81.37 92.43,-84 89,-87 50.43,-120.75 34.28,-183.9 29.31,-208.16"/>
<polygon fill="#63b8ff" stroke="#63b8ff" points="101.98,-82.13 109.38,-74.55 98.87,-75.86 101.98,-82.13"/>
</g>
<!-- Node16&#45;&gt;Node3 -->
<g id="edge26" class="edge">
<title>Node16&#45;&gt;Node3</title>
<path fill="none" stroke="#63b8ff" d="M100.1,-30.53C96.08,-32.96 92.32,-35.76 89,-39 39.13,-87.64 29.68,-178.48 27.91,-208.26"/>
<polygon fill="#63b8ff" stroke="#63b8ff" points="101.97,-33.51 109.25,-25.81 98.76,-27.29 101.97,-33.51"/>
</g>
</g>
</svg>
