<?xml version="1.0" encoding="UTF-8" standalone="no"?>
<!DOCTYPE svg PUBLIC "-//W3C//DTD SVG 1.1//EN"
 "http://www.w3.org/Graphics/SVG/1.1/DTD/svg11.dtd">
<!-- Generated by graphviz version 2.43.0 (0)
 -->
<!-- Title: m_cbc::s_associate_cbc_coefficients_pointers Pages: 1 -->
<!--zoomable 159 -->
<svg id="main" version="1.1" xmlns="http://www.w3.org/2000/svg" xmlns:xlink="http://www.w3.org/1999/xlink" xml:space="preserve" onload="init(evt)">
<style type="text/css"><![CDATA[
.edge:hover path { stroke: red; }
.edge:hover polygon { stroke: red; fill: red; }
]]></style>
<script type="text/javascript"><![CDATA[
var edges = document.getElementsByTagName('g');
if (edges && edges.length) {
  for (var i=0;i<edges.length;i++) {
    if (edges[i].id.substr(0,4)=='edge') {
      edges[i].setAttribute('class','edge');
    }
  }
}
]]></script>
        <defs>
                <circle id="rim" cx="0" cy="0" r="7"/>
                <circle id="rim2" cx="0" cy="0" r="3.5"/>
                <g id="zoomPlus">
                        <use xlink:href="#rim" fill="#404040">
                                <set attributeName="fill" to="#808080" begin="zoomplus.mouseover" end="zoomplus.mouseout"/>
                        </use>
                        <path d="M-4,0h8M0,-4v8" fill="none" stroke="white" stroke-width="1.5" pointer-events="none"/>
                </g>
                <g id="zoomMin">
                        <use xlink:href="#rim" fill="#404040">
                                <set attributeName="fill" to="#808080" begin="zoomminus.mouseover" end="zoomminus.mouseout"/>
                        </use>
                        <path d="M-4,0h8" fill="none" stroke="white" stroke-width="1.5" pointer-events="none"/>
                </g>
                <g id="dirArrow">
                        <path fill="none" stroke="white" stroke-width="1.5" d="M0,-3.0v7 M-2.5,-0.5L0,-3.0L2.5,-0.5"/>
                </g>
               <g id="resetDef">
                       <use xlink:href="#rim2" fill="#404040">
                               <set attributeName="fill" to="#808080" begin="reset.mouseover" end="reset.mouseout"/>
                       </use>
               </g>
        </defs>

<script type="text/javascript">
var viewWidth = 718;
var viewHeight = 159;
var sectionId = 'dynsection-0';
</script>
<script xlink:href="svgpan.js"/>
<svg id="graph" class="graph">
<g id="viewport">
<title>m_cbc::s_associate_cbc_coefficients_pointers</title>
<!-- Node1 -->
<g id="node1" class="node">
<title>Node1</title>
<g id="a_node1"><a xlink:title=" ">
<polygon fill="#bfbfbf" stroke="black" points="565,-24.78 565,-54.78 710,-54.78 710,-24.78 565,-24.78"/>
<text text-anchor="start" x="573" y="-42.78" font-family="Helvetica,sans-Serif" font-size="10.00">m_cbc::s_associate</text>
<text text-anchor="middle" x="637.5" y="-31.78" font-family="Helvetica,sans-Serif" font-size="10.00">_cbc_coefficients_pointers</text>
</a>
</g>
</g>
<!-- Node2 -->
<g id="node2" class="node">
<title>Node2</title>
<g id="a_node2"><a xlink:href="namespacem__cbc.html#a72cc3ba5a0de327fae70742734e77492" target="_top" xlink:title="The following is the implementation of the CBC based on the work of Thompson (1987,...">
<polygon fill="none" stroke="black" points="424,-52.28 424,-71.28 505,-71.28 505,-52.28 424,-52.28"/>
<text text-anchor="middle" x="464.5" y="-59.28" font-family="Helvetica,sans-Serif" font-size="10.00">m_cbc::s_cbc</text>
</a>
</g>
</g>
<!-- Node1&#45;&gt;Node2 -->
<g id="edge1" class="edge">
<title>Node1&#45;&gt;Node2</title>
<path fill="none" stroke="midnightblue" d="M554.81,-50.29C537.48,-52.52 519.95,-54.78 505.05,-56.69"/>
<polygon fill="midnightblue" stroke="midnightblue" points="555.5,-53.73 564.97,-48.99 554.61,-46.79 555.5,-53.73"/>
</g>
<!-- Node8 -->
<g id="node8" class="node">
<title>Node8</title>
<g id="a_node8"><a xlink:href="namespacem__cbc.html#aee8ead62642bc2783deb6403a961679d" target="_top" xlink:title=" ">
<polygon fill="none" stroke="black" points="400,-2.78 400,-32.78 529,-32.78 529,-2.78 400,-2.78"/>
<text text-anchor="start" x="408" y="-20.78" font-family="Helvetica,sans-Serif" font-size="10.00">m_cbc::s_compute_cbc</text>
<text text-anchor="middle" x="464.5" y="-9.78" font-family="Helvetica,sans-Serif" font-size="10.00">_coefficients</text>
</a>
</g>
</g>
<!-- Node1&#45;&gt;Node8 -->
<g id="edge9" class="edge">
<title>Node1&#45;&gt;Node8</title>
<path fill="none" stroke="midnightblue" d="M554.87,-29.28C546.22,-28.17 537.52,-27.05 529.12,-25.97"/>
<polygon fill="midnightblue" stroke="midnightblue" points="554.61,-32.78 564.97,-30.58 555.5,-25.83 554.61,-32.78"/>
</g>
<!-- Node3 -->
<g id="node3" class="node">
<title>Node3</title>
<g id="a_node3"><a xlink:href="namespacem__rhs.html#a361f0038973069452cc88430c49bcfe8" target="_top" xlink:title=" ">
<polygon fill="none" stroke="black" points="238,-64.28 238,-83.28 364,-83.28 364,-64.28 238,-64.28"/>
<text text-anchor="middle" x="301" y="-71.28" font-family="Helvetica,sans-Serif" font-size="10.00">m_rhs::s_compute_rhs</text>
</a>
</g>
</g>
<!-- Node2&#45;&gt;Node3 -->
<g id="edge2" class="edge">
<title>Node2&#45;&gt;Node3</title>
<path fill="none" stroke="midnightblue" d="M413.95,-65.47C398.2,-66.64 380.58,-67.94 364.07,-69.17"/>
<polygon fill="midnightblue" stroke="midnightblue" points="414.28,-68.95 423.99,-64.72 413.76,-61.97 414.28,-68.95"/>
</g>
<!-- Node4 -->
<g id="node4" class="node">
<title>Node4</title>
<g id="a_node4"><a xlink:href="namespacem__time__steppers.html#a8876606e6152b6c8f35272074a088142" target="_top" xlink:title="1st order TVD RK time&#45;stepping algorithm">
<polygon fill="none" stroke="black" points="89,-120.78 89,-150.78 202,-150.78 202,-120.78 89,-120.78"/>
<text text-anchor="start" x="97" y="-138.78" font-family="Helvetica,sans-Serif" font-size="10.00">m_time_steppers::s</text>
<text text-anchor="middle" x="145.5" y="-127.78" font-family="Helvetica,sans-Serif" font-size="10.00">_1st_order_tvd_rk</text>
</a>
</g>
</g>
<!-- Node3&#45;&gt;Node4 -->
<g id="edge3" class="edge">
<title>Node3&#45;&gt;Node4</title>
<path fill="none" stroke="midnightblue" d="M266.81,-87.19C242.42,-97.04 209.26,-110.43 183.92,-120.67"/>
<polygon fill="midnightblue" stroke="midnightblue" points="268.39,-90.33 276.35,-83.33 265.77,-83.83 268.39,-90.33"/>
</g>
<!-- Node6 -->
<g id="node6" class="node">
<title>Node6</title>
<g id="a_node6"><a xlink:href="namespacem__time__steppers.html#adb82b6c6041c825d0999e6890ed825cc" target="_top" xlink:title="2nd order TVD RK time&#45;stepping algorithm">
<polygon fill="none" stroke="black" points="89,-71.78 89,-101.78 202,-101.78 202,-71.78 89,-71.78"/>
<text text-anchor="start" x="97" y="-89.78" font-family="Helvetica,sans-Serif" font-size="10.00">m_time_steppers::s</text>
<text text-anchor="middle" x="145.5" y="-78.78" font-family="Helvetica,sans-Serif" font-size="10.00">_2nd_order_tvd_rk</text>
</a>
</g>
</g>
<!-- Node3&#45;&gt;Node6 -->
<g id="edge5" class="edge">
<title>Node3&#45;&gt;Node6</title>
<path fill="none" stroke="midnightblue" d="M227.4,-79.93C219.02,-80.64 210.57,-81.36 202.46,-82.04"/>
<polygon fill="midnightblue" stroke="midnightblue" points="227.9,-83.4 237.57,-79.07 227.31,-76.43 227.9,-83.4"/>
</g>
<!-- Node7 -->
<g id="node7" class="node">
<title>Node7</title>
<g id="a_node7"><a xlink:href="namespacem__time__steppers.html#ae08efa7df1f8efae0f726dd5114176a8" target="_top" xlink:title="3rd order TVD RK time&#45;stepping algorithm">
<polygon fill="none" stroke="black" points="89,-22.78 89,-52.78 202,-52.78 202,-22.78 89,-22.78"/>
<text text-anchor="start" x="97" y="-40.78" font-family="Helvetica,sans-Serif" font-size="10.00">m_time_steppers::s</text>
<text text-anchor="middle" x="145.5" y="-29.78" font-family="Helvetica,sans-Serif" font-size="10.00">_3rd_order_tvd_rk</text>
</a>
</g>
</g>
<!-- Node3&#45;&gt;Node7 -->
<g id="edge7" class="edge">
<title>Node3&#45;&gt;Node7</title>
<path fill="none" stroke="midnightblue" d="M249.12,-61.85C234.06,-58.32 217.5,-54.44 202.16,-50.84"/>
<polygon fill="midnightblue" stroke="midnightblue" points="248.73,-65.35 259.27,-64.23 250.33,-58.54 248.73,-65.35"/>
</g>
<!-- Node5 -->
<g id="node5" class="node">
<title>Node5</title>
<g id="a_node5"><a xlink:href="p__main_8f90.html#aeec10ee8e2940c953967da3e374e1579" target="_top" xlink:title="Quasi&#45;conservative, shock&#45; and interface&#45; capturing finite&#45;volume scheme for the multicomponent Navie...">
<polygon fill="none" stroke="black" points="0,-52.28 0,-71.28 53,-71.28 53,-52.28 0,-52.28"/>
<text text-anchor="middle" x="26.5" y="-59.28" font-family="Helvetica,sans-Serif" font-size="10.00">p_main</text>
</a>
</g>
</g>
<!-- Node4&#45;&gt;Node5 -->
<g id="edge4" class="edge">
<title>Node4&#45;&gt;Node5</title>
<path fill="none" stroke="midnightblue" d="M96.73,-116.16C94.08,-114.75 91.48,-113.29 89,-111.78 69.47,-99.93 49.41,-82.43 37.72,-71.58"/>
<polygon fill="midnightblue" stroke="midnightblue" points="95.38,-119.4 105.89,-120.73 98.5,-113.13 95.38,-119.4"/>
</g>
<!-- Node6&#45;&gt;Node5 -->
<g id="edge6" class="edge">
<title>Node6&#45;&gt;Node5</title>
<path fill="none" stroke="midnightblue" d="M78.81,-72.75C69.7,-70.8 60.82,-68.9 53.09,-67.25"/>
<polygon fill="midnightblue" stroke="midnightblue" points="78.23,-76.2 88.74,-74.87 79.69,-69.36 78.23,-76.2"/>
</g>
<!-- Node7&#45;&gt;Node5 -->
<g id="edge8" class="edge">
<title>Node7&#45;&gt;Node5</title>
<path fill="none" stroke="midnightblue" d="M78.81,-51.26C69.7,-53.13 60.82,-54.95 53.09,-56.53"/>
<polygon fill="midnightblue" stroke="midnightblue" points="79.65,-54.66 88.74,-49.22 78.24,-47.8 79.65,-54.66"/>
</g>
<!-- Node9 -->
<g id="node9" class="node">
<title>Node9</title>
<g id="a_node9"><a xlink:href="namespacem__cbc.html#a0afb287e68b0d1d970fd073849525c36" target="_top" xlink:title="The computation of parameters, the allocation of memory, the association of pointers and/or the execu...">
<polygon fill="none" stroke="black" points="247.5,-2.78 247.5,-32.78 354.5,-32.78 354.5,-2.78 247.5,-2.78"/>
<text text-anchor="start" x="255.5" y="-20.78" font-family="Helvetica,sans-Serif" font-size="10.00">m_cbc::s_initialize</text>
<text text-anchor="middle" x="301" y="-9.78" font-family="Helvetica,sans-Serif" font-size="10.00">_cbc_module</text>
</a>
</g>
</g>
<!-- Node8&#45;&gt;Node9 -->
<g id="edge10" class="edge">
<title>Node8&#45;&gt;Node9</title>
<path fill="none" stroke="midnightblue" d="M389.44,-17.78C377.72,-17.78 365.81,-17.78 354.71,-17.78"/>
<polygon fill="midnightblue" stroke="midnightblue" points="389.67,-21.28 399.67,-17.78 389.67,-14.28 389.67,-21.28"/>
</g>
<!-- Node9&#45;&gt;Node5 -->
<g id="edge11" class="edge">
<title>Node9&#45;&gt;Node5</title>
<path fill="none" stroke="midnightblue" d="M237.21,-4.93C194.27,1.15 136.71,3.9 89,-12.78 66.84,-20.53 46.69,-39.99 35.86,-51.92"/>
<polygon fill="midnightblue" stroke="midnightblue" points="236.83,-8.41 247.24,-6.45 237.88,-1.49 236.83,-8.41"/>
</g>
</g>
</svg>
        <g id="navigator" transform="translate(0 0)" fill="#404254">
                <rect fill="#f2f5e9" fill-opacity="0.5" stroke="#606060" stroke-width=".5" x="0" y="0" width="60" height="60"/>
                <use id="zoomplus" xlink:href="#zoomPlus" x="17" y="9" onmousedown="handleZoom(evt,'in')"/>
                <use id="zoomminus" xlink:href="#zoomMin" x="42" y="9" onmousedown="handleZoom(evt,'out')"/>
                <use id="reset" xlink:href="#resetDef" x="30" y="36" onmousedown="handleReset()"/>
                <g id="arrowUp" xlink:href="#dirArrow" transform="translate(30 24)" onmousedown="handlePan(0,-1)">
                  <use xlink:href="#rim" fill="#404040">
                        <set attributeName="fill" to="#808080" begin="arrowUp.mouseover" end="arrowUp.mouseout"/>
                  </use>
                  <path fill="none" stroke="white" stroke-width="1.5" d="M0,-3.0v7 M-2.5,-0.5L0,-3.0L2.5,-0.5"/>
                </g>
                <g id="arrowRight" xlink:href="#dirArrow" transform="rotate(90) translate(36 -43)" onmousedown="handlePan(1,0)">
                  <use xlink:href="#rim" fill="#404040">
                        <set attributeName="fill" to="#808080" begin="arrowRight.mouseover" end="arrowRight.mouseout"/>
                  </use>
                  <path fill="none" stroke="white" stroke-width="1.5" d="M0,-3.0v7 M-2.5,-0.5L0,-3.0L2.5,-0.5"/>
                </g>
                <g id="arrowDown" xlink:href="#dirArrow" transform="rotate(180) translate(-30 -48)" onmousedown="handlePan(0,1)">
                  <use xlink:href="#rim" fill="#404040">
                        <set attributeName="fill" to="#808080" begin="arrowDown.mouseover" end="arrowDown.mouseout"/>
                  </use>
                  <path fill="none" stroke="white" stroke-width="1.5" d="M0,-3.0v7 M-2.5,-0.5L0,-3.0L2.5,-0.5"/>
                </g>
                <g id="arrowLeft" xlink:href="#dirArrow" transform="rotate(270) translate(-36 17)" onmousedown="handlePan(-1,0)">
                  <use xlink:href="#rim" fill="#404040">
                        <set attributeName="fill" to="#808080" begin="arrowLeft.mouseover" end="arrowLeft.mouseout"/>
                  </use>
                  <path fill="none" stroke="white" stroke-width="1.5" d="M0,-3.0v7 M-2.5,-0.5L0,-3.0L2.5,-0.5"/>
                </g>
        </g>
        <svg viewBox="0 0 15 15" width="100%" height="30px" preserveAspectRatio="xMaxYMin meet">
         <g id="arrow_out" transform="scale(0.3 0.3)">
          <a xlink:href="namespacem__cbc_a76e19dea2a654c9a7f311baa16ef118c_icgraph_org.svg" target="_base">
           <rect id="button" ry="5" rx="5" y="6" x="6" height="38" width="38"
                fill="#f2f5e9" fill-opacity="0.5" stroke="#606060" stroke-width="1.0"/>
           <path id="arrow"
             d="M 11.500037,31.436501 C 11.940474,20.09759 22.043105,11.32322 32.158766,21.979434 L 37.068811,17.246167 C 37.068811,17.246167 37.088388,32 37.088388,32 L 22.160133,31.978069 C 22.160133,31.978069 26.997745,27.140456 26.997745,27.140456 C 18.528582,18.264221 13.291696,25.230495 11.500037,31.436501 z"
             style="fill:#404040;"/>
          </a>
         </g>
        </svg>
</svg>
