<?xml version="1.0" encoding="UTF-8" standalone="no"?>
<!DOCTYPE svg PUBLIC "-//W3C//DTD SVG 1.1//EN"
 "http://www.w3.org/Graphics/SVG/1.1/DTD/svg11.dtd">
<!-- Generated by graphviz version 2.43.0 (0)
 -->
<!-- Title: m_mpi_proxy::s_initialize_mpi_data Pages: 1 -->
<svg width="590pt" height="145pt"
 viewBox="0.00 0.00 590.00 144.76" xmlns="http://www.w3.org/2000/svg" xmlns:xlink="http://www.w3.org/1999/xlink">
<g id="graph0" class="graph" transform="scale(1 1) rotate(0) translate(4 140.76)">
<title>m_mpi_proxy::s_initialize_mpi_data</title>
<!-- Node1 -->
<g id="node1" class="node">
<title>Node1</title>
<g id="a_node1"><a xlink:title="The subroutine that initializes MPI data structures.">
<polygon fill="#999999" stroke="#666666" points="582,-94 441,-94 441,-64 582,-64 582,-94"/>
<text text-anchor="start" x="449" y="-82" font-family="Helvetica,sans-Serif" font-size="10.00">m_mpi_proxy::s_initialize</text>
<text text-anchor="middle" x="511.5" y="-71" font-family="Helvetica,sans-Serif" font-size="10.00">_mpi_data</text>
</a>
</g>
</g>
<!-- Node2 -->
<g id="node2" class="node">
<title>Node2</title>
<g id="a_node2"><a xlink:href="namespacem__start__up.html#a45c8fef6680263063a1c7d2fa1748013" target="_top" xlink:title=" ">
<polygon fill="white" stroke="#666666" points="395,-118 284,-118 284,-88 395,-88 395,-118"/>
<text text-anchor="start" x="292" y="-106" font-family="Helvetica,sans-Serif" font-size="10.00">m_start_up::s_read</text>
<text text-anchor="middle" x="339.5" y="-95" font-family="Helvetica,sans-Serif" font-size="10.00">_parallel_data_files</text>
</a>
</g>
</g>
<!-- Node1&#45;&gt;Node2 -->
<g id="edge1" class="edge">
<title>Node1&#45;&gt;Node2</title>
<path fill="none" stroke="#63b8ff" d="M430.8,-90.25C418.75,-91.95 406.56,-93.67 395.2,-95.28"/>
<polygon fill="#63b8ff" stroke="#63b8ff" points="431.45,-93.69 440.86,-88.83 430.47,-86.76 431.45,-93.69"/>
</g>
<!-- Node5 -->
<g id="node5" class="node">
<title>Node5</title>
<g id="a_node5"><a xlink:href="namespacem__data__output.html#a9c1271b2c588c1ae3275791d41550f75" target="_top" xlink:title="The goal of this subroutine is to output the grid and conservative variables data files for given tim...">
<polygon fill="white" stroke="#666666" points="405,-70 274,-70 274,-40 405,-40 405,-70"/>
<text text-anchor="start" x="282" y="-58" font-family="Helvetica,sans-Serif" font-size="10.00">m_data_output::s_write</text>
<text text-anchor="middle" x="339.5" y="-47" font-family="Helvetica,sans-Serif" font-size="10.00">_parallel_data_files</text>
</a>
</g>
</g>
<!-- Node1&#45;&gt;Node5 -->
<g id="edge5" class="edge">
<title>Node1&#45;&gt;Node5</title>
<path fill="none" stroke="#63b8ff" d="M430.81,-67.75C422.19,-66.53 413.51,-65.31 405.1,-64.12"/>
<polygon fill="#63b8ff" stroke="#63b8ff" points="430.47,-71.24 440.86,-69.17 431.45,-64.31 430.47,-71.24"/>
</g>
<!-- Node3 -->
<g id="node3" class="node">
<title>Node3</title>
<g id="a_node3"><a xlink:href="p__main_8f90.html#aeec10ee8e2940c953967da3e374e1579" target="_top" xlink:title="Quasi&#45;conservative, shock&#45; and interface&#45; capturing finite&#45;volume scheme for the multicomponent Navie...">
<polygon fill="white" stroke="#666666" points="53,-88.5 0,-88.5 0,-69.5 53,-69.5 53,-88.5"/>
<text text-anchor="middle" x="26.5" y="-76.5" font-family="Helvetica,sans-Serif" font-size="10.00">p_main</text>
</a>
</g>
</g>
<!-- Node2&#45;&gt;Node3 -->
<g id="edge2" class="edge">
<title>Node2&#45;&gt;Node3</title>
<path fill="none" stroke="#63b8ff" d="M281.72,-120.7C230.14,-133.85 152.63,-146.16 89,-125 67.49,-117.85 47.43,-99.91 36.38,-88.66"/>
<polygon fill="#63b8ff" stroke="#63b8ff" points="282.9,-124.01 291.68,-118.07 281.11,-117.24 282.9,-124.01"/>
</g>
<!-- Node4 -->
<g id="node4" class="node">
<title>Node4</title>
<g id="a_node4"><a xlink:href="namespacem__start__up.html#a37202711d89d04cd18f08170ba608aa1" target="_top" xlink:title=" ">
<polygon fill="white" stroke="#666666" points="228.5,-116 98.5,-116 98.5,-86 228.5,-86 228.5,-116"/>
<text text-anchor="start" x="106.5" y="-104" font-family="Helvetica,sans-Serif" font-size="10.00">m_start_up::s_initialize</text>
<text text-anchor="middle" x="163.5" y="-93" font-family="Helvetica,sans-Serif" font-size="10.00">_start_up_module</text>
</a>
</g>
</g>
<!-- Node2&#45;&gt;Node4 -->
<g id="edge3" class="edge">
<title>Node2&#45;&gt;Node4</title>
<path fill="none" stroke="#63b8ff" d="M273.86,-102.26C259.08,-102.09 243.38,-101.91 228.63,-101.74"/>
<polygon fill="#63b8ff" stroke="#63b8ff" points="273.88,-105.76 283.92,-102.37 273.96,-98.76 273.88,-105.76"/>
</g>
<!-- Node4&#45;&gt;Node3 -->
<g id="edge4" class="edge">
<title>Node4&#45;&gt;Node3</title>
<path fill="none" stroke="#63b8ff" d="M88.11,-88.88C75.62,-86.84 63.44,-84.86 53.32,-83.21"/>
<polygon fill="#63b8ff" stroke="#63b8ff" points="87.73,-92.36 98.16,-90.52 88.86,-85.45 87.73,-92.36"/>
</g>
<!-- Node5&#45;&gt;Node3 -->
<g id="edge6" class="edge">
<title>Node5&#45;&gt;Node3</title>
<path fill="none" stroke="#63b8ff" d="M263.42,-60.79C195.27,-66.05 98.69,-73.51 53.15,-77.02"/>
<polygon fill="#63b8ff" stroke="#63b8ff" points="263.98,-64.26 273.68,-60 263.44,-57.28 263.98,-64.26"/>
</g>
<!-- Node6 -->
<g id="node6" class="node">
<title>Node6</title>
<g id="a_node6"><a xlink:href="namespacem__data__output.html#ab65b312ef83adb104cafafada9c998b6" target="_top" xlink:title="The computation of parameters, the allocation of memory, the association of pointers and/or the execu...">
<polygon fill="white" stroke="#666666" points="238,-30 89,-30 89,0 238,0 238,-30"/>
<text text-anchor="start" x="97" y="-18" font-family="Helvetica,sans-Serif" font-size="10.00">m_data_output::s_initialize</text>
<text text-anchor="middle" x="163.5" y="-7" font-family="Helvetica,sans-Serif" font-size="10.00">_data_output_module</text>
</a>
</g>
</g>
<!-- Node5&#45;&gt;Node6 -->
<g id="edge7" class="edge">
<title>Node5&#45;&gt;Node6</title>
<path fill="none" stroke="#63b8ff" d="M263.88,-37.85C252.58,-35.25 241.01,-32.59 229.93,-30.04"/>
<polygon fill="#63b8ff" stroke="#63b8ff" points="263.18,-41.28 273.71,-40.11 264.75,-34.45 263.18,-41.28"/>
</g>
<!-- Node6&#45;&gt;Node3 -->
<g id="edge8" class="edge">
<title>Node6&#45;&gt;Node3</title>
<path fill="none" stroke="#63b8ff" d="M111.88,-33.88C104.14,-37.08 96.3,-40.5 89,-44 72.82,-51.75 55.09,-62.04 42.85,-69.46"/>
<polygon fill="#63b8ff" stroke="#63b8ff" points="113.28,-37.09 121.24,-30.09 110.65,-30.6 113.28,-37.09"/>
</g>
</g>
</svg>
