<?xml version="1.0" encoding="UTF-8" standalone="no"?>
<!DOCTYPE svg PUBLIC "-//W3C//DTD SVG 1.1//EN"
 "http://www.w3.org/Graphics/SVG/1.1/DTD/svg11.dtd">
<!-- Generated by graphviz version 2.43.0 (0)
 -->
<!-- Title: m_mpi_proxy::s_mpi_barrier Pages: 1 -->
<svg width="548pt" height="235pt"
 viewBox="0.00 0.00 548.00 234.66" xmlns="http://www.w3.org/2000/svg" xmlns:xlink="http://www.w3.org/1999/xlink">
<g id="graph0" class="graph" transform="scale(1 1) rotate(0) translate(4 230.66)">
<title>m_mpi_proxy::s_mpi_barrier</title>
<!-- Node1 -->
<g id="node1" class="node">
<title>Node1</title>
<g id="a_node1"><a xlink:title="Halts all processes until all have reached barrier.">
<polygon fill="#999999" stroke="#666666" points="540,-184 422,-184 422,-154 540,-154 540,-184"/>
<text text-anchor="start" x="430" y="-172" font-family="Helvetica,sans-Serif" font-size="10.00">m_mpi_proxy::s_mpi</text>
<text text-anchor="middle" x="481" y="-161" font-family="Helvetica,sans-Serif" font-size="10.00">_barrier</text>
</a>
</g>
</g>
<!-- Node2 -->
<g id="node2" class="node">
<title>Node2</title>
<g id="a_node2"><a xlink:href="p__main_8f90.html#aeec10ee8e2940c953967da3e374e1579" target="_top" xlink:title="Quasi&#45;conservative, shock&#45; and interface&#45; capturing finite&#45;volume scheme for the multicomponent Navie...">
<polygon fill="white" stroke="#666666" points="53,-144.5 0,-144.5 0,-125.5 53,-125.5 53,-144.5"/>
<text text-anchor="middle" x="26.5" y="-132.5" font-family="Helvetica,sans-Serif" font-size="10.00">p_main</text>
</a>
</g>
</g>
<!-- Node1&#45;&gt;Node2 -->
<g id="edge1" class="edge">
<title>Node1&#45;&gt;Node2</title>
<path fill="none" stroke="#63b8ff" d="M431.53,-187.44C355.13,-213.43 203.6,-252.37 89,-202 62.11,-190.18 41.83,-160.17 32.75,-144.64"/>
<polygon fill="#63b8ff" stroke="#63b8ff" points="433.06,-190.61 441.36,-184.02 430.76,-184 433.06,-190.61"/>
</g>
<!-- Node3 -->
<g id="node3" class="node">
<title>Node3</title>
<g id="a_node3"><a xlink:href="namespacem__start__up.html#a45c8fef6680263063a1c7d2fa1748013" target="_top" xlink:title=" ">
<polygon fill="white" stroke="#666666" points="376,-184 265,-184 265,-154 376,-154 376,-184"/>
<text text-anchor="start" x="273" y="-172" font-family="Helvetica,sans-Serif" font-size="10.00">m_start_up::s_read</text>
<text text-anchor="middle" x="320.5" y="-161" font-family="Helvetica,sans-Serif" font-size="10.00">_parallel_data_files</text>
</a>
</g>
</g>
<!-- Node1&#45;&gt;Node3 -->
<g id="edge2" class="edge">
<title>Node1&#45;&gt;Node3</title>
<path fill="none" stroke="#63b8ff" d="M411.59,-169C399.76,-169 387.6,-169 376.19,-169"/>
<polygon fill="#63b8ff" stroke="#63b8ff" points="411.88,-172.5 421.88,-169 411.88,-165.5 411.88,-172.5"/>
</g>
<!-- Node5 -->
<g id="node5" class="node">
<title>Node5</title>
<g id="a_node5"><a xlink:href="namespacem__data__output.html#a33a72559ec5cfdedf7162a8269d41201" target="_top" xlink:title="The goal of the procedure is to output to the run&#45;time information file the stability criteria extrem...">
<polygon fill="white" stroke="#666666" points="386,-117 255,-117 255,-87 386,-87 386,-117"/>
<text text-anchor="start" x="263" y="-105" font-family="Helvetica,sans-Serif" font-size="10.00">m_data_output::s_write</text>
<text text-anchor="middle" x="320.5" y="-94" font-family="Helvetica,sans-Serif" font-size="10.00">_run_time_information</text>
</a>
</g>
</g>
<!-- Node1&#45;&gt;Node5 -->
<g id="edge6" class="edge">
<title>Node1&#45;&gt;Node5</title>
<path fill="none" stroke="#63b8ff" d="M434.94,-149.95C410.31,-139.54 380.22,-126.82 357.23,-117.1"/>
<polygon fill="#63b8ff" stroke="#63b8ff" points="433.86,-153.29 444.43,-153.96 436.58,-146.85 433.86,-153.29"/>
</g>
<!-- Node3&#45;&gt;Node2 -->
<g id="edge3" class="edge">
<title>Node3&#45;&gt;Node2</title>
<path fill="none" stroke="#63b8ff" d="M255.01,-185.89C207.78,-195.2 142.8,-201.51 89,-183 66.97,-175.42 46.78,-156.36 35.9,-144.66"/>
<polygon fill="#63b8ff" stroke="#63b8ff" points="255.73,-189.32 264.81,-183.87 254.31,-182.46 255.73,-189.32"/>
</g>
<!-- Node4 -->
<g id="node4" class="node">
<title>Node4</title>
<g id="a_node4"><a xlink:href="namespacem__start__up.html#a37202711d89d04cd18f08170ba608aa1" target="_top" xlink:title=" ">
<polygon fill="white" stroke="#666666" points="219,-174 89,-174 89,-144 219,-144 219,-174"/>
<text text-anchor="start" x="97" y="-162" font-family="Helvetica,sans-Serif" font-size="10.00">m_start_up::s_initialize</text>
<text text-anchor="middle" x="154" y="-151" font-family="Helvetica,sans-Serif" font-size="10.00">_start_up_module</text>
</a>
</g>
</g>
<!-- Node3&#45;&gt;Node4 -->
<g id="edge4" class="edge">
<title>Node3&#45;&gt;Node4</title>
<path fill="none" stroke="#63b8ff" d="M254.64,-165.06C242.99,-164.35 230.86,-163.61 219.23,-162.9"/>
<polygon fill="#63b8ff" stroke="#63b8ff" points="254.53,-168.56 264.72,-165.67 254.95,-161.57 254.53,-168.56"/>
</g>
<!-- Node4&#45;&gt;Node2 -->
<g id="edge5" class="edge">
<title>Node4&#45;&gt;Node2</title>
<path fill="none" stroke="#63b8ff" d="M78.74,-144.8C69.58,-143.05 60.76,-141.36 53.09,-139.89"/>
<polygon fill="#63b8ff" stroke="#63b8ff" points="78.3,-148.28 88.78,-146.72 79.61,-141.4 78.3,-148.28"/>
</g>
<!-- Node6 -->
<g id="node6" class="node">
<title>Node6</title>
<g id="a_node6"><a xlink:href="namespacem__time__steppers.html#a8876606e6152b6c8f35272074a088142" target="_top" xlink:title="1st order TVD RK time&#45;stepping algorithm">
<polygon fill="white" stroke="#666666" points="210.5,-126 97.5,-126 97.5,-96 210.5,-96 210.5,-126"/>
<text text-anchor="start" x="105.5" y="-114" font-family="Helvetica,sans-Serif" font-size="10.00">m_time_steppers::s</text>
<text text-anchor="middle" x="154" y="-103" font-family="Helvetica,sans-Serif" font-size="10.00">_1st_order_tvd_rk</text>
</a>
</g>
</g>
<!-- Node5&#45;&gt;Node6 -->
<g id="edge7" class="edge">
<title>Node5&#45;&gt;Node6</title>
<path fill="none" stroke="#63b8ff" d="M244.89,-106.08C233.34,-106.71 221.59,-107.36 210.56,-107.96"/>
<polygon fill="#63b8ff" stroke="#63b8ff" points="245.16,-109.57 254.96,-105.53 244.78,-102.58 245.16,-109.57"/>
</g>
<!-- Node7 -->
<g id="node7" class="node">
<title>Node7</title>
<g id="a_node7"><a xlink:href="namespacem__time__steppers.html#adb82b6c6041c825d0999e6890ed825cc" target="_top" xlink:title="2nd order TVD RK time&#45;stepping algorithm">
<polygon fill="white" stroke="#666666" points="210.5,-78 97.5,-78 97.5,-48 210.5,-48 210.5,-78"/>
<text text-anchor="start" x="105.5" y="-66" font-family="Helvetica,sans-Serif" font-size="10.00">m_time_steppers::s</text>
<text text-anchor="middle" x="154" y="-55" font-family="Helvetica,sans-Serif" font-size="10.00">_2nd_order_tvd_rk</text>
</a>
</g>
</g>
<!-- Node5&#45;&gt;Node7 -->
<g id="edge9" class="edge">
<title>Node5&#45;&gt;Node7</title>
<path fill="none" stroke="#63b8ff" d="M246.01,-84.58C234.14,-81.76 222.02,-78.89 210.66,-76.2"/>
<polygon fill="#63b8ff" stroke="#63b8ff" points="245.36,-88.02 255.9,-86.92 246.98,-81.21 245.36,-88.02"/>
</g>
<!-- Node8 -->
<g id="node8" class="node">
<title>Node8</title>
<g id="a_node8"><a xlink:href="namespacem__time__steppers.html#ae08efa7df1f8efae0f726dd5114176a8" target="_top" xlink:title="3rd order TVD RK time&#45;stepping algorithm">
<polygon fill="white" stroke="#666666" points="210.5,-30 97.5,-30 97.5,0 210.5,0 210.5,-30"/>
<text text-anchor="start" x="105.5" y="-18" font-family="Helvetica,sans-Serif" font-size="10.00">m_time_steppers::s</text>
<text text-anchor="middle" x="154" y="-7" font-family="Helvetica,sans-Serif" font-size="10.00">_3rd_order_tvd_rk</text>
</a>
</g>
</g>
<!-- Node5&#45;&gt;Node8 -->
<g id="edge11" class="edge">
<title>Node5&#45;&gt;Node8</title>
<path fill="none" stroke="#63b8ff" d="M289.81,-81.17C270.27,-68.03 243.81,-51.27 219,-39 212.62,-35.84 205.71,-32.85 198.88,-30.11"/>
<polygon fill="#63b8ff" stroke="#63b8ff" points="288.04,-84.2 298.27,-86.93 291.97,-78.41 288.04,-84.2"/>
</g>
<!-- Node6&#45;&gt;Node2 -->
<g id="edge8" class="edge">
<title>Node6&#45;&gt;Node2</title>
<path fill="none" stroke="#63b8ff" d="M87.13,-123.6C75.11,-125.9 63.24,-128.17 53.3,-130.07"/>
<polygon fill="#63b8ff" stroke="#63b8ff" points="88.06,-126.98 97.22,-121.67 86.74,-120.11 88.06,-126.98"/>
</g>
<!-- Node7&#45;&gt;Node2 -->
<g id="edge10" class="edge">
<title>Node7&#45;&gt;Node2</title>
<path fill="none" stroke="#63b8ff" d="M98.32,-82.2C95.12,-83.72 91.99,-85.33 89,-87 69.39,-97.99 49.35,-114.91 37.69,-125.45"/>
<polygon fill="#63b8ff" stroke="#63b8ff" points="99.76,-85.39 107.46,-78.11 96.91,-79 99.76,-85.39"/>
</g>
<!-- Node8&#45;&gt;Node2 -->
<g id="edge12" class="edge">
<title>Node8&#45;&gt;Node2</title>
<path fill="none" stroke="#63b8ff" d="M93.99,-35.33C92.26,-36.49 90.59,-37.71 89,-39 58.99,-63.27 39.01,-106.27 31.2,-125.38"/>
<polygon fill="#63b8ff" stroke="#63b8ff" points="96.17,-38.11 103.03,-30.03 92.63,-32.07 96.17,-38.11"/>
</g>
</g>
</svg>
