<?xml version="1.0" encoding="UTF-8" standalone="no"?>
<!DOCTYPE svg PUBLIC "-//W3C//DTD SVG 1.1//EN"
 "http://www.w3.org/Graphics/SVG/1.1/DTD/svg11.dtd">
<!-- Generated by graphviz version 2.43.0 (0)
 -->
<!-- Title: m_cbc::s_compute_cbc_coefficients Pages: 1 -->
<svg width="369pt" height="38pt"
 viewBox="0.00 0.00 369.00 38.00" xmlns="http://www.w3.org/2000/svg" xmlns:xlink="http://www.w3.org/1999/xlink">
<g id="graph0" class="graph" transform="scale(1 1) rotate(0) translate(4 34)">
<title>m_cbc::s_compute_cbc_coefficients</title>
<!-- Node1 -->
<g id="Node000001" class="node">
<title>Node1</title>
<g id="a_Node000001"><a xlink:title="Compute CBC coefficients.">
<polygon fill="#999999" stroke="#666666" points="361,-30 232,-30 232,0 361,0 361,-30"/>
<text text-anchor="start" x="240" y="-18" font-family="Helvetica,sans-Serif" font-size="10.00">m_cbc::s_compute_cbc</text>
<text text-anchor="middle" x="296.5" y="-7" font-family="Helvetica,sans-Serif" font-size="10.00">_coefficients</text>
</a>
</g>
</g>
<!-- Node2 -->
<g id="Node000002" class="node">
<title>Node2</title>
<g id="a_Node000002"><a xlink:href="namespacem__cbc.html#a0afb287e68b0d1d970fd073849525c36" target="_top" xlink:title="The computation of parameters, the allocation of memory, the association of pointers and/or the execu...">
<polygon fill="white" stroke="#666666" points="196,-30 89,-30 89,0 196,0 196,-30"/>
<text text-anchor="start" x="97" y="-18" font-family="Helvetica,sans-Serif" font-size="10.00">m_cbc::s_initialize</text>
<text text-anchor="middle" x="142.5" y="-7" font-family="Helvetica,sans-Serif" font-size="10.00">_cbc_module</text>
</a>
</g>
</g>
<!-- Node1&#45;&gt;Node2 -->
<g id="edge1_Node000001_Node000002" class="edge">
<title>Node1&#45;&gt;Node2</title>
<g id="a_edge1_Node000001_Node000002"><a xlink:title=" ">
<path fill="none" stroke="#63b8ff" d="M221.83,-15C213.19,-15 204.51,-15 196.24,-15"/>
<polygon fill="#63b8ff" stroke="#63b8ff" points="221.92,-18.5 231.92,-15 221.92,-11.5 221.92,-18.5"/>
</a>
</g>
</g>
<!-- Node3 -->
<g id="Node000003" class="node">
<title>Node3</title>
<g id="a_Node000003"><a xlink:href="p__main_8fpp_8f90.html#aeec10ee8e2940c953967da3e374e1579" target="_top" xlink:title="Quasi&#45;conservative, shock&#45; and interface&#45; capturing finite&#45;volume scheme for the multicomponent Navie...">
<polygon fill="white" stroke="#666666" points="53,-24.5 0,-24.5 0,-5.5 53,-5.5 53,-24.5"/>
<text text-anchor="middle" x="26.5" y="-12.5" font-family="Helvetica,sans-Serif" font-size="10.00">p_main</text>
</a>
</g>
</g>
<!-- Node2&#45;&gt;Node3 -->
<g id="edge2_Node000002_Node000003" class="edge">
<title>Node2&#45;&gt;Node3</title>
<g id="a_edge2_Node000002_Node000003"><a xlink:title=" ">
<path fill="none" stroke="#63b8ff" d="M78.68,-15C69.71,-15 60.94,-15 53.26,-15"/>
<polygon fill="#63b8ff" stroke="#63b8ff" points="78.84,-18.5 88.84,-15 78.84,-11.5 78.84,-18.5"/>
</a>
</g>
</g>
</g>
</svg>
