<?xml version="1.0" encoding="UTF-8" standalone="no"?>
<!DOCTYPE svg PUBLIC "-//W3C//DTD SVG 1.1//EN"
 "http://www.w3.org/Graphics/SVG/1.1/DTD/svg11.dtd">
<!-- Generated by graphviz version 2.43.0 (0)
 -->
<!-- Title: m_variables_conversion::s_convert_primitive_to_flux_variables Pages: 1 -->
<svg width="355pt" height="110pt"
 viewBox="0.00 0.00 355.00 110.00" xmlns="http://www.w3.org/2000/svg" xmlns:xlink="http://www.w3.org/1999/xlink">
<g id="graph0" class="graph" transform="scale(1 1) rotate(0) translate(4 106)">
<title>m_variables_conversion::s_convert_primitive_to_flux_variables</title>
<!-- Node1 -->
<g id="node1" class="node">
<title>Node1</title>
<g id="a_node1"><a xlink:title="The following subroutine handles the conversion between the primitive variables and the Eulerian flux...">
<polygon fill="#bfbfbf" stroke="black" points="0,-30.5 0,-71.5 135,-71.5 135,-30.5 0,-30.5"/>
<text text-anchor="start" x="8" y="-59.5" font-family="Helvetica,sans-Serif" font-size="10.00">m_variables_conversion</text>
<text text-anchor="start" x="8" y="-48.5" font-family="Helvetica,sans-Serif" font-size="10.00">::s_convert_primitive</text>
<text text-anchor="middle" x="67.5" y="-37.5" font-family="Helvetica,sans-Serif" font-size="10.00">_to_flux_variables</text>
</a>
</g>
</g>
<!-- Node2 -->
<g id="node2" class="node">
<title>Node2</title>
<g id="a_node2"><a xlink:href="namespacem__variables__conversion.html#a90c79f2c458ee4af542e11361f23c3c4" target="_top" xlink:title=" ">
<polygon fill="none" stroke="black" points="191.5,-60.5 191.5,-101.5 326.5,-101.5 326.5,-60.5 191.5,-60.5"/>
<text text-anchor="start" x="199.5" y="-89.5" font-family="Helvetica,sans-Serif" font-size="10.00">m_variables_conversion</text>
<text text-anchor="start" x="199.5" y="-78.5" font-family="Helvetica,sans-Serif" font-size="10.00">::s_convert_species_to</text>
<text text-anchor="middle" x="259" y="-67.5" font-family="Helvetica,sans-Serif" font-size="10.00">_mixture_variables_acc</text>
</a>
</g>
</g>
<!-- Node1&#45;&gt;Node2 -->
<g id="edge1" class="edge">
<title>Node1&#45;&gt;Node2</title>
<path fill="none" stroke="midnightblue" d="M135.04,-61.53C150,-63.9 166,-66.43 181.33,-68.86"/>
<polygon fill="midnightblue" stroke="midnightblue" points="180.87,-72.33 191.3,-70.44 181.97,-65.42 180.87,-72.33"/>
</g>
<!-- Node3 -->
<g id="node3" class="node">
<title>Node3</title>
<g id="a_node3"><a xlink:href="namespacem__variables__conversion.html#acb81910f3c4223227f19333a919feb6c" target="_top" xlink:title=" ">
<polygon fill="none" stroke="black" points="171,-0.5 171,-41.5 347,-41.5 347,-0.5 171,-0.5"/>
<text text-anchor="start" x="179" y="-29.5" font-family="Helvetica,sans-Serif" font-size="10.00">m_variables_conversion</text>
<text text-anchor="start" x="179" y="-18.5" font-family="Helvetica,sans-Serif" font-size="10.00">::s_convert_species_to</text>
<text text-anchor="middle" x="259" y="-7.5" font-family="Helvetica,sans-Serif" font-size="10.00">_mixture_variables_bubbles_acc</text>
</a>
</g>
</g>
<!-- Node1&#45;&gt;Node3 -->
<g id="edge2" class="edge">
<title>Node1&#45;&gt;Node3</title>
<path fill="none" stroke="midnightblue" d="M135.04,-40.47C143.49,-39.13 152.26,-37.74 161.06,-36.35"/>
<polygon fill="midnightblue" stroke="midnightblue" points="161.67,-39.79 170.99,-34.77 160.57,-32.88 161.67,-39.79"/>
</g>
</g>
</svg>
