<?xml version="1.0" encoding="UTF-8" standalone="no"?>
<!DOCTYPE svg PUBLIC "-//W3C//DTD SVG 1.1//EN"
 "http://www.w3.org/Graphics/SVG/1.1/DTD/svg11.dtd">
<!-- Generated by graphviz version 2.43.0 (0)
 -->
<!-- Title: m_riemann_solvers::s_initialize_riemann_solvers_module Pages: 1 -->
<svg width="478pt" height="319pt"
 viewBox="0.00 0.00 478.00 319.00" xmlns="http://www.w3.org/2000/svg" xmlns:xlink="http://www.w3.org/1999/xlink">

<svg id="main" version="1.1" xmlns="http://www.w3.org/2000/svg" xmlns:xlink="http://www.w3.org/1999/xlink" xml:space="preserve" onload="init(evt)">
<style type="text/css"><![CDATA[
.node, .edge {opacity: 0.7;}
.node.selected, .edge.selected {opacity: 1;}
.edge:hover path { stroke: red; }
.edge:hover polygon { stroke: red; fill: red; }
]]></style>
<script type="application/ecmascript" xlink:href="svg.min.js"/>
<svg id="graph" class="graph">
<g id="graph0" class="graph" transform="scale(1 1) rotate(0) translate(4 315)">
<title>m_riemann_solvers::s_initialize_riemann_solvers_module</title>
<!-- Node1 -->
<g id="Node000001" class="node">
<title>Node1</title>
<g id="a_Node000001"><a xlink:title="The computation of parameters, the allocation of memory, the association of pointers and/or the execu...">
<polygon fill="#999999" stroke="#666666" points="119,-225 0,-225 0,-184 119,-184 119,-225"/>
<text text-anchor="start" x="8" y="-213" font-family="Helvetica,sans-Serif" font-size="10.00">m_riemann_solvers::</text>
<text text-anchor="start" x="8" y="-202" font-family="Helvetica,sans-Serif" font-size="10.00">s_initialize_riemann</text>
<text text-anchor="middle" x="59.5" y="-191" font-family="Helvetica,sans-Serif" font-size="10.00">_solvers_module</text>
</a>
</g>
</g>
<!-- Node2 -->
<g id="Node000002" class="node">
<title>Node2</title>
<g id="a_Node000002"><a xlink:href="namespacem__riemann__solvers.html#a67523a29805d4128431484ca49de1068" target="_top" xlink:title="The goal of this subroutine is to evaluate and account for the contribution of viscous stresses in th...">
<polygon fill="white" stroke="#666666" points="277.5,-311 157.5,-311 157.5,-270 277.5,-270 277.5,-311"/>
<text text-anchor="start" x="165.5" y="-299" font-family="Helvetica,sans-Serif" font-size="10.00">m_riemann_solvers::</text>
<text text-anchor="start" x="165.5" y="-288" font-family="Helvetica,sans-Serif" font-size="10.00">s_compute_cartesian</text>
<text text-anchor="middle" x="217.5" y="-277" font-family="Helvetica,sans-Serif" font-size="10.00">_viscous_source_flux</text>
</a>
</g>
</g>
<!-- Node1&#45;&gt;Node2 -->
<g id="edge1_Node000001_Node000002" class="edge">
<title>Node1&#45;&gt;Node2</title>
<g id="a_edge1_Node000001_Node000002"><a xlink:title=" ">
<path fill="none" stroke="#63b8ff" d="M92.83,-225.12C110.86,-236.34 133.89,-250.19 155,-261.5 157.4,-262.79 159.88,-264.08 162.38,-265.36"/>
<polygon fill="#63b8ff" stroke="#63b8ff" points="161.05,-268.61 171.56,-269.96 164.19,-262.35 161.05,-268.61"/>
</a>
</g>
</g>
<!-- Node3 -->
<g id="Node000003" class="node">
<title>Node3</title>
<g id="a_Node000003"><a xlink:href="namespacem__riemann__solvers.html#a225f72f7e466dad77766ea2fe27a7a05" target="_top" xlink:title="The goal of this subroutine is to evaluate and account for the contribution of viscous stresses in th...">
<polygon fill="white" stroke="#666666" points="280,-252 155,-252 155,-211 280,-211 280,-252"/>
<text text-anchor="start" x="163" y="-240" font-family="Helvetica,sans-Serif" font-size="10.00">m_riemann_solvers::</text>
<text text-anchor="start" x="163" y="-229" font-family="Helvetica,sans-Serif" font-size="10.00">s_compute_cylindrical</text>
<text text-anchor="middle" x="217.5" y="-218" font-family="Helvetica,sans-Serif" font-size="10.00">_viscous_source_flux</text>
</a>
</g>
</g>
<!-- Node1&#45;&gt;Node3 -->
<g id="edge2_Node000001_Node000003" class="edge">
<title>Node1&#45;&gt;Node3</title>
<g id="a_edge2_Node000001_Node000003"><a xlink:title=" ">
<path fill="none" stroke="#63b8ff" d="M119.03,-214.63C127.42,-216.08 136.13,-217.59 144.74,-219.08"/>
<polygon fill="#63b8ff" stroke="#63b8ff" points="144.32,-222.56 154.77,-220.82 145.52,-215.66 144.32,-222.56"/>
</a>
</g>
</g>
<!-- Node4 -->
<g id="Node000004" class="node">
<title>Node4</title>
<g id="a_Node000004"><a xlink:href="namespacem__riemann__solvers.html#a1b018ebed82e499a0589925651bba7a7" target="_top" xlink:title=" ">
<polygon fill="white" stroke="#666666" points="277.5,-192.5 157.5,-192.5 157.5,-162.5 277.5,-162.5 277.5,-192.5"/>
<text text-anchor="start" x="165.5" y="-180.5" font-family="Helvetica,sans-Serif" font-size="10.00">m_riemann_solvers::</text>
<text text-anchor="middle" x="217.5" y="-169.5" font-family="Helvetica,sans-Serif" font-size="10.00">s_hll_riemann_solver</text>
</a>
</g>
</g>
<!-- Node1&#45;&gt;Node4 -->
<g id="edge3_Node000001_Node000004" class="edge">
<title>Node1&#45;&gt;Node4</title>
<g id="a_edge3_Node000001_Node000004"><a xlink:title=" ">
<path fill="none" stroke="#63b8ff" d="M119.03,-194.37C128.24,-192.78 137.83,-191.12 147.25,-189.49"/>
<polygon fill="#63b8ff" stroke="#63b8ff" points="148.12,-192.89 157.38,-187.73 146.93,-185.99 148.12,-192.89"/>
</a>
</g>
</g>
<!-- Node9 -->
<g id="Node000009" class="node">
<title>Node9</title>
<g id="a_Node000009"><a xlink:href="namespacem__riemann__solvers.html#a6c9d70572e9b98586bab20b028557a5a" target="_top" xlink:title="This procedure is the implementation of the Harten, Lax, van Leer, and contact (HLLC) approximate Rie...">
<polygon fill="white" stroke="#666666" points="280,-144.5 155,-144.5 155,-114.5 280,-114.5 280,-144.5"/>
<text text-anchor="start" x="163" y="-132.5" font-family="Helvetica,sans-Serif" font-size="10.00">m_riemann_solvers::</text>
<text text-anchor="middle" x="217.5" y="-121.5" font-family="Helvetica,sans-Serif" font-size="10.00">s_hllc_riemann_solver</text>
</a>
</g>
</g>
<!-- Node1&#45;&gt;Node9 -->
<g id="edge8_Node000001_Node000009" class="edge">
<title>Node1&#45;&gt;Node9</title>
<g id="a_edge8_Node000001_Node000009"><a xlink:title=" ">
<path fill="none" stroke="#63b8ff" d="M96.32,-183.82C113.77,-174.1 135.21,-162.66 155,-153.5 158.64,-151.82 162.43,-150.14 166.27,-148.51"/>
<polygon fill="#63b8ff" stroke="#63b8ff" points="167.94,-151.61 175.84,-144.55 165.26,-145.14 167.94,-151.61"/>
</a>
</g>
</g>
<!-- Node5 -->
<g id="Node000005" class="node">
<title>Node5</title>
<g id="a_Node000005"><a xlink:href="namespacem__riemann__solvers.html#a1f08e0b3e2808819c1331e41c99f5bbf" target="_top" xlink:title=" ">
<polygon fill="white" stroke="#666666" points="470,-192.5 316,-192.5 316,-162.5 470,-162.5 470,-192.5"/>
<text text-anchor="start" x="324" y="-180.5" font-family="Helvetica,sans-Serif" font-size="10.00">m_riemann_solvers::</text>
<text text-anchor="middle" x="393" y="-169.5" font-family="Helvetica,sans-Serif" font-size="10.00">s_compute_speed_of_sound</text>
</a>
</g>
</g>
<!-- Node4&#45;&gt;Node5 -->
<g id="edge4_Node000004_Node000005" class="edge">
<title>Node4&#45;&gt;Node5</title>
<g id="a_edge4_Node000004_Node000005"><a xlink:title=" ">
<path fill="none" stroke="#63b8ff" d="M277.72,-177.5C286.74,-177.5 296.19,-177.5 305.64,-177.5"/>
<polygon fill="#63b8ff" stroke="#63b8ff" points="305.86,-181 315.86,-177.5 305.86,-174 305.86,-181"/>
</a>
</g>
</g>
<!-- Node6 -->
<g id="Node000006" class="node">
<title>Node6</title>
<g id="a_Node000006"><a xlink:href="namespacem__riemann__solvers.html#ab679d890c95c6cb1ee3dc5e5a9ae1c19" target="_top" xlink:title="Deallocation and/or disassociation procedures that are needed to finalize the selected Riemann proble...">
<polygon fill="white" stroke="#666666" points="464.5,-144.5 321.5,-144.5 321.5,-114.5 464.5,-114.5 464.5,-144.5"/>
<text text-anchor="start" x="329.5" y="-132.5" font-family="Helvetica,sans-Serif" font-size="10.00">m_riemann_solvers::</text>
<text text-anchor="middle" x="393" y="-121.5" font-family="Helvetica,sans-Serif" font-size="10.00">s_finalize_riemann_solver</text>
</a>
</g>
</g>
<!-- Node4&#45;&gt;Node6 -->
<g id="edge5_Node000004_Node000006" class="edge">
<title>Node4&#45;&gt;Node6</title>
<g id="a_edge5_Node000004_Node000006"><a xlink:title=" ">
<path fill="none" stroke="#63b8ff" d="M272.92,-162.44C290.36,-157.62 309.84,-152.23 327.9,-147.23"/>
<polygon fill="#63b8ff" stroke="#63b8ff" points="329.07,-150.54 337.77,-144.5 327.2,-143.8 329.07,-150.54"/>
</a>
</g>
</g>
<!-- Node7 -->
<g id="Node000007" class="node">
<title>Node7</title>
<g id="a_Node000007"><a xlink:href="namespacem__riemann__solvers.html#a3f244d4b1bc8e00f8c3c5b6f96aa5448" target="_top" xlink:title="The computation of parameters, the allocation of memory, the association of pointers and/or the execu...">
<polygon fill="white" stroke="#666666" points="452.5,-96 333.5,-96 333.5,-55 452.5,-55 452.5,-96"/>
<text text-anchor="start" x="341.5" y="-84" font-family="Helvetica,sans-Serif" font-size="10.00">m_riemann_solvers::</text>
<text text-anchor="start" x="341.5" y="-73" font-family="Helvetica,sans-Serif" font-size="10.00">s_initialize_riemann</text>
<text text-anchor="middle" x="393" y="-62" font-family="Helvetica,sans-Serif" font-size="10.00">_solver</text>
</a>
</g>
</g>
<!-- Node4&#45;&gt;Node7 -->
<g id="edge6_Node000004_Node000007" class="edge">
<title>Node4&#45;&gt;Node7</title>
<g id="a_edge6_Node000004_Node000007"><a xlink:title=" ">
<path fill="none" stroke="#63b8ff" d="M265.33,-162.46C270.51,-159.87 275.53,-156.9 280,-153.5 301.23,-137.37 294.8,-121.67 316,-105.5 318.65,-103.48 321.45,-101.57 324.36,-99.79"/>
<polygon fill="#63b8ff" stroke="#63b8ff" points="326.33,-102.69 333.34,-94.75 322.91,-96.59 326.33,-102.69"/>
</a>
</g>
</g>
<!-- Node8 -->
<g id="Node000008" class="node">
<title>Node8</title>
<g id="a_Node000008"><a xlink:href="namespacem__riemann__solvers.html#a2b90cc8425b57f4a7ea4dc0d839e9f75" target="_top" xlink:title="The purpose of this subroutine is to populate the buffers of the left and right Riemann states variab...">
<polygon fill="white" stroke="#666666" points="468.5,-252 317.5,-252 317.5,-211 468.5,-211 468.5,-252"/>
<text text-anchor="start" x="325.5" y="-240" font-family="Helvetica,sans-Serif" font-size="10.00">m_riemann_solvers::</text>
<text text-anchor="start" x="325.5" y="-229" font-family="Helvetica,sans-Serif" font-size="10.00">s_populate_riemann_states</text>
<text text-anchor="middle" x="393" y="-218" font-family="Helvetica,sans-Serif" font-size="10.00">_variables_buffers</text>
</a>
</g>
</g>
<!-- Node4&#45;&gt;Node8 -->
<g id="edge7_Node000004_Node000008" class="edge">
<title>Node4&#45;&gt;Node8</title>
<g id="a_edge7_Node000004_Node000008"><a xlink:title=" ">
<path fill="none" stroke="#63b8ff" d="M266.83,-192.54C282.17,-197.32 299.51,-202.72 316.3,-207.94"/>
<polygon fill="#63b8ff" stroke="#63b8ff" points="315.51,-211.36 326.1,-210.99 317.59,-204.68 315.51,-211.36"/>
</a>
</g>
</g>
<!-- Node9&#45;&gt;Node5 -->
<g id="edge11_Node000009_Node000005" class="edge">
<title>Node9&#45;&gt;Node5</title>
<g id="a_edge11_Node000009_Node000005"><a xlink:title=" ">
<path fill="none" stroke="#63b8ff" d="M272.92,-144.56C290.36,-149.38 309.84,-154.77 327.9,-159.77"/>
<polygon fill="#63b8ff" stroke="#63b8ff" points="327.2,-163.2 337.77,-162.5 329.07,-156.46 327.2,-163.2"/>
</a>
</g>
</g>
<!-- Node9&#45;&gt;Node6 -->
<g id="edge12_Node000009_Node000006" class="edge">
<title>Node9&#45;&gt;Node6</title>
<g id="a_edge12_Node000009_Node000006"><a xlink:title=" ">
<path fill="none" stroke="#63b8ff" d="M280.16,-129.5C290.27,-129.5 300.88,-129.5 311.37,-129.5"/>
<polygon fill="#63b8ff" stroke="#63b8ff" points="311.37,-133 321.37,-129.5 311.37,-126 311.37,-133"/>
</a>
</g>
</g>
<!-- Node9&#45;&gt;Node7 -->
<g id="edge13_Node000009_Node000007" class="edge">
<title>Node9&#45;&gt;Node7</title>
<g id="a_edge13_Node000009_Node000007"><a xlink:title=" ">
<path fill="none" stroke="#63b8ff" d="M266.83,-114.46C284.42,-108.98 304.65,-102.69 323.65,-96.77"/>
<polygon fill="#63b8ff" stroke="#63b8ff" points="324.94,-100.04 333.45,-93.72 322.86,-93.35 324.94,-100.04"/>
</a>
</g>
</g>
<!-- Node9&#45;&gt;Node8 -->
<g id="edge14_Node000009_Node000008" class="edge">
<title>Node9&#45;&gt;Node8</title>
<g id="a_edge14_Node000009_Node000008"><a xlink:title=" ">
<path fill="none" stroke="#63b8ff" d="M265.33,-144.54C270.51,-147.13 275.53,-150.1 280,-153.5 301.23,-169.63 294.8,-185.33 316,-201.5 317.83,-202.9 319.74,-204.24 321.7,-205.53"/>
<polygon fill="#63b8ff" stroke="#63b8ff" points="320.24,-208.73 330.62,-210.82 323.81,-202.71 320.24,-208.73"/>
</a>
</g>
</g>
<!-- Node10 -->
<g id="Node000010" class="node">
<title>Node10</title>
<g id="a_Node000010"><a xlink:href="namespacem__bubbles.html#a3b5690b07dda1b3660cb5539ec5fd920" target="_top" xlink:title="Function that computes the bubble wall pressure for Keller–Miksis bubbles.">
<polygon fill="white" stroke="#666666" points="458.5,-19 327.5,-19 327.5,0 458.5,0 458.5,-19"/>
<text text-anchor="middle" x="393" y="-7" font-family="Helvetica,sans-Serif" font-size="10.00">m_bubbles::f_cpbw_km</text>
</a>
</g>
</g>
<!-- Node9&#45;&gt;Node10 -->
<g id="edge9_Node000009_Node000010" class="edge">
<title>Node9&#45;&gt;Node10</title>
<g id="a_edge9_Node000009_Node000010"><a xlink:title=" ">
<path fill="none" stroke="#63b8ff" d="M233.34,-114.44C251.61,-96.46 284.16,-66.21 316,-45.5 329.1,-36.98 344.53,-29.29 358.05,-23.23"/>
<polygon fill="#63b8ff" stroke="#63b8ff" points="359.73,-26.31 367.5,-19.11 356.93,-19.9 359.73,-26.31"/>
</a>
</g>
</g>
<!-- Node10&#45;&gt;Node10 -->
<g id="edge10_Node000010_Node000010" class="edge">
<title>Node10&#45;&gt;Node10</title>
<g id="a_edge10_Node000010_Node000010"><a xlink:title=" ">
<path fill="none" stroke="#63b8ff" d="M366.18,-19.08C353.13,-27.73 362.07,-37 393,-37 413.78,-37 424.63,-32.82 425.56,-27.45"/>
<polygon fill="#63b8ff" stroke="#63b8ff" points="428.36,-25.35 419.82,-19.08 422.59,-29.31 428.36,-25.35"/>
</a>
</g>
</g>
</g>
</svg>
</svg>

<style type='text/css'>
<![CDATA[
[data-mouse-over-selected='false'] { opacity: 0.7; }
[data-mouse-over-selected='true']  { opacity: 1.0; }
]]>
</style>
<script type="application/ecmascript"><![CDATA[
document.addEventListener('DOMContentLoaded', (event) => {
  highlightEdges();
  highlightAdjacentNodes();
});
]]></script>
</svg>
