<?xml version="1.0" encoding="UTF-8" standalone="no"?>
<!DOCTYPE svg PUBLIC "-//W3C//DTD SVG 1.1//EN"
 "http://www.w3.org/Graphics/SVG/1.1/DTD/svg11.dtd">
<!-- Generated by graphviz version 2.43.0 (0)
 -->
<!-- Title: m_mpi_proxy::s_mpi_allreduce_min Pages: 1 -->
<svg width="552pt" height="137pt"
 viewBox="0.00 0.00 552.00 137.00" xmlns="http://www.w3.org/2000/svg" xmlns:xlink="http://www.w3.org/1999/xlink">
<g id="graph0" class="graph" transform="scale(1 1) rotate(0) translate(4 133)">
<title>m_mpi_proxy::s_mpi_allreduce_min</title>
<!-- Node1 -->
<g id="node1" class="node">
<title>Node1</title>
<g id="a_node1"><a xlink:title="The following subroutine takes the input local variable from all processors and reduces to the minimu...">
<polygon fill="#bfbfbf" stroke="black" points="426,-49.5 426,-79.5 544,-79.5 544,-49.5 426,-49.5"/>
<text text-anchor="start" x="434" y="-67.5" font-family="Helvetica,sans-Serif" font-size="10.00">m_mpi_proxy::s_mpi</text>
<text text-anchor="middle" x="485" y="-56.5" font-family="Helvetica,sans-Serif" font-size="10.00">_allreduce_min</text>
</a>
</g>
</g>
<!-- Node2 -->
<g id="node2" class="node">
<title>Node2</title>
<g id="a_node2"><a xlink:href="namespacem__derived__variables.html#a1a849dc545128f9a6de155bed61035ff" target="_top" xlink:title="This subroutine is used together with the volume fraction model and when called upon,...">
<polygon fill="none" stroke="black" points="244,-98.5 244,-128.5 390,-128.5 390,-98.5 244,-98.5"/>
<text text-anchor="start" x="252" y="-116.5" font-family="Helvetica,sans-Serif" font-size="10.00">m_derived_variables</text>
<text text-anchor="middle" x="317" y="-105.5" font-family="Helvetica,sans-Serif" font-size="10.00">::s_derive_center_of_mass</text>
</a>
</g>
</g>
<!-- Node1&#45;&gt;Node2 -->
<g id="edge1" class="edge">
<title>Node1&#45;&gt;Node2</title>
<path fill="none" stroke="midnightblue" d="M423.13,-82.47C405.35,-87.72 386.1,-93.4 368.99,-98.45"/>
<polygon fill="midnightblue" stroke="midnightblue" points="424.24,-85.79 432.84,-79.6 422.26,-79.08 424.24,-85.79"/>
</g>
<!-- Node5 -->
<g id="node5" class="node">
<title>Node5</title>
<g id="a_node5"><a xlink:href="namespacem__derived__variables.html#a976bfd341efaba6840dc23d6abc4f29e" target="_top" xlink:title="This subroutine is used together with the volume fraction model and when called upon,...">
<polygon fill="none" stroke="black" points="257.5,-49.5 257.5,-79.5 376.5,-79.5 376.5,-49.5 257.5,-49.5"/>
<text text-anchor="start" x="265.5" y="-67.5" font-family="Helvetica,sans-Serif" font-size="10.00">m_derived_variables</text>
<text text-anchor="middle" x="317" y="-56.5" font-family="Helvetica,sans-Serif" font-size="10.00">::s_derive_centerline</text>
</a>
</g>
</g>
<!-- Node1&#45;&gt;Node5 -->
<g id="edge4" class="edge">
<title>Node1&#45;&gt;Node5</title>
<path fill="none" stroke="midnightblue" d="M415.67,-64.5C402.69,-64.5 389.23,-64.5 376.59,-64.5"/>
<polygon fill="midnightblue" stroke="midnightblue" points="415.94,-68 425.94,-64.5 415.94,-61 415.94,-68"/>
</g>
<!-- Node6 -->
<g id="node6" class="node">
<title>Node6</title>
<g id="a_node6"><a xlink:href="namespacem__derived__variables.html#abdf1859a7ad678848feb69bbe89a2f95" target="_top" xlink:title="This subroutine is used together with the volume fraction model and when called upon,...">
<polygon fill="none" stroke="black" points="251.5,-0.5 251.5,-30.5 382.5,-30.5 382.5,-0.5 251.5,-0.5"/>
<text text-anchor="start" x="259.5" y="-18.5" font-family="Helvetica,sans-Serif" font-size="10.00">m_derived_variables</text>
<text text-anchor="middle" x="317" y="-7.5" font-family="Helvetica,sans-Serif" font-size="10.00">::s_derive_fluid_bounds</text>
</a>
</g>
</g>
<!-- Node1&#45;&gt;Node6 -->
<g id="edge6" class="edge">
<title>Node1&#45;&gt;Node6</title>
<path fill="none" stroke="midnightblue" d="M423.13,-46.53C405.35,-41.28 386.1,-35.6 368.99,-30.55"/>
<polygon fill="midnightblue" stroke="midnightblue" points="422.26,-49.92 432.84,-49.4 424.24,-43.21 422.26,-49.92"/>
</g>
<!-- Node3 -->
<g id="node3" class="node">
<title>Node3</title>
<g id="a_node3"><a xlink:href="namespacem__derived__variables.html#a516a9808b3446b7b45029f6451d02b3f" target="_top" xlink:title="Writes coherent body information, communication files, and probes.">
<polygon fill="none" stroke="black" points="89,-44 89,-85 208,-85 208,-44 89,-44"/>
<text text-anchor="start" x="97" y="-73" font-family="Helvetica,sans-Serif" font-size="10.00">m_derived_variables</text>
<text text-anchor="start" x="97" y="-62" font-family="Helvetica,sans-Serif" font-size="10.00">::s_compute_derived</text>
<text text-anchor="middle" x="148.5" y="-51" font-family="Helvetica,sans-Serif" font-size="10.00">_variables</text>
</a>
</g>
</g>
<!-- Node2&#45;&gt;Node3 -->
<g id="edge2" class="edge">
<title>Node2&#45;&gt;Node3</title>
<path fill="none" stroke="midnightblue" d="M254.85,-95.5C239.62,-91.02 223.33,-86.23 208.22,-81.78"/>
<polygon fill="midnightblue" stroke="midnightblue" points="254.1,-98.93 264.69,-98.4 256.08,-92.22 254.1,-98.93"/>
</g>
<!-- Node4 -->
<g id="node4" class="node">
<title>Node4</title>
<g id="a_node4"><a xlink:href="p__main_8f90.html#aeec10ee8e2940c953967da3e374e1579" target="_top" xlink:title="Quasi&#45;conservative, shock&#45; and interface&#45; capturing finite&#45;volume scheme for the multicomponent Navie...">
<polygon fill="none" stroke="black" points="0,-55 0,-74 53,-74 53,-55 0,-55"/>
<text text-anchor="middle" x="26.5" y="-62" font-family="Helvetica,sans-Serif" font-size="10.00">p_main</text>
</a>
</g>
</g>
<!-- Node3&#45;&gt;Node4 -->
<g id="edge3" class="edge">
<title>Node3&#45;&gt;Node4</title>
<path fill="none" stroke="midnightblue" d="M78.88,-64.5C69.7,-64.5 60.8,-64.5 53.05,-64.5"/>
<polygon fill="midnightblue" stroke="midnightblue" points="78.91,-68 88.91,-64.5 78.91,-61 78.91,-68"/>
</g>
<!-- Node5&#45;&gt;Node3 -->
<g id="edge5" class="edge">
<title>Node5&#45;&gt;Node3</title>
<path fill="none" stroke="midnightblue" d="M247.08,-64.5C234.17,-64.5 220.79,-64.5 208.23,-64.5"/>
<polygon fill="midnightblue" stroke="midnightblue" points="247.3,-68 257.3,-64.5 247.3,-61 247.3,-68"/>
</g>
<!-- Node6&#45;&gt;Node3 -->
<g id="edge7" class="edge">
<title>Node6&#45;&gt;Node3</title>
<path fill="none" stroke="midnightblue" d="M254.85,-33.5C239.62,-37.98 223.33,-42.77 208.22,-47.22"/>
<polygon fill="midnightblue" stroke="midnightblue" points="256.08,-36.78 264.69,-30.6 254.1,-30.07 256.08,-36.78"/>
</g>
</g>
</svg>
