<?xml version="1.0" encoding="UTF-8" standalone="no"?>
<!DOCTYPE svg PUBLIC "-//W3C//DTD SVG 1.1//EN"
 "http://www.w3.org/Graphics/SVG/1.1/DTD/svg11.dtd">
<!-- Generated by graphviz version 2.43.0 (0)
 -->
<!-- Title: m_mpi_proxy::s_mpi_abort Pages: 1 -->
<svg width="593pt" height="470pt"
 viewBox="0.00 0.00 593.00 470.48" xmlns="http://www.w3.org/2000/svg" xmlns:xlink="http://www.w3.org/1999/xlink">
<g id="graph0" class="graph" transform="scale(1 1) rotate(0) translate(4 466.48)">
<title>m_mpi_proxy::s_mpi_abort</title>
<!-- Node1 -->
<g id="node1" class="node">
<title>Node1</title>
<g id="a_node1"><a xlink:title="The subroutine terminates the MPI execution environment.">
<polygon fill="#999999" stroke="#666666" points="585,-310 467,-310 467,-280 585,-280 585,-310"/>
<text text-anchor="start" x="475" y="-298" font-family="Helvetica,sans-Serif" font-size="10.00">m_mpi_proxy::s_mpi</text>
<text text-anchor="middle" x="526" y="-287" font-family="Helvetica,sans-Serif" font-size="10.00">_abort</text>
</a>
</g>
</g>
<!-- Node2 -->
<g id="node2" class="node">
<title>Node2</title>
<g id="a_node2"><a xlink:href="namespacem__start__up.html#ab5f7e03f1da1999ee699cec4f26370e0" target="_top" xlink:title="The goal of this procedure is to verify that each of the user provided inputs is valid and that their...">
<polygon fill="white" stroke="#666666" points="224,-462 108,-462 108,-432 224,-432 224,-462"/>
<text text-anchor="start" x="116" y="-450" font-family="Helvetica,sans-Serif" font-size="10.00">m_start_up::s_check</text>
<text text-anchor="middle" x="166" y="-439" font-family="Helvetica,sans-Serif" font-size="10.00">_input_file</text>
</a>
</g>
</g>
<!-- Node1&#45;&gt;Node2 -->
<g id="edge1" class="edge">
<title>Node1&#45;&gt;Node2</title>
<path fill="none" stroke="#63b8ff" d="M515.94,-319.99C502.77,-352.27 474.99,-407.21 431,-432 367.21,-467.94 280.42,-464.92 224.06,-457.53"/>
<polygon fill="#63b8ff" stroke="#63b8ff" points="519.32,-320.97 519.71,-310.38 512.8,-318.42 519.32,-320.97"/>
</g>
<!-- Node4 -->
<g id="node4" class="node">
<title>Node4</title>
<g id="a_node4"><a xlink:href="namespacem__derived__variables.html#ab28af564606ca901d3953e6012e9a452" target="_top" xlink:title="Subroutine to compute the higher moments in an attempt to find the maximal size of the droplet.">
<polygon fill="white" stroke="#666666" points="431,-423 279,-423 279,-393 431,-393 431,-423"/>
<text text-anchor="start" x="287" y="-411" font-family="Helvetica,sans-Serif" font-size="10.00">m_derived_variables</text>
<text text-anchor="middle" x="355" y="-400" font-family="Helvetica,sans-Serif" font-size="10.00">::s_derive_higher_moments</text>
</a>
</g>
</g>
<!-- Node1&#45;&gt;Node4 -->
<g id="edge3" class="edge">
<title>Node1&#45;&gt;Node4</title>
<path fill="none" stroke="#63b8ff" d="M506.25,-317.81C488.69,-337.83 460.76,-366.41 431,-384 425.23,-387.41 418.93,-390.39 412.5,-392.99"/>
<polygon fill="#63b8ff" stroke="#63b8ff" points="509.03,-319.95 512.89,-310.08 503.72,-315.38 509.03,-319.95"/>
</g>
<!-- Node6 -->
<g id="node6" class="node">
<title>Node6</title>
<g id="a_node6"><a xlink:href="namespacem__mpi__proxy.html#a80c5e235786545276fe6ffa06965017f" target="_top" xlink:title="The purpose of this procedure is to optimally decompose the computational domain among the available ...">
<polygon fill="white" stroke="#666666" points="243,-347.5 89,-347.5 89,-306.5 243,-306.5 243,-347.5"/>
<text text-anchor="start" x="97" y="-335.5" font-family="Helvetica,sans-Serif" font-size="10.00">m_mpi_proxy::s_mpi</text>
<text text-anchor="start" x="97" y="-324.5" font-family="Helvetica,sans-Serif" font-size="10.00">_decompose_computational</text>
<text text-anchor="middle" x="166" y="-313.5" font-family="Helvetica,sans-Serif" font-size="10.00">_domain</text>
</a>
</g>
</g>
<!-- Node1&#45;&gt;Node6 -->
<g id="edge6" class="edge">
<title>Node1&#45;&gt;Node6</title>
<path fill="none" stroke="#63b8ff" d="M456.39,-301.13C395.36,-306.59 306.26,-314.55 243.08,-320.2"/>
<polygon fill="#63b8ff" stroke="#63b8ff" points="457.04,-304.59 466.68,-300.21 456.41,-297.62 457.04,-304.59"/>
</g>
<!-- Node7 -->
<g id="node7" class="node">
<title>Node7</title>
<g id="a_node7"><a xlink:href="namespacem__start__up.html#ae0571e78c0179c22d3811df31c33c321" target="_top" xlink:title="The purpose of this procedure is to first verify that an input file has been made available by the us...">
<polygon fill="white" stroke="#666666" points="410,-289 300,-289 300,-259 410,-259 410,-289"/>
<text text-anchor="start" x="308" y="-277" font-family="Helvetica,sans-Serif" font-size="10.00">m_start_up::s_read</text>
<text text-anchor="middle" x="355" y="-266" font-family="Helvetica,sans-Serif" font-size="10.00">_input_file</text>
</a>
</g>
</g>
<!-- Node1&#45;&gt;Node7 -->
<g id="edge8" class="edge">
<title>Node1&#45;&gt;Node7</title>
<path fill="none" stroke="#63b8ff" d="M456.75,-286.52C441.19,-284.59 424.87,-282.56 410,-280.71"/>
<polygon fill="#63b8ff" stroke="#63b8ff" points="456.48,-290.01 466.84,-287.77 457.35,-283.07 456.48,-290.01"/>
</g>
<!-- Node8 -->
<g id="node8" class="node">
<title>Node8</title>
<g id="a_node8"><a xlink:href="namespacem__start__up.html#a45c8fef6680263063a1c7d2fa1748013" target="_top" xlink:title=" ">
<polygon fill="white" stroke="#666666" points="410.5,-241 299.5,-241 299.5,-211 410.5,-211 410.5,-241"/>
<text text-anchor="start" x="307.5" y="-229" font-family="Helvetica,sans-Serif" font-size="10.00">m_start_up::s_read</text>
<text text-anchor="middle" x="355" y="-218" font-family="Helvetica,sans-Serif" font-size="10.00">_parallel_data_files</text>
</a>
</g>
</g>
<!-- Node1&#45;&gt;Node8 -->
<g id="edge10" class="edge">
<title>Node1&#45;&gt;Node8</title>
<path fill="none" stroke="#63b8ff" d="M487.21,-275.45C470.26,-267.07 449.87,-257.5 431,-250 423.12,-246.87 414.66,-243.85 406.36,-241.07"/>
<polygon fill="#63b8ff" stroke="#63b8ff" points="485.73,-278.63 496.24,-279.97 488.86,-272.37 485.73,-278.63"/>
</g>
<!-- Node10 -->
<g id="node10" class="node">
<title>Node10</title>
<g id="a_node10"><a xlink:href="namespacem__start__up.html#abd3c3fd9fbb80ef2ddaf82945c1c1af9" target="_top" xlink:title=" ">
<polygon fill="white" stroke="#666666" points="410,-193 300,-193 300,-163 410,-163 410,-193"/>
<text text-anchor="start" x="308" y="-181" font-family="Helvetica,sans-Serif" font-size="10.00">m_start_up::s_read</text>
<text text-anchor="middle" x="355" y="-170" font-family="Helvetica,sans-Serif" font-size="10.00">_serial_data_files</text>
</a>
</g>
</g>
<!-- Node1&#45;&gt;Node10 -->
<g id="edge14" class="edge">
<title>Node1&#45;&gt;Node10</title>
<path fill="none" stroke="#63b8ff" d="M507.28,-272.12C489.93,-251.14 461.68,-220.59 431,-202 424.57,-198.1 417.44,-194.77 410.21,-191.94"/>
<polygon fill="#63b8ff" stroke="#63b8ff" points="504.58,-274.35 513.6,-279.91 510.02,-269.94 504.58,-274.35"/>
</g>
<!-- Node11 -->
<g id="node11" class="node">
<title>Node11</title>
<g id="a_node11"><a xlink:href="namespacem__data__output.html#a29f34883bc8e9d895dbb4232493397a1" target="_top" xlink:title="This writes a formatted data file for the flow probe information.">
<polygon fill="white" stroke="#666666" points="420.5,-375 289.5,-375 289.5,-345 420.5,-345 420.5,-375"/>
<text text-anchor="start" x="297.5" y="-363" font-family="Helvetica,sans-Serif" font-size="10.00">m_data_output::s_write</text>
<text text-anchor="middle" x="355" y="-352" font-family="Helvetica,sans-Serif" font-size="10.00">_probe_files</text>
</a>
</g>
</g>
<!-- Node1&#45;&gt;Node11 -->
<g id="edge17" class="edge">
<title>Node1&#45;&gt;Node11</title>
<path fill="none" stroke="#63b8ff" d="M476.24,-313.75C450.53,-323.64 419.42,-335.61 395.28,-344.89"/>
<polygon fill="#63b8ff" stroke="#63b8ff" points="477.73,-316.93 485.8,-310.08 475.21,-310.4 477.73,-316.93"/>
</g>
<!-- Node12 -->
<g id="node12" class="node">
<title>Node12</title>
<g id="a_node12"><a xlink:href="namespacem__data__output.html#a33a72559ec5cfdedf7162a8269d41201" target="_top" xlink:title="The goal of the procedure is to output to the run&#45;time information file the stability criteria extrem...">
<polygon fill="white" stroke="#666666" points="420.5,-102 289.5,-102 289.5,-72 420.5,-72 420.5,-102"/>
<text text-anchor="start" x="297.5" y="-90" font-family="Helvetica,sans-Serif" font-size="10.00">m_data_output::s_write</text>
<text text-anchor="middle" x="355" y="-79" font-family="Helvetica,sans-Serif" font-size="10.00">_run_time_information</text>
</a>
</g>
</g>
<!-- Node1&#45;&gt;Node12 -->
<g id="edge19" class="edge">
<title>Node1&#45;&gt;Node12</title>
<path fill="none" stroke="#63b8ff" d="M511.56,-271.02C494.68,-241.87 463.89,-191.89 431,-154 413.95,-134.35 391.34,-114.88 375.42,-102.03"/>
<polygon fill="#63b8ff" stroke="#63b8ff" points="508.53,-272.77 516.54,-279.71 514.61,-269.29 508.53,-272.77"/>
</g>
<!-- Node3 -->
<g id="node3" class="node">
<title>Node3</title>
<g id="a_node3"><a xlink:href="p__main_8f90.html#aeec10ee8e2940c953967da3e374e1579" target="_top" xlink:title="Quasi&#45;conservative, shock&#45; and interface&#45; capturing finite&#45;volume scheme for the multicomponent Navie...">
<polygon fill="white" stroke="#666666" points="53,-227.5 0,-227.5 0,-208.5 53,-208.5 53,-227.5"/>
<text text-anchor="middle" x="26.5" y="-215.5" font-family="Helvetica,sans-Serif" font-size="10.00">p_main</text>
</a>
</g>
</g>
<!-- Node2&#45;&gt;Node3 -->
<g id="edge2" class="edge">
<title>Node2&#45;&gt;Node3</title>
<path fill="none" stroke="#63b8ff" d="M101.99,-426.86C97.22,-423.73 92.79,-420.13 89,-416 36.93,-359.24 28.94,-259.01 27.72,-227.66"/>
<polygon fill="#63b8ff" stroke="#63b8ff" points="100.48,-430.03 110.89,-431.99 103.98,-423.96 100.48,-430.03"/>
</g>
<!-- Node5 -->
<g id="node5" class="node">
<title>Node5</title>
<g id="a_node5"><a xlink:href="namespacem__derived__variables.html#a516a9808b3446b7b45029f6451d02b3f" target="_top" xlink:title="Writes coherent body information, communication files, and probes.">
<polygon fill="white" stroke="#666666" points="225.5,-406.5 106.5,-406.5 106.5,-365.5 225.5,-365.5 225.5,-406.5"/>
<text text-anchor="start" x="114.5" y="-394.5" font-family="Helvetica,sans-Serif" font-size="10.00">m_derived_variables</text>
<text text-anchor="start" x="114.5" y="-383.5" font-family="Helvetica,sans-Serif" font-size="10.00">::s_compute_derived</text>
<text text-anchor="middle" x="166" y="-372.5" font-family="Helvetica,sans-Serif" font-size="10.00">_variables</text>
</a>
</g>
</g>
<!-- Node4&#45;&gt;Node5 -->
<g id="edge4" class="edge">
<title>Node4&#45;&gt;Node5</title>
<path fill="none" stroke="#63b8ff" d="M268.74,-397.97C254.19,-396.26 239.37,-394.51 225.71,-392.91"/>
<polygon fill="#63b8ff" stroke="#63b8ff" points="268.41,-401.45 278.75,-399.15 269.23,-394.5 268.41,-401.45"/>
</g>
<!-- Node5&#45;&gt;Node3 -->
<g id="edge5" class="edge">
<title>Node5&#45;&gt;Node3</title>
<path fill="none" stroke="#63b8ff" d="M97.38,-363.78C94.41,-361.71 91.59,-359.46 89,-357 49.57,-319.57 33.78,-252.38 29.11,-227.55"/>
<polygon fill="#63b8ff" stroke="#63b8ff" points="95.77,-366.9 106.13,-369.13 99.42,-360.92 95.77,-366.9"/>
</g>
<!-- Node6&#45;&gt;Node3 -->
<g id="edge7" class="edge">
<title>Node6&#45;&gt;Node3</title>
<path fill="none" stroke="#63b8ff" d="M103.1,-301.42C98.16,-298.51 93.39,-295.37 89,-292 64.61,-273.29 43.51,-243.25 33.57,-227.83"/>
<polygon fill="#63b8ff" stroke="#63b8ff" points="101.68,-304.64 112.13,-306.4 105.06,-298.51 101.68,-304.64"/>
</g>
<!-- Node7&#45;&gt;Node3 -->
<g id="edge9" class="edge">
<title>Node7&#45;&gt;Node3</title>
<path fill="none" stroke="#63b8ff" d="M289.69,-267.37C235.74,-261.2 156.85,-250.72 89,-236 77.04,-233.41 64,-229.72 53.02,-226.35"/>
<polygon fill="#63b8ff" stroke="#63b8ff" points="289.47,-270.87 299.8,-268.51 290.26,-263.91 289.47,-270.87"/>
</g>
<!-- Node8&#45;&gt;Node3 -->
<g id="edge11" class="edge">
<title>Node8&#45;&gt;Node3</title>
<path fill="none" stroke="#63b8ff" d="M289.37,-225.32C235.7,-224.63 157.37,-223.31 89,-221 77.25,-220.6 64.24,-219.99 53.23,-219.43"/>
<polygon fill="#63b8ff" stroke="#63b8ff" points="289.38,-228.82 299.43,-225.45 289.47,-221.82 289.38,-228.82"/>
</g>
<!-- Node9 -->
<g id="node9" class="node">
<title>Node9</title>
<g id="a_node9"><a xlink:href="namespacem__start__up.html#a37202711d89d04cd18f08170ba608aa1" target="_top" xlink:title=" ">
<polygon fill="white" stroke="#666666" points="231,-212 101,-212 101,-182 231,-182 231,-212"/>
<text text-anchor="start" x="109" y="-200" font-family="Helvetica,sans-Serif" font-size="10.00">m_start_up::s_initialize</text>
<text text-anchor="middle" x="166" y="-189" font-family="Helvetica,sans-Serif" font-size="10.00">_start_up_module</text>
</a>
</g>
</g>
<!-- Node8&#45;&gt;Node9 -->
<g id="edge12" class="edge">
<title>Node8&#45;&gt;Node9</title>
<path fill="none" stroke="#63b8ff" d="M289.44,-215.99C270.61,-213.07 250.05,-209.88 231.23,-206.96"/>
<polygon fill="#63b8ff" stroke="#63b8ff" points="288.99,-219.46 299.41,-217.53 290.06,-212.54 288.99,-219.46"/>
</g>
<!-- Node9&#45;&gt;Node3 -->
<g id="edge13" class="edge">
<title>Node9&#45;&gt;Node3</title>
<path fill="none" stroke="#63b8ff" d="M90.45,-208.39C77.1,-210.43 64.04,-212.42 53.31,-214.06"/>
<polygon fill="#63b8ff" stroke="#63b8ff" points="91.32,-211.79 100.68,-206.82 90.26,-204.87 91.32,-211.79"/>
</g>
<!-- Node10&#45;&gt;Node3 -->
<g id="edge15" class="edge">
<title>Node10&#45;&gt;Node3</title>
<path fill="none" stroke="#63b8ff" d="M290.01,-165.25C235.23,-157.02 154.98,-151.44 89,-173 67.87,-179.9 47.99,-197.13 36.82,-208.15"/>
<polygon fill="#63b8ff" stroke="#63b8ff" points="289.51,-168.72 299.93,-166.81 290.6,-161.8 289.51,-168.72"/>
</g>
<!-- Node10&#45;&gt;Node9 -->
<g id="edge16" class="edge">
<title>Node10&#45;&gt;Node9</title>
<path fill="none" stroke="#63b8ff" d="M289.89,-184.51C270.93,-186.44 250.18,-188.55 231.22,-190.48"/>
<polygon fill="#63b8ff" stroke="#63b8ff" points="290.32,-187.99 299.91,-183.5 289.61,-181.02 290.32,-187.99"/>
</g>
<!-- Node11&#45;&gt;Node5 -->
<g id="edge18" class="edge">
<title>Node11&#45;&gt;Node5</title>
<path fill="none" stroke="#63b8ff" d="M279.05,-370.42C261.28,-372.89 242.59,-375.49 225.66,-377.84"/>
<polygon fill="#63b8ff" stroke="#63b8ff" points="279.96,-373.83 289.38,-368.98 279,-366.89 279.96,-373.83"/>
</g>
<!-- Node13 -->
<g id="node13" class="node">
<title>Node13</title>
<g id="a_node13"><a xlink:href="namespacem__time__steppers.html#a8876606e6152b6c8f35272074a088142" target="_top" xlink:title="1st order TVD RK time&#45;stepping algorithm">
<polygon fill="white" stroke="#666666" points="222.5,-126 109.5,-126 109.5,-96 222.5,-96 222.5,-126"/>
<text text-anchor="start" x="117.5" y="-114" font-family="Helvetica,sans-Serif" font-size="10.00">m_time_steppers::s</text>
<text text-anchor="middle" x="166" y="-103" font-family="Helvetica,sans-Serif" font-size="10.00">_1st_order_tvd_rk</text>
</a>
</g>
</g>
<!-- Node12&#45;&gt;Node13 -->
<g id="edge20" class="edge">
<title>Node12&#45;&gt;Node13</title>
<path fill="none" stroke="#63b8ff" d="M279.3,-96.59C260.38,-99.02 240.38,-101.58 222.59,-103.87"/>
<polygon fill="#63b8ff" stroke="#63b8ff" points="279.91,-100.04 289.38,-95.29 279.02,-93.09 279.91,-100.04"/>
</g>
<!-- Node14 -->
<g id="node14" class="node">
<title>Node14</title>
<g id="a_node14"><a xlink:href="namespacem__time__steppers.html#adb82b6c6041c825d0999e6890ed825cc" target="_top" xlink:title="2nd order TVD RK time&#45;stepping algorithm">
<polygon fill="white" stroke="#666666" points="222.5,-78 109.5,-78 109.5,-48 222.5,-48 222.5,-78"/>
<text text-anchor="start" x="117.5" y="-66" font-family="Helvetica,sans-Serif" font-size="10.00">m_time_steppers::s</text>
<text text-anchor="middle" x="166" y="-55" font-family="Helvetica,sans-Serif" font-size="10.00">_2nd_order_tvd_rk</text>
</a>
</g>
</g>
<!-- Node12&#45;&gt;Node14 -->
<g id="edge22" class="edge">
<title>Node12&#45;&gt;Node14</title>
<path fill="none" stroke="#63b8ff" d="M279.3,-77.41C260.38,-74.98 240.38,-72.42 222.59,-70.13"/>
<polygon fill="#63b8ff" stroke="#63b8ff" points="279.02,-80.91 289.38,-78.71 279.91,-73.96 279.02,-80.91"/>
</g>
<!-- Node15 -->
<g id="node15" class="node">
<title>Node15</title>
<g id="a_node15"><a xlink:href="namespacem__time__steppers.html#ae08efa7df1f8efae0f726dd5114176a8" target="_top" xlink:title="3rd order TVD RK time&#45;stepping algorithm">
<polygon fill="white" stroke="#666666" points="222.5,-30 109.5,-30 109.5,0 222.5,0 222.5,-30"/>
<text text-anchor="start" x="117.5" y="-18" font-family="Helvetica,sans-Serif" font-size="10.00">m_time_steppers::s</text>
<text text-anchor="middle" x="166" y="-7" font-family="Helvetica,sans-Serif" font-size="10.00">_3rd_order_tvd_rk</text>
</a>
</g>
</g>
<!-- Node12&#45;&gt;Node15 -->
<g id="edge24" class="edge">
<title>Node12&#45;&gt;Node15</title>
<path fill="none" stroke="#63b8ff" d="M311.93,-67.6C291.35,-58.42 266.1,-47.61 243,-39 234.7,-35.91 225.8,-32.86 217.12,-30.03"/>
<polygon fill="#63b8ff" stroke="#63b8ff" points="310.78,-70.92 321.33,-71.82 313.64,-64.53 310.78,-70.92"/>
</g>
<!-- Node13&#45;&gt;Node3 -->
<g id="edge21" class="edge">
<title>Node13&#45;&gt;Node3</title>
<path fill="none" stroke="#63b8ff" d="M104.59,-130.49C99.11,-133.3 93.81,-136.46 89,-140 62.88,-159.2 41.95,-192.27 32.68,-208.48"/>
<polygon fill="#63b8ff" stroke="#63b8ff" points="106.4,-133.51 113.96,-126.09 103.42,-127.18 106.4,-133.51"/>
</g>
<!-- Node14&#45;&gt;Node3 -->
<g id="edge23" class="edge">
<title>Node14&#45;&gt;Node3</title>
<path fill="none" stroke="#63b8ff" d="M100.27,-79.07C96.24,-81.37 92.43,-84 89,-87 50.43,-120.75 34.28,-183.9 29.31,-208.16"/>
<polygon fill="#63b8ff" stroke="#63b8ff" points="101.98,-82.13 109.38,-74.55 98.87,-75.86 101.98,-82.13"/>
</g>
<!-- Node15&#45;&gt;Node3 -->
<g id="edge25" class="edge">
<title>Node15&#45;&gt;Node3</title>
<path fill="none" stroke="#63b8ff" d="M100.1,-30.53C96.08,-32.96 92.32,-35.76 89,-39 39.13,-87.64 29.68,-178.48 27.91,-208.26"/>
<polygon fill="#63b8ff" stroke="#63b8ff" points="101.97,-33.51 109.25,-25.81 98.76,-27.29 101.97,-33.51"/>
</g>
</g>
</svg>
