<?xml version="1.0" encoding="UTF-8" standalone="no"?>
<!DOCTYPE svg PUBLIC "-//W3C//DTD SVG 1.1//EN"
 "http://www.w3.org/Graphics/SVG/1.1/DTD/svg11.dtd">
<!-- Generated by graphviz version 2.43.0 (0)
 -->
<!-- Title: m_riemann_solvers::s_initialize_riemann_solvers_module Pages: 1 -->
<!--zoomable 453 -->
<svg id="main" version="1.1" xmlns="http://www.w3.org/2000/svg" xmlns:xlink="http://www.w3.org/1999/xlink" xml:space="preserve" onload="init(evt)">
<style type="text/css"><![CDATA[
.edge:hover path { stroke: red; }
.edge:hover polygon { stroke: red; fill: red; }
]]></style>
<script type="text/javascript"><![CDATA[
var edges = document.getElementsByTagName('g');
if (edges && edges.length) {
  for (var i=0;i<edges.length;i++) {
    if (edges[i].id.substr(0,4)=='edge') {
      edges[i].setAttribute('class','edge');
    }
  }
}
]]></script>
        <defs>
                <circle id="rim" cx="0" cy="0" r="7"/>
                <circle id="rim2" cx="0" cy="0" r="3.5"/>
                <g id="zoomPlus">
                        <use xlink:href="#rim" fill="#404040">
                                <set attributeName="fill" to="#808080" begin="zoomplus.mouseover" end="zoomplus.mouseout"/>
                        </use>
                        <path d="M-4,0h8M0,-4v8" fill="none" stroke="white" stroke-width="1.5" pointer-events="none"/>
                </g>
                <g id="zoomMin">
                        <use xlink:href="#rim" fill="#404040">
                                <set attributeName="fill" to="#808080" begin="zoomminus.mouseover" end="zoomminus.mouseout"/>
                        </use>
                        <path d="M-4,0h8" fill="none" stroke="white" stroke-width="1.5" pointer-events="none"/>
                </g>
                <g id="dirArrow">
                        <path fill="none" stroke="white" stroke-width="1.5" d="M0,-3.0v7 M-2.5,-0.5L0,-3.0L2.5,-0.5"/>
                </g>
               <g id="resetDef">
                       <use xlink:href="#rim2" fill="#404040">
                               <set attributeName="fill" to="#808080" begin="reset.mouseover" end="reset.mouseout"/>
                       </use>
               </g>
        </defs>

<script type="text/javascript">
var viewWidth = 504;
var viewHeight = 453;
var sectionId = 'dynsection-9';
</script>
<script xlink:href="svgpan.js"/>
<svg id="graph" class="graph">
<g id="viewport">
<title>m_riemann_solvers::s_initialize_riemann_solvers_module</title>
<!-- Node1 -->
<g id="node1" class="node">
<title>Node1</title>
<g id="a_node1"><a xlink:title="The computation of parameters, the allocation of memory, the association of pointers and/or the execu...">
<polygon fill="#999999" stroke="#666666" points="119,-268 0,-268 0,-227 119,-227 119,-268"/>
<text text-anchor="start" x="8" y="-256" font-family="Helvetica,sans-Serif" font-size="10.00">m_riemann_solvers::</text>
<text text-anchor="start" x="8" y="-245" font-family="Helvetica,sans-Serif" font-size="10.00">s_initialize_riemann</text>
<text text-anchor="middle" x="59.5" y="-234" font-family="Helvetica,sans-Serif" font-size="10.00">_solvers_module</text>
</a>
</g>
</g>
<!-- Node2 -->
<g id="node2" class="node">
<title>Node2</title>
<g id="a_node2"><a xlink:href="namespacem__riemann__solvers.html#a67523a29805d4128431484ca49de1068" target="_top" xlink:title="The goal of this subroutine is to evaluate and account for the contribution of viscous stresses in th...">
<polygon fill="white" stroke="#666666" points="292,-445 172,-445 172,-404 292,-404 292,-445"/>
<text text-anchor="start" x="180" y="-433" font-family="Helvetica,sans-Serif" font-size="10.00">m_riemann_solvers::</text>
<text text-anchor="start" x="180" y="-422" font-family="Helvetica,sans-Serif" font-size="10.00">s_compute_cartesian</text>
<text text-anchor="middle" x="232" y="-411" font-family="Helvetica,sans-Serif" font-size="10.00">_viscous_source_flux</text>
</a>
</g>
</g>
<!-- Node1&#45;&gt;Node2 -->
<g id="edge1" class="edge">
<title>Node1&#45;&gt;Node2</title>
<path fill="none" stroke="#63b8ff" d="M68.62,-268.15C82.04,-299.78 111.74,-360.27 155,-395.5 157.44,-397.49 160.03,-399.35 162.73,-401.09"/>
<polygon fill="#63b8ff" stroke="#63b8ff" points="161.24,-404.27 171.65,-406.25 164.75,-398.22 161.24,-404.27"/>
</g>
<!-- Node3 -->
<g id="node3" class="node">
<title>Node3</title>
<g id="a_node3"><a xlink:href="namespacem__riemann__solvers.html#a225f72f7e466dad77766ea2fe27a7a05" target="_top" xlink:title="The goal of this subroutine is to evaluate and account for the contribution of viscous stresses in th...">
<polygon fill="white" stroke="#666666" points="294.5,-386 169.5,-386 169.5,-345 294.5,-345 294.5,-386"/>
<text text-anchor="start" x="177.5" y="-374" font-family="Helvetica,sans-Serif" font-size="10.00">m_riemann_solvers::</text>
<text text-anchor="start" x="177.5" y="-363" font-family="Helvetica,sans-Serif" font-size="10.00">s_compute_cylindrical</text>
<text text-anchor="middle" x="232" y="-352" font-family="Helvetica,sans-Serif" font-size="10.00">_viscous_source_flux</text>
</a>
</g>
</g>
<!-- Node1&#45;&gt;Node3 -->
<g id="edge2" class="edge">
<title>Node1&#45;&gt;Node3</title>
<path fill="none" stroke="#63b8ff" d="M78.18,-268.33C95.9,-288.12 124.83,-317.59 155,-336.5 156.94,-337.72 158.95,-338.9 161,-340.04"/>
<polygon fill="#63b8ff" stroke="#63b8ff" points="159.72,-343.32 170.21,-344.81 162.94,-337.11 159.72,-343.32"/>
</g>
<!-- Node4 -->
<g id="node4" class="node">
<title>Node4</title>
<g id="a_node4"><a xlink:href="namespacem__variables__conversion.html#a8b38265e762610c48cd08e6c2a833b38" target="_top" xlink:title="This subroutine is designed for the gamma/pi_inf model and provided a set of either conservative or p...">
<polygon fill="white" stroke="#666666" points="299.5,-327 164.5,-327 164.5,-286 299.5,-286 299.5,-327"/>
<text text-anchor="start" x="172.5" y="-315" font-family="Helvetica,sans-Serif" font-size="10.00">m_variables_conversion</text>
<text text-anchor="start" x="172.5" y="-304" font-family="Helvetica,sans-Serif" font-size="10.00">::s_convert_mixture_to</text>
<text text-anchor="middle" x="232" y="-293" font-family="Helvetica,sans-Serif" font-size="10.00">_mixture_variables</text>
</a>
</g>
</g>
<!-- Node1&#45;&gt;Node4 -->
<g id="edge3" class="edge">
<title>Node1&#45;&gt;Node4</title>
<path fill="none" stroke="#63b8ff" d="M119.18,-267.8C132.95,-272.57 147.75,-277.69 161.94,-282.6"/>
<polygon fill="#63b8ff" stroke="#63b8ff" points="161.04,-286 171.64,-285.96 163.33,-279.38 161.04,-286"/>
</g>
<!-- Node5 -->
<g id="node5" class="node">
<title>Node5</title>
<g id="a_node5"><a xlink:href="namespacem__variables__conversion.html#a95ca46151b4f53187280645d71755bfa" target="_top" xlink:title="This subroutine is designed for the volume fraction model and provided a set of either conservative o...">
<polygon fill="white" stroke="#666666" points="299.5,-268 164.5,-268 164.5,-227 299.5,-227 299.5,-268"/>
<text text-anchor="start" x="172.5" y="-256" font-family="Helvetica,sans-Serif" font-size="10.00">m_variables_conversion</text>
<text text-anchor="start" x="172.5" y="-245" font-family="Helvetica,sans-Serif" font-size="10.00">::s_convert_species_to</text>
<text text-anchor="middle" x="232" y="-234" font-family="Helvetica,sans-Serif" font-size="10.00">_mixture_variables</text>
</a>
</g>
</g>
<!-- Node1&#45;&gt;Node5 -->
<g id="edge4" class="edge">
<title>Node1&#45;&gt;Node5</title>
<path fill="none" stroke="#63b8ff" d="M119.18,-247.5C130.43,-247.5 142.36,-247.5 154.09,-247.5"/>
<polygon fill="#63b8ff" stroke="#63b8ff" points="154.31,-251 164.31,-247.5 154.31,-244 154.31,-251"/>
</g>
<!-- Node6 -->
<g id="node6" class="node">
<title>Node6</title>
<g id="a_node6"><a xlink:href="namespacem__variables__conversion.html#ab3775ce10728f71d6da205e34cf50b77" target="_top" xlink:title="This procedure is used alongside with the gamma/pi_inf model to transfer the density,...">
<polygon fill="white" stroke="#666666" points="309,-209 155,-209 155,-168 309,-168 309,-209"/>
<text text-anchor="start" x="163" y="-197" font-family="Helvetica,sans-Serif" font-size="10.00">m_variables_conversion</text>
<text text-anchor="start" x="163" y="-186" font-family="Helvetica,sans-Serif" font-size="10.00">::s_convert_species_to</text>
<text text-anchor="middle" x="232" y="-175" font-family="Helvetica,sans-Serif" font-size="10.00">_mixture_variables_bubbles</text>
</a>
</g>
</g>
<!-- Node1&#45;&gt;Node6 -->
<g id="edge5" class="edge">
<title>Node1&#45;&gt;Node6</title>
<path fill="none" stroke="#63b8ff" d="M119.18,-227.2C132.95,-222.43 147.75,-217.31 161.94,-212.4"/>
<polygon fill="#63b8ff" stroke="#63b8ff" points="163.33,-215.62 171.64,-209.04 161.04,-209 163.33,-215.62"/>
</g>
<!-- Node7 -->
<g id="node7" class="node">
<title>Node7</title>
<g id="a_node7"><a xlink:href="namespacem__riemann__solvers.html#a1b018ebed82e499a0589925651bba7a7" target="_top" xlink:title=" ">
<polygon fill="white" stroke="#666666" points="292,-149.5 172,-149.5 172,-119.5 292,-119.5 292,-149.5"/>
<text text-anchor="start" x="180" y="-137.5" font-family="Helvetica,sans-Serif" font-size="10.00">m_riemann_solvers::</text>
<text text-anchor="middle" x="232" y="-126.5" font-family="Helvetica,sans-Serif" font-size="10.00">s_hll_riemann_solver</text>
</a>
</g>
</g>
<!-- Node1&#45;&gt;Node7 -->
<g id="edge6" class="edge">
<title>Node1&#45;&gt;Node7</title>
<path fill="none" stroke="#63b8ff" d="M77.7,-226.98C95.29,-207.19 124.31,-177.64 155,-159.5 158.63,-157.35 162.47,-155.36 166.42,-153.53"/>
<polygon fill="#63b8ff" stroke="#63b8ff" points="167.97,-156.67 175.78,-149.5 165.21,-150.24 167.97,-156.67"/>
</g>
<!-- Node11 -->
<g id="node11" class="node">
<title>Node11</title>
<g id="a_node11"><a xlink:href="namespacem__riemann__solvers.html#a6c9d70572e9b98586bab20b028557a5a" target="_top" xlink:title="This procedure is the implementation of the Harten, Lax, van Leer, and contact (HLLC) approximate Rie...">
<polygon fill="white" stroke="#666666" points="294.5,-101.5 169.5,-101.5 169.5,-71.5 294.5,-71.5 294.5,-101.5"/>
<text text-anchor="start" x="177.5" y="-89.5" font-family="Helvetica,sans-Serif" font-size="10.00">m_riemann_solvers::</text>
<text text-anchor="middle" x="232" y="-78.5" font-family="Helvetica,sans-Serif" font-size="10.00">s_hllc_riemann_solver</text>
</a>
</g>
</g>
<!-- Node1&#45;&gt;Node11 -->
<g id="edge10" class="edge">
<title>Node1&#45;&gt;Node11</title>
<path fill="none" stroke="#63b8ff" d="M69.48,-226.62C83.45,-196.58 113.17,-141.41 155,-110.5 157.04,-108.99 159.19,-107.57 161.4,-106.24"/>
<polygon fill="#63b8ff" stroke="#63b8ff" points="163.08,-109.32 170.26,-101.53 159.79,-103.13 163.08,-109.32"/>
</g>
<!-- Node8 -->
<g id="node8" class="node">
<title>Node8</title>
<g id="a_node8"><a xlink:href="namespacem__riemann__solvers.html#ab679d890c95c6cb1ee3dc5e5a9ae1c19" target="_top" xlink:title="Deallocation and/or disassociation procedures that are needed to finalize the selected Riemann proble...">
<polygon fill="white" stroke="#666666" points="492,-203.5 349,-203.5 349,-173.5 492,-173.5 492,-203.5"/>
<text text-anchor="start" x="357" y="-191.5" font-family="Helvetica,sans-Serif" font-size="10.00">m_riemann_solvers::</text>
<text text-anchor="middle" x="420.5" y="-180.5" font-family="Helvetica,sans-Serif" font-size="10.00">s_finalize_riemann_solver</text>
</a>
</g>
</g>
<!-- Node7&#45;&gt;Node8 -->
<g id="edge7" class="edge">
<title>Node7&#45;&gt;Node8</title>
<path fill="none" stroke="#63b8ff" d="M284.95,-149.54C307.49,-156.07 334.06,-163.76 357.62,-170.58"/>
<polygon fill="#63b8ff" stroke="#63b8ff" points="356.93,-174.03 367.5,-173.45 358.87,-167.3 356.93,-174.03"/>
</g>
<!-- Node9 -->
<g id="node9" class="node">
<title>Node9</title>
<g id="a_node9"><a xlink:href="namespacem__riemann__solvers.html#a3f244d4b1bc8e00f8c3c5b6f96aa5448" target="_top" xlink:title="The computation of parameters, the allocation of memory, the association of pointers and/or the execu...">
<polygon fill="white" stroke="#666666" points="480,-155 361,-155 361,-114 480,-114 480,-155"/>
<text text-anchor="start" x="369" y="-143" font-family="Helvetica,sans-Serif" font-size="10.00">m_riemann_solvers::</text>
<text text-anchor="start" x="369" y="-132" font-family="Helvetica,sans-Serif" font-size="10.00">s_initialize_riemann</text>
<text text-anchor="middle" x="420.5" y="-121" font-family="Helvetica,sans-Serif" font-size="10.00">_solver</text>
</a>
</g>
</g>
<!-- Node7&#45;&gt;Node9 -->
<g id="edge8" class="edge">
<title>Node7&#45;&gt;Node9</title>
<path fill="none" stroke="#63b8ff" d="M292.01,-134.5C310.64,-134.5 331.4,-134.5 350.66,-134.5"/>
<polygon fill="#63b8ff" stroke="#63b8ff" points="350.87,-138 360.87,-134.5 350.87,-131 350.87,-138"/>
</g>
<!-- Node10 -->
<g id="node10" class="node">
<title>Node10</title>
<g id="a_node10"><a xlink:href="namespacem__riemann__solvers.html#a2b90cc8425b57f4a7ea4dc0d839e9f75" target="_top" xlink:title="The purpose of this subroutine is to populate the buffers of the left and right Riemann states variab...">
<polygon fill="white" stroke="#666666" points="496,-96 345,-96 345,-55 496,-55 496,-96"/>
<text text-anchor="start" x="353" y="-84" font-family="Helvetica,sans-Serif" font-size="10.00">m_riemann_solvers::</text>
<text text-anchor="start" x="353" y="-73" font-family="Helvetica,sans-Serif" font-size="10.00">s_populate_riemann_states</text>
<text text-anchor="middle" x="420.5" y="-62" font-family="Helvetica,sans-Serif" font-size="10.00">_variables_buffers</text>
</a>
</g>
</g>
<!-- Node7&#45;&gt;Node10 -->
<g id="edge9" class="edge">
<title>Node7&#45;&gt;Node10</title>
<path fill="none" stroke="#63b8ff" d="M280.84,-119.4C290.18,-116.45 299.9,-113.38 309,-110.5 320.66,-106.81 333.01,-102.9 345.06,-99.09"/>
<polygon fill="#63b8ff" stroke="#63b8ff" points="346.17,-102.41 354.65,-96.05 344.06,-95.73 346.17,-102.41"/>
</g>
<!-- Node11&#45;&gt;Node8 -->
<g id="edge13" class="edge">
<title>Node11&#45;&gt;Node8</title>
<path fill="none" stroke="#63b8ff" d="M294.18,-101.64C299.43,-104.16 304.46,-107.09 309,-110.5 332.06,-127.83 321.99,-147.11 345,-164.5 346.85,-165.9 348.78,-167.22 350.78,-168.46"/>
<polygon fill="#63b8ff" stroke="#63b8ff" points="349.45,-171.72 359.9,-173.44 352.8,-165.58 349.45,-171.72"/>
</g>
<!-- Node11&#45;&gt;Node9 -->
<g id="edge14" class="edge">
<title>Node11&#45;&gt;Node9</title>
<path fill="none" stroke="#63b8ff" d="M291.5,-101.56C310.41,-106.42 331.56,-111.87 351.12,-116.9"/>
<polygon fill="#63b8ff" stroke="#63b8ff" points="350.33,-120.31 360.89,-119.42 352.08,-113.53 350.33,-120.31"/>
</g>
<!-- Node11&#45;&gt;Node10 -->
<g id="edge15" class="edge">
<title>Node11&#45;&gt;Node10</title>
<path fill="none" stroke="#63b8ff" d="M294.58,-82.87C307.44,-82.11 321.2,-81.3 334.72,-80.5"/>
<polygon fill="#63b8ff" stroke="#63b8ff" points="335.22,-83.98 344.99,-79.89 334.81,-76.99 335.22,-83.98"/>
</g>
<!-- Node12 -->
<g id="node12" class="node">
<title>Node12</title>
<g id="a_node12"><a xlink:href="namespacem__bubbles.html#a3b5690b07dda1b3660cb5539ec5fd920" target="_top" xlink:title="Function that computes the bubble wall pressure for Keller–Miksis bubbles.">
<polygon fill="white" stroke="#666666" points="486,-19 355,-19 355,0 486,0 486,-19"/>
<text text-anchor="middle" x="420.5" y="-7" font-family="Helvetica,sans-Serif" font-size="10.00">m_bubbles::f_cpbw_km</text>
</a>
</g>
</g>
<!-- Node11&#45;&gt;Node12 -->
<g id="edge11" class="edge">
<title>Node11&#45;&gt;Node12</title>
<path fill="none" stroke="#63b8ff" d="M269.4,-71.47C303.51,-57.39 354.01,-36.54 386.85,-22.98"/>
<polygon fill="#63b8ff" stroke="#63b8ff" points="388.52,-26.08 396.43,-19.02 385.85,-19.61 388.52,-26.08"/>
</g>
<!-- Node12&#45;&gt;Node12 -->
<g id="edge12" class="edge">
<title>Node12&#45;&gt;Node12</title>
<path fill="none" stroke="#63b8ff" d="M391.52,-19.08C377.43,-27.73 387.09,-37 420.5,-37 443.47,-37 455.22,-32.62 455.73,-27.07"/>
<polygon fill="#63b8ff" stroke="#63b8ff" points="458.4,-24.8 449.48,-19.08 452.89,-29.11 458.4,-24.8"/>
</g>
</g>
</svg>
        <g id="navigator" transform="translate(0 0)" fill="#404254">
                <rect fill="#f2f5e9" fill-opacity="0.5" stroke="#606060" stroke-width=".5" x="0" y="0" width="60" height="60"/>
                <use id="zoomplus" xlink:href="#zoomPlus" x="17" y="9" onmousedown="handleZoom(evt,'in')"/>
                <use id="zoomminus" xlink:href="#zoomMin" x="42" y="9" onmousedown="handleZoom(evt,'out')"/>
                <use id="reset" xlink:href="#resetDef" x="30" y="36" onmousedown="handleReset()"/>
                <g id="arrowUp" xlink:href="#dirArrow" transform="translate(30 24)" onmousedown="handlePan(0,-1)">
                  <use xlink:href="#rim" fill="#404040">
                        <set attributeName="fill" to="#808080" begin="arrowUp.mouseover" end="arrowUp.mouseout"/>
                  </use>
                  <path fill="none" stroke="white" stroke-width="1.5" d="M0,-3.0v7 M-2.5,-0.5L0,-3.0L2.5,-0.5"/>
                </g>
                <g id="arrowRight" xlink:href="#dirArrow" transform="rotate(90) translate(36 -43)" onmousedown="handlePan(1,0)">
                  <use xlink:href="#rim" fill="#404040">
                        <set attributeName="fill" to="#808080" begin="arrowRight.mouseover" end="arrowRight.mouseout"/>
                  </use>
                  <path fill="none" stroke="white" stroke-width="1.5" d="M0,-3.0v7 M-2.5,-0.5L0,-3.0L2.5,-0.5"/>
                </g>
                <g id="arrowDown" xlink:href="#dirArrow" transform="rotate(180) translate(-30 -48)" onmousedown="handlePan(0,1)">
                  <use xlink:href="#rim" fill="#404040">
                        <set attributeName="fill" to="#808080" begin="arrowDown.mouseover" end="arrowDown.mouseout"/>
                  </use>
                  <path fill="none" stroke="white" stroke-width="1.5" d="M0,-3.0v7 M-2.5,-0.5L0,-3.0L2.5,-0.5"/>
                </g>
                <g id="arrowLeft" xlink:href="#dirArrow" transform="rotate(270) translate(-36 17)" onmousedown="handlePan(-1,0)">
                  <use xlink:href="#rim" fill="#404040">
                        <set attributeName="fill" to="#808080" begin="arrowLeft.mouseover" end="arrowLeft.mouseout"/>
                  </use>
                  <path fill="none" stroke="white" stroke-width="1.5" d="M0,-3.0v7 M-2.5,-0.5L0,-3.0L2.5,-0.5"/>
                </g>
        </g>
        <svg viewBox="0 0 15 15" width="100%" height="30px" preserveAspectRatio="xMaxYMin meet">
         <g id="arrow_out" transform="scale(0.3 0.3)">
          <a xlink:href="namespacem__riemann__solvers_aab7e6bf69b7d0b8b9d911f418b872130_cgraph_org.svg" target="_base">
           <rect id="button" ry="5" rx="5" y="6" x="6" height="38" width="38"
                fill="#f2f5e9" fill-opacity="0.5" stroke="#606060" stroke-width="1.0"/>
           <path id="arrow"
             d="M 11.500037,31.436501 C 11.940474,20.09759 22.043105,11.32322 32.158766,21.979434 L 37.068811,17.246167 C 37.068811,17.246167 37.088388,32 37.088388,32 L 22.160133,31.978069 C 22.160133,31.978069 26.997745,27.140456 26.997745,27.140456 C 18.528582,18.264221 13.291696,25.230495 11.500037,31.436501 z"
             style="fill:#404040;"/>
          </a>
         </g>
        </svg>
</svg>
