<?xml version="1.0" encoding="UTF-8" standalone="no"?>
<!DOCTYPE svg PUBLIC "-//W3C//DTD SVG 1.1//EN"
 "http://www.w3.org/Graphics/SVG/1.1/DTD/svg11.dtd">
<!-- Generated by graphviz version 2.43.0 (0)
 -->
<!-- Title: m_bubbles::f_bpres_dot Pages: 1 -->
<svg width="306pt" height="51pt"
 viewBox="0.00 0.00 306.00 50.50" xmlns="http://www.w3.org/2000/svg" xmlns:xlink="http://www.w3.org/1999/xlink">
<g id="graph0" class="graph" transform="scale(1 1) rotate(0) translate(4 46.5)">
<title>m_bubbles::f_bpres_dot</title>
<!-- Node1 -->
<g id="Node000001" class="node">
<title>Node1</title>
<g id="a_Node000001"><a xlink:title="Function that computes the time derivative of the internal bubble pressure.">
<polygon fill="#999999" stroke="#666666" points="298,-24.5 165,-24.5 165,-5.5 298,-5.5 298,-24.5"/>
<text text-anchor="middle" x="231.5" y="-12.5" font-family="Helvetica,sans-Serif" font-size="10.00">m_bubbles::f_bpres_dot</text>
</a>
</g>
</g>
<!-- Node1&#45;&gt;Node1 -->
<g id="edge1_Node000001_Node000001" class="edge">
<title>Node1&#45;&gt;Node1</title>
<g id="a_edge1_Node000001_Node000001"><a xlink:title=" ">
<path fill="none" stroke="#63b8ff" d="M262.49,-33.32C261.19,-38.51 250.86,-42.5 231.5,-42.5 202,-42.5 193.47,-33.23 205.91,-24.58"/>
<polygon fill="#63b8ff" stroke="#63b8ff" points="265.32,-31.25 257.09,-24.58 259.37,-34.93 265.32,-31.25"/>
</a>
</g>
</g>
<!-- Node2 -->
<g id="Node000002" class="node">
<title>Node2</title>
<g id="a_Node000002"><a xlink:href="namespacem__bubbles.html#af8d5471266acbaf1013d691290362308" target="_top" xlink:title=" ">
<polygon fill="white" stroke="#666666" points="129,-30 0,-30 0,0 129,0 129,-30"/>
<text text-anchor="start" x="8" y="-18" font-family="Helvetica,sans-Serif" font-size="10.00">m_bubbles::s_compute</text>
<text text-anchor="middle" x="64.5" y="-7" font-family="Helvetica,sans-Serif" font-size="10.00">_bubble_source</text>
</a>
</g>
</g>
<!-- Node1&#45;&gt;Node2 -->
<g id="edge2_Node000001_Node000002" class="edge">
<title>Node1&#45;&gt;Node2</title>
<g id="a_edge2_Node000001_Node000002"><a xlink:title=" ">
<path fill="none" stroke="#63b8ff" d="M154.79,-15C146.19,-15 137.5,-15 129.08,-15"/>
<polygon fill="#63b8ff" stroke="#63b8ff" points="154.81,-18.5 164.81,-15 154.81,-11.5 154.81,-18.5"/>
</a>
</g>
</g>
</g>
</svg>
