<?xml version="1.0" encoding="UTF-8" standalone="no"?>
<!DOCTYPE svg PUBLIC "-//W3C//DTD SVG 1.1//EN"
 "http://www.w3.org/Graphics/SVG/1.1/DTD/svg11.dtd">
<!-- Generated by graphviz version 2.43.0 (0)
 -->
<!-- Title: m_data_output::s_write_run_time_information Pages: 1 -->
<svg width="351pt" height="264pt"
 viewBox="0.00 0.00 351.00 264.00" xmlns="http://www.w3.org/2000/svg" xmlns:xlink="http://www.w3.org/1999/xlink">
<g id="graph0" class="graph" transform="scale(1 1) rotate(0) translate(4 260)">
<title>m_data_output::s_write_run_time_information</title>
<!-- Node1 -->
<g id="node1" class="node">
<title>Node1</title>
<g id="a_node1"><a xlink:title="The goal of the procedure is to output to the run&#45;time information file the stability criteria extrem...">
<polygon fill="#999999" stroke="#666666" points="131,-137.5 0,-137.5 0,-107.5 131,-107.5 131,-137.5"/>
<text text-anchor="start" x="8" y="-125.5" font-family="Helvetica,sans-Serif" font-size="10.00">m_data_output::s_write</text>
<text text-anchor="middle" x="65.5" y="-114.5" font-family="Helvetica,sans-Serif" font-size="10.00">_run_time_information</text>
</a>
</g>
</g>
<!-- Node2 -->
<g id="node2" class="node">
<title>Node2</title>
<g id="a_node2"><a xlink:href="namespacem__variables__conversion.html#a0e52444cc72f2fd0ea3a6d3543cfa32e" target="_top" xlink:title=" ">
<polygon fill="white" stroke="#666666" points="322.5,-256 187.5,-256 187.5,-215 322.5,-215 322.5,-256"/>
<text text-anchor="start" x="195.5" y="-244" font-family="Helvetica,sans-Serif" font-size="10.00">m_variables_conversion</text>
<text text-anchor="start" x="195.5" y="-233" font-family="Helvetica,sans-Serif" font-size="10.00">::s_convert_species_to</text>
<text text-anchor="middle" x="255" y="-222" font-family="Helvetica,sans-Serif" font-size="10.00">_mixture_variables_acc</text>
</a>
</g>
</g>
<!-- Node1&#45;&gt;Node2 -->
<g id="edge1" class="edge">
<title>Node1&#45;&gt;Node2</title>
<path fill="none" stroke="#63b8ff" d="M80.83,-137.54C99.22,-156.07 132.85,-187.44 167,-206.5 170.5,-208.45 174.15,-210.3 177.89,-212.05"/>
<polygon fill="#63b8ff" stroke="#63b8ff" points="176.76,-215.37 187.33,-216.18 179.57,-208.96 176.76,-215.37"/>
</g>
<!-- Node3 -->
<g id="node3" class="node">
<title>Node3</title>
<g id="a_node3"><a xlink:href="namespacem__variables__conversion.html#a915eb0e3917fc09375124cf3df2c6df6" target="_top" xlink:title=" ">
<polygon fill="white" stroke="#666666" points="343,-197 167,-197 167,-156 343,-156 343,-197"/>
<text text-anchor="start" x="175" y="-185" font-family="Helvetica,sans-Serif" font-size="10.00">m_variables_conversion</text>
<text text-anchor="start" x="175" y="-174" font-family="Helvetica,sans-Serif" font-size="10.00">::s_convert_species_to</text>
<text text-anchor="middle" x="255" y="-163" font-family="Helvetica,sans-Serif" font-size="10.00">_mixture_variables_bubbles_acc</text>
</a>
</g>
</g>
<!-- Node1&#45;&gt;Node3 -->
<g id="edge2" class="edge">
<title>Node1&#45;&gt;Node3</title>
<path fill="none" stroke="#63b8ff" d="M118.73,-137.54C135.54,-142.38 154.58,-147.87 172.96,-153.16"/>
<polygon fill="#63b8ff" stroke="#63b8ff" points="172.2,-156.58 182.78,-155.99 174.14,-149.86 172.2,-156.58"/>
</g>
<!-- Node4 -->
<g id="node4" class="node">
<title>Node4</title>
<g id="a_node4"><a xlink:href="namespacem__mpi__proxy.html#a04ac565bad2b22dc045a5eeb4f516e2e" target="_top" xlink:title="The subroutine terminates the MPI execution environment.">
<polygon fill="white" stroke="#666666" points="314,-137.5 196,-137.5 196,-107.5 314,-107.5 314,-137.5"/>
<text text-anchor="start" x="204" y="-125.5" font-family="Helvetica,sans-Serif" font-size="10.00">m_mpi_proxy::s_mpi</text>
<text text-anchor="middle" x="255" y="-114.5" font-family="Helvetica,sans-Serif" font-size="10.00">_abort</text>
</a>
</g>
</g>
<!-- Node1&#45;&gt;Node4 -->
<g id="edge3" class="edge">
<title>Node1&#45;&gt;Node4</title>
<path fill="none" stroke="#63b8ff" d="M131.03,-122.5C148.73,-122.5 167.98,-122.5 185.88,-122.5"/>
<polygon fill="#63b8ff" stroke="#63b8ff" points="185.95,-126 195.95,-122.5 185.95,-119 185.95,-126"/>
</g>
<!-- Node5 -->
<g id="node5" class="node">
<title>Node5</title>
<g id="a_node5"><a xlink:href="namespacem__mpi__proxy.html#abfbc42cea69273bc9fa4a2d78f636eb1" target="_top" xlink:title="Halts all processes until all have reached barrier.">
<polygon fill="white" stroke="#666666" points="314,-89.5 196,-89.5 196,-59.5 314,-59.5 314,-89.5"/>
<text text-anchor="start" x="204" y="-77.5" font-family="Helvetica,sans-Serif" font-size="10.00">m_mpi_proxy::s_mpi</text>
<text text-anchor="middle" x="255" y="-66.5" font-family="Helvetica,sans-Serif" font-size="10.00">_barrier</text>
</a>
</g>
</g>
<!-- Node1&#45;&gt;Node5 -->
<g id="edge4" class="edge">
<title>Node1&#45;&gt;Node5</title>
<path fill="none" stroke="#63b8ff" d="M125.31,-107.44C144.51,-102.53 166,-97.03 185.83,-91.95"/>
<polygon fill="#63b8ff" stroke="#63b8ff" points="186.9,-95.29 195.72,-89.42 185.16,-88.51 186.9,-95.29"/>
</g>
<!-- Node6 -->
<g id="node6" class="node">
<title>Node6</title>
<g id="a_node6"><a xlink:href="namespacem__mpi__proxy.html#a05e935f1245bfa87c7618e2aa6948893" target="_top" xlink:title="The goal of this subroutine is to determine the global extrema of the stability criteria in the compu...">
<polygon fill="white" stroke="#666666" points="325,-41 185,-41 185,0 325,0 325,-41"/>
<text text-anchor="start" x="193" y="-29" font-family="Helvetica,sans-Serif" font-size="10.00">m_mpi_proxy::s_mpi</text>
<text text-anchor="start" x="193" y="-18" font-family="Helvetica,sans-Serif" font-size="10.00">_reduce_stability_criteria</text>
<text text-anchor="middle" x="255" y="-7" font-family="Helvetica,sans-Serif" font-size="10.00">_extrema</text>
</a>
</g>
</g>
<!-- Node1&#45;&gt;Node6 -->
<g id="edge5" class="edge">
<title>Node1&#45;&gt;Node6</title>
<path fill="none" stroke="#63b8ff" d="M84.35,-107.26C103.67,-91.36 135.92,-66.56 167,-50.5 170.67,-48.6 174.49,-46.78 178.39,-45.04"/>
<polygon fill="#63b8ff" stroke="#63b8ff" points="179.76,-48.26 187.6,-41.13 177.03,-41.82 179.76,-48.26"/>
</g>
</g>
</svg>
