<?xml version="1.0" encoding="UTF-8" standalone="no"?>
<!DOCTYPE svg PUBLIC "-//W3C//DTD SVG 1.1//EN"
 "http://www.w3.org/Graphics/SVG/1.1/DTD/svg11.dtd">
<!-- Generated by graphviz version 2.43.0 (0)
 -->
<!-- Title: m_variables_conversion::s_compute_pressure Pages: 1 -->
<svg width="772pt" height="318pt"
 viewBox="0.00 0.00 772.00 317.50" xmlns="http://www.w3.org/2000/svg" xmlns:xlink="http://www.w3.org/1999/xlink">
<g id="graph0" class="graph" transform="scale(1 1) rotate(0) translate(4 313.5)">
<title>m_variables_conversion::s_compute_pressure</title>
<!-- Node1 -->
<g id="node1" class="node">
<title>Node1</title>
<g id="a_node1"><a xlink:title="This procedure conditionally calculates the appropriate pressure.">
<polygon fill="#999999" stroke="#666666" points="764,-84.5 629,-84.5 629,-54.5 764,-54.5 764,-84.5"/>
<text text-anchor="start" x="637" y="-72.5" font-family="Helvetica,sans-Serif" font-size="10.00">m_variables_conversion</text>
<text text-anchor="middle" x="696.5" y="-61.5" font-family="Helvetica,sans-Serif" font-size="10.00">::s_compute_pressure</text>
</a>
</g>
</g>
<!-- Node2 -->
<g id="node2" class="node">
<title>Node2</title>
<g id="a_node2"><a xlink:href="namespacem__variables__conversion.html#a86ac76fa70eabaede1b0f3a4af740560" target="_top" xlink:title="The following procedure handles the conversion between the conservative variables and the primitive v...">
<polygon fill="white" stroke="#666666" points="586,-168 448,-168 448,-127 586,-127 586,-168"/>
<text text-anchor="start" x="456" y="-156" font-family="Helvetica,sans-Serif" font-size="10.00">m_variables_conversion</text>
<text text-anchor="start" x="456" y="-145" font-family="Helvetica,sans-Serif" font-size="10.00">::s_convert_conservative</text>
<text text-anchor="middle" x="517" y="-134" font-family="Helvetica,sans-Serif" font-size="10.00">_to_primitive_variables</text>
</a>
</g>
</g>
<!-- Node1&#45;&gt;Node2 -->
<g id="edge1" class="edge">
<title>Node1&#45;&gt;Node2</title>
<path fill="none" stroke="#63b8ff" d="M651.9,-88.66C625.5,-100.26 591.84,-115.05 564.87,-126.9"/>
<polygon fill="#63b8ff" stroke="#63b8ff" points="653.53,-91.77 661.28,-84.54 650.71,-85.36 653.53,-91.77"/>
</g>
<!-- Node10 -->
<g id="node10" class="node">
<title>Node10</title>
<g id="a_node10"><a xlink:href="namespacem__start__up.html#a38182f7fcc92c1c687840339a20e85cd" target="_top" xlink:title="The purpose of this procedure is to initialize the values of the internal&#45;energy equations of each ph...">
<polygon fill="white" stroke="#666666" points="593,-84.5 441,-84.5 441,-54.5 593,-54.5 593,-84.5"/>
<text text-anchor="start" x="449" y="-72.5" font-family="Helvetica,sans-Serif" font-size="10.00">m_start_up::s_initialize</text>
<text text-anchor="middle" x="517" y="-61.5" font-family="Helvetica,sans-Serif" font-size="10.00">_internal_energy_equations</text>
</a>
</g>
</g>
<!-- Node1&#45;&gt;Node10 -->
<g id="edge13" class="edge">
<title>Node1&#45;&gt;Node10</title>
<path fill="none" stroke="#63b8ff" d="M618.63,-69.5C610.14,-69.5 601.49,-69.5 593.02,-69.5"/>
<polygon fill="#63b8ff" stroke="#63b8ff" points="618.9,-73 628.9,-69.5 618.9,-66 618.9,-73"/>
</g>
<!-- Node11 -->
<g id="node11" class="node">
<title>Node11</title>
<g id="a_node11"><a xlink:href="namespacem__data__output.html#a29f34883bc8e9d895dbb4232493397a1" target="_top" xlink:title="This writes a formatted data file for the flow probe information.">
<polygon fill="white" stroke="#666666" points="582.5,-36.5 451.5,-36.5 451.5,-6.5 582.5,-6.5 582.5,-36.5"/>
<text text-anchor="start" x="459.5" y="-24.5" font-family="Helvetica,sans-Serif" font-size="10.00">m_data_output::s_write</text>
<text text-anchor="middle" x="517" y="-13.5" font-family="Helvetica,sans-Serif" font-size="10.00">_probe_files</text>
</a>
</g>
</g>
<!-- Node1&#45;&gt;Node11 -->
<g id="edge15" class="edge">
<title>Node1&#45;&gt;Node11</title>
<path fill="none" stroke="#63b8ff" d="M629.98,-51.78C611.41,-46.76 591.39,-41.35 573.48,-36.5"/>
<polygon fill="#63b8ff" stroke="#63b8ff" points="629.26,-55.21 639.82,-54.44 631.09,-48.46 629.26,-55.21"/>
</g>
<!-- Node3 -->
<g id="node3" class="node">
<title>Node3</title>
<g id="a_node3"><a xlink:href="namespacem__rhs.html#a361f0038973069452cc88430c49bcfe8" target="_top" xlink:title=" ">
<polygon fill="white" stroke="#666666" points="402.5,-216 276.5,-216 276.5,-197 402.5,-197 402.5,-216"/>
<text text-anchor="middle" x="339.5" y="-204" font-family="Helvetica,sans-Serif" font-size="10.00">m_rhs::s_compute_rhs</text>
</a>
</g>
</g>
<!-- Node2&#45;&gt;Node3 -->
<g id="edge2" class="edge">
<title>Node2&#45;&gt;Node3</title>
<path fill="none" stroke="#63b8ff" d="M444.95,-171.39C418.39,-180.31 389.72,-189.95 369.14,-196.87"/>
<polygon fill="#63b8ff" stroke="#63b8ff" points="446.26,-174.64 454.62,-168.14 444.02,-168 446.26,-174.64"/>
</g>
<!-- Node8 -->
<g id="node8" class="node">
<title>Node8</title>
<g id="a_node8"><a xlink:href="namespacem__data__output.html#a2f7a43312f3d62d4765afe87f114dba4" target="_top" xlink:title="The goal of this subroutine is to output the grid and conservative variables data files for given tim...">
<polygon fill="white" stroke="#666666" points="405,-162.5 274,-162.5 274,-132.5 405,-132.5 405,-162.5"/>
<text text-anchor="start" x="282" y="-150.5" font-family="Helvetica,sans-Serif" font-size="10.00">m_data_output::s_write</text>
<text text-anchor="middle" x="339.5" y="-139.5" font-family="Helvetica,sans-Serif" font-size="10.00">_serial_data_files</text>
</a>
</g>
</g>
<!-- Node2&#45;&gt;Node8 -->
<g id="edge9" class="edge">
<title>Node2&#45;&gt;Node8</title>
<path fill="none" stroke="#63b8ff" d="M437.57,-147.5C426.72,-147.5 415.68,-147.5 405.11,-147.5"/>
<polygon fill="#63b8ff" stroke="#63b8ff" points="437.9,-151 447.9,-147.5 437.9,-144 437.9,-151"/>
</g>
<!-- Node4 -->
<g id="node4" class="node">
<title>Node4</title>
<g id="a_node4"><a xlink:href="namespacem__time__steppers.html#a8876606e6152b6c8f35272074a088142" target="_top" xlink:title="1st order TVD RK time&#45;stepping algorithm">
<polygon fill="white" stroke="#666666" points="220,-309.5 107,-309.5 107,-279.5 220,-279.5 220,-309.5"/>
<text text-anchor="start" x="115" y="-297.5" font-family="Helvetica,sans-Serif" font-size="10.00">m_time_steppers::s</text>
<text text-anchor="middle" x="163.5" y="-286.5" font-family="Helvetica,sans-Serif" font-size="10.00">_1st_order_tvd_rk</text>
</a>
</g>
</g>
<!-- Node3&#45;&gt;Node4 -->
<g id="edge3" class="edge">
<title>Node3&#45;&gt;Node4</title>
<path fill="none" stroke="#63b8ff" d="M317.54,-222.07C297.81,-236.17 267.03,-256.78 238,-270.5 231.08,-273.77 223.6,-276.77 216.15,-279.46"/>
<polygon fill="#63b8ff" stroke="#63b8ff" points="319.74,-224.8 325.78,-216.09 315.63,-219.13 319.74,-224.8"/>
</g>
<!-- Node6 -->
<g id="node6" class="node">
<title>Node6</title>
<g id="a_node6"><a xlink:href="namespacem__time__steppers.html#adb82b6c6041c825d0999e6890ed825cc" target="_top" xlink:title="2nd order TVD RK time&#45;stepping algorithm">
<polygon fill="white" stroke="#666666" points="220,-261.5 107,-261.5 107,-231.5 220,-231.5 220,-261.5"/>
<text text-anchor="start" x="115" y="-249.5" font-family="Helvetica,sans-Serif" font-size="10.00">m_time_steppers::s</text>
<text text-anchor="middle" x="163.5" y="-238.5" font-family="Helvetica,sans-Serif" font-size="10.00">_2nd_order_tvd_rk</text>
</a>
</g>
</g>
<!-- Node3&#45;&gt;Node6 -->
<g id="edge5" class="edge">
<title>Node3&#45;&gt;Node6</title>
<path fill="none" stroke="#63b8ff" d="M286.83,-218.38C265.89,-223.19 241.66,-228.76 220.31,-233.67"/>
<polygon fill="#63b8ff" stroke="#63b8ff" points="287.86,-221.73 296.82,-216.08 286.29,-214.91 287.86,-221.73"/>
</g>
<!-- Node7 -->
<g id="node7" class="node">
<title>Node7</title>
<g id="a_node7"><a xlink:href="namespacem__time__steppers.html#ae08efa7df1f8efae0f726dd5114176a8" target="_top" xlink:title="3rd order TVD RK time&#45;stepping algorithm">
<polygon fill="white" stroke="#666666" points="220,-213.5 107,-213.5 107,-183.5 220,-183.5 220,-213.5"/>
<text text-anchor="start" x="115" y="-201.5" font-family="Helvetica,sans-Serif" font-size="10.00">m_time_steppers::s</text>
<text text-anchor="middle" x="163.5" y="-190.5" font-family="Helvetica,sans-Serif" font-size="10.00">_3rd_order_tvd_rk</text>
</a>
</g>
</g>
<!-- Node3&#45;&gt;Node7 -->
<g id="edge7" class="edge">
<title>Node3&#45;&gt;Node7</title>
<path fill="none" stroke="#63b8ff" d="M266.16,-203.17C250.75,-202.47 234.7,-201.73 220.04,-201.05"/>
<polygon fill="#63b8ff" stroke="#63b8ff" points="266.02,-206.67 276.17,-203.63 266.34,-199.68 266.02,-206.67"/>
</g>
<!-- Node5 -->
<g id="node5" class="node">
<title>Node5</title>
<g id="a_node5"><a xlink:href="p__main_8fpp_8f90.html#aeec10ee8e2940c953967da3e374e1579" target="_top" xlink:title="Quasi&#45;conservative, shock&#45; and interface&#45; capturing finite&#45;volume scheme for the multicomponent Navie...">
<polygon fill="white" stroke="#666666" points="53,-165 0,-165 0,-146 53,-146 53,-165"/>
<text text-anchor="middle" x="26.5" y="-153" font-family="Helvetica,sans-Serif" font-size="10.00">p_main</text>
</a>
</g>
</g>
<!-- Node4&#45;&gt;Node5 -->
<g id="edge4" class="edge">
<title>Node4&#45;&gt;Node5</title>
<path fill="none" stroke="#63b8ff" d="M97.7,-276.69C94.63,-274.82 91.71,-272.77 89,-270.5 54.12,-241.26 36.1,-187.04 29.97,-165.1"/>
<polygon fill="#63b8ff" stroke="#63b8ff" points="96.21,-279.85 106.68,-281.44 99.48,-273.67 96.21,-279.85"/>
</g>
<!-- Node6&#45;&gt;Node5 -->
<g id="edge6" class="edge">
<title>Node6&#45;&gt;Node5</title>
<path fill="none" stroke="#63b8ff" d="M97.68,-227.48C94.67,-225.94 91.77,-224.28 89,-222.5 64.84,-206.95 43.95,-179.64 33.89,-165.16"/>
<polygon fill="#63b8ff" stroke="#63b8ff" points="96.35,-230.73 106.9,-231.78 99.31,-224.39 96.35,-230.73"/>
</g>
<!-- Node7&#45;&gt;Node5 -->
<g id="edge8" class="edge">
<title>Node7&#45;&gt;Node5</title>
<path fill="none" stroke="#63b8ff" d="M105.6,-180.37C87.38,-174.57 68.11,-168.43 53.26,-163.71"/>
<polygon fill="#63b8ff" stroke="#63b8ff" points="104.69,-183.76 115.28,-183.46 106.82,-177.09 104.69,-183.76"/>
</g>
<!-- Node8&#45;&gt;Node5 -->
<g id="edge10" class="edge">
<title>Node8&#45;&gt;Node5</title>
<path fill="none" stroke="#63b8ff" d="M263.42,-149.43C195.27,-151.18 98.69,-153.67 53.15,-154.84"/>
<polygon fill="#63b8ff" stroke="#63b8ff" points="263.78,-152.92 273.68,-149.17 263.6,-145.93 263.78,-152.92"/>
</g>
<!-- Node9 -->
<g id="node9" class="node">
<title>Node9</title>
<g id="a_node9"><a xlink:href="namespacem__data__output.html#ab65b312ef83adb104cafafada9c998b6" target="_top" xlink:title="The computation of parameters, the allocation of memory, the association of pointers and/or the execu...">
<polygon fill="white" stroke="#666666" points="238,-127.5 89,-127.5 89,-97.5 238,-97.5 238,-127.5"/>
<text text-anchor="start" x="97" y="-115.5" font-family="Helvetica,sans-Serif" font-size="10.00">m_data_output::s_initialize</text>
<text text-anchor="middle" x="163.5" y="-104.5" font-family="Helvetica,sans-Serif" font-size="10.00">_data_output_module</text>
</a>
</g>
</g>
<!-- Node8&#45;&gt;Node9 -->
<g id="edge11" class="edge">
<title>Node8&#45;&gt;Node9</title>
<path fill="none" stroke="#63b8ff" d="M263.81,-132.48C255.3,-130.76 246.63,-129.02 238.13,-127.31"/>
<polygon fill="#63b8ff" stroke="#63b8ff" points="263.21,-135.93 273.71,-134.47 264.6,-129.06 263.21,-135.93"/>
</g>
<!-- Node9&#45;&gt;Node5 -->
<g id="edge12" class="edge">
<title>Node9&#45;&gt;Node5</title>
<path fill="none" stroke="#63b8ff" d="M105.6,-130.63C87.38,-136.43 68.11,-142.57 53.26,-147.29"/>
<polygon fill="#63b8ff" stroke="#63b8ff" points="106.82,-133.91 115.28,-127.54 104.69,-127.24 106.82,-133.91"/>
</g>
<!-- Node10&#45;&gt;Node5 -->
<g id="edge14" class="edge">
<title>Node10&#45;&gt;Node5</title>
<path fill="none" stroke="#63b8ff" d="M430.44,-65.7C323.53,-62.24 147.47,-61.23 89,-88.5 62.38,-100.91 41.98,-130.66 32.81,-146"/>
<polygon fill="#63b8ff" stroke="#63b8ff" points="430.46,-69.2 440.57,-66.04 430.69,-62.2 430.46,-69.2"/>
</g>
<!-- Node12 -->
<g id="node12" class="node">
<title>Node12</title>
<g id="a_node12"><a xlink:href="namespacem__derived__variables.html#a516a9808b3446b7b45029f6451d02b3f" target="_top" xlink:title="Writes coherent body information, communication files, and probes.">
<polygon fill="white" stroke="#666666" points="399,-41 280,-41 280,0 399,0 399,-41"/>
<text text-anchor="start" x="288" y="-29" font-family="Helvetica,sans-Serif" font-size="10.00">m_derived_variables</text>
<text text-anchor="start" x="288" y="-18" font-family="Helvetica,sans-Serif" font-size="10.00">::s_compute_derived</text>
<text text-anchor="middle" x="339.5" y="-7" font-family="Helvetica,sans-Serif" font-size="10.00">_variables</text>
</a>
</g>
</g>
<!-- Node11&#45;&gt;Node12 -->
<g id="edge16" class="edge">
<title>Node11&#45;&gt;Node12</title>
<path fill="none" stroke="#63b8ff" d="M441.07,-21.07C427.1,-20.99 412.68,-20.91 399.28,-20.83"/>
<polygon fill="#63b8ff" stroke="#63b8ff" points="441.13,-24.57 451.15,-21.13 441.17,-17.57 441.13,-24.57"/>
</g>
<!-- Node12&#45;&gt;Node5 -->
<g id="edge17" class="edge">
<title>Node12&#45;&gt;Node5</title>
<path fill="none" stroke="#63b8ff" d="M269.84,-14.97C216.4,-14.04 142.56,-20.46 89,-55.5 55.23,-77.6 36.91,-125.33 30.34,-145.83"/>
<polygon fill="#63b8ff" stroke="#63b8ff" points="269.82,-18.47 279.91,-15.24 270,-11.48 269.82,-18.47"/>
</g>
</g>
</svg>
