<?xml version="1.0" encoding="UTF-8" standalone="no"?>
<!DOCTYPE svg PUBLIC "-//W3C//DTD SVG 1.1//EN"
 "http://www.w3.org/Graphics/SVG/1.1/DTD/svg11.dtd">
<!-- Generated by graphviz version 2.43.0 (0)
 -->
<!-- Title: m_time_steppers::s_1st_order_tvd_rk Pages: 1 -->
<svg width="500pt" height="439pt"
 viewBox="0.00 0.00 500.00 439.00" xmlns="http://www.w3.org/2000/svg" xmlns:xlink="http://www.w3.org/1999/xlink">
<g id="graph0" class="graph" transform="scale(1 1) rotate(0) translate(4 435)">
<title>m_time_steppers::s_1st_order_tvd_rk</title>
<!-- Node1 -->
<g id="node1" class="node">
<title>Node1</title>
<g id="a_node1"><a xlink:title="1st order TVD RK time&#45;stepping algorithm">
<polygon fill="#bfbfbf" stroke="black" points="0,-302 0,-332 113,-332 113,-302 0,-302"/>
<text text-anchor="start" x="8" y="-320" font-family="Helvetica,sans-Serif" font-size="10.00">m_time_steppers::s</text>
<text text-anchor="middle" x="56.5" y="-309" font-family="Helvetica,sans-Serif" font-size="10.00">_1st_order_tvd_rk</text>
</a>
</g>
</g>
<!-- Node2 -->
<g id="node2" class="node">
<title>Node2</title>
<g id="a_node2"><a xlink:href="namespacem__nvtx.html#acb0ad47c439f074b02a3cfc88817b9c7" target="_top" xlink:title=" ">
<polygon fill="none" stroke="black" points="151.5,-411.5 151.5,-430.5 277.5,-430.5 277.5,-411.5 151.5,-411.5"/>
<text text-anchor="middle" x="214.5" y="-418.5" font-family="Helvetica,sans-Serif" font-size="10.00">m_nvtx::nvtxendrange</text>
</a>
</g>
</g>
<!-- Node1&#45;&gt;Node2 -->
<g id="edge1" class="edge">
<title>Node1&#45;&gt;Node2</title>
<path fill="none" stroke="midnightblue" d="M69.84,-332.16C86.08,-351.15 116.4,-383.44 149,-402 152.87,-404.2 157.02,-406.17 161.28,-407.93"/>
<polygon fill="midnightblue" stroke="midnightblue" points="160.12,-411.23 170.72,-411.44 162.56,-404.67 160.12,-411.23"/>
</g>
<!-- Node3 -->
<g id="node3" class="node">
<title>Node3</title>
<g id="a_node3"><a xlink:href="namespacem__nvtx.html#a9b922c5d5c93c41e0abcd4cf8c382861" target="_top" xlink:title=" ">
<polygon fill="none" stroke="black" points="149,-373.5 149,-392.5 280,-392.5 280,-373.5 149,-373.5"/>
<text text-anchor="middle" x="214.5" y="-380.5" font-family="Helvetica,sans-Serif" font-size="10.00">m_nvtx::nvtxstartrange</text>
</a>
</g>
</g>
<!-- Node1&#45;&gt;Node3 -->
<g id="edge2" class="edge">
<title>Node1&#45;&gt;Node3</title>
<path fill="none" stroke="midnightblue" d="M83.71,-332.14C101.68,-342.09 126.28,-354.91 149,-364 154.76,-366.3 160.91,-368.47 167.04,-370.46"/>
<polygon fill="midnightblue" stroke="midnightblue" points="166.01,-373.8 176.59,-373.43 168.08,-367.12 166.01,-373.8"/>
</g>
<!-- Node4 -->
<g id="node4" class="node">
<title>Node4</title>
<g id="a_node4"><a xlink:href="namespacem__fftw.html#ada93950a5527dfe2a35cc4f4ba77cb96" target="_top" xlink:title="The purpose of this subroutine is to apply a Fourier low&#45; pass filter to the flow variables in the az...">
<polygon fill="none" stroke="black" points="149,-324 149,-354 280,-354 280,-324 149,-324"/>
<text text-anchor="start" x="157" y="-342" font-family="Helvetica,sans-Serif" font-size="10.00">m_fftw::s_apply_fourier</text>
<text text-anchor="middle" x="214.5" y="-331" font-family="Helvetica,sans-Serif" font-size="10.00">_filter</text>
</a>
</g>
</g>
<!-- Node1&#45;&gt;Node4 -->
<g id="edge3" class="edge">
<title>Node1&#45;&gt;Node4</title>
<path fill="none" stroke="midnightblue" d="M113.38,-324.88C121.67,-326.05 130.33,-327.27 138.93,-328.48"/>
<polygon fill="midnightblue" stroke="midnightblue" points="138.59,-331.97 148.98,-329.9 139.57,-325.04 138.59,-331.97"/>
</g>
<!-- Node5 -->
<g id="node5" class="node">
<title>Node5</title>
<g id="a_node5"><a xlink:href="namespacem__rhs.html#a361f0038973069452cc88430c49bcfe8" target="_top" xlink:title=" ">
<polygon fill="none" stroke="black" points="151.5,-285.5 151.5,-304.5 277.5,-304.5 277.5,-285.5 151.5,-285.5"/>
<text text-anchor="middle" x="214.5" y="-292.5" font-family="Helvetica,sans-Serif" font-size="10.00">m_rhs::s_compute_rhs</text>
</a>
</g>
</g>
<!-- Node1&#45;&gt;Node5 -->
<g id="edge4" class="edge">
<title>Node1&#45;&gt;Node5</title>
<path fill="none" stroke="midnightblue" d="M113.38,-309.12C122.43,-307.84 131.92,-306.51 141.29,-305.18"/>
<polygon fill="midnightblue" stroke="midnightblue" points="141.98,-308.62 151.39,-303.76 141,-301.69 141.98,-308.62"/>
</g>
<!-- Node8 -->
<g id="node8" class="node">
<title>Node8</title>
<g id="a_node8"><a xlink:href="namespacem__time__steppers.html#a575aa7f95bf96994f49d81d71d19c192" target="_top" xlink:title="This subroutine saves the temporary q_prim_vf vector into the q_prim_ts vector that is then used in p...">
<polygon fill="none" stroke="black" points="158,-236 158,-266 271,-266 271,-236 158,-236"/>
<text text-anchor="start" x="166" y="-254" font-family="Helvetica,sans-Serif" font-size="10.00">m_time_steppers::s</text>
<text text-anchor="middle" x="214.5" y="-243" font-family="Helvetica,sans-Serif" font-size="10.00">_time_step_cycling</text>
</a>
</g>
</g>
<!-- Node1&#45;&gt;Node8 -->
<g id="edge7" class="edge">
<title>Node1&#45;&gt;Node8</title>
<path fill="none" stroke="midnightblue" d="M89.93,-301.98C107.35,-294.04 129.24,-284.25 149,-276 153.99,-273.92 159.21,-271.8 164.44,-269.71"/>
<polygon fill="midnightblue" stroke="midnightblue" points="165.79,-272.94 173.8,-266.02 163.22,-266.43 165.79,-272.94"/>
</g>
<!-- Node9 -->
<g id="node9" class="node">
<title>Node9</title>
<g id="a_node9"><a xlink:href="namespacem__data__output.html#a33a72559ec5cfdedf7162a8269d41201" target="_top" xlink:title="The goal of the procedure is to output to the run&#45;time information file the stability criteria extrem...">
<polygon fill="none" stroke="black" points="149,-138 149,-168 280,-168 280,-138 149,-138"/>
<text text-anchor="start" x="157" y="-156" font-family="Helvetica,sans-Serif" font-size="10.00">m_data_output::s_write</text>
<text text-anchor="middle" x="214.5" y="-145" font-family="Helvetica,sans-Serif" font-size="10.00">_run_time_information</text>
</a>
</g>
</g>
<!-- Node1&#45;&gt;Node9 -->
<g id="edge8" class="edge">
<title>Node1&#45;&gt;Node9</title>
<path fill="none" stroke="midnightblue" d="M71.9,-301.87C99.41,-272.94 159.59,-209.67 191.93,-175.68"/>
<polygon fill="midnightblue" stroke="midnightblue" points="194.78,-177.76 199.14,-168.1 189.71,-172.93 194.78,-177.76"/>
</g>
<!-- Node6 -->
<g id="node6" class="node">
<title>Node6</title>
<g id="a_node6"><a xlink:href="namespacem__rhs.html#a2647dbdf6b09315564ef060e1f49df0d" target="_top" xlink:title="The purpose of this procedure is to populate the buffers of the conservative variables,...">
<polygon fill="none" stroke="black" points="317,-329 317,-359 491,-359 491,-329 317,-329"/>
<text text-anchor="start" x="325" y="-347" font-family="Helvetica,sans-Serif" font-size="10.00">m_rhs::s_populate_conservative</text>
<text text-anchor="middle" x="404" y="-336" font-family="Helvetica,sans-Serif" font-size="10.00">_variables_buffers</text>
</a>
</g>
</g>
<!-- Node5&#45;&gt;Node6 -->
<g id="edge5" class="edge">
<title>Node5&#45;&gt;Node6</title>
<path fill="none" stroke="midnightblue" d="M252.1,-304.56C275.84,-310.77 307.48,-319.04 335.66,-326.4"/>
<polygon fill="midnightblue" stroke="midnightblue" points="334.9,-329.82 345.46,-328.96 336.67,-323.05 334.9,-329.82"/>
</g>
<!-- Node7 -->
<g id="node7" class="node">
<title>Node7</title>
<g id="a_node7"><a xlink:href="namespacem__rhs.html#aa93d7b4162d84118e54c739f626a2f16" target="_top" xlink:title="The purpose of this subroutine is to WENO&#45;reconstruct the left and the right cell&#45;boundary values,...">
<polygon fill="none" stroke="black" points="340,-280 340,-310 468,-310 468,-280 340,-280"/>
<text text-anchor="start" x="348" y="-298" font-family="Helvetica,sans-Serif" font-size="10.00">m_rhs::s_reconstruct</text>
<text text-anchor="middle" x="404" y="-287" font-family="Helvetica,sans-Serif" font-size="10.00">_cell_boundary_values</text>
</a>
</g>
</g>
<!-- Node5&#45;&gt;Node7 -->
<g id="edge6" class="edge">
<title>Node5&#45;&gt;Node7</title>
<path fill="none" stroke="midnightblue" d="M277.67,-295C294.18,-295 312.17,-295 329.23,-295"/>
<polygon fill="midnightblue" stroke="midnightblue" points="329.71,-298.5 339.71,-295 329.71,-291.5 329.71,-298.5"/>
</g>
<!-- Node10 -->
<g id="node10" class="node">
<title>Node10</title>
<g id="a_node10"><a xlink:href="namespacem__variables__conversion.html#a2469e5a2187755370e7d52628a780fd6" target="_top" xlink:title=" ">
<polygon fill="none" stroke="black" points="336.5,-219.5 336.5,-260.5 471.5,-260.5 471.5,-219.5 336.5,-219.5"/>
<text text-anchor="start" x="344.5" y="-248.5" font-family="Helvetica,sans-Serif" font-size="10.00">m_variables_conversion</text>
<text text-anchor="start" x="344.5" y="-237.5" font-family="Helvetica,sans-Serif" font-size="10.00">::s_convert_species_to</text>
<text text-anchor="middle" x="404" y="-226.5" font-family="Helvetica,sans-Serif" font-size="10.00">_mixture_variables_acc</text>
</a>
</g>
</g>
<!-- Node9&#45;&gt;Node10 -->
<g id="edge9" class="edge">
<title>Node9&#45;&gt;Node10</title>
<path fill="none" stroke="midnightblue" d="M239.22,-168.11C259.18,-180.41 288.76,-197.7 316,-210 320.32,-211.95 324.81,-213.85 329.37,-215.69"/>
<polygon fill="midnightblue" stroke="midnightblue" points="328.22,-219 338.8,-219.37 330.76,-212.48 328.22,-219"/>
</g>
<!-- Node11 -->
<g id="node11" class="node">
<title>Node11</title>
<g id="a_node11"><a xlink:href="namespacem__variables__conversion.html#acb81910f3c4223227f19333a919feb6c" target="_top" xlink:title=" ">
<polygon fill="none" stroke="black" points="316,-159.5 316,-200.5 492,-200.5 492,-159.5 316,-159.5"/>
<text text-anchor="start" x="324" y="-188.5" font-family="Helvetica,sans-Serif" font-size="10.00">m_variables_conversion</text>
<text text-anchor="start" x="324" y="-177.5" font-family="Helvetica,sans-Serif" font-size="10.00">::s_convert_species_to</text>
<text text-anchor="middle" x="404" y="-166.5" font-family="Helvetica,sans-Serif" font-size="10.00">_mixture_variables_bubbles_acc</text>
</a>
</g>
</g>
<!-- Node9&#45;&gt;Node11 -->
<g id="edge10" class="edge">
<title>Node9&#45;&gt;Node11</title>
<path fill="none" stroke="midnightblue" d="M280.03,-162.29C288.42,-163.5 297.15,-164.76 305.93,-166.02"/>
<polygon fill="midnightblue" stroke="midnightblue" points="305.44,-169.49 315.83,-167.45 306.44,-162.56 305.44,-169.49"/>
</g>
<!-- Node12 -->
<g id="node12" class="node">
<title>Node12</title>
<g id="a_node12"><a xlink:href="namespacem__mpi__proxy.html#a04ac565bad2b22dc045a5eeb4f516e2e" target="_top" xlink:title="The subroutine terminates the MPI execution environment.">
<polygon fill="none" stroke="black" points="345,-110 345,-140 463,-140 463,-110 345,-110"/>
<text text-anchor="start" x="353" y="-128" font-family="Helvetica,sans-Serif" font-size="10.00">m_mpi_proxy::s_mpi</text>
<text text-anchor="middle" x="404" y="-117" font-family="Helvetica,sans-Serif" font-size="10.00">_abort</text>
</a>
</g>
</g>
<!-- Node9&#45;&gt;Node12 -->
<g id="edge11" class="edge">
<title>Node9&#45;&gt;Node12</title>
<path fill="none" stroke="midnightblue" d="M280.03,-143.36C297.73,-140.72 316.98,-137.85 334.88,-135.17"/>
<polygon fill="midnightblue" stroke="midnightblue" points="335.58,-138.61 344.95,-133.67 334.54,-131.68 335.58,-138.61"/>
</g>
<!-- Node13 -->
<g id="node13" class="node">
<title>Node13</title>
<g id="a_node13"><a xlink:href="namespacem__mpi__proxy.html#abfbc42cea69273bc9fa4a2d78f636eb1" target="_top" xlink:title="Halts all processes until all have reached barrier.">
<polygon fill="none" stroke="black" points="345,-61 345,-91 463,-91 463,-61 345,-61"/>
<text text-anchor="start" x="353" y="-79" font-family="Helvetica,sans-Serif" font-size="10.00">m_mpi_proxy::s_mpi</text>
<text text-anchor="middle" x="404" y="-68" font-family="Helvetica,sans-Serif" font-size="10.00">_barrier</text>
</a>
</g>
</g>
<!-- Node9&#45;&gt;Node13 -->
<g id="edge12" class="edge">
<title>Node9&#45;&gt;Node13</title>
<path fill="none" stroke="midnightblue" d="M241.28,-137.85C261.2,-126.6 289.71,-111.46 316,-101 322.18,-98.54 328.7,-96.21 335.27,-94.04"/>
<polygon fill="midnightblue" stroke="midnightblue" points="336.44,-97.34 344.9,-90.96 334.31,-90.67 336.44,-97.34"/>
</g>
<!-- Node14 -->
<g id="node14" class="node">
<title>Node14</title>
<g id="a_node14"><a xlink:href="namespacem__mpi__proxy.html#a340a2c9b1688582ee485dd5d9bbcc864" target="_top" xlink:title="The goal of this subroutine is to determine the global extrema of the stability criteria in the compu...">
<polygon fill="none" stroke="black" points="334,-0.5 334,-41.5 474,-41.5 474,-0.5 334,-0.5"/>
<text text-anchor="start" x="342" y="-29.5" font-family="Helvetica,sans-Serif" font-size="10.00">m_mpi_proxy::s_mpi</text>
<text text-anchor="start" x="342" y="-18.5" font-family="Helvetica,sans-Serif" font-size="10.00">_reduce_stability_criteria</text>
<text text-anchor="middle" x="404" y="-7.5" font-family="Helvetica,sans-Serif" font-size="10.00">_extrema</text>
</a>
</g>
</g>
<!-- Node9&#45;&gt;Node14 -->
<g id="edge13" class="edge">
<title>Node9&#45;&gt;Node14</title>
<path fill="none" stroke="midnightblue" d="M226.8,-137.68C243.84,-115.6 278.15,-74.86 316,-51 318.77,-49.25 321.66,-47.59 324.62,-46.02"/>
<polygon fill="midnightblue" stroke="midnightblue" points="326.28,-49.1 333.71,-41.55 323.19,-42.82 326.28,-49.1"/>
</g>
</g>
</svg>
