<?xml version="1.0" encoding="UTF-8" standalone="no"?>
<!DOCTYPE svg PUBLIC "-//W3C//DTD SVG 1.1//EN"
 "http://www.w3.org/Graphics/SVG/1.1/DTD/svg11.dtd">
<!-- Generated by graphviz version 2.43.0 (0)
 -->
<!-- Title: m_rhs::s_compute_fd_gradient Pages: 1 -->
<svg width="707pt" height="137pt"
 viewBox="0.00 0.00 707.00 137.00" xmlns="http://www.w3.org/2000/svg" xmlns:xlink="http://www.w3.org/1999/xlink">
<g id="graph0" class="graph" transform="scale(1 1) rotate(0) translate(4 133)">
<title>m_rhs::s_compute_fd_gradient</title>
<!-- Node1 -->
<g id="node1" class="node">
<title>Node1</title>
<g id="a_node1"><a xlink:title="Computes the scalar gradient fields via finite differences.">
<polygon fill="#bfbfbf" stroke="black" points="578,-30.5 578,-60.5 699,-60.5 699,-30.5 578,-30.5"/>
<text text-anchor="start" x="586" y="-48.5" font-family="Helvetica,sans-Serif" font-size="10.00">m_rhs::s_compute_fd</text>
<text text-anchor="middle" x="638.5" y="-37.5" font-family="Helvetica,sans-Serif" font-size="10.00">_gradient</text>
</a>
</g>
</g>
<!-- Node2 -->
<g id="node2" class="node">
<title>Node2</title>
<g id="a_node2"><a xlink:href="namespacem__rhs.html#af3a790f913beb679bf0cf9d6c8c15fda" target="_top" xlink:title="This subroutine compute the TVD flux function.">
<polygon fill="none" stroke="black" points="421,-36 421,-55 542,-55 542,-36 421,-36"/>
<text text-anchor="middle" x="481.5" y="-43" font-family="Helvetica,sans-Serif" font-size="10.00">m_rhs::s_get_viscous</text>
</a>
</g>
</g>
<!-- Node1&#45;&gt;Node2 -->
<g id="edge1" class="edge">
<title>Node1&#45;&gt;Node2</title>
<path fill="none" stroke="midnightblue" d="M567.34,-45.5C558.88,-45.5 550.3,-45.5 542.01,-45.5"/>
<polygon fill="midnightblue" stroke="midnightblue" points="567.57,-49 577.57,-45.5 567.57,-42 567.57,-49"/>
</g>
<!-- Node3 -->
<g id="node3" class="node">
<title>Node3</title>
<g id="a_node3"><a xlink:href="namespacem__rhs.html#a361f0038973069452cc88430c49bcfe8" target="_top" xlink:title=" ">
<polygon fill="none" stroke="black" points="248.5,-55 248.5,-74 374.5,-74 374.5,-55 248.5,-55"/>
<text text-anchor="middle" x="311.5" y="-62" font-family="Helvetica,sans-Serif" font-size="10.00">m_rhs::s_compute_rhs</text>
</a>
</g>
</g>
<!-- Node2&#45;&gt;Node3 -->
<g id="edge2" class="edge">
<title>Node2&#45;&gt;Node3</title>
<path fill="none" stroke="midnightblue" d="M410.82,-53.38C398.79,-54.74 386.37,-56.15 374.57,-57.48"/>
<polygon fill="midnightblue" stroke="midnightblue" points="411.25,-56.85 420.8,-52.25 410.47,-49.9 411.25,-56.85"/>
</g>
<!-- Node8 -->
<g id="node8" class="node">
<title>Node8</title>
<g id="a_node8"><a xlink:href="namespacem__rhs.html#a4d8c1fe0371ff61af10a30b69cce0c43" target="_top" xlink:title=" ">
<polygon fill="none" stroke="black" points="238,-17 238,-36 385,-36 385,-17 238,-17"/>
<text text-anchor="middle" x="311.5" y="-24" font-family="Helvetica,sans-Serif" font-size="10.00">m_rhs::s_compute_rhs_full</text>
</a>
</g>
</g>
<!-- Node2&#45;&gt;Node8 -->
<g id="edge9" class="edge">
<title>Node2&#45;&gt;Node8</title>
<path fill="none" stroke="midnightblue" d="M410.68,-37.6C402.28,-36.65 393.69,-35.68 385.25,-34.73"/>
<polygon fill="midnightblue" stroke="midnightblue" points="410.47,-41.1 420.8,-38.75 411.25,-34.15 410.47,-41.1"/>
</g>
<!-- Node4 -->
<g id="node4" class="node">
<title>Node4</title>
<g id="a_node4"><a xlink:href="namespacem__time__steppers.html#a8876606e6152b6c8f35272074a088142" target="_top" xlink:title="1st order TVD RK time&#45;stepping algorithm">
<polygon fill="none" stroke="black" points="89,-98.5 89,-128.5 202,-128.5 202,-98.5 89,-98.5"/>
<text text-anchor="start" x="97" y="-116.5" font-family="Helvetica,sans-Serif" font-size="10.00">m_time_steppers::s</text>
<text text-anchor="middle" x="145.5" y="-105.5" font-family="Helvetica,sans-Serif" font-size="10.00">_1st_order_tvd_rk</text>
</a>
</g>
</g>
<!-- Node3&#45;&gt;Node4 -->
<g id="edge3" class="edge">
<title>Node3&#45;&gt;Node4</title>
<path fill="none" stroke="midnightblue" d="M268.82,-76.95C246.91,-83.5 219.89,-91.57 196.83,-98.46"/>
<polygon fill="midnightblue" stroke="midnightblue" points="269.91,-80.28 278.49,-74.06 267.91,-73.57 269.91,-80.28"/>
</g>
<!-- Node6 -->
<g id="node6" class="node">
<title>Node6</title>
<g id="a_node6"><a xlink:href="namespacem__time__steppers.html#adb82b6c6041c825d0999e6890ed825cc" target="_top" xlink:title="2nd order TVD RK time&#45;stepping algorithm">
<polygon fill="none" stroke="black" points="89,-49.5 89,-79.5 202,-79.5 202,-49.5 89,-49.5"/>
<text text-anchor="start" x="97" y="-67.5" font-family="Helvetica,sans-Serif" font-size="10.00">m_time_steppers::s</text>
<text text-anchor="middle" x="145.5" y="-56.5" font-family="Helvetica,sans-Serif" font-size="10.00">_2nd_order_tvd_rk</text>
</a>
</g>
</g>
<!-- Node3&#45;&gt;Node6 -->
<g id="edge5" class="edge">
<title>Node3&#45;&gt;Node6</title>
<path fill="none" stroke="midnightblue" d="M238.38,-64.5C226.23,-64.5 213.78,-64.5 202.12,-64.5"/>
<polygon fill="midnightblue" stroke="midnightblue" points="238.5,-68 248.5,-64.5 238.5,-61 238.5,-68"/>
</g>
<!-- Node7 -->
<g id="node7" class="node">
<title>Node7</title>
<g id="a_node7"><a xlink:href="namespacem__time__steppers.html#ae08efa7df1f8efae0f726dd5114176a8" target="_top" xlink:title="3rd order TVD RK time&#45;stepping algorithm">
<polygon fill="none" stroke="black" points="89,-0.5 89,-30.5 202,-30.5 202,-0.5 89,-0.5"/>
<text text-anchor="start" x="97" y="-18.5" font-family="Helvetica,sans-Serif" font-size="10.00">m_time_steppers::s</text>
<text text-anchor="middle" x="145.5" y="-7.5" font-family="Helvetica,sans-Serif" font-size="10.00">_3rd_order_tvd_rk</text>
</a>
</g>
</g>
<!-- Node3&#45;&gt;Node7 -->
<g id="edge7" class="edge">
<title>Node3&#45;&gt;Node7</title>
<path fill="none" stroke="midnightblue" d="M262.53,-52.37C254.32,-50.16 245.9,-47.83 238,-45.5 222.45,-40.92 205.54,-35.5 190.54,-30.54"/>
<polygon fill="midnightblue" stroke="midnightblue" points="261.81,-55.8 272.38,-54.97 263.6,-49.03 261.81,-55.8"/>
</g>
<!-- Node5 -->
<g id="node5" class="node">
<title>Node5</title>
<g id="a_node5"><a xlink:href="p__main_8f90.html#aeec10ee8e2940c953967da3e374e1579" target="_top" xlink:title="Quasi&#45;conservative, shock&#45; and interface&#45; capturing finite&#45;volume scheme for the multicomponent Navie...">
<polygon fill="none" stroke="black" points="0,-55 0,-74 53,-74 53,-55 0,-55"/>
<text text-anchor="middle" x="26.5" y="-62" font-family="Helvetica,sans-Serif" font-size="10.00">p_main</text>
</a>
</g>
</g>
<!-- Node4&#45;&gt;Node5 -->
<g id="edge4" class="edge">
<title>Node4&#45;&gt;Node5</title>
<path fill="none" stroke="midnightblue" d="M98.87,-94.39C82.25,-87.43 64.17,-79.86 50.36,-74.08"/>
<polygon fill="midnightblue" stroke="midnightblue" points="97.87,-97.76 108.44,-98.4 100.57,-91.31 97.87,-97.76"/>
</g>
<!-- Node6&#45;&gt;Node5 -->
<g id="edge6" class="edge">
<title>Node6&#45;&gt;Node5</title>
<path fill="none" stroke="midnightblue" d="M78.51,-64.5C69.51,-64.5 60.74,-64.5 53.09,-64.5"/>
<polygon fill="midnightblue" stroke="midnightblue" points="78.74,-68 88.74,-64.5 78.74,-61 78.74,-68"/>
</g>
<!-- Node7&#45;&gt;Node5 -->
<g id="edge8" class="edge">
<title>Node7&#45;&gt;Node5</title>
<path fill="none" stroke="midnightblue" d="M98.87,-34.61C82.25,-41.57 64.17,-49.14 50.36,-54.92"/>
<polygon fill="midnightblue" stroke="midnightblue" points="100.57,-37.69 108.44,-30.6 97.87,-31.24 100.57,-37.69"/>
</g>
</g>
</svg>
