<?xml version="1.0" encoding="UTF-8" standalone="no"?>
<!DOCTYPE svg PUBLIC "-//W3C//DTD SVG 1.1//EN"
 "http://www.w3.org/Graphics/SVG/1.1/DTD/svg11.dtd">
<!-- Generated by graphviz version 2.43.0 (0)
 -->
<!-- Title: m_rhs::s_initialize_rhs_module Pages: 1 -->
<svg width="461pt" height="212pt"
 viewBox="0.00 0.00 461.00 211.50" xmlns="http://www.w3.org/2000/svg" xmlns:xlink="http://www.w3.org/1999/xlink">
<g id="graph0" class="graph" transform="scale(1 1) rotate(0) translate(4 207.5)">
<title>m_rhs::s_initialize_rhs_module</title>
<!-- Node1 -->
<g id="node1" class="node">
<title>Node1</title>
<g id="a_node1"><a xlink:title="The computation of parameters, the allocation of memory, the association of pointers and/or the execu...">
<polygon fill="#999999" stroke="#666666" points="105,-125.5 0,-125.5 0,-95.5 105,-95.5 105,-125.5"/>
<text text-anchor="start" x="8" y="-113.5" font-family="Helvetica,sans-Serif" font-size="10.00">m_rhs::s_initialize</text>
<text text-anchor="middle" x="52.5" y="-102.5" font-family="Helvetica,sans-Serif" font-size="10.00">_rhs_module</text>
</a>
</g>
</g>
<!-- Node2 -->
<g id="node2" class="node">
<title>Node2</title>
<g id="a_node2"><a xlink:href="namespacem__riemann__solvers.html#a1b018ebed82e499a0589925651bba7a7" target="_top" xlink:title=" ">
<polygon fill="white" stroke="#666666" points="263.5,-149.5 143.5,-149.5 143.5,-119.5 263.5,-119.5 263.5,-149.5"/>
<text text-anchor="start" x="151.5" y="-137.5" font-family="Helvetica,sans-Serif" font-size="10.00">m_riemann_solvers::</text>
<text text-anchor="middle" x="203.5" y="-126.5" font-family="Helvetica,sans-Serif" font-size="10.00">s_hll_riemann_solver</text>
</a>
</g>
</g>
<!-- Node1&#45;&gt;Node2 -->
<g id="edge1" class="edge">
<title>Node1&#45;&gt;Node2</title>
<path fill="none" stroke="#63b8ff" d="M105.19,-118.83C114.37,-120.3 124.05,-121.86 133.6,-123.4"/>
<polygon fill="#63b8ff" stroke="#63b8ff" points="133.06,-126.86 143.49,-125 134.17,-119.95 133.06,-126.86"/>
</g>
<!-- Node6 -->
<g id="node6" class="node">
<title>Node6</title>
<g id="a_node6"><a xlink:href="namespacem__riemann__solvers.html#a6c9d70572e9b98586bab20b028557a5a" target="_top" xlink:title="This procedure is the implementation of the Harten, Lax, van Leer, and contact (HLLC) approximate Rie...">
<polygon fill="white" stroke="#666666" points="266,-101.5 141,-101.5 141,-71.5 266,-71.5 266,-101.5"/>
<text text-anchor="start" x="149" y="-89.5" font-family="Helvetica,sans-Serif" font-size="10.00">m_riemann_solvers::</text>
<text text-anchor="middle" x="203.5" y="-78.5" font-family="Helvetica,sans-Serif" font-size="10.00">s_hllc_riemann_solver</text>
</a>
</g>
</g>
<!-- Node1&#45;&gt;Node6 -->
<g id="edge5" class="edge">
<title>Node1&#45;&gt;Node6</title>
<path fill="none" stroke="#63b8ff" d="M105.19,-102.17C113.47,-100.84 122.16,-99.44 130.81,-98.05"/>
<polygon fill="#63b8ff" stroke="#63b8ff" points="131.58,-101.47 140.9,-96.42 130.47,-94.56 131.58,-101.47"/>
</g>
<!-- Node3 -->
<g id="node3" class="node">
<title>Node3</title>
<g id="a_node3"><a xlink:href="namespacem__riemann__solvers.html#ab679d890c95c6cb1ee3dc5e5a9ae1c19" target="_top" xlink:title="Deallocation and/or disassociation procedures that are needed to finalize the selected Riemann proble...">
<polygon fill="white" stroke="#666666" points="449,-203.5 306,-203.5 306,-173.5 449,-173.5 449,-203.5"/>
<text text-anchor="start" x="314" y="-191.5" font-family="Helvetica,sans-Serif" font-size="10.00">m_riemann_solvers::</text>
<text text-anchor="middle" x="377.5" y="-180.5" font-family="Helvetica,sans-Serif" font-size="10.00">s_finalize_riemann_solver</text>
</a>
</g>
</g>
<!-- Node2&#45;&gt;Node3 -->
<g id="edge2" class="edge">
<title>Node2&#45;&gt;Node3</title>
<path fill="none" stroke="#63b8ff" d="M252.41,-149.54C273.01,-156.01 297.27,-163.63 318.85,-170.4"/>
<polygon fill="#63b8ff" stroke="#63b8ff" points="317.96,-173.79 328.55,-173.45 320.05,-167.11 317.96,-173.79"/>
</g>
<!-- Node4 -->
<g id="node4" class="node">
<title>Node4</title>
<g id="a_node4"><a xlink:href="namespacem__riemann__solvers.html#a3f244d4b1bc8e00f8c3c5b6f96aa5448" target="_top" xlink:title="The computation of parameters, the allocation of memory, the association of pointers and/or the execu...">
<polygon fill="white" stroke="#666666" points="437,-155 318,-155 318,-114 437,-114 437,-155"/>
<text text-anchor="start" x="326" y="-143" font-family="Helvetica,sans-Serif" font-size="10.00">m_riemann_solvers::</text>
<text text-anchor="start" x="326" y="-132" font-family="Helvetica,sans-Serif" font-size="10.00">s_initialize_riemann</text>
<text text-anchor="middle" x="377.5" y="-121" font-family="Helvetica,sans-Serif" font-size="10.00">_solver</text>
</a>
</g>
</g>
<!-- Node2&#45;&gt;Node4 -->
<g id="edge3" class="edge">
<title>Node2&#45;&gt;Node4</title>
<path fill="none" stroke="#63b8ff" d="M263.69,-134.5C277.77,-134.5 292.91,-134.5 307.38,-134.5"/>
<polygon fill="#63b8ff" stroke="#63b8ff" points="307.78,-138 317.78,-134.5 307.78,-131 307.78,-138"/>
</g>
<!-- Node5 -->
<g id="node5" class="node">
<title>Node5</title>
<g id="a_node5"><a xlink:href="namespacem__riemann__solvers.html#a2b90cc8425b57f4a7ea4dc0d839e9f75" target="_top" xlink:title="The purpose of this subroutine is to populate the buffers of the left and right Riemann states variab...">
<polygon fill="white" stroke="#666666" points="453,-96 302,-96 302,-55 453,-55 453,-96"/>
<text text-anchor="start" x="310" y="-84" font-family="Helvetica,sans-Serif" font-size="10.00">m_riemann_solvers::</text>
<text text-anchor="start" x="310" y="-73" font-family="Helvetica,sans-Serif" font-size="10.00">s_populate_riemann_states</text>
<text text-anchor="middle" x="377.5" y="-62" font-family="Helvetica,sans-Serif" font-size="10.00">_variables_buffers</text>
</a>
</g>
</g>
<!-- Node2&#45;&gt;Node5 -->
<g id="edge4" class="edge">
<title>Node2&#45;&gt;Node5</title>
<path fill="none" stroke="#63b8ff" d="M248.35,-119.46C266.14,-113.36 287.13,-106.16 306.91,-99.37"/>
<polygon fill="#63b8ff" stroke="#63b8ff" points="308.19,-102.63 316.51,-96.08 305.91,-96.01 308.19,-102.63"/>
</g>
<!-- Node6&#45;&gt;Node3 -->
<g id="edge8" class="edge">
<title>Node6&#45;&gt;Node3</title>
<path fill="none" stroke="#63b8ff" d="M252.15,-101.62C257.07,-104.18 261.8,-107.12 266,-110.5 288.48,-128.58 278.99,-147.11 302,-164.5 303.85,-165.9 305.78,-167.22 307.78,-168.46"/>
<polygon fill="#63b8ff" stroke="#63b8ff" points="306.45,-171.72 316.9,-173.44 309.8,-165.58 306.45,-171.72"/>
</g>
<!-- Node6&#45;&gt;Node4 -->
<g id="edge9" class="edge">
<title>Node6&#45;&gt;Node4</title>
<path fill="none" stroke="#63b8ff" d="M258.45,-101.56C274.26,-105.97 291.76,-110.85 308.34,-115.48"/>
<polygon fill="#63b8ff" stroke="#63b8ff" points="307.4,-118.85 317.97,-118.17 309.28,-112.11 307.4,-118.85"/>
</g>
<!-- Node6&#45;&gt;Node5 -->
<g id="edge10" class="edge">
<title>Node6&#45;&gt;Node5</title>
<path fill="none" stroke="#63b8ff" d="M266.11,-82.56C274.42,-82.03 283.07,-81.48 291.7,-80.92"/>
<polygon fill="#63b8ff" stroke="#63b8ff" points="292.04,-84.41 301.8,-80.28 291.6,-77.42 292.04,-84.41"/>
</g>
<!-- Node7 -->
<g id="node7" class="node">
<title>Node7</title>
<g id="a_node7"><a xlink:href="namespacem__bubbles.html#a3b5690b07dda1b3660cb5539ec5fd920" target="_top" xlink:title="Function that computes the bubble wall pressure for Keller–Miksis bubbles.">
<polygon fill="white" stroke="#666666" points="443,-19 312,-19 312,0 443,0 443,-19"/>
<text text-anchor="middle" x="377.5" y="-7" font-family="Helvetica,sans-Serif" font-size="10.00">m_bubbles::f_cpbw_km</text>
</a>
</g>
</g>
<!-- Node6&#45;&gt;Node7 -->
<g id="edge6" class="edge">
<title>Node6&#45;&gt;Node7</title>
<path fill="none" stroke="#63b8ff" d="M238.07,-71.47C269.3,-57.49 315.44,-36.83 345.74,-23.27"/>
<polygon fill="#63b8ff" stroke="#63b8ff" points="347.28,-26.42 354.98,-19.14 344.42,-20.03 347.28,-26.42"/>
</g>
<!-- Node7&#45;&gt;Node7 -->
<g id="edge7" class="edge">
<title>Node7&#45;&gt;Node7</title>
<path fill="none" stroke="#63b8ff" d="M350.68,-19.08C337.63,-27.73 346.57,-37 377.5,-37 398.28,-37 409.13,-32.82 410.06,-27.45"/>
<polygon fill="#63b8ff" stroke="#63b8ff" points="412.86,-25.35 404.32,-19.08 407.09,-29.31 412.86,-25.35"/>
</g>
</g>
</svg>
