<?xml version="1.0" encoding="UTF-8" standalone="no"?>
<!DOCTYPE svg PUBLIC "-//W3C//DTD SVG 1.1//EN"
 "http://www.w3.org/Graphics/SVG/1.1/DTD/svg11.dtd">
<!-- Generated by graphviz version 2.43.0 (0)
 -->
<!-- Title: m_start_up::s_finalize_modules Pages: 1 -->
<svg width="546pt" height="595pt"
 viewBox="0.00 0.00 546.00 594.50" xmlns="http://www.w3.org/2000/svg" xmlns:xlink="http://www.w3.org/1999/xlink">
<g id="graph0" class="graph" transform="scale(1 1) rotate(0) translate(4 590.5)">
<title>m_start_up::s_finalize_modules</title>
<!-- Node1 -->
<g id="Node000001" class="node">
<title>Node1</title>
<g id="a_Node000001"><a xlink:title=" ">
<polygon fill="#999999" stroke="#666666" points="123,-302.5 0,-302.5 0,-272.5 123,-272.5 123,-302.5"/>
<text text-anchor="start" x="8" y="-290.5" font-family="Helvetica,sans-Serif" font-size="10.00">m_start_up::s_finalize</text>
<text text-anchor="middle" x="61.5" y="-279.5" font-family="Helvetica,sans-Serif" font-size="10.00">_modules</text>
</a>
</g>
</g>
<!-- Node2 -->
<g id="Node000002" class="node">
<title>Node2</title>
<g id="a_Node000002"><a xlink:href="namespacem__cbc.html#a76b737dff5c827677888ffde0aff9cf1" target="_top" xlink:title="Module deallocation and/or disassociation procedures.">
<polygon fill="white" stroke="#666666" points="299.5,-586.5 177.5,-586.5 177.5,-556.5 299.5,-556.5 299.5,-586.5"/>
<text text-anchor="start" x="185.5" y="-574.5" font-family="Helvetica,sans-Serif" font-size="10.00">m_cbc::s_finalize_cbc</text>
<text text-anchor="middle" x="238.5" y="-563.5" font-family="Helvetica,sans-Serif" font-size="10.00">_module</text>
</a>
</g>
</g>
<!-- Node1&#45;&gt;Node2 -->
<g id="edge1_Node000001_Node000002" class="edge">
<title>Node1&#45;&gt;Node2</title>
<g id="a_edge1_Node000001_Node000002"><a xlink:title=" ">
<path fill="none" stroke="#63b8ff" d="M63.57,-302.63C67.54,-346.99 85.26,-477.97 159,-547.5 161.89,-550.23 165.09,-552.64 168.48,-554.79"/>
<polygon fill="#63b8ff" stroke="#63b8ff" points="166.82,-557.87 177.28,-559.57 170.16,-551.72 166.82,-557.87"/>
</a>
</g>
</g>
<!-- Node3 -->
<g id="Node000003" class="node">
<title>Node3</title>
<g id="a_Node000003"><a xlink:href="m__data__output_8fpp_8f90.html#adfb2d0b7d3fa72ec3d95f0b1b444b371" target="_top" xlink:title="Module deallocation and/or disassociation procedures.">
<polygon fill="white" stroke="#666666" points="301.5,-538.5 175.5,-538.5 175.5,-508.5 301.5,-508.5 301.5,-538.5"/>
<text text-anchor="start" x="183.5" y="-526.5" font-family="Helvetica,sans-Serif" font-size="10.00">s_finalize_data_output</text>
<text text-anchor="middle" x="238.5" y="-515.5" font-family="Helvetica,sans-Serif" font-size="10.00">_module</text>
</a>
</g>
</g>
<!-- Node1&#45;&gt;Node3 -->
<g id="edge2_Node000001_Node000003" class="edge">
<title>Node1&#45;&gt;Node3</title>
<g id="a_edge2_Node000001_Node000003"><a xlink:title=" ">
<path fill="none" stroke="#63b8ff" d="M64.99,-302.6C72.17,-341.27 96.53,-444.69 159,-499.5 161.33,-501.55 163.84,-503.42 166.47,-505.14"/>
<polygon fill="#63b8ff" stroke="#63b8ff" points="164.82,-508.22 175.25,-510.08 168.26,-502.12 164.82,-508.22"/>
</a>
</g>
</g>
<!-- Node4 -->
<g id="Node000004" class="node">
<title>Node4</title>
<g id="a_Node000004"><a xlink:href="namespacem__derived__variables.html#a735665bf598281689158d9d6e075f3d4" target="_top" xlink:title="Deallocation procedures for the module.">
<polygon fill="white" stroke="#666666" points="298,-490 179,-490 179,-449 298,-449 298,-490"/>
<text text-anchor="start" x="187" y="-478" font-family="Helvetica,sans-Serif" font-size="10.00">m_derived_variables</text>
<text text-anchor="start" x="187" y="-467" font-family="Helvetica,sans-Serif" font-size="10.00">::s_finalize_derived</text>
<text text-anchor="middle" x="238.5" y="-456" font-family="Helvetica,sans-Serif" font-size="10.00">_variables_module</text>
</a>
</g>
</g>
<!-- Node1&#45;&gt;Node4 -->
<g id="edge3_Node000001_Node000004" class="edge">
<title>Node1&#45;&gt;Node4</title>
<g id="a_edge3_Node000001_Node000004"><a xlink:title=" ">
<path fill="none" stroke="#63b8ff" d="M68.22,-302.85C80.33,-333.35 111.42,-401.95 159,-440.5 162.46,-443.3 166.21,-445.85 170.15,-448.16"/>
<polygon fill="#63b8ff" stroke="#63b8ff" points="168.51,-451.26 178.99,-452.86 171.8,-445.08 168.51,-451.26"/>
</a>
</g>
</g>
<!-- Node6 -->
<g id="Node000006" class="node">
<title>Node6</title>
<g id="a_Node000006"><a xlink:href="m__fftw_8fpp_8f90.html#a8670dd411b13a2c33ce50710a5ef4a72" target="_top" xlink:title="The purpose of this subroutine is to destroy the fftw plan that will be used in the forward and backw...">
<polygon fill="white" stroke="#666666" points="302.5,-431 174.5,-431 174.5,-412 302.5,-412 302.5,-431"/>
<text text-anchor="middle" x="238.5" y="-419" font-family="Helvetica,sans-Serif" font-size="10.00">s_finalize_fftw_module</text>
</a>
</g>
</g>
<!-- Node1&#45;&gt;Node6 -->
<g id="edge5_Node000001_Node000006" class="edge">
<title>Node1&#45;&gt;Node6</title>
<g id="a_edge5_Node000001_Node000006"><a xlink:title=" ">
<path fill="none" stroke="#63b8ff" d="M70.96,-302.86C85.53,-327.82 117.8,-376.95 159,-402.5 162.55,-404.7 166.34,-406.65 170.27,-408.37"/>
<polygon fill="#63b8ff" stroke="#63b8ff" points="169.03,-411.65 179.62,-411.99 171.55,-405.12 169.03,-411.65"/>
</a>
</g>
</g>
<!-- Node7 -->
<g id="Node000007" class="node">
<title>Node7</title>
<g id="a_Node000007"><a xlink:href="m__global__parameters_8fpp_8f90.html#a841a184dd7755c545fea8fe1506926b6" target="_top" xlink:title="Module deallocation and/or disassociation procedures.">
<polygon fill="white" stroke="#666666" points="318,-393.5 159,-393.5 159,-363.5 318,-363.5 318,-393.5"/>
<text text-anchor="start" x="167" y="-381.5" font-family="Helvetica,sans-Serif" font-size="10.00">s_finalize_global_parameters</text>
<text text-anchor="middle" x="238.5" y="-370.5" font-family="Helvetica,sans-Serif" font-size="10.00">_module</text>
</a>
</g>
</g>
<!-- Node1&#45;&gt;Node7 -->
<g id="edge6_Node000001_Node000007" class="edge">
<title>Node1&#45;&gt;Node7</title>
<g id="a_edge6_Node000001_Node000007"><a xlink:title=" ">
<path fill="none" stroke="#63b8ff" d="M80.65,-302.69C99.29,-317.64 129.64,-340.25 159,-354.5 162.82,-356.35 166.82,-358.1 170.9,-359.74"/>
<polygon fill="#63b8ff" stroke="#63b8ff" points="169.93,-363.12 180.52,-363.38 172.4,-356.57 169.93,-363.12"/>
</a>
</g>
</g>
<!-- Node8 -->
<g id="Node000008" class="node">
<title>Node8</title>
<g id="a_Node000008"><a xlink:href="m__mpi__proxy_8fpp_8f90.html#aed5e69351e389cdca5b8deff13ba1a92" target="_top" xlink:title="Module deallocation and/or disassociation procedures.">
<polygon fill="white" stroke="#666666" points="298,-345.5 179,-345.5 179,-315.5 298,-315.5 298,-345.5"/>
<text text-anchor="start" x="187" y="-333.5" font-family="Helvetica,sans-Serif" font-size="10.00">s_finalize_mpi_proxy</text>
<text text-anchor="middle" x="238.5" y="-322.5" font-family="Helvetica,sans-Serif" font-size="10.00">_module</text>
</a>
</g>
</g>
<!-- Node1&#45;&gt;Node8 -->
<g id="edge7_Node000001_Node000008" class="edge">
<title>Node1&#45;&gt;Node8</title>
<g id="a_edge7_Node000001_Node000008"><a xlink:title=" ">
<path fill="none" stroke="#63b8ff" d="M123.22,-302.42C138.03,-306.06 153.99,-309.98 169.14,-313.7"/>
<polygon fill="#63b8ff" stroke="#63b8ff" points="168.41,-317.13 178.96,-316.12 170.08,-310.33 168.41,-317.13"/>
</a>
</g>
</g>
<!-- Node9 -->
<g id="Node000009" class="node">
<title>Node9</title>
<g id="a_Node000009"><a xlink:href="m__rhs_8fpp_8f90.html#ae26471c3379c2d6797c51f2c973e963c" target="_top" xlink:title="Module deallocation and/or disassociation procedures.">
<polygon fill="white" stroke="#666666" points="301,-297 176,-297 176,-278 301,-278 301,-297"/>
<text text-anchor="middle" x="238.5" y="-285" font-family="Helvetica,sans-Serif" font-size="10.00">s_finalize_rhs_module</text>
</a>
</g>
</g>
<!-- Node1&#45;&gt;Node9 -->
<g id="edge8_Node000001_Node000009" class="edge">
<title>Node1&#45;&gt;Node9</title>
<g id="a_edge8_Node000001_Node000009"><a xlink:title=" ">
<path fill="none" stroke="#63b8ff" d="M123.22,-287.5C136.88,-287.5 151.51,-287.5 165.58,-287.5"/>
<polygon fill="#63b8ff" stroke="#63b8ff" points="165.71,-291 175.71,-287.5 165.71,-284 165.71,-291"/>
</a>
</g>
</g>
<!-- Node10 -->
<g id="Node000010" class="node">
<title>Node10</title>
<g id="a_Node000010"><a xlink:href="namespacem__riemann__solvers.html#a5bd1ce6fbbb840b5b1c6dd97ccb8d674" target="_top" xlink:title="Module deallocation and/or disassociation procedures.">
<polygon fill="white" stroke="#666666" points="313,-260 164,-260 164,-219 313,-219 313,-260"/>
<text text-anchor="start" x="172" y="-248" font-family="Helvetica,sans-Serif" font-size="10.00">m_riemann_solvers::</text>
<text text-anchor="start" x="172" y="-237" font-family="Helvetica,sans-Serif" font-size="10.00">s_finalize_riemann_solvers</text>
<text text-anchor="middle" x="238.5" y="-226" font-family="Helvetica,sans-Serif" font-size="10.00">_module</text>
</a>
</g>
</g>
<!-- Node1&#45;&gt;Node10 -->
<g id="edge9_Node000001_Node000010" class="edge">
<title>Node1&#45;&gt;Node10</title>
<g id="a_edge9_Node000001_Node000010"><a xlink:title=" ">
<path fill="none" stroke="#63b8ff" d="M117.39,-272.44C129.02,-269.26 141.54,-265.82 153.96,-262.41"/>
<polygon fill="#63b8ff" stroke="#63b8ff" points="155.16,-265.72 163.87,-259.69 153.3,-258.96 155.16,-265.72"/>
</a>
</g>
</g>
<!-- Node11 -->
<g id="Node000011" class="node">
<title>Node11</title>
<g id="a_Node000011"><a xlink:href="m__time__steppers_8fpp_8f90.html#a991d007a2bc729f8aa8a14157fc8f340" target="_top" xlink:title="Module deallocation and/or disassociation procedures.">
<polygon fill="white" stroke="#666666" points="307,-200.5 170,-200.5 170,-170.5 307,-170.5 307,-200.5"/>
<text text-anchor="start" x="178" y="-188.5" font-family="Helvetica,sans-Serif" font-size="10.00">s_finalize_time_steppers</text>
<text text-anchor="middle" x="238.5" y="-177.5" font-family="Helvetica,sans-Serif" font-size="10.00">_module</text>
</a>
</g>
</g>
<!-- Node1&#45;&gt;Node11 -->
<g id="edge10_Node000001_Node000011" class="edge">
<title>Node1&#45;&gt;Node11</title>
<g id="a_edge10_Node000001_Node000011"><a xlink:title=" ">
<path fill="none" stroke="#63b8ff" d="M77.54,-272.2C95.47,-254.76 127.04,-226.48 159,-209.5 162.44,-207.67 166.04,-205.96 169.73,-204.36"/>
<polygon fill="#63b8ff" stroke="#63b8ff" points="171.07,-207.6 179.04,-200.62 168.45,-201.1 171.07,-207.6"/>
</a>
</g>
</g>
<!-- Node13 -->
<g id="Node000013" class="node">
<title>Node13</title>
<g id="a_Node000013"><a xlink:href="m__variables__conversion_8fpp_8f90.html#ace14d66a864f202904444921d6927a20" target="_top" xlink:title=" ">
<polygon fill="white" stroke="#666666" points="297,-152.5 180,-152.5 180,-122.5 297,-122.5 297,-152.5"/>
<text text-anchor="start" x="188" y="-140.5" font-family="Helvetica,sans-Serif" font-size="10.00">s_finalize_variables</text>
<text text-anchor="middle" x="238.5" y="-129.5" font-family="Helvetica,sans-Serif" font-size="10.00">_conversion_module</text>
</a>
</g>
</g>
<!-- Node1&#45;&gt;Node13 -->
<g id="edge12_Node000001_Node000013" class="edge">
<title>Node1&#45;&gt;Node13</title>
<g id="a_edge12_Node000001_Node000013"><a xlink:title=" ">
<path fill="none" stroke="#63b8ff" d="M70.08,-272.23C84.01,-245.73 116.23,-191.2 159,-161.5 162.65,-158.96 166.58,-156.69 170.67,-154.65"/>
<polygon fill="#63b8ff" stroke="#63b8ff" points="172.12,-157.83 179.81,-150.55 169.26,-151.45 172.12,-157.83"/>
</a>
</g>
</g>
<!-- Node14 -->
<g id="Node000014" class="node">
<title>Node14</title>
<g id="a_Node000014"><a xlink:href="m__viscous_8fpp_8f90.html#af6e985e68f4bbcb8f86c1dc6dd47e14a" target="_top" xlink:title=" ">
<polygon fill="white" stroke="#666666" points="290.5,-104.5 186.5,-104.5 186.5,-74.5 290.5,-74.5 290.5,-104.5"/>
<text text-anchor="start" x="194.5" y="-92.5" font-family="Helvetica,sans-Serif" font-size="10.00">s_finalize_viscous</text>
<text text-anchor="middle" x="238.5" y="-81.5" font-family="Helvetica,sans-Serif" font-size="10.00">_module</text>
</a>
</g>
</g>
<!-- Node1&#45;&gt;Node14 -->
<g id="edge13_Node000001_Node000014" class="edge">
<title>Node1&#45;&gt;Node14</title>
<g id="a_edge13_Node000001_Node000014"><a xlink:title=" ">
<path fill="none" stroke="#63b8ff" d="M66.62,-272.4C76.61,-238.72 105.31,-156.97 159,-113.5 164.36,-109.16 170.49,-105.61 176.92,-102.69"/>
<polygon fill="#63b8ff" stroke="#63b8ff" points="178.51,-105.83 186.5,-98.87 175.91,-99.33 178.51,-105.83"/>
</a>
</g>
</g>
<!-- Node15 -->
<g id="Node000015" class="node">
<title>Node15</title>
<g id="a_Node000015"><a xlink:href="m__weno_8fpp_8f90.html#a58db4ca1aba01851c9aca95c2b57be37" target="_top" xlink:title="Module deallocation and/or disassociation procedures.">
<polygon fill="white" stroke="#666666" points="306.5,-56 170.5,-56 170.5,-37 306.5,-37 306.5,-56"/>
<text text-anchor="middle" x="238.5" y="-44" font-family="Helvetica,sans-Serif" font-size="10.00">s_finalize_weno_module</text>
</a>
</g>
</g>
<!-- Node1&#45;&gt;Node15 -->
<g id="edge14_Node000001_Node000015" class="edge">
<title>Node1&#45;&gt;Node15</title>
<g id="a_edge14_Node000001_Node000015"><a xlink:title=" ">
<path fill="none" stroke="#63b8ff" d="M64.43,-272.37C70.42,-232.08 92.41,-121.48 159,-65.5 161.02,-63.8 163.17,-62.25 165.41,-60.84"/>
<polygon fill="#63b8ff" stroke="#63b8ff" points="167.3,-63.8 174.48,-56.01 164.01,-57.61 167.3,-63.8"/>
</a>
</g>
</g>
<!-- Node16 -->
<g id="Node000016" class="node">
<title>Node16</title>
<g id="a_Node000016"><a xlink:href="m__mpi__common_8fpp_8f90.html#a284ab739ceaa5d422dcf5fed4a1e82ae" target="_top" xlink:title="The subroutine finalizes the MPI execution environment.">
<polygon fill="white" stroke="#666666" points="281.5,-19 195.5,-19 195.5,0 281.5,0 281.5,-19"/>
<text text-anchor="middle" x="238.5" y="-7" font-family="Helvetica,sans-Serif" font-size="10.00">s_mpi_finalize</text>
</a>
</g>
</g>
<!-- Node1&#45;&gt;Node16 -->
<g id="edge15_Node000001_Node000016" class="edge">
<title>Node1&#45;&gt;Node16</title>
<g id="a_edge15_Node000001_Node000016"><a xlink:title=" ">
<path fill="none" stroke="#63b8ff" d="M63.32,-272.44C66.6,-227.69 82.65,-94.52 159,-27.5 166.41,-21 175.69,-16.71 185.25,-13.91"/>
<polygon fill="#63b8ff" stroke="#63b8ff" points="186.35,-17.25 195.25,-11.51 184.71,-10.44 186.35,-17.25"/>
</a>
</g>
</g>
<!-- Node5 -->
<g id="Node000005" class="node">
<title>Node5</title>
<g id="a_Node000005"><a xlink:href="m__data__output_8fpp_8f90.html#a054c018432ed00347e85e1deb37df095" target="_top" xlink:title="Closes probe files.">
<polygon fill="white" stroke="#666666" points="501.5,-479 390.5,-479 390.5,-460 501.5,-460 501.5,-479"/>
<text text-anchor="middle" x="446" y="-467" font-family="Helvetica,sans-Serif" font-size="10.00">s_close_probe_files</text>
</a>
</g>
</g>
<!-- Node4&#45;&gt;Node5 -->
<g id="edge4_Node000004_Node000005" class="edge">
<title>Node4&#45;&gt;Node5</title>
<g id="a_edge4_Node000004_Node000005"><a xlink:title=" ">
<path fill="none" stroke="#63b8ff" d="M298.11,-469.5C323.67,-469.5 353.72,-469.5 379.96,-469.5"/>
<polygon fill="#63b8ff" stroke="#63b8ff" points="380.19,-473 390.19,-469.5 380.19,-466 380.19,-473"/>
</a>
</g>
</g>
<!-- Node12 -->
<g id="Node000012" class="node">
<title>Node12</title>
<g id="a_Node000012"><a xlink:href="m__data__output_8fpp_8f90.html#a37139b5e482cc421d91a167214846d02" target="_top" xlink:title="The goal of this subroutine is to write to the run&#45;time information file basic footer information app...">
<polygon fill="white" stroke="#666666" points="538,-195 354,-195 354,-176 538,-176 538,-195"/>
<text text-anchor="middle" x="446" y="-183" font-family="Helvetica,sans-Serif" font-size="10.00">s_close_run_time_information_file</text>
</a>
</g>
</g>
<!-- Node11&#45;&gt;Node12 -->
<g id="edge11_Node000011_Node000012" class="edge">
<title>Node11&#45;&gt;Node12</title>
<g id="a_edge11_Node000011_Node000012"><a xlink:title=" ">
<path fill="none" stroke="#63b8ff" d="M307.07,-185.5C318.77,-185.5 331.16,-185.5 343.53,-185.5"/>
<polygon fill="#63b8ff" stroke="#63b8ff" points="343.89,-189 353.89,-185.5 343.89,-182 343.89,-189"/>
</a>
</g>
</g>
</g>
</svg>
