<?xml version="1.0" encoding="UTF-8" standalone="no"?>
<!DOCTYPE svg PUBLIC "-//W3C//DTD SVG 1.1//EN"
 "http://www.w3.org/Graphics/SVG/1.1/DTD/svg11.dtd">
<!-- Generated by graphviz version 2.43.0 (0)
 -->
<!-- Title: m_viscous::s_get_viscous Pages: 1 -->
<!--zoomable 137 -->
<svg id="main" version="1.1" xmlns="http://www.w3.org/2000/svg" xmlns:xlink="http://www.w3.org/1999/xlink" xml:space="preserve" onload="init(evt)">
<style type="text/css"><![CDATA[
.edge:hover path { stroke: red; }
.edge:hover polygon { stroke: red; fill: red; }
]]></style>
<script type="text/javascript"><![CDATA[
var edges = document.getElementsByTagName('g');
if (edges && edges.length) {
  for (var i=0;i<edges.length;i++) {
    if (edges[i].id.substr(0,4)=='edge') {
      edges[i].setAttribute('class','edge');
    }
  }
}
]]></script>
        <defs>
                <circle id="rim" cx="0" cy="0" r="7"/>
                <circle id="rim2" cx="0" cy="0" r="3.5"/>
                <g id="zoomPlus">
                        <use xlink:href="#rim" fill="#404040">
                                <set attributeName="fill" to="#808080" begin="zoomplus.mouseover" end="zoomplus.mouseout"/>
                        </use>
                        <path d="M-4,0h8M0,-4v8" fill="none" stroke="white" stroke-width="1.5" pointer-events="none"/>
                </g>
                <g id="zoomMin">
                        <use xlink:href="#rim" fill="#404040">
                                <set attributeName="fill" to="#808080" begin="zoomminus.mouseover" end="zoomminus.mouseout"/>
                        </use>
                        <path d="M-4,0h8" fill="none" stroke="white" stroke-width="1.5" pointer-events="none"/>
                </g>
                <g id="dirArrow">
                        <path fill="none" stroke="white" stroke-width="1.5" d="M0,-3.0v7 M-2.5,-0.5L0,-3.0L2.5,-0.5"/>
                </g>
               <g id="resetDef">
                       <use xlink:href="#rim2" fill="#404040">
                               <set attributeName="fill" to="#808080" begin="reset.mouseover" end="reset.mouseout"/>
                       </use>
               </g>
        </defs>

<script type="text/javascript">
var viewWidth = 665;
var viewHeight = 137;
var sectionId = 'dynsection-3';
</script>
<script xlink:href="svgpan.js"/>
<svg id="graph" class="graph">
<g id="viewport">
<title>m_viscous::s_get_viscous</title>
<!-- Node1 -->
<g id="node1" class="node">
<title>Node1</title>
<g id="a_node1"><a xlink:title="Computes viscous terms.">
<polygon fill="#bfbfbf" stroke="black" points="0,-55 0,-74 143,-74 143,-55 0,-55"/>
<text text-anchor="middle" x="71.5" y="-62" font-family="Helvetica,sans-Serif" font-size="10.00">m_viscous::s_get_viscous</text>
</a>
</g>
</g>
<!-- Node2 -->
<g id="node2" class="node">
<title>Node2</title>
<g id="a_node2"><a xlink:href="namespacem__viscous.html#aa03e4755149c3afe7501cf859719bc97" target="_top" xlink:title="The purpose of this subroutine is to employ the inputted left and right cell&#45;boundary integral&#45;averag...">
<polygon fill="none" stroke="black" points="179,-98.5 179,-128.5 336,-128.5 336,-98.5 179,-98.5"/>
<text text-anchor="start" x="187" y="-116.5" font-family="Helvetica,sans-Serif" font-size="10.00">m_viscous::s_apply</text>
<text text-anchor="middle" x="257.5" y="-105.5" font-family="Helvetica,sans-Serif" font-size="10.00">_scalar_divergence_theorem</text>
</a>
</g>
</g>
<!-- Node1&#45;&gt;Node2 -->
<g id="edge1" class="edge">
<title>Node1&#45;&gt;Node2</title>
<path fill="none" stroke="midnightblue" d="M108.41,-74.06C131.61,-80.24 162.49,-88.46 190.05,-95.8"/>
<polygon fill="midnightblue" stroke="midnightblue" points="189.47,-99.27 200.03,-98.46 191.27,-92.51 189.47,-99.27"/>
</g>
<!-- Node3 -->
<g id="node3" class="node">
<title>Node3</title>
<g id="a_node3"><a xlink:href="namespacem__viscous.html#a7e34fc1e886ecabc9717580c082d9661" target="_top" xlink:title="Computes the scalar gradient fields via finite differences.">
<polygon fill="none" stroke="black" points="193.5,-49.5 193.5,-79.5 321.5,-79.5 321.5,-49.5 193.5,-49.5"/>
<text text-anchor="start" x="201.5" y="-67.5" font-family="Helvetica,sans-Serif" font-size="10.00">m_viscous::s_compute</text>
<text text-anchor="middle" x="257.5" y="-56.5" font-family="Helvetica,sans-Serif" font-size="10.00">_fd_gradient</text>
</a>
</g>
</g>
<!-- Node1&#45;&gt;Node3 -->
<g id="edge2" class="edge">
<title>Node1&#45;&gt;Node3</title>
<path fill="none" stroke="midnightblue" d="M143.11,-64.5C156.15,-64.5 169.79,-64.5 182.91,-64.5"/>
<polygon fill="midnightblue" stroke="midnightblue" points="183.3,-68 193.3,-64.5 183.3,-61 183.3,-68"/>
</g>
<!-- Node4 -->
<g id="node4" class="node">
<title>Node4</title>
<g id="a_node4"><a xlink:href="namespacem__viscous.html#a5444ae18cefee9f89a50427b2c0be45b" target="_top" xlink:title=" ">
<polygon fill="none" stroke="black" points="181.5,-0.5 181.5,-30.5 333.5,-30.5 333.5,-0.5 181.5,-0.5"/>
<text text-anchor="start" x="189.5" y="-18.5" font-family="Helvetica,sans-Serif" font-size="10.00">m_viscous::s_reconstruct</text>
<text text-anchor="middle" x="257.5" y="-7.5" font-family="Helvetica,sans-Serif" font-size="10.00">_cell_boundary_values_visc</text>
</a>
</g>
</g>
<!-- Node1&#45;&gt;Node4 -->
<g id="edge3" class="edge">
<title>Node1&#45;&gt;Node4</title>
<path fill="none" stroke="midnightblue" d="M108.41,-54.94C131.61,-48.76 162.49,-40.54 190.05,-33.2"/>
<polygon fill="midnightblue" stroke="midnightblue" points="191.27,-36.49 200.03,-30.54 189.47,-29.73 191.27,-36.49"/>
</g>
<!-- Node5 -->
<g id="node5" class="node">
<title>Node5</title>
<g id="a_node5"><a xlink:href="namespacem__weno.html#a3fa127f5914f106740f72aa4af745bef" target="_top" xlink:title=" ">
<polygon fill="none" stroke="black" points="372,-6 372,-25 473,-25 473,-6 372,-6"/>
<text text-anchor="middle" x="422.5" y="-13" font-family="Helvetica,sans-Serif" font-size="10.00">m_weno::s_weno</text>
</a>
</g>
</g>
<!-- Node4&#45;&gt;Node5 -->
<g id="edge4" class="edge">
<title>Node4&#45;&gt;Node5</title>
<path fill="none" stroke="midnightblue" d="M333.8,-15.5C343.13,-15.5 352.57,-15.5 361.63,-15.5"/>
<polygon fill="midnightblue" stroke="midnightblue" points="361.67,-19 371.67,-15.5 361.67,-12 361.67,-19"/>
</g>
<!-- Node6 -->
<g id="node6" class="node">
<title>Node6</title>
<g id="a_node6"><a xlink:href="namespacem__weno.html#ac5c7a0754b0624a47b0152c759ee1789" target="_top" xlink:title="The computation of parameters, the allocation of memory, the association of pointers and/or the execu...">
<polygon fill="none" stroke="black" points="509,-6 509,-25 657,-25 657,-6 509,-6"/>
<text text-anchor="middle" x="583" y="-13" font-family="Helvetica,sans-Serif" font-size="10.00">m_weno::s_initialize_weno</text>
</a>
</g>
</g>
<!-- Node5&#45;&gt;Node6 -->
<g id="edge5" class="edge">
<title>Node5&#45;&gt;Node6</title>
<path fill="none" stroke="midnightblue" d="M473.22,-15.5C481.37,-15.5 490.02,-15.5 498.72,-15.5"/>
<polygon fill="midnightblue" stroke="midnightblue" points="498.95,-19 508.95,-15.5 498.95,-12 498.95,-19"/>
</g>
</g>
</svg>
        <g id="navigator" transform="translate(0 0)" fill="#404254">
                <rect fill="#f2f5e9" fill-opacity="0.5" stroke="#606060" stroke-width=".5" x="0" y="0" width="60" height="60"/>
                <use id="zoomplus" xlink:href="#zoomPlus" x="17" y="9" onmousedown="handleZoom(evt,'in')"/>
                <use id="zoomminus" xlink:href="#zoomMin" x="42" y="9" onmousedown="handleZoom(evt,'out')"/>
                <use id="reset" xlink:href="#resetDef" x="30" y="36" onmousedown="handleReset()"/>
                <g id="arrowUp" xlink:href="#dirArrow" transform="translate(30 24)" onmousedown="handlePan(0,-1)">
                  <use xlink:href="#rim" fill="#404040">
                        <set attributeName="fill" to="#808080" begin="arrowUp.mouseover" end="arrowUp.mouseout"/>
                  </use>
                  <path fill="none" stroke="white" stroke-width="1.5" d="M0,-3.0v7 M-2.5,-0.5L0,-3.0L2.5,-0.5"/>
                </g>
                <g id="arrowRight" xlink:href="#dirArrow" transform="rotate(90) translate(36 -43)" onmousedown="handlePan(1,0)">
                  <use xlink:href="#rim" fill="#404040">
                        <set attributeName="fill" to="#808080" begin="arrowRight.mouseover" end="arrowRight.mouseout"/>
                  </use>
                  <path fill="none" stroke="white" stroke-width="1.5" d="M0,-3.0v7 M-2.5,-0.5L0,-3.0L2.5,-0.5"/>
                </g>
                <g id="arrowDown" xlink:href="#dirArrow" transform="rotate(180) translate(-30 -48)" onmousedown="handlePan(0,1)">
                  <use xlink:href="#rim" fill="#404040">
                        <set attributeName="fill" to="#808080" begin="arrowDown.mouseover" end="arrowDown.mouseout"/>
                  </use>
                  <path fill="none" stroke="white" stroke-width="1.5" d="M0,-3.0v7 M-2.5,-0.5L0,-3.0L2.5,-0.5"/>
                </g>
                <g id="arrowLeft" xlink:href="#dirArrow" transform="rotate(270) translate(-36 17)" onmousedown="handlePan(-1,0)">
                  <use xlink:href="#rim" fill="#404040">
                        <set attributeName="fill" to="#808080" begin="arrowLeft.mouseover" end="arrowLeft.mouseout"/>
                  </use>
                  <path fill="none" stroke="white" stroke-width="1.5" d="M0,-3.0v7 M-2.5,-0.5L0,-3.0L2.5,-0.5"/>
                </g>
        </g>
        <svg viewBox="0 0 15 15" width="100%" height="30px" preserveAspectRatio="xMaxYMin meet">
         <g id="arrow_out" transform="scale(0.3 0.3)">
          <a xlink:href="namespacem__viscous_af773354ab827db325ff69118c6e36423_cgraph_org.svg" target="_base">
           <rect id="button" ry="5" rx="5" y="6" x="6" height="38" width="38"
                fill="#f2f5e9" fill-opacity="0.5" stroke="#606060" stroke-width="1.0"/>
           <path id="arrow"
             d="M 11.500037,31.436501 C 11.940474,20.09759 22.043105,11.32322 32.158766,21.979434 L 37.068811,17.246167 C 37.068811,17.246167 37.088388,32 37.088388,32 L 22.160133,31.978069 C 22.160133,31.978069 26.997745,27.140456 26.997745,27.140456 C 18.528582,18.264221 13.291696,25.230495 11.500037,31.436501 z"
             style="fill:#404040;"/>
          </a>
         </g>
        </svg>
</svg>
