<?xml version="1.0" encoding="UTF-8" standalone="no"?>
<!DOCTYPE svg PUBLIC "-//W3C//DTD SVG 1.1//EN"
 "http://www.w3.org/Graphics/SVG/1.1/DTD/svg11.dtd">
<!-- Generated by graphviz version 2.43.0 (0)
 -->
<!-- Title: __m_helper_fpp_f90__ Pages: 1 -->
<!--zoomable 550 -->

<svg id="main" version="1.1" xmlns="http://www.w3.org/2000/svg" xmlns:xlink="http://www.w3.org/1999/xlink" xml:space="preserve" onload="init(evt)">
<style type="text/css"><![CDATA[
.node, .edge {opacity: 0.7;}
.node.selected, .edge.selected {opacity: 1;}
.edge:hover path { stroke: red; }
.edge:hover polygon { stroke: red; fill: red; }
]]></style>

<defs>
  <circle id="rim" cx="0" cy="0" r="7"/>
  <circle id="rim2" cx="0" cy="0" r="3.5"/>
  <g id="zoomPlus">
    <use xlink:href="#rim" fill="#404040"><set attributeName="fill" to="#808080" begin="zoomplus.mouseover" end="zoomplus.mouseout"/></use>
    <path d="M-4,0h8M0,-4v8" fill="none" stroke="white" stroke-width="1.5" pointer-events="none"/>
  </g>
  <g id="zoomMin">
    <use xlink:href="#rim" fill="#404040"><set attributeName="fill" to="#808080" begin="zoomminus.mouseover" end="zoomminus.mouseout"/></use>
    <path d="M-4,0h8" fill="none" stroke="white" stroke-width="1.5" pointer-events="none"/>
  </g>
  <g id="arrowUp" transform="translate(30 24)">
    <use xlink:href="#rim"/>
    <path pointer-events="none" fill="none" stroke="white" stroke-width="1.5" d="M0,-3.0v7 M-2.5,-0.5L0,-3.0L2.5,-0.5"/>
  </g>
  <g id="arrowRight" transform="rotate(90) translate(36 -43)">
    <use xlink:href="#rim"/>
    <path pointer-events="none" fill="none" stroke="white" stroke-width="1.5" d="M0,-3.0v7 M-2.5,-0.5L0,-3.0L2.5,-0.5"/>
  </g>
  <g id="arrowDown" transform="rotate(180) translate(-30 -48)">
    <use xlink:href="#rim"/>
    <path pointer-events="none" fill="none" stroke="white" stroke-width="1.5" d="M0,-3.0v7 M-2.5,-0.5L0,-3.0L2.5,-0.5"/>
  </g>
  <g id="arrowLeft" transform="rotate(270) translate(-36 17)">
    <use xlink:href="#rim"/>
    <path pointer-events="none" fill="none" stroke="white" stroke-width="1.5" d="M0,-3.0v7 M-2.5,-0.5L0,-3.0L2.5,-0.5"/>
  </g>
  <g id="resetDef">
    <use xlink:href="#rim2" fill="#404040"><set attributeName="fill" to="#808080" begin="reset.mouseover" end="reset.mouseout"/></use>
  </g>
</defs>
<script type="application/ecmascript">
var viewWidth = 611;
var viewHeight = 550;
var sectionId = 'dynsection-0';
</script>
<script type="application/ecmascript" xlink:href="svg.min.js"/>
<svg id="graph" class="graph">
<g id="viewport">
<title>__m_helper_fpp_f90__</title>
<!-- Node1 -->
<g id="Node000001" class="node">
<title>Node1</title>
<g id="a_Node000001"><a xlink:title=" ">
<polygon fill="#999999" stroke="#666666" points="125,-276.5 0,-276.5 0,-257.5 125,-257.5 125,-276.5"/>
<text text-anchor="middle" x="62.5" y="-264.5" font-family="Helvetica,sans-Serif" font-size="10.00">__m_helper_fpp_f90__</text>
</a>
</g>
</g>
<!-- Node2 -->
<g id="Node000002" class="node">
<title>Node2</title>
<g id="a_Node000002"><a xlink:href="m__helper_8fpp_8f90.html#a88808ee0f14fe4e145a538646dc9ba73" target="_top" xlink:title="This procedure creates a bounding box for a model.">
<polygon fill="white" stroke="#666666" points="281,-541.5 195,-541.5 195,-522.5 281,-522.5 281,-541.5"/>
<text text-anchor="middle" x="238" y="-529.5" font-family="Helvetica,sans-Serif" font-size="10.00">f_create_bbox</text>
</a>
</g>
</g>
<!-- Node1&#45;&gt;Node2 -->
<g id="edge1_Node000001_Node000002" class="edge">
<title>Node1&#45;&gt;Node2</title>
<g id="a_edge1_Node000001_Node000002"><a xlink:title=" ">
<path fill="none" stroke="#63b8ff" d="M64.25,-276.53C67.69,-313.21 85.14,-446.57 161,-513 167.91,-519.06 176.47,-523.24 185.32,-526.11"/>
<polygon fill="#63b8ff" stroke="#63b8ff" points="184.41,-529.49 194.98,-528.75 186.26,-522.74 184.41,-529.49"/>
</a>
</g>
</g>
<!-- Node3 -->
<g id="Node000003" class="node">
<title>Node3</title>
<g id="a_Node000003"><a xlink:href="m__helper_8fpp_8f90.html#aafb2d0e9e3e66d3f3714f0ad3349bc8f" target="_top" xlink:title="This procedure creates a transformation matrix.">
<polygon fill="white" stroke="#666666" points="293,-504 183,-504 183,-474 293,-474 293,-504"/>
<text text-anchor="start" x="191" y="-492" font-family="Helvetica,sans-Serif" font-size="10.00">f_create_transform</text>
<text text-anchor="middle" x="238" y="-481" font-family="Helvetica,sans-Serif" font-size="10.00">_matrix</text>
</a>
</g>
</g>
<!-- Node1&#45;&gt;Node3 -->
<g id="edge2_Node000001_Node000003" class="edge">
<title>Node1&#45;&gt;Node3</title>
<g id="a_edge2_Node000001_Node000003"><a xlink:title=" ">
<path fill="none" stroke="#63b8ff" d="M65.49,-276.93C72.46,-309.11 98.79,-411.58 161,-465 164.74,-468.21 168.91,-471 173.32,-473.41"/>
<polygon fill="#63b8ff" stroke="#63b8ff" points="172.11,-476.71 182.64,-477.85 175.12,-470.39 172.11,-476.71"/>
</a>
</g>
</g>
<!-- Node4 -->
<g id="Node000004" class="node">
<title>Node4</title>
<g id="a_Node000004"><a xlink:href="m__helper_8fpp_8f90.html#a3685fb84c52ce964157ac58fc0068249" target="_top" xlink:title="This procedure computes the cross product of two vectors.">
<polygon fill="white" stroke="#666666" points="263.5,-455.5 212.5,-455.5 212.5,-436.5 263.5,-436.5 263.5,-455.5"/>
<text text-anchor="middle" x="238" y="-443.5" font-family="Helvetica,sans-Serif" font-size="10.00">f_cross</text>
</a>
</g>
</g>
<!-- Node1&#45;&gt;Node4 -->
<g id="edge3_Node000001_Node000004" class="edge">
<title>Node1&#45;&gt;Node4</title>
<g id="a_edge3_Node000001_Node000004"><a xlink:title=" ">
<path fill="none" stroke="#63b8ff" d="M66.44,-276.82C75.46,-305.15 105.53,-387.61 161,-428 172.88,-436.65 188.32,-441.21 202.18,-443.58"/>
<polygon fill="#63b8ff" stroke="#63b8ff" points="202,-447.09 212.38,-445 202.96,-440.15 202,-447.09"/>
</a>
</g>
</g>
<!-- Node5 -->
<g id="Node000005" class="node">
<title>Node5</title>
<g id="a_Node000005"><a xlink:href="m__helper_8fpp_8f90.html#a772c75c8b24c414cfaed17e2f8acc772" target="_top" xlink:title=" ">
<polygon fill="white" stroke="#666666" points="299,-418.5 177,-418.5 177,-399.5 299,-399.5 299,-418.5"/>
<text text-anchor="middle" x="238" y="-406.5" font-family="Helvetica,sans-Serif" font-size="10.00">s_comp_n_from_cons</text>
</a>
</g>
</g>
<!-- Node1&#45;&gt;Node5 -->
<g id="edge4_Node000001_Node000005" class="edge">
<title>Node1&#45;&gt;Node5</title>
<g id="a_edge4_Node000001_Node000005"><a xlink:title=" ">
<path fill="none" stroke="#63b8ff" d="M68.11,-276.55C79.96,-300.04 113.92,-360.92 161,-391 163.6,-392.66 166.34,-394.17 169.17,-395.54"/>
<polygon fill="#63b8ff" stroke="#63b8ff" points="167.91,-398.81 178.48,-399.46 170.62,-392.36 167.91,-398.81"/>
</a>
</g>
</g>
<!-- Node6 -->
<g id="Node000006" class="node">
<title>Node6</title>
<g id="a_Node000006"><a xlink:href="m__helper_8fpp_8f90.html#a308591c92e68d2500ea353807d1b388b" target="_top" xlink:title="Computes the bubble number density n from the primitive variables.">
<polygon fill="white" stroke="#666666" points="299,-381.5 177,-381.5 177,-362.5 299,-362.5 299,-381.5"/>
<text text-anchor="middle" x="238" y="-369.5" font-family="Helvetica,sans-Serif" font-size="10.00">s_comp_n_from_prim</text>
</a>
</g>
</g>
<!-- Node1&#45;&gt;Node6 -->
<g id="edge5_Node000001_Node000006" class="edge">
<title>Node1&#45;&gt;Node6</title>
<g id="a_edge5_Node000001_Node000006"><a xlink:title=" ">
<path fill="none" stroke="#63b8ff" d="M71.54,-276.66C86.98,-294.55 122.64,-332.84 161,-353 165.48,-355.35 170.25,-357.42 175.15,-359.24"/>
<polygon fill="#63b8ff" stroke="#63b8ff" points="174.08,-362.58 184.67,-362.44 176.31,-355.94 174.08,-362.58"/>
</a>
</g>
</g>
<!-- Node7 -->
<g id="Node000007" class="node">
<title>Node7</title>
<g id="a_Node000007"><a xlink:href="m__helper_8fpp_8f90.html#a397f792e51d5a7f74131b9c72b87e071" target="_top" xlink:title="The purpose of this subroutine is to compute the finite&#45; difference coefficients for the centered sch...">
<polygon fill="white" stroke="#666666" points="315,-344 161,-344 161,-314 315,-314 315,-344"/>
<text text-anchor="start" x="169" y="-332" font-family="Helvetica,sans-Serif" font-size="10.00">s_compute_finite_difference</text>
<text text-anchor="middle" x="238" y="-321" font-family="Helvetica,sans-Serif" font-size="10.00">_coefficients</text>
</a>
</g>
</g>
<!-- Node1&#45;&gt;Node7 -->
<g id="edge6_Node000001_Node000007" class="edge">
<title>Node1&#45;&gt;Node7</title>
<g id="a_edge6_Node000001_Node000007"><a xlink:title=" ">
<path fill="none" stroke="#63b8ff" d="M86.98,-276.65C106.63,-284.61 135.47,-296.01 161,-305 166.52,-306.95 172.29,-308.9 178.07,-310.82"/>
<polygon fill="#63b8ff" stroke="#63b8ff" points="177.19,-314.21 187.78,-313.98 179.36,-307.55 177.19,-314.21"/>
</a>
</g>
</g>
<!-- Node8 -->
<g id="Node000008" class="node">
<title>Node8</title>
<g id="a_Node000008"><a xlink:href="m__helper_8fpp_8f90.html#ae6e719f709d847b8b1a1f8e8b483158f" target="_top" xlink:title="Initializes non&#45;polydisperse bubble modeling.">
<polygon fill="white" stroke="#666666" points="294.5,-295.5 181.5,-295.5 181.5,-276.5 294.5,-276.5 294.5,-295.5"/>
<text text-anchor="middle" x="238" y="-283.5" font-family="Helvetica,sans-Serif" font-size="10.00">s_initialize_nonpoly</text>
</a>
</g>
</g>
<!-- Node1&#45;&gt;Node8 -->
<g id="edge7_Node000001_Node000008" class="edge">
<title>Node1&#45;&gt;Node8</title>
<g id="a_edge7_Node000001_Node000008"><a xlink:title=" ">
<path fill="none" stroke="#63b8ff" d="M125.16,-273.75C140.04,-275.38 155.99,-277.13 171.06,-278.78"/>
<polygon fill="#63b8ff" stroke="#63b8ff" points="171,-282.3 181.32,-279.91 171.76,-275.34 171,-282.3"/>
</a>
</g>
</g>
<!-- Node9 -->
<g id="Node000009" class="node">
<title>Node9</title>
<g id="a_Node000009"><a xlink:href="m__helper_8fpp_8f90.html#a91cfb5e94039510845e0bb8cdc843ee8" target="_top" xlink:title="Computes the transfer coefficient for the non&#45;polytropic bubble compression process.">
<polygon fill="white" stroke="#666666" points="448,-276.5 372,-276.5 372,-257.5 448,-257.5 448,-276.5"/>
<text text-anchor="middle" x="410" y="-264.5" font-family="Helvetica,sans-Serif" font-size="10.00">s_transcoeff</text>
</a>
</g>
</g>
<!-- Node1&#45;&gt;Node9 -->
<g id="edge12_Node000001_Node000009" class="edge">
<title>Node1&#45;&gt;Node9</title>
<g id="a_edge12_Node000001_Node000009"><a xlink:title=" ">
<path fill="none" stroke="#63b8ff" d="M125.27,-267C192.97,-267 300.12,-267 361.54,-267"/>
<polygon fill="#63b8ff" stroke="#63b8ff" points="361.73,-270.5 371.73,-267 361.73,-263.5 361.73,-270.5"/>
</a>
</g>
</g>
<!-- Node10 -->
<g id="Node000010" class="node">
<title>Node10</title>
<g id="a_Node000010"><a xlink:href="m__helper_8fpp_8f90.html#a8a0505b2bd4f3d8cb2bf3ce16cfe01e3" target="_top" xlink:title=" ">
<polygon fill="white" stroke="#666666" points="274.5,-219.5 201.5,-219.5 201.5,-200.5 274.5,-200.5 274.5,-219.5"/>
<text text-anchor="middle" x="238" y="-207.5" font-family="Helvetica,sans-Serif" font-size="10.00">s_int_to_str</text>
</a>
</g>
</g>
<!-- Node1&#45;&gt;Node10 -->
<g id="edge9_Node000001_Node000010" class="edge">
<title>Node1&#45;&gt;Node10</title>
<g id="a_edge9_Node000001_Node000010"><a xlink:title=" ">
<path fill="none" stroke="#63b8ff" d="M91.19,-257.46C110.68,-250.79 137.39,-241.72 161,-234 172.49,-230.24 185,-226.25 196.48,-222.63"/>
<polygon fill="#63b8ff" stroke="#63b8ff" points="197.77,-225.89 206.26,-219.55 195.67,-219.21 197.77,-225.89"/>
</a>
</g>
</g>
<!-- Node11 -->
<g id="Node000011" class="node">
<title>Node11</title>
<g id="a_Node000011"><a xlink:href="m__helper_8fpp_8f90.html#a546be57ed19ff3f9da2d133dc9df96a9" target="_top" xlink:title="Computes the Simpson weights for quadrature.">
<polygon fill="white" stroke="#666666" points="272,-182.5 204,-182.5 204,-163.5 272,-163.5 272,-182.5"/>
<text text-anchor="middle" x="238" y="-170.5" font-family="Helvetica,sans-Serif" font-size="10.00">s_simpson</text>
</a>
</g>
</g>
<!-- Node1&#45;&gt;Node11 -->
<g id="edge10_Node000001_Node000011" class="edge">
<title>Node1&#45;&gt;Node11</title>
<g id="a_edge10_Node000001_Node000011"><a xlink:title=" ">
<path fill="none" stroke="#63b8ff" d="M73.1,-257.38C89.59,-241.39 125.05,-209.39 161,-192 171.22,-187.06 182.85,-183.32 193.89,-180.53"/>
<polygon fill="#63b8ff" stroke="#63b8ff" points="194.86,-183.9 203.8,-178.22 193.27,-177.08 194.86,-183.9"/>
</a>
</g>
</g>
<!-- Node12 -->
<g id="Node000012" class="node">
<title>Node12</title>
<g id="a_Node000012"><a xlink:href="m__helper_8fpp_8f90.html#af89217ee50179a901a5c9f8fd450cf59" target="_top" xlink:title="This procedure swaps two real numbers.">
<polygon fill="white" stroke="#666666" points="264.5,-145.5 211.5,-145.5 211.5,-126.5 264.5,-126.5 264.5,-145.5"/>
<text text-anchor="middle" x="238" y="-133.5" font-family="Helvetica,sans-Serif" font-size="10.00">s_swap</text>
</a>
</g>
</g>
<!-- Node1&#45;&gt;Node12 -->
<g id="edge11_Node000001_Node000012" class="edge">
<title>Node1&#45;&gt;Node12</title>
<g id="a_edge11_Node000001_Node000012"><a xlink:title=" ">
<path fill="none" stroke="#63b8ff" d="M68.95,-257.46C81.91,-235.68 116.82,-182.08 161,-155 173.11,-147.58 187.98,-143.06 201.34,-140.3"/>
<polygon fill="#63b8ff" stroke="#63b8ff" points="201.99,-143.74 211.2,-138.51 200.74,-136.85 201.99,-143.74"/>
</a>
</g>
</g>
<!-- Node13 -->
<g id="Node000013" class="node">
<title>Node13</title>
<g id="a_Node000013"><a xlink:href="m__helper_8fpp_8f90.html#a77ee798a317ff1eb8d3c50a7407010ba" target="_top" xlink:title="This procedure transforms a model by a matrix, one triangle at a time.">
<polygon fill="white" stroke="#666666" points="293.5,-108.5 182.5,-108.5 182.5,-89.5 293.5,-89.5 293.5,-108.5"/>
<text text-anchor="middle" x="238" y="-96.5" font-family="Helvetica,sans-Serif" font-size="10.00">s_transform_model</text>
</a>
</g>
</g>
<!-- Node1&#45;&gt;Node13 -->
<g id="edge13_Node000001_Node000013" class="edge">
<title>Node1&#45;&gt;Node13</title>
<g id="a_edge13_Node000001_Node000013"><a xlink:title=" ">
<path fill="none" stroke="#63b8ff" d="M66.97,-257.18C76.98,-230.34 108.6,-155.27 161,-118 164.72,-115.36 168.76,-113.08 172.99,-111.12"/>
<polygon fill="#63b8ff" stroke="#63b8ff" points="174.5,-114.29 182.47,-107.31 171.89,-107.79 174.5,-114.29"/>
</a>
</g>
</g>
<!-- Node14 -->
<g id="Node000014" class="node">
<title>Node14</title>
<g id="a_Node000014"><a xlink:href="m__helper_8fpp_8f90.html#a0e3c0b7ec7d8eee1b8b802c364cf0081" target="_top" xlink:title="This procedure transforms a triangle by a matrix, one vertex at a time.">
<polygon fill="white" stroke="#666666" points="469,-70.5 351,-70.5 351,-51.5 469,-51.5 469,-70.5"/>
<text text-anchor="middle" x="410" y="-58.5" font-family="Helvetica,sans-Serif" font-size="10.00">s_transform_triangle</text>
</a>
</g>
</g>
<!-- Node1&#45;&gt;Node14 -->
<g id="edge16_Node000001_Node000014" class="edge">
<title>Node1&#45;&gt;Node14</title>
<g id="a_edge16_Node000001_Node000014"><a xlink:title=" ">
<path fill="none" stroke="#63b8ff" d="M65.26,-257.1C71.51,-225.1 95.92,-124.04 161,-81 215.84,-44.74 293.12,-44.53 346.78,-50.31"/>
<polygon fill="#63b8ff" stroke="#63b8ff" points="346.51,-53.81 356.85,-51.5 347.33,-46.86 346.51,-53.81"/>
</a>
</g>
</g>
<!-- Node15 -->
<g id="Node000015" class="node">
<title>Node15</title>
<g id="a_Node000015"><a xlink:href="m__helper_8fpp_8f90.html#ae401e6ec49c4c7340e19c04a0abe836a" target="_top" xlink:title="This procedure transforms a vector by a matrix.">
<polygon fill="white" stroke="#666666" points="603,-51.5 505,-51.5 505,-32.5 603,-32.5 603,-51.5"/>
<text text-anchor="middle" x="554" y="-39.5" font-family="Helvetica,sans-Serif" font-size="10.00">s_transform_vec</text>
</a>
</g>
</g>
<!-- Node1&#45;&gt;Node15 -->
<g id="edge17_Node000001_Node000015" class="edge">
<title>Node1&#45;&gt;Node15</title>
<g id="a_edge17_Node000001_Node000015"><a xlink:title=" ">
<path fill="none" stroke="#63b8ff" d="M64.2,-257.02C67.36,-220.51 83.73,-93.78 161,-43 271.4,29.55 439.77,-7.35 514.71,-29.43"/>
<polygon fill="#63b8ff" stroke="#63b8ff" points="514.07,-32.89 524.65,-32.44 516.09,-26.19 514.07,-32.89"/>
</a>
</g>
</g>
<!-- Node8&#45;&gt;Node9 -->
<g id="edge8_Node000008_Node000009" class="edge">
<title>Node8&#45;&gt;Node9</title>
<g id="a_edge8_Node000008_Node000009"><a xlink:title=" ">
<path fill="none" stroke="#63b8ff" d="M294.66,-279.78C316.37,-277.36 340.98,-274.6 361.8,-272.28"/>
<polygon fill="#63b8ff" stroke="#63b8ff" points="362.44,-275.73 371.99,-271.14 361.66,-268.77 362.44,-275.73"/>
</a>
</g>
</g>
<!-- Node13&#45;&gt;Node14 -->
<g id="edge14_Node000013_Node000014" class="edge">
<title>Node13&#45;&gt;Node14</title>
<g id="a_edge14_Node000013_Node000014"><a xlink:title=" ">
<path fill="none" stroke="#63b8ff" d="M281.9,-89.41C304.53,-84.35 332.5,-78.1 356.43,-72.75"/>
<polygon fill="#63b8ff" stroke="#63b8ff" points="357.41,-76.12 366.41,-70.52 355.89,-69.29 357.41,-76.12"/>
</a>
</g>
</g>
<!-- Node14&#45;&gt;Node15 -->
<g id="edge15_Node000014_Node000015" class="edge">
<title>Node14&#45;&gt;Node15</title>
<g id="a_edge15_Node000014_Node000015"><a xlink:title=" ">
<path fill="none" stroke="#63b8ff" d="M469.17,-53.22C477.55,-52.1 486.18,-50.94 494.58,-49.82"/>
<polygon fill="#63b8ff" stroke="#63b8ff" points="495.21,-53.27 504.66,-48.47 494.28,-46.33 495.21,-53.27"/>
</a>
</g>
</g>
</g>
</svg>

<g id="navigator" transform="translate(0 0)" fill="#404254">
  <rect fill="#f2f5e9" fill-opacity="0.5" stroke="#606060" stroke-width=".5" x="0" y="0" width="60" height="60"/>
  <use id="zoomplus" xlink:href="#zoomPlus" x="17" y="9" onmousedown="handleZoom(evt,'in')"/>
  <use id="zoomminus" xlink:href="#zoomMin" x="42" y="9" onmousedown="handleZoom(evt,'out')"/>
  <use id="reset" xlink:href="#resetDef" x="30" y="36" onmousedown="handleReset()"/>
   <use id="arrowup" xlink:href="#arrowUp" x="0" y="0" onmousedown="handlePan(0,-1)"/>
  <use id="arrowright" xlink:href="#arrowRight" x="0" y="0" onmousedown="handlePan(1,0)"/>
  <use id="arrowdown" xlink:href="#arrowDown" x="0" y="0" onmousedown="handlePan(0,1)"/>
  <use id="arrowleft" xlink:href="#arrowLeft" x="0" y="0" onmousedown="handlePan(-1,0)"/>
</g>
<svg viewBox="0 0 15 15" width="100%" height="30px" preserveAspectRatio="xMaxYMin meet">
 <g id="arrow_out" transform="scale(0.3 0.3)">
  <a xlink:href="m__helper_8fpp_8f90_ac1893d0dc10d4afa0f4b3f5c36b8fb8b_cgraph_org.svg" target="_base">
   <rect id="button" ry="5" rx="5" y="6" x="6" height="38" width="38"
        fill="#f2f5e9" fill-opacity="0.5" stroke="#606060" stroke-width="1.0"/>
   <path id="arrow"
     d="M 11.500037,31.436501 C 11.940474,20.09759 22.043105,11.32322 32.158766,21.979434 L 37.068811,17.246167 C 37.068811,17.246167 37.088388,32 37.088388,32 L 22.160133,31.978069 C 22.160133,31.978069 26.997745,27.140456 26.997745,27.140456 C 18.528582,18.264221 13.291696,25.230495 11.500037,31.436501 z"
     style="fill:#404040;"/>
  </a>
 </g>
</svg>

<style type='text/css'>
<![CDATA[
[data-mouse-over-selected='false'] { opacity: 0.7; }
[data-mouse-over-selected='true']  { opacity: 1.0; }
]]>
</style>
<script type="application/ecmascript"><![CDATA[
document.addEventListener('DOMContentLoaded', (event) => {
  highlightEdges();
  highlightAdjacentNodes();
});
]]></script>
</svg>
