<?xml version="1.0" encoding="UTF-8" standalone="no"?>
<!DOCTYPE svg PUBLIC "-//W3C//DTD SVG 1.1//EN"
 "http://www.w3.org/Graphics/SVG/1.1/DTD/svg11.dtd">
<!-- Generated by graphviz version 2.43.0 (0)
 -->
<!-- Title: s_comp_n_from_cons Pages: 1 -->
<svg width="569pt" height="100pt"
 viewBox="0.00 0.00 569.00 99.50" xmlns="http://www.w3.org/2000/svg" xmlns:xlink="http://www.w3.org/1999/xlink">
<g id="graph0" class="graph" transform="scale(1 1) rotate(0) translate(4 95.5)">
<title>s_comp_n_from_cons</title>
<!-- Node1 -->
<g id="Node000001" class="node">
<title>Node1</title>
<g id="a_Node000001"><a xlink:title=" ">
<polygon fill="#999999" stroke="#666666" points="561,-69.5 439,-69.5 439,-50.5 561,-50.5 561,-69.5"/>
<text text-anchor="middle" x="500" y="-57.5" font-family="Helvetica,sans-Serif" font-size="10.00">s_comp_n_from_cons</text>
</a>
</g>
</g>
<!-- Node2 -->
<g id="Node000002" class="node">
<title>Node2</title>
<g id="a_Node000002"><a xlink:href="m__helper_8fpp_8f90.html#ac1893d0dc10d4afa0f4b3f5c36b8fb8b" target="_top" xlink:title=" ">
<polygon fill="white" stroke="#666666" points="399.5,-91.5 274.5,-91.5 274.5,-72.5 399.5,-72.5 399.5,-91.5"/>
<text text-anchor="middle" x="337" y="-79.5" font-family="Helvetica,sans-Serif" font-size="10.00">__m_helper_fpp_f90__</text>
</a>
</g>
</g>
<!-- Node1&#45;&gt;Node2 -->
<g id="edge1_Node000001_Node000002" class="edge">
<title>Node1&#45;&gt;Node2</title>
<g id="a_edge1_Node000001_Node000002"><a xlink:title=" ">
<path fill="none" stroke="#63b8ff" d="M428.6,-69.62C418.93,-70.94 409.05,-72.29 399.55,-73.59"/>
<polygon fill="#63b8ff" stroke="#63b8ff" points="429.16,-73.08 438.59,-68.25 428.21,-66.14 429.16,-73.08"/>
</a>
</g>
</g>
<!-- Node3 -->
<g id="Node000003" class="node">
<title>Node3</title>
<g id="a_Node000003"><a xlink:href="m__variables__conversion_8fpp_8f90.html#a24725c6eb206c9a62e2ec70bf368836d" target="_top" xlink:title="The following procedure handles the conversion between the conservative variables and the primitive v...">
<polygon fill="white" stroke="#666666" points="403,-54 271,-54 271,-24 403,-24 403,-54"/>
<text text-anchor="start" x="279" y="-42" font-family="Helvetica,sans-Serif" font-size="10.00">s_convert_conservative</text>
<text text-anchor="middle" x="337" y="-31" font-family="Helvetica,sans-Serif" font-size="10.00">_to_primitive_variables</text>
</a>
</g>
</g>
<!-- Node1&#45;&gt;Node3 -->
<g id="edge2_Node000001_Node000003" class="edge">
<title>Node1&#45;&gt;Node3</title>
<g id="a_edge2_Node000001_Node000003"><a xlink:title=" ">
<path fill="none" stroke="#63b8ff" d="M428.41,-50.79C419.98,-49.69 411.4,-48.57 403.06,-47.49"/>
<polygon fill="#63b8ff" stroke="#63b8ff" points="428.22,-54.3 438.59,-52.12 429.13,-47.36 428.22,-54.3"/>
</a>
</g>
</g>
<!-- Node4 -->
<g id="Node000004" class="node">
<title>Node4</title>
<g id="a_Node000004"><a xlink:href="m__variables__conversion_8fpp_8f90.html#a347ac5f0eb3158bfb1edcad667b6025c" target="_top" xlink:title=" ">
<polygon fill="white" stroke="#666666" points="235,-78 89,-78 89,-48 235,-48 235,-78"/>
<text text-anchor="start" x="97" y="-66" font-family="Helvetica,sans-Serif" font-size="10.00">__m_variables_conversion</text>
<text text-anchor="middle" x="162" y="-55" font-family="Helvetica,sans-Serif" font-size="10.00">_fpp_f90__</text>
</a>
</g>
</g>
<!-- Node3&#45;&gt;Node4 -->
<g id="edge3_Node000003_Node000004" class="edge">
<title>Node3&#45;&gt;Node4</title>
<g id="a_edge3_Node000003_Node000004"><a xlink:title=" ">
<path fill="none" stroke="#63b8ff" d="M260.44,-49.48C252.04,-50.65 243.51,-51.83 235.15,-52.99"/>
<polygon fill="#63b8ff" stroke="#63b8ff" points="261.17,-52.91 270.6,-48.07 260.21,-45.98 261.17,-52.91"/>
</a>
</g>
</g>
<!-- Node5 -->
<g id="Node000005" class="node">
<title>Node5</title>
<g id="a_Node000005"><a xlink:href="namespacem__start__up.html#a12b3ef85917ad7441924faf3610f75ab" target="_top" xlink:title=" ">
<polygon fill="white" stroke="#666666" points="225.5,-30 98.5,-30 98.5,0 225.5,0 225.5,-30"/>
<text text-anchor="start" x="106.5" y="-18" font-family="Helvetica,sans-Serif" font-size="10.00">m_start_up::s_perform</text>
<text text-anchor="middle" x="162" y="-7" font-family="Helvetica,sans-Serif" font-size="10.00">_time_step</text>
</a>
</g>
</g>
<!-- Node3&#45;&gt;Node5 -->
<g id="edge4_Node000003_Node000005" class="edge">
<title>Node3&#45;&gt;Node5</title>
<g id="a_edge4_Node000003_Node000005"><a xlink:title=" ">
<path fill="none" stroke="#63b8ff" d="M260.47,-28.52C248.84,-26.91 236.94,-25.26 225.64,-23.69"/>
<polygon fill="#63b8ff" stroke="#63b8ff" points="260.21,-32.02 270.6,-29.93 261.17,-25.09 260.21,-32.02"/>
</a>
</g>
</g>
<!-- Node6 -->
<g id="Node000006" class="node">
<title>Node6</title>
<g id="a_Node000006"><a xlink:href="p__main_8fpp_8f90.html#aeec10ee8e2940c953967da3e374e1579" target="_top" xlink:title="The post&#45;process restructures raw unformatted data, outputted by the simulation, into a formatted dat...">
<polygon fill="white" stroke="#666666" points="53,-24.5 0,-24.5 0,-5.5 53,-5.5 53,-24.5"/>
<text text-anchor="middle" x="26.5" y="-12.5" font-family="Helvetica,sans-Serif" font-size="10.00">p_main</text>
</a>
</g>
</g>
<!-- Node5&#45;&gt;Node6 -->
<g id="edge5_Node000005_Node000006" class="edge">
<title>Node5&#45;&gt;Node6</title>
<g id="a_edge5_Node000005_Node000006"><a xlink:title=" ">
<path fill="none" stroke="#63b8ff" d="M88.05,-15C75.49,-15 63.22,-15 53.05,-15"/>
<polygon fill="#63b8ff" stroke="#63b8ff" points="88.16,-18.5 98.16,-15 88.16,-11.5 88.16,-18.5"/>
</a>
</g>
</g>
</g>
</svg>
