<?xml version="1.0" encoding="UTF-8" standalone="no"?>
<!DOCTYPE svg PUBLIC "-//W3C//DTD SVG 1.1//EN"
 "http://www.w3.org/Graphics/SVG/1.1/DTD/svg11.dtd">
<!-- Generated by graphviz version 2.43.0 (0)
 -->
<!-- Title: s_transform_vec Pages: 1 -->
<svg width="568pt" height="84pt"
 viewBox="0.00 0.00 568.00 84.00" xmlns="http://www.w3.org/2000/svg" xmlns:xlink="http://www.w3.org/1999/xlink">
<g id="graph0" class="graph" transform="scale(1 1) rotate(0) translate(4 80)">
<title>s_transform_vec</title>
<!-- Node1 -->
<g id="Node000001" class="node">
<title>Node1</title>
<g id="a_Node000001"><a xlink:title="This procedure transforms a vector by a matrix.">
<polygon fill="#999999" stroke="#666666" points="560,-76 462,-76 462,-57 560,-57 560,-76"/>
<text text-anchor="middle" x="511" y="-64" font-family="Helvetica,sans-Serif" font-size="10.00">s_transform_vec</text>
</a>
</g>
</g>
<!-- Node2 -->
<g id="Node000002" class="node">
<title>Node2</title>
<g id="a_Node000002"><a xlink:href="m__helper_8fpp_8f90.html#ac1893d0dc10d4afa0f4b3f5c36b8fb8b" target="_top" xlink:title=" ">
<polygon fill="white" stroke="#666666" points="125,-57 0,-57 0,-38 125,-38 125,-57"/>
<text text-anchor="middle" x="62.5" y="-45" font-family="Helvetica,sans-Serif" font-size="10.00">__m_helper_fpp_f90__</text>
</a>
</g>
</g>
<!-- Node1&#45;&gt;Node2 -->
<g id="edge1_Node000001_Node000002" class="edge">
<title>Node1&#45;&gt;Node2</title>
<g id="a_edge1_Node000001_Node000002"><a xlink:title=" ">
<path fill="none" stroke="#63b8ff" d="M451.61,-68.29C382.19,-69.82 262.91,-70.52 161,-61.5 148.48,-60.39 135.11,-58.77 122.42,-57.01"/>
<polygon fill="#63b8ff" stroke="#63b8ff" points="451.98,-71.79 461.9,-68.05 451.82,-64.79 451.98,-71.79"/>
</a>
</g>
</g>
<!-- Node3 -->
<g id="Node000003" class="node">
<title>Node3</title>
<g id="a_Node000003"><a xlink:href="m__helper_8fpp_8f90.html#a0e3c0b7ec7d8eee1b8b802c364cf0081" target="_top" xlink:title="This procedure transforms a triangle by a matrix, one vertex at a time.">
<polygon fill="white" stroke="#666666" points="426,-57 308,-57 308,-38 426,-38 426,-57"/>
<text text-anchor="middle" x="367" y="-45" font-family="Helvetica,sans-Serif" font-size="10.00">s_transform_triangle</text>
</a>
</g>
</g>
<!-- Node1&#45;&gt;Node3 -->
<g id="edge2_Node000001_Node000003" class="edge">
<title>Node1&#45;&gt;Node3</title>
<g id="a_edge2_Node000001_Node000003"><a xlink:title=" ">
<path fill="none" stroke="#63b8ff" d="M451.76,-58.71C443.29,-57.57 434.57,-56.41 426.11,-55.28"/>
<polygon fill="#63b8ff" stroke="#63b8ff" points="451.55,-62.21 461.93,-60.07 452.48,-55.27 451.55,-62.21"/>
</a>
</g>
</g>
<!-- Node3&#45;&gt;Node2 -->
<g id="edge3_Node000003_Node000002" class="edge">
<title>Node3&#45;&gt;Node2</title>
<g id="a_edge3_Node000003_Node000002"><a xlink:title=" ">
<path fill="none" stroke="#63b8ff" d="M297.57,-47.5C245.72,-47.5 175.1,-47.5 125.02,-47.5"/>
<polygon fill="#63b8ff" stroke="#63b8ff" points="297.67,-51 307.67,-47.5 297.67,-44 297.67,-51"/>
</a>
</g>
</g>
<!-- Node4 -->
<g id="Node000004" class="node">
<title>Node4</title>
<g id="a_Node000004"><a xlink:href="m__helper_8fpp_8f90.html#a77ee798a317ff1eb8d3c50a7407010ba" target="_top" xlink:title="This procedure transforms a model by a matrix, one triangle at a time.">
<polygon fill="white" stroke="#666666" points="272,-19 161,-19 161,0 272,0 272,-19"/>
<text text-anchor="middle" x="216.5" y="-7" font-family="Helvetica,sans-Serif" font-size="10.00">s_transform_model</text>
</a>
</g>
</g>
<!-- Node3&#45;&gt;Node4 -->
<g id="edge4_Node000003_Node000004" class="edge">
<title>Node3&#45;&gt;Node4</title>
<g id="a_edge4_Node000003_Node000004"><a xlink:title=" ">
<path fill="none" stroke="#63b8ff" d="M318.67,-35.39C297.99,-30.1 274.08,-23.98 254.7,-19.02"/>
<polygon fill="#63b8ff" stroke="#63b8ff" points="317.97,-38.82 328.53,-37.91 319.71,-32.04 317.97,-38.82"/>
</a>
</g>
</g>
<!-- Node4&#45;&gt;Node2 -->
<g id="edge5_Node000004_Node000002" class="edge">
<title>Node4&#45;&gt;Node2</title>
<g id="a_edge5_Node000004_Node000002"><a xlink:title=" ">
<path fill="none" stroke="#63b8ff" d="M167.34,-21.54C146.1,-26.85 121.5,-33 101.58,-37.98"/>
<polygon fill="#63b8ff" stroke="#63b8ff" points="168.29,-24.91 177.14,-19.09 166.59,-18.12 168.29,-24.91"/>
</a>
</g>
</g>
</g>
</svg>
