<?xml version="1.0" encoding="UTF-8" standalone="no"?>
<!DOCTYPE svg PUBLIC "-//W3C//DTD SVG 1.1//EN"
 "http://www.w3.org/Graphics/SVG/1.1/DTD/svg11.dtd">
<!-- Generated by graphviz version 2.43.0 (0)
 -->
<!-- Title: m_mpi_proxy::s_mpi_defragment_1d_grid_variable Pages: 1 -->
<svg width="607pt" height="98pt"
 viewBox="0.00 0.00 607.00 97.50" xmlns="http://www.w3.org/2000/svg" xmlns:xlink="http://www.w3.org/1999/xlink">
<g id="graph0" class="graph" transform="scale(1 1) rotate(0) translate(4 93.5)">
<title>m_mpi_proxy::s_mpi_defragment_1d_grid_variable</title>
<!-- Node1 -->
<g id="Node000001" class="node">
<title>Node1</title>
<g id="a_Node000001"><a xlink:title="This subroutine collects the sub&#45;domain cell&#45;boundary or cell&#45;center locations data from all of the p...">
<polygon fill="#999999" stroke="#666666" points="599,-68 479,-68 479,-27 599,-27 599,-68"/>
<text text-anchor="start" x="487" y="-56" font-family="Helvetica,sans-Serif" font-size="10.00">m_mpi_proxy::s_mpi</text>
<text text-anchor="start" x="487" y="-45" font-family="Helvetica,sans-Serif" font-size="10.00">_defragment_1d_grid</text>
<text text-anchor="middle" x="539" y="-34" font-family="Helvetica,sans-Serif" font-size="10.00">_variable</text>
</a>
</g>
</g>
<!-- Node2 -->
<g id="Node000002" class="node">
<title>Node2</title>
<g id="a_Node000002"><a xlink:href="namespacem__data__output.html#aecc8721d118ae19c22982d0b59455ede" target="_top" xlink:title=" ">
<polygon fill="white" stroke="#666666" points="443,-89.5 263,-89.5 263,-59.5 443,-59.5 443,-89.5"/>
<text text-anchor="start" x="271" y="-77.5" font-family="Helvetica,sans-Serif" font-size="10.00">m_data_output::s_write</text>
<text text-anchor="middle" x="353" y="-66.5" font-family="Helvetica,sans-Serif" font-size="10.00">_grid_to_formatted_database_file</text>
</a>
</g>
</g>
<!-- Node1&#45;&gt;Node2 -->
<g id="edge1_Node000001_Node000002" class="edge">
<title>Node1&#45;&gt;Node2</title>
<g id="a_edge1_Node000001_Node000002"><a xlink:title=" ">
<path fill="none" stroke="#63b8ff" d="M468.76,-57.66C460.43,-58.88 451.83,-60.14 443.26,-61.4"/>
<polygon fill="#63b8ff" stroke="#63b8ff" points="469.38,-61.11 478.77,-56.19 468.37,-54.18 469.38,-61.11"/>
</a>
</g>
</g>
<!-- Node5 -->
<g id="Node000005" class="node">
<title>Node5</title>
<g id="a_Node000005"><a xlink:href="namespacem__data__output.html#a57ac3445406c2114885fab7e5517bd1c" target="_top" xlink:title=" ">
<polygon fill="white" stroke="#666666" points="418.5,-41 287.5,-41 287.5,0 418.5,0 418.5,-41"/>
<text text-anchor="start" x="295.5" y="-29" font-family="Helvetica,sans-Serif" font-size="10.00">m_data_output::s_write</text>
<text text-anchor="start" x="295.5" y="-18" font-family="Helvetica,sans-Serif" font-size="10.00">_variable_to_formatted</text>
<text text-anchor="middle" x="353" y="-7" font-family="Helvetica,sans-Serif" font-size="10.00">_database_file</text>
</a>
</g>
</g>
<!-- Node1&#45;&gt;Node5 -->
<g id="edge4_Node000001_Node000005" class="edge">
<title>Node1&#45;&gt;Node5</title>
<g id="a_edge4_Node000001_Node000005"><a xlink:title=" ">
<path fill="none" stroke="#63b8ff" d="M468.68,-37.33C452.23,-34.91 434.75,-32.35 418.53,-29.97"/>
<polygon fill="#63b8ff" stroke="#63b8ff" points="468.37,-40.82 478.77,-38.81 469.38,-33.89 468.37,-40.82"/>
</a>
</g>
</g>
<!-- Node3 -->
<g id="Node000003" class="node">
<title>Node3</title>
<g id="a_Node000003"><a xlink:href="namespacem__start__up.html#a6b63dfe2b03558e6b89bc29e1401de48" target="_top" xlink:title=" ">
<polygon fill="white" stroke="#666666" points="227,-57 89,-57 89,-38 227,-38 227,-57"/>
<text text-anchor="middle" x="158" y="-45" font-family="Helvetica,sans-Serif" font-size="10.00">m_start_up::s_save_data</text>
</a>
</g>
</g>
<!-- Node2&#45;&gt;Node3 -->
<g id="edge2_Node000002_Node000003" class="edge">
<title>Node2&#45;&gt;Node3</title>
<g id="a_edge2_Node000002_Node000003"><a xlink:title=" ">
<path fill="none" stroke="#63b8ff" d="M252.66,-60.6C243.98,-59.39 235.33,-58.18 226.99,-57.01"/>
<polygon fill="#63b8ff" stroke="#63b8ff" points="252.46,-64.11 262.84,-62.03 253.43,-57.18 252.46,-64.11"/>
</a>
</g>
</g>
<!-- Node4 -->
<g id="Node000004" class="node">
<title>Node4</title>
<g id="a_Node000004"><a xlink:href="p__main_8fpp_8f90.html#aeec10ee8e2940c953967da3e374e1579" target="_top" xlink:title="The post&#45;process restructures raw unformatted data, outputted by the simulation, into a formatted dat...">
<polygon fill="white" stroke="#666666" points="53,-57 0,-57 0,-38 53,-38 53,-57"/>
<text text-anchor="middle" x="26.5" y="-45" font-family="Helvetica,sans-Serif" font-size="10.00">p_main</text>
</a>
</g>
</g>
<!-- Node3&#45;&gt;Node4 -->
<g id="edge3_Node000003_Node000004" class="edge">
<title>Node3&#45;&gt;Node4</title>
<g id="a_edge3_Node000003_Node000004"><a xlink:title=" ">
<path fill="none" stroke="#63b8ff" d="M78.81,-47.5C69.67,-47.5 60.91,-47.5 53.29,-47.5"/>
<polygon fill="#63b8ff" stroke="#63b8ff" points="78.84,-51 88.84,-47.5 78.84,-44 78.84,-51"/>
</a>
</g>
</g>
<!-- Node5&#45;&gt;Node3 -->
<g id="edge5_Node000005_Node000003" class="edge">
<title>Node5&#45;&gt;Node3</title>
<g id="a_edge5_Node000005_Node000003"><a xlink:title=" ">
<path fill="none" stroke="#63b8ff" d="M277.31,-30.95C260.78,-33.26 243.36,-35.7 227.11,-37.97"/>
<polygon fill="#63b8ff" stroke="#63b8ff" points="278.05,-34.38 287.47,-29.53 277.08,-27.45 278.05,-34.38"/>
</a>
</g>
</g>
</g>
</svg>
