<?xml version="1.0" encoding="UTF-8" standalone="no"?>
<!DOCTYPE svg PUBLIC "-//W3C//DTD SVG 1.1//EN"
 "http://www.w3.org/Graphics/SVG/1.1/DTD/svg11.dtd">
<!-- Generated by graphviz version 2.43.0 (0)
 -->
<!-- Title: m_mpi_proxy::s_mpi_defragment_1d_grid_variable Pages: 1 -->
<svg width="433pt" height="98pt"
 viewBox="0.00 0.00 433.00 97.50" xmlns="http://www.w3.org/2000/svg" xmlns:xlink="http://www.w3.org/1999/xlink">
<g id="graph0" class="graph" transform="scale(1 1) rotate(0) translate(4 93.5)">
<title>m_mpi_proxy::s_mpi_defragment_1d_grid_variable</title>
<!-- Node1 -->
<g id="Node000001" class="node">
<title>Node1</title>
<g id="a_Node000001"><a xlink:title="This subroutine collects the sub&#45;domain cell&#45;boundary or cell&#45;center locations data from all of the p...">
<polygon fill="#999999" stroke="#666666" points="425,-68 305,-68 305,-27 425,-27 425,-68"/>
<text text-anchor="start" x="313" y="-56" font-family="Helvetica,sans-Serif" font-size="10.00">m_mpi_proxy::s_mpi</text>
<text text-anchor="start" x="313" y="-45" font-family="Helvetica,sans-Serif" font-size="10.00">_defragment_1d_grid</text>
<text text-anchor="middle" x="365" y="-34" font-family="Helvetica,sans-Serif" font-size="10.00">_variable</text>
</a>
</g>
</g>
<!-- Node2 -->
<g id="Node000002" class="node">
<title>Node2</title>
<g id="a_Node000002"><a xlink:href="namespacem__data__output.html#aecc8721d118ae19c22982d0b59455ede" target="_top" xlink:title=" ">
<polygon fill="white" stroke="#666666" points="269,-89.5 89,-89.5 89,-59.5 269,-59.5 269,-89.5"/>
<text text-anchor="start" x="97" y="-77.5" font-family="Helvetica,sans-Serif" font-size="10.00">m_data_output::s_write</text>
<text text-anchor="middle" x="179" y="-66.5" font-family="Helvetica,sans-Serif" font-size="10.00">_grid_to_formatted_database_file</text>
</a>
</g>
</g>
<!-- Node1&#45;&gt;Node2 -->
<g id="edge1_Node000001_Node000002" class="edge">
<title>Node1&#45;&gt;Node2</title>
<g id="a_edge1_Node000001_Node000002"><a xlink:title=" ">
<path fill="none" stroke="#63b8ff" d="M294.76,-57.66C286.43,-58.88 277.83,-60.14 269.26,-61.4"/>
<polygon fill="#63b8ff" stroke="#63b8ff" points="295.38,-61.11 304.77,-56.19 294.37,-54.18 295.38,-61.11"/>
</a>
</g>
</g>
<!-- Node4 -->
<g id="Node000004" class="node">
<title>Node4</title>
<g id="a_Node000004"><a xlink:href="namespacem__data__output.html#a57ac3445406c2114885fab7e5517bd1c" target="_top" xlink:title=" ">
<polygon fill="white" stroke="#666666" points="244.5,-41 113.5,-41 113.5,0 244.5,0 244.5,-41"/>
<text text-anchor="start" x="121.5" y="-29" font-family="Helvetica,sans-Serif" font-size="10.00">m_data_output::s_write</text>
<text text-anchor="start" x="121.5" y="-18" font-family="Helvetica,sans-Serif" font-size="10.00">_variable_to_formatted</text>
<text text-anchor="middle" x="179" y="-7" font-family="Helvetica,sans-Serif" font-size="10.00">_database_file</text>
</a>
</g>
</g>
<!-- Node1&#45;&gt;Node4 -->
<g id="edge3_Node000001_Node000004" class="edge">
<title>Node1&#45;&gt;Node4</title>
<g id="a_edge3_Node000001_Node000004"><a xlink:title=" ">
<path fill="none" stroke="#63b8ff" d="M294.68,-37.33C278.23,-34.91 260.75,-32.35 244.53,-29.97"/>
<polygon fill="#63b8ff" stroke="#63b8ff" points="294.37,-40.82 304.77,-38.81 295.38,-33.89 294.37,-40.82"/>
</a>
</g>
</g>
<!-- Node3 -->
<g id="Node000003" class="node">
<title>Node3</title>
<g id="a_Node000003"><a xlink:href="p__main_8fpp_8f90.html#aeec10ee8e2940c953967da3e374e1579" target="_top" xlink:title="The post&#45;process restructures raw unformatted data, outputted by the simulation, into a formatted dat...">
<polygon fill="white" stroke="#666666" points="53,-57 0,-57 0,-38 53,-38 53,-57"/>
<text text-anchor="middle" x="26.5" y="-45" font-family="Helvetica,sans-Serif" font-size="10.00">p_main</text>
</a>
</g>
</g>
<!-- Node2&#45;&gt;Node3 -->
<g id="edge2_Node000002_Node000003" class="edge">
<title>Node2&#45;&gt;Node3</title>
<g id="a_edge2_Node000002_Node000003"><a xlink:title=" ">
<path fill="none" stroke="#63b8ff" d="M84.28,-57.69C72.91,-55.65 62.15,-53.72 53.11,-52.09"/>
<polygon fill="#63b8ff" stroke="#63b8ff" points="83.93,-61.18 94.39,-59.5 85.16,-54.29 83.93,-61.18"/>
</a>
</g>
</g>
<!-- Node4&#45;&gt;Node3 -->
<g id="edge4_Node000004_Node000003" class="edge">
<title>Node4&#45;&gt;Node3</title>
<g id="a_edge4_Node000004_Node000003"><a xlink:title=" ">
<path fill="none" stroke="#63b8ff" d="M103.31,-33.9C85.27,-37.14 67.19,-40.38 53.21,-42.89"/>
<polygon fill="#63b8ff" stroke="#63b8ff" points="104.08,-37.32 113.3,-32.11 102.84,-30.43 104.08,-37.32"/>
</a>
</g>
</g>
</g>
</svg>
