<?xml version="1.0" encoding="UTF-8" standalone="no"?>
<!DOCTYPE svg PUBLIC "-//W3C//DTD SVG 1.1//EN"
 "http://www.w3.org/Graphics/SVG/1.1/DTD/svg11.dtd">
<!-- Generated by graphviz version 2.43.0 (0)
 -->
<!-- Title: m_start_up::s_initialize_mpi_domain Pages: 1 -->
<!--zoomable 318 -->

<svg id="main" version="1.1" xmlns="http://www.w3.org/2000/svg" xmlns:xlink="http://www.w3.org/1999/xlink" xml:space="preserve" onload="init(evt)">
<style type="text/css"><![CDATA[
.node, .edge {opacity: 0.7;}
.node.selected, .edge.selected {opacity: 1;}
.edge:hover path { stroke: red; }
.edge:hover polygon { stroke: red; fill: red; }
]]></style>

<defs>
  <circle id="rim" cx="0" cy="0" r="7"/>
  <circle id="rim2" cx="0" cy="0" r="3.5"/>
  <g id="zoomPlus">
    <use xlink:href="#rim" fill="#404040"><set attributeName="fill" to="#808080" begin="zoomplus.mouseover" end="zoomplus.mouseout"/></use>
    <path d="M-4,0h8M0,-4v8" fill="none" stroke="white" stroke-width="1.5" pointer-events="none"/>
  </g>
  <g id="zoomMin">
    <use xlink:href="#rim" fill="#404040"><set attributeName="fill" to="#808080" begin="zoomminus.mouseover" end="zoomminus.mouseout"/></use>
    <path d="M-4,0h8" fill="none" stroke="white" stroke-width="1.5" pointer-events="none"/>
  </g>
  <g id="arrowUp" transform="translate(30 24)">
    <use xlink:href="#rim"/>
    <path pointer-events="none" fill="none" stroke="white" stroke-width="1.5" d="M0,-3.0v7 M-2.5,-0.5L0,-3.0L2.5,-0.5"/>
  </g>
  <g id="arrowRight" transform="rotate(90) translate(36 -43)">
    <use xlink:href="#rim"/>
    <path pointer-events="none" fill="none" stroke="white" stroke-width="1.5" d="M0,-3.0v7 M-2.5,-0.5L0,-3.0L2.5,-0.5"/>
  </g>
  <g id="arrowDown" transform="rotate(180) translate(-30 -48)">
    <use xlink:href="#rim"/>
    <path pointer-events="none" fill="none" stroke="white" stroke-width="1.5" d="M0,-3.0v7 M-2.5,-0.5L0,-3.0L2.5,-0.5"/>
  </g>
  <g id="arrowLeft" transform="rotate(270) translate(-36 17)">
    <use xlink:href="#rim"/>
    <path pointer-events="none" fill="none" stroke="white" stroke-width="1.5" d="M0,-3.0v7 M-2.5,-0.5L0,-3.0L2.5,-0.5"/>
  </g>
  <g id="resetDef">
    <use xlink:href="#rim2" fill="#404040"><set attributeName="fill" to="#808080" begin="reset.mouseover" end="reset.mouseout"/></use>
  </g>
</defs>
<script type="application/ecmascript">
var viewWidth = 591;
var viewHeight = 318;
var sectionId = 'dynsection-6';
</script>
<script type="application/ecmascript" xlink:href="svg.min.js"/>
<svg id="graph" class="graph">
<g id="viewport">
<title>m_start_up::s_initialize_mpi_domain</title>
<!-- Node1 -->
<g id="Node000001" class="node">
<title>Node1</title>
<g id="a_Node000001"><a xlink:title=" ">
<polygon fill="#999999" stroke="#666666" points="130,-154.53 0,-154.53 0,-124.53 130,-124.53 130,-154.53"/>
<text text-anchor="start" x="8" y="-142.53" font-family="Helvetica,sans-Serif" font-size="10.00">m_start_up::s_initialize</text>
<text text-anchor="middle" x="65" y="-131.53" font-family="Helvetica,sans-Serif" font-size="10.00">_mpi_domain</text>
</a>
</g>
</g>
<!-- Node2 -->
<g id="Node000002" class="node">
<title>Node2</title>
<g id="a_Node000002"><a xlink:href="namespacem__global__parameters.html#a433eac37597eb46a3cac84ca0471f5d3" target="_top" xlink:title="Assigns default values to user inputs prior to reading them in. This allows for an easier consistency...">
<polygon fill="white" stroke="#666666" points="314,-310.03 172,-310.03 172,-269.03 314,-269.03 314,-310.03"/>
<text text-anchor="start" x="180" y="-298.03" font-family="Helvetica,sans-Serif" font-size="10.00">m_global_parameters</text>
<text text-anchor="start" x="180" y="-287.03" font-family="Helvetica,sans-Serif" font-size="10.00">::s_assign_default_values</text>
<text text-anchor="middle" x="243" y="-276.03" font-family="Helvetica,sans-Serif" font-size="10.00">_to_user_inputs</text>
</a>
</g>
</g>
<!-- Node1&#45;&gt;Node2 -->
<g id="edge1_Node000001_Node000002" class="edge">
<title>Node1&#45;&gt;Node2</title>
<g id="a_edge1_Node000001_Node000002"><a xlink:title=" ">
<path fill="none" stroke="#63b8ff" d="M75.17,-154.91C90.86,-180.02 125.12,-229.98 166,-259.53 168.11,-261.06 170.31,-262.52 172.58,-263.92"/>
<polygon fill="#63b8ff" stroke="#63b8ff" points="171.16,-267.14 181.59,-269.01 174.6,-261.04 171.16,-267.14"/>
</a>
</g>
</g>
<!-- Node3 -->
<g id="Node000003" class="node">
<title>Node3</title>
<g id="a_Node000003"><a xlink:href="namespacem__start__up.html#ad77478b402c186b1f620b7d14aab9123" target="_top" xlink:title="Checking that the user inputs make sense, i.e. that the individual choices are compatible with the co...">
<polygon fill="white" stroke="#666666" points="301,-250.53 185,-250.53 185,-220.53 301,-220.53 301,-250.53"/>
<text text-anchor="start" x="193" y="-238.53" font-family="Helvetica,sans-Serif" font-size="10.00">m_start_up::s_check</text>
<text text-anchor="middle" x="243" y="-227.53" font-family="Helvetica,sans-Serif" font-size="10.00">_input_file</text>
</a>
</g>
</g>
<!-- Node1&#45;&gt;Node3 -->
<g id="edge2_Node000001_Node000003" class="edge">
<title>Node1&#45;&gt;Node3</title>
<g id="a_edge2_Node000001_Node000003"><a xlink:title=" ">
<path fill="none" stroke="#63b8ff" d="M83.31,-154.65C102.42,-170.68 134.64,-195.8 166,-211.53 169.58,-213.33 173.33,-215.03 177.16,-216.63"/>
<polygon fill="#63b8ff" stroke="#63b8ff" points="176.2,-220.01 186.79,-220.39 178.75,-213.49 176.2,-220.01"/>
</a>
</g>
</g>
<!-- Node7 -->
<g id="Node000007" class="node">
<title>Node7</title>
<g id="a_Node000007"><a xlink:href="namespacem__global__parameters.html#a54905a7a2ce9e15fc33ebac52c0d3c27" target="_top" xlink:title="Subroutine to initialize parallel infrastructure.">
<polygon fill="white" stroke="#666666" points="308.5,-202.53 177.5,-202.53 177.5,-172.53 308.5,-172.53 308.5,-202.53"/>
<text text-anchor="start" x="185.5" y="-190.53" font-family="Helvetica,sans-Serif" font-size="10.00">m_global_parameters</text>
<text text-anchor="middle" x="243" y="-179.53" font-family="Helvetica,sans-Serif" font-size="10.00">::s_initialize_parallel_io</text>
</a>
</g>
</g>
<!-- Node1&#45;&gt;Node7 -->
<g id="edge7_Node000001_Node000007" class="edge">
<title>Node1&#45;&gt;Node7</title>
<g id="a_edge7_Node000001_Node000007"><a xlink:title=" ">
<path fill="none" stroke="#63b8ff" d="M121.2,-154.59C138.98,-159.43 158.84,-164.85 177.23,-169.87"/>
<polygon fill="#63b8ff" stroke="#63b8ff" points="176.42,-173.27 186.99,-172.53 178.26,-166.52 176.42,-173.27"/>
</a>
</g>
</g>
<!-- Node8 -->
<g id="Node000008" class="node">
<title>Node8</title>
<g id="a_Node000008"><a xlink:href="namespacem__mpi__proxy.html#a69660c5fe9302a8c0496b622fa3b5286" target="_top" xlink:title="Since only processor with rank 0 is in charge of reading and checking the consistency of the user pro...">
<polygon fill="white" stroke="#666666" points="302,-154.53 184,-154.53 184,-124.53 302,-124.53 302,-154.53"/>
<text text-anchor="start" x="192" y="-142.53" font-family="Helvetica,sans-Serif" font-size="10.00">m_mpi_proxy::s_mpi</text>
<text text-anchor="middle" x="243" y="-131.53" font-family="Helvetica,sans-Serif" font-size="10.00">_bcast_user_inputs</text>
</a>
</g>
</g>
<!-- Node1&#45;&gt;Node8 -->
<g id="edge8_Node000001_Node000008" class="edge">
<title>Node1&#45;&gt;Node8</title>
<g id="a_edge8_Node000001_Node000008"><a xlink:title=" ">
<path fill="none" stroke="#63b8ff" d="M130.04,-139.53C144.2,-139.53 159.25,-139.53 173.57,-139.53"/>
<polygon fill="#63b8ff" stroke="#63b8ff" points="173.85,-143.03 183.85,-139.53 173.85,-136.03 173.85,-143.03"/>
</a>
</g>
</g>
<!-- Node9 -->
<g id="Node000009" class="node">
<title>Node9</title>
<g id="a_Node000009"><a xlink:href="namespacem__mpi__proxy.html#a80c5e235786545276fe6ffa06965017f" target="_top" xlink:title="This subroutine takes care of efficiently distributing the computational domain among the available p...">
<polygon fill="white" stroke="#666666" points="320,-106.03 166,-106.03 166,-65.03 320,-65.03 320,-106.03"/>
<text text-anchor="start" x="174" y="-94.03" font-family="Helvetica,sans-Serif" font-size="10.00">m_mpi_proxy::s_mpi</text>
<text text-anchor="start" x="174" y="-83.03" font-family="Helvetica,sans-Serif" font-size="10.00">_decompose_computational</text>
<text text-anchor="middle" x="243" y="-72.03" font-family="Helvetica,sans-Serif" font-size="10.00">_domain</text>
</a>
</g>
</g>
<!-- Node1&#45;&gt;Node9 -->
<g id="edge9_Node000001_Node000009" class="edge">
<title>Node1&#45;&gt;Node9</title>
<g id="a_edge9_Node000001_Node000009"><a xlink:title=" ">
<path fill="none" stroke="#63b8ff" d="M115.03,-124.49C130.59,-119.72 148.18,-114.32 165.21,-109.09"/>
<polygon fill="#63b8ff" stroke="#63b8ff" points="166.62,-112.32 175.15,-106.04 164.56,-105.63 166.62,-112.32"/>
</a>
</g>
</g>
<!-- Node10 -->
<g id="Node000010" class="node">
<title>Node10</title>
<g id="a_Node000010"><a xlink:href="m__mpi__common_8fpp_8f90.html#a543ff7b2129040e637c1db749aa1a12d" target="_top" xlink:title="The subroutine intializes the MPI execution environment and queries both the number of processors whi...">
<polygon fill="white" stroke="#666666" points="289.5,-47.03 196.5,-47.03 196.5,-28.03 289.5,-28.03 289.5,-47.03"/>
<text text-anchor="middle" x="243" y="-35.03" font-family="Helvetica,sans-Serif" font-size="10.00">s_mpi_initialize</text>
</a>
</g>
</g>
<!-- Node1&#45;&gt;Node10 -->
<g id="edge10_Node000001_Node000010" class="edge">
<title>Node1&#45;&gt;Node10</title>
<g id="a_edge10_Node000001_Node000010"><a xlink:title=" ">
<path fill="none" stroke="#63b8ff" d="M80.05,-124.25C98.14,-105.51 131.38,-74.07 166,-56.53 172.42,-53.28 179.44,-50.56 186.53,-48.29"/>
<polygon fill="#63b8ff" stroke="#63b8ff" points="187.57,-51.63 196.19,-45.47 185.61,-44.91 187.57,-51.63"/>
</a>
</g>
</g>
<!-- Node11 -->
<g id="Node000011" class="node">
<title>Node11</title>
<g id="a_Node000011"><a xlink:href="namespacem__start__up.html#a3a19eb11ae434dc590a1bd7835442891" target="_top" xlink:title="Reads the configuration file post_process.inp, in order to populate parameters in module m_global_par...">
<polygon fill="white" stroke="#666666" points="468,-89.53 358,-89.53 358,-59.53 468,-59.53 468,-89.53"/>
<text text-anchor="start" x="366" y="-77.53" font-family="Helvetica,sans-Serif" font-size="10.00">m_start_up::s_read</text>
<text text-anchor="middle" x="413" y="-66.53" font-family="Helvetica,sans-Serif" font-size="10.00">_input_file</text>
</a>
</g>
</g>
<!-- Node1&#45;&gt;Node11 -->
<g id="edge11_Node000001_Node000011" class="edge">
<title>Node1&#45;&gt;Node11</title>
<g id="a_edge11_Node000001_Node000011"><a xlink:title=" ">
<path fill="none" stroke="#63b8ff" d="M72.96,-124.38C86.42,-97.15 118.91,-40.71 166,-18.53 227.92,10.63 254.1,-0.05 320,-18.53 344.29,-25.34 368.53,-40.53 386.03,-53.37"/>
<polygon fill="#63b8ff" stroke="#63b8ff" points="383.96,-56.2 394.05,-59.44 388.19,-50.61 383.96,-56.2"/>
</a>
</g>
</g>
<!-- Node4 -->
<g id="Node000004" class="node">
<title>Node4</title>
<g id="a_Node000004"><a xlink:href="namespacem__checker.html#af3af1277501908ef5a97721ebf04061f" target="_top" xlink:title=" ">
<polygon fill="white" stroke="#666666" points="470,-250.53 356,-250.53 356,-220.53 470,-220.53 470,-250.53"/>
<text text-anchor="start" x="364" y="-238.53" font-family="Helvetica,sans-Serif" font-size="10.00">m_checker::s_check</text>
<text text-anchor="middle" x="413" y="-227.53" font-family="Helvetica,sans-Serif" font-size="10.00">_inputs</text>
</a>
</g>
</g>
<!-- Node3&#45;&gt;Node4 -->
<g id="edge3_Node000003_Node000004" class="edge">
<title>Node3&#45;&gt;Node4</title>
<g id="a_edge3_Node000003_Node000004"><a xlink:title=" ">
<path fill="none" stroke="#63b8ff" d="M301.35,-235.53C315.63,-235.53 331.07,-235.53 345.75,-235.53"/>
<polygon fill="#63b8ff" stroke="#63b8ff" points="345.77,-239.03 355.77,-235.53 345.77,-232.03 345.77,-239.03"/>
</a>
</g>
</g>
<!-- Node6 -->
<g id="Node000006" class="node">
<title>Node6</title>
<g id="a_Node000006"><a xlink:href="m__mpi__common_8fpp_8f90.html#ad9e1329e498b65ad4256658675d6f797" target="_top" xlink:title="The subroutine terminates the MPI execution environment.">
<polygon fill="white" stroke="#666666" points="583,-202.03 506,-202.03 506,-183.03 583,-183.03 583,-202.03"/>
<text text-anchor="middle" x="544.5" y="-190.03" font-family="Helvetica,sans-Serif" font-size="10.00">s_mpi_abort</text>
</a>
</g>
</g>
<!-- Node3&#45;&gt;Node6 -->
<g id="edge6_Node000003_Node000006" class="edge">
<title>Node3&#45;&gt;Node6</title>
<g id="a_edge6_Node000003_Node000006"><a xlink:title=" ">
<path fill="none" stroke="#63b8ff" d="M301.04,-222.04C318.59,-218.23 338.03,-214.36 356,-211.53 403.27,-204.09 457.72,-198.95 495.73,-195.91"/>
<polygon fill="#63b8ff" stroke="#63b8ff" points="496.29,-199.38 505.99,-195.11 495.75,-192.4 496.29,-199.38"/>
</a>
</g>
</g>
<!-- Node5 -->
<g id="Node000005" class="node">
<title>Node5</title>
<g id="a_Node000005"><a xlink:href="m__helper_8fpp_8f90.html#a8a0505b2bd4f3d8cb2bf3ce16cfe01e3" target="_top" xlink:title=" ">
<polygon fill="white" stroke="#666666" points="581,-245.03 508,-245.03 508,-226.03 581,-226.03 581,-245.03"/>
<text text-anchor="middle" x="544.5" y="-233.03" font-family="Helvetica,sans-Serif" font-size="10.00">s_int_to_str</text>
</a>
</g>
</g>
<!-- Node4&#45;&gt;Node5 -->
<g id="edge4_Node000004_Node000005" class="edge">
<title>Node4&#45;&gt;Node5</title>
<g id="a_edge4_Node000004_Node000005"><a xlink:title=" ">
<path fill="none" stroke="#63b8ff" d="M470.05,-235.53C479.28,-235.53 488.76,-235.53 497.71,-235.53"/>
<polygon fill="#63b8ff" stroke="#63b8ff" points="497.92,-239.03 507.92,-235.53 497.92,-232.03 497.92,-239.03"/>
</a>
</g>
</g>
<!-- Node4&#45;&gt;Node6 -->
<g id="edge5_Node000004_Node000006" class="edge">
<title>Node4&#45;&gt;Node6</title>
<g id="a_edge5_Node000004_Node000006"><a xlink:title=" ">
<path fill="none" stroke="#63b8ff" d="M459.29,-220.49C474.23,-215.53 490.68,-210.07 505.06,-205.3"/>
<polygon fill="#63b8ff" stroke="#63b8ff" points="506.24,-208.59 514.63,-202.12 504.04,-201.95 506.24,-208.59"/>
</a>
</g>
</g>
<!-- Node11&#45;&gt;Node6 -->
<g id="edge12_Node000011_Node000006" class="edge">
<title>Node11&#45;&gt;Node6</title>
<g id="a_edge12_Node000011_Node000006"><a xlink:title=" ">
<path fill="none" stroke="#63b8ff" d="M430.66,-89.72C455.07,-111.96 500.37,-153.23 525.51,-176.14"/>
<polygon fill="#63b8ff" stroke="#63b8ff" points="523.17,-178.74 532.91,-182.89 527.88,-173.56 523.17,-178.74"/>
</a>
</g>
</g>
</g>
</svg>

<g id="navigator" transform="translate(0 0)" fill="#404254">
  <rect fill="#f2f5e9" fill-opacity="0.5" stroke="#606060" stroke-width=".5" x="0" y="0" width="60" height="60"/>
  <use id="zoomplus" xlink:href="#zoomPlus" x="17" y="9" onmousedown="handleZoom(evt,'in')"/>
  <use id="zoomminus" xlink:href="#zoomMin" x="42" y="9" onmousedown="handleZoom(evt,'out')"/>
  <use id="reset" xlink:href="#resetDef" x="30" y="36" onmousedown="handleReset()"/>
   <use id="arrowup" xlink:href="#arrowUp" x="0" y="0" onmousedown="handlePan(0,-1)"/>
  <use id="arrowright" xlink:href="#arrowRight" x="0" y="0" onmousedown="handlePan(1,0)"/>
  <use id="arrowdown" xlink:href="#arrowDown" x="0" y="0" onmousedown="handlePan(0,1)"/>
  <use id="arrowleft" xlink:href="#arrowLeft" x="0" y="0" onmousedown="handlePan(-1,0)"/>
</g>
<svg viewBox="0 0 15 15" width="100%" height="30px" preserveAspectRatio="xMaxYMin meet">
 <g id="arrow_out" transform="scale(0.3 0.3)">
  <a xlink:href="namespacem__start__up_a94bf50fef8770db4e616cddfe41fc312_cgraph_org.svg" target="_base">
   <rect id="button" ry="5" rx="5" y="6" x="6" height="38" width="38"
        fill="#f2f5e9" fill-opacity="0.5" stroke="#606060" stroke-width="1.0"/>
   <path id="arrow"
     d="M 11.500037,31.436501 C 11.940474,20.09759 22.043105,11.32322 32.158766,21.979434 L 37.068811,17.246167 C 37.068811,17.246167 37.088388,32 37.088388,32 L 22.160133,31.978069 C 22.160133,31.978069 26.997745,27.140456 26.997745,27.140456 C 18.528582,18.264221 13.291696,25.230495 11.500037,31.436501 z"
     style="fill:#404040;"/>
  </a>
 </g>
</svg>

<style type='text/css'>
<![CDATA[
[data-mouse-over-selected='false'] { opacity: 0.7; }
[data-mouse-over-selected='true']  { opacity: 1.0; }
]]>
</style>
<script type="application/ecmascript"><![CDATA[
document.addEventListener('DOMContentLoaded', (event) => {
  highlightEdges();
  highlightAdjacentNodes();
});
]]></script>
</svg>
