<?xml version="1.0" encoding="UTF-8" standalone="no"?>
<!DOCTYPE svg PUBLIC "-//W3C//DTD SVG 1.1//EN"
 "http://www.w3.org/Graphics/SVG/1.1/DTD/svg11.dtd">
<!-- Generated by graphviz version 2.43.0 (0)
 -->
<!-- Title: m_variables_conversion::s_convert_conservative_to_primitive_variables Pages: 1 -->
<svg width="469pt" height="49pt"
 viewBox="0.00 0.00 469.00 49.00" xmlns="http://www.w3.org/2000/svg" xmlns:xlink="http://www.w3.org/1999/xlink">
<g id="graph0" class="graph" transform="scale(1 1) rotate(0) translate(4 45)">
<title>m_variables_conversion::s_convert_conservative_to_primitive_variables</title>
<!-- Node1 -->
<g id="node1" class="node">
<title>Node1</title>
<g id="a_node1"><a xlink:title="Converts the conservative variables to the primitive ones.">
<polygon fill="#999999" stroke="#666666" points="138,-41 0,-41 0,0 138,0 138,-41"/>
<text text-anchor="start" x="8" y="-29" font-family="Helvetica,sans-Serif" font-size="10.00">m_variables_conversion</text>
<text text-anchor="start" x="8" y="-18" font-family="Helvetica,sans-Serif" font-size="10.00">::s_convert_conservative</text>
<text text-anchor="middle" x="69" y="-7" font-family="Helvetica,sans-Serif" font-size="10.00">_to_primitive_variables</text>
</a>
</g>
</g>
<!-- Node2 -->
<g id="node2" class="node">
<title>Node2</title>
<g id="a_node2"><a xlink:href="namespacem__global__parameters.html#ad6c69097a0e9f5acf637c6b49e0bd1ea" target="_top" xlink:title="Computes the bubble number density n from the conservative variables.">
<polygon fill="white" stroke="#666666" points="302,-35.5 174,-35.5 174,-5.5 302,-5.5 302,-35.5"/>
<text text-anchor="start" x="182" y="-23.5" font-family="Helvetica,sans-Serif" font-size="10.00">m_global_parameters</text>
<text text-anchor="middle" x="238" y="-12.5" font-family="Helvetica,sans-Serif" font-size="10.00">::s_comp_n_from_cons</text>
</a>
</g>
</g>
<!-- Node1&#45;&gt;Node2 -->
<g id="edge1" class="edge">
<title>Node1&#45;&gt;Node2</title>
<path fill="none" stroke="#63b8ff" d="M138.41,-20.5C146.73,-20.5 155.26,-20.5 163.66,-20.5"/>
<polygon fill="#63b8ff" stroke="#63b8ff" points="163.8,-24 173.8,-20.5 163.8,-17 163.8,-24"/>
</g>
<!-- Node3 -->
<g id="node3" class="node">
<title>Node3</title>
<g id="a_node3"><a xlink:href="namespacem__global__parameters.html#aa5a48fa9cc196136634022cfa6708213" target="_top" xlink:title="Computes the quadrature for polydisperse bubble populations.">
<polygon fill="white" stroke="#666666" points="461,-35.5 338,-35.5 338,-5.5 461,-5.5 461,-35.5"/>
<text text-anchor="start" x="346" y="-23.5" font-family="Helvetica,sans-Serif" font-size="10.00">m_global_parameters</text>
<text text-anchor="middle" x="399.5" y="-12.5" font-family="Helvetica,sans-Serif" font-size="10.00">::s_quad</text>
</a>
</g>
</g>
<!-- Node2&#45;&gt;Node3 -->
<g id="edge2" class="edge">
<title>Node2&#45;&gt;Node3</title>
<path fill="none" stroke="#63b8ff" d="M302.04,-20.5C310.4,-20.5 319.01,-20.5 327.49,-20.5"/>
<polygon fill="#63b8ff" stroke="#63b8ff" points="327.74,-24 337.74,-20.5 327.74,-17 327.74,-24"/>
</g>
</g>
</svg>
