<?xml version="1.0" encoding="UTF-8" standalone="no"?>
<!DOCTYPE svg PUBLIC "-//W3C//DTD SVG 1.1//EN"
 "http://www.w3.org/Graphics/SVG/1.1/DTD/svg11.dtd">
<!-- Generated by graphviz version 2.43.0 (0)
 -->
<!-- Title: m_mpi_proxy::s_mpi_reduce_maxloc Pages: 1 -->
<svg width="370pt" height="49pt"
 viewBox="0.00 0.00 370.00 49.00" xmlns="http://www.w3.org/2000/svg" xmlns:xlink="http://www.w3.org/1999/xlink">
<g id="graph0" class="graph" transform="scale(1 1) rotate(0) translate(4 45)">
<title>m_mpi_proxy::s_mpi_reduce_maxloc</title>
<!-- Node1 -->
<g id="node1" class="node">
<title>Node1</title>
<g id="a_node1"><a xlink:title="The following subroutine takes the first element of the 2&#45;element inputted variable and determines it...">
<polygon fill="#999999" stroke="#666666" points="362,-35.5 244,-35.5 244,-5.5 362,-5.5 362,-35.5"/>
<text text-anchor="start" x="252" y="-23.5" font-family="Helvetica,sans-Serif" font-size="10.00">m_mpi_proxy::s_mpi</text>
<text text-anchor="middle" x="303" y="-12.5" font-family="Helvetica,sans-Serif" font-size="10.00">_reduce_maxloc</text>
</a>
</g>
</g>
<!-- Node2 -->
<g id="node2" class="node">
<title>Node2</title>
<g id="a_node2"><a xlink:href="namespacem__derived__variables.html#aa038ec37a8a0c8fe8d7185b9ef6d54a9" target="_top" xlink:title="This subroutine receives as inputs the indicator of the component of the vorticity that should be out...">
<polygon fill="white" stroke="#666666" points="208,-41 89,-41 89,0 208,0 208,-41"/>
<text text-anchor="start" x="97" y="-29" font-family="Helvetica,sans-Serif" font-size="10.00">m_derived_variables</text>
<text text-anchor="start" x="97" y="-18" font-family="Helvetica,sans-Serif" font-size="10.00">::s_derive_vorticity</text>
<text text-anchor="middle" x="148.5" y="-7" font-family="Helvetica,sans-Serif" font-size="10.00">_component</text>
</a>
</g>
</g>
<!-- Node1&#45;&gt;Node2 -->
<g id="edge1" class="edge">
<title>Node1&#45;&gt;Node2</title>
<path fill="none" stroke="#63b8ff" d="M233.64,-20.5C225.15,-20.5 216.52,-20.5 208.19,-20.5"/>
<polygon fill="#63b8ff" stroke="#63b8ff" points="233.91,-24 243.91,-20.5 233.91,-17 233.91,-24"/>
</g>
<!-- Node3 -->
<g id="node3" class="node">
<title>Node3</title>
<g id="a_node3"><a xlink:href="p__main_8f90.html#aeec10ee8e2940c953967da3e374e1579" target="_top" xlink:title="The post&#45;process restructures raw unformatted data, outputted by the simulation, into a formatted dat...">
<polygon fill="white" stroke="#666666" points="53,-30 0,-30 0,-11 53,-11 53,-30"/>
<text text-anchor="middle" x="26.5" y="-18" font-family="Helvetica,sans-Serif" font-size="10.00">p_main</text>
</a>
</g>
</g>
<!-- Node2&#45;&gt;Node3 -->
<g id="edge2" class="edge">
<title>Node2&#45;&gt;Node3</title>
<path fill="none" stroke="#63b8ff" d="M78.88,-20.5C69.7,-20.5 60.8,-20.5 53.05,-20.5"/>
<polygon fill="#63b8ff" stroke="#63b8ff" points="78.91,-24 88.91,-20.5 78.91,-17 78.91,-24"/>
</g>
</g>
</svg>
