<?xml version="1.0" encoding="UTF-8" standalone="no"?>
<!DOCTYPE svg PUBLIC "-//W3C//DTD SVG 1.1//EN"
 "http://www.w3.org/Graphics/SVG/1.1/DTD/svg11.dtd">
<!-- Generated by graphviz version 2.43.0 (0)
 -->
<!-- Title: m_global_parameters::s_initialize_global_parameters_module Pages: 1 -->
<svg width="449pt" height="86pt"
 viewBox="0.00 0.00 449.00 86.00" xmlns="http://www.w3.org/2000/svg" xmlns:xlink="http://www.w3.org/1999/xlink">
<g id="graph0" class="graph" transform="scale(1 1) rotate(0) translate(4 82)">
<title>m_global_parameters::s_initialize_global_parameters_module</title>
<!-- Node1 -->
<g id="node1" class="node">
<title>Node1</title>
<g id="a_node1"><a xlink:title="Computation of parameters, allocation procedures, and/or any other tasks needed to properly setup the...">
<polygon fill="#999999" stroke="#666666" points="123,-59.5 0,-59.5 0,-18.5 123,-18.5 123,-59.5"/>
<text text-anchor="start" x="8" y="-47.5" font-family="Helvetica,sans-Serif" font-size="10.00">m_global_parameters</text>
<text text-anchor="start" x="8" y="-36.5" font-family="Helvetica,sans-Serif" font-size="10.00">::s_initialize_global</text>
<text text-anchor="middle" x="61.5" y="-25.5" font-family="Helvetica,sans-Serif" font-size="10.00">_parameters_module</text>
</a>
</g>
</g>
<!-- Node2 -->
<g id="node2" class="node">
<title>Node2</title>
<g id="a_node2"><a xlink:href="namespacem__global__parameters.html#a1611e2cf82243c04b04a11281ef67993" target="_top" xlink:title="Subroutine to initialize variable for non&#45;polytropic gas modeling processes.">
<polygon fill="white" stroke="#666666" points="282,-78 159,-78 159,-48 282,-48 282,-78"/>
<text text-anchor="start" x="167" y="-66" font-family="Helvetica,sans-Serif" font-size="10.00">m_global_parameters</text>
<text text-anchor="middle" x="220.5" y="-55" font-family="Helvetica,sans-Serif" font-size="10.00">::s_initialize_nonpoly</text>
</a>
</g>
</g>
<!-- Node1&#45;&gt;Node2 -->
<g id="edge1" class="edge">
<title>Node1&#45;&gt;Node2</title>
<path fill="none" stroke="#63b8ff" d="M123.2,-48.28C131.64,-49.57 140.36,-50.9 148.95,-52.22"/>
<polygon fill="#63b8ff" stroke="#63b8ff" points="148.55,-55.69 158.96,-53.75 149.6,-48.77 148.55,-55.69"/>
</g>
<!-- Node4 -->
<g id="node4" class="node">
<title>Node4</title>
<g id="a_node4"><a xlink:href="namespacem__global__parameters.html#ac21a4e6384ff730c1abc5440ac403d16" target="_top" xlink:title="Computes the Simpson weights for quadrature.">
<polygon fill="white" stroke="#666666" points="282,-30 159,-30 159,0 282,0 282,-30"/>
<text text-anchor="start" x="167" y="-18" font-family="Helvetica,sans-Serif" font-size="10.00">m_global_parameters</text>
<text text-anchor="middle" x="220.5" y="-7" font-family="Helvetica,sans-Serif" font-size="10.00">::s_simpson</text>
</a>
</g>
</g>
<!-- Node1&#45;&gt;Node4 -->
<g id="edge3" class="edge">
<title>Node1&#45;&gt;Node4</title>
<path fill="none" stroke="#63b8ff" d="M123.2,-29.72C131.64,-28.43 140.36,-27.1 148.95,-25.78"/>
<polygon fill="#63b8ff" stroke="#63b8ff" points="149.6,-29.23 158.96,-24.25 148.55,-22.31 149.6,-29.23"/>
</g>
<!-- Node3 -->
<g id="node3" class="node">
<title>Node3</title>
<g id="a_node3"><a xlink:href="namespacem__global__parameters.html#a24562c7cd90c1d827ca9f8779328cfbf" target="_top" xlink:title="Subroutine to compute the transfer coefficient for non&#45;polytropic gas modeling.">
<polygon fill="white" stroke="#666666" points="441,-78 318,-78 318,-48 441,-48 441,-78"/>
<text text-anchor="start" x="326" y="-66" font-family="Helvetica,sans-Serif" font-size="10.00">m_global_parameters</text>
<text text-anchor="middle" x="379.5" y="-55" font-family="Helvetica,sans-Serif" font-size="10.00">::s_transcoeff</text>
</a>
</g>
</g>
<!-- Node2&#45;&gt;Node3 -->
<g id="edge2" class="edge">
<title>Node2&#45;&gt;Node3</title>
<path fill="none" stroke="#63b8ff" d="M282.2,-63C290.64,-63 299.36,-63 307.95,-63"/>
<polygon fill="#63b8ff" stroke="#63b8ff" points="307.96,-66.5 317.96,-63 307.96,-59.5 307.96,-66.5"/>
</g>
</g>
</svg>
