<?xml version="1.0" encoding="UTF-8" standalone="no"?>
<!DOCTYPE svg PUBLIC "-//W3C//DTD SVG 1.1//EN"
 "http://www.w3.org/Graphics/SVG/1.1/DTD/svg11.dtd">
<!-- Generated by graphviz version 2.43.0 (0)
 -->
<!-- Title: m_mpi_proxy::s_mpi_gather_spatial_extents Pages: 1 -->
<svg width="447pt" height="39pt"
 viewBox="0.00 0.00 447.00 39.00" xmlns="http://www.w3.org/2000/svg" xmlns:xlink="http://www.w3.org/1999/xlink">
<g id="graph0" class="graph" transform="scale(1 1) rotate(0) translate(4 35)">
<title>m_mpi_proxy::s_mpi_gather_spatial_extents</title>
<!-- Node1 -->
<g id="node1" class="node">
<title>Node1</title>
<g id="a_node1"><a xlink:title="This subroutine gathers the Silo database metadata for the spatial extents in order to boost the perf...">
<polygon fill="#bfbfbf" stroke="black" points="305,-0.5 305,-30.5 439,-30.5 439,-0.5 305,-0.5"/>
<text text-anchor="start" x="313" y="-18.5" font-family="Helvetica,sans-Serif" font-size="10.00">m_mpi_proxy::s_mpi</text>
<text text-anchor="middle" x="372" y="-7.5" font-family="Helvetica,sans-Serif" font-size="10.00">_gather_spatial_extents</text>
</a>
</g>
</g>
<!-- Node2 -->
<g id="node2" class="node">
<title>Node2</title>
<g id="a_node2"><a xlink:href="namespacem__data__output.html#aecc8721d118ae19c22982d0b59455ede" target="_top" xlink:title=" ">
<polygon fill="none" stroke="black" points="89,-0.5 89,-30.5 269,-30.5 269,-0.5 89,-0.5"/>
<text text-anchor="start" x="97" y="-18.5" font-family="Helvetica,sans-Serif" font-size="10.00">m_data_output::s_write</text>
<text text-anchor="middle" x="179" y="-7.5" font-family="Helvetica,sans-Serif" font-size="10.00">_grid_to_formatted_database_file</text>
</a>
</g>
</g>
<!-- Node1&#45;&gt;Node2 -->
<g id="edge1" class="edge">
<title>Node1&#45;&gt;Node2</title>
<path fill="none" stroke="midnightblue" d="M294.6,-15.5C286.19,-15.5 277.57,-15.5 269.03,-15.5"/>
<polygon fill="midnightblue" stroke="midnightblue" points="294.73,-19 304.73,-15.5 294.73,-12 294.73,-19"/>
</g>
<!-- Node3 -->
<g id="node3" class="node">
<title>Node3</title>
<g id="a_node3"><a xlink:href="p__main_8f90.html#aeec10ee8e2940c953967da3e374e1579" target="_top" xlink:title="The post&#45;process restructures raw unformatted data, outputted by the simulation, into a formatted dat...">
<polygon fill="none" stroke="black" points="0,-6 0,-25 53,-25 53,-6 0,-6"/>
<text text-anchor="middle" x="26.5" y="-13" font-family="Helvetica,sans-Serif" font-size="10.00">p_main</text>
</a>
</g>
</g>
<!-- Node2&#45;&gt;Node3 -->
<g id="edge2" class="edge">
<title>Node2&#45;&gt;Node3</title>
<path fill="none" stroke="midnightblue" d="M78.58,-15.5C69.4,-15.5 60.76,-15.5 53.29,-15.5"/>
<polygon fill="midnightblue" stroke="midnightblue" points="78.71,-19 88.71,-15.5 78.71,-12 78.71,-19"/>
</g>
</g>
</svg>
