<?xml version="1.0" encoding="UTF-8" standalone="no"?>
<!DOCTYPE svg PUBLIC "-//W3C//DTD SVG 1.1//EN"
 "http://www.w3.org/Graphics/SVG/1.1/DTD/svg11.dtd">
<!-- Generated by graphviz version 2.43.0 (0)
 -->
<!-- Title: m_derived_variables::s_derive_curvature Pages: 1 -->
<svg width="297pt" height="100pt"
 viewBox="0.00 0.00 297.00 99.50" xmlns="http://www.w3.org/2000/svg" xmlns:xlink="http://www.w3.org/1999/xlink">
<g id="graph0" class="graph" transform="scale(1 1) rotate(0) translate(4 95.5)">
<title>m_derived_variables::s_derive_curvature</title>
<!-- Node1 -->
<g id="node1" class="node">
<title>Node1</title>
<g id="a_node1"><a xlink:title="Computes the local curvatures.">
<polygon fill="#bfbfbf" stroke="black" points="0,-27.5 0,-57.5 119,-57.5 119,-27.5 0,-27.5"/>
<text text-anchor="start" x="8" y="-45.5" font-family="Helvetica,sans-Serif" font-size="10.00">m_derived_variables</text>
<text text-anchor="middle" x="59.5" y="-34.5" font-family="Helvetica,sans-Serif" font-size="10.00">::s_derive_curvature</text>
</a>
</g>
</g>
<!-- Node2 -->
<g id="node2" class="node">
<title>Node2</title>
<g id="a_node2"><a xlink:href="namespacem__derived__variables.html#a7fadac6924cf61654373f9f334106001" target="_top" xlink:title="This subroutine is used together with the volume fraction model and when called upon,...">
<polygon fill="none" stroke="black" points="159,-50 159,-91 285,-91 285,-50 159,-50"/>
<text text-anchor="start" x="167" y="-79" font-family="Helvetica,sans-Serif" font-size="10.00">m_derived_variables</text>
<text text-anchor="start" x="167" y="-68" font-family="Helvetica,sans-Serif" font-size="10.00">::s_derive_unadvected</text>
<text text-anchor="middle" x="222" y="-57" font-family="Helvetica,sans-Serif" font-size="10.00">_volume_fraction</text>
</a>
</g>
</g>
<!-- Node1&#45;&gt;Node2 -->
<g id="edge1" class="edge">
<title>Node1&#45;&gt;Node2</title>
<path fill="none" stroke="midnightblue" d="M119.35,-52.77C129.02,-54.45 139.12,-56.22 149.06,-57.95"/>
<polygon fill="midnightblue" stroke="midnightblue" points="148.47,-61.4 158.92,-59.67 149.67,-54.5 148.47,-61.4"/>
</g>
<!-- Node3 -->
<g id="node3" class="node">
<title>Node3</title>
<g id="a_node3"><a xlink:href="namespacem__derived__variables.html#a2604318b4c2822441b485a32c755e5b6" target="_top" xlink:title="Computes the solution to the linear system Ax=b w/ sol = x.">
<polygon fill="none" stroke="black" points="155,-0.5 155,-30.5 289,-30.5 289,-0.5 155,-0.5"/>
<text text-anchor="start" x="163" y="-18.5" font-family="Helvetica,sans-Serif" font-size="10.00">m_derived_variables</text>
<text text-anchor="middle" x="222" y="-7.5" font-family="Helvetica,sans-Serif" font-size="10.00">::s_solve_linear_system</text>
</a>
</g>
</g>
<!-- Node1&#45;&gt;Node3 -->
<g id="edge2" class="edge">
<title>Node1&#45;&gt;Node3</title>
<path fill="none" stroke="midnightblue" d="M119.35,-32.6C127.65,-31.2 136.27,-29.75 144.83,-28.31"/>
<polygon fill="midnightblue" stroke="midnightblue" points="145.55,-31.74 154.83,-26.63 144.39,-24.84 145.55,-31.74"/>
</g>
</g>
</svg>
