<?xml version="1.0" encoding="UTF-8" standalone="no"?>
<!DOCTYPE svg PUBLIC "-//W3C//DTD SVG 1.1//EN"
 "http://www.w3.org/Graphics/SVG/1.1/DTD/svg11.dtd">
<!-- Generated by graphviz version 2.43.0 (0)
 -->
<!-- Title: m_global_parameters::s_quad Pages: 1 -->
<svg width="295pt" height="86pt"
 viewBox="0.00 0.00 295.00 86.00" xmlns="http://www.w3.org/2000/svg" xmlns:xlink="http://www.w3.org/1999/xlink">
<g id="graph0" class="graph" transform="scale(1 1) rotate(0) translate(4 82)">
<title>m_global_parameters::s_quad</title>
<!-- Node1 -->
<g id="node1" class="node">
<title>Node1</title>
<g id="a_node1"><a xlink:title="Computes the quadrature for polydisperse bubble populations.">
<polygon fill="#999999" stroke="#666666" points="287,-54 164,-54 164,-24 287,-24 287,-54"/>
<text text-anchor="start" x="172" y="-42" font-family="Helvetica,sans-Serif" font-size="10.00">m_global_parameters</text>
<text text-anchor="middle" x="225.5" y="-31" font-family="Helvetica,sans-Serif" font-size="10.00">::s_quad</text>
</a>
</g>
</g>
<!-- Node2 -->
<g id="node2" class="node">
<title>Node2</title>
<g id="a_node2"><a xlink:href="namespacem__global__parameters.html#ad6c69097a0e9f5acf637c6b49e0bd1ea" target="_top" xlink:title="Computes the bubble number density n from the conservative variables.">
<polygon fill="white" stroke="#666666" points="128,-78 0,-78 0,-48 128,-48 128,-78"/>
<text text-anchor="start" x="8" y="-66" font-family="Helvetica,sans-Serif" font-size="10.00">m_global_parameters</text>
<text text-anchor="middle" x="64" y="-55" font-family="Helvetica,sans-Serif" font-size="10.00">::s_comp_n_from_cons</text>
</a>
</g>
</g>
<!-- Node1&#45;&gt;Node2 -->
<g id="edge1" class="edge">
<title>Node1&#45;&gt;Node2</title>
<path fill="none" stroke="#63b8ff" d="M153.83,-49.63C145.31,-50.92 136.64,-52.22 128.24,-53.48"/>
<polygon fill="#63b8ff" stroke="#63b8ff" points="154.38,-53.09 163.74,-48.14 153.34,-46.17 154.38,-53.09"/>
</g>
<!-- Node3 -->
<g id="node3" class="node">
<title>Node3</title>
<g id="a_node3"><a xlink:href="namespacem__global__parameters.html#a39ce2449992dc4d113a1098e01d35efb" target="_top" xlink:title="Computes the bubble number density n from the primitive variables.">
<polygon fill="white" stroke="#666666" points="128,-30 0,-30 0,0 128,0 128,-30"/>
<text text-anchor="start" x="8" y="-18" font-family="Helvetica,sans-Serif" font-size="10.00">m_global_parameters</text>
<text text-anchor="middle" x="64" y="-7" font-family="Helvetica,sans-Serif" font-size="10.00">::s_comp_n_from_prim</text>
</a>
</g>
</g>
<!-- Node1&#45;&gt;Node3 -->
<g id="edge2" class="edge">
<title>Node1&#45;&gt;Node3</title>
<path fill="none" stroke="#63b8ff" d="M153.83,-28.37C145.31,-27.08 136.64,-25.78 128.24,-24.52"/>
<polygon fill="#63b8ff" stroke="#63b8ff" points="153.34,-31.83 163.74,-29.86 154.38,-24.91 153.34,-31.83"/>
</g>
</g>
</svg>
