<?xml version="1.0" encoding="UTF-8" standalone="no"?>
<!DOCTYPE svg PUBLIC "-//W3C//DTD SVG 1.1//EN"
 "http://www.w3.org/Graphics/SVG/1.1/DTD/svg11.dtd">
<!-- Generated by graphviz version 2.43.0 (0)
 -->
<!-- Title: m_checker::s_check_inputs Pages: 1 -->
<svg width="529pt" height="38pt"
 viewBox="0.00 0.00 529.00 38.00" xmlns="http://www.w3.org/2000/svg" xmlns:xlink="http://www.w3.org/1999/xlink">
<g id="graph0" class="graph" transform="scale(1 1) rotate(0) translate(4 34)">
<title>m_checker::s_check_inputs</title>
<!-- Node1 -->
<g id="Node000001" class="node">
<title>Node1</title>
<g id="a_Node000001"><a xlink:title=" ">
<polygon fill="#999999" stroke="#666666" points="521,-30 407,-30 407,0 521,0 521,-30"/>
<text text-anchor="start" x="415" y="-18" font-family="Helvetica,sans-Serif" font-size="10.00">m_checker::s_check</text>
<text text-anchor="middle" x="464" y="-7" font-family="Helvetica,sans-Serif" font-size="10.00">_inputs</text>
</a>
</g>
</g>
<!-- Node2 -->
<g id="Node000002" class="node">
<title>Node2</title>
<g id="a_Node000002"><a xlink:href="namespacem__start__up.html#ad77478b402c186b1f620b7d14aab9123" target="_top" xlink:title="Checking that the user inputs make sense, i.e. that the individual choices are compatible with the co...">
<polygon fill="white" stroke="#666666" points="371,-30 255,-30 255,0 371,0 371,-30"/>
<text text-anchor="start" x="263" y="-18" font-family="Helvetica,sans-Serif" font-size="10.00">m_start_up::s_check</text>
<text text-anchor="middle" x="313" y="-7" font-family="Helvetica,sans-Serif" font-size="10.00">_input_file</text>
</a>
</g>
</g>
<!-- Node1&#45;&gt;Node2 -->
<g id="edge1_Node000001_Node000002" class="edge">
<title>Node1&#45;&gt;Node2</title>
<g id="a_edge1_Node000001_Node000002"><a xlink:title=" ">
<path fill="none" stroke="#63b8ff" d="M396.54,-15C388.15,-15 379.63,-15 371.4,-15"/>
<polygon fill="#63b8ff" stroke="#63b8ff" points="396.67,-18.5 406.67,-15 396.67,-11.5 396.67,-18.5"/>
</a>
</g>
</g>
<!-- Node3 -->
<g id="Node000003" class="node">
<title>Node3</title>
<g id="a_Node000003"><a xlink:href="namespacem__start__up.html#a94bf50fef8770db4e616cddfe41fc312" target="_top" xlink:title=" ">
<polygon fill="white" stroke="#666666" points="219,-30 89,-30 89,0 219,0 219,-30"/>
<text text-anchor="start" x="97" y="-18" font-family="Helvetica,sans-Serif" font-size="10.00">m_start_up::s_initialize</text>
<text text-anchor="middle" x="154" y="-7" font-family="Helvetica,sans-Serif" font-size="10.00">_mpi_domain</text>
</a>
</g>
</g>
<!-- Node2&#45;&gt;Node3 -->
<g id="edge2_Node000002_Node000003" class="edge">
<title>Node2&#45;&gt;Node3</title>
<g id="a_edge2_Node000002_Node000003"><a xlink:title=" ">
<path fill="none" stroke="#63b8ff" d="M244.7,-15C236.26,-15 227.65,-15 219.26,-15"/>
<polygon fill="#63b8ff" stroke="#63b8ff" points="244.88,-18.5 254.88,-15 244.88,-11.5 244.88,-18.5"/>
</a>
</g>
</g>
<!-- Node4 -->
<g id="Node000004" class="node">
<title>Node4</title>
<g id="a_Node000004"><a xlink:href="p__main_8fpp_8f90.html#aeec10ee8e2940c953967da3e374e1579" target="_top" xlink:title="The post&#45;process restructures raw unformatted data, outputted by the simulation, into a formatted dat...">
<polygon fill="white" stroke="#666666" points="53,-24.5 0,-24.5 0,-5.5 53,-5.5 53,-24.5"/>
<text text-anchor="middle" x="26.5" y="-12.5" font-family="Helvetica,sans-Serif" font-size="10.00">p_main</text>
</a>
</g>
</g>
<!-- Node3&#45;&gt;Node4 -->
<g id="edge3_Node000003_Node000004" class="edge">
<title>Node3&#45;&gt;Node4</title>
<g id="a_edge3_Node000003_Node000004"><a xlink:title=" ">
<path fill="none" stroke="#63b8ff" d="M78.74,-15C69.58,-15 60.76,-15 53.09,-15"/>
<polygon fill="#63b8ff" stroke="#63b8ff" points="78.78,-18.5 88.78,-15 78.78,-11.5 78.78,-18.5"/>
</a>
</g>
</g>
</g>
</svg>
