<?xml version="1.0" encoding="UTF-8" standalone="no"?>
<!DOCTYPE svg PUBLIC "-//W3C//DTD SVG 1.1//EN"
 "http://www.w3.org/Graphics/SVG/1.1/DTD/svg11.dtd">
<!-- Generated by graphviz version 2.43.0 (0)
 -->
<!-- Title: m_data_input::s_initialize_data_input_module Pages: 1 -->
<svg width="485pt" height="134pt"
 viewBox="0.00 0.00 485.00 134.00" xmlns="http://www.w3.org/2000/svg" xmlns:xlink="http://www.w3.org/1999/xlink">
<g id="graph0" class="graph" transform="scale(1 1) rotate(0) translate(4 130)">
<title>m_data_input::s_initialize_data_input_module</title>
<!-- Node1 -->
<g id="node1" class="node">
<title>Node1</title>
<g id="a_node1"><a xlink:title="Computation of parameters, allocation procedures, and/or any other tasks needed to properly setup the...">
<polygon fill="#999999" stroke="#666666" points="142,-54 0,-54 0,-24 142,-24 142,-54"/>
<text text-anchor="start" x="8" y="-42" font-family="Helvetica,sans-Serif" font-size="10.00">m_data_input::s_initialize</text>
<text text-anchor="middle" x="71" y="-31" font-family="Helvetica,sans-Serif" font-size="10.00">_data_input_module</text>
</a>
</g>
</g>
<!-- Node2 -->
<g id="node2" class="node">
<title>Node2</title>
<g id="a_node2"><a xlink:href="namespacem__data__input.html#a0dd37369dd52b1299b06563f96c25805" target="_top" xlink:title="This subroutine is called at each time&#45;step that has to be post&#45;processed in order to parallel&#45;read t...">
<polygon fill="white" stroke="#666666" points="300,-78 178,-78 178,-48 300,-48 300,-78"/>
<text text-anchor="start" x="186" y="-66" font-family="Helvetica,sans-Serif" font-size="10.00">m_data_input::s_read</text>
<text text-anchor="middle" x="239" y="-55" font-family="Helvetica,sans-Serif" font-size="10.00">_parallel_data_files</text>
</a>
</g>
</g>
<!-- Node1&#45;&gt;Node2 -->
<g id="edge1" class="edge">
<title>Node1&#45;&gt;Node2</title>
<path fill="none" stroke="#63b8ff" d="M142.4,-49.18C150.82,-50.4 159.41,-51.64 167.83,-52.85"/>
<polygon fill="#63b8ff" stroke="#63b8ff" points="167.58,-56.36 177.98,-54.32 168.58,-49.43 167.58,-56.36"/>
</g>
<!-- Node6 -->
<g id="node6" class="node">
<title>Node6</title>
<g id="a_node6"><a xlink:href="namespacem__data__input.html#a9d69f4bcb771c60157b62bc4b04a6ba1" target="_top" xlink:title="This subroutine is called at each time&#45;step that has to be post&#45;processed in order to read the raw da...">
<polygon fill="white" stroke="#666666" points="300,-30 178,-30 178,0 300,0 300,-30"/>
<text text-anchor="start" x="186" y="-18" font-family="Helvetica,sans-Serif" font-size="10.00">m_data_input::s_read</text>
<text text-anchor="middle" x="239" y="-7" font-family="Helvetica,sans-Serif" font-size="10.00">_serial_data_files</text>
</a>
</g>
</g>
<!-- Node1&#45;&gt;Node6 -->
<g id="edge5" class="edge">
<title>Node1&#45;&gt;Node6</title>
<path fill="none" stroke="#63b8ff" d="M142.4,-28.82C150.82,-27.6 159.41,-26.36 167.83,-25.15"/>
<polygon fill="#63b8ff" stroke="#63b8ff" points="168.58,-28.57 177.98,-23.68 167.58,-21.64 168.58,-28.57"/>
</g>
<!-- Node3 -->
<g id="node3" class="node">
<title>Node3</title>
<g id="a_node3"><a xlink:href="namespacem__mpi__proxy.html#a2ff35ede51e90c483969e44c31303415" target="_top" xlink:title=" ">
<polygon fill="white" stroke="#666666" points="477,-126 336,-126 336,-96 477,-96 477,-126"/>
<text text-anchor="start" x="344" y="-114" font-family="Helvetica,sans-Serif" font-size="10.00">m_mpi_proxy::s_initialize</text>
<text text-anchor="middle" x="406.5" y="-103" font-family="Helvetica,sans-Serif" font-size="10.00">_mpi_data</text>
</a>
</g>
</g>
<!-- Node2&#45;&gt;Node3 -->
<g id="edge2" class="edge">
<title>Node2&#45;&gt;Node3</title>
<path fill="none" stroke="#63b8ff" d="M291.91,-78.06C308.39,-82.84 326.78,-88.17 343.88,-93.13"/>
<polygon fill="#63b8ff" stroke="#63b8ff" points="343.19,-96.57 353.77,-96 345.14,-89.85 343.19,-96.57"/>
</g>
<!-- Node4 -->
<g id="node4" class="node">
<title>Node4</title>
<g id="a_node4"><a xlink:href="namespacem__mpi__proxy.html#a04ac565bad2b22dc045a5eeb4f516e2e" target="_top" xlink:title="The subroutine terminates the MPI execution environment.">
<polygon fill="white" stroke="#666666" points="465.5,-30 347.5,-30 347.5,0 465.5,0 465.5,-30"/>
<text text-anchor="start" x="355.5" y="-18" font-family="Helvetica,sans-Serif" font-size="10.00">m_mpi_proxy::s_mpi</text>
<text text-anchor="middle" x="406.5" y="-7" font-family="Helvetica,sans-Serif" font-size="10.00">_abort</text>
</a>
</g>
</g>
<!-- Node2&#45;&gt;Node4 -->
<g id="edge3" class="edge">
<title>Node2&#45;&gt;Node4</title>
<path fill="none" stroke="#63b8ff" d="M291.91,-47.94C308.39,-43.16 326.78,-37.83 343.88,-32.87"/>
<polygon fill="#63b8ff" stroke="#63b8ff" points="345.14,-36.15 353.77,-30 343.19,-29.43 345.14,-36.15"/>
</g>
<!-- Node5 -->
<g id="node5" class="node">
<title>Node5</title>
<g id="a_node5"><a xlink:href="namespacem__mpi__proxy.html#abfbc42cea69273bc9fa4a2d78f636eb1" target="_top" xlink:title="Halts all processes until all have reached barrier.">
<polygon fill="white" stroke="#666666" points="465.5,-78 347.5,-78 347.5,-48 465.5,-48 465.5,-78"/>
<text text-anchor="start" x="355.5" y="-66" font-family="Helvetica,sans-Serif" font-size="10.00">m_mpi_proxy::s_mpi</text>
<text text-anchor="middle" x="406.5" y="-55" font-family="Helvetica,sans-Serif" font-size="10.00">_barrier</text>
</a>
</g>
</g>
<!-- Node2&#45;&gt;Node5 -->
<g id="edge4" class="edge">
<title>Node2&#45;&gt;Node5</title>
<path fill="none" stroke="#63b8ff" d="M300.22,-63C312.2,-63 324.87,-63 337.11,-63"/>
<polygon fill="#63b8ff" stroke="#63b8ff" points="337.26,-66.5 347.26,-63 337.26,-59.5 337.26,-66.5"/>
</g>
<!-- Node6&#45;&gt;Node4 -->
<g id="edge6" class="edge">
<title>Node6&#45;&gt;Node4</title>
<path fill="none" stroke="#63b8ff" d="M300.22,-15C312.2,-15 324.87,-15 337.11,-15"/>
<polygon fill="#63b8ff" stroke="#63b8ff" points="337.26,-18.5 347.26,-15 337.26,-11.5 337.26,-18.5"/>
</g>
</g>
</svg>
