<?xml version="1.0" encoding="UTF-8" standalone="no"?>
<!DOCTYPE svg PUBLIC "-//W3C//DTD SVG 1.1//EN"
 "http://www.w3.org/Graphics/SVG/1.1/DTD/svg11.dtd">
<!-- Generated by graphviz version 2.43.0 (0)
 -->
<!-- Title: m_variables_conversion::s_initialize_compute_pressure_module Pages: 1 -->
<svg width="337pt" height="160pt"
 viewBox="0.00 0.00 337.00 159.50" xmlns="http://www.w3.org/2000/svg" xmlns:xlink="http://www.w3.org/1999/xlink">
<g id="graph0" class="graph" transform="scale(1 1) rotate(0) translate(4 155.5)">
<title>m_variables_conversion::s_initialize_compute_pressure_module</title>
<!-- Node1 -->
<g id="node1" class="node">
<title>Node1</title>
<g id="a_node1"><a xlink:title=" ">
<polygon fill="#bfbfbf" stroke="black" points="0,-60.5 0,-101.5 135,-101.5 135,-60.5 0,-60.5"/>
<text text-anchor="start" x="8" y="-89.5" font-family="Helvetica,sans-Serif" font-size="10.00">m_variables_conversion</text>
<text text-anchor="start" x="8" y="-78.5" font-family="Helvetica,sans-Serif" font-size="10.00">::s_initialize_compute</text>
<text text-anchor="middle" x="67.5" y="-67.5" font-family="Helvetica,sans-Serif" font-size="10.00">_pressure_module</text>
</a>
</g>
</g>
<!-- Node2 -->
<g id="node2" class="node">
<title>Node2</title>
<g id="a_node2"><a xlink:href="namespacem__variables__conversion.html#ac73c6c5887a98cab30d544259fea36d0" target="_top" xlink:title="This procedure calculates the pressure when model_eqns = 4.">
<polygon fill="none" stroke="black" points="171,-121 171,-151 329,-151 329,-121 171,-121"/>
<text text-anchor="start" x="179" y="-139" font-family="Helvetica,sans-Serif" font-size="10.00">m_variables_conversion</text>
<text text-anchor="middle" x="250" y="-128" font-family="Helvetica,sans-Serif" font-size="10.00">::s_compute_pressure_4eqns</text>
</a>
</g>
</g>
<!-- Node1&#45;&gt;Node2 -->
<g id="edge1" class="edge">
<title>Node1&#45;&gt;Node2</title>
<path fill="none" stroke="midnightblue" d="M135.2,-101.32C153,-106.75 172.11,-112.57 189.49,-117.87"/>
<polygon fill="midnightblue" stroke="midnightblue" points="188.92,-121.35 199.5,-120.92 190.96,-114.65 188.92,-121.35"/>
</g>
<!-- Node3 -->
<g id="node3" class="node">
<title>Node3</title>
<g id="a_node3"><a xlink:href="namespacem__variables__conversion.html#ace2991f4ff9e9e1c47dedefd5daa6871" target="_top" xlink:title="This procedure calculates the pressure when there are bubbles present and model_eqns !...">
<polygon fill="none" stroke="black" points="174,-60.5 174,-101.5 326,-101.5 326,-60.5 174,-60.5"/>
<text text-anchor="start" x="182" y="-89.5" font-family="Helvetica,sans-Serif" font-size="10.00">m_variables_conversion</text>
<text text-anchor="start" x="182" y="-78.5" font-family="Helvetica,sans-Serif" font-size="10.00">::s_compute_pressure_from</text>
<text text-anchor="middle" x="250" y="-67.5" font-family="Helvetica,sans-Serif" font-size="10.00">_bubbles</text>
</a>
</g>
</g>
<!-- Node1&#45;&gt;Node3 -->
<g id="edge2" class="edge">
<title>Node1&#45;&gt;Node3</title>
<path fill="none" stroke="midnightblue" d="M135.2,-81C144.42,-81 153.99,-81 163.49,-81"/>
<polygon fill="midnightblue" stroke="midnightblue" points="163.75,-84.5 173.75,-81 163.75,-77.5 163.75,-84.5"/>
</g>
<!-- Node4 -->
<g id="node4" class="node">
<title>Node4</title>
<g id="a_node4"><a xlink:href="namespacem__variables__conversion.html#aa16f5f5a5457a7790da6aac0ccd16679" target="_top" xlink:title="This procedure calculates the pressure based on energy when there are no bubbles present and model_eq...">
<polygon fill="none" stroke="black" points="174,-0.5 174,-41.5 326,-41.5 326,-0.5 174,-0.5"/>
<text text-anchor="start" x="182" y="-29.5" font-family="Helvetica,sans-Serif" font-size="10.00">m_variables_conversion</text>
<text text-anchor="start" x="182" y="-18.5" font-family="Helvetica,sans-Serif" font-size="10.00">::s_compute_pressure_from</text>
<text text-anchor="middle" x="250" y="-7.5" font-family="Helvetica,sans-Serif" font-size="10.00">_energy</text>
</a>
</g>
</g>
<!-- Node1&#45;&gt;Node4 -->
<g id="edge3" class="edge">
<title>Node1&#45;&gt;Node4</title>
<path fill="none" stroke="midnightblue" d="M130.37,-60.44C145.58,-55.38 161.99,-49.92 177.61,-44.73"/>
<polygon fill="midnightblue" stroke="midnightblue" points="178.83,-48.01 187.22,-41.54 176.62,-41.37 178.83,-48.01"/>
</g>
</g>
</svg>
