<?xml version="1.0" encoding="UTF-8" standalone="no"?>
<!DOCTYPE svg PUBLIC "-//W3C//DTD SVG 1.1//EN"
 "http://www.w3.org/Graphics/SVG/1.1/DTD/svg11.dtd">
<!-- Generated by graphviz version 2.43.0 (0)
 -->
<!-- Title: m_mpi_proxy::s_mpi_sendrecv_cons_vars_buffer_regions Pages: 1 -->
<svg width="396pt" height="50pt"
 viewBox="0.00 0.00 396.00 50.00" xmlns="http://www.w3.org/2000/svg" xmlns:xlink="http://www.w3.org/1999/xlink">
<g id="graph0" class="graph" transform="scale(1 1) rotate(0) translate(4 46)">
<title>m_mpi_proxy::s_mpi_sendrecv_cons_vars_buffer_regions</title>
<!-- Node1 -->
<g id="node1" class="node">
<title>Node1</title>
<g id="a_node1"><a xlink:title="Communicates buffer regions associated with conservative variables with processors in charge of the n...">
<polygon fill="#bfbfbf" stroke="black" points="268,-0.5 268,-41.5 388,-41.5 388,-0.5 268,-0.5"/>
<text text-anchor="start" x="276" y="-29.5" font-family="Helvetica,sans-Serif" font-size="10.00">m_mpi_proxy::s_mpi</text>
<text text-anchor="start" x="276" y="-18.5" font-family="Helvetica,sans-Serif" font-size="10.00">_sendrecv_cons_vars</text>
<text text-anchor="middle" x="328" y="-7.5" font-family="Helvetica,sans-Serif" font-size="10.00">_buffer_regions</text>
</a>
</g>
</g>
<!-- Node2 -->
<g id="node2" class="node">
<title>Node2</title>
<g id="a_node2"><a xlink:href="namespacem__data__input.html#a5cef0da967dbbf0d148b26bd67046c8d" target="_top" xlink:title="The purpose of this procedure is to populate the buffers of the cell&#45;average conservative variables,...">
<polygon fill="none" stroke="black" points="89,-0.5 89,-41.5 232,-41.5 232,-0.5 89,-0.5"/>
<text text-anchor="start" x="97" y="-29.5" font-family="Helvetica,sans-Serif" font-size="10.00">m_data_input::s_populate</text>
<text text-anchor="start" x="97" y="-18.5" font-family="Helvetica,sans-Serif" font-size="10.00">_conservative_variables</text>
<text text-anchor="middle" x="160.5" y="-7.5" font-family="Helvetica,sans-Serif" font-size="10.00">_buffer_regions</text>
</a>
</g>
</g>
<!-- Node1&#45;&gt;Node2 -->
<g id="edge1" class="edge">
<title>Node1&#45;&gt;Node2</title>
<path fill="none" stroke="midnightblue" d="M257.6,-21C249.21,-21 240.64,-21 232.23,-21"/>
<polygon fill="midnightblue" stroke="midnightblue" points="257.72,-24.5 267.72,-21 257.72,-17.5 257.72,-24.5"/>
</g>
<!-- Node3 -->
<g id="node3" class="node">
<title>Node3</title>
<g id="a_node3"><a xlink:href="p__main_8f90.html#aeec10ee8e2940c953967da3e374e1579" target="_top" xlink:title="The post&#45;process restructures raw unformatted data, outputted by the simulation, into a formatted dat...">
<polygon fill="none" stroke="black" points="0,-11.5 0,-30.5 53,-30.5 53,-11.5 0,-11.5"/>
<text text-anchor="middle" x="26.5" y="-18.5" font-family="Helvetica,sans-Serif" font-size="10.00">p_main</text>
</a>
</g>
</g>
<!-- Node2&#45;&gt;Node3 -->
<g id="edge2" class="edge">
<title>Node2&#45;&gt;Node3</title>
<path fill="none" stroke="midnightblue" d="M78.79,-21C69.61,-21 60.84,-21 53.23,-21"/>
<polygon fill="midnightblue" stroke="midnightblue" points="78.86,-24.5 88.86,-21 78.86,-17.5 78.86,-24.5"/>
</g>
</g>
</svg>
