<?xml version="1.0" encoding="UTF-8" standalone="no"?>
<!DOCTYPE svg PUBLIC "-//W3C//DTD SVG 1.1//EN"
 "http://www.w3.org/Graphics/SVG/1.1/DTD/svg11.dtd">
<!-- Generated by graphviz version 2.43.0 (0)
 -->
<!-- Title: m_mpi_proxy::s_mpi_defragment_1d_grid_variable Pages: 1 -->
<svg width="433pt" height="100pt"
 viewBox="0.00 0.00 433.00 99.50" xmlns="http://www.w3.org/2000/svg" xmlns:xlink="http://www.w3.org/1999/xlink">
<g id="graph0" class="graph" transform="scale(1 1) rotate(0) translate(4 95.5)">
<title>m_mpi_proxy::s_mpi_defragment_1d_grid_variable</title>
<!-- Node1 -->
<g id="node1" class="node">
<title>Node1</title>
<g id="a_node1"><a xlink:title="This subroutine collects the sub&#45;domain cell&#45;boundary or cell&#45;center locations data from all of the p...">
<polygon fill="#bfbfbf" stroke="black" points="305,-27.5 305,-68.5 425,-68.5 425,-27.5 305,-27.5"/>
<text text-anchor="start" x="313" y="-56.5" font-family="Helvetica,sans-Serif" font-size="10.00">m_mpi_proxy::s_mpi</text>
<text text-anchor="start" x="313" y="-45.5" font-family="Helvetica,sans-Serif" font-size="10.00">_defragment_1d_grid</text>
<text text-anchor="middle" x="365" y="-34.5" font-family="Helvetica,sans-Serif" font-size="10.00">_variable</text>
</a>
</g>
</g>
<!-- Node2 -->
<g id="node2" class="node">
<title>Node2</title>
<g id="a_node2"><a xlink:href="namespacem__data__output.html#aecc8721d118ae19c22982d0b59455ede" target="_top" xlink:title=" ">
<polygon fill="none" stroke="black" points="89,-61 89,-91 269,-91 269,-61 89,-61"/>
<text text-anchor="start" x="97" y="-79" font-family="Helvetica,sans-Serif" font-size="10.00">m_data_output::s_write</text>
<text text-anchor="middle" x="179" y="-68" font-family="Helvetica,sans-Serif" font-size="10.00">_grid_to_formatted_database_file</text>
</a>
</g>
</g>
<!-- Node1&#45;&gt;Node2 -->
<g id="edge1" class="edge">
<title>Node1&#45;&gt;Node2</title>
<path fill="none" stroke="midnightblue" d="M294.76,-58.54C286.43,-59.8 277.83,-61.11 269.26,-62.42"/>
<polygon fill="midnightblue" stroke="midnightblue" points="295.41,-61.98 304.77,-57.01 294.36,-55.06 295.41,-61.98"/>
</g>
<!-- Node4 -->
<g id="node4" class="node">
<title>Node4</title>
<g id="a_node4"><a xlink:href="namespacem__data__output.html#a57ac3445406c2114885fab7e5517bd1c" target="_top" xlink:title=" ">
<polygon fill="none" stroke="black" points="113.5,-0.5 113.5,-41.5 244.5,-41.5 244.5,-0.5 113.5,-0.5"/>
<text text-anchor="start" x="121.5" y="-29.5" font-family="Helvetica,sans-Serif" font-size="10.00">m_data_output::s_write</text>
<text text-anchor="start" x="121.5" y="-18.5" font-family="Helvetica,sans-Serif" font-size="10.00">_variable_to_formatted</text>
<text text-anchor="middle" x="179" y="-7.5" font-family="Helvetica,sans-Serif" font-size="10.00">_database_file</text>
</a>
</g>
</g>
<!-- Node1&#45;&gt;Node4 -->
<g id="edge3" class="edge">
<title>Node1&#45;&gt;Node4</title>
<path fill="none" stroke="midnightblue" d="M294.68,-37.83C278.23,-35.41 260.75,-32.85 244.53,-30.47"/>
<polygon fill="midnightblue" stroke="midnightblue" points="294.37,-41.32 304.77,-39.31 295.38,-34.39 294.37,-41.32"/>
</g>
<!-- Node3 -->
<g id="node3" class="node">
<title>Node3</title>
<g id="a_node3"><a xlink:href="p__main_8f90.html#aeec10ee8e2940c953967da3e374e1579" target="_top" xlink:title="The post&#45;process restructures raw unformatted data, outputted by the simulation, into a formatted dat...">
<polygon fill="none" stroke="black" points="0,-38.5 0,-57.5 53,-57.5 53,-38.5 0,-38.5"/>
<text text-anchor="middle" x="26.5" y="-45.5" font-family="Helvetica,sans-Serif" font-size="10.00">p_main</text>
</a>
</g>
</g>
<!-- Node2&#45;&gt;Node3 -->
<g id="edge2" class="edge">
<title>Node2&#45;&gt;Node3</title>
<path fill="none" stroke="midnightblue" d="M87.06,-59.08C74.75,-56.79 63.04,-54.61 53.3,-52.8"/>
<polygon fill="midnightblue" stroke="midnightblue" points="86.55,-62.55 97.02,-60.93 87.83,-55.66 86.55,-62.55"/>
</g>
<!-- Node4&#45;&gt;Node3 -->
<g id="edge4" class="edge">
<title>Node4&#45;&gt;Node3</title>
<path fill="none" stroke="midnightblue" d="M103.31,-34.4C85.27,-37.64 67.19,-40.88 53.21,-43.39"/>
<polygon fill="midnightblue" stroke="midnightblue" points="104.08,-37.82 113.3,-32.61 102.84,-30.93 104.08,-37.82"/>
</g>
</g>
</svg>
