<?xml version="1.0" encoding="UTF-8" standalone="no"?>
<!DOCTYPE svg PUBLIC "-//W3C//DTD SVG 1.1//EN"
 "http://www.w3.org/Graphics/SVG/1.1/DTD/svg11.dtd">
<!-- Generated by graphviz version 2.43.0 (0)
 -->
<!-- Title: m_data_input::s_read_parallel_data_files Pages: 1 -->
<svg width="563pt" height="60pt"
 viewBox="0.00 0.00 563.00 60.00" xmlns="http://www.w3.org/2000/svg" xmlns:xlink="http://www.w3.org/1999/xlink">
<g id="graph0" class="graph" transform="scale(1 1) rotate(0) translate(4 56)">
<title>m_data_input::s_read_parallel_data_files</title>
<!-- Node1 -->
<g id="Node000001" class="node">
<title>Node1</title>
<g id="a_Node000001"><a xlink:title="This subroutine is called at each time&#45;step that has to be post&#45;processed in order to parallel&#45;read t...">
<polygon fill="#999999" stroke="#666666" points="555,-30 433,-30 433,0 555,0 555,-30"/>
<text text-anchor="start" x="441" y="-18" font-family="Helvetica,sans-Serif" font-size="10.00">m_data_input::s_read</text>
<text text-anchor="middle" x="494" y="-7" font-family="Helvetica,sans-Serif" font-size="10.00">_parallel_data_files</text>
</a>
</g>
</g>
<!-- Node2 -->
<g id="Node000002" class="node">
<title>Node2</title>
<g id="a_Node000002"><a xlink:href="namespacem__data__input.html#a806c2edb19d6a47fd494f8491d2b93d3" target="_top" xlink:title="Computation of parameters, allocation procedures, and/or any other tasks needed to properly setup the...">
<polygon fill="white" stroke="#666666" points="397,-52 255,-52 255,-22 397,-22 397,-52"/>
<text text-anchor="start" x="263" y="-40" font-family="Helvetica,sans-Serif" font-size="10.00">m_data_input::s_initialize</text>
<text text-anchor="middle" x="326" y="-29" font-family="Helvetica,sans-Serif" font-size="10.00">_data_input_module</text>
</a>
</g>
</g>
<!-- Node1&#45;&gt;Node2 -->
<g id="edge1_Node000001_Node000002" class="edge">
<title>Node1&#45;&gt;Node2</title>
<g id="a_edge1_Node000001_Node000002"><a xlink:title=" ">
<path fill="none" stroke="#63b8ff" d="M422.5,-24.34C414.13,-25.45 405.58,-26.59 397.21,-27.69"/>
<polygon fill="#63b8ff" stroke="#63b8ff" points="423.15,-27.79 432.6,-23 422.23,-20.85 423.15,-27.79"/>
</a>
</g>
</g>
<!-- Node3 -->
<g id="Node000003" class="node">
<title>Node3</title>
<g id="a_Node000003"><a xlink:href="namespacem__start__up.html#a99cb174d3205e5613dd370a10577fae2" target="_top" xlink:title=" ">
<polygon fill="white" stroke="#666666" points="219,-30 89,-30 89,0 219,0 219,-30"/>
<text text-anchor="start" x="97" y="-18" font-family="Helvetica,sans-Serif" font-size="10.00">m_start_up::s_initialize</text>
<text text-anchor="middle" x="154" y="-7" font-family="Helvetica,sans-Serif" font-size="10.00">_modules</text>
</a>
</g>
</g>
<!-- Node1&#45;&gt;Node3 -->
<g id="edge4_Node000001_Node000003" class="edge">
<title>Node1&#45;&gt;Node3</title>
<g id="a_edge4_Node000001_Node000003"><a xlink:title=" ">
<path fill="none" stroke="#63b8ff" d="M422.72,-13.37C414.06,-13.22 405.33,-13.09 397,-13 333.89,-12.34 318.11,-12.37 255,-13 243.37,-13.12 230.97,-13.31 219.01,-13.53"/>
<polygon fill="#63b8ff" stroke="#63b8ff" points="422.77,-16.87 432.83,-13.55 422.9,-9.87 422.77,-16.87"/>
</a>
</g>
</g>
<!-- Node2&#45;&gt;Node3 -->
<g id="edge2_Node000002_Node000003" class="edge">
<title>Node2&#45;&gt;Node3</title>
<g id="a_edge2_Node000002_Node000003"><a xlink:title=" ">
<path fill="none" stroke="#63b8ff" d="M244.85,-26.63C236.26,-25.52 227.61,-24.4 219.24,-23.31"/>
<polygon fill="#63b8ff" stroke="#63b8ff" points="244.51,-30.11 254.87,-27.92 245.4,-23.17 244.51,-30.11"/>
</a>
</g>
</g>
<!-- Node4 -->
<g id="Node000004" class="node">
<title>Node4</title>
<g id="a_Node000004"><a xlink:href="p__main_8fpp_8f90.html#aeec10ee8e2940c953967da3e374e1579" target="_top" xlink:title="The post&#45;process restructures raw unformatted data, outputted by the simulation, into a formatted dat...">
<polygon fill="white" stroke="#666666" points="53,-24.5 0,-24.5 0,-5.5 53,-5.5 53,-24.5"/>
<text text-anchor="middle" x="26.5" y="-12.5" font-family="Helvetica,sans-Serif" font-size="10.00">p_main</text>
</a>
</g>
</g>
<!-- Node3&#45;&gt;Node4 -->
<g id="edge3_Node000003_Node000004" class="edge">
<title>Node3&#45;&gt;Node4</title>
<g id="a_edge3_Node000003_Node000004"><a xlink:title=" ">
<path fill="none" stroke="#63b8ff" d="M78.74,-15C69.58,-15 60.76,-15 53.09,-15"/>
<polygon fill="#63b8ff" stroke="#63b8ff" points="78.78,-18.5 88.78,-15 78.78,-11.5 78.78,-18.5"/>
</a>
</g>
</g>
</g>
</svg>
