<?xml version="1.0" encoding="UTF-8" standalone="no"?>
<!DOCTYPE svg PUBLIC "-//W3C//DTD SVG 1.1//EN"
 "http://www.w3.org/Graphics/SVG/1.1/DTD/svg11.dtd">
<!-- Generated by graphviz version 2.43.0 (0)
 -->
<!-- Title: m_start_up::s_save_data Pages: 1 -->
<!--zoomable 690 -->

<svg id="main" version="1.1" xmlns="http://www.w3.org/2000/svg" xmlns:xlink="http://www.w3.org/1999/xlink" xml:space="preserve" onload="init(evt)">
<style type="text/css"><![CDATA[
.node, .edge {opacity: 0.7;}
.node.selected, .edge.selected {opacity: 1;}
.edge:hover path { stroke: red; }
.edge:hover polygon { stroke: red; fill: red; }
]]></style>

<defs>
  <circle id="rim" cx="0" cy="0" r="7"/>
  <circle id="rim2" cx="0" cy="0" r="3.5"/>
  <g id="zoomPlus">
    <use xlink:href="#rim" fill="#404040"><set attributeName="fill" to="#808080" begin="zoomplus.mouseover" end="zoomplus.mouseout"/></use>
    <path d="M-4,0h8M0,-4v8" fill="none" stroke="white" stroke-width="1.5" pointer-events="none"/>
  </g>
  <g id="zoomMin">
    <use xlink:href="#rim" fill="#404040"><set attributeName="fill" to="#808080" begin="zoomminus.mouseover" end="zoomminus.mouseout"/></use>
    <path d="M-4,0h8" fill="none" stroke="white" stroke-width="1.5" pointer-events="none"/>
  </g>
  <g id="arrowUp" transform="translate(30 24)">
    <use xlink:href="#rim"/>
    <path pointer-events="none" fill="none" stroke="white" stroke-width="1.5" d="M0,-3.0v7 M-2.5,-0.5L0,-3.0L2.5,-0.5"/>
  </g>
  <g id="arrowRight" transform="rotate(90) translate(36 -43)">
    <use xlink:href="#rim"/>
    <path pointer-events="none" fill="none" stroke="white" stroke-width="1.5" d="M0,-3.0v7 M-2.5,-0.5L0,-3.0L2.5,-0.5"/>
  </g>
  <g id="arrowDown" transform="rotate(180) translate(-30 -48)">
    <use xlink:href="#rim"/>
    <path pointer-events="none" fill="none" stroke="white" stroke-width="1.5" d="M0,-3.0v7 M-2.5,-0.5L0,-3.0L2.5,-0.5"/>
  </g>
  <g id="arrowLeft" transform="rotate(270) translate(-36 17)">
    <use xlink:href="#rim"/>
    <path pointer-events="none" fill="none" stroke="white" stroke-width="1.5" d="M0,-3.0v7 M-2.5,-0.5L0,-3.0L2.5,-0.5"/>
  </g>
  <g id="resetDef">
    <use xlink:href="#rim2" fill="#404040"><set attributeName="fill" to="#808080" begin="reset.mouseover" end="reset.mouseout"/></use>
  </g>
</defs>
<script type="application/ecmascript">
var viewWidth = 532;
var viewHeight = 690;
var sectionId = 'dynsection-12';
</script>
<script type="application/ecmascript" xlink:href="svg.min.js"/>
<svg id="graph" class="graph">
<g id="viewport">
<title>m_start_up::s_save_data</title>
<!-- Node1 -->
<g id="Node000001" class="node">
<title>Node1</title>
<g id="a_Node000001"><a xlink:title=" ">
<polygon fill="#999999" stroke="#666666" points="138,-403.5 0,-403.5 0,-384.5 138,-384.5 138,-403.5"/>
<text text-anchor="middle" x="69" y="-391.5" font-family="Helvetica,sans-Serif" font-size="10.00">m_start_up::s_save_data</text>
</a>
</g>
</g>
<!-- Node2 -->
<g id="Node000002" class="node">
<title>Node2</title>
<g id="a_Node000002"><a xlink:href="namespacem__data__output.html#a9ab4e5bfbf085c126a58c78383d38fa7" target="_top" xlink:title=" ">
<polygon fill="white" stroke="#666666" points="334.5,-682 193.5,-682 193.5,-652 334.5,-652 334.5,-682"/>
<text text-anchor="start" x="201.5" y="-670" font-family="Helvetica,sans-Serif" font-size="10.00">m_data_output::s_close</text>
<text text-anchor="middle" x="264" y="-659" font-family="Helvetica,sans-Serif" font-size="10.00">_formatted_database_file</text>
</a>
</g>
</g>
<!-- Node1&#45;&gt;Node2 -->
<g id="edge1_Node000001_Node000002" class="edge">
<title>Node1&#45;&gt;Node2</title>
<g id="a_edge1_Node000001_Node000002"><a xlink:title=" ">
<path fill="none" stroke="#63b8ff" d="M71.02,-403.61C75.48,-440.62 96.64,-575.25 174,-643 177.18,-645.79 180.66,-648.26 184.33,-650.44"/>
<polygon fill="#63b8ff" stroke="#63b8ff" points="182.72,-653.55 193.21,-655.04 185.94,-647.33 182.72,-653.55"/>
</a>
</g>
</g>
<!-- Node3 -->
<g id="Node000003" class="node">
<title>Node3</title>
<g id="a_Node000003"><a xlink:href="m__helper_8fpp_8f90.html#a397f792e51d5a7f74131b9c72b87e071" target="_top" xlink:title="The purpose of this subroutine is to compute the finite&#45; difference coefficients for the centered sch...">
<polygon fill="white" stroke="#666666" points="341,-634 187,-634 187,-604 341,-604 341,-634"/>
<text text-anchor="start" x="195" y="-622" font-family="Helvetica,sans-Serif" font-size="10.00">s_compute_finite_difference</text>
<text text-anchor="middle" x="264" y="-611" font-family="Helvetica,sans-Serif" font-size="10.00">_coefficients</text>
</a>
</g>
</g>
<!-- Node1&#45;&gt;Node3 -->
<g id="edge2_Node000001_Node000003" class="edge">
<title>Node1&#45;&gt;Node3</title>
<g id="a_edge2_Node000001_Node000003"><a xlink:title=" ">
<path fill="none" stroke="#63b8ff" d="M72.09,-403.74C79.58,-436.25 108.23,-541.99 174,-595 175.59,-596.28 177.24,-597.49 178.94,-598.64"/>
<polygon fill="#63b8ff" stroke="#63b8ff" points="177.45,-601.82 187.85,-603.86 180.99,-595.78 177.45,-601.82"/>
</a>
</g>
</g>
<!-- Node4 -->
<g id="Node000004" class="node">
<title>Node4</title>
<g id="a_Node000004"><a xlink:href="namespacem__derived__variables.html#aa428d100adab2acbbba6b31faad19b42" target="_top" xlink:title=" ">
<polygon fill="white" stroke="#666666" points="344,-586 184,-586 184,-556 344,-556 344,-586"/>
<text text-anchor="start" x="192" y="-574" font-family="Helvetica,sans-Serif" font-size="10.00">m_derived_variables</text>
<text text-anchor="middle" x="264" y="-563" font-family="Helvetica,sans-Serif" font-size="10.00">::s_compute_speed_of_sound</text>
</a>
</g>
</g>
<!-- Node1&#45;&gt;Node4 -->
<g id="edge3_Node000001_Node000004" class="edge">
<title>Node1&#45;&gt;Node4</title>
<g id="a_edge3_Node000001_Node000004"><a xlink:title=" ">
<path fill="none" stroke="#63b8ff" d="M73.7,-403.64C84.6,-430.73 119.31,-508.07 174,-547 176.11,-548.5 178.31,-549.91 180.58,-551.23"/>
<polygon fill="#63b8ff" stroke="#63b8ff" points="179.14,-554.43 189.63,-555.9 182.35,-548.2 179.14,-554.43"/>
</a>
</g>
</g>
<!-- Node5 -->
<g id="Node000005" class="node">
<title>Node5</title>
<g id="a_Node000005"><a xlink:href="namespacem__derived__variables.html#ac85e77b0312f21389eb166960446f6ec" target="_top" xlink:title="This subroutine derives the flux_limiter at cell boundary i+1/2. This is an approximation because the...">
<polygon fill="white" stroke="#666666" points="326.5,-538 201.5,-538 201.5,-508 326.5,-508 326.5,-538"/>
<text text-anchor="start" x="209.5" y="-526" font-family="Helvetica,sans-Serif" font-size="10.00">m_derived_variables</text>
<text text-anchor="middle" x="264" y="-515" font-family="Helvetica,sans-Serif" font-size="10.00">::s_derive_flux_limiter</text>
</a>
</g>
</g>
<!-- Node1&#45;&gt;Node5 -->
<g id="edge4_Node000001_Node000005" class="edge">
<title>Node1&#45;&gt;Node5</title>
<g id="a_edge4_Node000001_Node000005"><a xlink:title=" ">
<path fill="none" stroke="#63b8ff" d="M76.83,-403.79C91.89,-424.62 130.09,-473.46 174,-499 179.54,-502.22 185.52,-505.02 191.67,-507.45"/>
<polygon fill="#63b8ff" stroke="#63b8ff" points="190.85,-510.88 201.44,-510.98 193.22,-504.29 190.85,-510.88"/>
</a>
</g>
</g>
<!-- Node6 -->
<g id="Node000006" class="node">
<title>Node6</title>
<g id="a_Node000006"><a xlink:href="namespacem__derived__variables.html#a4787078e769104be57579c411e7d6e2a" target="_top" xlink:title="This subroutine admits as inputs the specific heat ratio function and the liquid stiffness function,...">
<polygon fill="white" stroke="#666666" points="335.5,-490 192.5,-490 192.5,-460 335.5,-460 335.5,-490"/>
<text text-anchor="start" x="200.5" y="-478" font-family="Helvetica,sans-Serif" font-size="10.00">m_derived_variables</text>
<text text-anchor="middle" x="264" y="-467" font-family="Helvetica,sans-Serif" font-size="10.00">::s_derive_liquid_stiffness</text>
</a>
</g>
</g>
<!-- Node1&#45;&gt;Node6 -->
<g id="edge5_Node000001_Node000006" class="edge">
<title>Node1&#45;&gt;Node6</title>
<g id="a_edge5_Node000001_Node000006"><a xlink:title=" ">
<path fill="none" stroke="#63b8ff" d="M84.94,-403.68C104.66,-416.1 140.76,-437.63 174,-451 179.1,-453.05 184.44,-454.99 189.86,-456.8"/>
<polygon fill="#63b8ff" stroke="#63b8ff" points="189.07,-460.22 199.66,-459.92 191.2,-453.55 189.07,-460.22"/>
</a>
</g>
</g>
<!-- Node7 -->
<g id="Node000007" class="node">
<title>Node7</title>
<g id="a_Node000007"><a xlink:href="namespacem__derived__variables.html#a5de4b62f12a47d704fbdd9f0d27e723d" target="_top" xlink:title="This subroutine gets as inputs the conservative variables and density. From those inputs,...">
<polygon fill="white" stroke="#666666" points="323.5,-441.5 204.5,-441.5 204.5,-400.5 323.5,-400.5 323.5,-441.5"/>
<text text-anchor="start" x="212.5" y="-429.5" font-family="Helvetica,sans-Serif" font-size="10.00">m_derived_variables</text>
<text text-anchor="start" x="212.5" y="-418.5" font-family="Helvetica,sans-Serif" font-size="10.00">::s_derive_numerical</text>
<text text-anchor="middle" x="264" y="-407.5" font-family="Helvetica,sans-Serif" font-size="10.00">_schlieren_function</text>
</a>
</g>
</g>
<!-- Node1&#45;&gt;Node7 -->
<g id="edge6_Node000001_Node000007" class="edge">
<title>Node1&#45;&gt;Node7</title>
<g id="a_edge6_Node000001_Node000007"><a xlink:title=" ">
<path fill="none" stroke="#63b8ff" d="M138.04,-403.52C156.27,-406.07 175.98,-408.83 194.24,-411.38"/>
<polygon fill="#63b8ff" stroke="#63b8ff" points="193.83,-414.86 204.21,-412.78 194.8,-407.92 193.83,-414.86"/>
</a>
</g>
</g>
<!-- Node9 -->
<g id="Node000009" class="node">
<title>Node9</title>
<g id="a_Node000009"><a xlink:href="namespacem__derived__variables.html#ae0ac63f6066331314e3ff19a123deaa1" target="_top" xlink:title="This subroutine gets as inputs the primitive variables. From those inputs, it proceeds to calculate t...">
<polygon fill="white" stroke="#666666" points="323.5,-382 204.5,-382 204.5,-352 323.5,-352 323.5,-382"/>
<text text-anchor="start" x="212.5" y="-370" font-family="Helvetica,sans-Serif" font-size="10.00">m_derived_variables</text>
<text text-anchor="middle" x="264" y="-359" font-family="Helvetica,sans-Serif" font-size="10.00">::s_derive_qm</text>
</a>
</g>
</g>
<!-- Node1&#45;&gt;Node9 -->
<g id="edge8_Node000001_Node000009" class="edge">
<title>Node1&#45;&gt;Node9</title>
<g id="a_edge8_Node000001_Node000009"><a xlink:title=" ">
<path fill="none" stroke="#63b8ff" d="M138.04,-384.48C156.27,-381.93 175.98,-379.17 194.24,-376.62"/>
<polygon fill="#63b8ff" stroke="#63b8ff" points="194.8,-380.08 204.21,-375.22 193.83,-373.14 194.8,-380.08"/>
</a>
</g>
</g>
<!-- Node10 -->
<g id="Node000010" class="node">
<title>Node10</title>
<g id="a_Node000010"><a xlink:href="namespacem__derived__variables.html#a40c4c0bb139b56e00ea765579d13bfd6" target="_top" xlink:title="This subroutine receives as input the specific heat ratio function, gamma_sf, and derives from it the...">
<polygon fill="white" stroke="#666666" points="323.5,-333.5 204.5,-333.5 204.5,-292.5 323.5,-292.5 323.5,-333.5"/>
<text text-anchor="start" x="212.5" y="-321.5" font-family="Helvetica,sans-Serif" font-size="10.00">m_derived_variables</text>
<text text-anchor="start" x="212.5" y="-310.5" font-family="Helvetica,sans-Serif" font-size="10.00">::s_derive_specific</text>
<text text-anchor="middle" x="264" y="-299.5" font-family="Helvetica,sans-Serif" font-size="10.00">_heat_ratio</text>
</a>
</g>
</g>
<!-- Node1&#45;&gt;Node10 -->
<g id="edge9_Node000001_Node000010" class="edge">
<title>Node1&#45;&gt;Node10</title>
<g id="a_edge9_Node000001_Node000010"><a xlink:title=" ">
<path fill="none" stroke="#63b8ff" d="M87.71,-384.43C108.15,-373.59 142.95,-355.78 174,-343 180.63,-340.27 187.62,-337.59 194.63,-335.03"/>
<polygon fill="#63b8ff" stroke="#63b8ff" points="195.95,-338.27 204.19,-331.61 193.6,-331.68 195.95,-338.27"/>
</a>
</g>
</g>
<!-- Node11 -->
<g id="Node000011" class="node">
<title>Node11</title>
<g id="a_Node000011"><a xlink:href="namespacem__derived__variables.html#aa038ec37a8a0c8fe8d7185b9ef6d54a9" target="_top" xlink:title="This subroutine receives as inputs the indicator of the component of the vorticity that should be out...">
<polygon fill="white" stroke="#666666" points="323.5,-274.5 204.5,-274.5 204.5,-233.5 323.5,-233.5 323.5,-274.5"/>
<text text-anchor="start" x="212.5" y="-262.5" font-family="Helvetica,sans-Serif" font-size="10.00">m_derived_variables</text>
<text text-anchor="start" x="212.5" y="-251.5" font-family="Helvetica,sans-Serif" font-size="10.00">::s_derive_vorticity</text>
<text text-anchor="middle" x="264" y="-240.5" font-family="Helvetica,sans-Serif" font-size="10.00">_component</text>
</a>
</g>
</g>
<!-- Node1&#45;&gt;Node11 -->
<g id="edge10_Node000001_Node000011" class="edge">
<title>Node1&#45;&gt;Node11</title>
<g id="a_edge10_Node000001_Node000011"><a xlink:title=" ">
<path fill="none" stroke="#63b8ff" d="M76.62,-384.26C91.54,-363.02 129.95,-312.19 174,-284 180.47,-279.86 187.57,-276.23 194.86,-273.06"/>
<polygon fill="#63b8ff" stroke="#63b8ff" points="196.2,-276.29 204.14,-269.28 193.56,-269.8 196.2,-276.29"/>
</a>
</g>
</g>
<!-- Node12 -->
<g id="Node000012" class="node">
<title>Node12</title>
<g id="a_Node000012"><a xlink:href="namespacem__data__output.html#ae767b4364e76ee05872868171fd2f05d" target="_top" xlink:title=" ">
<polygon fill="white" stroke="#666666" points="334.5,-215 193.5,-215 193.5,-185 334.5,-185 334.5,-215"/>
<text text-anchor="start" x="201.5" y="-203" font-family="Helvetica,sans-Serif" font-size="10.00">m_data_output::s_open</text>
<text text-anchor="middle" x="264" y="-192" font-family="Helvetica,sans-Serif" font-size="10.00">_formatted_database_file</text>
</a>
</g>
</g>
<!-- Node1&#45;&gt;Node12 -->
<g id="edge11_Node000001_Node000012" class="edge">
<title>Node1&#45;&gt;Node12</title>
<g id="a_edge11_Node000001_Node000012"><a xlink:title=" ">
<path fill="none" stroke="#63b8ff" d="M73.13,-384.23C82.95,-355.2 115.98,-268.79 174,-225 177.22,-222.57 180.67,-220.37 184.27,-218.39"/>
<polygon fill="#63b8ff" stroke="#63b8ff" points="186.03,-221.42 193.48,-213.89 182.96,-215.13 186.03,-221.42"/>
</a>
</g>
</g>
<!-- Node14 -->
<g id="Node000014" class="node">
<title>Node14</title>
<g id="a_Node000014"><a xlink:href="namespacem__data__output.html#aecc8721d118ae19c22982d0b59455ede" target="_top" xlink:title=" ">
<polygon fill="white" stroke="#666666" points="354,-167 174,-167 174,-137 354,-137 354,-167"/>
<text text-anchor="start" x="182" y="-155" font-family="Helvetica,sans-Serif" font-size="10.00">m_data_output::s_write</text>
<text text-anchor="middle" x="264" y="-144" font-family="Helvetica,sans-Serif" font-size="10.00">_grid_to_formatted_database_file</text>
</a>
</g>
</g>
<!-- Node1&#45;&gt;Node14 -->
<g id="edge13_Node000001_Node000014" class="edge">
<title>Node1&#45;&gt;Node14</title>
<g id="a_edge13_Node000001_Node000014"><a xlink:title=" ">
<path fill="none" stroke="#63b8ff" d="M71.64,-384.42C77.97,-350.38 104.08,-234.24 174,-176 175.52,-174.73 177.1,-173.53 178.74,-172.39"/>
<polygon fill="#63b8ff" stroke="#63b8ff" points="180.55,-175.39 187.29,-167.21 176.93,-169.4 180.55,-175.39"/>
</a>
</g>
</g>
<!-- Node17 -->
<g id="Node000017" class="node">
<title>Node17</title>
<g id="a_Node000017"><a xlink:href="namespacem__data__output.html#a57ac3445406c2114885fab7e5517bd1c" target="_top" xlink:title=" ">
<polygon fill="white" stroke="#666666" points="329.5,-116.5 198.5,-116.5 198.5,-75.5 329.5,-75.5 329.5,-116.5"/>
<text text-anchor="start" x="206.5" y="-104.5" font-family="Helvetica,sans-Serif" font-size="10.00">m_data_output::s_write</text>
<text text-anchor="start" x="206.5" y="-93.5" font-family="Helvetica,sans-Serif" font-size="10.00">_variable_to_formatted</text>
<text text-anchor="middle" x="264" y="-82.5" font-family="Helvetica,sans-Serif" font-size="10.00">_database_file</text>
</a>
</g>
</g>
<!-- Node1&#45;&gt;Node17 -->
<g id="edge16_Node000001_Node000017" class="edge">
<title>Node1&#45;&gt;Node17</title>
<g id="a_edge16_Node000001_Node000017"><a xlink:title=" ">
<path fill="none" stroke="#63b8ff" d="M70.92,-384.47C75.11,-346.49 95.63,-204.24 174,-128 178.56,-123.57 183.77,-119.74 189.34,-116.44"/>
<polygon fill="#63b8ff" stroke="#63b8ff" points="191.14,-119.45 198.34,-111.68 187.86,-113.27 191.14,-119.45"/>
</a>
</g>
</g>
<!-- Node8 -->
<g id="Node000008" class="node">
<title>Node8</title>
<g id="a_Node000008"><a xlink:href="m__mpi__common_8fpp_8f90.html#a92b85def49cd55b9c3d3d1eac60255ee" target="_top" xlink:title="The following subroutine takes the first element of the 2&#45;element inputted variable and determines it...">
<polygon fill="white" stroke="#666666" points="519.5,-430.5 394.5,-430.5 394.5,-411.5 519.5,-411.5 519.5,-430.5"/>
<text text-anchor="middle" x="457" y="-418.5" font-family="Helvetica,sans-Serif" font-size="10.00">s_mpi_reduce_maxloc</text>
</a>
</g>
</g>
<!-- Node7&#45;&gt;Node8 -->
<g id="edge7_Node000007_Node000008" class="edge">
<title>Node7&#45;&gt;Node8</title>
<g id="a_edge7_Node000007_Node000008"><a xlink:title=" ">
<path fill="none" stroke="#63b8ff" d="M323.6,-421C342.65,-421 364.02,-421 383.93,-421"/>
<polygon fill="#63b8ff" stroke="#63b8ff" points="384.2,-424.5 394.2,-421 384.2,-417.5 384.2,-424.5"/>
</a>
</g>
</g>
<!-- Node13 -->
<g id="Node000013" class="node">
<title>Node13</title>
<g id="a_Node000013"><a xlink:href="m__mpi__common_8fpp_8f90.html#ad9e1329e498b65ad4256658675d6f797" target="_top" xlink:title="The subroutine terminates the MPI execution environment.">
<polygon fill="white" stroke="#666666" points="495.5,-234.5 418.5,-234.5 418.5,-215.5 495.5,-215.5 495.5,-234.5"/>
<text text-anchor="middle" x="457" y="-222.5" font-family="Helvetica,sans-Serif" font-size="10.00">s_mpi_abort</text>
</a>
</g>
</g>
<!-- Node12&#45;&gt;Node13 -->
<g id="edge12_Node000012_Node000013" class="edge">
<title>Node12&#45;&gt;Node13</title>
<g id="a_edge12_Node000012_Node000013"><a xlink:title=" ">
<path fill="none" stroke="#63b8ff" d="M334.77,-209.13C359.15,-212.32 385.94,-215.83 408.13,-218.73"/>
<polygon fill="#63b8ff" stroke="#63b8ff" points="407.93,-222.24 418.3,-220.06 408.83,-215.3 407.93,-222.24"/>
</a>
</g>
</g>
<!-- Node15 -->
<g id="Node000015" class="node">
<title>Node15</title>
<g id="a_Node000015"><a xlink:href="namespacem__mpi__proxy.html#ac15a15ba12e6110bb015af0ece5bba47" target="_top" xlink:title="This subroutine collects the sub&#45;domain cell&#45;boundary or cell&#45;center locations data from all of the p...">
<polygon fill="white" stroke="#666666" points="517,-148.5 397,-148.5 397,-107.5 517,-107.5 517,-148.5"/>
<text text-anchor="start" x="405" y="-136.5" font-family="Helvetica,sans-Serif" font-size="10.00">m_mpi_proxy::s_mpi</text>
<text text-anchor="start" x="405" y="-125.5" font-family="Helvetica,sans-Serif" font-size="10.00">_defragment_1d_grid</text>
<text text-anchor="middle" x="457" y="-114.5" font-family="Helvetica,sans-Serif" font-size="10.00">_variable</text>
</a>
</g>
</g>
<!-- Node14&#45;&gt;Node15 -->
<g id="edge14_Node000014_Node000015" class="edge">
<title>Node14&#45;&gt;Node15</title>
<g id="a_edge14_Node000014_Node000015"><a xlink:title=" ">
<path fill="none" stroke="#63b8ff" d="M354.07,-140.81C365.05,-139.43 376.15,-138.03 386.77,-136.7"/>
<polygon fill="#63b8ff" stroke="#63b8ff" points="387.31,-140.16 396.79,-135.44 386.44,-133.21 387.31,-140.16"/>
</a>
</g>
</g>
<!-- Node16 -->
<g id="Node000016" class="node">
<title>Node16</title>
<g id="a_Node000016"><a xlink:href="namespacem__mpi__proxy.html#ab2ced8f095b812fcc355539c2c5fa162" target="_top" xlink:title="This subroutine gathers the Silo database metadata for the spatial extents in order to boost the perf...">
<polygon fill="white" stroke="#666666" points="524,-197 390,-197 390,-167 524,-167 524,-197"/>
<text text-anchor="start" x="398" y="-185" font-family="Helvetica,sans-Serif" font-size="10.00">m_mpi_proxy::s_mpi</text>
<text text-anchor="middle" x="457" y="-174" font-family="Helvetica,sans-Serif" font-size="10.00">_gather_spatial_extents</text>
</a>
</g>
</g>
<!-- Node14&#45;&gt;Node16 -->
<g id="edge15_Node000014_Node000016" class="edge">
<title>Node14&#45;&gt;Node16</title>
<g id="a_edge15_Node000014_Node000016"><a xlink:title=" ">
<path fill="none" stroke="#63b8ff" d="M354.07,-165.99C362.74,-167.35 371.48,-168.72 380,-170.06"/>
<polygon fill="#63b8ff" stroke="#63b8ff" points="379.46,-173.52 389.89,-171.62 380.55,-166.61 379.46,-173.52"/>
</a>
</g>
</g>
<!-- Node17&#45;&gt;Node15 -->
<g id="edge18_Node000017_Node000015" class="edge">
<title>Node17&#45;&gt;Node15</title>
<g id="a_edge18_Node000017_Node000015"><a xlink:title=" ">
<path fill="none" stroke="#63b8ff" d="M329.66,-106.83C348.1,-109.92 368.26,-113.3 386.95,-116.43"/>
<polygon fill="#63b8ff" stroke="#63b8ff" points="386.43,-119.89 396.87,-118.09 387.58,-112.99 386.43,-119.89"/>
</a>
</g>
</g>
<!-- Node18 -->
<g id="Node000018" class="node">
<title>Node18</title>
<g id="a_Node000018"><a xlink:href="namespacem__mpi__proxy.html#ae5286531f6390643aad1e4db5d5f6d91" target="_top" xlink:title="This subroutine gathers the sub&#45;domain flow variable data from all of the processors and puts it back...">
<polygon fill="white" stroke="#666666" points="518,-89.5 396,-89.5 396,-48.5 518,-48.5 518,-89.5"/>
<text text-anchor="start" x="404" y="-77.5" font-family="Helvetica,sans-Serif" font-size="10.00">m_mpi_proxy::s_mpi</text>
<text text-anchor="start" x="404" y="-66.5" font-family="Helvetica,sans-Serif" font-size="10.00">_defragment_1d_flow</text>
<text text-anchor="middle" x="457" y="-55.5" font-family="Helvetica,sans-Serif" font-size="10.00">_variable</text>
</a>
</g>
</g>
<!-- Node17&#45;&gt;Node18 -->
<g id="edge17_Node000017_Node000018" class="edge">
<title>Node17&#45;&gt;Node18</title>
<g id="a_edge17_Node000017_Node000018"><a xlink:title=" ">
<path fill="none" stroke="#63b8ff" d="M329.66,-86.86C347.74,-84.3 367.48,-81.51 385.86,-78.92"/>
<polygon fill="#63b8ff" stroke="#63b8ff" points="386.5,-82.36 395.91,-77.49 385.52,-75.43 386.5,-82.36"/>
</a>
</g>
</g>
<!-- Node19 -->
<g id="Node000019" class="node">
<title>Node19</title>
<g id="a_Node000019"><a xlink:href="namespacem__mpi__proxy.html#a0b226acd5a9097566685604292c3ae0d" target="_top" xlink:title="This subroutine gathers the Silo database metadata for the flow variable&#39;s extents as to boost perfor...">
<polygon fill="white" stroke="#666666" points="518,-30 396,-30 396,0 518,0 518,-30"/>
<text text-anchor="start" x="404" y="-18" font-family="Helvetica,sans-Serif" font-size="10.00">m_mpi_proxy::s_mpi</text>
<text text-anchor="middle" x="457" y="-7" font-family="Helvetica,sans-Serif" font-size="10.00">_gather_data_extents</text>
</a>
</g>
</g>
<!-- Node17&#45;&gt;Node19 -->
<g id="edge19_Node000017_Node000019" class="edge">
<title>Node17&#45;&gt;Node19</title>
<g id="a_edge19_Node000017_Node000019"><a xlink:title=" ">
<path fill="none" stroke="#63b8ff" d="M308.02,-75.37C331.96,-64.14 362.41,-50.29 390,-39 394.42,-37.19 399.04,-35.37 403.68,-33.59"/>
<polygon fill="#63b8ff" stroke="#63b8ff" points="405.08,-36.8 413.21,-30 402.61,-30.25 405.08,-36.8"/>
</a>
</g>
</g>
</g>
</svg>

<g id="navigator" transform="translate(0 0)" fill="#404254">
  <rect fill="#f2f5e9" fill-opacity="0.5" stroke="#606060" stroke-width=".5" x="0" y="0" width="60" height="60"/>
  <use id="zoomplus" xlink:href="#zoomPlus" x="17" y="9" onmousedown="handleZoom(evt,'in')"/>
  <use id="zoomminus" xlink:href="#zoomMin" x="42" y="9" onmousedown="handleZoom(evt,'out')"/>
  <use id="reset" xlink:href="#resetDef" x="30" y="36" onmousedown="handleReset()"/>
   <use id="arrowup" xlink:href="#arrowUp" x="0" y="0" onmousedown="handlePan(0,-1)"/>
  <use id="arrowright" xlink:href="#arrowRight" x="0" y="0" onmousedown="handlePan(1,0)"/>
  <use id="arrowdown" xlink:href="#arrowDown" x="0" y="0" onmousedown="handlePan(0,1)"/>
  <use id="arrowleft" xlink:href="#arrowLeft" x="0" y="0" onmousedown="handlePan(-1,0)"/>
</g>
<svg viewBox="0 0 15 15" width="100%" height="30px" preserveAspectRatio="xMaxYMin meet">
 <g id="arrow_out" transform="scale(0.3 0.3)">
  <a xlink:href="namespacem__start__up_a6b63dfe2b03558e6b89bc29e1401de48_cgraph_org.svg" target="_base">
   <rect id="button" ry="5" rx="5" y="6" x="6" height="38" width="38"
        fill="#f2f5e9" fill-opacity="0.5" stroke="#606060" stroke-width="1.0"/>
   <path id="arrow"
     d="M 11.500037,31.436501 C 11.940474,20.09759 22.043105,11.32322 32.158766,21.979434 L 37.068811,17.246167 C 37.068811,17.246167 37.088388,32 37.088388,32 L 22.160133,31.978069 C 22.160133,31.978069 26.997745,27.140456 26.997745,27.140456 C 18.528582,18.264221 13.291696,25.230495 11.500037,31.436501 z"
     style="fill:#404040;"/>
  </a>
 </g>
</svg>

<style type='text/css'>
<![CDATA[
[data-mouse-over-selected='false'] { opacity: 0.7; }
[data-mouse-over-selected='true']  { opacity: 1.0; }
]]>
</style>
<script type="application/ecmascript"><![CDATA[
document.addEventListener('DOMContentLoaded', (event) => {
  highlightEdges();
  highlightAdjacentNodes();
});
]]></script>
</svg>
