<?xml version="1.0" encoding="UTF-8" standalone="no"?>
<!DOCTYPE svg PUBLIC "-//W3C//DTD SVG 1.1//EN"
 "http://www.w3.org/Graphics/SVG/1.1/DTD/svg11.dtd">
<!-- Generated by graphviz version 2.43.0 (0)
 -->
<!-- Title: m_global_parameters::s_initialize_global_parameters_module Pages: 1 -->
<svg width="449pt" height="88pt"
 viewBox="0.00 0.00 449.00 88.00" xmlns="http://www.w3.org/2000/svg" xmlns:xlink="http://www.w3.org/1999/xlink">
<g id="graph0" class="graph" transform="scale(1 1) rotate(0) translate(4 84)">
<title>m_global_parameters::s_initialize_global_parameters_module</title>
<!-- Node1 -->
<g id="node1" class="node">
<title>Node1</title>
<g id="a_node1"><a xlink:title="Computation of parameters, allocation procedures, and/or any other tasks needed to properly setup the...">
<polygon fill="#bfbfbf" stroke="black" points="0,-19 0,-60 123,-60 123,-19 0,-19"/>
<text text-anchor="start" x="8" y="-48" font-family="Helvetica,sans-Serif" font-size="10.00">m_global_parameters</text>
<text text-anchor="start" x="8" y="-37" font-family="Helvetica,sans-Serif" font-size="10.00">::s_initialize_global</text>
<text text-anchor="middle" x="61.5" y="-26" font-family="Helvetica,sans-Serif" font-size="10.00">_parameters_module</text>
</a>
</g>
</g>
<!-- Node2 -->
<g id="node2" class="node">
<title>Node2</title>
<g id="a_node2"><a xlink:href="namespacem__global__parameters.html#a1611e2cf82243c04b04a11281ef67993" target="_top" xlink:title="Subroutine to initialize variable for non&#45;polytropic gas modeling processes.">
<polygon fill="none" stroke="black" points="159,-49.5 159,-79.5 282,-79.5 282,-49.5 159,-49.5"/>
<text text-anchor="start" x="167" y="-67.5" font-family="Helvetica,sans-Serif" font-size="10.00">m_global_parameters</text>
<text text-anchor="middle" x="220.5" y="-56.5" font-family="Helvetica,sans-Serif" font-size="10.00">::s_initialize_nonpoly</text>
</a>
</g>
</g>
<!-- Node1&#45;&gt;Node2 -->
<g id="edge1" class="edge">
<title>Node1&#45;&gt;Node2</title>
<path fill="none" stroke="midnightblue" d="M123.2,-49.17C131.64,-50.51 140.36,-51.9 148.95,-53.27"/>
<polygon fill="midnightblue" stroke="midnightblue" points="148.54,-56.74 158.96,-54.86 149.64,-49.83 148.54,-56.74"/>
</g>
<!-- Node4 -->
<g id="node4" class="node">
<title>Node4</title>
<g id="a_node4"><a xlink:href="namespacem__global__parameters.html#a78f4bf8bb59af4396bf11aca330463ec" target="_top" xlink:title="Computes the Simpson weights for quadrature.">
<polygon fill="none" stroke="black" points="159,-0.5 159,-30.5 282,-30.5 282,-0.5 159,-0.5"/>
<text text-anchor="start" x="167" y="-18.5" font-family="Helvetica,sans-Serif" font-size="10.00">m_global_parameters</text>
<text text-anchor="middle" x="220.5" y="-7.5" font-family="Helvetica,sans-Serif" font-size="10.00">::s_simpson</text>
</a>
</g>
</g>
<!-- Node1&#45;&gt;Node4 -->
<g id="edge3" class="edge">
<title>Node1&#45;&gt;Node4</title>
<path fill="none" stroke="midnightblue" d="M123.2,-30.22C131.64,-28.93 140.36,-27.6 148.95,-26.28"/>
<polygon fill="midnightblue" stroke="midnightblue" points="149.6,-29.73 158.96,-24.75 148.55,-22.81 149.6,-29.73"/>
</g>
<!-- Node3 -->
<g id="node3" class="node">
<title>Node3</title>
<g id="a_node3"><a xlink:href="namespacem__global__parameters.html#af52b102f1c17e28aa4ca3070f8806ca6" target="_top" xlink:title="Subroutine to compute the transfer coefficient for non&#45;polytropic gas modeling.">
<polygon fill="none" stroke="black" points="318,-49.5 318,-79.5 441,-79.5 441,-49.5 318,-49.5"/>
<text text-anchor="start" x="326" y="-67.5" font-family="Helvetica,sans-Serif" font-size="10.00">m_global_parameters</text>
<text text-anchor="middle" x="379.5" y="-56.5" font-family="Helvetica,sans-Serif" font-size="10.00">::s_transcoeff</text>
</a>
</g>
</g>
<!-- Node2&#45;&gt;Node3 -->
<g id="edge2" class="edge">
<title>Node2&#45;&gt;Node3</title>
<path fill="none" stroke="midnightblue" d="M282.2,-64.5C290.64,-64.5 299.36,-64.5 307.95,-64.5"/>
<polygon fill="midnightblue" stroke="midnightblue" points="307.96,-68 317.96,-64.5 307.96,-61 307.96,-68"/>
</g>
</g>
</svg>
