<?xml version="1.0" encoding="UTF-8" standalone="no"?>
<!DOCTYPE svg PUBLIC "-//W3C//DTD SVG 1.1//EN"
 "http://www.w3.org/Graphics/SVG/1.1/DTD/svg11.dtd">
<!-- Generated by graphviz version 2.43.0 (0)
 -->
<!-- Title: m_mpi_proxy::s_mpi_sendrecv_grid_vars_buffer_regions Pages: 1 -->
<svg width="557pt" height="49pt"
 viewBox="0.00 0.00 557.00 49.00" xmlns="http://www.w3.org/2000/svg" xmlns:xlink="http://www.w3.org/1999/xlink">
<g id="graph0" class="graph" transform="scale(1 1) rotate(0) translate(4 45)">
<title>m_mpi_proxy::s_mpi_sendrecv_grid_vars_buffer_regions</title>
<!-- Node1 -->
<g id="Node000001" class="node">
<title>Node1</title>
<g id="a_Node000001"><a xlink:title="Communicates the buffer regions associated with the grid variables with processors in charge of the n...">
<polygon fill="#999999" stroke="#666666" points="549,-41 431,-41 431,0 549,0 549,-41"/>
<text text-anchor="start" x="439" y="-29" font-family="Helvetica,sans-Serif" font-size="10.00">m_mpi_proxy::s_mpi</text>
<text text-anchor="start" x="439" y="-18" font-family="Helvetica,sans-Serif" font-size="10.00">_sendrecv_grid_vars</text>
<text text-anchor="middle" x="490" y="-7" font-family="Helvetica,sans-Serif" font-size="10.00">_buffer_regions</text>
</a>
</g>
</g>
<!-- Node2 -->
<g id="Node000002" class="node">
<title>Node2</title>
<g id="a_Node000002"><a xlink:href="namespacem__data__input.html#afc05d7714001946feb2485ce18cb00f6" target="_top" xlink:title="The following subroutine populates the buffer regions of the cell&#45;width spacings, the cell&#45;boundary l...">
<polygon fill="white" stroke="#666666" points="395,-41 252,-41 252,0 395,0 395,-41"/>
<text text-anchor="start" x="260" y="-29" font-family="Helvetica,sans-Serif" font-size="10.00">m_data_input::s_populate</text>
<text text-anchor="start" x="260" y="-18" font-family="Helvetica,sans-Serif" font-size="10.00">_grid_variables_buffer</text>
<text text-anchor="middle" x="323.5" y="-7" font-family="Helvetica,sans-Serif" font-size="10.00">_regions</text>
</a>
</g>
</g>
<!-- Node1&#45;&gt;Node2 -->
<g id="edge1_Node000001_Node000002" class="edge">
<title>Node1&#45;&gt;Node2</title>
<g id="a_edge1_Node000001_Node000002"><a xlink:title=" ">
<path fill="none" stroke="#63b8ff" d="M420.47,-20.5C412.11,-20.5 403.55,-20.5 395.17,-20.5"/>
<polygon fill="#63b8ff" stroke="#63b8ff" points="420.54,-24 430.54,-20.5 420.54,-17 420.54,-24"/>
</a>
</g>
</g>
<!-- Node3 -->
<g id="Node000003" class="node">
<title>Node3</title>
<g id="a_Node000003"><a xlink:href="namespacem__start__up.html#a12b3ef85917ad7441924faf3610f75ab" target="_top" xlink:title=" ">
<polygon fill="white" stroke="#666666" points="216,-35.5 89,-35.5 89,-5.5 216,-5.5 216,-35.5"/>
<text text-anchor="start" x="97" y="-23.5" font-family="Helvetica,sans-Serif" font-size="10.00">m_start_up::s_perform</text>
<text text-anchor="middle" x="152.5" y="-12.5" font-family="Helvetica,sans-Serif" font-size="10.00">_time_step</text>
</a>
</g>
</g>
<!-- Node2&#45;&gt;Node3 -->
<g id="edge2_Node000002_Node000003" class="edge">
<title>Node2&#45;&gt;Node3</title>
<g id="a_edge2_Node000002_Node000003"><a xlink:title=" ">
<path fill="none" stroke="#63b8ff" d="M241.74,-20.5C233.13,-20.5 224.47,-20.5 216.11,-20.5"/>
<polygon fill="#63b8ff" stroke="#63b8ff" points="241.81,-24 251.81,-20.5 241.81,-17 241.81,-24"/>
</a>
</g>
</g>
<!-- Node4 -->
<g id="Node000004" class="node">
<title>Node4</title>
<g id="a_Node000004"><a xlink:href="p__main_8fpp_8f90.html#aeec10ee8e2940c953967da3e374e1579" target="_top" xlink:title="The post&#45;process restructures raw unformatted data, outputted by the simulation, into a formatted dat...">
<polygon fill="white" stroke="#666666" points="53,-30 0,-30 0,-11 53,-11 53,-30"/>
<text text-anchor="middle" x="26.5" y="-18" font-family="Helvetica,sans-Serif" font-size="10.00">p_main</text>
</a>
</g>
</g>
<!-- Node3&#45;&gt;Node4 -->
<g id="edge3_Node000003_Node000004" class="edge">
<title>Node3&#45;&gt;Node4</title>
<g id="a_edge3_Node000003_Node000004"><a xlink:title=" ">
<path fill="none" stroke="#63b8ff" d="M78.77,-20.5C69.63,-20.5 60.81,-20.5 53.14,-20.5"/>
<polygon fill="#63b8ff" stroke="#63b8ff" points="78.77,-24 88.77,-20.5 78.77,-17 78.77,-24"/>
</a>
</g>
</g>
</g>
</svg>
