<?xml version="1.0" encoding="UTF-8" standalone="no"?>
<!DOCTYPE svg PUBLIC "-//W3C//DTD SVG 1.1//EN"
 "http://www.w3.org/Graphics/SVG/1.1/DTD/svg11.dtd">
<!-- Generated by graphviz version 2.43.0 (0)
 -->
<!-- Title: m_data_output::s_write_variable_to_formatted_database_file Pages: 1 -->
<svg width="320pt" height="205pt"
 viewBox="0.00 0.00 320.00 205.00" xmlns="http://www.w3.org/2000/svg" xmlns:xlink="http://www.w3.org/1999/xlink">
<g id="graph0" class="graph" transform="scale(1 1) rotate(0) translate(4 201)">
<title>m_data_output::s_write_variable_to_formatted_database_file</title>
<!-- Node1 -->
<g id="node1" class="node">
<title>Node1</title>
<g id="a_node1"><a xlink:title=" ">
<polygon fill="#999999" stroke="#666666" points="131,-118.5 0,-118.5 0,-77.5 131,-77.5 131,-118.5"/>
<text text-anchor="start" x="8" y="-106.5" font-family="Helvetica,sans-Serif" font-size="10.00">m_data_output::s_write</text>
<text text-anchor="start" x="8" y="-95.5" font-family="Helvetica,sans-Serif" font-size="10.00">_variable_to_formatted</text>
<text text-anchor="middle" x="65.5" y="-84.5" font-family="Helvetica,sans-Serif" font-size="10.00">_database_file</text>
</a>
</g>
</g>
<!-- Node2 -->
<g id="node2" class="node">
<title>Node2</title>
<g id="a_node2"><a xlink:href="namespacem__data__output.html#ae32f7bdb38c6c216a819fb0b3a7e06cd" target="_top" xlink:title=" ">
<polygon fill="white" stroke="#666666" points="312,-197 167,-197 167,-167 312,-167 312,-197"/>
<text text-anchor="start" x="175" y="-185" font-family="Helvetica,sans-Serif" font-size="10.00">m_data_output::s_coarsen</text>
<text text-anchor="middle" x="239.5" y="-174" font-family="Helvetica,sans-Serif" font-size="10.00">_variable</text>
</a>
</g>
</g>
<!-- Node1&#45;&gt;Node2 -->
<g id="edge1" class="edge">
<title>Node1&#45;&gt;Node2</title>
<path fill="none" stroke="#63b8ff" d="M97.24,-118.71C116.67,-131.19 142.63,-146.79 167,-158 171.06,-159.87 175.3,-161.66 179.62,-163.37"/>
<polygon fill="#63b8ff" stroke="#63b8ff" points="178.52,-166.7 189.11,-166.97 181,-160.15 178.52,-166.7"/>
</g>
<!-- Node3 -->
<g id="node3" class="node">
<title>Node3</title>
<g id="a_node3"><a xlink:href="namespacem__mpi__proxy.html#ae5286531f6390643aad1e4db5d5f6d91" target="_top" xlink:title="This subroutine gathers the sub&#45;domain flow variable data from all of the processors and puts it back...">
<polygon fill="white" stroke="#666666" points="300.5,-148.5 178.5,-148.5 178.5,-107.5 300.5,-107.5 300.5,-148.5"/>
<text text-anchor="start" x="186.5" y="-136.5" font-family="Helvetica,sans-Serif" font-size="10.00">m_mpi_proxy::s_mpi</text>
<text text-anchor="start" x="186.5" y="-125.5" font-family="Helvetica,sans-Serif" font-size="10.00">_defragment_1d_flow</text>
<text text-anchor="middle" x="239.5" y="-114.5" font-family="Helvetica,sans-Serif" font-size="10.00">_variable</text>
</a>
</g>
</g>
<!-- Node1&#45;&gt;Node3 -->
<g id="edge2" class="edge">
<title>Node1&#45;&gt;Node3</title>
<path fill="none" stroke="#63b8ff" d="M131.04,-109.26C143.17,-111.37 155.92,-113.6 168.23,-115.74"/>
<polygon fill="#63b8ff" stroke="#63b8ff" points="167.98,-119.25 178.43,-117.52 169.18,-112.36 167.98,-119.25"/>
</g>
<!-- Node4 -->
<g id="node4" class="node">
<title>Node4</title>
<g id="a_node4"><a xlink:href="namespacem__mpi__proxy.html#ac15a15ba12e6110bb015af0ece5bba47" target="_top" xlink:title="This subroutine collects the sub&#45;domain cell&#45;boundary or cell&#45;center locations data from all of the p...">
<polygon fill="white" stroke="#666666" points="299.5,-89.5 179.5,-89.5 179.5,-48.5 299.5,-48.5 299.5,-89.5"/>
<text text-anchor="start" x="187.5" y="-77.5" font-family="Helvetica,sans-Serif" font-size="10.00">m_mpi_proxy::s_mpi</text>
<text text-anchor="start" x="187.5" y="-66.5" font-family="Helvetica,sans-Serif" font-size="10.00">_defragment_1d_grid</text>
<text text-anchor="middle" x="239.5" y="-55.5" font-family="Helvetica,sans-Serif" font-size="10.00">_variable</text>
</a>
</g>
</g>
<!-- Node1&#45;&gt;Node4 -->
<g id="edge3" class="edge">
<title>Node1&#45;&gt;Node4</title>
<path fill="none" stroke="#63b8ff" d="M131.04,-87.12C143.52,-85.01 156.65,-82.8 169.28,-80.67"/>
<polygon fill="#63b8ff" stroke="#63b8ff" points="170,-84.1 179.28,-78.98 168.84,-77.2 170,-84.1"/>
</g>
<!-- Node5 -->
<g id="node5" class="node">
<title>Node5</title>
<g id="a_node5"><a xlink:href="namespacem__mpi__proxy.html#a0b226acd5a9097566685604292c3ae0d" target="_top" xlink:title="This subroutine gathers the Silo database metadata for the flow variable&#39;s extents as to boost perfor...">
<polygon fill="white" stroke="#666666" points="300.5,-30 178.5,-30 178.5,0 300.5,0 300.5,-30"/>
<text text-anchor="start" x="186.5" y="-18" font-family="Helvetica,sans-Serif" font-size="10.00">m_mpi_proxy::s_mpi</text>
<text text-anchor="middle" x="239.5" y="-7" font-family="Helvetica,sans-Serif" font-size="10.00">_gather_data_extents</text>
</a>
</g>
</g>
<!-- Node1&#45;&gt;Node5 -->
<g id="edge4" class="edge">
<title>Node1&#45;&gt;Node5</title>
<path fill="none" stroke="#63b8ff" d="M98.72,-77.34C118.04,-65.47 143.38,-50.83 167,-40 171.73,-37.83 176.72,-35.73 181.75,-33.74"/>
<polygon fill="#63b8ff" stroke="#63b8ff" points="183.37,-36.87 191.46,-30.03 180.87,-30.33 183.37,-36.87"/>
</g>
</g>
</svg>
