<?xml version="1.0" encoding="UTF-8" standalone="no"?>
<!DOCTYPE svg PUBLIC "-//W3C//DTD SVG 1.1//EN"
 "http://www.w3.org/Graphics/SVG/1.1/DTD/svg11.dtd">
<!-- Generated by graphviz version 2.43.0 (0)
 -->
<!-- Title: m_start_up::s_check_input_file Pages: 1 -->
<svg width="387pt" height="73pt"
 viewBox="0.00 0.00 387.00 72.50" xmlns="http://www.w3.org/2000/svg" xmlns:xlink="http://www.w3.org/1999/xlink">
<g id="graph0" class="graph" transform="scale(1 1) rotate(0) translate(4 68.5)">
<title>m_start_up::s_check_input_file</title>
<!-- Node1 -->
<g id="Node000001" class="node">
<title>Node1</title>
<g id="a_Node000001"><a xlink:title="Checking that the user inputs make sense, i.e. that the individual choices are compatible with the co...">
<polygon fill="#999999" stroke="#666666" points="116,-42.5 0,-42.5 0,-12.5 116,-12.5 116,-42.5"/>
<text text-anchor="start" x="8" y="-30.5" font-family="Helvetica,sans-Serif" font-size="10.00">m_start_up::s_check</text>
<text text-anchor="middle" x="58" y="-19.5" font-family="Helvetica,sans-Serif" font-size="10.00">_input_file</text>
</a>
</g>
</g>
<!-- Node2 -->
<g id="Node000002" class="node">
<title>Node2</title>
<g id="a_Node000002"><a xlink:href="namespacem__checker.html#af3af1277501908ef5a97721ebf04061f" target="_top" xlink:title=" ">
<polygon fill="white" stroke="#666666" points="266,-64.5 152,-64.5 152,-34.5 266,-34.5 266,-64.5"/>
<text text-anchor="start" x="160" y="-52.5" font-family="Helvetica,sans-Serif" font-size="10.00">m_checker::s_check</text>
<text text-anchor="middle" x="209" y="-41.5" font-family="Helvetica,sans-Serif" font-size="10.00">_inputs</text>
</a>
</g>
</g>
<!-- Node1&#45;&gt;Node2 -->
<g id="edge1_Node000001_Node000002" class="edge">
<title>Node1&#45;&gt;Node2</title>
<g id="a_edge1_Node000001_Node000002"><a xlink:title=" ">
<path fill="none" stroke="#63b8ff" d="M116.18,-35.94C124.56,-37.18 133.24,-38.46 141.78,-39.72"/>
<polygon fill="#63b8ff" stroke="#63b8ff" points="141.31,-43.19 151.71,-41.19 142.33,-36.27 141.31,-43.19"/>
</a>
</g>
</g>
<!-- Node4 -->
<g id="Node000004" class="node">
<title>Node4</title>
<g id="a_Node000004"><a xlink:href="m__mpi__common_8fpp_8f90.html#ad9e1329e498b65ad4256658675d6f797" target="_top" xlink:title="The subroutine terminates the MPI execution environment.">
<polygon fill="white" stroke="#666666" points="379,-19 302,-19 302,0 379,0 379,-19"/>
<text text-anchor="middle" x="340.5" y="-7" font-family="Helvetica,sans-Serif" font-size="10.00">s_mpi_abort</text>
</a>
</g>
</g>
<!-- Node1&#45;&gt;Node4 -->
<g id="edge4_Node000001_Node000004" class="edge">
<title>Node1&#45;&gt;Node4</title>
<g id="a_edge4_Node000001_Node000004"><a xlink:title=" ">
<path fill="none" stroke="#63b8ff" d="M116.1,-23.84C167.74,-20.52 242.9,-15.7 291.51,-12.58"/>
<polygon fill="#63b8ff" stroke="#63b8ff" points="292,-16.06 301.76,-11.92 291.55,-9.07 292,-16.06"/>
</a>
</g>
</g>
<!-- Node3 -->
<g id="Node000003" class="node">
<title>Node3</title>
<g id="a_Node000003"><a xlink:href="m__helper_8fpp_8f90.html#a8a0505b2bd4f3d8cb2bf3ce16cfe01e3" target="_top" xlink:title=" ">
<polygon fill="white" stroke="#666666" points="377,-59 304,-59 304,-40 377,-40 377,-59"/>
<text text-anchor="middle" x="340.5" y="-47" font-family="Helvetica,sans-Serif" font-size="10.00">s_int_to_str</text>
</a>
</g>
</g>
<!-- Node2&#45;&gt;Node3 -->
<g id="edge2_Node000002_Node000003" class="edge">
<title>Node2&#45;&gt;Node3</title>
<g id="a_edge2_Node000002_Node000003"><a xlink:title=" ">
<path fill="none" stroke="#63b8ff" d="M266.05,-49.5C275.28,-49.5 284.76,-49.5 293.71,-49.5"/>
<polygon fill="#63b8ff" stroke="#63b8ff" points="293.92,-53 303.92,-49.5 293.92,-46 293.92,-53"/>
</a>
</g>
</g>
<!-- Node2&#45;&gt;Node4 -->
<g id="edge3_Node000002_Node000004" class="edge">
<title>Node2&#45;&gt;Node4</title>
<g id="a_edge3_Node000002_Node000004"><a xlink:title=" ">
<path fill="none" stroke="#63b8ff" d="M258.59,-34.49C271.84,-30.4 286.06,-26.01 298.82,-22.07"/>
<polygon fill="#63b8ff" stroke="#63b8ff" points="300.17,-25.31 308.7,-19.01 298.11,-18.62 300.17,-25.31"/>
</a>
</g>
</g>
</g>
</svg>
