<?xml version="1.0" encoding="UTF-8" standalone="no"?>
<!DOCTYPE svg PUBLIC "-//W3C//DTD SVG 1.1//EN"
 "http://www.w3.org/Graphics/SVG/1.1/DTD/svg11.dtd">
<!-- Generated by graphviz version 2.43.0 (0)
 -->
<!-- Title: m_start_up::s_initialize_modules Pages: 1 -->
<svg width="669pt" height="502pt"
 viewBox="0.00 0.00 669.00 501.50" xmlns="http://www.w3.org/2000/svg" xmlns:xlink="http://www.w3.org/1999/xlink">
<g id="graph0" class="graph" transform="scale(1 1) rotate(0) translate(4 497.5)">
<title>m_start_up::s_initialize_modules</title>
<!-- Node1 -->
<g id="Node000001" class="node">
<title>Node1</title>
<g id="a_Node000001"><a xlink:title=" ">
<polygon fill="#999999" stroke="#666666" points="130,-271 0,-271 0,-241 130,-241 130,-271"/>
<text text-anchor="start" x="8" y="-259" font-family="Helvetica,sans-Serif" font-size="10.00">m_start_up::s_initialize</text>
<text text-anchor="middle" x="65" y="-248" font-family="Helvetica,sans-Serif" font-size="10.00">_modules</text>
</a>
</g>
</g>
<!-- Node2 -->
<g id="Node000002" class="node">
<title>Node2</title>
<g id="a_Node000002"><a xlink:href="namespacem__data__input.html#a806c2edb19d6a47fd494f8491d2b93d3" target="_top" xlink:title="Computation of parameters, allocation procedures, and/or any other tasks needed to properly setup the...">
<polygon fill="white" stroke="#666666" points="311.5,-441 169.5,-441 169.5,-411 311.5,-411 311.5,-441"/>
<text text-anchor="start" x="177.5" y="-429" font-family="Helvetica,sans-Serif" font-size="10.00">m_data_input::s_initialize</text>
<text text-anchor="middle" x="240.5" y="-418" font-family="Helvetica,sans-Serif" font-size="10.00">_data_input_module</text>
</a>
</g>
</g>
<!-- Node1&#45;&gt;Node2 -->
<g id="edge1_Node000001_Node000002" class="edge">
<title>Node1&#45;&gt;Node2</title>
<g id="a_edge1_Node000001_Node000002"><a xlink:title=" ">
<path fill="none" stroke="#63b8ff" d="M73.12,-271.37C87.08,-299.91 120.65,-361.45 166,-397 170.39,-400.44 175.23,-403.52 180.28,-406.26"/>
<polygon fill="#63b8ff" stroke="#63b8ff" points="179.01,-409.54 189.53,-410.85 182.12,-403.27 179.01,-409.54"/>
</a>
</g>
</g>
<!-- Node3 -->
<g id="Node000003" class="node">
<title>Node3</title>
<g id="a_Node000003"><a xlink:href="namespacem__data__input.html#a0dd37369dd52b1299b06563f96c25805" target="_top" xlink:title="This subroutine is called at each time&#45;step that has to be post&#45;processed in order to parallel&#45;read t...">
<polygon fill="white" stroke="#666666" points="489,-465 367,-465 367,-435 489,-435 489,-465"/>
<text text-anchor="start" x="375" y="-453" font-family="Helvetica,sans-Serif" font-size="10.00">m_data_input::s_read</text>
<text text-anchor="middle" x="428" y="-442" font-family="Helvetica,sans-Serif" font-size="10.00">_parallel_data_files</text>
</a>
</g>
</g>
<!-- Node1&#45;&gt;Node3 -->
<g id="edge18_Node000001_Node000003" class="edge">
<title>Node1&#45;&gt;Node3</title>
<g id="a_edge18_Node000001_Node000003"><a xlink:title=" ">
<path fill="none" stroke="#63b8ff" d="M68.43,-271.22C75.45,-309.49 99.67,-409.57 166,-450 225.77,-486.43 308.44,-478.9 364.61,-467.19"/>
<polygon fill="#63b8ff" stroke="#63b8ff" points="365.41,-470.6 374.43,-465.04 363.92,-463.76 365.41,-470.6"/>
</a>
</g>
</g>
<!-- Node7 -->
<g id="Node000007" class="node">
<title>Node7</title>
<g id="a_Node000007"><a xlink:href="namespacem__data__input.html#a9d69f4bcb771c60157b62bc4b04a6ba1" target="_top" xlink:title="This subroutine is called at each time&#45;step that has to be post&#45;processed in order to read the raw da...">
<polygon fill="white" stroke="#666666" points="489,-417 367,-417 367,-387 489,-387 489,-417"/>
<text text-anchor="start" x="375" y="-405" font-family="Helvetica,sans-Serif" font-size="10.00">m_data_input::s_read</text>
<text text-anchor="middle" x="428" y="-394" font-family="Helvetica,sans-Serif" font-size="10.00">_serial_data_files</text>
</a>
</g>
</g>
<!-- Node1&#45;&gt;Node7 -->
<g id="edge19_Node000001_Node000007" class="edge">
<title>Node1&#45;&gt;Node7</title>
<g id="a_edge19_Node000001_Node000007"><a xlink:title=" ">
<path fill="none" stroke="#63b8ff" d="M75.15,-271.24C90.57,-295.39 124.16,-341.99 166,-364 198.17,-380.92 290.81,-391.47 356.56,-397.04"/>
<polygon fill="#63b8ff" stroke="#63b8ff" points="356.61,-400.56 366.86,-397.89 357.19,-393.58 356.61,-400.56"/>
</a>
</g>
</g>
<!-- Node8 -->
<g id="Node000008" class="node">
<title>Node8</title>
<g id="a_Node000008"><a xlink:href="namespacem__data__output.html#ab65b312ef83adb104cafafada9c998b6" target="_top" xlink:title=" ">
<polygon fill="white" stroke="#666666" points="315,-355 166,-355 166,-325 315,-325 315,-355"/>
<text text-anchor="start" x="174" y="-343" font-family="Helvetica,sans-Serif" font-size="10.00">m_data_output::s_initialize</text>
<text text-anchor="middle" x="240.5" y="-332" font-family="Helvetica,sans-Serif" font-size="10.00">_data_output_module</text>
</a>
</g>
</g>
<!-- Node1&#45;&gt;Node8 -->
<g id="edge8_Node000001_Node000008" class="edge">
<title>Node1&#45;&gt;Node8</title>
<g id="a_edge8_Node000001_Node000008"><a xlink:title=" ">
<path fill="none" stroke="#63b8ff" d="M87.85,-271.08C107.6,-284.22 137.82,-303.14 166,-316 170.1,-317.87 174.38,-319.66 178.73,-321.36"/>
<polygon fill="#63b8ff" stroke="#63b8ff" points="177.73,-324.72 188.32,-324.94 180.17,-318.16 177.73,-324.72"/>
</a>
</g>
</g>
<!-- Node9 -->
<g id="Node000009" class="node">
<title>Node9</title>
<g id="a_Node000009"><a xlink:href="namespacem__derived__variables.html#a15a6d70e2bd1c9b7001c753ca1f2ee27" target="_top" xlink:title="Computation of parameters, allocation procedures, and/or any other tasks needed to properly setup the...">
<polygon fill="white" stroke="#666666" points="300,-306.5 181,-306.5 181,-265.5 300,-265.5 300,-306.5"/>
<text text-anchor="start" x="189" y="-294.5" font-family="Helvetica,sans-Serif" font-size="10.00">m_derived_variables</text>
<text text-anchor="start" x="189" y="-283.5" font-family="Helvetica,sans-Serif" font-size="10.00">::s_initialize_derived</text>
<text text-anchor="middle" x="240.5" y="-272.5" font-family="Helvetica,sans-Serif" font-size="10.00">_variables_module</text>
</a>
</g>
</g>
<!-- Node1&#45;&gt;Node9 -->
<g id="edge9_Node000001_Node000009" class="edge">
<title>Node1&#45;&gt;Node9</title>
<g id="a_edge9_Node000001_Node000009"><a xlink:title=" ">
<path fill="none" stroke="#63b8ff" d="M130.11,-267.09C143.34,-269.37 157.33,-271.79 170.72,-274.11"/>
<polygon fill="#63b8ff" stroke="#63b8ff" points="170.37,-277.6 180.82,-275.85 171.56,-270.7 170.37,-277.6"/>
</a>
</g>
</g>
<!-- Node10 -->
<g id="Node000010" class="node">
<title>Node10</title>
<g id="a_Node000010"><a xlink:href="namespacem__global__parameters.html#a8a76198d180cb9736c21dde108cb0dbf" target="_top" xlink:title="Computation of parameters, allocation procedures, and/or any other tasks needed to properly setup the...">
<polygon fill="white" stroke="#666666" points="302,-247.5 179,-247.5 179,-206.5 302,-206.5 302,-247.5"/>
<text text-anchor="start" x="187" y="-235.5" font-family="Helvetica,sans-Serif" font-size="10.00">m_global_parameters</text>
<text text-anchor="start" x="187" y="-224.5" font-family="Helvetica,sans-Serif" font-size="10.00">::s_initialize_global</text>
<text text-anchor="middle" x="240.5" y="-213.5" font-family="Helvetica,sans-Serif" font-size="10.00">_parameters_module</text>
</a>
</g>
</g>
<!-- Node1&#45;&gt;Node10 -->
<g id="edge10_Node000001_Node000010" class="edge">
<title>Node1&#45;&gt;Node10</title>
<g id="a_edge10_Node000001_Node000010"><a xlink:title=" ">
<path fill="none" stroke="#63b8ff" d="M130.11,-245.28C142.68,-243.18 155.93,-240.97 168.7,-238.83"/>
<polygon fill="#63b8ff" stroke="#63b8ff" points="169.53,-242.24 178.82,-237.14 168.38,-235.34 169.53,-242.24"/>
</a>
</g>
</g>
<!-- Node11 -->
<g id="Node000011" class="node">
<title>Node11</title>
<g id="a_Node000011"><a xlink:href="namespacem__mpi__proxy.html#a015ee2c0892e9cfcb858da8f27b646d5" target="_top" xlink:title="Computation of parameters, allocation procedures, and/or any other tasks needed to properly setup the...">
<polygon fill="white" stroke="#666666" points="311,-188 170,-188 170,-158 311,-158 311,-188"/>
<text text-anchor="start" x="178" y="-176" font-family="Helvetica,sans-Serif" font-size="10.00">m_mpi_proxy::s_initialize</text>
<text text-anchor="middle" x="240.5" y="-165" font-family="Helvetica,sans-Serif" font-size="10.00">_mpi_proxy_module</text>
</a>
</g>
</g>
<!-- Node1&#45;&gt;Node11 -->
<g id="edge11_Node000001_Node000011" class="edge">
<title>Node1&#45;&gt;Node11</title>
<g id="a_edge11_Node000001_Node000011"><a xlink:title=" ">
<path fill="none" stroke="#63b8ff" d="M89.14,-240.81C108.97,-228.23 138.59,-210.46 166,-198 170.91,-195.77 176.08,-193.62 181.3,-191.59"/>
<polygon fill="#63b8ff" stroke="#63b8ff" points="182.59,-194.85 190.74,-188.07 180.14,-188.29 182.59,-194.85"/>
</a>
</g>
</g>
<!-- Node12 -->
<g id="Node000012" class="node">
<title>Node12</title>
<g id="a_Node000012"><a xlink:href="m__helper_8fpp_8f90.html#ae6e719f709d847b8b1a1f8e8b483158f" target="_top" xlink:title="Initializes non&#45;polydisperse bubble modeling.">
<polygon fill="white" stroke="#666666" points="297,-139.5 184,-139.5 184,-120.5 297,-120.5 297,-139.5"/>
<text text-anchor="middle" x="240.5" y="-127.5" font-family="Helvetica,sans-Serif" font-size="10.00">s_initialize_nonpoly</text>
</a>
</g>
</g>
<!-- Node1&#45;&gt;Node12 -->
<g id="edge12_Node000001_Node000012" class="edge">
<title>Node1&#45;&gt;Node12</title>
<g id="a_edge12_Node000001_Node000012"><a xlink:title=" ">
<path fill="none" stroke="#63b8ff" d="M76,-240.66C92.09,-217.23 126,-172.77 166,-149 169.7,-146.8 173.64,-144.86 177.72,-143.14"/>
<polygon fill="#63b8ff" stroke="#63b8ff" points="179.27,-146.29 187.4,-139.51 176.81,-139.74 179.27,-146.29"/>
</a>
</g>
</g>
<!-- Node14 -->
<g id="Node000014" class="node">
<title>Node14</title>
<g id="a_Node000014"><a xlink:href="m__variables__conversion_8fpp_8f90.html#ad5e4b4372f2626845645a4e03a83df65" target="_top" xlink:title="The computation of parameters, the allocation of memory, the association of pointers and/or the execu...">
<polygon fill="white" stroke="#666666" points="300,-102 181,-102 181,-72 300,-72 300,-102"/>
<text text-anchor="start" x="189" y="-90" font-family="Helvetica,sans-Serif" font-size="10.00">s_initialize_variables</text>
<text text-anchor="middle" x="240.5" y="-79" font-family="Helvetica,sans-Serif" font-size="10.00">_conversion_module</text>
</a>
</g>
</g>
<!-- Node1&#45;&gt;Node14 -->
<g id="edge14_Node000001_Node000014" class="edge">
<title>Node1&#45;&gt;Node14</title>
<g id="a_edge14_Node000001_Node000014"><a xlink:title=" ">
<path fill="none" stroke="#63b8ff" d="M72.66,-240.55C86.07,-211.25 119.09,-147.36 166,-112 168.45,-110.15 171.05,-108.44 173.74,-106.84"/>
<polygon fill="#63b8ff" stroke="#63b8ff" points="175.42,-109.91 182.64,-102.16 172.16,-103.72 175.42,-109.91"/>
</a>
</g>
</g>
<!-- Node18 -->
<g id="Node000018" class="node">
<title>Node18</title>
<g id="a_Node000018"><a xlink:href="m__helper_8fpp_8f90.html#a546be57ed19ff3f9da2d133dc9df96a9" target="_top" xlink:title="Computes the Simpson weights for quadrature.">
<polygon fill="white" stroke="#666666" points="274.5,-53.5 206.5,-53.5 206.5,-34.5 274.5,-34.5 274.5,-53.5"/>
<text text-anchor="middle" x="240.5" y="-41.5" font-family="Helvetica,sans-Serif" font-size="10.00">s_simpson</text>
</a>
</g>
</g>
<!-- Node1&#45;&gt;Node18 -->
<g id="edge20_Node000001_Node000018" class="edge">
<title>Node1&#45;&gt;Node18</title>
<g id="a_edge20_Node000001_Node000018"><a xlink:title=" ">
<path fill="none" stroke="#63b8ff" d="M69.38,-240.75C78.31,-204.13 106.09,-110.74 166,-63 174.76,-56.02 185.8,-51.58 196.65,-48.76"/>
<polygon fill="#63b8ff" stroke="#63b8ff" points="197.47,-52.17 206.48,-46.61 195.97,-45.33 197.47,-52.17"/>
</a>
</g>
</g>
<!-- Node2&#45;&gt;Node3 -->
<g id="edge2_Node000002_Node000003" class="edge">
<title>Node2&#45;&gt;Node3</title>
<g id="a_edge2_Node000002_Node000003"><a xlink:title=" ">
<path fill="none" stroke="#63b8ff" d="M311.63,-435.07C326.38,-436.98 341.95,-439 356.71,-440.91"/>
<polygon fill="#63b8ff" stroke="#63b8ff" points="356.42,-444.4 366.78,-442.21 357.32,-437.45 356.42,-444.4"/>
</a>
</g>
</g>
<!-- Node2&#45;&gt;Node7 -->
<g id="edge6_Node000002_Node000007" class="edge">
<title>Node2&#45;&gt;Node7</title>
<g id="a_edge6_Node000002_Node000007"><a xlink:title=" ">
<path fill="none" stroke="#63b8ff" d="M311.63,-416.93C326.38,-415.02 341.95,-413 356.71,-411.09"/>
<polygon fill="#63b8ff" stroke="#63b8ff" points="357.32,-414.55 366.78,-409.79 356.42,-407.6 357.32,-414.55"/>
</a>
</g>
</g>
<!-- Node4 -->
<g id="Node000004" class="node">
<title>Node4</title>
<g id="a_Node000004"><a xlink:href="m__mpi__common_8fpp_8f90.html#af3c13e2984fd36a116df57de0b672bc1" target="_top" xlink:title=" ">
<polygon fill="white" stroke="#666666" points="661,-493.5 541,-493.5 541,-474.5 661,-474.5 661,-493.5"/>
<text text-anchor="middle" x="601" y="-481.5" font-family="Helvetica,sans-Serif" font-size="10.00">s_initialize_mpi_data</text>
</a>
</g>
</g>
<!-- Node3&#45;&gt;Node4 -->
<g id="edge3_Node000003_Node000004" class="edge">
<title>Node3&#45;&gt;Node4</title>
<g id="a_edge3_Node000003_Node000004"><a xlink:title=" ">
<path fill="none" stroke="#63b8ff" d="M489.29,-461.99C506.49,-465.41 525.19,-469.12 542.23,-472.51"/>
<polygon fill="#63b8ff" stroke="#63b8ff" points="541.57,-475.95 552.06,-474.47 542.93,-469.08 541.57,-475.95"/>
</a>
</g>
</g>
<!-- Node5 -->
<g id="Node000005" class="node">
<title>Node5</title>
<g id="a_Node000005"><a xlink:href="m__mpi__common_8fpp_8f90.html#ad9e1329e498b65ad4256658675d6f797" target="_top" xlink:title="The subroutine terminates the MPI execution environment.">
<polygon fill="white" stroke="#666666" points="639.5,-416.5 562.5,-416.5 562.5,-397.5 639.5,-397.5 639.5,-416.5"/>
<text text-anchor="middle" x="601" y="-404.5" font-family="Helvetica,sans-Serif" font-size="10.00">s_mpi_abort</text>
</a>
</g>
</g>
<!-- Node3&#45;&gt;Node5 -->
<g id="edge4_Node000003_Node000005" class="edge">
<title>Node3&#45;&gt;Node5</title>
<g id="a_edge4_Node000003_Node000005"><a xlink:title=" ">
<path fill="none" stroke="#63b8ff" d="M488.81,-434.96C509.64,-429.72 532.71,-423.92 552.42,-418.96"/>
<polygon fill="#63b8ff" stroke="#63b8ff" points="553.54,-422.29 562.39,-416.46 551.84,-415.5 553.54,-422.29"/>
</a>
</g>
</g>
<!-- Node6 -->
<g id="Node000006" class="node">
<title>Node6</title>
<g id="a_Node000006"><a xlink:href="m__mpi__common_8fpp_8f90.html#ae966ace411b5ffbc9ebd5fed9f35da63" target="_top" xlink:title="Halts all processes until all have reached barrier.">
<polygon fill="white" stroke="#666666" points="642.5,-456.5 559.5,-456.5 559.5,-437.5 642.5,-437.5 642.5,-456.5"/>
<text text-anchor="middle" x="601" y="-444.5" font-family="Helvetica,sans-Serif" font-size="10.00">s_mpi_barrier</text>
</a>
</g>
</g>
<!-- Node3&#45;&gt;Node6 -->
<g id="edge5_Node000003_Node000006" class="edge">
<title>Node3&#45;&gt;Node6</title>
<g id="a_edge5_Node000003_Node000006"><a xlink:title=" ">
<path fill="none" stroke="#63b8ff" d="M489.29,-448.94C508.84,-448.6 530.33,-448.22 549.12,-447.89"/>
<polygon fill="#63b8ff" stroke="#63b8ff" points="549.32,-451.39 559.26,-447.71 549.2,-444.39 549.32,-451.39"/>
</a>
</g>
</g>
<!-- Node7&#45;&gt;Node5 -->
<g id="edge7_Node000007_Node000005" class="edge">
<title>Node7&#45;&gt;Node5</title>
<g id="a_edge7_Node000007_Node000005"><a xlink:title=" ">
<path fill="none" stroke="#63b8ff" d="M489.29,-403.76C509.91,-404.37 532.68,-405.03 552.18,-405.6"/>
<polygon fill="#63b8ff" stroke="#63b8ff" points="552.25,-409.11 562.35,-405.9 552.45,-402.11 552.25,-409.11"/>
</a>
</g>
</g>
<!-- Node13 -->
<g id="Node000013" class="node">
<title>Node13</title>
<g id="a_Node000013"><a xlink:href="m__helper_8fpp_8f90.html#a91cfb5e94039510845e0bb8cdc843ee8" target="_top" xlink:title="Computes the transfer coefficient for the non&#45;polytropic bubble compression process.">
<polygon fill="white" stroke="#666666" points="466,-163.5 390,-163.5 390,-144.5 466,-144.5 466,-163.5"/>
<text text-anchor="middle" x="428" y="-151.5" font-family="Helvetica,sans-Serif" font-size="10.00">s_transcoeff</text>
</a>
</g>
</g>
<!-- Node12&#45;&gt;Node13 -->
<g id="edge13_Node000012_Node000013" class="edge">
<title>Node12&#45;&gt;Node13</title>
<g id="a_edge13_Node000012_Node000013"><a xlink:title=" ">
<path fill="none" stroke="#63b8ff" d="M297.16,-137.2C323.51,-140.61 354.65,-144.64 379.83,-147.9"/>
<polygon fill="#63b8ff" stroke="#63b8ff" points="379.5,-151.38 389.87,-149.2 380.4,-144.44 379.5,-151.38"/>
</a>
</g>
</g>
<!-- Node15 -->
<g id="Node000015" class="node">
<title>Node15</title>
<g id="a_Node000015"><a xlink:href="m__variables__conversion_8fpp_8f90.html#a23d455cd803d423a9c329a36303c8e59" target="_top" xlink:title="This subroutine is designed for the gamma/pi_inf model and provided a set of either conservative or p...">
<polygon fill="white" stroke="#666666" points="489,-126 367,-126 367,-96 489,-96 489,-126"/>
<text text-anchor="start" x="375" y="-114" font-family="Helvetica,sans-Serif" font-size="10.00">s_convert_mixture_to</text>
<text text-anchor="middle" x="428" y="-103" font-family="Helvetica,sans-Serif" font-size="10.00">_mixture_variables</text>
</a>
</g>
</g>
<!-- Node14&#45;&gt;Node15 -->
<g id="edge15_Node000014_Node000015" class="edge">
<title>Node14&#45;&gt;Node15</title>
<g id="a_edge15_Node000014_Node000015"><a xlink:title=" ">
<path fill="none" stroke="#63b8ff" d="M300.19,-94.59C318.19,-96.92 338.17,-99.51 356.85,-101.92"/>
<polygon fill="#63b8ff" stroke="#63b8ff" points="356.41,-105.4 366.77,-103.21 357.31,-98.45 356.41,-105.4"/>
</a>
</g>
</g>
<!-- Node16 -->
<g id="Node000016" class="node">
<title>Node16</title>
<g id="a_Node000016"><a xlink:href="m__variables__conversion_8fpp_8f90.html#a6584e5eab51d43b8fcb934fbf815732f" target="_top" xlink:title="This subroutine is designed for the volume fraction model and provided a set of either conservative o...">
<polygon fill="white" stroke="#666666" points="488.5,-78 367.5,-78 367.5,-48 488.5,-48 488.5,-78"/>
<text text-anchor="start" x="375.5" y="-66" font-family="Helvetica,sans-Serif" font-size="10.00">s_convert_species_to</text>
<text text-anchor="middle" x="428" y="-55" font-family="Helvetica,sans-Serif" font-size="10.00">_mixture_variables</text>
</a>
</g>
</g>
<!-- Node14&#45;&gt;Node16 -->
<g id="edge16_Node000014_Node000016" class="edge">
<title>Node14&#45;&gt;Node16</title>
<g id="a_edge16_Node000014_Node000016"><a xlink:title=" ">
<path fill="none" stroke="#63b8ff" d="M300.19,-79.41C318.37,-77.05 338.57,-74.44 357.41,-72"/>
<polygon fill="#63b8ff" stroke="#63b8ff" points="357.95,-75.46 367.41,-70.71 357.05,-68.52 357.95,-75.46"/>
</a>
</g>
</g>
<!-- Node17 -->
<g id="Node000017" class="node">
<title>Node17</title>
<g id="a_Node000017"><a xlink:href="m__variables__conversion_8fpp_8f90.html#a518985449876e8bf5a1f426b74790665" target="_top" xlink:title="This procedure is used alongside with the gamma/pi_inf model to transfer the density,...">
<polygon fill="white" stroke="#666666" points="505,-30 351,-30 351,0 505,0 505,-30"/>
<text text-anchor="start" x="359" y="-18" font-family="Helvetica,sans-Serif" font-size="10.00">s_convert_species_to</text>
<text text-anchor="middle" x="428" y="-7" font-family="Helvetica,sans-Serif" font-size="10.00">_mixture_variables_bubbles</text>
</a>
</g>
</g>
<!-- Node14&#45;&gt;Node17 -->
<g id="edge17_Node000014_Node000017" class="edge">
<title>Node14&#45;&gt;Node17</title>
<g id="a_edge17_Node000014_Node000017"><a xlink:title=" ">
<path fill="none" stroke="#63b8ff" d="M293.6,-71.95C300.92,-69.28 308.24,-66.28 315,-63 332.3,-54.6 333.66,-47.31 351,-39 354.86,-37.15 358.9,-35.4 363.01,-33.74"/>
<polygon fill="#63b8ff" stroke="#63b8ff" points="364.6,-36.89 372.71,-30.07 362.12,-30.34 364.6,-36.89"/>
</a>
</g>
</g>
</g>
</svg>
