<?xml version="1.0" encoding="UTF-8" standalone="no"?>
<!DOCTYPE svg PUBLIC "-//W3C//DTD SVG 1.1//EN"
 "http://www.w3.org/Graphics/SVG/1.1/DTD/svg11.dtd">
<!-- Generated by graphviz version 2.43.0 (0)
 -->
<!-- Title: m_global_parameters::s_quad Pages: 1 -->
<svg width="558pt" height="94pt"
 viewBox="0.00 0.00 558.00 93.50" xmlns="http://www.w3.org/2000/svg" xmlns:xlink="http://www.w3.org/1999/xlink">
<g id="graph0" class="graph" transform="scale(1 1) rotate(0) translate(4 89.5)">
<title>m_global_parameters::s_quad</title>
<!-- Node1 -->
<g id="node1" class="node">
<title>Node1</title>
<g id="a_node1"><a xlink:title="Computes the quadrature for polydisperse bubble populations.">
<polygon fill="#bfbfbf" stroke="black" points="427,-24.5 427,-54.5 550,-54.5 550,-24.5 427,-24.5"/>
<text text-anchor="start" x="435" y="-42.5" font-family="Helvetica,sans-Serif" font-size="10.00">m_global_parameters</text>
<text text-anchor="middle" x="488.5" y="-31.5" font-family="Helvetica,sans-Serif" font-size="10.00">::s_quad</text>
</a>
</g>
</g>
<!-- Node2 -->
<g id="node2" class="node">
<title>Node2</title>
<g id="a_node2"><a xlink:href="namespacem__global__parameters.html#aac1a5a73b1eae759c913983b38047167" target="_top" xlink:title="Computes the bubble number density n from the conservative variables.">
<polygon fill="none" stroke="black" points="263,-49.5 263,-79.5 391,-79.5 391,-49.5 263,-49.5"/>
<text text-anchor="start" x="271" y="-67.5" font-family="Helvetica,sans-Serif" font-size="10.00">m_global_parameters</text>
<text text-anchor="middle" x="327" y="-56.5" font-family="Helvetica,sans-Serif" font-size="10.00">::s_comp_n_from_cons</text>
</a>
</g>
</g>
<!-- Node1&#45;&gt;Node2 -->
<g id="edge1" class="edge">
<title>Node1&#45;&gt;Node2</title>
<path fill="none" stroke="midnightblue" d="M416.83,-50.58C408.31,-51.91 399.64,-53.27 391.24,-54.59"/>
<polygon fill="midnightblue" stroke="midnightblue" points="417.41,-54.03 426.74,-49.02 416.32,-47.11 417.41,-54.03"/>
</g>
<!-- Node5 -->
<g id="node5" class="node">
<title>Node5</title>
<g id="a_node5"><a xlink:href="namespacem__global__parameters.html#acdaa3827df6fee38a3e55e8b13130c27" target="_top" xlink:title="Computes the bubble number density n from the primitive variables.">
<polygon fill="none" stroke="black" points="263,-0.5 263,-30.5 391,-30.5 391,-0.5 263,-0.5"/>
<text text-anchor="start" x="271" y="-18.5" font-family="Helvetica,sans-Serif" font-size="10.00">m_global_parameters</text>
<text text-anchor="middle" x="327" y="-7.5" font-family="Helvetica,sans-Serif" font-size="10.00">::s_comp_n_from_prim</text>
</a>
</g>
</g>
<!-- Node1&#45;&gt;Node5 -->
<g id="edge4" class="edge">
<title>Node1&#45;&gt;Node5</title>
<path fill="none" stroke="midnightblue" d="M416.83,-28.87C408.31,-27.58 399.64,-26.28 391.24,-25.02"/>
<polygon fill="midnightblue" stroke="midnightblue" points="416.34,-32.33 426.74,-30.36 417.38,-25.41 416.34,-32.33"/>
</g>
<!-- Node3 -->
<g id="node3" class="node">
<title>Node3</title>
<g id="a_node3"><a xlink:href="namespacem__variables__conversion.html#abecd489e8c769f12646d2647fab7dd53" target="_top" xlink:title="Converts the conservative variables to the primitive ones.">
<polygon fill="none" stroke="black" points="89,-44 89,-85 227,-85 227,-44 89,-44"/>
<text text-anchor="start" x="97" y="-73" font-family="Helvetica,sans-Serif" font-size="10.00">m_variables_conversion</text>
<text text-anchor="start" x="97" y="-62" font-family="Helvetica,sans-Serif" font-size="10.00">::s_convert_conservative</text>
<text text-anchor="middle" x="158" y="-51" font-family="Helvetica,sans-Serif" font-size="10.00">_to_primitive_variables</text>
</a>
</g>
</g>
<!-- Node2&#45;&gt;Node3 -->
<g id="edge2" class="edge">
<title>Node2&#45;&gt;Node3</title>
<path fill="none" stroke="midnightblue" d="M252.65,-64.5C244.21,-64.5 235.62,-64.5 227.25,-64.5"/>
<polygon fill="midnightblue" stroke="midnightblue" points="252.86,-68 262.86,-64.5 252.86,-61 252.86,-68"/>
</g>
<!-- Node4 -->
<g id="node4" class="node">
<title>Node4</title>
<g id="a_node4"><a xlink:href="p__main_8f90.html#aeec10ee8e2940c953967da3e374e1579" target="_top" xlink:title="The post&#45;process restructures raw unformatted data, outputted by the simulation, into a formatted dat...">
<polygon fill="none" stroke="black" points="0,-55 0,-74 53,-74 53,-55 0,-55"/>
<text text-anchor="middle" x="26.5" y="-62" font-family="Helvetica,sans-Serif" font-size="10.00">p_main</text>
</a>
</g>
</g>
<!-- Node3&#45;&gt;Node4 -->
<g id="edge3" class="edge">
<title>Node3&#45;&gt;Node4</title>
<path fill="none" stroke="midnightblue" d="M78.81,-64.5C69.67,-64.5 60.91,-64.5 53.29,-64.5"/>
<polygon fill="midnightblue" stroke="midnightblue" points="78.84,-68 88.84,-64.5 78.84,-61 78.84,-68"/>
</g>
</g>
</svg>
