<?xml version="1.0" encoding="UTF-8" standalone="no"?>
<!DOCTYPE svg PUBLIC "-//W3C//DTD SVG 1.1//EN"
 "http://www.w3.org/Graphics/SVG/1.1/DTD/svg11.dtd">
<!-- Generated by graphviz version 2.43.0 (0)
 -->
<!-- Title: m_data_output::s_write_variable_to_formatted_database_file Pages: 1 -->
<svg width="320pt" height="209pt"
 viewBox="0.00 0.00 320.00 209.00" xmlns="http://www.w3.org/2000/svg" xmlns:xlink="http://www.w3.org/1999/xlink">
<g id="graph0" class="graph" transform="scale(1 1) rotate(0) translate(4 205)">
<title>m_data_output::s_write_variable_to_formatted_database_file</title>
<!-- Node1 -->
<g id="node1" class="node">
<title>Node1</title>
<g id="a_node1"><a xlink:title=" ">
<polygon fill="#bfbfbf" stroke="black" points="0,-80 0,-121 131,-121 131,-80 0,-80"/>
<text text-anchor="start" x="8" y="-109" font-family="Helvetica,sans-Serif" font-size="10.00">m_data_output::s_write</text>
<text text-anchor="start" x="8" y="-98" font-family="Helvetica,sans-Serif" font-size="10.00">_variable_to_formatted</text>
<text text-anchor="middle" x="65.5" y="-87" font-family="Helvetica,sans-Serif" font-size="10.00">_database_file</text>
</a>
</g>
</g>
<!-- Node2 -->
<g id="node2" class="node">
<title>Node2</title>
<g id="a_node2"><a xlink:href="namespacem__data__output.html#ae32f7bdb38c6c216a819fb0b3a7e06cd" target="_top" xlink:title=" ">
<polygon fill="none" stroke="black" points="167,-170.5 167,-200.5 312,-200.5 312,-170.5 167,-170.5"/>
<text text-anchor="start" x="175" y="-188.5" font-family="Helvetica,sans-Serif" font-size="10.00">m_data_output::s_coarsen</text>
<text text-anchor="middle" x="239.5" y="-177.5" font-family="Helvetica,sans-Serif" font-size="10.00">_variable</text>
</a>
</g>
</g>
<!-- Node1&#45;&gt;Node2 -->
<g id="edge1" class="edge">
<title>Node1&#45;&gt;Node2</title>
<path fill="none" stroke="midnightblue" d="M97.29,-121.1C116.74,-133.54 142.7,-149.14 167,-160.5 171.65,-162.67 176.54,-164.76 181.49,-166.75"/>
<polygon fill="midnightblue" stroke="midnightblue" points="180.45,-170.1 191.04,-170.42 182.96,-163.56 180.45,-170.1"/>
</g>
<!-- Node3 -->
<g id="node3" class="node">
<title>Node3</title>
<g id="a_node3"><a xlink:href="namespacem__mpi__proxy.html#ae5286531f6390643aad1e4db5d5f6d91" target="_top" xlink:title="This subroutine gathers the sub&#45;domain flow variable data from all of the processors and puts it back...">
<polygon fill="none" stroke="black" points="178.5,-110 178.5,-151 300.5,-151 300.5,-110 178.5,-110"/>
<text text-anchor="start" x="186.5" y="-139" font-family="Helvetica,sans-Serif" font-size="10.00">m_mpi_proxy::s_mpi</text>
<text text-anchor="start" x="186.5" y="-128" font-family="Helvetica,sans-Serif" font-size="10.00">_defragment_1d_flow</text>
<text text-anchor="middle" x="239.5" y="-117" font-family="Helvetica,sans-Serif" font-size="10.00">_variable</text>
</a>
</g>
</g>
<!-- Node1&#45;&gt;Node3 -->
<g id="edge2" class="edge">
<title>Node1&#45;&gt;Node3</title>
<path fill="none" stroke="midnightblue" d="M131.04,-111.76C143.17,-113.87 155.92,-116.1 168.23,-118.24"/>
<polygon fill="midnightblue" stroke="midnightblue" points="167.98,-121.75 178.43,-120.02 169.18,-114.86 167.98,-121.75"/>
</g>
<!-- Node4 -->
<g id="node4" class="node">
<title>Node4</title>
<g id="a_node4"><a xlink:href="namespacem__mpi__proxy.html#ac15a15ba12e6110bb015af0ece5bba47" target="_top" xlink:title="This subroutine collects the sub&#45;domain cell&#45;boundary or cell&#45;center locations data from all of the p...">
<polygon fill="none" stroke="black" points="179.5,-50 179.5,-91 299.5,-91 299.5,-50 179.5,-50"/>
<text text-anchor="start" x="187.5" y="-79" font-family="Helvetica,sans-Serif" font-size="10.00">m_mpi_proxy::s_mpi</text>
<text text-anchor="start" x="187.5" y="-68" font-family="Helvetica,sans-Serif" font-size="10.00">_defragment_1d_grid</text>
<text text-anchor="middle" x="239.5" y="-57" font-family="Helvetica,sans-Serif" font-size="10.00">_variable</text>
</a>
</g>
</g>
<!-- Node1&#45;&gt;Node4 -->
<g id="edge3" class="edge">
<title>Node1&#45;&gt;Node4</title>
<path fill="none" stroke="midnightblue" d="M131.04,-89.24C143.52,-87.07 156.65,-84.78 169.28,-82.57"/>
<polygon fill="midnightblue" stroke="midnightblue" points="170.03,-86 179.28,-80.83 168.83,-79.1 170.03,-86"/>
</g>
<!-- Node5 -->
<g id="node5" class="node">
<title>Node5</title>
<g id="a_node5"><a xlink:href="namespacem__mpi__proxy.html#a0b226acd5a9097566685604292c3ae0d" target="_top" xlink:title="This subroutine gathers the Silo database metadata for the flow variable&#39;s extents as to boost perfor...">
<polygon fill="none" stroke="black" points="178.5,-0.5 178.5,-30.5 300.5,-30.5 300.5,-0.5 178.5,-0.5"/>
<text text-anchor="start" x="186.5" y="-18.5" font-family="Helvetica,sans-Serif" font-size="10.00">m_mpi_proxy::s_mpi</text>
<text text-anchor="middle" x="239.5" y="-7.5" font-family="Helvetica,sans-Serif" font-size="10.00">_gather_data_extents</text>
</a>
</g>
</g>
<!-- Node1&#45;&gt;Node5 -->
<g id="edge4" class="edge">
<title>Node1&#45;&gt;Node5</title>
<path fill="none" stroke="midnightblue" d="M97.29,-79.9C116.74,-67.46 142.7,-51.86 167,-40.5 171.65,-38.33 176.54,-36.24 181.49,-34.25"/>
<polygon fill="midnightblue" stroke="midnightblue" points="182.96,-37.44 191.04,-30.58 180.45,-30.9 182.96,-37.44"/>
</g>
</g>
</svg>
