<?xml version="1.0" encoding="UTF-8" standalone="no"?>
<!DOCTYPE svg PUBLIC "-//W3C//DTD SVG 1.1//EN"
 "http://www.w3.org/Graphics/SVG/1.1/DTD/svg11.dtd">
<!-- Generated by graphviz version 2.43.0 (0)
 -->
<!-- Title: m_start_up::s_finalize_modules Pages: 1 -->
<svg width="309pt" height="339pt"
 viewBox="0.00 0.00 309.00 338.50" xmlns="http://www.w3.org/2000/svg" xmlns:xlink="http://www.w3.org/1999/xlink">

<svg id="main" version="1.1" xmlns="http://www.w3.org/2000/svg" xmlns:xlink="http://www.w3.org/1999/xlink" xml:space="preserve" onload="init(evt)">
<style type="text/css"><![CDATA[
.node, .edge {opacity: 0.7;}
.node.selected, .edge.selected {opacity: 1;}
.edge:hover path { stroke: red; }
.edge:hover polygon { stroke: red; fill: red; }
]]></style>
<script type="application/ecmascript" xlink:href="svg.min.js"/>
<svg id="graph" class="graph">
<g id="graph0" class="graph" transform="scale(1 1) rotate(0) translate(4 334.5)">
<title>m_start_up::s_finalize_modules</title>
<!-- Node1 -->
<g id="Node000001" class="node">
<title>Node1</title>
<g id="a_Node000001"><a xlink:title=" ">
<polygon fill="#999999" stroke="#666666" points="123,-169.5 0,-169.5 0,-139.5 123,-139.5 123,-169.5"/>
<text text-anchor="start" x="8" y="-157.5" font-family="Helvetica,sans-Serif" font-size="10.00">m_start_up::s_finalize</text>
<text text-anchor="middle" x="61.5" y="-146.5" font-family="Helvetica,sans-Serif" font-size="10.00">_modules</text>
</a>
</g>
</g>
<!-- Node2 -->
<g id="Node000002" class="node">
<title>Node2</title>
<g id="a_Node000002"><a xlink:href="namespacem__data__input.html#aa29d4a799cd1c1cd7d0f05f05f42abe0" target="_top" xlink:title="Deallocation procedures for the module.">
<polygon fill="white" stroke="#666666" points="297.5,-330.5 162.5,-330.5 162.5,-300.5 297.5,-300.5 297.5,-330.5"/>
<text text-anchor="start" x="170.5" y="-318.5" font-family="Helvetica,sans-Serif" font-size="10.00">m_data_input::s_finalize</text>
<text text-anchor="middle" x="230" y="-307.5" font-family="Helvetica,sans-Serif" font-size="10.00">_data_input_module</text>
</a>
</g>
</g>
<!-- Node1&#45;&gt;Node2 -->
<g id="edge1_Node000001_Node000002" class="edge">
<title>Node1&#45;&gt;Node2</title>
<g id="a_edge1_Node000001_Node000002"><a xlink:title=" ">
<path fill="none" stroke="#63b8ff" d="M69.2,-169.62C82.38,-197.68 114.32,-257.98 159,-291.5 160.84,-292.88 162.76,-294.18 164.74,-295.41"/>
<polygon fill="#63b8ff" stroke="#63b8ff" points="163.34,-298.63 173.8,-300.36 166.7,-292.49 163.34,-298.63"/>
</a>
</g>
</g>
<!-- Node3 -->
<g id="Node000003" class="node">
<title>Node3</title>
<g id="a_Node000003"><a xlink:href="namespacem__data__output.html#a02f2b04a434c1f0ebf9156147d0f976e" target="_top" xlink:title=" ">
<polygon fill="white" stroke="#666666" points="301,-282.5 159,-282.5 159,-252.5 301,-252.5 301,-282.5"/>
<text text-anchor="start" x="167" y="-270.5" font-family="Helvetica,sans-Serif" font-size="10.00">m_data_output::s_finalize</text>
<text text-anchor="middle" x="230" y="-259.5" font-family="Helvetica,sans-Serif" font-size="10.00">_data_output_module</text>
</a>
</g>
</g>
<!-- Node1&#45;&gt;Node3 -->
<g id="edge2_Node000001_Node000003" class="edge">
<title>Node1&#45;&gt;Node3</title>
<g id="a_edge2_Node000001_Node000003"><a xlink:title=" ">
<path fill="none" stroke="#63b8ff" d="M75.38,-169.79C92.6,-189.37 124.94,-223.19 159,-243.5 161.81,-245.18 164.76,-246.76 167.79,-248.25"/>
<polygon fill="#63b8ff" stroke="#63b8ff" points="166.5,-251.51 177.05,-252.43 169.38,-245.13 166.5,-251.51"/>
</a>
</g>
</g>
<!-- Node4 -->
<g id="Node000004" class="node">
<title>Node4</title>
<g id="a_Node000004"><a xlink:href="namespacem__derived__variables.html#a735665bf598281689158d9d6e075f3d4" target="_top" xlink:title="Deallocation procedures for the module.">
<polygon fill="white" stroke="#666666" points="289.5,-234 170.5,-234 170.5,-193 289.5,-193 289.5,-234"/>
<text text-anchor="start" x="178.5" y="-222" font-family="Helvetica,sans-Serif" font-size="10.00">m_derived_variables</text>
<text text-anchor="start" x="178.5" y="-211" font-family="Helvetica,sans-Serif" font-size="10.00">::s_finalize_derived</text>
<text text-anchor="middle" x="230" y="-200" font-family="Helvetica,sans-Serif" font-size="10.00">_variables_module</text>
</a>
</g>
</g>
<!-- Node1&#45;&gt;Node4 -->
<g id="edge3_Node000001_Node000004" class="edge">
<title>Node1&#45;&gt;Node4</title>
<g id="a_edge3_Node000001_Node000004"><a xlink:title=" ">
<path fill="none" stroke="#63b8ff" d="M104.95,-169.54C122.09,-175.62 142.3,-182.78 161.38,-189.54"/>
<polygon fill="#63b8ff" stroke="#63b8ff" points="160.33,-192.88 170.93,-192.92 162.67,-186.28 160.33,-192.88"/>
</a>
</g>
</g>
<!-- Node5 -->
<g id="Node000005" class="node">
<title>Node5</title>
<g id="a_Node000005"><a xlink:href="namespacem__global__parameters.html#aa2237c2ed3662bbd69ef39e2e92af7bf" target="_top" xlink:title="Deallocation procedures for the module.">
<polygon fill="white" stroke="#666666" points="291.5,-175 168.5,-175 168.5,-134 291.5,-134 291.5,-175"/>
<text text-anchor="start" x="176.5" y="-163" font-family="Helvetica,sans-Serif" font-size="10.00">m_global_parameters</text>
<text text-anchor="start" x="176.5" y="-152" font-family="Helvetica,sans-Serif" font-size="10.00">::s_finalize_global</text>
<text text-anchor="middle" x="230" y="-141" font-family="Helvetica,sans-Serif" font-size="10.00">_parameters_module</text>
</a>
</g>
</g>
<!-- Node1&#45;&gt;Node5 -->
<g id="edge4_Node000001_Node000005" class="edge">
<title>Node1&#45;&gt;Node5</title>
<g id="a_edge4_Node000001_Node000005"><a xlink:title=" ">
<path fill="none" stroke="#63b8ff" d="M123.08,-154.5C134.52,-154.5 146.57,-154.5 158.28,-154.5"/>
<polygon fill="#63b8ff" stroke="#63b8ff" points="158.46,-158 168.46,-154.5 158.46,-151 158.46,-158"/>
</a>
</g>
</g>
<!-- Node6 -->
<g id="Node000006" class="node">
<title>Node6</title>
<g id="a_Node000006"><a xlink:href="namespacem__mpi__proxy.html#ac984c84fe4140876d6600250af9807da" target="_top" xlink:title="Deallocation procedures for the module.">
<polygon fill="white" stroke="#666666" points="297,-115.5 163,-115.5 163,-85.5 297,-85.5 297,-115.5"/>
<text text-anchor="start" x="171" y="-103.5" font-family="Helvetica,sans-Serif" font-size="10.00">m_mpi_proxy::s_finalize</text>
<text text-anchor="middle" x="230" y="-92.5" font-family="Helvetica,sans-Serif" font-size="10.00">_mpi_proxy_module</text>
</a>
</g>
</g>
<!-- Node1&#45;&gt;Node6 -->
<g id="edge5_Node000001_Node000006" class="edge">
<title>Node1&#45;&gt;Node6</title>
<g id="a_edge5_Node000001_Node000006"><a xlink:title=" ">
<path fill="none" stroke="#63b8ff" d="M108.88,-139.46C128.73,-133.02 152.09,-125.44 172.91,-118.69"/>
<polygon fill="#63b8ff" stroke="#63b8ff" points="174.15,-121.97 182.58,-115.55 171.99,-115.31 174.15,-121.97"/>
</a>
</g>
</g>
<!-- Node7 -->
<g id="Node000007" class="node">
<title>Node7</title>
<g id="a_Node000007"><a xlink:href="m__variables__conversion_8fpp_8f90.html#ace14d66a864f202904444921d6927a20" target="_top" xlink:title=" ">
<polygon fill="white" stroke="#666666" points="288.5,-67.5 171.5,-67.5 171.5,-37.5 288.5,-37.5 288.5,-67.5"/>
<text text-anchor="start" x="179.5" y="-55.5" font-family="Helvetica,sans-Serif" font-size="10.00">s_finalize_variables</text>
<text text-anchor="middle" x="230" y="-44.5" font-family="Helvetica,sans-Serif" font-size="10.00">_conversion_module</text>
</a>
</g>
</g>
<!-- Node1&#45;&gt;Node7 -->
<g id="edge6_Node000001_Node000007" class="edge">
<title>Node1&#45;&gt;Node7</title>
<g id="a_edge6_Node000001_Node000007"><a xlink:title=" ">
<path fill="none" stroke="#63b8ff" d="M77.64,-139.39C95.67,-122.13 127.33,-94.01 159,-76.5 162.07,-74.8 165.29,-73.19 168.58,-71.67"/>
<polygon fill="#63b8ff" stroke="#63b8ff" points="170.19,-74.79 178,-67.63 167.43,-68.36 170.19,-74.79"/>
</a>
</g>
</g>
<!-- Node8 -->
<g id="Node000008" class="node">
<title>Node8</title>
<g id="a_Node000008"><a xlink:href="m__mpi__common_8fpp_8f90.html#a284ab739ceaa5d422dcf5fed4a1e82ae" target="_top" xlink:title="The subroutine finalizes the MPI execution environment.">
<polygon fill="white" stroke="#666666" points="273,-19 187,-19 187,0 273,0 273,-19"/>
<text text-anchor="middle" x="230" y="-7" font-family="Helvetica,sans-Serif" font-size="10.00">s_mpi_finalize</text>
</a>
</g>
</g>
<!-- Node1&#45;&gt;Node8 -->
<g id="edge7_Node000001_Node000008" class="edge">
<title>Node1&#45;&gt;Node8</title>
<g id="a_edge7_Node000001_Node000008"><a xlink:title=" ">
<path fill="none" stroke="#63b8ff" d="M69.98,-139.09C83.77,-112.37 115.76,-57.52 159,-28.5 164.42,-24.86 170.52,-21.92 176.79,-19.54"/>
<polygon fill="#63b8ff" stroke="#63b8ff" points="178.34,-22.71 186.73,-16.24 176.14,-16.07 178.34,-22.71"/>
</a>
</g>
</g>
</g>
</svg>
</svg>

<style type='text/css'>
<![CDATA[
[data-mouse-over-selected='false'] { opacity: 0.7; }
[data-mouse-over-selected='true']  { opacity: 1.0; }
]]>
</style>
<script type="application/ecmascript"><![CDATA[
document.addEventListener('DOMContentLoaded', (event) => {
  highlightEdges();
  highlightAdjacentNodes();
});
]]></script>
</svg>
