<?xml version="1.0" encoding="UTF-8" standalone="no"?>
<!DOCTYPE svg PUBLIC "-//W3C//DTD SVG 1.1//EN"
 "http://www.w3.org/Graphics/SVG/1.1/DTD/svg11.dtd">
<!-- Generated by graphviz version 2.43.0 (0)
 -->
<!-- Title: m_stl::crossprod Pages: 1 -->
<svg width="403pt" height="64pt"
 viewBox="0.00 0.00 403.00 64.00" xmlns="http://www.w3.org/2000/svg" xmlns:xlink="http://www.w3.org/1999/xlink">
<g id="graph0" class="graph" transform="scale(1 1) rotate(0) translate(4 60)">
<title>m_stl::crossprod</title>
<!-- Node1 -->
<g id="node1" class="node">
<title>Node1</title>
<g id="a_node1"><a xlink:title=" ">
<polygon fill="#999999" stroke="#666666" points="395,-37 298,-37 298,-18 395,-18 395,-37"/>
<text text-anchor="middle" x="346.5" y="-25" font-family="Helvetica,sans-Serif" font-size="10.00">m_stl::crossprod</text>
</a>
</g>
</g>
<!-- Node2 -->
<g id="node2" class="node">
<title>Node2</title>
<g id="a_node2"><a xlink:href="namespacem__stl.html#a60170e2e45c00f3d940feefb44f7d44a" target="_top" xlink:title=" ">
<polygon fill="white" stroke="#666666" points="262,-56 155,-56 155,-37 262,-37 262,-56"/>
<text text-anchor="middle" x="208.5" y="-44" font-family="Helvetica,sans-Serif" font-size="10.00">m_stl::f_intersects</text>
</a>
</g>
</g>
<!-- Node1&#45;&gt;Node2 -->
<g id="edge1" class="edge">
<title>Node1&#45;&gt;Node2</title>
<path fill="none" stroke="#63b8ff" d="M287.79,-35.56C279.36,-36.74 270.71,-37.95 262.38,-39.11"/>
<polygon fill="#63b8ff" stroke="#63b8ff" points="288.51,-39 297.93,-34.15 287.55,-32.06 288.51,-39"/>
</g>
<!-- Node4 -->
<g id="node4" class="node">
<title>Node4</title>
<g id="a_node4"><a xlink:href="namespacem__stl.html#a73d2d12bf13e53299bef2b2ab3f926b8" target="_top" xlink:title="This procedure reads a binary STL file. The caller is responsible for freeing the memory allocated fo...">
<polygon fill="white" stroke="#666666" points="258,-19 159,-19 159,0 258,0 258,-19"/>
<text text-anchor="middle" x="208.5" y="-7" font-family="Helvetica,sans-Serif" font-size="10.00">m_stl::s_stl_read</text>
</a>
</g>
</g>
<!-- Node1&#45;&gt;Node4 -->
<g id="edge3" class="edge">
<title>Node1&#45;&gt;Node4</title>
<path fill="none" stroke="#63b8ff" d="M287.8,-19.86C277.94,-18.56 267.79,-17.21 258.19,-15.94"/>
<polygon fill="#63b8ff" stroke="#63b8ff" points="287.56,-23.36 297.93,-21.2 288.48,-16.42 287.56,-23.36"/>
</g>
<!-- Node3 -->
<g id="node3" class="node">
<title>Node3</title>
<g id="a_node3"><a xlink:href="namespacem__stl.html#a692f4734e6b058a947cf03cc3b1bdc42" target="_top" xlink:title=" ">
<polygon fill="white" stroke="#666666" points="119,-56 0,-56 0,-37 119,-37 119,-56"/>
<text text-anchor="middle" x="59.5" y="-44" font-family="Helvetica,sans-Serif" font-size="10.00">m_stl::f_stl_is_inside</text>
</a>
</g>
</g>
<!-- Node2&#45;&gt;Node3 -->
<g id="edge2" class="edge">
<title>Node2&#45;&gt;Node3</title>
<path fill="none" stroke="#63b8ff" d="M144.61,-46.5C136.12,-46.5 127.44,-46.5 119.02,-46.5"/>
<polygon fill="#63b8ff" stroke="#63b8ff" points="144.84,-50 154.84,-46.5 144.84,-43 144.84,-50"/>
</g>
</g>
</svg>
