<?xml version="1.0" encoding="UTF-8" standalone="no"?>
<!DOCTYPE svg PUBLIC "-//W3C//DTD SVG 1.1//EN"
 "http://www.w3.org/Graphics/SVG/1.1/DTD/svg11.dtd">
<!-- Generated by graphviz version 2.43.0 (0)
 -->
<!-- Title: m_mpi_proxy::s_mpi_abort Pages: 1 -->
<!--zoomable 238 -->
<svg id="main" version="1.1" xmlns="http://www.w3.org/2000/svg" xmlns:xlink="http://www.w3.org/1999/xlink" xml:space="preserve" onload="init(evt)">
<style type="text/css"><![CDATA[
.edge:hover path { stroke: red; }
.edge:hover polygon { stroke: red; fill: red; }
]]></style>
<script type="text/javascript"><![CDATA[
var edges = document.getElementsByTagName('g');
if (edges && edges.length) {
  for (var i=0;i<edges.length;i++) {
    if (edges[i].id.substr(0,4)=='edge') {
      edges[i].setAttribute('class','edge');
    }
  }
}
]]></script>
        <defs>
                <circle id="rim" cx="0" cy="0" r="7"/>
                <circle id="rim2" cx="0" cy="0" r="3.5"/>
                <g id="zoomPlus">
                        <use xlink:href="#rim" fill="#404040">
                                <set attributeName="fill" to="#808080" begin="zoomplus.mouseover" end="zoomplus.mouseout"/>
                        </use>
                        <path d="M-4,0h8M0,-4v8" fill="none" stroke="white" stroke-width="1.5" pointer-events="none"/>
                </g>
                <g id="zoomMin">
                        <use xlink:href="#rim" fill="#404040">
                                <set attributeName="fill" to="#808080" begin="zoomminus.mouseover" end="zoomminus.mouseout"/>
                        </use>
                        <path d="M-4,0h8" fill="none" stroke="white" stroke-width="1.5" pointer-events="none"/>
                </g>
                <g id="dirArrow">
                        <path fill="none" stroke="white" stroke-width="1.5" d="M0,-3.0v7 M-2.5,-0.5L0,-3.0L2.5,-0.5"/>
                </g>
               <g id="resetDef">
                       <use xlink:href="#rim2" fill="#404040">
                               <set attributeName="fill" to="#808080" begin="reset.mouseover" end="reset.mouseout"/>
                       </use>
               </g>
        </defs>

<script type="text/javascript">
var viewWidth = 551;
var viewHeight = 238;
var sectionId = 'dynsection-3';
</script>
<script xlink:href="svgpan.js"/>
<svg id="graph" class="graph">
<g id="viewport">
<title>m_mpi_proxy::s_mpi_abort</title>
<!-- Node1 -->
<g id="node1" class="node">
<title>Node1</title>
<g id="a_node1"><a xlink:title="The subroutine terminates the MPI execution environment.">
<polygon fill="#999999" stroke="#666666" points="543,-139.42 425,-139.42 425,-109.42 543,-109.42 543,-139.42"/>
<text text-anchor="start" x="433" y="-127.42" font-family="Helvetica,sans-Serif" font-size="10.00">m_mpi_proxy::s_mpi</text>
<text text-anchor="middle" x="484" y="-116.42" font-family="Helvetica,sans-Serif" font-size="10.00">_abort</text>
</a>
</g>
</g>
<!-- Node2 -->
<g id="node2" class="node">
<title>Node2</title>
<g id="a_node2"><a xlink:href="namespacem__start__up.html#ad77478b402c186b1f620b7d14aab9123" target="_top" xlink:title="Checking that the user inputs make sense, i.e. that the individual choices are compatible with the co...">
<polygon fill="white" stroke="#666666" points="218,-230.42 102,-230.42 102,-200.42 218,-200.42 218,-230.42"/>
<text text-anchor="start" x="110" y="-218.42" font-family="Helvetica,sans-Serif" font-size="10.00">m_start_up::s_check</text>
<text text-anchor="middle" x="160" y="-207.42" font-family="Helvetica,sans-Serif" font-size="10.00">_input_file</text>
</a>
</g>
</g>
<!-- Node1&#45;&gt;Node2 -->
<g id="edge1" class="edge">
<title>Node1&#45;&gt;Node2</title>
<path fill="none" stroke="#63b8ff" d="M446.27,-144.07C429.23,-152.53 408.48,-161.96 389,-168.42 332.23,-187.27 264.9,-200.03 218.19,-207.45"/>
<polygon fill="#63b8ff" stroke="#63b8ff" points="447.98,-147.12 455.32,-139.48 444.82,-140.88 447.98,-147.12"/>
</g>
<!-- Node4 -->
<g id="node4" class="node">
<title>Node4</title>
<g id="a_node4"><a xlink:href="namespacem__data__output.html#ae767b4364e76ee05872868171fd2f05d" target="_top" xlink:title=" ">
<polygon fill="white" stroke="#666666" points="230.5,-182.42 89.5,-182.42 89.5,-152.42 230.5,-152.42 230.5,-182.42"/>
<text text-anchor="start" x="97.5" y="-170.42" font-family="Helvetica,sans-Serif" font-size="10.00">m_data_output::s_open</text>
<text text-anchor="middle" x="160" y="-159.42" font-family="Helvetica,sans-Serif" font-size="10.00">_formatted_database_file</text>
</a>
</g>
</g>
<!-- Node1&#45;&gt;Node4 -->
<g id="edge3" class="edge">
<title>Node1&#45;&gt;Node4</title>
<path fill="none" stroke="#63b8ff" d="M420.68,-141.88C410.17,-144.38 399.32,-146.69 389,-148.42 336.32,-157.28 276.05,-162.08 230.72,-164.63"/>
<polygon fill="#63b8ff" stroke="#63b8ff" points="421.75,-145.22 430.63,-139.44 420.09,-138.43 421.75,-145.22"/>
</g>
<!-- Node5 -->
<g id="node5" class="node">
<title>Node5</title>
<g id="a_node5"><a xlink:href="namespacem__start__up.html#a3a19eb11ae434dc590a1bd7835442891" target="_top" xlink:title="Reads the configuration file post_process.inp, in order to populate parameters in module m_global_par...">
<polygon fill="white" stroke="#666666" points="383,-139.42 273,-139.42 273,-109.42 383,-109.42 383,-139.42"/>
<text text-anchor="start" x="281" y="-127.42" font-family="Helvetica,sans-Serif" font-size="10.00">m_start_up::s_read</text>
<text text-anchor="middle" x="328" y="-116.42" font-family="Helvetica,sans-Serif" font-size="10.00">_input_file</text>
</a>
</g>
</g>
<!-- Node1&#45;&gt;Node5 -->
<g id="edge5" class="edge">
<title>Node1&#45;&gt;Node5</title>
<path fill="none" stroke="#63b8ff" d="M414.76,-124.42C404.2,-124.42 393.43,-124.42 383.24,-124.42"/>
<polygon fill="#63b8ff" stroke="#63b8ff" points="414.78,-127.92 424.78,-124.42 414.78,-120.92 414.78,-127.92"/>
</g>
<!-- Node6 -->
<g id="node6" class="node">
<title>Node6</title>
<g id="a_node6"><a xlink:href="namespacem__data__input.html#a0dd37369dd52b1299b06563f96c25805" target="_top" xlink:title="This subroutine is called at each time&#45;step that has to be post&#45;processed in order to parallel&#45;read t...">
<polygon fill="white" stroke="#666666" points="389,-91.42 267,-91.42 267,-61.42 389,-61.42 389,-91.42"/>
<text text-anchor="start" x="275" y="-79.42" font-family="Helvetica,sans-Serif" font-size="10.00">m_data_input::s_read</text>
<text text-anchor="middle" x="328" y="-68.42" font-family="Helvetica,sans-Serif" font-size="10.00">_parallel_data_files</text>
</a>
</g>
</g>
<!-- Node1&#45;&gt;Node6 -->
<g id="edge7" class="edge">
<title>Node1&#45;&gt;Node6</title>
<path fill="none" stroke="#63b8ff" d="M425.04,-106.36C409.24,-101.43 392.31,-96.16 377.13,-91.43"/>
<polygon fill="#63b8ff" stroke="#63b8ff" points="424.11,-109.73 434.7,-109.37 426.19,-103.05 424.11,-109.73"/>
</g>
<!-- Node8 -->
<g id="node8" class="node">
<title>Node8</title>
<g id="a_node8"><a xlink:href="namespacem__data__input.html#a9d69f4bcb771c60157b62bc4b04a6ba1" target="_top" xlink:title="This subroutine is called at each time&#45;step that has to be post&#45;processed in order to read the raw da...">
<polygon fill="white" stroke="#666666" points="389,-43.42 267,-43.42 267,-13.42 389,-13.42 389,-43.42"/>
<text text-anchor="start" x="275" y="-31.42" font-family="Helvetica,sans-Serif" font-size="10.00">m_data_input::s_read</text>
<text text-anchor="middle" x="328" y="-20.42" font-family="Helvetica,sans-Serif" font-size="10.00">_serial_data_files</text>
</a>
</g>
</g>
<!-- Node1&#45;&gt;Node8 -->
<g id="edge11" class="edge">
<title>Node1&#45;&gt;Node8</title>
<path fill="none" stroke="#63b8ff" d="M458.53,-102.68C440.28,-87.24 414.26,-66.79 389,-52.42 383.34,-49.21 377.17,-46.22 371,-43.51"/>
<polygon fill="#63b8ff" stroke="#63b8ff" points="456.46,-105.52 466.33,-109.38 461.02,-100.21 456.46,-105.52"/>
</g>
<!-- Node3 -->
<g id="node3" class="node">
<title>Node3</title>
<g id="a_node3"><a xlink:href="p__main_8f90.html#aeec10ee8e2940c953967da3e374e1579" target="_top" xlink:title="The post&#45;process restructures raw unformatted data, outputted by the simulation, into a formatted dat...">
<polygon fill="white" stroke="#666666" points="53,-114.92 0,-114.92 0,-95.92 53,-95.92 53,-114.92"/>
<text text-anchor="middle" x="26.5" y="-102.92" font-family="Helvetica,sans-Serif" font-size="10.00">p_main</text>
</a>
</g>
</g>
<!-- Node2&#45;&gt;Node3 -->
<g id="edge2" class="edge">
<title>Node2&#45;&gt;Node3</title>
<path fill="none" stroke="#63b8ff" d="M94.76,-195.32C92.77,-194.09 90.84,-192.8 89,-191.42 60.88,-170.48 40.49,-132.92 31.94,-115.19"/>
<polygon fill="#63b8ff" stroke="#63b8ff" points="93.36,-198.55 103.82,-200.25 96.71,-192.4 93.36,-198.55"/>
</g>
<!-- Node4&#45;&gt;Node3 -->
<g id="edge4" class="edge">
<title>Node4&#45;&gt;Node3</title>
<path fill="none" stroke="#63b8ff" d="M111.19,-148.36C103.71,-145.17 96.1,-141.79 89,-138.42 73.56,-131.11 56.47,-121.84 44.24,-114.99"/>
<polygon fill="#63b8ff" stroke="#63b8ff" points="109.98,-151.65 120.55,-152.3 112.69,-145.2 109.98,-151.65"/>
</g>
<!-- Node5&#45;&gt;Node3 -->
<g id="edge6" class="edge">
<title>Node5&#45;&gt;Node3</title>
<path fill="none" stroke="#63b8ff" d="M262.57,-120.34C197.25,-116.19 99.42,-109.99 53.31,-107.06"/>
<polygon fill="#63b8ff" stroke="#63b8ff" points="262.56,-123.84 272.76,-120.98 263,-116.86 262.56,-123.84"/>
</g>
<!-- Node6&#45;&gt;Node3 -->
<g id="edge8" class="edge">
<title>Node6&#45;&gt;Node3</title>
<path fill="none" stroke="#63b8ff" d="M256.55,-83.25C191.37,-89.56 98.04,-98.59 53.32,-102.92"/>
<polygon fill="#63b8ff" stroke="#63b8ff" points="257.14,-86.7 266.75,-82.26 256.46,-79.74 257.14,-86.7"/>
</g>
<!-- Node7 -->
<g id="node7" class="node">
<title>Node7</title>
<g id="a_node7"><a xlink:href="namespacem__data__input.html#a806c2edb19d6a47fd494f8491d2b93d3" target="_top" xlink:title="Computation of parameters, allocation procedures, and/or any other tasks needed to properly setup the...">
<polygon fill="white" stroke="#666666" points="231,-58.42 89,-58.42 89,-28.42 231,-28.42 231,-58.42"/>
<text text-anchor="start" x="97" y="-46.42" font-family="Helvetica,sans-Serif" font-size="10.00">m_data_input::s_initialize</text>
<text text-anchor="middle" x="160" y="-35.42" font-family="Helvetica,sans-Serif" font-size="10.00">_data_input_module</text>
</a>
</g>
</g>
<!-- Node6&#45;&gt;Node7 -->
<g id="edge9" class="edge">
<title>Node6&#45;&gt;Node7</title>
<path fill="none" stroke="#63b8ff" d="M256.77,-62.46C248.32,-60.78 239.67,-59.06 231.21,-57.38"/>
<polygon fill="#63b8ff" stroke="#63b8ff" points="256.11,-65.9 266.6,-64.42 257.47,-59.03 256.11,-65.9"/>
</g>
<!-- Node7&#45;&gt;Node3 -->
<g id="edge10" class="edge">
<title>Node7&#45;&gt;Node3</title>
<path fill="none" stroke="#63b8ff" d="M111.19,-62.48C103.71,-65.68 96.1,-69.06 89,-72.42 73.56,-79.74 56.47,-89.01 44.24,-95.86"/>
<polygon fill="#63b8ff" stroke="#63b8ff" points="112.69,-65.65 120.55,-58.54 109.98,-59.2 112.69,-65.65"/>
</g>
<!-- Node8&#45;&gt;Node3 -->
<g id="edge12" class="edge">
<title>Node8&#45;&gt;Node3</title>
<path fill="none" stroke="#63b8ff" d="M269.09,-11.02C218.65,0.72 145.02,9.39 89,-19.42 57.17,-35.79 38.15,-77.12 30.89,-95.89"/>
<polygon fill="#63b8ff" stroke="#63b8ff" points="268.31,-14.44 278.86,-13.4 269.97,-7.63 268.31,-14.44"/>
</g>
<!-- Node8&#45;&gt;Node7 -->
<g id="edge13" class="edge">
<title>Node8&#45;&gt;Node7</title>
<path fill="none" stroke="#63b8ff" d="M256.5,-34.79C248.13,-35.55 239.58,-36.32 231.21,-37.08"/>
<polygon fill="#63b8ff" stroke="#63b8ff" points="256.96,-38.27 266.6,-33.88 256.33,-31.3 256.96,-38.27"/>
</g>
</g>
</svg>
        <g id="navigator" transform="translate(0 0)" fill="#404254">
                <rect fill="#f2f5e9" fill-opacity="0.5" stroke="#606060" stroke-width=".5" x="0" y="0" width="60" height="60"/>
                <use id="zoomplus" xlink:href="#zoomPlus" x="17" y="9" onmousedown="handleZoom(evt,'in')"/>
                <use id="zoomminus" xlink:href="#zoomMin" x="42" y="9" onmousedown="handleZoom(evt,'out')"/>
                <use id="reset" xlink:href="#resetDef" x="30" y="36" onmousedown="handleReset()"/>
                <g id="arrowUp" xlink:href="#dirArrow" transform="translate(30 24)" onmousedown="handlePan(0,-1)">
                  <use xlink:href="#rim" fill="#404040">
                        <set attributeName="fill" to="#808080" begin="arrowUp.mouseover" end="arrowUp.mouseout"/>
                  </use>
                  <path fill="none" stroke="white" stroke-width="1.5" d="M0,-3.0v7 M-2.5,-0.5L0,-3.0L2.5,-0.5"/>
                </g>
                <g id="arrowRight" xlink:href="#dirArrow" transform="rotate(90) translate(36 -43)" onmousedown="handlePan(1,0)">
                  <use xlink:href="#rim" fill="#404040">
                        <set attributeName="fill" to="#808080" begin="arrowRight.mouseover" end="arrowRight.mouseout"/>
                  </use>
                  <path fill="none" stroke="white" stroke-width="1.5" d="M0,-3.0v7 M-2.5,-0.5L0,-3.0L2.5,-0.5"/>
                </g>
                <g id="arrowDown" xlink:href="#dirArrow" transform="rotate(180) translate(-30 -48)" onmousedown="handlePan(0,1)">
                  <use xlink:href="#rim" fill="#404040">
                        <set attributeName="fill" to="#808080" begin="arrowDown.mouseover" end="arrowDown.mouseout"/>
                  </use>
                  <path fill="none" stroke="white" stroke-width="1.5" d="M0,-3.0v7 M-2.5,-0.5L0,-3.0L2.5,-0.5"/>
                </g>
                <g id="arrowLeft" xlink:href="#dirArrow" transform="rotate(270) translate(-36 17)" onmousedown="handlePan(-1,0)">
                  <use xlink:href="#rim" fill="#404040">
                        <set attributeName="fill" to="#808080" begin="arrowLeft.mouseover" end="arrowLeft.mouseout"/>
                  </use>
                  <path fill="none" stroke="white" stroke-width="1.5" d="M0,-3.0v7 M-2.5,-0.5L0,-3.0L2.5,-0.5"/>
                </g>
        </g>
        <svg viewBox="0 0 15 15" width="100%" height="30px" preserveAspectRatio="xMaxYMin meet">
         <g id="arrow_out" transform="scale(0.3 0.3)">
          <a xlink:href="namespacem__mpi__proxy_a04ac565bad2b22dc045a5eeb4f516e2e_icgraph_org.svg" target="_base">
           <rect id="button" ry="5" rx="5" y="6" x="6" height="38" width="38"
                fill="#f2f5e9" fill-opacity="0.5" stroke="#606060" stroke-width="1.0"/>
           <path id="arrow"
             d="M 11.500037,31.436501 C 11.940474,20.09759 22.043105,11.32322 32.158766,21.979434 L 37.068811,17.246167 C 37.068811,17.246167 37.088388,32 37.088388,32 L 22.160133,31.978069 C 22.160133,31.978069 26.997745,27.140456 26.997745,27.140456 C 18.528582,18.264221 13.291696,25.230495 11.500037,31.436501 z"
             style="fill:#404040;"/>
          </a>
         </g>
        </svg>
</svg>
