<?xml version="1.0" encoding="UTF-8" standalone="no"?>
<!DOCTYPE svg PUBLIC "-//W3C//DTD SVG 1.1//EN"
 "http://www.w3.org/Graphics/SVG/1.1/DTD/svg11.dtd">
<!-- Generated by graphviz version 2.43.0 (0)
 -->
<!-- Title: m_data_input::s_read_serial_data_files Pages: 1 -->
<svg width="397pt" height="59pt"
 viewBox="0.00 0.00 397.00 59.00" xmlns="http://www.w3.org/2000/svg" xmlns:xlink="http://www.w3.org/1999/xlink">
<g id="graph0" class="graph" transform="scale(1 1) rotate(0) translate(4 55)">
<title>m_data_input::s_read_serial_data_files</title>
<!-- Node1 -->
<g id="Node000001" class="node">
<title>Node1</title>
<g id="a_Node000001"><a xlink:title="This subroutine is called at each time&#45;step that has to be post&#45;processed in order to read the raw da...">
<polygon fill="#999999" stroke="#666666" points="389,-51 267,-51 267,-21 389,-21 389,-51"/>
<text text-anchor="start" x="275" y="-39" font-family="Helvetica,sans-Serif" font-size="10.00">m_data_input::s_read</text>
<text text-anchor="middle" x="328" y="-28" font-family="Helvetica,sans-Serif" font-size="10.00">_serial_data_files</text>
</a>
</g>
</g>
<!-- Node2 -->
<g id="Node000002" class="node">
<title>Node2</title>
<g id="a_Node000002"><a xlink:href="p__main_8fpp_8f90.html#aeec10ee8e2940c953967da3e374e1579" target="_top" xlink:title="The post&#45;process restructures raw unformatted data, outputted by the simulation, into a formatted dat...">
<polygon fill="white" stroke="#666666" points="53,-45.5 0,-45.5 0,-26.5 53,-26.5 53,-45.5"/>
<text text-anchor="middle" x="26.5" y="-33.5" font-family="Helvetica,sans-Serif" font-size="10.00">p_main</text>
</a>
</g>
</g>
<!-- Node1&#45;&gt;Node2 -->
<g id="edge1_Node000001_Node000002" class="edge">
<title>Node1&#45;&gt;Node2</title>
<g id="a_edge1_Node000001_Node000002"><a xlink:title=" ">
<path fill="none" stroke="#63b8ff" d="M256.73,-38.45C248.06,-38.68 239.33,-38.87 231,-39 167.9,-39.99 152.09,-40.54 89,-39 77.24,-38.71 64.24,-38.12 53.22,-37.53"/>
<polygon fill="#63b8ff" stroke="#63b8ff" points="256.94,-41.94 266.83,-38.17 256.74,-34.95 256.94,-41.94"/>
</a>
</g>
</g>
<!-- Node3 -->
<g id="Node000003" class="node">
<title>Node3</title>
<g id="a_Node000003"><a xlink:href="namespacem__data__input.html#a806c2edb19d6a47fd494f8491d2b93d3" target="_top" xlink:title="Computation of parameters, allocation procedures, and/or any other tasks needed to properly setup the...">
<polygon fill="white" stroke="#666666" points="231,-30 89,-30 89,0 231,0 231,-30"/>
<text text-anchor="start" x="97" y="-18" font-family="Helvetica,sans-Serif" font-size="10.00">m_data_input::s_initialize</text>
<text text-anchor="middle" x="160" y="-7" font-family="Helvetica,sans-Serif" font-size="10.00">_data_input_module</text>
</a>
</g>
</g>
<!-- Node1&#45;&gt;Node3 -->
<g id="edge2_Node000001_Node000003" class="edge">
<title>Node1&#45;&gt;Node3</title>
<g id="a_edge2_Node000001_Node000003"><a xlink:title=" ">
<path fill="none" stroke="#63b8ff" d="M256.5,-27.08C248.13,-26.02 239.58,-24.94 231.21,-23.88"/>
<polygon fill="#63b8ff" stroke="#63b8ff" points="256.24,-30.58 266.6,-28.36 257.12,-23.63 256.24,-30.58"/>
</a>
</g>
</g>
<!-- Node3&#45;&gt;Node2 -->
<g id="edge3_Node000003_Node000002" class="edge">
<title>Node3&#45;&gt;Node2</title>
<g id="a_edge3_Node000003_Node000002"><a xlink:title=" ">
<path fill="none" stroke="#63b8ff" d="M78.59,-27.84C69.45,-29.3 60.71,-30.7 53.13,-31.91"/>
<polygon fill="#63b8ff" stroke="#63b8ff" points="79.31,-31.27 88.63,-26.24 78.2,-24.36 79.31,-31.27"/>
</a>
</g>
</g>
</g>
</svg>
