<?xml version="1.0" encoding="UTF-8" standalone="no"?>
<!DOCTYPE svg PUBLIC "-//W3C//DTD SVG 1.1//EN"
 "http://www.w3.org/Graphics/SVG/1.1/DTD/svg11.dtd">
<!-- Generated by graphviz version 2.43.0 (0)
 -->
<!-- Title: m_mpi_proxy::s_mpi_abort Pages: 1 -->
<!--zoomable 243 -->
<svg id="main" version="1.1" xmlns="http://www.w3.org/2000/svg" xmlns:xlink="http://www.w3.org/1999/xlink" xml:space="preserve" onload="init(evt)">
<style type="text/css"><![CDATA[
.edge:hover path { stroke: red; }
.edge:hover polygon { stroke: red; fill: red; }
]]></style>
<script type="text/javascript"><![CDATA[
var edges = document.getElementsByTagName('g');
if (edges && edges.length) {
  for (var i=0;i<edges.length;i++) {
    if (edges[i].id.substr(0,4)=='edge') {
      edges[i].setAttribute('class','edge');
    }
  }
}
]]></script>
        <defs>
                <circle id="rim" cx="0" cy="0" r="7"/>
                <circle id="rim2" cx="0" cy="0" r="3.5"/>
                <g id="zoomPlus">
                        <use xlink:href="#rim" fill="#404040">
                                <set attributeName="fill" to="#808080" begin="zoomplus.mouseover" end="zoomplus.mouseout"/>
                        </use>
                        <path d="M-4,0h8M0,-4v8" fill="none" stroke="white" stroke-width="1.5" pointer-events="none"/>
                </g>
                <g id="zoomMin">
                        <use xlink:href="#rim" fill="#404040">
                                <set attributeName="fill" to="#808080" begin="zoomminus.mouseover" end="zoomminus.mouseout"/>
                        </use>
                        <path d="M-4,0h8" fill="none" stroke="white" stroke-width="1.5" pointer-events="none"/>
                </g>
                <g id="dirArrow">
                        <path fill="none" stroke="white" stroke-width="1.5" d="M0,-3.0v7 M-2.5,-0.5L0,-3.0L2.5,-0.5"/>
                </g>
               <g id="resetDef">
                       <use xlink:href="#rim2" fill="#404040">
                               <set attributeName="fill" to="#808080" begin="reset.mouseover" end="reset.mouseout"/>
                       </use>
               </g>
        </defs>

<script type="text/javascript">
var viewWidth = 551;
var viewHeight = 243;
var sectionId = 'dynsection-3';
</script>
<script xlink:href="svgpan.js"/>
<svg id="graph" class="graph">
<g id="viewport">
<title>m_mpi_proxy::s_mpi_abort</title>
<!-- Node1 -->
<g id="node1" class="node">
<title>Node1</title>
<g id="a_node1"><a xlink:title="The subroutine terminates the MPI execution environment.">
<polygon fill="#bfbfbf" stroke="black" points="425,-111.66 425,-141.66 543,-141.66 543,-111.66 425,-111.66"/>
<text text-anchor="start" x="433" y="-129.66" font-family="Helvetica,sans-Serif" font-size="10.00">m_mpi_proxy::s_mpi</text>
<text text-anchor="middle" x="484" y="-118.66" font-family="Helvetica,sans-Serif" font-size="10.00">_abort</text>
</a>
</g>
</g>
<!-- Node2 -->
<g id="node2" class="node">
<title>Node2</title>
<g id="a_node2"><a xlink:href="namespacem__start__up.html#ad77478b402c186b1f620b7d14aab9123" target="_top" xlink:title="Checking that the user inputs make sense, i.e. that the individual choices are compatible with the co...">
<polygon fill="none" stroke="black" points="102,-204.66 102,-234.66 218,-234.66 218,-204.66 102,-204.66"/>
<text text-anchor="start" x="110" y="-222.66" font-family="Helvetica,sans-Serif" font-size="10.00">m_start_up::s_check</text>
<text text-anchor="middle" x="160" y="-211.66" font-family="Helvetica,sans-Serif" font-size="10.00">_input_file</text>
</a>
</g>
</g>
<!-- Node1&#45;&gt;Node2 -->
<g id="edge1" class="edge">
<title>Node1&#45;&gt;Node2</title>
<path fill="none" stroke="midnightblue" d="M446.69,-146.55C429.58,-155.26 408.66,-164.99 389,-171.66 332.3,-190.89 264.96,-203.93 218.23,-211.5"/>
<polygon fill="midnightblue" stroke="midnightblue" points="448.5,-149.55 455.76,-141.84 445.27,-143.34 448.5,-149.55"/>
</g>
<!-- Node4 -->
<g id="node4" class="node">
<title>Node4</title>
<g id="a_node4"><a xlink:href="namespacem__data__output.html#ae767b4364e76ee05872868171fd2f05d" target="_top" xlink:title=" ">
<polygon fill="none" stroke="black" points="89.5,-155.66 89.5,-185.66 230.5,-185.66 230.5,-155.66 89.5,-155.66"/>
<text text-anchor="start" x="97.5" y="-173.66" font-family="Helvetica,sans-Serif" font-size="10.00">m_data_output::s_open</text>
<text text-anchor="middle" x="160" y="-162.66" font-family="Helvetica,sans-Serif" font-size="10.00">_formatted_database_file</text>
</a>
</g>
</g>
<!-- Node1&#45;&gt;Node4 -->
<g id="edge3" class="edge">
<title>Node1&#45;&gt;Node4</title>
<path fill="none" stroke="midnightblue" d="M423.32,-144.22C412,-147.07 400.2,-149.72 389,-151.66 336.36,-160.78 276.1,-165.56 230.75,-168.04"/>
<polygon fill="midnightblue" stroke="midnightblue" points="424.32,-147.58 433.12,-141.68 422.56,-140.8 424.32,-147.58"/>
</g>
<!-- Node5 -->
<g id="node5" class="node">
<title>Node5</title>
<g id="a_node5"><a xlink:href="namespacem__start__up.html#a3a19eb11ae434dc590a1bd7835442891" target="_top" xlink:title="Reads the configuration file post_process.inp, in order to populate parameters in module m_global_par...">
<polygon fill="none" stroke="black" points="273,-111.66 273,-141.66 383,-141.66 383,-111.66 273,-111.66"/>
<text text-anchor="start" x="281" y="-129.66" font-family="Helvetica,sans-Serif" font-size="10.00">m_start_up::s_read</text>
<text text-anchor="middle" x="328" y="-118.66" font-family="Helvetica,sans-Serif" font-size="10.00">_input_file</text>
</a>
</g>
</g>
<!-- Node1&#45;&gt;Node5 -->
<g id="edge5" class="edge">
<title>Node1&#45;&gt;Node5</title>
<path fill="none" stroke="midnightblue" d="M414.76,-126.66C404.2,-126.66 393.43,-126.66 383.24,-126.66"/>
<polygon fill="midnightblue" stroke="midnightblue" points="414.78,-130.16 424.78,-126.66 414.78,-123.16 414.78,-130.16"/>
</g>
<!-- Node6 -->
<g id="node6" class="node">
<title>Node6</title>
<g id="a_node6"><a xlink:href="namespacem__data__input.html#a0dd37369dd52b1299b06563f96c25805" target="_top" xlink:title="This subroutine is called at each time&#45;step that has to be post&#45;processed in order to parallel&#45;read t...">
<polygon fill="none" stroke="black" points="267,-62.66 267,-92.66 389,-92.66 389,-62.66 267,-62.66"/>
<text text-anchor="start" x="275" y="-80.66" font-family="Helvetica,sans-Serif" font-size="10.00">m_data_input::s_read</text>
<text text-anchor="middle" x="328" y="-69.66" font-family="Helvetica,sans-Serif" font-size="10.00">_parallel_data_files</text>
</a>
</g>
</g>
<!-- Node1&#45;&gt;Node6 -->
<g id="edge7" class="edge">
<title>Node1&#45;&gt;Node6</title>
<path fill="none" stroke="midnightblue" d="M425.61,-108.4C409.37,-103.23 391.88,-97.67 376.3,-92.71"/>
<polygon fill="midnightblue" stroke="midnightblue" points="424.95,-111.86 435.54,-111.56 427.07,-105.19 424.95,-111.86"/>
</g>
<!-- Node8 -->
<g id="node8" class="node">
<title>Node8</title>
<g id="a_node8"><a xlink:href="namespacem__data__input.html#a9d69f4bcb771c60157b62bc4b04a6ba1" target="_top" xlink:title="This subroutine is called at each time&#45;step that has to be post&#45;processed in order to read the raw da...">
<polygon fill="none" stroke="black" points="267,-13.66 267,-43.66 389,-43.66 389,-13.66 267,-13.66"/>
<text text-anchor="start" x="275" y="-31.66" font-family="Helvetica,sans-Serif" font-size="10.00">m_data_input::s_read</text>
<text text-anchor="middle" x="328" y="-20.66" font-family="Helvetica,sans-Serif" font-size="10.00">_serial_data_files</text>
</a>
</g>
</g>
<!-- Node1&#45;&gt;Node8 -->
<g id="edge11" class="edge">
<title>Node1&#45;&gt;Node8</title>
<path fill="none" stroke="midnightblue" d="M458.51,-104.69C440.26,-89.08 414.24,-68.36 389,-53.66 382.86,-50.08 376.1,-46.75 369.41,-43.76"/>
<polygon fill="midnightblue" stroke="midnightblue" points="456.47,-107.56 466.32,-111.47 461.06,-102.27 456.47,-107.56"/>
</g>
<!-- Node3 -->
<g id="node3" class="node">
<title>Node3</title>
<g id="a_node3"><a xlink:href="p__main_8f90.html#aeec10ee8e2940c953967da3e374e1579" target="_top" xlink:title="The post&#45;process restructures raw unformatted data, outputted by the simulation, into a formatted dat...">
<polygon fill="none" stroke="black" points="0,-98.16 0,-117.16 53,-117.16 53,-98.16 0,-98.16"/>
<text text-anchor="middle" x="26.5" y="-105.16" font-family="Helvetica,sans-Serif" font-size="10.00">p_main</text>
</a>
</g>
</g>
<!-- Node2&#45;&gt;Node3 -->
<g id="edge2" class="edge">
<title>Node2&#45;&gt;Node3</title>
<path fill="none" stroke="midnightblue" d="M94.74,-199.58C92.75,-198.34 90.83,-197.04 89,-195.66 60.41,-174.13 40.11,-135.39 31.75,-117.37"/>
<polygon fill="midnightblue" stroke="midnightblue" points="93.33,-202.8 103.78,-204.54 96.7,-196.66 93.33,-202.8"/>
</g>
<!-- Node4&#45;&gt;Node3 -->
<g id="edge4" class="edge">
<title>Node4&#45;&gt;Node3</title>
<path fill="none" stroke="midnightblue" d="M112.79,-151.53C104.8,-148.03 96.62,-144.33 89,-140.66 73.61,-133.25 56.51,-123.99 44.26,-117.17"/>
<polygon fill="midnightblue" stroke="midnightblue" points="111.47,-154.77 122.03,-155.53 114.25,-148.35 111.47,-154.77"/>
</g>
<!-- Node5&#45;&gt;Node3 -->
<g id="edge6" class="edge">
<title>Node5&#45;&gt;Node3</title>
<path fill="none" stroke="midnightblue" d="M262.57,-122.57C197.25,-118.43 99.42,-112.22 53.31,-109.29"/>
<polygon fill="midnightblue" stroke="midnightblue" points="262.56,-126.08 272.76,-123.22 263,-119.09 262.56,-126.08"/>
</g>
<!-- Node6&#45;&gt;Node3 -->
<g id="edge8" class="edge">
<title>Node6&#45;&gt;Node3</title>
<path fill="none" stroke="midnightblue" d="M256.55,-84.71C191.37,-91.24 98.04,-100.59 53.32,-105.07"/>
<polygon fill="midnightblue" stroke="midnightblue" points="257.15,-88.17 266.75,-83.69 256.45,-81.21 257.15,-88.17"/>
</g>
<!-- Node7 -->
<g id="node7" class="node">
<title>Node7</title>
<g id="a_node7"><a xlink:href="namespacem__data__input.html#a806c2edb19d6a47fd494f8491d2b93d3" target="_top" xlink:title="Computation of parameters, allocation procedures, and/or any other tasks needed to properly setup the...">
<polygon fill="none" stroke="black" points="89,-29.66 89,-59.66 231,-59.66 231,-29.66 89,-29.66"/>
<text text-anchor="start" x="97" y="-47.66" font-family="Helvetica,sans-Serif" font-size="10.00">m_data_input::s_initialize</text>
<text text-anchor="middle" x="160" y="-36.66" font-family="Helvetica,sans-Serif" font-size="10.00">_data_input_module</text>
</a>
</g>
</g>
<!-- Node6&#45;&gt;Node7 -->
<g id="edge9" class="edge">
<title>Node6&#45;&gt;Node7</title>
<path fill="none" stroke="midnightblue" d="M256.77,-63.7C248.32,-62.02 239.67,-60.3 231.21,-58.62"/>
<polygon fill="midnightblue" stroke="midnightblue" points="256.11,-67.13 266.6,-65.65 257.47,-60.27 256.11,-67.13"/>
</g>
<!-- Node7&#45;&gt;Node3 -->
<g id="edge10" class="edge">
<title>Node7&#45;&gt;Node3</title>
<path fill="none" stroke="midnightblue" d="M112.79,-63.78C104.8,-67.28 96.62,-70.99 89,-74.66 73.61,-82.07 56.51,-91.33 44.26,-98.15"/>
<polygon fill="midnightblue" stroke="midnightblue" points="114.25,-66.97 122.03,-59.78 111.47,-60.54 114.25,-66.97"/>
</g>
<!-- Node8&#45;&gt;Node3 -->
<g id="edge12" class="edge">
<title>Node8&#45;&gt;Node3</title>
<path fill="none" stroke="midnightblue" d="M269.48,-11.22C218.98,0.68 145.03,9.54 89,-19.66 56.77,-36.45 37.96,-78.72 30.82,-97.91"/>
<polygon fill="midnightblue" stroke="midnightblue" points="268.71,-14.63 279.26,-13.63 270.38,-7.83 268.71,-14.63"/>
</g>
<!-- Node8&#45;&gt;Node7 -->
<g id="edge13" class="edge">
<title>Node8&#45;&gt;Node7</title>
<path fill="none" stroke="midnightblue" d="M256.5,-35.45C248.13,-36.26 239.58,-37.08 231.21,-37.89"/>
<polygon fill="midnightblue" stroke="midnightblue" points="256.98,-38.92 266.6,-34.48 256.31,-31.95 256.98,-38.92"/>
</g>
</g>
</svg>
        <g id="navigator" transform="translate(0 0)" fill="#404254">
                <rect fill="#f2f5e9" fill-opacity="0.5" stroke="#606060" stroke-width=".5" x="0" y="0" width="60" height="60"/>
                <use id="zoomplus" xlink:href="#zoomPlus" x="17" y="9" onmousedown="handleZoom(evt,'in')"/>
                <use id="zoomminus" xlink:href="#zoomMin" x="42" y="9" onmousedown="handleZoom(evt,'out')"/>
                <use id="reset" xlink:href="#resetDef" x="30" y="36" onmousedown="handleReset()"/>
                <g id="arrowUp" xlink:href="#dirArrow" transform="translate(30 24)" onmousedown="handlePan(0,-1)">
                  <use xlink:href="#rim" fill="#404040">
                        <set attributeName="fill" to="#808080" begin="arrowUp.mouseover" end="arrowUp.mouseout"/>
                  </use>
                  <path fill="none" stroke="white" stroke-width="1.5" d="M0,-3.0v7 M-2.5,-0.5L0,-3.0L2.5,-0.5"/>
                </g>
                <g id="arrowRight" xlink:href="#dirArrow" transform="rotate(90) translate(36 -43)" onmousedown="handlePan(1,0)">
                  <use xlink:href="#rim" fill="#404040">
                        <set attributeName="fill" to="#808080" begin="arrowRight.mouseover" end="arrowRight.mouseout"/>
                  </use>
                  <path fill="none" stroke="white" stroke-width="1.5" d="M0,-3.0v7 M-2.5,-0.5L0,-3.0L2.5,-0.5"/>
                </g>
                <g id="arrowDown" xlink:href="#dirArrow" transform="rotate(180) translate(-30 -48)" onmousedown="handlePan(0,1)">
                  <use xlink:href="#rim" fill="#404040">
                        <set attributeName="fill" to="#808080" begin="arrowDown.mouseover" end="arrowDown.mouseout"/>
                  </use>
                  <path fill="none" stroke="white" stroke-width="1.5" d="M0,-3.0v7 M-2.5,-0.5L0,-3.0L2.5,-0.5"/>
                </g>
                <g id="arrowLeft" xlink:href="#dirArrow" transform="rotate(270) translate(-36 17)" onmousedown="handlePan(-1,0)">
                  <use xlink:href="#rim" fill="#404040">
                        <set attributeName="fill" to="#808080" begin="arrowLeft.mouseover" end="arrowLeft.mouseout"/>
                  </use>
                  <path fill="none" stroke="white" stroke-width="1.5" d="M0,-3.0v7 M-2.5,-0.5L0,-3.0L2.5,-0.5"/>
                </g>
        </g>
        <svg viewBox="0 0 15 15" width="100%" height="30px" preserveAspectRatio="xMaxYMin meet">
         <g id="arrow_out" transform="scale(0.3 0.3)">
          <a xlink:href="namespacem__mpi__proxy_a04ac565bad2b22dc045a5eeb4f516e2e_icgraph_org.svg" target="_base">
           <rect id="button" ry="5" rx="5" y="6" x="6" height="38" width="38"
                fill="#f2f5e9" fill-opacity="0.5" stroke="#606060" stroke-width="1.0"/>
           <path id="arrow"
             d="M 11.500037,31.436501 C 11.940474,20.09759 22.043105,11.32322 32.158766,21.979434 L 37.068811,17.246167 C 37.068811,17.246167 37.088388,32 37.088388,32 L 22.160133,31.978069 C 22.160133,31.978069 26.997745,27.140456 26.997745,27.140456 C 18.528582,18.264221 13.291696,25.230495 11.500037,31.436501 z"
             style="fill:#404040;"/>
          </a>
         </g>
        </svg>
</svg>
