<?xml version="1.0" encoding="UTF-8" standalone="no"?>
<!DOCTYPE svg PUBLIC "-//W3C//DTD SVG 1.1//EN"
 "http://www.w3.org/Graphics/SVG/1.1/DTD/svg11.dtd">
<!-- Generated by graphviz version 2.43.0 (0)
 -->
<!-- Title: m_start_up::s_perform_time_step Pages: 1 -->
<svg width="526pt" height="279pt"
 viewBox="0.00 0.00 526.00 279.00" xmlns="http://www.w3.org/2000/svg" xmlns:xlink="http://www.w3.org/1999/xlink">
<g id="graph0" class="graph" transform="scale(1 1) rotate(0) translate(4 275)">
<title>m_start_up::s_perform_time_step</title>
<!-- Node1 -->
<g id="Node000001" class="node">
<title>Node1</title>
<g id="a_Node000001"><a xlink:title=" ">
<polygon fill="#999999" stroke="#666666" points="127,-94.5 0,-94.5 0,-64.5 127,-64.5 127,-94.5"/>
<text text-anchor="start" x="8" y="-82.5" font-family="Helvetica,sans-Serif" font-size="10.00">m_start_up::s_perform</text>
<text text-anchor="middle" x="63.5" y="-71.5" font-family="Helvetica,sans-Serif" font-size="10.00">_time_step</text>
</a>
</g>
</g>
<!-- Node2 -->
<g id="Node000002" class="node">
<title>Node2</title>
<g id="a_Node000002"><a xlink:href="m__variables__conversion_8fpp_8f90.html#a24725c6eb206c9a62e2ec70bf368836d" target="_top" xlink:title="The following procedure handles the conversion between the conservative variables and the primitive v...">
<polygon fill="white" stroke="#666666" points="300.5,-196.5 168.5,-196.5 168.5,-166.5 300.5,-166.5 300.5,-196.5"/>
<text text-anchor="start" x="176.5" y="-184.5" font-family="Helvetica,sans-Serif" font-size="10.00">s_convert_conservative</text>
<text text-anchor="middle" x="234.5" y="-173.5" font-family="Helvetica,sans-Serif" font-size="10.00">_to_primitive_variables</text>
</a>
</g>
</g>
<!-- Node1&#45;&gt;Node2 -->
<g id="edge1_Node000001_Node000002" class="edge">
<title>Node1&#45;&gt;Node2</title>
<g id="a_edge1_Node000001_Node000002"><a xlink:title=" ">
<path fill="none" stroke="#63b8ff" d="M89.44,-94.55C118.64,-112.18 167.17,-141.46 199.73,-161.12"/>
<polygon fill="#63b8ff" stroke="#63b8ff" points="198.09,-164.22 208.46,-166.39 201.71,-158.22 198.09,-164.22"/>
</a>
</g>
</g>
<!-- Node7 -->
<g id="Node000007" class="node">
<title>Node7</title>
<g id="a_Node000007"><a xlink:href="namespacem__data__input.html#a5cef0da967dbbf0d148b26bd67046c8d" target="_top" xlink:title="The purpose of this procedure is to populate the buffers of the cell&#45;average conservative variables,...">
<polygon fill="white" stroke="#666666" points="306,-100 163,-100 163,-59 306,-59 306,-100"/>
<text text-anchor="start" x="171" y="-88" font-family="Helvetica,sans-Serif" font-size="10.00">m_data_input::s_populate</text>
<text text-anchor="start" x="171" y="-77" font-family="Helvetica,sans-Serif" font-size="10.00">_conservative_variables</text>
<text text-anchor="middle" x="234.5" y="-66" font-family="Helvetica,sans-Serif" font-size="10.00">_buffer_regions</text>
</a>
</g>
</g>
<!-- Node1&#45;&gt;Node7 -->
<g id="edge6_Node000001_Node000007" class="edge">
<title>Node1&#45;&gt;Node7</title>
<g id="a_edge6_Node000001_Node000007"><a xlink:title=" ">
<path fill="none" stroke="#63b8ff" d="M127.43,-79.5C135.64,-79.5 144.13,-79.5 152.58,-79.5"/>
<polygon fill="#63b8ff" stroke="#63b8ff" points="152.84,-83 162.84,-79.5 152.84,-76 152.84,-83"/>
</a>
</g>
</g>
<!-- Node9 -->
<g id="Node000009" class="node">
<title>Node9</title>
<g id="a_Node000009"><a xlink:href="namespacem__data__input.html#afc05d7714001946feb2485ce18cb00f6" target="_top" xlink:title="The following subroutine populates the buffer regions of the cell&#45;width spacings, the cell&#45;boundary l...">
<polygon fill="white" stroke="#666666" points="306,-41 163,-41 163,0 306,0 306,-41"/>
<text text-anchor="start" x="171" y="-29" font-family="Helvetica,sans-Serif" font-size="10.00">m_data_input::s_populate</text>
<text text-anchor="start" x="171" y="-18" font-family="Helvetica,sans-Serif" font-size="10.00">_grid_variables_buffer</text>
<text text-anchor="middle" x="234.5" y="-7" font-family="Helvetica,sans-Serif" font-size="10.00">_regions</text>
</a>
</g>
</g>
<!-- Node1&#45;&gt;Node9 -->
<g id="edge8_Node000001_Node000009" class="edge">
<title>Node1&#45;&gt;Node9</title>
<g id="a_edge8_Node000001_Node000009"><a xlink:title=" ">
<path fill="none" stroke="#63b8ff" d="M107.58,-64.46C124.98,-58.38 145.5,-51.22 164.86,-44.46"/>
<polygon fill="#63b8ff" stroke="#63b8ff" points="166.27,-47.68 174.56,-41.08 163.96,-41.07 166.27,-47.68"/>
</a>
</g>
</g>
<!-- Node3 -->
<g id="Node000003" class="node">
<title>Node3</title>
<g id="a_Node000003"><a xlink:href="m__helper_8fpp_8f90.html#a772c75c8b24c414cfaed17e2f8acc772" target="_top" xlink:title=" ">
<polygon fill="white" stroke="#666666" points="491,-271 369,-271 369,-252 491,-252 491,-271"/>
<text text-anchor="middle" x="430" y="-259" font-family="Helvetica,sans-Serif" font-size="10.00">s_comp_n_from_cons</text>
</a>
</g>
</g>
<!-- Node2&#45;&gt;Node3 -->
<g id="edge2_Node000002_Node000003" class="edge">
<title>Node2&#45;&gt;Node3</title>
<g id="a_edge2_Node000002_Node000003"><a xlink:title=" ">
<path fill="none" stroke="#63b8ff" d="M256.89,-196.76C277.68,-210.89 310.63,-231.49 342,-243.5 347.77,-245.71 353.86,-247.66 360.03,-249.4"/>
<polygon fill="#63b8ff" stroke="#63b8ff" points="359.2,-252.8 369.76,-251.93 360.97,-246.02 359.2,-252.8"/>
</a>
</g>
</g>
<!-- Node4 -->
<g id="Node000004" class="node">
<title>Node4</title>
<g id="a_Node000004"><a xlink:href="m__variables__conversion_8fpp_8f90.html#ad31047dc31e7ee8fc14d8717c4d0c334" target="_top" xlink:title="This procedure conditionally calculates the appropriate pressure.">
<polygon fill="white" stroke="#666666" points="488.5,-234 371.5,-234 371.5,-215 488.5,-215 488.5,-234"/>
<text text-anchor="middle" x="430" y="-222" font-family="Helvetica,sans-Serif" font-size="10.00">s_compute_pressure</text>
</a>
</g>
</g>
<!-- Node2&#45;&gt;Node4 -->
<g id="edge3_Node000002_Node000004" class="edge">
<title>Node2&#45;&gt;Node4</title>
<g id="a_edge3_Node000002_Node000004"><a xlink:title=" ">
<path fill="none" stroke="#63b8ff" d="M300.54,-196.23C314.23,-199.31 328.59,-202.52 342,-205.5 352.75,-207.88 364.25,-210.41 375.25,-212.82"/>
<polygon fill="#63b8ff" stroke="#63b8ff" points="374.66,-216.27 385.17,-214.99 376.15,-209.43 374.66,-216.27"/>
</a>
</g>
</g>
<!-- Node5 -->
<g id="Node000005" class="node">
<title>Node5</title>
<g id="a_Node000005"><a xlink:href="m__variables__conversion_8fpp_8f90.html#a429dacb6b48479f387786642eb79900d" target="_top" xlink:title=" ">
<polygon fill="white" stroke="#666666" points="496,-196.5 364,-196.5 364,-166.5 496,-166.5 496,-196.5"/>
<text text-anchor="start" x="372" y="-184.5" font-family="Helvetica,sans-Serif" font-size="10.00">s_convert_species_to</text>
<text text-anchor="middle" x="430" y="-173.5" font-family="Helvetica,sans-Serif" font-size="10.00">_mixture_variables_acc</text>
</a>
</g>
</g>
<!-- Node2&#45;&gt;Node5 -->
<g id="edge4_Node000002_Node000005" class="edge">
<title>Node2&#45;&gt;Node5</title>
<g id="a_edge4_Node000002_Node000005"><a xlink:title=" ">
<path fill="none" stroke="#63b8ff" d="M300.74,-181.5C317.71,-181.5 336.13,-181.5 353.57,-181.5"/>
<polygon fill="#63b8ff" stroke="#63b8ff" points="353.71,-185 363.71,-181.5 353.71,-178 353.71,-185"/>
</a>
</g>
</g>
<!-- Node6 -->
<g id="Node000006" class="node">
<title>Node6</title>
<g id="a_Node000006"><a xlink:href="m__variables__conversion_8fpp_8f90.html#ab5ef0fb6705f3250d70ca1d9d750952c" target="_top" xlink:title=" ">
<polygon fill="white" stroke="#666666" points="518,-148.5 342,-148.5 342,-118.5 518,-118.5 518,-148.5"/>
<text text-anchor="start" x="350" y="-136.5" font-family="Helvetica,sans-Serif" font-size="10.00">s_convert_species_to</text>
<text text-anchor="middle" x="430" y="-125.5" font-family="Helvetica,sans-Serif" font-size="10.00">_mixture_variables_bubbles_acc</text>
</a>
</g>
</g>
<!-- Node2&#45;&gt;Node6 -->
<g id="edge5_Node000002_Node000006" class="edge">
<title>Node2&#45;&gt;Node6</title>
<g id="a_edge5_Node000002_Node000006"><a xlink:title=" ">
<path fill="none" stroke="#63b8ff" d="M296.19,-166.44C316.01,-161.53 338.17,-156.03 358.63,-150.96"/>
<polygon fill="#63b8ff" stroke="#63b8ff" points="359.66,-154.31 368.52,-148.5 357.97,-147.51 359.66,-154.31"/>
</a>
</g>
</g>
<!-- Node8 -->
<g id="Node000008" class="node">
<title>Node8</title>
<g id="a_Node000008"><a xlink:href="namespacem__mpi__proxy.html#a4d7ec0d1976967504babdf44ec83c1b1" target="_top" xlink:title="Communicates buffer regions associated with conservative variables with processors in charge of the n...">
<polygon fill="white" stroke="#666666" points="490,-100 370,-100 370,-59 490,-59 490,-100"/>
<text text-anchor="start" x="378" y="-88" font-family="Helvetica,sans-Serif" font-size="10.00">m_mpi_proxy::s_mpi</text>
<text text-anchor="start" x="378" y="-77" font-family="Helvetica,sans-Serif" font-size="10.00">_sendrecv_cons_vars</text>
<text text-anchor="middle" x="430" y="-66" font-family="Helvetica,sans-Serif" font-size="10.00">_buffer_regions</text>
</a>
</g>
</g>
<!-- Node7&#45;&gt;Node8 -->
<g id="edge7_Node000007_Node000008" class="edge">
<title>Node7&#45;&gt;Node8</title>
<g id="a_edge7_Node000007_Node000008"><a xlink:title=" ">
<path fill="none" stroke="#63b8ff" d="M306.18,-79.5C323.69,-79.5 342.43,-79.5 359.86,-79.5"/>
<polygon fill="#63b8ff" stroke="#63b8ff" points="359.96,-83 369.95,-79.5 359.95,-76 359.96,-83"/>
</a>
</g>
</g>
<!-- Node10 -->
<g id="Node000010" class="node">
<title>Node10</title>
<g id="a_Node000010"><a xlink:href="namespacem__mpi__proxy.html#a8e48d59a04981a6594f25ad7a7562492" target="_top" xlink:title="Communicates the buffer regions associated with the grid variables with processors in charge of the n...">
<polygon fill="white" stroke="#666666" points="489,-41 371,-41 371,0 489,0 489,-41"/>
<text text-anchor="start" x="379" y="-29" font-family="Helvetica,sans-Serif" font-size="10.00">m_mpi_proxy::s_mpi</text>
<text text-anchor="start" x="379" y="-18" font-family="Helvetica,sans-Serif" font-size="10.00">_sendrecv_grid_vars</text>
<text text-anchor="middle" x="430" y="-7" font-family="Helvetica,sans-Serif" font-size="10.00">_buffer_regions</text>
</a>
</g>
</g>
<!-- Node9&#45;&gt;Node10 -->
<g id="edge9_Node000009_Node000010" class="edge">
<title>Node9&#45;&gt;Node10</title>
<g id="a_edge9_Node000009_Node000010"><a xlink:title=" ">
<path fill="none" stroke="#63b8ff" d="M306.18,-20.5C323.96,-20.5 343.01,-20.5 360.67,-20.5"/>
<polygon fill="#63b8ff" stroke="#63b8ff" points="360.89,-24 370.89,-20.5 360.89,-17 360.89,-24"/>
</a>
</g>
</g>
</g>
</svg>
